<svg width="6" height="10" viewBox="0 0 6 10" fill="none" xmlns="http://www.w3.org/2000/svg">
<path fill-rule="evenodd" clip-rule="evenodd" d="M1.16786 9.66668C1.01209 9.66698 0.861133 9.61273 0.741191 9.51335H0.741191C0.457745 9.27835 0.418466 8.85807 0.653459 8.57463C0.653814 8.5742 0.654169 8.57377 0.654525 8.57334L3.64119 5.00001L0.761191 1.42001H0.761191C0.529086 1.13419 0.572627 0.714336 0.858443 0.48223C0.859357 0.481487 0.860273 0.480747 0.861191 0.48001V0.48001C1.13761 0.236794 1.55886 0.263713 1.80208 0.540136C1.8134 0.553005 1.82422 0.566306 1.83452 0.58001L5.05452 4.58001C5.25673 4.82601 5.25673 5.18068 5.05452 5.42668L1.72119 9.42668H1.72119C1.58555 9.59031 1.38001 9.67945 1.16785 9.66668L1.16786 9.66668Z" fill="#DF853D"/>
</svg>
