<svg width="39" height="40" viewBox="0 0 39 40" fill="none" xmlns="http://www.w3.org/2000/svg">
<path d="M12.1875 37.0625C13.5337 37.0625 14.625 35.9712 14.625 34.625C14.625 33.2788 13.5337 32.1875 12.1875 32.1875C10.8413 32.1875 9.75 33.2788 9.75 34.625C9.75 35.9712 10.8413 37.0625 12.1875 37.0625Z" fill="white"/>
<path d="M29.25 37.0625C30.5962 37.0625 31.6875 35.9712 31.6875 34.625C31.6875 33.2788 30.5962 32.1875 29.25 32.1875C27.9038 32.1875 26.8125 33.2788 26.8125 34.625C26.8125 35.9712 27.9038 37.0625 29.25 37.0625Z" fill="white"/>
<path d="M6.06937 3.91737C6.01417 3.64119 5.86502 3.39266 5.64728 3.21402C5.42953 3.03538 5.15664 2.93767 4.875 2.9375H0V5.375H3.87562L8.55562 28.7701C8.61083 29.0463 8.75998 29.2948 8.97772 29.4735C9.19546 29.6521 9.46836 29.7498 9.75 29.75H31.6875V27.3125H10.7494L9.77437 22.4375H31.6875C31.9647 22.4375 32.2337 22.3429 32.4499 22.1694C32.6662 21.9959 32.8168 21.7539 32.877 21.4832L35.6411 9.03125H33.1463L30.7101 20H9.28687L6.06937 3.91737Z" fill="white"/>
<path d="M21.9375 7.8125V2.9375H19.5V7.8125H14.625V10.25H19.5V15.125H21.9375V10.25H26.8125V7.8125H21.9375Z" fill="white"/>
</svg>
