<svg
width="8"
height="16"
viewBox="0 0 8 16"
fill="none"
xmlns="http://www.w3.org/2000/svg"
>
<path
  fill-rule="evenodd"
  clip-rule="evenodd"
  d="M1.00179 15C0.768135 15.0004 0.541699 14.919 0.361787 14.77H0.361787C-0.0633832 14.4175 -0.122301 13.787 0.230189 13.3619C0.230721 13.3612 0.231253 13.3606 0.231787 13.36L4.71179 7.99995L0.391787 2.62995L0.391787 2.62995C0.0436288 2.20123 0.10894 1.57144 0.537664 1.22328C0.539035 1.22217 0.54041 1.22106 0.541787 1.21995V1.21995C0.956422 0.855129 1.5883 0.895508 1.95312 1.31014C1.9701 1.32945 1.98634 1.3494 2.00178 1.36995L6.83178 7.36995C7.1351 7.73896 7.1351 8.27095 6.83178 8.63995L1.83178 14.64H1.83178C1.62832 14.8854 1.32002 15.0191 1.00178 15L1.00179 15Z"
  fill="#DF853D"
/>
</svg>