<svg width="1440" height="669" viewBox="0 0 1440 669" fill="none" xmlns="http://www.w3.org/2000/svg">
<rect width="1441" height="669" fill="#F5F5F5"/>
<path d="M701.465 328.542L693.41 322.801V345.362L701.465 339.622L709.256 334.082L701.465 328.542ZM701.465 328.542L693.41 322.801V345.362L701.465 339.622L709.256 334.082L701.465 328.542ZM701.465 328.542L693.41 322.801V345.362L701.465 339.622L709.256 334.082L701.465 328.542ZM696.051 314.203V309.139C690.743 309.64 685.91 311.646 682.001 314.679L685.751 318.264C688.683 316.108 692.195 314.654 696.051 314.203ZM682.027 321.798L678.251 318.239C675.055 321.949 672.942 326.536 672.414 331.575H677.749C678.224 327.915 679.756 324.581 682.027 321.798ZM677.749 336.589H672.414C672.942 341.627 675.055 346.215 678.251 349.925L682.027 346.34C679.756 343.583 678.224 340.248 677.749 336.589V336.589ZM682.001 353.484C685.91 356.518 690.769 358.523 696.051 359.025V353.961C692.195 353.51 688.683 352.056 685.751 349.9L682.001 353.484V353.484ZM725.103 334.082C725.103 347.017 714.75 357.696 701.465 359.025V353.961C711.818 352.657 719.821 344.234 719.821 334.082C719.821 323.929 711.818 315.506 701.465 314.203V309.139C714.75 310.468 725.103 321.147 725.103 334.082Z" fill="black"/>
</svg>
