<svg width="34" height="29" viewBox="0 0 34 29" fill="none" xmlns="http://www.w3.org/2000/svg">
<path d="M4.51681 3.76681C3.83777 4.44584 3.29913 5.25197 2.93164 6.13917C2.56415 7.02637 2.375 7.97726 2.375 8.93756C2.375 9.89786 2.56415 10.8488 2.93164 11.736C3.29913 12.6232 3.83777 13.4293 4.51681 14.1083L17.0001 26.5916L29.4833 14.1083C30.8547 12.7369 31.6251 10.877 31.6251 8.93756C31.6251 6.99816 30.8547 5.13818 29.4833 3.76681C28.1119 2.39545 26.252 1.62502 24.3126 1.62502C22.3732 1.62502 20.5132 2.39545 19.1418 3.76681L17.0001 5.90856L14.8583 3.76681C14.1793 3.08778 13.3732 2.54913 12.486 2.18164C11.5988 1.81415 10.6479 1.625 9.68756 1.625C8.72726 1.625 7.77637 1.81415 6.88917 2.18164C6.00197 2.54913 5.19584 3.08778 4.51681 3.76681V3.76681Z" stroke="white" stroke-width="3.25" stroke-linecap="round" stroke-linejoin="round"/>
</svg>
