<?xml version="1.0" standalone="no"?>
<!DOCTYPE svg PUBLIC "-//W3C//DTD SVG 1.1//EN" "http://www.w3.org/Graphics/SVG/1.1/DTD/svg11.dtd" >
<svg xmlns="http://www.w3.org/2000/svg" xmlns:xlink="http://www.w3.org/1999/xlink" version="1.1">
<metadata>
Created by FontForge 20170731 at Tue Mar  9 14:05:39 2021
 By Aleksey,,,
Copyright (c) 2021 by Cosimo Lorenzo Pancini. All rights reserved.
</metadata>
<defs>
<font id="CocoSharpTrial-LightItalic" horiz-adv-x="0" >
  <font-face 
    font-family="CocoSharp Trial Light"
    font-weight="300"
    font-style="italic"
    font-stretch="normal"
    units-per-em="2000"
    panose-1="0 0 4 0 0 0 0 0 0 0"
    ascent="1600"
    descent="-400"
    x-height="1027"
    cap-height="1405"
    bbox="-1609 -624 2815 1981"
    underline-thickness="95"
    underline-position="-284"
    slope="-12"
    unicode-range="U+0010-F8FF"
  />
<missing-glyph horiz-adv-x="925" 
d="M172 1495h587v-1850h-587v1850zM616 1310v61h-305v-61h120v-68h-122v-61h307v61h-122v68h122zM494 1003v129h-185v-192h307v63h-122zM370 1070h61v-67h-61v67zM616 829v61h-307v-61h122v-68h-122v-61h185v129h122zM616 594v185h-61v-122h-246v-63h307zM616 344v209h-185
v-103h63v42h61v-87h-185v148h-61v-209h307zM616 24v209h-307v-209h307zM370 172h185v-87h-185v87zM616 -79v61h-307v-61h129l-129 -87v-61h307v61h-189l130 87h59z" />
    <glyph glyph-name=".notdef" horiz-adv-x="925" 
d="M172 1495h587v-1850h-587v1850zM616 1310v61h-305v-61h120v-68h-122v-61h307v61h-122v68h122zM494 1003v129h-185v-192h307v63h-122zM370 1070h61v-67h-61v67zM616 829v61h-307v-61h122v-68h-122v-61h185v129h122zM616 594v185h-61v-122h-246v-63h307zM616 344v209h-185
v-103h63v42h61v-87h-185v148h-61v-209h307zM616 24v209h-307v-209h307zM370 172h185v-87h-185v87zM616 -79v61h-307v-61h129l-129 -87v-61h307v61h-189l130 87h59z" />
    <glyph glyph-name="uni0000" 
 />
    <glyph glyph-name="uni0000" 
 />
    <glyph glyph-name="nonmarkingreturn" horiz-adv-x="666" 
 />
    <glyph glyph-name="uni0010" horiz-adv-x="1724" 
 />
    <glyph glyph-name="space" unicode=" " horiz-adv-x="498" 
 />
    <glyph glyph-name="exclam" unicode="!" horiz-adv-x="582" 
d="M313 382h-98l214 1023h105zM127 2.5q-19 18.5 -19 46.5q0 42 32 71.5t74 29.5q32 0 51 -18t19 -47q0 -41 -32 -71t-74 -30q-32 0 -51 18.5z" />
    <glyph glyph-name="quotedbl" unicode="&#x22;" horiz-adv-x="535" 
d="M291 1007h-97l84 398h97zM551 1007h-97l84 398h97z" />
    <glyph glyph-name="numbersign" unicode="#" horiz-adv-x="1176" 
d="M180 4h-99l150 385h-238l19 85h253l148 376h-253l19 84h266l183 468h97l-183 -468h380l184 468h97l-185 -468h227l-18 -84h-240l-148 -376h238l-18 -85h-252l-151 -385h-99l152 385h-379zM511 850l-148 -376h378l149 376h-379z" />
    <glyph glyph-name="dollar" unicode="$" horiz-adv-x="1128" 
d="M462 1292.5q-77 -39.5 -109.5 -100t-32.5 -127.5q0 -95 76.5 -168t226.5 -131q102 -40 186.5 -86.5t149 -122.5t64.5 -177q0 -92 -54 -186t-170 -157.5t-290 -63.5h-26l-42 -199h-105l45 210q-121 21 -226.5 76.5t-175.5 139.5l70 67q73 -82 199 -138t279 -56
q125 0 213 43t132.5 110.5t44.5 140.5q0 76 -53 135.5t-127 99.5t-171 78q-162 64 -257.5 154t-95.5 227q0 88 43 172t145.5 141t269.5 57h17l45 211h105l-47 -221q187 -32 352 -167l-70 -70q-192 148 -410 148q-124 0 -201 -39.5z" />
    <glyph glyph-name="percent" unicode="%" horiz-adv-x="1802" 
 />
    <glyph glyph-name="ampersand" unicode="&#x26;" horiz-adv-x="1329" 
d="M1259 774q-29 -148 -85 -276t-134 -229l127 -269h-122l-85 178q-99 -98 -218.5 -150.5t-248.5 -52.5q-126 0 -219.5 47.5t-143.5 133t-50 197.5q0 57 13 115q26 124 97.5 227.5t174.5 173t220 94.5l-169 355l18 87h792l-21 -98h-654l444 -943q116 171 161 409zM727 128
q105 48 190 139l-290 608q-106 -11 -195 -62t-150 -137t-85 -198q-11 -53 -11 -96q0 -93 41.5 -161t114 -104.5t165.5 -36.5q115 0 220 48z" />
    <glyph glyph-name="quotesingle" unicode="'" horiz-adv-x="275" 
d="M291 1007h-97l84 398h97z" />
    <glyph glyph-name="parenleft" unicode="(" horiz-adv-x="544" 
d="M258 -404q-94 115 -138.5 268t-44.5 330q0 221 60.5 467.5t194.5 478t341 389.5l53 -75q-178 -139 -302 -359.5t-184.5 -461t-60.5 -447.5q0 -171 41 -308.5t120 -230.5z" />
    <glyph glyph-name="parenright" unicode=")" horiz-adv-x="544" 
d="M301 1505q94 -115 139 -268t45 -330q0 -220 -61 -467t-195 -478.5t-341 -389.5l-52 76q178 139 301.5 359t184 460.5t60.5 447.5q0 172 -40.5 309.5t-119.5 229.5z" />
    <glyph glyph-name="asterisk" unicode="*" horiz-adv-x="836" 
d="M874 1174l-15 -70l-259 2l86 -223l-69 -36l-78 226l-175 -225l-54 37l180 221l-262 -2l15 71l260 -3l-84 225l69 35l79 -227l177 226l53 -35l-181 -224z" />
    <glyph glyph-name="plus" unicode="+" horiz-adv-x="1078" 
d="M521 228h-87l84 398h-392l18 85h392l84 392h86l-83 -392h395l-19 -85h-394z" />
    <glyph glyph-name="comma" unicode="," horiz-adv-x="387" 
d="M-45 -180q115 90 130 160l1 5q-30 0 -50 18t-20 46q0 4 2 16q8 37 37 59.5t65 22.5q70 0 70 -64q0 -16 -4 -32q-17 -77 -62.5 -143t-129.5 -133z" />
    <glyph glyph-name="hyphen" unicode="-" horiz-adv-x="797" 
d="M686 470h-593l20 94h592z" />
    <glyph glyph-name="period" unicode="." horiz-adv-x="377" 
d="M24.5 2.5q-19.5 18.5 -19.5 47.5q0 41 32 70.5t74 29.5q32 0 51.5 -18t19.5 -47q0 -41 -32.5 -71t-73.5 -30q-32 0 -51.5 18.5z" />
    <glyph glyph-name="slash" unicode="/" horiz-adv-x="853" 
d="M-67 -369h-118l1107 1774h118z" />
    <glyph glyph-name="zero" unicode="0" horiz-adv-x="2890" 
d="M2596 924v-386h-2508v386h972q5 73 44 133.5t101.5 95.5t136.5 35t136.5 -35t101.5 -95.5t44 -133.5h972zM1512 1094q-76 66 -170 66q-48 0 -92 -17.5t-78 -48.5h340zM1538 742q58 71 58 162q0 96 -64 170l-332 -332h338zM1144 1066q-58 -71 -58 -162q0 -48 17.5 -92
t48.5 -78l334 332h-342zM1870 642.5q38 36.5 38 91.5q0 54 -38 90t-94 36t-93 -36t-37 -90q0 -55 37 -91.5t93 -36.5t94 36.5zM270 784h56v70h-192v-70h58v-172h78v172zM464 612h82l-42 92q28 25 28 64q0 37 -27 61.5t-65 24.5h-100v-242h78v70h16zM558 612h76v242h-76v-242
zM808 650l10 -38h84l-82 242h-90l-82 -242h82l10 38h68zM916 612h164v66h-86v176h-78v-242zM2076 612h80v242h-78v-128l-74 128h-80v-242h78l-2 118zM2180 612h164v66h-86v176h-78v-242zM2466 612v96l82 146h-90l-32 -72l-30 72h-92l84 -146v-96h78zM1815 774q15 -16 15 -40
q0 -26 -15 -42t-39 -16q-23 0 -38.5 16.5t-15.5 41.5q0 24 15.5 40t38.5 16q24 0 39 -16zM438 788q6 0 11 -6t5 -14q0 -9 -5 -15.5t-11 -6.5h-20v42h20zM756 714l16 58h2l16 -58h-34zM1172 714q74 -64 170 -64q47 0 91 17t79 47h-340zM1054 352q25 -14 52 -14q22 0 37 12
t15 34q0 15 -12 25t-34 19q-18 6 -25 10.5t-7 15.5q0 10 8 16t20 6q10 0 21 -4t19 -10v26q-20 10 -40 10q-23 0 -37.5 -11.5t-14.5 -32.5q0 -19 10.5 -27.5t33.5 -18.5q18 -5 26 -10t8 -14q0 -12 -8 -18t-20 -6q-27 0 -52 18v-26zM1255 361q23 -23 57 -23q33 0 56.5 23
t23.5 57q0 33 -23.5 56.5t-56.5 23.5q-34 0 -57 -23.5t-23 -56.5q0 -34 23 -57zM1550 336v158h-24v-108l-98 110h-12v-156h24v104l98 -108h12zM186 494h-100v-154h24v58h66v22h-66v52h76v22zM206 400q0 -27 17.5 -44.5t44.5 -17.5q28 0 46 17.5t18 44.5v94h-24v-94
q0 -16 -11.5 -28t-28.5 -12t-27.5 11t-10.5 29v94h-24v-94zM386 494h-24v-154h94v22h-70v132zM502 494h-24v-154h96v22h-72v132zM718 340l64 154h-28l-44 -114l-44 114h-28l64 -154h16zM902 494h-100v-154h100v22h-76v46h66v20h-66v44h76v22zM1014 340h28l-30 62
q11 6 17.5 17.5t6.5 24.5q0 21 -14.5 35.5t-35.5 14.5h-58v-154h24v56h36zM1206 494h-24v-154h24v154zM1350.5 376.5q-15.5 -16.5 -38.5 -16.5q-24 0 -40 16.5t-16 41.5q0 24 16 40t40 16q23 0 38.5 -16t15.5 -40q0 -25 -15.5 -41.5zM1004.5 424q-7.5 -8 -18.5 -8h-34v56h34
q11 0 18.5 -8t7.5 -20t-7.5 -20zM2524 366l50 48l-50 48l-16 -14l26 -22h-916v-24h916l-26 -22zM1046 107.5q34 -33.5 84 -33.5q51 0 84.5 33t33.5 83q0 48 -33.5 81t-84.5 33q-50 0 -84 -33t-34 -81q0 -49 34 -82.5zM1666 94q31 -20 76 -20q39 0 63.5 19.5t24.5 54.5
q0 53 -72 70q-5 2 -13.5 4t-11.5 4.5t-3 7.5q0 8 22 8q14 0 32.5 -6t31.5 -16v68q-35 16 -64 16q-41 0 -65.5 -18t-24.5 -50q0 -28 15 -43.5t49 -26.5q7 -2 16 -4.5t13.5 -5.5t4.5 -8q0 -12 -18 -12q-26 0 -76 32v-74zM1956 107.5q34 -33.5 82 -33.5q24 0 52 14l2 70
q-20 -20 -50 -20q-21 0 -35.5 15t-14.5 37q0 21 14.5 35.5t35.5 14.5t44 -14v66q-21 12 -46 12q-50 0 -84 -33t-34 -81q0 -49 34 -82.5zM2132.5 107.5q34.5 -33.5 85.5 -33.5q50 0 84 33.5t34 82.5q0 48 -34 81t-84 33q-51 0 -85.5 -33t-34.5 -81q0 -49 34.5 -82.5zM88 236
h72l-82 -156h190v62h-76l82 156h-186v-62zM446 298h-158v-218h160v60h-90v20h76v60h-76v18h88v60zM456 236h52v-156h70v156h52v62h-174v-62zM688 114h62l8 -34h76l-74 218h-80l-74 -218h72zM1004 298h-158v-218h70v68h74v58h-74v32h88v60zM1472 80v218h-70v-116l-66 116h-72
v-218h70l-2 106l68 -106h72zM1484 236h52v-156h70v156h50v62h-172v-62zM2420 298h-70v-218h70v86l28 -54h50l28 54v-86h68v218h-70l-52 -100zM1164.5 152.5q-13.5 -14.5 -34.5 -14.5t-34.5 14.5t-13.5 37.5q0 21 13.5 35.5t34.5 14.5t34.5 -14.5t13.5 -35.5
q0 -23 -13.5 -37.5zM2252 153q-14 -15 -34 -15q-21 0 -35.5 15t-14.5 37q0 21 14.5 35.5t35.5 14.5q20 0 34 -14.5t14 -35.5q0 -22 -14 -37zM720 224l14 -52h-30l14 52h2zM1850 84q10 -10 26 -10q15 0 24.5 10t9.5 24t-9.5 23t-24.5 9q-16 0 -26 -9t-10 -23t10 -24z" />
    <glyph glyph-name="one" unicode="1" horiz-adv-x="2924" 
d="M2596 924v-386h-2508v386h972q5 73 44 133.5t101.5 95.5t136.5 35t136.5 -35t101.5 -95.5t44 -133.5h972zM1512 1094q-76 66 -170 66q-48 0 -92 -17.5t-78 -48.5h340zM1538 742q58 71 58 162q0 96 -64 170l-332 -332h338zM1144 1066q-58 -71 -58 -162q0 -48 17.5 -92
t48.5 -78l334 332h-342zM1870 642.5q38 36.5 38 91.5q0 54 -38 90t-94 36t-93 -36t-37 -90q0 -55 37 -91.5t93 -36.5t94 36.5zM270 784h56v70h-192v-70h58v-172h78v172zM464 612h82l-42 92q28 25 28 64q0 37 -27 61.5t-65 24.5h-100v-242h78v70h16zM558 612h76v242h-76v-242
zM808 650l10 -38h84l-82 242h-90l-82 -242h82l10 38h68zM916 612h164v66h-86v176h-78v-242zM2076 612h80v242h-78v-128l-74 128h-80v-242h78l-2 118zM2180 612h164v66h-86v176h-78v-242zM2466 612v96l82 146h-90l-32 -72l-30 72h-92l84 -146v-96h78zM1815 774q15 -16 15 -40
q0 -26 -15 -42t-39 -16q-23 0 -38.5 16.5t-15.5 41.5q0 24 15.5 40t38.5 16q24 0 39 -16zM438 788q6 0 11 -6t5 -14q0 -9 -5 -15.5t-11 -6.5h-20v42h20zM756 714l16 58h2l16 -58h-34zM1172 714q74 -64 170 -64q47 0 91 17t79 47h-340zM1054 352q25 -14 52 -14q22 0 37 12
t15 34q0 15 -12 25t-34 19q-18 6 -25 10.5t-7 15.5q0 10 8 16t20 6q10 0 21 -4t19 -10v26q-20 10 -40 10q-23 0 -37.5 -11.5t-14.5 -32.5q0 -19 10.5 -27.5t33.5 -18.5q18 -5 26 -10t8 -14q0 -12 -8 -18t-20 -6q-27 0 -52 18v-26zM1255 361q23 -23 57 -23q33 0 56.5 23
t23.5 57q0 33 -23.5 56.5t-56.5 23.5q-34 0 -57 -23.5t-23 -56.5q0 -34 23 -57zM1550 336v158h-24v-108l-98 110h-12v-156h24v104l98 -108h12zM186 494h-100v-154h24v58h66v22h-66v52h76v22zM206 400q0 -27 17.5 -44.5t44.5 -17.5q28 0 46 17.5t18 44.5v94h-24v-94
q0 -16 -11.5 -28t-28.5 -12t-27.5 11t-10.5 29v94h-24v-94zM386 494h-24v-154h94v22h-70v132zM502 494h-24v-154h96v22h-72v132zM718 340l64 154h-28l-44 -114l-44 114h-28l64 -154h16zM902 494h-100v-154h100v22h-76v46h66v20h-66v44h76v22zM1014 340h28l-30 62
q11 6 17.5 17.5t6.5 24.5q0 21 -14.5 35.5t-35.5 14.5h-58v-154h24v56h36zM1206 494h-24v-154h24v154zM1350.5 376.5q-15.5 -16.5 -38.5 -16.5q-24 0 -40 16.5t-16 41.5q0 24 16 40t40 16q23 0 38.5 -16t15.5 -40q0 -25 -15.5 -41.5zM1004.5 424q-7.5 -8 -18.5 -8h-34v56h34
q11 0 18.5 -8t7.5 -20t-7.5 -20zM2524 366l50 48l-50 48l-16 -14l26 -22h-916v-24h916l-26 -22zM1046 107.5q34 -33.5 84 -33.5q51 0 84.5 33t33.5 83q0 48 -33.5 81t-84.5 33q-50 0 -84 -33t-34 -81q0 -49 34 -82.5zM1666 94q31 -20 76 -20q39 0 63.5 19.5t24.5 54.5
q0 53 -72 70q-5 2 -13.5 4t-11.5 4.5t-3 7.5q0 8 22 8q14 0 32.5 -6t31.5 -16v68q-35 16 -64 16q-41 0 -65.5 -18t-24.5 -50q0 -28 15 -43.5t49 -26.5q7 -2 16 -4.5t13.5 -5.5t4.5 -8q0 -12 -18 -12q-26 0 -76 32v-74zM1956 107.5q34 -33.5 82 -33.5q24 0 52 14l2 70
q-20 -20 -50 -20q-21 0 -35.5 15t-14.5 37q0 21 14.5 35.5t35.5 14.5t44 -14v66q-21 12 -46 12q-50 0 -84 -33t-34 -81q0 -49 34 -82.5zM2132.5 107.5q34.5 -33.5 85.5 -33.5q50 0 84 33.5t34 82.5q0 48 -34 81t-84 33q-51 0 -85.5 -33t-34.5 -81q0 -49 34.5 -82.5zM88 236
h72l-82 -156h190v62h-76l82 156h-186v-62zM446 298h-158v-218h160v60h-90v20h76v60h-76v18h88v60zM456 236h52v-156h70v156h52v62h-174v-62zM688 114h62l8 -34h76l-74 218h-80l-74 -218h72zM1004 298h-158v-218h70v68h74v58h-74v32h88v60zM1472 80v218h-70v-116l-66 116h-72
v-218h70l-2 106l68 -106h72zM1484 236h52v-156h70v156h50v62h-172v-62zM2420 298h-70v-218h70v86l28 -54h50l28 54v-86h68v218h-70l-52 -100zM1164.5 152.5q-13.5 -14.5 -34.5 -14.5t-34.5 14.5t-13.5 37.5q0 21 13.5 35.5t34.5 14.5t34.5 -14.5t13.5 -35.5
q0 -23 -13.5 -37.5zM2252 153q-14 -15 -34 -15q-21 0 -35.5 15t-14.5 37q0 21 14.5 35.5t35.5 14.5q20 0 34 -14.5t14 -35.5q0 -22 -14 -37zM720 224l14 -52h-30l14 52h2zM1850 84q10 -10 26 -10q15 0 24.5 10t9.5 24t-9.5 23t-24.5 9q-16 0 -26 -9t-10 -23t10 -24z" />
    <glyph glyph-name="two" unicode="2" horiz-adv-x="2720" 
d="M2596 924v-386h-2508v386h972q5 73 44 133.5t101.5 95.5t136.5 35t136.5 -35t101.5 -95.5t44 -133.5h972zM1512 1094q-76 66 -170 66q-48 0 -92 -17.5t-78 -48.5h340zM1538 742q58 71 58 162q0 96 -64 170l-332 -332h338zM1144 1066q-58 -71 -58 -162q0 -48 17.5 -92
t48.5 -78l334 332h-342zM1870 642.5q38 36.5 38 91.5q0 54 -38 90t-94 36t-93 -36t-37 -90q0 -55 37 -91.5t93 -36.5t94 36.5zM270 784h56v70h-192v-70h58v-172h78v172zM464 612h82l-42 92q28 25 28 64q0 37 -27 61.5t-65 24.5h-100v-242h78v70h16zM558 612h76v242h-76v-242
zM808 650l10 -38h84l-82 242h-90l-82 -242h82l10 38h68zM916 612h164v66h-86v176h-78v-242zM2076 612h80v242h-78v-128l-74 128h-80v-242h78l-2 118zM2180 612h164v66h-86v176h-78v-242zM2466 612v96l82 146h-90l-32 -72l-30 72h-92l84 -146v-96h78zM1815 774q15 -16 15 -40
q0 -26 -15 -42t-39 -16q-23 0 -38.5 16.5t-15.5 41.5q0 24 15.5 40t38.5 16q24 0 39 -16zM438 788q6 0 11 -6t5 -14q0 -9 -5 -15.5t-11 -6.5h-20v42h20zM756 714l16 58h2l16 -58h-34zM1172 714q74 -64 170 -64q47 0 91 17t79 47h-340zM1054 352q25 -14 52 -14q22 0 37 12
t15 34q0 15 -12 25t-34 19q-18 6 -25 10.5t-7 15.5q0 10 8 16t20 6q10 0 21 -4t19 -10v26q-20 10 -40 10q-23 0 -37.5 -11.5t-14.5 -32.5q0 -19 10.5 -27.5t33.5 -18.5q18 -5 26 -10t8 -14q0 -12 -8 -18t-20 -6q-27 0 -52 18v-26zM1255 361q23 -23 57 -23q33 0 56.5 23
t23.5 57q0 33 -23.5 56.5t-56.5 23.5q-34 0 -57 -23.5t-23 -56.5q0 -34 23 -57zM1550 336v158h-24v-108l-98 110h-12v-156h24v104l98 -108h12zM186 494h-100v-154h24v58h66v22h-66v52h76v22zM206 400q0 -27 17.5 -44.5t44.5 -17.5q28 0 46 17.5t18 44.5v94h-24v-94
q0 -16 -11.5 -28t-28.5 -12t-27.5 11t-10.5 29v94h-24v-94zM386 494h-24v-154h94v22h-70v132zM502 494h-24v-154h96v22h-72v132zM718 340l64 154h-28l-44 -114l-44 114h-28l64 -154h16zM902 494h-100v-154h100v22h-76v46h66v20h-66v44h76v22zM1014 340h28l-30 62
q11 6 17.5 17.5t6.5 24.5q0 21 -14.5 35.5t-35.5 14.5h-58v-154h24v56h36zM1206 494h-24v-154h24v154zM1350.5 376.5q-15.5 -16.5 -38.5 -16.5q-24 0 -40 16.5t-16 41.5q0 24 16 40t40 16q23 0 38.5 -16t15.5 -40q0 -25 -15.5 -41.5zM1004.5 424q-7.5 -8 -18.5 -8h-34v56h34
q11 0 18.5 -8t7.5 -20t-7.5 -20zM2524 366l50 48l-50 48l-16 -14l26 -22h-916v-24h916l-26 -22zM1046 107.5q34 -33.5 84 -33.5q51 0 84.5 33t33.5 83q0 48 -33.5 81t-84.5 33q-50 0 -84 -33t-34 -81q0 -49 34 -82.5zM1666 94q31 -20 76 -20q39 0 63.5 19.5t24.5 54.5
q0 53 -72 70q-5 2 -13.5 4t-11.5 4.5t-3 7.5q0 8 22 8q14 0 32.5 -6t31.5 -16v68q-35 16 -64 16q-41 0 -65.5 -18t-24.5 -50q0 -28 15 -43.5t49 -26.5q7 -2 16 -4.5t13.5 -5.5t4.5 -8q0 -12 -18 -12q-26 0 -76 32v-74zM1956 107.5q34 -33.5 82 -33.5q24 0 52 14l2 70
q-20 -20 -50 -20q-21 0 -35.5 15t-14.5 37q0 21 14.5 35.5t35.5 14.5t44 -14v66q-21 12 -46 12q-50 0 -84 -33t-34 -81q0 -49 34 -82.5zM2132.5 107.5q34.5 -33.5 85.5 -33.5q50 0 84 33.5t34 82.5q0 48 -34 81t-84 33q-51 0 -85.5 -33t-34.5 -81q0 -49 34.5 -82.5zM88 236
h72l-82 -156h190v62h-76l82 156h-186v-62zM446 298h-158v-218h160v60h-90v20h76v60h-76v18h88v60zM456 236h52v-156h70v156h52v62h-174v-62zM688 114h62l8 -34h76l-74 218h-80l-74 -218h72zM1004 298h-158v-218h70v68h74v58h-74v32h88v60zM1472 80v218h-70v-116l-66 116h-72
v-218h70l-2 106l68 -106h72zM1484 236h52v-156h70v156h50v62h-172v-62zM2420 298h-70v-218h70v86l28 -54h50l28 54v-86h68v218h-70l-52 -100zM1164.5 152.5q-13.5 -14.5 -34.5 -14.5t-34.5 14.5t-13.5 37.5q0 21 13.5 35.5t34.5 14.5t34.5 -14.5t13.5 -35.5
q0 -23 -13.5 -37.5zM2252 153q-14 -15 -34 -15q-21 0 -35.5 15t-14.5 37q0 21 14.5 35.5t35.5 14.5q20 0 34 -14.5t14 -35.5q0 -22 -14 -37zM720 224l14 -52h-30l14 52h2zM1850 84q10 -10 26 -10q15 0 24.5 10t9.5 24t-9.5 23t-24.5 9q-16 0 -26 -9t-10 -23t10 -24z" />
    <glyph glyph-name="three" unicode="3" horiz-adv-x="2684" 
d="M2596 924v-386h-2508v386h972q5 73 44 133.5t101.5 95.5t136.5 35t136.5 -35t101.5 -95.5t44 -133.5h972zM1512 1094q-76 66 -170 66q-48 0 -92 -17.5t-78 -48.5h340zM1538 742q58 71 58 162q0 96 -64 170l-332 -332h338zM1144 1066q-58 -71 -58 -162q0 -48 17.5 -92
t48.5 -78l334 332h-342zM1870 642.5q38 36.5 38 91.5q0 54 -38 90t-94 36t-93 -36t-37 -90q0 -55 37 -91.5t93 -36.5t94 36.5zM270 784h56v70h-192v-70h58v-172h78v172zM464 612h82l-42 92q28 25 28 64q0 37 -27 61.5t-65 24.5h-100v-242h78v70h16zM558 612h76v242h-76v-242
zM808 650l10 -38h84l-82 242h-90l-82 -242h82l10 38h68zM916 612h164v66h-86v176h-78v-242zM2076 612h80v242h-78v-128l-74 128h-80v-242h78l-2 118zM2180 612h164v66h-86v176h-78v-242zM2466 612v96l82 146h-90l-32 -72l-30 72h-92l84 -146v-96h78zM1815 774q15 -16 15 -40
q0 -26 -15 -42t-39 -16q-23 0 -38.5 16.5t-15.5 41.5q0 24 15.5 40t38.5 16q24 0 39 -16zM438 788q6 0 11 -6t5 -14q0 -9 -5 -15.5t-11 -6.5h-20v42h20zM756 714l16 58h2l16 -58h-34zM1172 714q74 -64 170 -64q47 0 91 17t79 47h-340zM1054 352q25 -14 52 -14q22 0 37 12
t15 34q0 15 -12 25t-34 19q-18 6 -25 10.5t-7 15.5q0 10 8 16t20 6q10 0 21 -4t19 -10v26q-20 10 -40 10q-23 0 -37.5 -11.5t-14.5 -32.5q0 -19 10.5 -27.5t33.5 -18.5q18 -5 26 -10t8 -14q0 -12 -8 -18t-20 -6q-27 0 -52 18v-26zM1255 361q23 -23 57 -23q33 0 56.5 23
t23.5 57q0 33 -23.5 56.5t-56.5 23.5q-34 0 -57 -23.5t-23 -56.5q0 -34 23 -57zM1550 336v158h-24v-108l-98 110h-12v-156h24v104l98 -108h12zM186 494h-100v-154h24v58h66v22h-66v52h76v22zM206 400q0 -27 17.5 -44.5t44.5 -17.5q28 0 46 17.5t18 44.5v94h-24v-94
q0 -16 -11.5 -28t-28.5 -12t-27.5 11t-10.5 29v94h-24v-94zM386 494h-24v-154h94v22h-70v132zM502 494h-24v-154h96v22h-72v132zM718 340l64 154h-28l-44 -114l-44 114h-28l64 -154h16zM902 494h-100v-154h100v22h-76v46h66v20h-66v44h76v22zM1014 340h28l-30 62
q11 6 17.5 17.5t6.5 24.5q0 21 -14.5 35.5t-35.5 14.5h-58v-154h24v56h36zM1206 494h-24v-154h24v154zM1350.5 376.5q-15.5 -16.5 -38.5 -16.5q-24 0 -40 16.5t-16 41.5q0 24 16 40t40 16q23 0 38.5 -16t15.5 -40q0 -25 -15.5 -41.5zM1004.5 424q-7.5 -8 -18.5 -8h-34v56h34
q11 0 18.5 -8t7.5 -20t-7.5 -20zM2524 366l50 48l-50 48l-16 -14l26 -22h-916v-24h916l-26 -22zM1046 107.5q34 -33.5 84 -33.5q51 0 84.5 33t33.5 83q0 48 -33.5 81t-84.5 33q-50 0 -84 -33t-34 -81q0 -49 34 -82.5zM1666 94q31 -20 76 -20q39 0 63.5 19.5t24.5 54.5
q0 53 -72 70q-5 2 -13.5 4t-11.5 4.5t-3 7.5q0 8 22 8q14 0 32.5 -6t31.5 -16v68q-35 16 -64 16q-41 0 -65.5 -18t-24.5 -50q0 -28 15 -43.5t49 -26.5q7 -2 16 -4.5t13.5 -5.5t4.5 -8q0 -12 -18 -12q-26 0 -76 32v-74zM1956 107.5q34 -33.5 82 -33.5q24 0 52 14l2 70
q-20 -20 -50 -20q-21 0 -35.5 15t-14.5 37q0 21 14.5 35.5t35.5 14.5t44 -14v66q-21 12 -46 12q-50 0 -84 -33t-34 -81q0 -49 34 -82.5zM2132.5 107.5q34.5 -33.5 85.5 -33.5q50 0 84 33.5t34 82.5q0 48 -34 81t-84 33q-51 0 -85.5 -33t-34.5 -81q0 -49 34.5 -82.5zM88 236
h72l-82 -156h190v62h-76l82 156h-186v-62zM446 298h-158v-218h160v60h-90v20h76v60h-76v18h88v60zM456 236h52v-156h70v156h52v62h-174v-62zM688 114h62l8 -34h76l-74 218h-80l-74 -218h72zM1004 298h-158v-218h70v68h74v58h-74v32h88v60zM1472 80v218h-70v-116l-66 116h-72
v-218h70l-2 106l68 -106h72zM1484 236h52v-156h70v156h50v62h-172v-62zM2420 298h-70v-218h70v86l28 -54h50l28 54v-86h68v218h-70l-52 -100zM1164.5 152.5q-13.5 -14.5 -34.5 -14.5t-34.5 14.5t-13.5 37.5q0 21 13.5 35.5t34.5 14.5t34.5 -14.5t13.5 -35.5
q0 -23 -13.5 -37.5zM2252 153q-14 -15 -34 -15q-21 0 -35.5 15t-14.5 37q0 21 14.5 35.5t35.5 14.5q20 0 34 -14.5t14 -35.5q0 -22 -14 -37zM720 224l14 -52h-30l14 52h2zM1850 84q10 -10 26 -10q15 0 24.5 10t9.5 24t-9.5 23t-24.5 9q-16 0 -26 -9t-10 -23t10 -24z" />
    <glyph glyph-name="four" unicode="4" horiz-adv-x="2577" 
d="M2596 924v-386h-2508v386h972q5 73 44 133.5t101.5 95.5t136.5 35t136.5 -35t101.5 -95.5t44 -133.5h972zM1512 1094q-76 66 -170 66q-48 0 -92 -17.5t-78 -48.5h340zM1538 742q58 71 58 162q0 96 -64 170l-332 -332h338zM1144 1066q-58 -71 -58 -162q0 -48 17.5 -92
t48.5 -78l334 332h-342zM1870 642.5q38 36.5 38 91.5q0 54 -38 90t-94 36t-93 -36t-37 -90q0 -55 37 -91.5t93 -36.5t94 36.5zM270 784h56v70h-192v-70h58v-172h78v172zM464 612h82l-42 92q28 25 28 64q0 37 -27 61.5t-65 24.5h-100v-242h78v70h16zM558 612h76v242h-76v-242
zM808 650l10 -38h84l-82 242h-90l-82 -242h82l10 38h68zM916 612h164v66h-86v176h-78v-242zM2076 612h80v242h-78v-128l-74 128h-80v-242h78l-2 118zM2180 612h164v66h-86v176h-78v-242zM2466 612v96l82 146h-90l-32 -72l-30 72h-92l84 -146v-96h78zM1815 774q15 -16 15 -40
q0 -26 -15 -42t-39 -16q-23 0 -38.5 16.5t-15.5 41.5q0 24 15.5 40t38.5 16q24 0 39 -16zM438 788q6 0 11 -6t5 -14q0 -9 -5 -15.5t-11 -6.5h-20v42h20zM756 714l16 58h2l16 -58h-34zM1172 714q74 -64 170 -64q47 0 91 17t79 47h-340zM1054 352q25 -14 52 -14q22 0 37 12
t15 34q0 15 -12 25t-34 19q-18 6 -25 10.5t-7 15.5q0 10 8 16t20 6q10 0 21 -4t19 -10v26q-20 10 -40 10q-23 0 -37.5 -11.5t-14.5 -32.5q0 -19 10.5 -27.5t33.5 -18.5q18 -5 26 -10t8 -14q0 -12 -8 -18t-20 -6q-27 0 -52 18v-26zM1255 361q23 -23 57 -23q33 0 56.5 23
t23.5 57q0 33 -23.5 56.5t-56.5 23.5q-34 0 -57 -23.5t-23 -56.5q0 -34 23 -57zM1550 336v158h-24v-108l-98 110h-12v-156h24v104l98 -108h12zM186 494h-100v-154h24v58h66v22h-66v52h76v22zM206 400q0 -27 17.5 -44.5t44.5 -17.5q28 0 46 17.5t18 44.5v94h-24v-94
q0 -16 -11.5 -28t-28.5 -12t-27.5 11t-10.5 29v94h-24v-94zM386 494h-24v-154h94v22h-70v132zM502 494h-24v-154h96v22h-72v132zM718 340l64 154h-28l-44 -114l-44 114h-28l64 -154h16zM902 494h-100v-154h100v22h-76v46h66v20h-66v44h76v22zM1014 340h28l-30 62
q11 6 17.5 17.5t6.5 24.5q0 21 -14.5 35.5t-35.5 14.5h-58v-154h24v56h36zM1206 494h-24v-154h24v154zM1350.5 376.5q-15.5 -16.5 -38.5 -16.5q-24 0 -40 16.5t-16 41.5q0 24 16 40t40 16q23 0 38.5 -16t15.5 -40q0 -25 -15.5 -41.5zM1004.5 424q-7.5 -8 -18.5 -8h-34v56h34
q11 0 18.5 -8t7.5 -20t-7.5 -20zM2524 366l50 48l-50 48l-16 -14l26 -22h-916v-24h916l-26 -22zM1046 107.5q34 -33.5 84 -33.5q51 0 84.5 33t33.5 83q0 48 -33.5 81t-84.5 33q-50 0 -84 -33t-34 -81q0 -49 34 -82.5zM1666 94q31 -20 76 -20q39 0 63.5 19.5t24.5 54.5
q0 53 -72 70q-5 2 -13.5 4t-11.5 4.5t-3 7.5q0 8 22 8q14 0 32.5 -6t31.5 -16v68q-35 16 -64 16q-41 0 -65.5 -18t-24.5 -50q0 -28 15 -43.5t49 -26.5q7 -2 16 -4.5t13.5 -5.5t4.5 -8q0 -12 -18 -12q-26 0 -76 32v-74zM1956 107.5q34 -33.5 82 -33.5q24 0 52 14l2 70
q-20 -20 -50 -20q-21 0 -35.5 15t-14.5 37q0 21 14.5 35.5t35.5 14.5t44 -14v66q-21 12 -46 12q-50 0 -84 -33t-34 -81q0 -49 34 -82.5zM2132.5 107.5q34.5 -33.5 85.5 -33.5q50 0 84 33.5t34 82.5q0 48 -34 81t-84 33q-51 0 -85.5 -33t-34.5 -81q0 -49 34.5 -82.5zM88 236
h72l-82 -156h190v62h-76l82 156h-186v-62zM446 298h-158v-218h160v60h-90v20h76v60h-76v18h88v60zM456 236h52v-156h70v156h52v62h-174v-62zM688 114h62l8 -34h76l-74 218h-80l-74 -218h72zM1004 298h-158v-218h70v68h74v58h-74v32h88v60zM1472 80v218h-70v-116l-66 116h-72
v-218h70l-2 106l68 -106h72zM1484 236h52v-156h70v156h50v62h-172v-62zM2420 298h-70v-218h70v86l28 -54h50l28 54v-86h68v218h-70l-52 -100zM1164.5 152.5q-13.5 -14.5 -34.5 -14.5t-34.5 14.5t-13.5 37.5q0 21 13.5 35.5t34.5 14.5t34.5 -14.5t13.5 -35.5
q0 -23 -13.5 -37.5zM2252 153q-14 -15 -34 -15q-21 0 -35.5 15t-14.5 37q0 21 14.5 35.5t35.5 14.5q20 0 34 -14.5t14 -35.5q0 -22 -14 -37zM720 224l14 -52h-30l14 52h2zM1850 84q10 -10 26 -10q15 0 24.5 10t9.5 24t-9.5 23t-24.5 9q-16 0 -26 -9t-10 -23t10 -24z" />
    <glyph glyph-name="five" unicode="5" horiz-adv-x="2672" 
d="M2596 924v-386h-2508v386h972q5 73 44 133.5t101.5 95.5t136.5 35t136.5 -35t101.5 -95.5t44 -133.5h972zM1512 1094q-76 66 -170 66q-48 0 -92 -17.5t-78 -48.5h340zM1538 742q58 71 58 162q0 96 -64 170l-332 -332h338zM1144 1066q-58 -71 -58 -162q0 -48 17.5 -92
t48.5 -78l334 332h-342zM1870 642.5q38 36.5 38 91.5q0 54 -38 90t-94 36t-93 -36t-37 -90q0 -55 37 -91.5t93 -36.5t94 36.5zM270 784h56v70h-192v-70h58v-172h78v172zM464 612h82l-42 92q28 25 28 64q0 37 -27 61.5t-65 24.5h-100v-242h78v70h16zM558 612h76v242h-76v-242
zM808 650l10 -38h84l-82 242h-90l-82 -242h82l10 38h68zM916 612h164v66h-86v176h-78v-242zM2076 612h80v242h-78v-128l-74 128h-80v-242h78l-2 118zM2180 612h164v66h-86v176h-78v-242zM2466 612v96l82 146h-90l-32 -72l-30 72h-92l84 -146v-96h78zM1815 774q15 -16 15 -40
q0 -26 -15 -42t-39 -16q-23 0 -38.5 16.5t-15.5 41.5q0 24 15.5 40t38.5 16q24 0 39 -16zM438 788q6 0 11 -6t5 -14q0 -9 -5 -15.5t-11 -6.5h-20v42h20zM756 714l16 58h2l16 -58h-34zM1172 714q74 -64 170 -64q47 0 91 17t79 47h-340zM1054 352q25 -14 52 -14q22 0 37 12
t15 34q0 15 -12 25t-34 19q-18 6 -25 10.5t-7 15.5q0 10 8 16t20 6q10 0 21 -4t19 -10v26q-20 10 -40 10q-23 0 -37.5 -11.5t-14.5 -32.5q0 -19 10.5 -27.5t33.5 -18.5q18 -5 26 -10t8 -14q0 -12 -8 -18t-20 -6q-27 0 -52 18v-26zM1255 361q23 -23 57 -23q33 0 56.5 23
t23.5 57q0 33 -23.5 56.5t-56.5 23.5q-34 0 -57 -23.5t-23 -56.5q0 -34 23 -57zM1550 336v158h-24v-108l-98 110h-12v-156h24v104l98 -108h12zM186 494h-100v-154h24v58h66v22h-66v52h76v22zM206 400q0 -27 17.5 -44.5t44.5 -17.5q28 0 46 17.5t18 44.5v94h-24v-94
q0 -16 -11.5 -28t-28.5 -12t-27.5 11t-10.5 29v94h-24v-94zM386 494h-24v-154h94v22h-70v132zM502 494h-24v-154h96v22h-72v132zM718 340l64 154h-28l-44 -114l-44 114h-28l64 -154h16zM902 494h-100v-154h100v22h-76v46h66v20h-66v44h76v22zM1014 340h28l-30 62
q11 6 17.5 17.5t6.5 24.5q0 21 -14.5 35.5t-35.5 14.5h-58v-154h24v56h36zM1206 494h-24v-154h24v154zM1350.5 376.5q-15.5 -16.5 -38.5 -16.5q-24 0 -40 16.5t-16 41.5q0 24 16 40t40 16q23 0 38.5 -16t15.5 -40q0 -25 -15.5 -41.5zM1004.5 424q-7.5 -8 -18.5 -8h-34v56h34
q11 0 18.5 -8t7.5 -20t-7.5 -20zM2524 366l50 48l-50 48l-16 -14l26 -22h-916v-24h916l-26 -22zM1046 107.5q34 -33.5 84 -33.5q51 0 84.5 33t33.5 83q0 48 -33.5 81t-84.5 33q-50 0 -84 -33t-34 -81q0 -49 34 -82.5zM1666 94q31 -20 76 -20q39 0 63.5 19.5t24.5 54.5
q0 53 -72 70q-5 2 -13.5 4t-11.5 4.5t-3 7.5q0 8 22 8q14 0 32.5 -6t31.5 -16v68q-35 16 -64 16q-41 0 -65.5 -18t-24.5 -50q0 -28 15 -43.5t49 -26.5q7 -2 16 -4.5t13.5 -5.5t4.5 -8q0 -12 -18 -12q-26 0 -76 32v-74zM1956 107.5q34 -33.5 82 -33.5q24 0 52 14l2 70
q-20 -20 -50 -20q-21 0 -35.5 15t-14.5 37q0 21 14.5 35.5t35.5 14.5t44 -14v66q-21 12 -46 12q-50 0 -84 -33t-34 -81q0 -49 34 -82.5zM2132.5 107.5q34.5 -33.5 85.5 -33.5q50 0 84 33.5t34 82.5q0 48 -34 81t-84 33q-51 0 -85.5 -33t-34.5 -81q0 -49 34.5 -82.5zM88 236
h72l-82 -156h190v62h-76l82 156h-186v-62zM446 298h-158v-218h160v60h-90v20h76v60h-76v18h88v60zM456 236h52v-156h70v156h52v62h-174v-62zM688 114h62l8 -34h76l-74 218h-80l-74 -218h72zM1004 298h-158v-218h70v68h74v58h-74v32h88v60zM1472 80v218h-70v-116l-66 116h-72
v-218h70l-2 106l68 -106h72zM1484 236h52v-156h70v156h50v62h-172v-62zM2420 298h-70v-218h70v86l28 -54h50l28 54v-86h68v218h-70l-52 -100zM1164.5 152.5q-13.5 -14.5 -34.5 -14.5t-34.5 14.5t-13.5 37.5q0 21 13.5 35.5t34.5 14.5t34.5 -14.5t13.5 -35.5
q0 -23 -13.5 -37.5zM2252 153q-14 -15 -34 -15q-21 0 -35.5 15t-14.5 37q0 21 14.5 35.5t35.5 14.5q20 0 34 -14.5t14 -35.5q0 -22 -14 -37zM720 224l14 -52h-30l14 52h2zM1850 84q10 -10 26 -10q15 0 24.5 10t9.5 24t-9.5 23t-24.5 9q-16 0 -26 -9t-10 -23t10 -24z" />
    <glyph glyph-name="six" unicode="6" horiz-adv-x="2770" 
d="M2596 924v-386h-2508v386h972q5 73 44 133.5t101.5 95.5t136.5 35t136.5 -35t101.5 -95.5t44 -133.5h972zM1512 1094q-76 66 -170 66q-48 0 -92 -17.5t-78 -48.5h340zM1538 742q58 71 58 162q0 96 -64 170l-332 -332h338zM1144 1066q-58 -71 -58 -162q0 -48 17.5 -92
t48.5 -78l334 332h-342zM1870 642.5q38 36.5 38 91.5q0 54 -38 90t-94 36t-93 -36t-37 -90q0 -55 37 -91.5t93 -36.5t94 36.5zM270 784h56v70h-192v-70h58v-172h78v172zM464 612h82l-42 92q28 25 28 64q0 37 -27 61.5t-65 24.5h-100v-242h78v70h16zM558 612h76v242h-76v-242
zM808 650l10 -38h84l-82 242h-90l-82 -242h82l10 38h68zM916 612h164v66h-86v176h-78v-242zM2076 612h80v242h-78v-128l-74 128h-80v-242h78l-2 118zM2180 612h164v66h-86v176h-78v-242zM2466 612v96l82 146h-90l-32 -72l-30 72h-92l84 -146v-96h78zM1815 774q15 -16 15 -40
q0 -26 -15 -42t-39 -16q-23 0 -38.5 16.5t-15.5 41.5q0 24 15.5 40t38.5 16q24 0 39 -16zM438 788q6 0 11 -6t5 -14q0 -9 -5 -15.5t-11 -6.5h-20v42h20zM756 714l16 58h2l16 -58h-34zM1172 714q74 -64 170 -64q47 0 91 17t79 47h-340zM1054 352q25 -14 52 -14q22 0 37 12
t15 34q0 15 -12 25t-34 19q-18 6 -25 10.5t-7 15.5q0 10 8 16t20 6q10 0 21 -4t19 -10v26q-20 10 -40 10q-23 0 -37.5 -11.5t-14.5 -32.5q0 -19 10.5 -27.5t33.5 -18.5q18 -5 26 -10t8 -14q0 -12 -8 -18t-20 -6q-27 0 -52 18v-26zM1255 361q23 -23 57 -23q33 0 56.5 23
t23.5 57q0 33 -23.5 56.5t-56.5 23.5q-34 0 -57 -23.5t-23 -56.5q0 -34 23 -57zM1550 336v158h-24v-108l-98 110h-12v-156h24v104l98 -108h12zM186 494h-100v-154h24v58h66v22h-66v52h76v22zM206 400q0 -27 17.5 -44.5t44.5 -17.5q28 0 46 17.5t18 44.5v94h-24v-94
q0 -16 -11.5 -28t-28.5 -12t-27.5 11t-10.5 29v94h-24v-94zM386 494h-24v-154h94v22h-70v132zM502 494h-24v-154h96v22h-72v132zM718 340l64 154h-28l-44 -114l-44 114h-28l64 -154h16zM902 494h-100v-154h100v22h-76v46h66v20h-66v44h76v22zM1014 340h28l-30 62
q11 6 17.5 17.5t6.5 24.5q0 21 -14.5 35.5t-35.5 14.5h-58v-154h24v56h36zM1206 494h-24v-154h24v154zM1350.5 376.5q-15.5 -16.5 -38.5 -16.5q-24 0 -40 16.5t-16 41.5q0 24 16 40t40 16q23 0 38.5 -16t15.5 -40q0 -25 -15.5 -41.5zM1004.5 424q-7.5 -8 -18.5 -8h-34v56h34
q11 0 18.5 -8t7.5 -20t-7.5 -20zM2524 366l50 48l-50 48l-16 -14l26 -22h-916v-24h916l-26 -22zM1046 107.5q34 -33.5 84 -33.5q51 0 84.5 33t33.5 83q0 48 -33.5 81t-84.5 33q-50 0 -84 -33t-34 -81q0 -49 34 -82.5zM1666 94q31 -20 76 -20q39 0 63.5 19.5t24.5 54.5
q0 53 -72 70q-5 2 -13.5 4t-11.5 4.5t-3 7.5q0 8 22 8q14 0 32.5 -6t31.5 -16v68q-35 16 -64 16q-41 0 -65.5 -18t-24.5 -50q0 -28 15 -43.5t49 -26.5q7 -2 16 -4.5t13.5 -5.5t4.5 -8q0 -12 -18 -12q-26 0 -76 32v-74zM1956 107.5q34 -33.5 82 -33.5q24 0 52 14l2 70
q-20 -20 -50 -20q-21 0 -35.5 15t-14.5 37q0 21 14.5 35.5t35.5 14.5t44 -14v66q-21 12 -46 12q-50 0 -84 -33t-34 -81q0 -49 34 -82.5zM2132.5 107.5q34.5 -33.5 85.5 -33.5q50 0 84 33.5t34 82.5q0 48 -34 81t-84 33q-51 0 -85.5 -33t-34.5 -81q0 -49 34.5 -82.5zM88 236
h72l-82 -156h190v62h-76l82 156h-186v-62zM446 298h-158v-218h160v60h-90v20h76v60h-76v18h88v60zM456 236h52v-156h70v156h52v62h-174v-62zM688 114h62l8 -34h76l-74 218h-80l-74 -218h72zM1004 298h-158v-218h70v68h74v58h-74v32h88v60zM1472 80v218h-70v-116l-66 116h-72
v-218h70l-2 106l68 -106h72zM1484 236h52v-156h70v156h50v62h-172v-62zM2420 298h-70v-218h70v86l28 -54h50l28 54v-86h68v218h-70l-52 -100zM1164.5 152.5q-13.5 -14.5 -34.5 -14.5t-34.5 14.5t-13.5 37.5q0 21 13.5 35.5t34.5 14.5t34.5 -14.5t13.5 -35.5
q0 -23 -13.5 -37.5zM2252 153q-14 -15 -34 -15q-21 0 -35.5 15t-14.5 37q0 21 14.5 35.5t35.5 14.5q20 0 34 -14.5t14 -35.5q0 -22 -14 -37zM720 224l14 -52h-30l14 52h2zM1850 84q10 -10 26 -10q15 0 24.5 10t9.5 24t-9.5 23t-24.5 9q-16 0 -26 -9t-10 -23t10 -24z" />
    <glyph glyph-name="seven" unicode="7" horiz-adv-x="2578" 
d="M2596 924v-386h-2508v386h972q5 73 44 133.5t101.5 95.5t136.5 35t136.5 -35t101.5 -95.5t44 -133.5h972zM1512 1094q-76 66 -170 66q-48 0 -92 -17.5t-78 -48.5h340zM1538 742q58 71 58 162q0 96 -64 170l-332 -332h338zM1144 1066q-58 -71 -58 -162q0 -48 17.5 -92
t48.5 -78l334 332h-342zM1870 642.5q38 36.5 38 91.5q0 54 -38 90t-94 36t-93 -36t-37 -90q0 -55 37 -91.5t93 -36.5t94 36.5zM270 784h56v70h-192v-70h58v-172h78v172zM464 612h82l-42 92q28 25 28 64q0 37 -27 61.5t-65 24.5h-100v-242h78v70h16zM558 612h76v242h-76v-242
zM808 650l10 -38h84l-82 242h-90l-82 -242h82l10 38h68zM916 612h164v66h-86v176h-78v-242zM2076 612h80v242h-78v-128l-74 128h-80v-242h78l-2 118zM2180 612h164v66h-86v176h-78v-242zM2466 612v96l82 146h-90l-32 -72l-30 72h-92l84 -146v-96h78zM1815 774q15 -16 15 -40
q0 -26 -15 -42t-39 -16q-23 0 -38.5 16.5t-15.5 41.5q0 24 15.5 40t38.5 16q24 0 39 -16zM438 788q6 0 11 -6t5 -14q0 -9 -5 -15.5t-11 -6.5h-20v42h20zM756 714l16 58h2l16 -58h-34zM1172 714q74 -64 170 -64q47 0 91 17t79 47h-340zM1054 352q25 -14 52 -14q22 0 37 12
t15 34q0 15 -12 25t-34 19q-18 6 -25 10.5t-7 15.5q0 10 8 16t20 6q10 0 21 -4t19 -10v26q-20 10 -40 10q-23 0 -37.5 -11.5t-14.5 -32.5q0 -19 10.5 -27.5t33.5 -18.5q18 -5 26 -10t8 -14q0 -12 -8 -18t-20 -6q-27 0 -52 18v-26zM1255 361q23 -23 57 -23q33 0 56.5 23
t23.5 57q0 33 -23.5 56.5t-56.5 23.5q-34 0 -57 -23.5t-23 -56.5q0 -34 23 -57zM1550 336v158h-24v-108l-98 110h-12v-156h24v104l98 -108h12zM186 494h-100v-154h24v58h66v22h-66v52h76v22zM206 400q0 -27 17.5 -44.5t44.5 -17.5q28 0 46 17.5t18 44.5v94h-24v-94
q0 -16 -11.5 -28t-28.5 -12t-27.5 11t-10.5 29v94h-24v-94zM386 494h-24v-154h94v22h-70v132zM502 494h-24v-154h96v22h-72v132zM718 340l64 154h-28l-44 -114l-44 114h-28l64 -154h16zM902 494h-100v-154h100v22h-76v46h66v20h-66v44h76v22zM1014 340h28l-30 62
q11 6 17.5 17.5t6.5 24.5q0 21 -14.5 35.5t-35.5 14.5h-58v-154h24v56h36zM1206 494h-24v-154h24v154zM1350.5 376.5q-15.5 -16.5 -38.5 -16.5q-24 0 -40 16.5t-16 41.5q0 24 16 40t40 16q23 0 38.5 -16t15.5 -40q0 -25 -15.5 -41.5zM1004.5 424q-7.5 -8 -18.5 -8h-34v56h34
q11 0 18.5 -8t7.5 -20t-7.5 -20zM2524 366l50 48l-50 48l-16 -14l26 -22h-916v-24h916l-26 -22zM1046 107.5q34 -33.5 84 -33.5q51 0 84.5 33t33.5 83q0 48 -33.5 81t-84.5 33q-50 0 -84 -33t-34 -81q0 -49 34 -82.5zM1666 94q31 -20 76 -20q39 0 63.5 19.5t24.5 54.5
q0 53 -72 70q-5 2 -13.5 4t-11.5 4.5t-3 7.5q0 8 22 8q14 0 32.5 -6t31.5 -16v68q-35 16 -64 16q-41 0 -65.5 -18t-24.5 -50q0 -28 15 -43.5t49 -26.5q7 -2 16 -4.5t13.5 -5.5t4.5 -8q0 -12 -18 -12q-26 0 -76 32v-74zM1956 107.5q34 -33.5 82 -33.5q24 0 52 14l2 70
q-20 -20 -50 -20q-21 0 -35.5 15t-14.5 37q0 21 14.5 35.5t35.5 14.5t44 -14v66q-21 12 -46 12q-50 0 -84 -33t-34 -81q0 -49 34 -82.5zM2132.5 107.5q34.5 -33.5 85.5 -33.5q50 0 84 33.5t34 82.5q0 48 -34 81t-84 33q-51 0 -85.5 -33t-34.5 -81q0 -49 34.5 -82.5zM88 236
h72l-82 -156h190v62h-76l82 156h-186v-62zM446 298h-158v-218h160v60h-90v20h76v60h-76v18h88v60zM456 236h52v-156h70v156h52v62h-174v-62zM688 114h62l8 -34h76l-74 218h-80l-74 -218h72zM1004 298h-158v-218h70v68h74v58h-74v32h88v60zM1472 80v218h-70v-116l-66 116h-72
v-218h70l-2 106l68 -106h72zM1484 236h52v-156h70v156h50v62h-172v-62zM2420 298h-70v-218h70v86l28 -54h50l28 54v-86h68v218h-70l-52 -100zM1164.5 152.5q-13.5 -14.5 -34.5 -14.5t-34.5 14.5t-13.5 37.5q0 21 13.5 35.5t34.5 14.5t34.5 -14.5t13.5 -35.5
q0 -23 -13.5 -37.5zM2252 153q-14 -15 -34 -15q-21 0 -35.5 15t-14.5 37q0 21 14.5 35.5t35.5 14.5q20 0 34 -14.5t14 -35.5q0 -22 -14 -37zM720 224l14 -52h-30l14 52h2zM1850 84q10 -10 26 -10q15 0 24.5 10t9.5 24t-9.5 23t-24.5 9q-16 0 -26 -9t-10 -23t10 -24z" />
    <glyph glyph-name="eight" unicode="8" horiz-adv-x="2754" 
d="M2596 924v-386h-2508v386h972q5 73 44 133.5t101.5 95.5t136.5 35t136.5 -35t101.5 -95.5t44 -133.5h972zM1512 1094q-76 66 -170 66q-48 0 -92 -17.5t-78 -48.5h340zM1538 742q58 71 58 162q0 96 -64 170l-332 -332h338zM1144 1066q-58 -71 -58 -162q0 -48 17.5 -92
t48.5 -78l334 332h-342zM1870 642.5q38 36.5 38 91.5q0 54 -38 90t-94 36t-93 -36t-37 -90q0 -55 37 -91.5t93 -36.5t94 36.5zM270 784h56v70h-192v-70h58v-172h78v172zM464 612h82l-42 92q28 25 28 64q0 37 -27 61.5t-65 24.5h-100v-242h78v70h16zM558 612h76v242h-76v-242
zM808 650l10 -38h84l-82 242h-90l-82 -242h82l10 38h68zM916 612h164v66h-86v176h-78v-242zM2076 612h80v242h-78v-128l-74 128h-80v-242h78l-2 118zM2180 612h164v66h-86v176h-78v-242zM2466 612v96l82 146h-90l-32 -72l-30 72h-92l84 -146v-96h78zM1815 774q15 -16 15 -40
q0 -26 -15 -42t-39 -16q-23 0 -38.5 16.5t-15.5 41.5q0 24 15.5 40t38.5 16q24 0 39 -16zM438 788q6 0 11 -6t5 -14q0 -9 -5 -15.5t-11 -6.5h-20v42h20zM756 714l16 58h2l16 -58h-34zM1172 714q74 -64 170 -64q47 0 91 17t79 47h-340zM1054 352q25 -14 52 -14q22 0 37 12
t15 34q0 15 -12 25t-34 19q-18 6 -25 10.5t-7 15.5q0 10 8 16t20 6q10 0 21 -4t19 -10v26q-20 10 -40 10q-23 0 -37.5 -11.5t-14.5 -32.5q0 -19 10.5 -27.5t33.5 -18.5q18 -5 26 -10t8 -14q0 -12 -8 -18t-20 -6q-27 0 -52 18v-26zM1255 361q23 -23 57 -23q33 0 56.5 23
t23.5 57q0 33 -23.5 56.5t-56.5 23.5q-34 0 -57 -23.5t-23 -56.5q0 -34 23 -57zM1550 336v158h-24v-108l-98 110h-12v-156h24v104l98 -108h12zM186 494h-100v-154h24v58h66v22h-66v52h76v22zM206 400q0 -27 17.5 -44.5t44.5 -17.5q28 0 46 17.5t18 44.5v94h-24v-94
q0 -16 -11.5 -28t-28.5 -12t-27.5 11t-10.5 29v94h-24v-94zM386 494h-24v-154h94v22h-70v132zM502 494h-24v-154h96v22h-72v132zM718 340l64 154h-28l-44 -114l-44 114h-28l64 -154h16zM902 494h-100v-154h100v22h-76v46h66v20h-66v44h76v22zM1014 340h28l-30 62
q11 6 17.5 17.5t6.5 24.5q0 21 -14.5 35.5t-35.5 14.5h-58v-154h24v56h36zM1206 494h-24v-154h24v154zM1350.5 376.5q-15.5 -16.5 -38.5 -16.5q-24 0 -40 16.5t-16 41.5q0 24 16 40t40 16q23 0 38.5 -16t15.5 -40q0 -25 -15.5 -41.5zM1004.5 424q-7.5 -8 -18.5 -8h-34v56h34
q11 0 18.5 -8t7.5 -20t-7.5 -20zM2524 366l50 48l-50 48l-16 -14l26 -22h-916v-24h916l-26 -22zM1046 107.5q34 -33.5 84 -33.5q51 0 84.5 33t33.5 83q0 48 -33.5 81t-84.5 33q-50 0 -84 -33t-34 -81q0 -49 34 -82.5zM1666 94q31 -20 76 -20q39 0 63.5 19.5t24.5 54.5
q0 53 -72 70q-5 2 -13.5 4t-11.5 4.5t-3 7.5q0 8 22 8q14 0 32.5 -6t31.5 -16v68q-35 16 -64 16q-41 0 -65.5 -18t-24.5 -50q0 -28 15 -43.5t49 -26.5q7 -2 16 -4.5t13.5 -5.5t4.5 -8q0 -12 -18 -12q-26 0 -76 32v-74zM1956 107.5q34 -33.5 82 -33.5q24 0 52 14l2 70
q-20 -20 -50 -20q-21 0 -35.5 15t-14.5 37q0 21 14.5 35.5t35.5 14.5t44 -14v66q-21 12 -46 12q-50 0 -84 -33t-34 -81q0 -49 34 -82.5zM2132.5 107.5q34.5 -33.5 85.5 -33.5q50 0 84 33.5t34 82.5q0 48 -34 81t-84 33q-51 0 -85.5 -33t-34.5 -81q0 -49 34.5 -82.5zM88 236
h72l-82 -156h190v62h-76l82 156h-186v-62zM446 298h-158v-218h160v60h-90v20h76v60h-76v18h88v60zM456 236h52v-156h70v156h52v62h-174v-62zM688 114h62l8 -34h76l-74 218h-80l-74 -218h72zM1004 298h-158v-218h70v68h74v58h-74v32h88v60zM1472 80v218h-70v-116l-66 116h-72
v-218h70l-2 106l68 -106h72zM1484 236h52v-156h70v156h50v62h-172v-62zM2420 298h-70v-218h70v86l28 -54h50l28 54v-86h68v218h-70l-52 -100zM1164.5 152.5q-13.5 -14.5 -34.5 -14.5t-34.5 14.5t-13.5 37.5q0 21 13.5 35.5t34.5 14.5t34.5 -14.5t13.5 -35.5
q0 -23 -13.5 -37.5zM2252 153q-14 -15 -34 -15q-21 0 -35.5 15t-14.5 37q0 21 14.5 35.5t35.5 14.5q20 0 34 -14.5t14 -35.5q0 -22 -14 -37zM720 224l14 -52h-30l14 52h2zM1850 84q10 -10 26 -10q15 0 24.5 10t9.5 24t-9.5 23t-24.5 9q-16 0 -26 -9t-10 -23t10 -24z" />
    <glyph glyph-name="nine" unicode="9" horiz-adv-x="2770" 
d="M2596 924v-386h-2508v386h972q5 73 44 133.5t101.5 95.5t136.5 35t136.5 -35t101.5 -95.5t44 -133.5h972zM1512 1094q-76 66 -170 66q-48 0 -92 -17.5t-78 -48.5h340zM1538 742q58 71 58 162q0 96 -64 170l-332 -332h338zM1144 1066q-58 -71 -58 -162q0 -48 17.5 -92
t48.5 -78l334 332h-342zM1870 642.5q38 36.5 38 91.5q0 54 -38 90t-94 36t-93 -36t-37 -90q0 -55 37 -91.5t93 -36.5t94 36.5zM270 784h56v70h-192v-70h58v-172h78v172zM464 612h82l-42 92q28 25 28 64q0 37 -27 61.5t-65 24.5h-100v-242h78v70h16zM558 612h76v242h-76v-242
zM808 650l10 -38h84l-82 242h-90l-82 -242h82l10 38h68zM916 612h164v66h-86v176h-78v-242zM2076 612h80v242h-78v-128l-74 128h-80v-242h78l-2 118zM2180 612h164v66h-86v176h-78v-242zM2466 612v96l82 146h-90l-32 -72l-30 72h-92l84 -146v-96h78zM1815 774q15 -16 15 -40
q0 -26 -15 -42t-39 -16q-23 0 -38.5 16.5t-15.5 41.5q0 24 15.5 40t38.5 16q24 0 39 -16zM438 788q6 0 11 -6t5 -14q0 -9 -5 -15.5t-11 -6.5h-20v42h20zM756 714l16 58h2l16 -58h-34zM1172 714q74 -64 170 -64q47 0 91 17t79 47h-340zM1054 352q25 -14 52 -14q22 0 37 12
t15 34q0 15 -12 25t-34 19q-18 6 -25 10.5t-7 15.5q0 10 8 16t20 6q10 0 21 -4t19 -10v26q-20 10 -40 10q-23 0 -37.5 -11.5t-14.5 -32.5q0 -19 10.5 -27.5t33.5 -18.5q18 -5 26 -10t8 -14q0 -12 -8 -18t-20 -6q-27 0 -52 18v-26zM1255 361q23 -23 57 -23q33 0 56.5 23
t23.5 57q0 33 -23.5 56.5t-56.5 23.5q-34 0 -57 -23.5t-23 -56.5q0 -34 23 -57zM1550 336v158h-24v-108l-98 110h-12v-156h24v104l98 -108h12zM186 494h-100v-154h24v58h66v22h-66v52h76v22zM206 400q0 -27 17.5 -44.5t44.5 -17.5q28 0 46 17.5t18 44.5v94h-24v-94
q0 -16 -11.5 -28t-28.5 -12t-27.5 11t-10.5 29v94h-24v-94zM386 494h-24v-154h94v22h-70v132zM502 494h-24v-154h96v22h-72v132zM718 340l64 154h-28l-44 -114l-44 114h-28l64 -154h16zM902 494h-100v-154h100v22h-76v46h66v20h-66v44h76v22zM1014 340h28l-30 62
q11 6 17.5 17.5t6.5 24.5q0 21 -14.5 35.5t-35.5 14.5h-58v-154h24v56h36zM1206 494h-24v-154h24v154zM1350.5 376.5q-15.5 -16.5 -38.5 -16.5q-24 0 -40 16.5t-16 41.5q0 24 16 40t40 16q23 0 38.5 -16t15.5 -40q0 -25 -15.5 -41.5zM1004.5 424q-7.5 -8 -18.5 -8h-34v56h34
q11 0 18.5 -8t7.5 -20t-7.5 -20zM2524 366l50 48l-50 48l-16 -14l26 -22h-916v-24h916l-26 -22zM1046 107.5q34 -33.5 84 -33.5q51 0 84.5 33t33.5 83q0 48 -33.5 81t-84.5 33q-50 0 -84 -33t-34 -81q0 -49 34 -82.5zM1666 94q31 -20 76 -20q39 0 63.5 19.5t24.5 54.5
q0 53 -72 70q-5 2 -13.5 4t-11.5 4.5t-3 7.5q0 8 22 8q14 0 32.5 -6t31.5 -16v68q-35 16 -64 16q-41 0 -65.5 -18t-24.5 -50q0 -28 15 -43.5t49 -26.5q7 -2 16 -4.5t13.5 -5.5t4.5 -8q0 -12 -18 -12q-26 0 -76 32v-74zM1956 107.5q34 -33.5 82 -33.5q24 0 52 14l2 70
q-20 -20 -50 -20q-21 0 -35.5 15t-14.5 37q0 21 14.5 35.5t35.5 14.5t44 -14v66q-21 12 -46 12q-50 0 -84 -33t-34 -81q0 -49 34 -82.5zM2132.5 107.5q34.5 -33.5 85.5 -33.5q50 0 84 33.5t34 82.5q0 48 -34 81t-84 33q-51 0 -85.5 -33t-34.5 -81q0 -49 34.5 -82.5zM88 236
h72l-82 -156h190v62h-76l82 156h-186v-62zM446 298h-158v-218h160v60h-90v20h76v60h-76v18h88v60zM456 236h52v-156h70v156h52v62h-174v-62zM688 114h62l8 -34h76l-74 218h-80l-74 -218h72zM1004 298h-158v-218h70v68h74v58h-74v32h88v60zM1472 80v218h-70v-116l-66 116h-72
v-218h70l-2 106l68 -106h72zM1484 236h52v-156h70v156h50v62h-172v-62zM2420 298h-70v-218h70v86l28 -54h50l28 54v-86h68v218h-70l-52 -100zM1164.5 152.5q-13.5 -14.5 -34.5 -14.5t-34.5 14.5t-13.5 37.5q0 21 13.5 35.5t34.5 14.5t34.5 -14.5t13.5 -35.5
q0 -23 -13.5 -37.5zM2252 153q-14 -15 -34 -15q-21 0 -35.5 15t-14.5 37q0 21 14.5 35.5t35.5 14.5q20 0 34 -14.5t14 -35.5q0 -22 -14 -37zM720 224l14 -52h-30l14 52h2zM1850 84q10 -10 26 -10q15 0 24.5 10t9.5 24t-9.5 23t-24.5 9q-16 0 -26 -9t-10 -23t10 -24z" />
    <glyph glyph-name="colon" unicode=":" horiz-adv-x="377" 
d="M215.5 902.5q-19.5 18.5 -19.5 47.5q0 41 32 70.5t74 29.5q32 0 51.5 -18t19.5 -47q0 -41 -32.5 -71t-73.5 -30q-32 0 -51.5 18.5zM22.5 -6.5q-19.5 18.5 -19.5 47.5q0 41 32 70.5t74 29.5q32 0 51.5 -18t19.5 -47q0 -41 -32.5 -71t-73.5 -30q-32 0 -51.5 18.5z" />
    <glyph glyph-name="semicolon" unicode=";" horiz-adv-x="389" 
d="M-43 -180q115 90 130 160l1 5q-30 0 -50 18t-20 46q0 4 2 16q8 37 37 59.5t65 22.5q70 0 70 -64q0 -16 -4 -32q-17 -77 -62.5 -143t-129.5 -133zM220.5 902.5q-19.5 18.5 -19.5 47.5q0 41 32 70.5t74 29.5q32 0 51.5 -18t19.5 -47q0 -41 -32.5 -71t-73.5 -30
q-32 0 -51.5 18.5z" />
    <glyph glyph-name="less" unicode="&#x3c;" horiz-adv-x="1029" 
d="M143 702l905 390l-26 -127l-748 -315l614 -314l-24 -106l-739 388z" />
    <glyph glyph-name="equal" unicode="=" horiz-adv-x="1155" 
d="M1117 817h-950l21 100h950zM1034 430h-949l21 100h950z" />
    <glyph glyph-name="greater" unicode="&#x3e;" horiz-adv-x="1028" 
d="M949 625l-905 -389l26 127l747 315l-613 314l24 106l739 -389z" />
    <glyph glyph-name="question" unicode="?" horiz-adv-x="951" 
d="M397 447q22 100 98 189t182 160q83 56 136.5 104t84 105t30.5 127q0 95 -71 145.5t-197 50.5q-146 0 -245 -67.5t-127 -199.5h-102q24 111 87.5 194t165 128.5t234.5 45.5q108 0 189.5 -34.5t125.5 -98t44 -147.5q0 -95 -38.5 -168t-95.5 -125t-144 -112
q-111 -76 -175 -144.5t-83 -158.5l-12 -56h-100zM304 2q-19 18 -19 47q0 41 32 71t74 30q32 0 51.5 -18t19.5 -47q0 -41 -32.5 -71t-74.5 -30q-32 0 -51 18z" />
    <glyph glyph-name="at" unicode="@" horiz-adv-x="1807" 
d="M1396.5 1223q153.5 -80 238 -223t84.5 -326q0 -124 -38.5 -253.5t-123.5 -219t-217 -89.5q-94 0 -140.5 56.5t-50.5 140.5q-63 -87 -153.5 -139.5t-198.5 -52.5q-85 0 -155 39t-110 108.5t-40 156.5q0 111 61 222t166 183t230 72q99 0 173 -49.5t105 -134.5l52 166h77
l-107 -503q-6 -25 -6 -50q0 -55 29 -89t85 -34q94 0 152.5 79t84 188t25.5 202q0 156 -69 278t-201 191.5t-312 69.5q-244 0 -437.5 -120.5t-300.5 -310.5t-107 -389q0 -172 71 -301t196.5 -199t285.5 -70q121 0 220 24.5t212 75.5l27 -84q-124 -57 -231 -82.5t-239 -25.5
q-171 0 -318 77.5t-235.5 224t-88.5 343.5q0 222 116 437t332.5 353t502.5 138q200 0 353.5 -80zM1006 263.5q82 54.5 130 139t48 168.5q0 67 -30 120t-82.5 83t-119.5 30q-98 0 -180 -55t-129.5 -140t-47.5 -169q0 -66 29.5 -119t82 -82.5t119.5 -29.5q98 0 180 54.5z" />
    <glyph glyph-name="A" unicode="A" horiz-adv-x="1289" 
d="M1160 0h-108l-70 371h-726l-226 -371h-119l871 1406h104zM802 1268l-489 -803h652l-151 803l-3 17z" />
    <glyph glyph-name="B" unicode="B" horiz-adv-x="1312" 
d="M96 0l298 1405h551q104 0 179 -34t114 -95.5t39 -142.5q0 -132 -75 -237.5t-204 -153.5q63 -13 111 -52t75 -97t27 -129q0 -116 -64 -223t-178 -174t-258 -67h-615zM817 776q98 0 179.5 49.5t128.5 127t47 155.5q0 60 -26 106.5t-76.5 73t-121.5 26.5h-471l-114 -538h454
zM710 91q112 0 203 54.5t142.5 139.5t51.5 170q0 104 -61.5 169t-176.5 65h-525l-127 -598h493z" />
    <glyph glyph-name="C" unicode="C" horiz-adv-x="1392" 
d="M435.5 56q-138.5 81 -216.5 226t-78 332q0 203 103 391.5t284 306t403 117.5q301 0 482 -217l-74 -71q-81 94 -186 141t-237 47q-186 0 -340 -100.5t-242 -263.5t-88 -341q0 -159 66.5 -284t183 -194.5t262.5 -69.5q120 0 223.5 43.5t204.5 120.5l55 -79
q-237 -186 -492 -186q-175 0 -313.5 81z" />
    <glyph glyph-name="D" unicode="D" horiz-adv-x="1495" 
d="M96 0l298 1405h441q180 0 319 -72t216.5 -198.5t77.5 -286.5q0 -210 -116 -406.5t-318.5 -319t-447.5 -122.5h-470zM568 98q217 0 394 108.5t278 278.5t101 344q0 138 -61 246.5t-174.5 169.5t-265.5 61h-362l-257 -1208h347z" />
    <glyph glyph-name="E" unicode="E" horiz-adv-x="1290" 
d="M1079 0h-983l298 1405h969l-21 -98h-865l-113 -533h712l-20 -97h-713l-123 -578h879z" />
    <glyph glyph-name="F" unicode="F" horiz-adv-x="1195" 
d="M199 0h-103l298 1405h927l-21 -96h-822l-126 -591h663l-19 -93h-663z" />
    <glyph glyph-name="G" unicode="G" horiz-adv-x="1432" 
d="M565 1221.5q-153 -106.5 -236 -271t-83 -330.5q0 -158 66 -281.5t182 -193t262 -69.5q91 0 193.5 29t187.5 80l94 443h100l-104 -491q-115 -77 -242 -119t-250 -42q-171 0 -307 80t-212.5 224.5t-76.5 329.5q0 194 99 384.5t280.5 312.5t414.5 122q147 0 269.5 -56.5
t211.5 -162.5l-77 -69q-163 187 -420 187q-199 0 -352 -106.5z" />
    <glyph glyph-name="H" unicode="H" horiz-adv-x="1548" 
d="M199 0h-103l298 1405h104l-136 -641h931l136 641h104l-299 -1405h-104l141 664h-930z" />
    <glyph glyph-name="I" unicode="I" horiz-adv-x="513" 
d="M199 0h-103l298 1405h104z" />
    <glyph glyph-name="J" unicode="J" horiz-adv-x="811" 
d="M56 10q-75 34 -123 92l69 69q39 -46 93 -69.5t121 -23.5q110 0 186.5 68t103.5 193l226 1066h104l-227 -1071q-24 -111 -79 -191.5t-135.5 -123.5t-179.5 -43q-84 0 -159 34z" />
    <glyph glyph-name="K" unicode="K" horiz-adv-x="1355" 
d="M1252 1405h150l-665 -589l481 -816h-115l-443 748l-371 -329l-89 -419h-104l298 1405h104l-174 -822z" />
    <glyph glyph-name="L" unicode="L" horiz-adv-x="1115" 
d="M976 0h-880l298 1405h104l-277 -1305h776z" />
    <glyph glyph-name="M" unicode="M" horiz-adv-x="1770" 
d="M110 0h-110l451 1405h128l233 -1252l751 1252h134l-145 -1405h-105l135 1242l-748 -1242h-91l-238 1242z" />
    <glyph glyph-name="N" unicode="N" horiz-adv-x="1569" 
d="M200 0h-104l298 1405h88l706 -1232l261 1232h104l-298 -1405h-86l-707 1234z" />
    <glyph glyph-name="O" unicode="O" horiz-adv-x="1610" 
d="M441.5 56q-141.5 81 -220.5 226t-79 332q0 209 102.5 397.5t283 303.5t400.5 115q181 0 322 -80.5t219.5 -225.5t78.5 -334q0 -209 -102.5 -397t-282 -303t-399.5 -115q-181 0 -322.5 81zM1115.5 175q153.5 99 240.5 261t87 342q0 163 -66.5 288t-185.5 194t-270 69
q-190 0 -344.5 -99t-242 -260.5t-87.5 -342.5q0 -162 67 -287t186.5 -194.5t271.5 -69.5q190 0 343.5 99z" />
    <glyph glyph-name="P" unicode="P" horiz-adv-x="1208" 
d="M96 0l298 1405h450q124 0 216 -41t142 -119.5t50 -186.5q0 -133 -68.5 -258t-200 -205t-312.5 -80h-362l-109 -515h-104zM675 613q144 0 251 63t163 163.5t56 208.5q0 121 -80 190.5t-223 69.5h-364l-148 -695h345z" />
    <glyph glyph-name="Q" unicode="Q" horiz-adv-x="1610" 
d="M1446.5 394.5q-101.5 -187.5 -280 -303t-397.5 -116.5l-59 -279h-104l61 285q-156 21 -275 106t-184.5 221t-65.5 306q0 209 102.5 397.5t283 303.5t400.5 115q181 0 322 -80.5t219.5 -225.5t78.5 -334q0 -208 -101.5 -395.5zM1115.5 175q153.5 99 240.5 261t87 342
q0 163 -66.5 288t-185.5 194t-270 69q-190 0 -344.5 -99t-242 -260.5t-87.5 -342.5q0 -162 67 -287t186.5 -194.5t271.5 -69.5q190 0 343.5 99z" />
    <glyph glyph-name="R" unicode="R" horiz-adv-x="1281" 
d="M1258 849q-45 -102 -130.5 -181t-202.5 -118l136 -550h-107l-127 526q-54 -9 -114 -9h-404l-110 -517h-103l298 1405h501q124 0 216 -41t142 -118.5t50 -184.5q0 -110 -45 -212zM729 612q140 0 246 63.5t162.5 164.5t56.5 209q0 122 -79 190.5t-221 68.5h-417l-147 -696
h399z" />
    <glyph glyph-name="S" unicode="S" horiz-adv-x="1128" 
d="M212 33q-144 60 -233 167l70 67q73 -82 199 -138t279 -56q125 0 213 43t132.5 110.5t44.5 140.5q0 76 -53 135.5t-127 99.5t-171 78q-162 64 -257.5 154t-95.5 227q0 88 43 172t145.5 141t269.5 57q257 0 472 -177l-70 -70q-192 148 -410 148q-124 0 -201 -39.5
t-109.5 -100t-32.5 -127.5q0 -95 76.5 -168t226.5 -131q102 -40 186.5 -86.5t149 -122.5t64.5 -177q0 -92 -54 -186t-170 -157.5t-290 -63.5q-153 0 -297 60z" />
    <glyph glyph-name="T" unicode="T" horiz-adv-x="1145" 
d="M515 0h-105l278 1306h-478l21 99h1061l-21 -99h-479z" />
    <glyph glyph-name="U" unicode="U" horiz-adv-x="1462" 
d="M369 30q-103 55 -155 155.5t-52 236.5q0 82 20 179l172 805h104l-171 -801q-20 -94 -20 -173q0 -168 89.5 -263t266.5 -95q148 0 270.5 66.5t204.5 186.5t116 278l170 801h104l-172 -806q-39 -185 -134.5 -326t-239 -220t-321.5 -79q-149 0 -252 55z" />
    <glyph glyph-name="V" unicode="V" horiz-adv-x="1278" 
d="M579 0h-97l-273 1405h106l237 -1267h1l776 1267h119z" />
    <glyph glyph-name="W" unicode="W" horiz-adv-x="1944" 
d="M593 0h-99l-285 1405h106l252 -1265l759 1265h118l-345 -567l129 -698l766 1265h119l-861 -1405h-98l-136 704z" />
    <glyph glyph-name="X" unicode="X" horiz-adv-x="1254" 
d="M53 0h-137l686 736l-347 669h113l313 -600l556 600h138l-634 -682l376 -723h-114l-341 658z" />
    <glyph glyph-name="Y" unicode="Y" horiz-adv-x="1105" 
d="M496 0h-104l131 614l-314 791h112l268 -690l555 690h131l-648 -790z" />
    <glyph glyph-name="Z" unicode="Z" horiz-adv-x="1272" 
d="M1052 0h-1059l18 83l1178 1226h-901l20 96h1050l-17 -80l-1180 -1229h911z" />
    <glyph glyph-name="bracketleft" unicode="[" horiz-adv-x="604" 
d="M396 -371h-379l396 1866h379l-18 -87h-278l-359 -1693h277z" />
    <glyph glyph-name="backslash" unicode="\" horiz-adv-x="845" 
d="M295 1405l353 -1774h-103l-354 1774h104z" />
    <glyph glyph-name="bracketright" unicode="]" horiz-adv-x="604" 
d="M229 1495h379l-397 -1865h-378l18 86h277l360 1693h-278z" />
    <glyph glyph-name="asciicircum" unicode="^" horiz-adv-x="877" 
d="M613 1333l-346 -481l-89 16l451 607h29l192 -607l-96 -16z" />
    <glyph glyph-name="underscore" unicode="_" horiz-adv-x="965" 
d="M809 -245h-975l13 63h975z" />
    <glyph glyph-name="grave" unicode="`" horiz-adv-x="462" 
d="M510 1222h-82l-122 252h117z" />
    <glyph glyph-name="a" unicode="a" horiz-adv-x="1274" 
d="M1217 1027l-89 -420l-129 -607h-98l42 196q-77 -101 -182 -161t-229 -60q-122 0 -223.5 60.5t-161 169t-59.5 243.5q0 149 73 288t202.5 225.5t290.5 86.5q145 0 254 -77t153 -209l3 17l53 248h100zM793.5 149.5q107.5 77.5 166.5 195t59 229.5q0 114 -48.5 199.5
t-131.5 131.5t-185 46q-134 0 -241 -71t-167 -186t-60 -241q0 -111 49.5 -197.5t133 -135t181.5 -48.5q136 0 243.5 77.5z" />
    <glyph glyph-name="b" unicode="b" horiz-adv-x="1273" 
d="M963.5 987.5q101.5 -60.5 161 -168.5t59.5 -243q0 -149 -73 -288t-202.5 -226t-290.5 -87q-99 0 -182 37t-142 105t-86 160l-8 -60l-46 -217h-97l128 607l189 888h100l-141 -664q77 99 180.5 158t226.5 59q122 0 223.5 -60.5zM859 143.5q107 71.5 166.5 186.5t59.5 240
q0 111 -49 197.5t-132.5 135t-181.5 48.5q-136 0 -243 -77.5t-165.5 -195t-58.5 -229.5q0 -115 48 -200.5t130.5 -131t184.5 -45.5q134 0 241 71.5z" />
    <glyph glyph-name="c" unicode="c" horiz-adv-x="1110" 
d="M324.5 33q-111.5 59 -175.5 164t-64 237q0 154 78 296.5t219 231t320 88.5q124 0 217.5 -42t157.5 -118l-69 -69q-114 133 -311 133q-151 0 -268 -74t-180.5 -192.5t-63.5 -246.5q0 -108 53 -192.5t143 -131.5t196 -47q77 0 158 26t154 83l46 -73q-85 -68 -181.5 -100
t-182.5 -32q-135 0 -246.5 59z" />
    <glyph glyph-name="d" unicode="d" horiz-adv-x="1274" 
d="M1316 1495l-188 -888l-129 -607h-98l42 196q-77 -101 -182 -161t-229 -60q-122 0 -223.5 60.5t-161 169t-59.5 243.5q0 149 73 288t202.5 225.5t290.5 86.5q97 0 179 -35.5t141 -100.5t88 -153l8 46l146 690h100zM793.5 149.5q107.5 77.5 166.5 195t59 229.5
q0 114 -48.5 199.5t-131.5 131.5t-185 46q-134 0 -241 -71t-167 -186t-60 -241q0 -111 49.5 -197.5t133 -135t181.5 -48.5q136 0 243.5 77.5z" />
    <glyph glyph-name="e" unicode="e" horiz-adv-x="1142" 
d="M871.5 998.5q93.5 -51.5 145 -142t51.5 -202.5q0 -85 -24 -181h-859q-1 -11 -1 -32q0 -111 51 -195.5t137 -130.5t188 -46q76 0 163 26.5t158 83.5l44 -74q-80 -66 -182 -98t-188 -32q-132 0 -239.5 59t-169 164t-61.5 238q0 150 73.5 292.5t205 232t295.5 89.5
q119 0 212.5 -51.5zM967 565q4 29 4 69q0 96 -39.5 168.5t-111.5 112.5t-165 40q-114 0 -209 -52.5t-158.5 -141.5t-88.5 -196h768z" />
    <glyph glyph-name="f" unicode="f" horiz-adv-x="583" 
d="M92 0l198 934h-160l20 93h160l32 150q36 172 135 255.5t253 83.5h62l-19 -94q-22 1 -63 1q-108 0 -175.5 -62.5t-95.5 -194.5l-30 -139h270l-20 -93h-269l-199 -934h-99z" />
    <glyph glyph-name="g" unicode="g" horiz-adv-x="1272" 
d="M1216 1027l-129 -607v-1l-57 -266q-52 -248 -195.5 -390t-379.5 -142q-105 0 -207.5 22.5t-167.5 56.5l43 84q65 -31 159.5 -50t185.5 -19q194 0 309.5 123.5t154.5 319.5l10 45l6 24q-77 -94 -183 -149.5t-234 -55.5q-122 0 -223 56t-159.5 156t-58.5 228
q0 142 72.5 278t201.5 222t289 86q98 0 181.5 -36.5t143 -104t86.5 -158.5l8 62l46 216h98zM792 185q108 67 167 172.5t59 216.5q0 114 -48 199.5t-131 131.5t-184 46q-135 0 -241.5 -70.5t-166 -182t-59.5 -230.5q0 -103 48.5 -183t130 -123.5t178.5 -43.5q139 0 247 67z
" />
    <glyph glyph-name="h" unicode="h" horiz-adv-x="1200" 
d="M996 968.5q90 -81.5 90 -230.5q0 -54 -14 -122l-131 -616h-100l128 603q13 59 13 113q0 117 -66 178.5t-191 61.5q-93 0 -187.5 -47.5t-164.5 -131.5t-92 -188l-125 -589h-100l318 1494h99l-139 -657q70 92 182.5 152.5t232.5 60.5q157 0 247 -81.5z" />
    <glyph glyph-name="i" unicode="i" horiz-adv-x="430" 
d="M339.5 1321.5q-16.5 15.5 -16.5 40.5q0 35 27 62.5t65 27.5q29 0 45.5 -16.5t16.5 -41.5q0 -34 -27.5 -61t-65.5 -27q-28 0 -44.5 15.5zM155 0h-99l219 1027h99z" />
    <glyph glyph-name="j" unicode="j" horiz-adv-x="438" 
d="M346.5 1321.5q-16.5 15.5 -16.5 40.5q0 35 27 62.5t65 27.5q29 0 45.5 -16.5t16.5 -41.5q0 -34 -27.5 -61t-65.5 -27q-28 0 -44.5 15.5zM-231 -368l19 91h18q198 0 250 243l226 1061h99l-225 -1058q-34 -158 -126 -247.5t-234 -89.5h-27z" />
    <glyph glyph-name="k" unicode="k" horiz-adv-x="1085" 
d="M947 1027h145l-519 -419l363 -608h-111l-328 547l-271 -219l-70 -328h-100l318 1495h99l-218 -1028z" />
    <glyph glyph-name="l" unicode="l" horiz-adv-x="431" 
d="M156 0h-100l318 1495h99z" />
    <glyph glyph-name="m" unicode="m" horiz-adv-x="1785" 
d="M1534 1016q68 -35 105 -102t37 -159q0 -55 -13 -113l-137 -642h-99l134 631q12 57 12 107q0 103 -54.5 161t-161.5 58q-81 0 -159 -40.5t-136.5 -113t-84.5 -164.5l-136 -639h-99l134 631q12 57 12 107q0 103 -54.5 161t-161.5 58q-86 0 -167 -44.5t-140 -124t-80 -179.5
l-129 -609h-100l219 1027h96l-31 -147q68 81 159.5 126t188.5 45q121 0 199 -59t97 -166q69 105 173 165t216 60q93 0 161 -35z" />
    <glyph glyph-name="n" unicode="n" horiz-adv-x="1200" 
d="M996 968.5q90 -81.5 90 -230.5q0 -54 -14 -122l-131 -616h-100l128 603q13 59 13 113q0 117 -66 178.5t-191 61.5q-93 0 -187.5 -47.5t-164.5 -131.5t-92 -188v2l-125 -591h-100l219 1027h96l-42 -196q45 61 112 111t147 79t161 29q157 0 247 -81.5z" />
    <glyph glyph-name="o" unicode="o" horiz-adv-x="1254" 
d="M320 33q-109 59 -172 164t-63 237q0 153 76.5 295.5t215 231t313.5 88.5q134 0 243 -59t172 -163.5t63 -236.5q0 -153 -77 -295.5t-215.5 -231.5t-313.5 -89q-133 0 -242 59zM829 145q114 74 176 192t62 246q0 108 -51.5 192.5t-139 131t-191.5 46.5q-148 0 -262 -74
t-175.5 -192.5t-61.5 -246.5q0 -108 51 -192t138 -130.5t192 -46.5q148 0 262 74z" />
    <glyph glyph-name="p" unicode="p" horiz-adv-x="1260" 
d="M995.5 996q90.5 -53 140 -147t49.5 -213q0 -57 -14 -124q-32 -148 -124 -270.5t-221 -193.5t-266 -71q-133 0 -225 67.5t-131 182.5l-123 -582h-100l76 355h-1l129 607l1 1l89 419h98l-49 -232q87 116 208.5 185t255.5 69q117 0 207.5 -53zM1084 618q0 97 -40 173
t-113 118.5t-169 42.5q-114 0 -220 -58t-181.5 -158.5t-101.5 -223.5q-11 -49 -11 -104q0 -98 40.5 -174t115 -118.5t172.5 -42.5q113 0 217.5 57.5t178.5 157.5t100 224q12 56 12 106z" />
    <glyph glyph-name="q" unicode="q" horiz-adv-x="1274" 
d="M1128 607l-19 -88l-185 -874h-100l116 548q-77 -100 -180.5 -159t-227.5 -59q-122 0 -223.5 60.5t-161 169t-59.5 243.5q0 149 73 288t202.5 225.5t290.5 86.5q97 0 179 -35t141 -100.5t88 -153.5l57 268h98zM793.5 149.5q107.5 77.5 166.5 195t59 229.5
q0 114 -48.5 199.5t-131.5 131.5t-185 46q-134 0 -241 -71t-167 -186t-60 -241q0 -111 49.5 -197.5t133 -135t181.5 -48.5q136 0 243.5 77.5z" />
    <glyph glyph-name="r" unicode="r" horiz-adv-x="834" 
d="M801 1030q55 -18 105 -54l-62 -81q-42 30 -88.5 44.5t-90.5 14.5q-82 0 -162 -48t-141 -135t-85 -200v1l-121 -572h-100l219 1027h96l-44 -207q60 104 154 166t210 62q55 0 110 -18z" />
    <glyph glyph-name="s" unicode="s" horiz-adv-x="864" 
d="M158 14q-100 40 -172 103l58 73q65 -53 148.5 -88.5t184.5 -35.5q87 0 148.5 28.5t93 75.5t31.5 103q0 76 -60.5 126t-181.5 97q-115 46 -181.5 112.5t-66.5 164.5q0 67 36.5 130.5t114 104.5t193.5 41q95 0 180 -32.5t153 -90.5l-61 -71q-59 48 -131.5 74t-151.5 26
q-78 0 -130.5 -25t-78 -65t-25.5 -84q0 -60 47.5 -108.5t156.5 -90.5q129 -49 208 -121.5t79 -181.5q0 -81 -44 -150.5t-130 -112t-206 -42.5q-112 0 -212 40z" />
    <glyph glyph-name="t" unicode="t" horiz-adv-x="588" 
d="M198 0h-100l199 934h-189l20 93h188l56 260l104 18l-59 -278h277l-20 -93h-277z" />
    <glyph glyph-name="u" unicode="u" horiz-adv-x="1200" 
d="M1044 1027h99l-218 -1027h-96l42 196q-45 -61 -112 -110.5t-147 -78.5t-161 -29q-157 0 -247.5 81.5t-90.5 231.5q0 54 14 121l131 615h101l-129 -603q-13 -59 -13 -112q0 -117 66.5 -178.5t191.5 -61.5q90 0 181 44t161 123t97 177z" />
    <glyph glyph-name="v" unicode="v" horiz-adv-x="1009" 
d="M445 0h-100l-209 1027h102l176 -911l563 911h115z" />
    <glyph glyph-name="w" unicode="w" horiz-adv-x="1572" 
d="M981 116l558 911h116l-642 -1027h-104l-113 572l-355 -572h-101l-204 1027h100l175 -911l552 911h115l-209 -337z" />
    <glyph glyph-name="x" unicode="x" horiz-adv-x="979" 
d="M53 0h-121l492 528l-258 499h116l219 -438l406 438h122l-469 -499l269 -528h-115l-232 464z" />
    <glyph glyph-name="y" unicode="y" horiz-adv-x="1010" 
d="M226 -355h-110l225 355l-205 1027h105l176 -908l563 908h112z" />
    <glyph glyph-name="z" unicode="z" horiz-adv-x="941" 
d="M774 0h-803l15 71l826 865h-623l19 91h771l-15 -70l-833 -866h662z" />
    <glyph glyph-name="braceleft" unicode="{" horiz-adv-x="558" 
d="M351 -367q-147 0 -210.5 54t-63.5 151q0 38 12 98l64 306q10 46 10 90q0 80 -35.5 133t-101.5 76l16 75q102 32 166.5 110t88.5 193l64 308q21 102 53 162.5t110.5 97t225.5 36.5l-19 -86q-96 -4 -147.5 -24t-78.5 -65.5t-45 -132.5l-65 -315q-48 -230 -249 -324
q123 -75 123 -224q0 -42 -11 -95l-65 -311q-14 -67 -14 -106q0 -44 18 -69t59 -36.5t113 -14.5z" />
    <glyph glyph-name="bar" unicode="|" horiz-adv-x="507" 
d="M116 -359h-97l410 1927h97z" />
    <glyph glyph-name="braceright" unicode="}" horiz-adv-x="558" 
d="M227 1488q147 0 210 -54t63 -152q0 -44 -11 -97l-64 -306q-10 -46 -10 -90q0 -80 35.5 -133t101.5 -76l-16 -75q-102 -32 -166.5 -110t-88.5 -193l-64 -307q-21 -102 -53 -162.5t-110.5 -97.5t-225.5 -37l19 86q96 4 147.5 24t78.5 65.5t45 132.5l65 315q48 230 249 324
q-123 75 -123 224q0 42 11 95l65 312q14 65 14 106q0 44 -18 69t-59 36.5t-113 14.5z" />
    <glyph glyph-name="asciitilde" unicode="~" horiz-adv-x="1187" 
d="M715 545.5q-49 15.5 -118 45.5q-63 28 -109 42.5t-98 14.5q-130 0 -248 -98q-4 21 -5 25q-7 40 -9 61q64 52 137 82t145 30q62 0 113 -15.5t120 -46.5q62 -28 106 -42t94 -14q70 0 132 24.5t123 72.5l7 -42q4 -17 7 -42q-64 -53 -138.5 -83t-151.5 -30q-58 0 -107 15.5z
" />
    <glyph glyph-name="uni00A0" unicode="&#xa0;" horiz-adv-x="412" 
 />
    <glyph glyph-name="exclamdown" unicode="&#xa1;" horiz-adv-x="582" 
d="M457 1031.5q20 -17.5 20 -44.5q0 -37 -32.5 -65.5t-73.5 -28.5q-32 0 -51.5 18t-19.5 45q0 5 2 15q8 33 37 55.5t66 22.5q32 0 52 -17.5zM72 -280l206 957h98l-200 -957h-104z" />
    <glyph glyph-name="cent" unicode="&#xa2;" horiz-adv-x="1110" 
d="M779 1046q187 -23 298 -156l-69 -69q-114 133 -311 133q-151 0 -268 -74t-180.5 -192.5t-63.5 -246.5q0 -108 53 -192.5t143 -131.5t196 -47q77 0 158 26t154 83l46 -73q-85 -68 -181.5 -100t-182.5 -32h-20l-47 -222h-99l49 234q-107 24 -191 86.5t-131 156t-47 205.5
q0 151 75 291t211.5 229.5t309.5 95.5l47 222h99z" />
    <glyph glyph-name="sterling" unicode="&#xa3;" horiz-adv-x="1141" 
d="M1227 1286l-72 -62q-96 114 -266 114q-109 0 -204.5 -49t-162 -137t-90.5 -202l-62 -293h466l-25 -90h-460l-100 -470h772l-21 -97h-872l121 567h-197l24 90h192l63 298q30 141 112.5 250t201.5 169.5t255 60.5q224 0 325 -149z" />
    <glyph glyph-name="currency" unicode="&#xa4;" horiz-adv-x="848" 
d="M301 413.5q-47 17.5 -80 50.5l-91 -75l-41 50l91 75q-36 59 -36 131q0 34 7 65q24 108 110 191l-58 75l62 50l60 -76q47 34 100.5 52t105.5 18q108 0 177 -70l91 76l42 -50l-89 -73q36 -61 36 -133q0 -27 -6 -56q-24 -118 -113 -201l58 -74l-63 -50l-59 74
q-47 -33 -100 -50t-105 -17t-99 17.5zM543.5 498.5q62.5 32.5 106.5 88t58 121.5q5 21 5 50q0 54 -24.5 97.5t-69 69t-101.5 25.5q-66 0 -128.5 -33t-106.5 -88.5t-58 -120.5q-6 -27 -6 -51q0 -54 25 -97.5t69.5 -68.5t101.5 -25q66 0 128.5 32.5z" />
    <glyph glyph-name="yen" unicode="&#xa5;" horiz-adv-x="1105" 
d="M1144 1405h131l-614 -748h283l-15 -69h-308l-31 -146h308l-15 -69h-308l-79 -373h-104l80 373h-309l15 69h308l31 146h-309l15 69h283l-297 748h112l268 -690z" />
    <glyph glyph-name="brokenbar" unicode="&#xa6;" horiz-adv-x="480" 
d="M337 739h-96l174 820h97zM107 -348h-97l173 814h97z" />
    <glyph glyph-name="section" unicode="&#xa7;" horiz-adv-x="911" 
d="M95 -170q-87 34 -143 97l76 70q45 -50 116.5 -79t153.5 -29q74 0 141.5 22.5t114 65t59.5 101.5q4 16 4 34q0 49 -33 80.5t-82.5 50t-133.5 40.5q-85 23 -150.5 50t-114 77t-48.5 125q0 23 6 50q23 110 110 181.5t206 95.5q-84 32 -130 75t-46 114q0 23 6 50
q18 83 79.5 147t153 99.5t196.5 35.5q100 0 187.5 -34t143.5 -97l-76 -71q-46 51 -117.5 80t-151.5 29q-74 0 -141.5 -22.5t-114 -65.5t-59.5 -102q-4 -16 -4 -34q0 -48 33 -79t81.5 -49.5t134.5 -41.5q100 -27 165 -55t106.5 -75t41.5 -117q0 -26 -6 -56
q-24 -111 -111 -182.5t-205 -93.5q82 -31 128.5 -74.5t46.5 -114.5q0 -22 -6 -51q-17 -83 -78.5 -147t-153 -99t-197.5 -35q-101 0 -188 34zM581.5 406q67.5 24 114 71.5t60.5 114.5q4 16 4 34q0 59 -44.5 97t-109 55t-125.5 17q-75 0 -142 -24t-114.5 -71t-61.5 -113
q-4 -22 -4 -33q0 -56 41.5 -95t105.5 -58t133 -19q75 0 142.5 24z" />
    <glyph glyph-name="dieresis" unicode="&#xa8;" horiz-adv-x="691" 
d="M283.5 1236q-16.5 16 -16.5 42q0 37 27 63.5t65 26.5q28 0 45 -15.5t17 -41.5q0 -37 -28.5 -64t-64.5 -27q-28 0 -44.5 16zM618.5 1236q-16.5 16 -16.5 42q0 37 27.5 63.5t64.5 26.5q28 0 45 -15.5t17 -40.5q0 -38 -28 -65t-65 -27q-28 0 -44.5 16z" />
    <glyph glyph-name="copyright" unicode="&#xa9;" horiz-adv-x="1663" 
d="M1327.5 1355.5q133.5 -73.5 207.5 -203t74 -292.5q0 -73 -17 -156q-42 -199 -174 -365t-318.5 -262.5t-385.5 -96.5q-173 0 -306.5 73.5t-207.5 203t-74 292.5q0 73 17 155q42 200 174 366t318.5 262.5t385.5 96.5q173 0 306.5 -73.5zM654 1281q-172 -89 -293.5 -241.5
t-159.5 -334.5q-15 -73 -15 -142q0 -150 68 -269t190.5 -187t281.5 -68q183 0 355 89t293.5 242t159.5 335q15 74 15 142q0 149 -67.5 268t-190.5 187t-282 68q-183 0 -355 -89zM605 317q-78 44 -121.5 121t-43.5 174q0 46 10 92q25 119 103.5 217.5t188 156t224.5 57.5
q93 0 163 -32.5t114 -92.5l-68 -69q-36 49 -93 75t-132 26q-89 0 -174 -45t-146.5 -122.5t-81.5 -170.5q-8 -40 -8 -73q0 -76 34.5 -136.5t95 -94.5t137.5 -34q74 0 142 26.5t125 74.5l39 -69q-69 -59 -154 -92t-176 -33q-100 0 -178 44z" />
    <glyph glyph-name="ordfeminine" unicode="&#xaa;" horiz-adv-x="1259" 
d="M1204 1027l-114 -537h-1l-103 -490h-98l46 217l5 16q-88 -117 -210 -186.5t-257 -69.5q-118 0 -208 52.5t-140 146t-50 212.5q0 57 14 124q32 148 124 271t221 194.5t266 71.5q133 0 225.5 -67.5t130.5 -182.5l49 228h100zM718 130.5q106 57.5 181 158t101 223.5
q11 50 11 104q0 98 -40.5 174t-114.5 119t-171 43q-113 0 -218 -58t-179.5 -158.5t-100.5 -223.5q-12 -55 -12 -106q0 -97 40 -173t113 -118t170 -42q114 0 220 57.5z" />
    <glyph glyph-name="guillemotleft" unicode="&#xab;" horiz-adv-x="914" 
d="M384 97l-91 -58l-280 410l449 408l70 -83l-383 -336zM795 97l-91 -58l-280 410l449 408l70 -83l-383 -336z" />
    <glyph glyph-name="logicalnot" unicode="&#xac;" horiz-adv-x="1083" 
d="M929 273h-96l70 327h-782l18 84h878z" />
    <glyph glyph-name="uni00AD" unicode="&#xad;" horiz-adv-x="797" 
d="M686 470h-593l20 94h592z" />
    <glyph glyph-name="registered" unicode="&#xae;" horiz-adv-x="787" 
d="M729.5 1490.5q53.5 -30.5 83.5 -83t30 -118.5q0 -28 -6 -60q-17 -78 -70.5 -144.5t-128.5 -105.5t-154 -39q-69 0 -122.5 30t-83.5 82t-30 117q0 23 7 60q17 79 70 146t128.5 106.5t154.5 39.5q68 0 121.5 -30.5zM807 1283q0 58 -26 104.5t-72.5 73t-106.5 26.5
q-70 0 -136 -34.5t-113 -93.5t-62 -130q-6 -27 -6 -54q0 -57 26 -103t73.5 -72t107.5 -26q68 0 134 34.5t113 93t62 127.5q6 29 6 54zM599 1383q38 0 60 -21.5t22 -56.5q0 -15 -2 -23q-8 -36 -31 -59.5t-54 -33.5l49 -116h-53l-44 108h-3h-66l-23 -108h-47l66 310h126z
M619 1326.5q-13 12.5 -34 12.5h-75l-25 -119h72q31 0 53 22.5t22 51.5q0 20 -13 32.5z" />
    <glyph glyph-name="macron" unicode="&#xaf;" horiz-adv-x="618" 
d="M666 1224h-413l18 81h413z" />
    <glyph glyph-name="degree" unicode="&#xb0;" horiz-adv-x="787" 
d="M350 912.5q-54 30.5 -84 83t-30 117.5q0 29 6 59q17 79 70.5 146t129 106t154.5 39q68 0 121 -30t83 -82.5t30 -117.5q0 -29 -6 -61q-16 -78 -69.5 -144.5t-128.5 -106t-153 -39.5q-69 0 -123 30.5zM601 989.5q55 28.5 94 77t51 105.5q5 25 5 44q0 48 -22 86.5t-61 60.5
t-89 22q-58 0 -112.5 -28.5t-93.5 -77.5t-51 -107q-5 -25 -5 -44q0 -47 22 -85t61 -60t89 -22q57 0 112 28.5z" />
    <glyph glyph-name="plusminus" unicode="&#xb1;" horiz-adv-x="1082" 
d="M521 228h-87l84 398h-392l18 85h392l84 392h86l-83 -392h395l-19 -85h-394zM882 54h-877l19 92h878z" />
    <glyph glyph-name="acute" unicode="&#xb4;" horiz-adv-x="472" 
d="M574 1474l-229 -252h-92l192 252h129z" />
    <glyph glyph-name="uni00B5" unicode="&#xb5;" horiz-adv-x="1198" 
d="M1044 1027h99l-218 -1027h-96l42 196q-45 -61 -112 -110.5t-147 -78.5t-161 -29q-99 0 -173 33.5t-116 97.5l-99 -464h-99l187 882l107 500h101l-129 -603q-13 -59 -13 -112q0 -117 66.5 -178.5t191.5 -61.5q90 0 181 44t161 123t97 177z" />
    <glyph glyph-name="paragraph" unicode="&#xb6;" horiz-adv-x="1172" 
d="M1294 1281h-170l-316 -1485h-97l316 1485h-215l-316 -1485h-95l193 904h-176q-117 0 -187 65t-70 181q0 43 10 87q21 102 80.5 177t144 115t179.5 40h736z" />
    <glyph glyph-name="periodcentered" unicode="&#xb7;" horiz-adv-x="377" 
d="M116.5 433.5q-19.5 18.5 -19.5 47.5q0 41 32 70.5t74 29.5q32 0 51.5 -18t19.5 -47q0 -41 -32.5 -71t-73.5 -30q-32 0 -51.5 18.5z" />
    <glyph glyph-name="cedilla" unicode="&#xb8;" horiz-adv-x="416" 
d="M133 7q15 -31 26 -72t11 -77q0 -18 -3 -34q-12 -58 -65 -95t-161 -49l-2 66q55 7 85 20t41.5 28.5t16.5 38.5q3 15 3 32q0 51 -33 142h81z" />
    <glyph glyph-name="ordmasculine" unicode="&#xba;" horiz-adv-x="1237" 
d="M280.5 29q-97.5 54 -151.5 149.5t-54 216.5q0 58 13 116q31 148 128.5 271.5t234 195t281.5 71.5q125 0 223 -54.5t152 -150.5t54 -217q0 -58 -13 -116q-31 -147 -128.5 -270t-234.5 -194.5t-281 -71.5q-126 0 -223.5 54zM753.5 128q110.5 58 189.5 159t106 224
q11 53 11 97q0 99 -44 177.5t-123 123t-180 44.5q-117 0 -229 -58.5t-191.5 -160t-105.5 -223.5q-11 -52 -11 -97q0 -99 44.5 -177.5t123.5 -122.5t181 -44q118 0 228.5 58z" />
    <glyph glyph-name="guillemotright" unicode="&#xbb;" horiz-adv-x="1064" 
d="M539 449l-455 -410l-63 85l382 338l-239 339l95 58zM948 449l-454 -410l-63 85l381 338l-239 339l95 58z" />
    <glyph glyph-name="questiondown" unicode="&#xbf;" horiz-adv-x="959" 
d="M721.5 1038q19.5 -17 19.5 -44q0 -39 -32.5 -67t-74.5 -28q-31 0 -50.5 17.5t-19.5 44.5q0 38 32.5 66t73.5 28q32 0 51.5 -17zM628 621q-21 -93 -97.5 -177t-182.5 -151q-84 -53 -137 -97.5t-83.5 -98t-30.5 -119.5q0 -89 71 -136.5t197 -47.5q147 0 245.5 63t126.5 188
h103q-24 -105 -87.5 -182.5t-165 -120.5t-234.5 -43q-108 0 -189.5 32.5t-126 92t-44.5 138.5q0 89 38.5 157.5t96 117t144.5 105.5q111 72 174.5 136t83.5 149l12 52h100z" />
    <glyph glyph-name="Agrave" unicode="&#xc0;" horiz-adv-x="1289" 
d="M1160 0h-108l-70 371h-726l-226 -371h-119l871 1406h104zM802 1268l-489 -803h652l-151 803l-3 17zM919 1502h-95l-155 194h133z" />
    <glyph glyph-name="Aacute" unicode="&#xc1;" horiz-adv-x="1289" 
d="M1160 0h-108l-70 371h-726l-226 -371h-119l871 1406h104zM802 1268l-489 -803h652l-151 803l-3 17zM1092 1696l-237 -194h-96l193 194h140z" />
    <glyph glyph-name="Acircumflex" unicode="&#xc2;" horiz-adv-x="1289" 
d="M1160 0h-108l-70 371h-726l-226 -371h-119l871 1406h104zM802 1268l-489 -803h652l-151 803l-3 17zM884 1609l-205 -119l-36 65l239 149h32l175 -149l-50 -65z" />
    <glyph glyph-name="Atilde" unicode="&#xc3;" horiz-adv-x="1289" 
d="M1160 0h-108l-70 371h-726l-226 -371h-119l871 1406h104zM802 1268l-489 -803h652l-151 803l-3 17zM614 1523q39 71 87 105t93 34q27 0 49 -10t55 -30q26 -17 43.5 -25.5t37.5 -8.5q27 0 48 17t49 61l63 -23q-38 -71 -86 -105t-92 -34q-28 0 -50.5 10.5t-54.5 30.5
q-27 17 -44 25t-36 8q-28 0 -49.5 -17t-48.5 -61z" />
    <glyph glyph-name="Adieresis" unicode="&#xc4;" horiz-adv-x="1289" 
d="M1160 0h-108l-70 371h-726l-226 -371h-119l871 1406h104zM802 1268l-489 -803h652l-151 803l-3 17zM642.5 1518q-16.5 16 -16.5 42q0 37 27 63.5t65 26.5q28 0 45 -15.5t17 -41.5q0 -37 -28.5 -64t-64.5 -27q-28 0 -44.5 16zM977.5 1518q-16.5 16 -16.5 42
q0 37 27.5 63.5t64.5 26.5q28 0 45 -15.5t17 -40.5q0 -38 -28 -65t-65 -27q-28 0 -44.5 16z" />
    <glyph glyph-name="Aring" unicode="&#xc5;" horiz-adv-x="1289" 
d="M1160 0h-108l-70 371h-726l-226 -371h-119l871 1406h104zM802 1268l-489 -803h652l-151 803l-3 17zM779.5 1522.5q-29.5 26.5 -29.5 71.5q0 10 4 32q12 58 56.5 94t104.5 36q52 0 81.5 -27t29.5 -72q0 -14 -3 -31q-12 -58 -57.5 -94t-105.5 -36q-51 0 -80.5 26.5z
M938 1579q27 26 27 65q0 25 -17 40t-45 15q-39 0 -65.5 -26t-26.5 -65q0 -25 16 -40t45 -15q39 0 66 26z" />
    <glyph glyph-name="AE" unicode="&#xc6;" horiz-adv-x="2216" 
d="M2289 1405l-21 -98h-865l-113 -533h712l-20 -97h-713l-123 -578h879l-20 -99h-983l78 369h-702l-361 -369h-126l1387 1405h991zM493 467h628l174 820z" />
    <glyph glyph-name="Ccedilla" unicode="&#xc7;" horiz-adv-x="1392" 
d="M1413 1212l-74 -71q-81 94 -186 141t-237 47q-186 0 -340 -100.5t-242 -263.5t-88 -341q0 -159 66.5 -284t183 -194.5t262.5 -69.5q120 0 223.5 43.5t204.5 120.5l55 -79q-227 -178 -471 -186q32 -86 32 -153q0 -24 -4 -43q-28 -126 -234 -152l-1 74q79 10 109 32.5
t36 55.5q5 23 5 44q0 54 -31 145q-158 15 -281 99t-191.5 223t-68.5 314q0 203 103 391.5t284 306t403 117.5q301 0 482 -217z" />
    <glyph glyph-name="Egrave" unicode="&#xc8;" horiz-adv-x="1290" 
d="M1079 0h-983l298 1405h969l-21 -98h-865l-113 -533h712l-20 -97h-713l-123 -578h879zM953 1502h-95l-155 194h133z" />
    <glyph glyph-name="Eacute" unicode="&#xc9;" horiz-adv-x="1290" 
d="M1079 0h-983l298 1405h969l-21 -98h-865l-113 -533h712l-20 -97h-713l-123 -578h879zM1126 1696l-237 -194h-96l193 194h140z" />
    <glyph glyph-name="Ecircumflex" unicode="&#xca;" horiz-adv-x="1290" 
d="M1079 0h-983l298 1405h969l-21 -98h-865l-113 -533h712l-20 -97h-713l-123 -578h879zM918 1609l-205 -119l-36 65l239 149h32l175 -149l-50 -65z" />
    <glyph glyph-name="Edieresis" unicode="&#xcb;" horiz-adv-x="1290" 
d="M1079 0h-983l298 1405h969l-21 -98h-865l-113 -533h712l-20 -97h-713l-123 -578h879zM676.5 1518q-16.5 16 -16.5 42q0 37 27 63.5t65 26.5q28 0 45 -15.5t17 -41.5q0 -37 -28.5 -64t-64.5 -27q-28 0 -44.5 16zM1011.5 1518q-16.5 16 -16.5 42q0 37 27.5 63.5t64.5 26.5
q28 0 45 -15.5t17 -40.5q0 -38 -28 -65t-65 -27q-28 0 -44.5 16z" />
    <glyph glyph-name="Igrave" unicode="&#xcc;" horiz-adv-x="513" 
d="M199 0h-103l298 1405h104zM529 1502h-95l-155 194h133z" />
    <glyph glyph-name="Iacute" unicode="&#xcd;" horiz-adv-x="513" 
d="M199 0h-103l298 1405h104zM702 1696l-237 -194h-96l193 194h140z" />
    <glyph glyph-name="Icircumflex" unicode="&#xce;" horiz-adv-x="513" 
d="M199 0h-103l298 1405h104zM494 1609l-205 -119l-36 65l239 149h32l175 -149l-50 -65z" />
    <glyph glyph-name="Idieresis" unicode="&#xcf;" horiz-adv-x="513" 
d="M199 0h-103l298 1405h104zM252.5 1518q-16.5 16 -16.5 42q0 37 27 63.5t65 26.5q28 0 45 -15.5t17 -41.5q0 -37 -28.5 -64t-64.5 -27q-28 0 -44.5 16zM587.5 1518q-16.5 16 -16.5 42q0 37 27.5 63.5t64.5 26.5q28 0 45 -15.5t17 -40.5q0 -38 -28 -65t-65 -27
q-28 0 -44.5 16z" />
    <glyph glyph-name="Eth" unicode="&#xd0;" horiz-adv-x="1495" 
d="M835 1405q180 0 319 -72t216.5 -198.5t77.5 -286.5q0 -210 -116 -406.5t-318.5 -319t-447.5 -122.5h-470l140 658h-169l20 94h168l139 653h441zM568 98q217 0 394 108.5t278 278.5t101 344q0 138 -61 246.5t-174.5 169.5t-265.5 61h-362l-118 -554h319l-19 -94h-320
l-119 -560h347z" />
    <glyph glyph-name="Ntilde" unicode="&#xd1;" horiz-adv-x="1569" 
d="M200 0h-104l298 1405h88l706 -1232l261 1232h104l-298 -1405h-86l-707 1234zM736 1523q39 71 87 105t93 34q27 0 49 -10t55 -30q26 -17 43.5 -25.5t37.5 -8.5q27 0 48 17t49 61l63 -23q-38 -71 -86 -105t-92 -34q-28 0 -50.5 10.5t-54.5 30.5q-27 17 -44 25t-36 8
q-28 0 -49.5 -17t-48.5 -61z" />
    <glyph glyph-name="Ograve" unicode="&#xd2;" horiz-adv-x="1610" 
d="M441.5 56q-141.5 81 -220.5 226t-79 332q0 209 102.5 397.5t283 303.5t400.5 115q181 0 322 -80.5t219.5 -225.5t78.5 -334q0 -209 -102.5 -397t-282 -303t-399.5 -115q-181 0 -322.5 81zM1115.5 175q153.5 99 240.5 261t87 342q0 163 -66.5 288t-185.5 194t-270 69
q-190 0 -344.5 -99t-242 -260.5t-87.5 -342.5q0 -162 67 -287t186.5 -194.5t271.5 -69.5q190 0 343.5 99zM1076 1519h-95l-155 194h133z" />
    <glyph glyph-name="Oacute" unicode="&#xd3;" horiz-adv-x="1610" 
d="M441.5 56q-141.5 81 -220.5 226t-79 332q0 209 102.5 397.5t283 303.5t400.5 115q181 0 322 -80.5t219.5 -225.5t78.5 -334q0 -209 -102.5 -397t-282 -303t-399.5 -115q-181 0 -322.5 81zM1115.5 175q153.5 99 240.5 261t87 342q0 163 -66.5 288t-185.5 194t-270 69
q-190 0 -344.5 -99t-242 -260.5t-87.5 -342.5q0 -162 67 -287t186.5 -194.5t271.5 -69.5q190 0 343.5 99zM1249 1713l-237 -194h-96l193 194h140z" />
    <glyph glyph-name="Ocircumflex" unicode="&#xd4;" horiz-adv-x="1610" 
d="M441.5 56q-141.5 81 -220.5 226t-79 332q0 209 102.5 397.5t283 303.5t400.5 115q181 0 322 -80.5t219.5 -225.5t78.5 -334q0 -209 -102.5 -397t-282 -303t-399.5 -115q-181 0 -322.5 81zM1115.5 175q153.5 99 240.5 261t87 342q0 163 -66.5 288t-185.5 194t-270 69
q-190 0 -344.5 -99t-242 -260.5t-87.5 -342.5q0 -162 67 -287t186.5 -194.5t271.5 -69.5q190 0 343.5 99zM1041 1626l-205 -119l-36 65l239 149h32l175 -149l-50 -65z" />
    <glyph glyph-name="Otilde" unicode="&#xd5;" horiz-adv-x="1610" 
d="M441.5 56q-141.5 81 -220.5 226t-79 332q0 209 102.5 397.5t283 303.5t400.5 115q181 0 322 -80.5t219.5 -225.5t78.5 -334q0 -209 -102.5 -397t-282 -303t-399.5 -115q-181 0 -322.5 81zM1115.5 175q153.5 99 240.5 261t87 342q0 163 -66.5 288t-185.5 194t-270 69
q-190 0 -344.5 -99t-242 -260.5t-87.5 -342.5q0 -162 67 -287t186.5 -194.5t271.5 -69.5q190 0 343.5 99zM771 1540q39 71 87 105t93 34q27 0 49 -10t55 -30q26 -17 43.5 -25.5t37.5 -8.5q27 0 48 17t49 61l63 -23q-38 -71 -86 -105t-92 -34q-28 0 -50.5 10.5t-54.5 30.5
q-27 17 -44 25t-36 8q-28 0 -49.5 -17t-48.5 -61z" />
    <glyph glyph-name="Odieresis" unicode="&#xd6;" horiz-adv-x="1610" 
d="M441.5 56q-141.5 81 -220.5 226t-79 332q0 209 102.5 397.5t283 303.5t400.5 115q181 0 322 -80.5t219.5 -225.5t78.5 -334q0 -209 -102.5 -397t-282 -303t-399.5 -115q-181 0 -322.5 81zM1115.5 175q153.5 99 240.5 261t87 342q0 163 -66.5 288t-185.5 194t-270 69
q-190 0 -344.5 -99t-242 -260.5t-87.5 -342.5q0 -162 67 -287t186.5 -194.5t271.5 -69.5q190 0 343.5 99zM799.5 1535q-16.5 16 -16.5 42q0 37 27 63.5t65 26.5q28 0 45 -15.5t17 -41.5q0 -37 -28.5 -64t-64.5 -27q-28 0 -44.5 16zM1134.5 1535q-16.5 16 -16.5 42
q0 37 27.5 63.5t64.5 26.5q28 0 45 -15.5t17 -40.5q0 -38 -28 -65t-65 -27q-28 0 -44.5 16z" />
    <glyph glyph-name="multiply" unicode="&#xd7;" horiz-adv-x="953" 
d="M499 587l-371 -305l-60 72l372 307l-233 296l77 57l233 -295l370 309l58 -72l-370 -310l237 -303l-76 -58z" />
    <glyph glyph-name="Oslash" unicode="&#xd8;" horiz-adv-x="1610" 
d="M1369 1260q86 -86 132.5 -206t46.5 -264q0 -209 -102.5 -397t-282 -303t-399.5 -115q-108 0 -203.5 30t-173.5 86l-146 -174h-127l200 238q-83 85 -127.5 202.5t-44.5 256.5q0 209 102.5 397.5t283 303.5t400.5 115q105 0 198 -28t169 -81l143 170h125zM283 411
q36 -99 102 -172l840 999q-63 45 -140 68t-164 23q-190 0 -344.5 -99t-242 -260.5t-87.5 -342.5q0 -117 36 -216zM1115.5 175q153.5 99 240.5 261t87 342q0 121 -37.5 222.5t-107.5 175.5l-841 -1002q64 -48 144 -73t171 -25q190 0 343.5 99z" />
    <glyph glyph-name="Ugrave" unicode="&#xd9;" horiz-adv-x="1462" 
d="M369 30q-103 55 -155 155.5t-52 236.5q0 82 20 179l172 805h104l-171 -801q-20 -94 -20 -173q0 -168 89.5 -263t266.5 -95q148 0 270.5 66.5t204.5 186.5t116 278l170 801h104l-172 -806q-39 -185 -134.5 -326t-239 -220t-321.5 -79q-149 0 -252 55zM987 1502h-95
l-155 194h133z" />
    <glyph glyph-name="Uacute" unicode="&#xda;" horiz-adv-x="1462" 
d="M369 30q-103 55 -155 155.5t-52 236.5q0 82 20 179l172 805h104l-171 -801q-20 -94 -20 -173q0 -168 89.5 -263t266.5 -95q148 0 270.5 66.5t204.5 186.5t116 278l170 801h104l-172 -806q-39 -185 -134.5 -326t-239 -220t-321.5 -79q-149 0 -252 55zM1160 1696l-237 -194
h-96l193 194h140z" />
    <glyph glyph-name="Ucircumflex" unicode="&#xdb;" horiz-adv-x="1462" 
d="M369 30q-103 55 -155 155.5t-52 236.5q0 82 20 179l172 805h104l-171 -801q-20 -94 -20 -173q0 -168 89.5 -263t266.5 -95q148 0 270.5 66.5t204.5 186.5t116 278l170 801h104l-172 -806q-39 -185 -134.5 -326t-239 -220t-321.5 -79q-149 0 -252 55zM952 1609l-205 -119
l-36 65l239 149h32l175 -149l-50 -65z" />
    <glyph glyph-name="Udieresis" unicode="&#xdc;" horiz-adv-x="1462" 
d="M369 30q-103 55 -155 155.5t-52 236.5q0 82 20 179l172 805h104l-171 -801q-20 -94 -20 -173q0 -168 89.5 -263t266.5 -95q148 0 270.5 66.5t204.5 186.5t116 278l170 801h104l-172 -806q-39 -185 -134.5 -326t-239 -220t-321.5 -79q-149 0 -252 55zM710.5 1518
q-16.5 16 -16.5 42q0 37 27 63.5t65 26.5q28 0 45 -15.5t17 -41.5q0 -37 -28.5 -64t-64.5 -27q-28 0 -44.5 16zM1045.5 1518q-16.5 16 -16.5 42q0 37 27.5 63.5t64.5 26.5q28 0 45 -15.5t17 -40.5q0 -38 -28 -65t-65 -27q-28 0 -44.5 16z" />
    <glyph glyph-name="Yacute" unicode="&#xdd;" horiz-adv-x="1105" 
d="M496 0h-104l131 614l-314 791h112l268 -690l555 690h131l-648 -790zM1002 1696l-237 -194h-96l193 194h140z" />
    <glyph glyph-name="Thorn" unicode="&#xde;" horiz-adv-x="1185" 
d="M762 1150q111 0 195.5 -43t131 -121t46.5 -180q0 -45 -11 -98q-27 -128 -108.5 -228.5t-196.5 -156.5t-242 -56h-320l-57 -267h-104l298 1405h105l-54 -255h317zM1029 780q0 80 -37.5 141.5t-105.5 95t-155 33.5h-308l-145 -684h310q100 0 191.5 43.5t155.5 121t86 176.5
q8 40 8 73z" />
    <glyph glyph-name="germandbls" unicode="&#xdf;" horiz-adv-x="1228" 
d="M291 1104q25 120 93.5 213t173.5 145.5t235 52.5q114 0 202 -42t136 -114.5t48 -161.5q0 -93 -40 -176t-111.5 -142t-164.5 -82q75 -16 134 -56.5t93.5 -104t34.5 -144.5q0 -117 -67 -231t-199 -187.5t-316 -73.5h-154l20 94h137q136 0 245.5 55t171 146t61.5 196
q0 77 -39.5 135.5t-111 90.5t-164.5 32h-33l19 90h24q88 0 170.5 44t134.5 122t52 176q0 71 -33.5 125.5t-97 85t-150.5 30.5q-100 0 -185.5 -42t-143 -115.5t-76.5 -165.5l-234 -1099h-100z" />
    <glyph glyph-name="agrave" unicode="&#xe0;" horiz-adv-x="1274" 
d="M1217 1027l-89 -420l-129 -607h-98l42 196q-77 -101 -182 -161t-229 -60q-122 0 -223.5 60.5t-161 169t-59.5 243.5q0 149 73 288t202.5 225.5t290.5 86.5q145 0 254 -77t153 -209l3 17l53 248h100zM793.5 149.5q107.5 77.5 166.5 195t59 229.5q0 114 -48.5 199.5
t-131.5 131.5t-185 46q-134 0 -241 -71t-167 -186t-60 -241q0 -111 49.5 -197.5t133 -135t181.5 -48.5q136 0 243.5 77.5zM868 1213h-82l-122 252h117z" />
    <glyph glyph-name="aacute" unicode="&#xe1;" horiz-adv-x="1274" 
d="M1217 1027l-89 -420l-129 -607h-98l42 196q-77 -101 -182 -161t-229 -60q-122 0 -223.5 60.5t-161 169t-59.5 243.5q0 149 73 288t202.5 225.5t290.5 86.5q145 0 254 -77t153 -209l3 17l53 248h100zM793.5 149.5q107.5 77.5 166.5 195t59 229.5q0 114 -48.5 199.5
t-131.5 131.5t-185 46q-134 0 -241 -71t-167 -186t-60 -241q0 -111 49.5 -197.5t133 -135t181.5 -48.5q136 0 243.5 77.5zM1050 1465l-229 -252h-92l192 252h129z" />
    <glyph glyph-name="acircumflex" unicode="&#xe2;" horiz-adv-x="1274" 
d="M1217 1027l-89 -420l-129 -607h-98l42 196q-77 -101 -182 -161t-229 -60q-122 0 -223.5 60.5t-161 169t-59.5 243.5q0 149 73 288t202.5 225.5t290.5 86.5q145 0 254 -77t153 -209l3 17l53 248h100zM793.5 149.5q107.5 77.5 166.5 195t59 229.5q0 114 -48.5 199.5
t-131.5 131.5t-185 46q-134 0 -241 -71t-167 -186t-60 -241q0 -111 49.5 -197.5t133 -135t181.5 -48.5q136 0 243.5 77.5zM805 1351l-220 -146l-46 60l257 181h44l180 -181l-56 -60z" />
    <glyph glyph-name="atilde" unicode="&#xe3;" horiz-adv-x="1274" 
d="M1217 1027l-89 -420l-129 -607h-98l42 196q-77 -101 -182 -161t-229 -60q-122 0 -223.5 60.5t-161 169t-59.5 243.5q0 149 73 288t202.5 225.5t290.5 86.5q145 0 254 -77t153 -209l3 17l53 248h100zM793.5 149.5q107.5 77.5 166.5 195t59 229.5q0 114 -48.5 199.5
t-131.5 131.5t-185 46q-134 0 -241 -71t-167 -186t-60 -241q0 -111 49.5 -197.5t133 -135t181.5 -48.5q136 0 243.5 77.5zM521 1228q39 71 87 105t93 34q27 0 49 -10t55 -30q26 -17 43.5 -25.5t37.5 -8.5q27 0 48 17t49 61l63 -23q-38 -71 -86 -105t-92 -34
q-28 0 -50.5 10.5t-54.5 30.5q-27 17 -44 25t-36 8q-28 0 -49.5 -17t-48.5 -61z" />
    <glyph glyph-name="adieresis" unicode="&#xe4;" horiz-adv-x="1274" 
d="M1217 1027l-89 -420l-129 -607h-98l42 196q-77 -101 -182 -161t-229 -60q-122 0 -223.5 60.5t-161 169t-59.5 243.5q0 149 73 288t202.5 225.5t290.5 86.5q145 0 254 -77t153 -209l3 17l53 248h100zM793.5 149.5q107.5 77.5 166.5 195t59 229.5q0 114 -48.5 199.5
t-131.5 131.5t-185 46q-134 0 -241 -71t-167 -186t-60 -241q0 -111 49.5 -197.5t133 -135t181.5 -48.5q136 0 243.5 77.5zM554.5 1227q-16.5 16 -16.5 42q0 37 27 63.5t65 26.5q28 0 45 -15.5t17 -41.5q0 -37 -28.5 -64t-64.5 -27q-28 0 -44.5 16zM889.5 1227
q-16.5 16 -16.5 42q0 37 27.5 63.5t64.5 26.5q28 0 45 -15.5t17 -40.5q0 -38 -28 -65t-65 -27q-28 0 -44.5 16z" />
    <glyph glyph-name="aring" unicode="&#xe5;" horiz-adv-x="1274" 
d="M1217 1027l-89 -420l-129 -607h-98l42 196q-77 -101 -182 -161t-229 -60q-122 0 -223.5 60.5t-161 169t-59.5 243.5q0 149 73 288t202.5 225.5t290.5 86.5q145 0 254 -77t153 -209l3 17l53 248h100zM793.5 149.5q107.5 77.5 166.5 195t59 229.5q0 114 -48.5 199.5
t-131.5 131.5t-185 46q-134 0 -241 -71t-167 -186t-60 -241q0 -111 49.5 -197.5t133 -135t181.5 -48.5q136 0 243.5 77.5zM682 1234.5q-30 27.5 -30 73.5q0 10 4 32q13 58 58.5 95t105.5 37q52 0 82.5 -27.5t30.5 -72.5q0 -10 -4 -32q-12 -59 -58 -96t-107 -37
q-52 0 -82 27.5zM836 1286q25 21 33 54q2 12 2 18q0 26 -16.5 41t-46.5 15q-34 0 -59 -20.5t-33 -53.5q-2 -12 -2 -18q0 -26 16.5 -41.5t46.5 -15.5q34 0 59 21z" />
    <glyph glyph-name="ae" unicode="&#xe6;" horiz-adv-x="2093" 
d="M1822.5 998.5q93.5 -51.5 145 -142t51.5 -202.5q0 -85 -24 -181h-859q-1 -11 -1 -32q0 -111 51 -195.5t137 -130.5t188 -46q76 0 163 26.5t158 83.5l44 -74q-80 -66 -182 -98t-188 -32q-148 0 -264 73.5t-169 198.5l-65 -247h-64l41 250q-91 -125 -223 -199.5t-275 -74.5
q-119 0 -213 53.5t-146.5 148.5t-52.5 215q0 59 13 118q31 147 127 270.5t229 195.5t270 72q143 0 243.5 -76t138.5 -202l69 256h61l-27 -169q78 90 183 141t228 51q119 0 212.5 -51.5zM742 127q110 58 189.5 159.5t105.5 224.5q11 53 11 97q0 100 -44 179t-122 123.5
t-177 44.5q-114 0 -224 -59t-189 -161t-105 -224q-11 -53 -11 -99q0 -99 43.5 -177t121.5 -122t176 -44q115 0 225 58zM1918 565q4 29 4 69q0 96 -39.5 168.5t-111.5 112.5t-165 40q-114 0 -209 -52.5t-158.5 -141.5t-88.5 -196h768z" />
    <glyph glyph-name="ccedilla" unicode="&#xe7;" horiz-adv-x="1110" 
d="M919.5 1008q93.5 -42 157.5 -118l-69 -69q-114 133 -311 133q-151 0 -268 -74t-180.5 -192.5t-63.5 -246.5q0 -108 53 -192.5t143 -131.5t196 -47q77 0 158 26t154 83l46 -73q-84 -67 -180 -99t-182 -33q25 -64 25 -120q0 -18 -3 -34q-12 -58 -65 -95t-161 -49l-2 66
q55 7 85 20t41.5 28.5t16.5 38.5q3 15 3 32q0 49 -25 119q-116 17 -207.5 79.5t-143.5 159.5t-52 215q0 154 78 296.5t219 231t320 88.5q124 0 217.5 -42z" />
    <glyph glyph-name="egrave" unicode="&#xe8;" horiz-adv-x="1142" 
d="M871.5 998.5q93.5 -51.5 145 -142t51.5 -202.5q0 -85 -24 -181h-859q-1 -11 -1 -32q0 -111 51 -195.5t137 -130.5t188 -46q76 0 163 26.5t158 83.5l44 -74q-80 -66 -182 -98t-188 -32q-132 0 -239.5 59t-169 164t-61.5 238q0 150 73.5 292.5t205 232t295.5 89.5
q119 0 212.5 -51.5zM967 565q4 29 4 69q0 96 -39.5 168.5t-111.5 112.5t-165 40q-114 0 -209 -52.5t-158.5 -141.5t-88.5 -196h768zM824 1215h-82l-122 252h117z" />
    <glyph glyph-name="eacute" unicode="&#xe9;" horiz-adv-x="1142" 
d="M871.5 998.5q93.5 -51.5 145 -142t51.5 -202.5q0 -85 -24 -181h-859q-1 -11 -1 -32q0 -111 51 -195.5t137 -130.5t188 -46q76 0 163 26.5t158 83.5l44 -74q-80 -66 -182 -98t-188 -32q-132 0 -239.5 59t-169 164t-61.5 238q0 150 73.5 292.5t205 232t295.5 89.5
q119 0 212.5 -51.5zM967 565q4 29 4 69q0 96 -39.5 168.5t-111.5 112.5t-165 40q-114 0 -209 -52.5t-158.5 -141.5t-88.5 -196h768zM1006 1467l-229 -252h-92l192 252h129z" />
    <glyph glyph-name="ecircumflex" unicode="&#xea;" horiz-adv-x="1142" 
d="M871.5 998.5q93.5 -51.5 145 -142t51.5 -202.5q0 -85 -24 -181h-859q-1 -11 -1 -32q0 -111 51 -195.5t137 -130.5t188 -46q76 0 163 26.5t158 83.5l44 -74q-80 -66 -182 -98t-188 -32q-132 0 -239.5 59t-169 164t-61.5 238q0 150 73.5 292.5t205 232t295.5 89.5
q119 0 212.5 -51.5zM967 565q4 29 4 69q0 96 -39.5 168.5t-111.5 112.5t-165 40q-114 0 -209 -52.5t-158.5 -141.5t-88.5 -196h768zM761 1353l-220 -146l-46 60l257 181h44l180 -181l-56 -60z" />
    <glyph glyph-name="edieresis" unicode="&#xeb;" horiz-adv-x="1142" 
d="M871.5 998.5q93.5 -51.5 145 -142t51.5 -202.5q0 -85 -24 -181h-859q-1 -11 -1 -32q0 -111 51 -195.5t137 -130.5t188 -46q76 0 163 26.5t158 83.5l44 -74q-80 -66 -182 -98t-188 -32q-132 0 -239.5 59t-169 164t-61.5 238q0 150 73.5 292.5t205 232t295.5 89.5
q119 0 212.5 -51.5zM967 565q4 29 4 69q0 96 -39.5 168.5t-111.5 112.5t-165 40q-114 0 -209 -52.5t-158.5 -141.5t-88.5 -196h768zM509.5 1229q-16.5 16 -16.5 42q0 37 27 63.5t65 26.5q28 0 45 -15.5t17 -41.5q0 -37 -28.5 -64t-64.5 -27q-28 0 -44.5 16zM844.5 1229
q-16.5 16 -16.5 42q0 37 27.5 63.5t64.5 26.5q28 0 45 -15.5t17 -40.5q0 -38 -28 -65t-65 -27q-28 0 -44.5 16z" />
    <glyph glyph-name="igrave" unicode="&#xec;" horiz-adv-x="430" 
d="M155 0h-99l219 1027h99zM463 1215h-82l-122 252h117z" />
    <glyph glyph-name="iacute" unicode="&#xed;" horiz-adv-x="430" 
d="M155 0h-99l219 1027h99zM645 1467l-229 -252h-92l192 252h129z" />
    <glyph glyph-name="icircumflex" unicode="&#xee;" horiz-adv-x="430" 
d="M155 0h-99l219 1027h99zM400 1353l-220 -146l-46 60l257 181h44l180 -181l-56 -60z" />
    <glyph glyph-name="idieresis" unicode="&#xef;" horiz-adv-x="430" 
d="M155 0h-99l219 1027h99zM149.5 1229q-16.5 16 -16.5 42q0 37 27 63.5t65 26.5q28 0 45 -15.5t17 -41.5q0 -37 -28.5 -64t-64.5 -27q-28 0 -44.5 16zM484.5 1229q-16.5 16 -16.5 42q0 37 27.5 63.5t64.5 26.5q28 0 45 -15.5t17 -40.5q0 -38 -28 -65t-65 -27
q-28 0 -44.5 16z" />
    <glyph glyph-name="eth" unicode="&#xf0;" horiz-adv-x="1162" 
d="M1146 1417l-184 -97q141 -239 141 -557q0 -196 -70.5 -377t-212 -296t-342.5 -115q-119 0 -212 51t-144.5 142.5t-51.5 208.5q0 141 79 274.5t215.5 217.5t298.5 84q197 0 333 -122q-17 246 -130 439l-184 -97l-25 55l178 92q-49 73 -117 144l93 56q69 -74 120 -150
l193 101zM769.5 166.5q111.5 96.5 168 245t61.5 306.5q-67 65 -145.5 105t-194.5 40q-133 0 -244.5 -71.5t-176 -183.5t-64.5 -225q0 -92 41 -163.5t115 -110.5t169 -39q159 0 270.5 96.5z" />
    <glyph glyph-name="ntilde" unicode="&#xf1;" horiz-adv-x="1200" 
d="M996 968.5q90 -81.5 90 -230.5q0 -54 -14 -122l-131 -616h-100l128 603q13 59 13 113q0 117 -66 178.5t-191 61.5q-93 0 -187.5 -47.5t-164.5 -131.5t-92 -188v2l-125 -591h-100l219 1027h96l-42 -196q45 61 112 111t147 79t161 29q157 0 247 -81.5zM531 1235
q39 71 87 105t93 34q27 0 49 -10t55 -30q26 -17 43.5 -25.5t37.5 -8.5q27 0 48 17t49 61l63 -23q-38 -71 -86 -105t-92 -34q-28 0 -50.5 10.5t-54.5 30.5q-27 17 -44 25t-36 8q-28 0 -49.5 -17t-48.5 -61z" />
    <glyph glyph-name="ograve" unicode="&#xf2;" horiz-adv-x="1254" 
d="M320 33q-109 59 -172 164t-63 237q0 153 76.5 295.5t215 231t313.5 88.5q134 0 243 -59t172 -163.5t63 -236.5q0 -153 -77 -295.5t-215.5 -231.5t-313.5 -89q-133 0 -242 59zM829 145q114 74 176 192t62 246q0 108 -51.5 192.5t-139 131t-191.5 46.5q-148 0 -262 -74
t-175.5 -192.5t-61.5 -246.5q0 -108 51 -192t138 -130.5t192 -46.5q148 0 262 74zM869 1216h-82l-122 252h117z" />
    <glyph glyph-name="oacute" unicode="&#xf3;" horiz-adv-x="1254" 
d="M320 33q-109 59 -172 164t-63 237q0 153 76.5 295.5t215 231t313.5 88.5q134 0 243 -59t172 -163.5t63 -236.5q0 -153 -77 -295.5t-215.5 -231.5t-313.5 -89q-133 0 -242 59zM829 145q114 74 176 192t62 246q0 108 -51.5 192.5t-139 131t-191.5 46.5q-148 0 -262 -74
t-175.5 -192.5t-61.5 -246.5q0 -108 51 -192t138 -130.5t192 -46.5q148 0 262 74zM1051 1468l-229 -252h-92l192 252h129z" />
    <glyph glyph-name="ocircumflex" unicode="&#xf4;" horiz-adv-x="1254" 
d="M320 33q-109 59 -172 164t-63 237q0 153 76.5 295.5t215 231t313.5 88.5q134 0 243 -59t172 -163.5t63 -236.5q0 -153 -77 -295.5t-215.5 -231.5t-313.5 -89q-133 0 -242 59zM829 145q114 74 176 192t62 246q0 108 -51.5 192.5t-139 131t-191.5 46.5q-148 0 -262 -74
t-175.5 -192.5t-61.5 -246.5q0 -108 51 -192t138 -130.5t192 -46.5q148 0 262 74zM806 1354l-220 -146l-46 60l257 181h44l180 -181l-56 -60z" />
    <glyph glyph-name="otilde" unicode="&#xf5;" horiz-adv-x="1254" 
d="M320 33q-109 59 -172 164t-63 237q0 153 76.5 295.5t215 231t313.5 88.5q134 0 243 -59t172 -163.5t63 -236.5q0 -153 -77 -295.5t-215.5 -231.5t-313.5 -89q-133 0 -242 59zM829 145q114 74 176 192t62 246q0 108 -51.5 192.5t-139 131t-191.5 46.5q-148 0 -262 -74
t-175.5 -192.5t-61.5 -246.5q0 -108 51 -192t138 -130.5t192 -46.5q148 0 262 74zM522 1231q39 71 87 105t93 34q27 0 49 -10t55 -30q26 -17 43.5 -25.5t37.5 -8.5q27 0 48 17t49 61l63 -23q-38 -71 -86 -105t-92 -34q-28 0 -50.5 10.5t-54.5 30.5q-27 17 -44 25t-36 8
q-28 0 -49.5 -17t-48.5 -61z" />
    <glyph glyph-name="odieresis" unicode="&#xf6;" horiz-adv-x="1254" 
d="M320 33q-109 59 -172 164t-63 237q0 153 76.5 295.5t215 231t313.5 88.5q134 0 243 -59t172 -163.5t63 -236.5q0 -153 -77 -295.5t-215.5 -231.5t-313.5 -89q-133 0 -242 59zM829 145q114 74 176 192t62 246q0 108 -51.5 192.5t-139 131t-191.5 46.5q-148 0 -262 -74
t-175.5 -192.5t-61.5 -246.5q0 -108 51 -192t138 -130.5t192 -46.5q148 0 262 74zM555.5 1230q-16.5 16 -16.5 42q0 37 27 63.5t65 26.5q28 0 45 -15.5t17 -41.5q0 -37 -28.5 -64t-64.5 -27q-28 0 -44.5 16zM890.5 1230q-16.5 16 -16.5 42q0 37 27.5 63.5t64.5 26.5
q28 0 45 -15.5t17 -40.5q0 -38 -28 -65t-65 -27q-28 0 -44.5 16z" />
    <glyph glyph-name="divide" unicode="&#xf7;" horiz-adv-x="1155" 
d="M632.5 1010.5q-18.5 17.5 -18.5 43.5q0 37 30 66t69 29q30 0 48 -18t18 -45q0 -38 -29.5 -65.5t-70.5 -27.5q-28 0 -46.5 17.5zM1078 633h-950l22 103h950zM466.5 232.5q-17.5 16.5 -17.5 42.5q0 38 30 67.5t69 29.5q30 0 48 -18t18 -45q0 -38 -30 -65.5t-70 -27.5
q-30 0 -47.5 16.5z" />
    <glyph glyph-name="oslash" unicode="&#xf8;" horiz-adv-x="1254" 
d="M1247 1062l-183 -178q50 -60 77 -134.5t27 -159.5q0 -153 -77 -295.5t-215.5 -231.5t-313.5 -89q-92 0 -174 29t-146 83l-127 -124h-108l182 177q-50 60 -77 135t-27 160q0 153 76.5 295.5t215 231t313.5 88.5q92 0 174 -29t146 -82l128 124h109zM263 211l674 655
q-51 42 -115.5 64.5t-136.5 22.5q-148 0 -262 -74t-175.5 -192.5t-61.5 -246.5q0 -131 77 -229zM1047 707.5q-20 58.5 -57 104.5l-674 -655q51 -42 115 -64t136 -22q148 0 262 74t176 192t62 246q0 66 -20 124.5z" />
    <glyph glyph-name="ugrave" unicode="&#xf9;" horiz-adv-x="1200" 
d="M1044 1027h99l-218 -1027h-96l42 196q-45 -61 -112 -110.5t-147 -78.5t-161 -29q-157 0 -247.5 81.5t-90.5 231.5q0 54 14 121l131 615h101l-129 -603q-13 -59 -13 -112q0 -117 66.5 -178.5t191.5 -61.5q90 0 181 44t161 123t97 177zM843 1215h-82l-122 252h117z" />
    <glyph glyph-name="uacute" unicode="&#xfa;" horiz-adv-x="1200" 
d="M1044 1027h99l-218 -1027h-96l42 196q-45 -61 -112 -110.5t-147 -78.5t-161 -29q-157 0 -247.5 81.5t-90.5 231.5q0 54 14 121l131 615h101l-129 -603q-13 -59 -13 -112q0 -117 66.5 -178.5t191.5 -61.5q90 0 181 44t161 123t97 177zM1025 1467l-229 -252h-92l192 252
h129z" />
    <glyph glyph-name="ucircumflex" unicode="&#xfb;" horiz-adv-x="1200" 
d="M1044 1027h99l-218 -1027h-96l42 196q-45 -61 -112 -110.5t-147 -78.5t-161 -29q-157 0 -247.5 81.5t-90.5 231.5q0 54 14 121l131 615h101l-129 -603q-13 -59 -13 -112q0 -117 66.5 -178.5t191.5 -61.5q90 0 181 44t161 123t97 177zM780 1353l-220 -146l-46 60l257 181
h44l180 -181l-56 -60z" />
    <glyph glyph-name="udieresis" unicode="&#xfc;" horiz-adv-x="1200" 
d="M1044 1027h99l-218 -1027h-96l42 196q-45 -61 -112 -110.5t-147 -78.5t-161 -29q-157 0 -247.5 81.5t-90.5 231.5q0 54 14 121l131 615h101l-129 -603q-13 -59 -13 -112q0 -117 66.5 -178.5t191.5 -61.5q90 0 181 44t161 123t97 177zM529.5 1229q-16.5 16 -16.5 42
q0 37 27 63.5t65 26.5q28 0 45 -15.5t17 -41.5q0 -37 -28.5 -64t-64.5 -27q-28 0 -44.5 16zM864.5 1229q-16.5 16 -16.5 42q0 37 27.5 63.5t64.5 26.5q28 0 45 -15.5t17 -40.5q0 -38 -28 -65t-65 -27q-28 0 -44.5 16z" />
    <glyph glyph-name="yacute" unicode="&#xfd;" horiz-adv-x="1010" 
d="M226 -355h-110l225 355l-205 1027h105l176 -908l563 908h112zM933 1467l-229 -252h-92l192 252h129z" />
    <glyph glyph-name="thorn" unicode="&#xfe;" horiz-adv-x="1260" 
d="M995.5 996q90.5 -53 140 -147t49.5 -213q0 -57 -14 -124q-32 -148 -124 -270.5t-221 -193.5t-266 -71q-133 0 -225 67.5t-131 182.5l-123 -582h-100l76 355h-1l129 607l1 1l180 846h99l-140 -656q88 115 209 183t254 68q117 0 207.5 -53zM1084 618q0 97 -40 173
t-113 118.5t-169 42.5q-114 0 -220 -58t-181.5 -158.5t-101.5 -223.5q-11 -49 -11 -104q0 -98 40.5 -174t115 -118.5t172.5 -42.5q113 0 217.5 57.5t178.5 157.5t100 224q12 56 12 106z" />
    <glyph glyph-name="ydieresis" unicode="&#xff;" horiz-adv-x="1010" 
d="M226 -355h-110l225 355l-205 1027h105l176 -908l563 908h112zM436.5 1229q-16.5 16 -16.5 42q0 37 27 63.5t65 26.5q28 0 45 -15.5t17 -41.5q0 -37 -28.5 -64t-64.5 -27q-28 0 -44.5 16zM771.5 1229q-16.5 16 -16.5 42q0 37 27.5 63.5t64.5 26.5q28 0 45 -15.5t17 -40.5
q0 -38 -28 -65t-65 -27q-28 0 -44.5 16z" />
    <glyph glyph-name="Amacron" unicode="&#x100;" horiz-adv-x="1289" 
d="M1160 0h-108l-70 371h-726l-226 -371h-119l871 1406h104zM802 1268l-489 -803h652l-151 803l-3 17zM1062 1506h-413l18 81h413z" />
    <glyph glyph-name="amacron" unicode="&#x101;" horiz-adv-x="1274" 
d="M1217 1027l-89 -420l-129 -607h-98l42 196q-77 -101 -182 -161t-229 -60q-122 0 -223.5 60.5t-161 169t-59.5 243.5q0 149 73 288t202.5 225.5t290.5 86.5q145 0 254 -77t153 -209l3 17l53 248h100zM793.5 149.5q107.5 77.5 166.5 195t59 229.5q0 114 -48.5 199.5
t-131.5 131.5t-185 46q-134 0 -241 -71t-167 -186t-60 -241q0 -111 49.5 -197.5t133 -135t181.5 -48.5q136 0 243.5 77.5zM974 1217h-413l18 81h413z" />
    <glyph glyph-name="Abreve" unicode="&#x102;" horiz-adv-x="1289" 
d="M1160 0h-108l-70 371h-726l-226 -371h-119l871 1406h104zM802 1268l-489 -803h652l-151 803l-3 17zM724 1538q-44 44 -44 115q0 25 4 45h85q-5 -23 -5 -40q0 -41 24.5 -64t77.5 -23q67 0 104 34.5t48 92.5h93q-21 -88 -89 -146t-168 -58q-86 0 -130 44z" />
    <glyph glyph-name="abreve" unicode="&#x103;" horiz-adv-x="1274" 
d="M1217 1027l-89 -420l-129 -607h-98l42 196q-77 -101 -182 -161t-229 -60q-122 0 -223.5 60.5t-161 169t-59.5 243.5q0 149 73 288t202.5 225.5t290.5 86.5q145 0 254 -77t153 -209l3 17l53 248h100zM793.5 149.5q107.5 77.5 166.5 195t59 229.5q0 114 -48.5 199.5
t-131.5 131.5t-185 46q-134 0 -241 -71t-167 -186t-60 -241q0 -111 49.5 -197.5t133 -135t181.5 -48.5q136 0 243.5 77.5zM632.5 1253.5q-47.5 46.5 -47.5 123.5q0 20 5 50h85q-5 -27 -5 -44q0 -48 27 -73.5t80 -25.5q62 0 106 38t57 105h92q-23 -98 -95 -159t-172 -61
q-85 0 -132.5 46.5z" />
    <glyph glyph-name="Aogonek" unicode="&#x104;" horiz-adv-x="1289" 
d="M1160 0h-108l-70 371h-726l-226 -371h-119l871 1406h104zM802 1268l-489 -803h652l-151 803l-3 17zM933 -310.5q-33 28.5 -33 74.5q0 36 22 79t62.5 84.5t92.5 72.5h83q-83 -57 -124.5 -111.5t-41.5 -95.5q0 -25 18.5 -41.5t57.5 -16.5q26 0 60 7l-10 -68
q-25 -8 -43.5 -10.5t-42.5 -2.5q-68 0 -101 28.5z" />
    <glyph glyph-name="aogonek" unicode="&#x105;" horiz-adv-x="1274" 
d="M1217 1027l-89 -420l-129 -607h-6q-74 -49 -118 -103t-44 -95q0 -25 18 -41.5t56 -16.5q23 0 59 6l-8 -61q-25 -8 -43.5 -10.5t-42.5 -2.5q-62 0 -94 27.5t-32 71.5q0 13 3 27q11 51 62.5 107t107.5 91h-16l42 196q-77 -101 -182 -161t-229 -60q-122 0 -223.5 60.5
t-161 169t-59.5 243.5q0 149 73 288t202.5 225.5t290.5 86.5q145 0 254 -77t153 -209l3 17l53 248h100zM793.5 149.5q107.5 77.5 166.5 195t59 229.5q0 114 -48.5 199.5t-131.5 131.5t-185 46q-134 0 -241 -71t-167 -186t-60 -241q0 -111 49.5 -197.5t133 -135t181.5 -48.5
q136 0 243.5 77.5z" />
    <glyph glyph-name="Cacute" unicode="&#x106;" horiz-adv-x="1392" 
d="M435.5 56q-138.5 81 -216.5 226t-78 332q0 203 103 391.5t284 306t403 117.5q301 0 482 -217l-74 -71q-81 94 -186 141t-237 47q-186 0 -340 -100.5t-242 -263.5t-88 -341q0 -159 66.5 -284t183 -194.5t262.5 -69.5q120 0 223.5 43.5t204.5 120.5l55 -79
q-237 -186 -492 -186q-175 0 -313.5 81zM1196 1700l-237 -194h-96l193 194h140z" />
    <glyph glyph-name="cacute" unicode="&#x107;" horiz-adv-x="1110" 
d="M324.5 33q-111.5 59 -175.5 164t-64 237q0 154 78 296.5t219 231t320 88.5q124 0 217.5 -42t157.5 -118l-69 -69q-114 133 -311 133q-151 0 -268 -74t-180.5 -192.5t-63.5 -246.5q0 -108 53 -192.5t143 -131.5t196 -47q77 0 158 26t154 83l46 -73q-85 -68 -181.5 -100
t-182.5 -32q-135 0 -246.5 59zM1041 1463l-229 -252h-92l192 252h129z" />
    <glyph glyph-name="Ccircumflex" unicode="&#x108;" horiz-adv-x="1392" 
d="M435.5 56q-138.5 81 -216.5 226t-78 332q0 203 103 391.5t284 306t403 117.5q301 0 482 -217l-74 -71q-81 94 -186 141t-237 47q-186 0 -340 -100.5t-242 -263.5t-88 -341q0 -159 66.5 -284t183 -194.5t262.5 -69.5q120 0 223.5 43.5t204.5 120.5l55 -79
q-237 -186 -492 -186q-175 0 -313.5 81zM988 1613l-205 -119l-36 65l239 149h32l175 -149l-50 -65z" />
    <glyph glyph-name="ccircumflex" unicode="&#x109;" horiz-adv-x="1110" 
d="M324.5 33q-111.5 59 -175.5 164t-64 237q0 154 78 296.5t219 231t320 88.5q124 0 217.5 -42t157.5 -118l-69 -69q-114 133 -311 133q-151 0 -268 -74t-180.5 -192.5t-63.5 -246.5q0 -108 53 -192.5t143 -131.5t196 -47q77 0 158 26t154 83l46 -73q-85 -68 -181.5 -100
t-182.5 -32q-135 0 -246.5 59zM796 1349l-220 -146l-46 60l257 181h44l180 -181l-56 -60z" />
    <glyph glyph-name="Cdotaccent" unicode="&#x10a;" horiz-adv-x="1392" 
d="M435.5 56q-138.5 81 -216.5 226t-78 332q0 203 103 391.5t284 306t403 117.5q301 0 482 -217l-74 -71q-81 94 -186 141t-237 47q-186 0 -340 -100.5t-242 -263.5t-88 -341q0 -159 66.5 -284t183 -194.5t262.5 -69.5q120 0 223.5 43.5t204.5 120.5l55 -79
q-237 -186 -492 -186q-175 0 -313.5 81zM912.5 1521q-17.5 17 -17.5 44q0 39 28.5 66t67.5 27q28 0 46 -16.5t18 -42.5q0 -39 -29.5 -67t-66.5 -28q-29 0 -46.5 17z" />
    <glyph glyph-name="cdotaccent" unicode="&#x10b;" horiz-adv-x="1110" 
d="M324.5 33q-111.5 59 -175.5 164t-64 237q0 154 78 296.5t219 231t320 88.5q124 0 217.5 -42t157.5 -118l-69 -69q-114 133 -311 133q-151 0 -268 -74t-180.5 -192.5t-63.5 -246.5q0 -108 53 -192.5t143 -131.5t196 -47q77 0 158 26t154 83l46 -73q-85 -68 -181.5 -100
t-182.5 -32q-135 0 -246.5 59zM710.5 1223q-17.5 17 -17.5 44q0 39 28.5 66t67.5 27q28 0 46 -16.5t18 -42.5q0 -39 -29.5 -67t-66.5 -28q-29 0 -46.5 17z" />
    <glyph glyph-name="Ccaron" unicode="&#x10c;" horiz-adv-x="1392" 
d="M435.5 56q-138.5 81 -216.5 226t-78 332q0 203 103 391.5t284 306t403 117.5q301 0 482 -217l-74 -71q-81 94 -186 141t-237 47q-186 0 -340 -100.5t-242 -263.5t-88 -341q0 -159 66.5 -284t183 -194.5t262.5 -69.5q120 0 223.5 43.5t204.5 120.5l55 -79
q-237 -186 -492 -186q-175 0 -313.5 81zM770 1656l50 65l154 -119l206 119l36 -65l-238 -149h-32z" />
    <glyph glyph-name="ccaron" unicode="&#x10d;" horiz-adv-x="1110" 
d="M324.5 33q-111.5 59 -175.5 164t-64 237q0 154 78 296.5t219 231t320 88.5q124 0 217.5 -42t157.5 -118l-69 -69q-114 133 -311 133q-151 0 -268 -74t-180.5 -192.5t-63.5 -246.5q0 -108 53 -192.5t143 -131.5t196 -47q77 0 158 26t154 83l46 -73q-85 -68 -181.5 -100
t-182.5 -32q-135 0 -246.5 59zM553 1382l57 61l158 -146l221 146l45 -61l-257 -181h-44z" />
    <glyph glyph-name="Dcaron" unicode="&#x10e;" horiz-adv-x="1495" 
d="M96 0l298 1405h441q180 0 319 -72t216.5 -198.5t77.5 -286.5q0 -210 -116 -406.5t-318.5 -319t-447.5 -122.5h-470zM568 98q217 0 394 108.5t278 278.5t101 344q0 138 -61 246.5t-174.5 169.5t-265.5 61h-362l-257 -1208h347zM616 1652l50 65l154 -119l206 119l36 -65
l-238 -149h-32z" />
    <glyph glyph-name="dcaron" unicode="&#x10f;" horiz-adv-x="1319" 
d="M1316 1495l-188 -888l-129 -607h-98l42 196q-77 -101 -182 -161t-229 -60q-122 0 -223.5 60.5t-161 169t-59.5 243.5q0 149 73 288t202.5 225.5t290.5 86.5q97 0 179 -35.5t141 -100.5t88 -153l8 46l146 690h100zM793.5 149.5q107.5 77.5 166.5 195t59 229.5
q0 114 -48.5 199.5t-131.5 131.5t-185 46q-134 0 -241 -71t-167 -186t-60 -241q0 -111 49.5 -197.5t133 -135t181.5 -48.5q136 0 243.5 77.5zM1450 1174h-79l63 320h90z" />
    <glyph glyph-name="Dcroat" unicode="&#x110;" horiz-adv-x="1495" 
d="M835 1405q180 0 319 -72t216.5 -198.5t77.5 -286.5q0 -210 -116 -406.5t-318.5 -319t-447.5 -122.5h-470l140 658h-169l20 94h168l139 653h441zM568 98q217 0 394 108.5t278 278.5t101 344q0 138 -61 246.5t-174.5 169.5t-265.5 61h-362l-118 -554h319l-19 -94h-320
l-119 -560h347z" />
    <glyph glyph-name="dcroat" unicode="&#x111;" horiz-adv-x="1274" 
d="M1434 1247h-171l-135 -640l-129 -607h-98l42 196q-77 -101 -182 -161t-229 -60q-122 0 -223.5 60.5t-161 169t-59.5 243.5q0 149 73 288t202.5 225.5t290.5 86.5q97 0 179 -35.5t141 -100.5t88 -153l8 46l94 442h-323l20 92h322l33 156h100l-33 -156h170zM793.5 149.5
q107.5 77.5 166.5 195t59 229.5q0 114 -48.5 199.5t-131.5 131.5t-185 46q-134 0 -241 -71t-167 -186t-60 -241q0 -111 49.5 -197.5t133 -135t181.5 -48.5q136 0 243.5 77.5z" />
    <glyph glyph-name="Emacron" unicode="&#x112;" horiz-adv-x="1290" 
d="M1079 0h-983l298 1405h969l-21 -98h-865l-113 -533h712l-20 -97h-713l-123 -578h879zM1096 1506h-413l18 81h413z" />
    <glyph glyph-name="emacron" unicode="&#x113;" horiz-adv-x="1142" 
d="M871.5 998.5q93.5 -51.5 145 -142t51.5 -202.5q0 -85 -24 -181h-859q-1 -11 -1 -32q0 -111 51 -195.5t137 -130.5t188 -46q76 0 163 26.5t158 83.5l44 -74q-80 -66 -182 -98t-188 -32q-132 0 -239.5 59t-169 164t-61.5 238q0 150 73.5 292.5t205 232t295.5 89.5
q119 0 212.5 -51.5zM967 565q4 29 4 69q0 96 -39.5 168.5t-111.5 112.5t-165 40q-114 0 -209 -52.5t-158.5 -141.5t-88.5 -196h768zM929 1219h-413l18 81h413z" />
    <glyph glyph-name="Ebreve" unicode="&#x114;" horiz-adv-x="1290" 
d="M1079 0h-983l298 1405h969l-21 -98h-865l-113 -533h712l-20 -97h-713l-123 -578h879zM758 1538q-44 44 -44 115q0 25 4 45h85q-5 -23 -5 -40q0 -41 24.5 -64t77.5 -23q67 0 104 34.5t48 92.5h93q-21 -88 -89 -146t-168 -58q-86 0 -130 44z" />
    <glyph glyph-name="ebreve" unicode="&#x115;" horiz-adv-x="1142" 
d="M871.5 998.5q93.5 -51.5 145 -142t51.5 -202.5q0 -85 -24 -181h-859q-1 -11 -1 -32q0 -111 51 -195.5t137 -130.5t188 -46q76 0 163 26.5t158 83.5l44 -74q-80 -66 -182 -98t-188 -32q-132 0 -239.5 59t-169 164t-61.5 238q0 150 73.5 292.5t205 232t295.5 89.5
q119 0 212.5 -51.5zM967 565q4 29 4 69q0 96 -39.5 168.5t-111.5 112.5t-165 40q-114 0 -209 -52.5t-158.5 -141.5t-88.5 -196h768zM587.5 1255.5q-47.5 46.5 -47.5 123.5q0 20 5 50h85q-5 -27 -5 -44q0 -48 27 -73.5t80 -25.5q62 0 106 38t57 105h92q-23 -98 -95 -159
t-172 -61q-85 0 -132.5 46.5z" />
    <glyph glyph-name="Edotaccent" unicode="&#x116;" horiz-adv-x="1290" 
d="M1079 0h-983l298 1405h969l-21 -98h-865l-113 -533h712l-20 -97h-713l-123 -578h879zM842.5 1517q-17.5 17 -17.5 44q0 39 28.5 66t67.5 27q28 0 46 -16.5t18 -42.5q0 -39 -29.5 -67t-66.5 -28q-29 0 -46.5 17z" />
    <glyph glyph-name="edotaccent" unicode="&#x117;" horiz-adv-x="1142" 
d="M871.5 998.5q93.5 -51.5 145 -142t51.5 -202.5q0 -85 -24 -181h-859q-1 -11 -1 -32q0 -111 51 -195.5t137 -130.5t188 -46q76 0 163 26.5t158 83.5l44 -74q-80 -66 -182 -98t-188 -32q-132 0 -239.5 59t-169 164t-61.5 238q0 150 73.5 292.5t205 232t295.5 89.5
q119 0 212.5 -51.5zM967 565q4 29 4 69q0 96 -39.5 168.5t-111.5 112.5t-165 40q-114 0 -209 -52.5t-158.5 -141.5t-88.5 -196h768zM675.5 1227q-17.5 17 -17.5 44q0 39 28.5 66t67.5 27q28 0 46 -16.5t18 -42.5q0 -39 -29.5 -67t-66.5 -28q-29 0 -46.5 17z" />
    <glyph glyph-name="Eogonek" unicode="&#x118;" horiz-adv-x="1290" 
d="M1079 0h-983l298 1405h969l-21 -98h-865l-113 -533h712l-20 -97h-713l-123 -578h879zM851 -310.5q-33 28.5 -33 74.5q0 36 22 79t62.5 84.5t92.5 72.5h83q-83 -57 -124.5 -111.5t-41.5 -95.5q0 -25 18.5 -41.5t57.5 -16.5q26 0 60 7l-10 -68q-25 -8 -43.5 -10.5
t-42.5 -2.5q-68 0 -101 28.5z" />
    <glyph glyph-name="eogonek" unicode="&#x119;" horiz-adv-x="1142" 
d="M871.5 998.5q93.5 -51.5 145 -142t51.5 -202.5q0 -85 -24 -181h-859q-1 -11 -1 -32q0 -111 51 -195.5t137 -130.5t188 -46q76 0 163 26.5t158 83.5l39 -65h5l-4 -3l4 -6q-35 -29 -81 -54q-38 -37 -59.5 -72.5t-21.5 -62.5q0 -25 18 -41.5t56 -16.5q23 0 59 6l-8 -61
q-25 -8 -43.5 -10.5t-42.5 -2.5q-62 0 -94 27.5t-32 71.5q0 13 3 27q9 40 44 85q-90 -26 -168 -26q-132 0 -239.5 59t-169 164t-61.5 238q0 150 73.5 292.5t205 232t295.5 89.5q119 0 212.5 -51.5zM967 565q4 29 4 69q0 96 -39.5 168.5t-111.5 112.5t-165 40
q-114 0 -209 -52.5t-158.5 -141.5t-88.5 -196h768z" />
    <glyph glyph-name="Ecaron" unicode="&#x11a;" horiz-adv-x="1290" 
d="M1079 0h-983l298 1405h969l-21 -98h-865l-113 -533h712l-20 -97h-713l-123 -578h879zM699 1652l50 65l154 -119l206 119l36 -65l-238 -149h-32z" />
    <glyph glyph-name="ecaron" unicode="&#x11b;" horiz-adv-x="1142" 
d="M871.5 998.5q93.5 -51.5 145 -142t51.5 -202.5q0 -85 -24 -181h-859q-1 -11 -1 -32q0 -111 51 -195.5t137 -130.5t188 -46q76 0 163 26.5t158 83.5l44 -74q-80 -66 -182 -98t-188 -32q-132 0 -239.5 59t-169 164t-61.5 238q0 150 73.5 292.5t205 232t295.5 89.5
q119 0 212.5 -51.5zM967 565q4 29 4 69q0 96 -39.5 168.5t-111.5 112.5t-165 40q-114 0 -209 -52.5t-158.5 -141.5t-88.5 -196h768zM518 1386l57 61l158 -146l221 146l45 -61l-257 -181h-44z" />
    <glyph glyph-name="Gcircumflex" unicode="&#x11c;" horiz-adv-x="1432" 
d="M565 1221.5q-153 -106.5 -236 -271t-83 -330.5q0 -158 66 -281.5t182 -193t262 -69.5q91 0 193.5 29t187.5 80l94 443h100l-104 -491q-115 -77 -242 -119t-250 -42q-171 0 -307 80t-212.5 224.5t-76.5 329.5q0 194 99 384.5t280.5 312.5t414.5 122q147 0 269.5 -56.5
t211.5 -162.5l-77 -69q-163 187 -420 187q-199 0 -352 -106.5zM1007 1609l-205 -119l-36 65l239 149h32l175 -149l-50 -65z" />
    <glyph glyph-name="gcircumflex" unicode="&#x11d;" horiz-adv-x="1272" 
d="M1216 1027l-129 -607v-1l-57 -266q-52 -248 -195.5 -390t-379.5 -142q-105 0 -207.5 22.5t-167.5 56.5l43 84q65 -31 159.5 -50t185.5 -19q194 0 309.5 123.5t154.5 319.5l10 45l6 24q-77 -94 -183 -149.5t-234 -55.5q-122 0 -223 56t-159.5 156t-58.5 228
q0 142 72.5 278t201.5 222t289 86q98 0 181.5 -36.5t143 -104t86.5 -158.5l8 62l46 216h98zM792 185q108 67 167 172.5t59 216.5q0 114 -48 199.5t-131 131.5t-184 46q-135 0 -241.5 -70.5t-166 -182t-59.5 -230.5q0 -103 48.5 -183t130 -123.5t178.5 -43.5q139 0 247 67z
M792 1359l-220 -146l-46 60l257 181h44l180 -181l-56 -60z" />
    <glyph glyph-name="Gbreve" unicode="&#x11e;" horiz-adv-x="1432" 
d="M565 1221.5q-153 -106.5 -236 -271t-83 -330.5q0 -158 66 -281.5t182 -193t262 -69.5q91 0 193.5 29t187.5 80l94 443h100l-104 -491q-115 -77 -242 -119t-250 -42q-171 0 -307 80t-212.5 224.5t-76.5 329.5q0 194 99 384.5t280.5 312.5t414.5 122q147 0 269.5 -56.5
t211.5 -162.5l-77 -69q-163 187 -420 187q-199 0 -352 -106.5zM847 1538q-44 44 -44 115q0 25 4 45h85q-5 -23 -5 -40q0 -41 24.5 -64t77.5 -23q67 0 104 34.5t48 92.5h93q-21 -88 -89 -146t-168 -58q-86 0 -130 44z" />
    <glyph glyph-name="gbreve" unicode="&#x11f;" horiz-adv-x="1272" 
d="M1216 1027l-129 -607v-1l-57 -266q-52 -248 -195.5 -390t-379.5 -142q-105 0 -207.5 22.5t-167.5 56.5l43 84q65 -31 159.5 -50t185.5 -19q194 0 309.5 123.5t154.5 319.5l10 45l6 24q-77 -94 -183 -149.5t-234 -55.5q-122 0 -223 56t-159.5 156t-58.5 228
q0 142 72.5 278t201.5 222t289 86q98 0 181.5 -36.5t143 -104t86.5 -158.5l8 62l46 216h98zM792 185q108 67 167 172.5t59 216.5q0 114 -48 199.5t-131 131.5t-184 46q-135 0 -241.5 -70.5t-166 -182t-59.5 -230.5q0 -103 48.5 -183t130 -123.5t178.5 -43.5q139 0 247 67z
M619.5 1261.5q-47.5 46.5 -47.5 123.5q0 20 5 50h85q-5 -27 -5 -44q0 -48 27 -73.5t80 -25.5q62 0 106 38t57 105h92q-23 -98 -95 -159t-172 -61q-85 0 -132.5 46.5z" />
    <glyph glyph-name="Gdotaccent" unicode="&#x120;" horiz-adv-x="1432" 
d="M565 1221.5q-153 -106.5 -236 -271t-83 -330.5q0 -158 66 -281.5t182 -193t262 -69.5q91 0 193.5 29t187.5 80l94 443h100l-104 -491q-115 -77 -242 -119t-250 -42q-171 0 -307 80t-212.5 224.5t-76.5 329.5q0 194 99 384.5t280.5 312.5t414.5 122q147 0 269.5 -56.5
t211.5 -162.5l-77 -69q-163 187 -420 187q-199 0 -352 -106.5zM932.5 1517q-17.5 17 -17.5 44q0 39 28.5 66t67.5 27q28 0 46 -16.5t18 -42.5q0 -39 -29.5 -67t-66.5 -28q-29 0 -46.5 17z" />
    <glyph glyph-name="gdotaccent" unicode="&#x121;" horiz-adv-x="1272" 
d="M1216 1027l-129 -607v-1l-57 -266q-52 -248 -195.5 -390t-379.5 -142q-105 0 -207.5 22.5t-167.5 56.5l43 84q65 -31 159.5 -50t185.5 -19q194 0 309.5 123.5t154.5 319.5l10 45l6 24q-77 -94 -183 -149.5t-234 -55.5q-122 0 -223 56t-159.5 156t-58.5 228
q0 142 72.5 278t201.5 222t289 86q98 0 181.5 -36.5t143 -104t86.5 -158.5l8 62l46 216h98zM792 185q108 67 167 172.5t59 216.5q0 114 -48 199.5t-131 131.5t-184 46q-135 0 -241.5 -70.5t-166 -182t-59.5 -230.5q0 -103 48.5 -183t130 -123.5t178.5 -43.5q139 0 247 67z
M706.5 1233q-17.5 17 -17.5 44q0 39 28.5 66t67.5 27q28 0 46 -16.5t18 -42.5q0 -39 -29.5 -67t-66.5 -28q-29 0 -46.5 17z" />
    <glyph glyph-name="uni0122" unicode="&#x122;" horiz-adv-x="1432" 
d="M565 1221.5q-153 -106.5 -236 -271t-83 -330.5q0 -158 66 -281.5t182 -193t262 -69.5q91 0 193.5 29t187.5 80l94 443h100l-104 -491q-115 -77 -242 -119t-250 -42q-171 0 -307 80t-212.5 224.5t-76.5 329.5q0 194 99 384.5t280.5 312.5t414.5 122q147 0 269.5 -56.5
t211.5 -162.5l-77 -69q-163 187 -420 187q-199 0 -352 -106.5zM635 -369q84 65 97 120v3q-22 0 -37 13.5t-15 33.5q0 5 2 13q6 28 27.5 44.5t47.5 16.5q52 0 52 -49q0 -15 -2 -23q-13 -58 -46.5 -106.5t-96.5 -98.5z" />
    <glyph glyph-name="uni0123" unicode="&#x123;" horiz-adv-x="1272" 
d="M1216 1027l-129 -607v-1l-57 -266q-52 -248 -195.5 -390t-379.5 -142q-105 0 -207.5 22.5t-167.5 56.5l43 84q65 -31 159.5 -50t185.5 -19q194 0 309.5 123.5t154.5 319.5l10 45l6 24q-77 -94 -183 -149.5t-234 -55.5q-122 0 -223 56t-159.5 156t-58.5 228
q0 142 72.5 278t201.5 222t289 86q98 0 181.5 -36.5t143 -104t86.5 -158.5l8 62l46 216h98zM792 185q108 67 167 172.5t59 216.5q0 114 -48 199.5t-131 131.5t-184 46q-135 0 -241.5 -70.5t-166 -182t-59.5 -230.5q0 -103 48.5 -183t130 -123.5t178.5 -43.5q139 0 247 67z
M872 1464q-85 -66 -96 -119l-1 -4q23 0 37.5 -13t14.5 -33q0 -8 -1 -12q-6 -27 -27 -43t-47 -16q-51 0 -51 45q0 11 3 24q11 57 44 105.5t96 97.5z" />
    <glyph glyph-name="Hcircumflex" unicode="&#x124;" horiz-adv-x="1548" 
d="M199 0h-103l298 1405h104l-136 -641h931l136 641h104l-299 -1405h-104l141 664h-930zM1011 1609l-205 -119l-36 65l239 149h32l175 -149l-50 -65z" />
    <glyph glyph-name="hcircumflex" unicode="&#x125;" horiz-adv-x="1200" 
d="M996 968.5q90 -81.5 90 -230.5q0 -54 -14 -122l-131 -616h-100l128 603q13 59 13 113q0 117 -66 178.5t-191 61.5q-93 0 -187.5 -47.5t-164.5 -131.5t-92 -188l-125 -589h-100l318 1494h99l-139 -657q70 92 182.5 152.5t232.5 60.5q157 0 247 -81.5zM867 1663l-205 -119
l-36 65l239 149h32l175 -149l-50 -65z" />
    <glyph glyph-name="Hbar" unicode="&#x126;" horiz-adv-x="1548" 
d="M1486 1185h111l-19 -87h-110l-234 -1098h-104l141 664h-930l-142 -664h-103l233 1098h-109l18 87h109l47 220h104l-47 -220h931l47 220h104zM362 764h931l71 334h-931z" />
    <glyph glyph-name="hbar" unicode="&#x127;" horiz-adv-x="1200" 
d="M996 968.5q90 -81.5 90 -230.5q0 -54 -14 -122l-131 -616h-100l128 603q13 59 13 113q0 117 -66 178.5t-191 61.5q-93 0 -187.5 -47.5t-164.5 -131.5t-92 -188l-125 -589h-100l262 1229h-136l20 92h135l37 173h99l-37 -173h358l-19 -92h-358l-83 -392q70 92 182.5 152.5
t232.5 60.5q157 0 247 -81.5z" />
    <glyph glyph-name="Itilde" unicode="&#x128;" horiz-adv-x="513" 
d="M199 0h-103l298 1405h104zM224 1523q39 71 87 105t93 34q27 0 49 -10t55 -30q26 -17 43.5 -25.5t37.5 -8.5q27 0 48 17t49 61l63 -23q-38 -71 -86 -105t-92 -34q-28 0 -50.5 10.5t-54.5 30.5q-27 17 -44 25t-36 8q-28 0 -49.5 -17t-48.5 -61z" />
    <glyph glyph-name="itilde" unicode="&#x129;" horiz-adv-x="430" 
d="M155 0h-99l219 1027h99zM116 1230q39 71 87 105t93 34q27 0 49 -10t55 -30q26 -17 43.5 -25.5t37.5 -8.5q27 0 48 17t49 61l63 -23q-38 -71 -86 -105t-92 -34q-28 0 -50.5 10.5t-54.5 30.5q-27 17 -44 25t-36 8q-28 0 -49.5 -17t-48.5 -61z" />
    <glyph glyph-name="Imacron" unicode="&#x12a;" horiz-adv-x="513" 
d="M199 0h-103l298 1405h104zM671 1506h-413l18 81h413z" />
    <glyph glyph-name="imacron" unicode="&#x12b;" horiz-adv-x="430" 
d="M155 0h-99l219 1027h99zM569 1219h-413l18 81h413z" />
    <glyph glyph-name="Ibreve" unicode="&#x12c;" horiz-adv-x="513" 
d="M199 0h-103l298 1405h104zM334 1538q-44 44 -44 115q0 25 4 45h85q-5 -23 -5 -40q0 -41 24.5 -64t77.5 -23q67 0 104 34.5t48 92.5h93q-21 -88 -89 -146t-168 -58q-86 0 -130 44z" />
    <glyph glyph-name="ibreve" unicode="&#x12d;" horiz-adv-x="430" 
d="M155 0h-99l219 1027h99zM227.5 1255.5q-47.5 46.5 -47.5 123.5q0 20 5 50h85q-5 -27 -5 -44q0 -48 27 -73.5t80 -25.5q62 0 106 38t57 105h92q-23 -98 -95 -159t-172 -61q-85 0 -132.5 46.5z" />
    <glyph glyph-name="Iogonek" unicode="&#x12e;" horiz-adv-x="513" 
d="M199 0h-103l298 1405h104zM-28 -310.5q-33 28.5 -33 74.5q0 36 22 79t62.5 84.5t92.5 72.5h83q-83 -57 -124.5 -111.5t-41.5 -95.5q0 -25 18.5 -41.5t57.5 -16.5q26 0 60 7l-10 -68q-25 -8 -43.5 -10.5t-42.5 -2.5q-68 0 -101 28.5z" />
    <glyph glyph-name="iogonek" unicode="&#x12f;" horiz-adv-x="430" 
d="M339.5 1321.5q-16.5 15.5 -16.5 40.5q0 35 27 62.5t65 27.5q29 0 45.5 -16.5t16.5 -41.5q0 -34 -27.5 -61t-65.5 -27q-28 0 -44.5 15.5zM155 0h-99l219 1027h99zM155 0q-74 -49 -118 -103t-44 -95q0 -25 18 -41.5t56 -16.5q23 0 59 6l-8 -61q-25 -8 -43.5 -10.5
t-42.5 -2.5q-62 0 -94 27.5t-32 71.5q0 13 3 27q11 51 62.5 107t107.5 91h76z" />
    <glyph glyph-name="Idotaccent" unicode="&#x130;" horiz-adv-x="513" 
d="M199 0h-103l298 1405h104zM418.5 1517q-17.5 17 -17.5 44q0 39 28.5 66t67.5 27q28 0 46 -16.5t18 -42.5q0 -39 -29.5 -67t-66.5 -28q-29 0 -46.5 17z" />
    <glyph glyph-name="dotlessi" unicode="&#x131;" horiz-adv-x="430" 
d="M155 0h-99l219 1027h99z" />
    <glyph glyph-name="IJ" unicode="&#x132;" horiz-adv-x="1325" 
d="M199 0h-103l298 1405h104zM569 10q-75 34 -123 92l69 69q39 -46 93 -69.5t121 -23.5q110 0 186.5 68t103.5 193l226 1066h104l-227 -1071q-24 -111 -79 -191.5t-135.5 -123.5t-179.5 -43q-84 0 -159 34z" />
    <glyph glyph-name="ij" unicode="&#x133;" horiz-adv-x="852" 
d="M339.5 1321.5q-16.5 15.5 -16.5 40.5q0 35 27 62.5t65 27.5q29 0 45.5 -16.5t16.5 -41.5q0 -34 -27.5 -61t-65.5 -27q-28 0 -44.5 15.5zM155 0h-99l219 1027h99zM761.5 1321.5q-16.5 15.5 -16.5 40.5q0 35 27 62.5t65 27.5q29 0 45.5 -16.5t16.5 -41.5q0 -34 -27.5 -61
t-65.5 -27q-28 0 -44.5 15.5zM184 -368l19 91h18q198 0 250 243l226 1061h99l-225 -1058q-34 -158 -126 -247.5t-234 -89.5h-27z" />
    <glyph glyph-name="Jcircumflex" unicode="&#x134;" horiz-adv-x="811" 
d="M56 10q-75 34 -123 92l69 69q39 -46 93 -69.5t121 -23.5q110 0 186.5 68t103.5 193l226 1066h104l-227 -1071q-24 -111 -79 -191.5t-135.5 -123.5t-179.5 -43q-84 0 -159 34zM830 1609l-205 -119l-36 65l239 149h32l175 -149l-50 -65z" />
    <glyph glyph-name="jcircumflex" unicode="&#x135;" horiz-adv-x="438" 
d="M-231 -368l19 91h18q198 0 250 243l226 1061h99l-225 -1058q-34 -158 -126 -247.5t-234 -89.5h-27zM407 1353l-220 -146l-46 60l257 181h44l180 -181l-56 -60z" />
    <glyph glyph-name="uni0136" unicode="&#x136;" horiz-adv-x="1355" 
d="M1252 1405h150l-665 -589l481 -816h-115l-443 748l-371 -329l-89 -419h-104l298 1405h104l-174 -822zM412 -347q84 65 97 120v3q-22 0 -37 13.5t-15 33.5q0 5 2 13q6 28 27.5 44.5t47.5 16.5q52 0 52 -49q0 -15 -2 -23q-13 -58 -46.5 -106.5t-96.5 -98.5z" />
    <glyph glyph-name="uni0137" unicode="&#x137;" horiz-adv-x="1085" 
d="M947 1027h145l-519 -419l363 -608h-111l-328 547l-271 -219l-70 -328h-100l318 1495h99l-218 -1028zM298 -354q84 65 97 120v3q-22 0 -37 13.5t-15 33.5q0 5 2 13q6 28 27.5 44.5t47.5 16.5q52 0 52 -49q0 -15 -2 -23q-13 -58 -46.5 -106.5t-96.5 -98.5z" />
    <glyph glyph-name="kgreenlandic" unicode="&#x138;" horiz-adv-x="1086" 
d="M948 1027h145l-519 -419l363 -608h-111l-328 547l-272 -219l-69 -328h-100l218 1027h99l-118 -560z" />
    <glyph glyph-name="Lacute" unicode="&#x139;" horiz-adv-x="1115" 
d="M976 0h-880l298 1405h104l-277 -1305h776zM710 1696l-237 -194h-96l193 194h140z" />
    <glyph glyph-name="lacute" unicode="&#x13a;" horiz-adv-x="431" 
d="M156 0h-100l318 1495h99zM676 1750l-237 -194h-96l193 194h140z" />
    <glyph glyph-name="uni013B" unicode="&#x13b;" horiz-adv-x="1115" 
d="M976 0h-880l298 1405h104l-277 -1305h776zM307 -347q84 65 97 120v3q-22 0 -37 13.5t-15 33.5q0 5 2 13q6 28 27.5 44.5t47.5 16.5q52 0 52 -49q0 -15 -2 -23q-13 -58 -46.5 -106.5t-96.5 -98.5z" />
    <glyph glyph-name="uni013C" unicode="&#x13c;" horiz-adv-x="431" 
d="M156 0h-100l318 1495h99zM-27 -354q84 65 97 120v3q-22 0 -37 13.5t-15 33.5q0 5 2 13q6 28 27.5 44.5t47.5 16.5q52 0 52 -49q0 -15 -2 -23q-13 -58 -46.5 -106.5t-96.5 -98.5z" />
    <glyph glyph-name="Lcaron" unicode="&#x13d;" horiz-adv-x="1115" 
d="M976 0h-880l298 1405h104l-277 -1305h776zM1115 1085h-79l63 320h90z" />
    <glyph glyph-name="lcaron" unicode="&#x13e;" horiz-adv-x="444" 
d="M156 0h-100l318 1495h99zM603 1175h-79l63 320h90z" />
    <glyph glyph-name="Ldot" unicode="&#x13f;" horiz-adv-x="1115" 
d="M976 0h-880l298 1405h104l-277 -1305h776zM716.5 642.5q-19.5 18.5 -19.5 47.5q0 41 32 70.5t74 29.5q32 0 51.5 -18t19.5 -47q0 -41 -32.5 -71t-73.5 -30q-32 0 -51.5 18.5z" />
    <glyph glyph-name="ldot" unicode="&#x140;" horiz-adv-x="530" 
d="M156 0h-100l318 1495h99zM452.5 678q-14.5 15 -14.5 37q0 30 25 54t56 24q24 0 39.5 -15t15.5 -36q0 -31 -25.5 -55t-57.5 -24q-24 0 -38.5 15z" />
    <glyph glyph-name="Lslash" unicode="&#x141;" horiz-adv-x="1115" 
d="M338 652l-117 -552h776l-21 -100h-880l126 594l-165 -81l-26 76l212 105l151 711h104l-139 -654l260 129l26 -77z" />
    <glyph glyph-name="lslash" unicode="&#x142;" horiz-adv-x="431" 
d="M497 905l29 -61l-218 -128l-152 -716h-100l138 649l-176 -104l-29 60l224 132l161 758h99l-146 -691z" />
    <glyph glyph-name="Nacute" unicode="&#x143;" horiz-adv-x="1569" 
d="M200 0h-104l298 1405h88l706 -1232l261 1232h104l-298 -1405h-86l-707 1234zM1214 1696l-237 -194h-96l193 194h140z" />
    <glyph glyph-name="nacute" unicode="&#x144;" horiz-adv-x="1200" 
d="M996 968.5q90 -81.5 90 -230.5q0 -54 -14 -122l-131 -616h-100l128 603q13 59 13 113q0 117 -66 178.5t-191 61.5q-93 0 -187.5 -47.5t-164.5 -131.5t-92 -188v2l-125 -591h-100l219 1027h96l-42 -196q45 61 112 111t147 79t161 29q157 0 247 -81.5zM1060 1472l-229 -252
h-92l192 252h129z" />
    <glyph glyph-name="uni0145" unicode="&#x145;" horiz-adv-x="1569" 
d="M200 0h-104l298 1405h88l706 -1232l261 1232h104l-298 -1405h-86l-707 1234zM566 -347q84 65 97 120v3q-22 0 -37 13.5t-15 33.5q0 5 2 13q6 28 27.5 44.5t47.5 16.5q52 0 52 -49q0 -15 -2 -23q-13 -58 -46.5 -106.5t-96.5 -98.5z" />
    <glyph glyph-name="uni0146" unicode="&#x146;" horiz-adv-x="1200" 
d="M996 968.5q90 -81.5 90 -230.5q0 -54 -14 -122l-131 -616h-100l128 603q13 59 13 113q0 117 -66 178.5t-191 61.5q-93 0 -187.5 -47.5t-164.5 -131.5t-92 -188v2l-125 -591h-100l219 1027h96l-42 -196q45 61 112 111t147 79t161 29q157 0 247 -81.5zM341 -354
q84 65 97 120v3q-22 0 -37 13.5t-15 33.5q0 5 2 13q6 28 27.5 44.5t47.5 16.5q52 0 52 -49q0 -15 -2 -23q-13 -58 -46.5 -106.5t-96.5 -98.5z" />
    <glyph glyph-name="Ncaron" unicode="&#x147;" horiz-adv-x="1569" 
d="M200 0h-104l298 1405h88l706 -1232l261 1232h104l-298 -1405h-86l-707 1234zM787 1652l50 65l154 -119l206 119l36 -65l-238 -149h-32z" />
    <glyph glyph-name="ncaron" unicode="&#x148;" horiz-adv-x="1200" 
d="M996 968.5q90 -81.5 90 -230.5q0 -54 -14 -122l-131 -616h-100l128 603q13 59 13 113q0 117 -66 178.5t-191 61.5q-93 0 -187.5 -47.5t-164.5 -131.5t-92 -188v2l-125 -591h-100l219 1027h96l-42 -196q45 61 112 111t147 79t161 29q157 0 247 -81.5zM572 1391l57 61
l158 -146l221 146l45 -61l-257 -181h-44z" />
    <glyph glyph-name="Eng" unicode="&#x14a;" horiz-adv-x="1569" 
d="M1553 1405l-261 -1231l-43 -204q-34 -161 -124 -251t-232 -90h-27l20 92h17q101 0 158 62t83 185l12 55l-694 1211l-262 -1234h-104l298 1405h88l706 -1232v1l261 1231h104z" />
    <glyph glyph-name="eng" unicode="&#x14b;" horiz-adv-x="1189" 
d="M996 968.5q90 -81.5 90 -230.5q0 -54 -14 -122l-95 -443l-42 -203q-34 -160 -121.5 -249.5t-226.5 -89.5h-26l19 91h17q99 0 154.5 61.5t82.5 184.5l43 205l92 430q13 59 13 113q0 117 -66 178.5t-191 61.5q-93 0 -187.5 -47.5t-164.5 -131.5t-92 -188v2l-125 -591h-100
l219 1027h96l-42 -196q45 61 112 111t147 79t161 29q157 0 247 -81.5z" />
    <glyph glyph-name="Omacron" unicode="&#x14c;" horiz-adv-x="1610" 
d="M441.5 56q-141.5 81 -220.5 226t-79 332q0 209 102.5 397.5t283 303.5t400.5 115q181 0 322 -80.5t219.5 -225.5t78.5 -334q0 -209 -102.5 -397t-282 -303t-399.5 -115q-181 0 -322.5 81zM1115.5 175q153.5 99 240.5 261t87 342q0 163 -66.5 288t-185.5 194t-270 69
q-190 0 -344.5 -99t-242 -260.5t-87.5 -342.5q0 -162 67 -287t186.5 -194.5t271.5 -69.5q190 0 343.5 99zM1219 1523h-413l18 81h413z" />
    <glyph glyph-name="omacron" unicode="&#x14d;" horiz-adv-x="1254" 
d="M320 33q-109 59 -172 164t-63 237q0 153 76.5 295.5t215 231t313.5 88.5q134 0 243 -59t172 -163.5t63 -236.5q0 -153 -77 -295.5t-215.5 -231.5t-313.5 -89q-133 0 -242 59zM829 145q114 74 176 192t62 246q0 108 -51.5 192.5t-139 131t-191.5 46.5q-148 0 -262 -74
t-175.5 -192.5t-61.5 -246.5q0 -108 51 -192t138 -130.5t192 -46.5q148 0 262 74zM975 1220h-413l18 81h413z" />
    <glyph glyph-name="Obreve" unicode="&#x14e;" horiz-adv-x="1610" 
d="M441.5 56q-141.5 81 -220.5 226t-79 332q0 209 102.5 397.5t283 303.5t400.5 115q181 0 322 -80.5t219.5 -225.5t78.5 -334q0 -209 -102.5 -397t-282 -303t-399.5 -115q-181 0 -322.5 81zM1115.5 175q153.5 99 240.5 261t87 342q0 163 -66.5 288t-185.5 194t-270 69
q-190 0 -344.5 -99t-242 -260.5t-87.5 -342.5q0 -162 67 -287t186.5 -194.5t271.5 -69.5q190 0 343.5 99zM881 1555q-44 44 -44 115q0 25 4 45h85q-5 -23 -5 -40q0 -41 24.5 -64t77.5 -23q67 0 104 34.5t48 92.5h93q-21 -88 -89 -146t-168 -58q-86 0 -130 44z" />
    <glyph glyph-name="obreve" unicode="&#x14f;" horiz-adv-x="1254" 
d="M320 33q-109 59 -172 164t-63 237q0 153 76.5 295.5t215 231t313.5 88.5q134 0 243 -59t172 -163.5t63 -236.5q0 -153 -77 -295.5t-215.5 -231.5t-313.5 -89q-133 0 -242 59zM829 145q114 74 176 192t62 246q0 108 -51.5 192.5t-139 131t-191.5 46.5q-148 0 -262 -74
t-175.5 -192.5t-61.5 -246.5q0 -108 51 -192t138 -130.5t192 -46.5q148 0 262 74zM633.5 1256.5q-47.5 46.5 -47.5 123.5q0 20 5 50h85q-5 -27 -5 -44q0 -48 27 -73.5t80 -25.5q62 0 106 38t57 105h92q-23 -98 -95 -159t-172 -61q-85 0 -132.5 46.5z" />
    <glyph glyph-name="Ohungarumlaut" unicode="&#x150;" horiz-adv-x="1610" 
d="M441.5 56q-141.5 81 -220.5 226t-79 332q0 209 102.5 397.5t283 303.5t400.5 115q181 0 322 -80.5t219.5 -225.5t78.5 -334q0 -209 -102.5 -397t-282 -303t-399.5 -115q-181 0 -322.5 81zM1115.5 175q153.5 99 240.5 261t87 342q0 163 -66.5 288t-185.5 194t-270 69
q-190 0 -344.5 -99t-242 -260.5t-87.5 -342.5q0 -162 67 -287t186.5 -194.5t271.5 -69.5q190 0 343.5 99zM1142 1714l-230 -194h-92l186 194h136zM1330 1713l-231 -194h-92l186 194h137z" />
    <glyph glyph-name="ohungarumlaut" unicode="&#x151;" horiz-adv-x="1254" 
d="M320 33q-109 59 -172 164t-63 237q0 153 76.5 295.5t215 231t313.5 88.5q134 0 243 -59t172 -163.5t63 -236.5q0 -153 -77 -295.5t-215.5 -231.5t-313.5 -89q-133 0 -242 59zM829 145q114 74 176 192t62 246q0 108 -51.5 192.5t-139 131t-191.5 46.5q-148 0 -262 -74
t-175.5 -192.5t-61.5 -246.5q0 -108 51 -192t138 -130.5t192 -46.5q148 0 262 74zM947 1468l-226 -252h-91l189 252h128zM1161 1468l-226 -252h-92l190 252h128z" />
    <glyph glyph-name="OE" unicode="&#x152;" horiz-adv-x="2502" 
d="M2554 1307h-865l-113 -533h712l-21 -97h-712l-123 -578h879l-21 -99h-983l58 271q-109 -137 -264.5 -216.5t-336.5 -79.5t-322.5 81t-220.5 226t-79 332q0 209 102.5 397.5t283 303.5t400.5 115q145 0 265.5 -52.5t204.5 -150t122 -228.5l86 406h969zM1115.5 175
q153.5 99 240.5 261t87 342q0 163 -66.5 288t-185.5 194t-270 69q-190 0 -344.5 -99t-242 -260.5t-87.5 -342.5q0 -162 67 -287t186.5 -194.5t271.5 -69.5q190 0 343.5 99z" />
    <glyph glyph-name="oe" unicode="&#x153;" horiz-adv-x="2125" 
d="M1854.5 998.5q93.5 -51.5 145 -142t51.5 -202.5q0 -85 -24 -181h-859q-1 -11 -1 -32q0 -111 51 -195.5t137 -130.5t188 -46q76 0 163 26.5t158 83.5l44 -74q-80 -66 -182 -98t-188 -32q-107 0 -198.5 39t-156.5 110t-94 166q-78 -141 -215.5 -228.5t-311.5 -87.5
q-133 0 -242 59t-172 164t-63 237q0 153 76.5 295.5t215 231t313.5 88.5q108 0 200.5 -38.5t159 -109.5t96.5 -165q75 140 205 227t291 87q119 0 212.5 -51.5zM1950 565q4 29 4 69q0 96 -39.5 168.5t-111.5 112.5t-165 40q-114 0 -209 -52.5t-158.5 -141.5t-88.5 -196h768z
M829 145q114 74 176 192t62 246q0 108 -51.5 192.5t-139 131t-191.5 46.5q-148 0 -262 -74t-175.5 -192.5t-61.5 -246.5q0 -108 51 -192t138 -130.5t192 -46.5q148 0 262 74z" />
    <glyph glyph-name="Racute" unicode="&#x154;" horiz-adv-x="1281" 
d="M1258 849q-45 -102 -130.5 -181t-202.5 -118l136 -550h-107l-127 526q-54 -9 -114 -9h-404l-110 -517h-103l298 1405h501q124 0 216 -41t142 -118.5t50 -184.5q0 -110 -45 -212zM729 612q140 0 246 63.5t162.5 164.5t56.5 209q0 122 -79 190.5t-221 68.5h-417l-147 -696
h399zM1029 1696l-237 -194h-96l193 194h140z" />
    <glyph glyph-name="racute" unicode="&#x155;" horiz-adv-x="834" 
d="M801 1030q55 -18 105 -54l-62 -81q-42 30 -88.5 44.5t-90.5 14.5q-82 0 -162 -48t-141 -135t-85 -200v1l-121 -572h-100l219 1027h96l-44 -207q60 104 154 166t210 62q55 0 110 -18zM822 1467l-229 -252h-92l192 252h129z" />
    <glyph glyph-name="uni0156" unicode="&#x156;" horiz-adv-x="1281" 
d="M1258 849q-45 -102 -130.5 -181t-202.5 -118l136 -550h-107l-127 526q-54 -9 -114 -9h-404l-110 -517h-103l298 1405h501q124 0 216 -41t142 -118.5t50 -184.5q0 -110 -45 -212zM729 612q140 0 246 63.5t162.5 164.5t56.5 209q0 122 -79 190.5t-221 68.5h-417l-147 -696
h399zM452 -347q84 65 97 120v3q-22 0 -37 13.5t-15 33.5q0 5 2 13q6 28 27.5 44.5t47.5 16.5q52 0 52 -49q0 -15 -2 -23q-13 -58 -46.5 -106.5t-96.5 -98.5z" />
    <glyph glyph-name="uni0157" unicode="&#x157;" horiz-adv-x="834" 
d="M801 1030q55 -18 105 -54l-62 -81q-42 30 -88.5 44.5t-90.5 14.5q-82 0 -162 -48t-141 -135t-85 -200v1l-121 -572h-100l219 1027h96l-44 -207q60 104 154 166t210 62q55 0 110 -18zM-27 -354q84 65 97 120v3q-22 0 -37 13.5t-15 33.5q0 5 2 13q6 28 27.5 44.5t47.5 16.5
q52 0 52 -49q0 -15 -2 -23q-13 -58 -46.5 -106.5t-96.5 -98.5z" />
    <glyph glyph-name="Rcaron" unicode="&#x158;" horiz-adv-x="1281" 
d="M1258 849q-45 -102 -130.5 -181t-202.5 -118l136 -550h-107l-127 526q-54 -9 -114 -9h-404l-110 -517h-103l298 1405h501q124 0 216 -41t142 -118.5t50 -184.5q0 -110 -45 -212zM729 612q140 0 246 63.5t162.5 164.5t56.5 209q0 122 -79 190.5t-221 68.5h-417l-147 -696
h399zM603 1652l50 65l154 -119l206 119l36 -65l-238 -149h-32z" />
    <glyph glyph-name="rcaron" unicode="&#x159;" horiz-adv-x="834" 
d="M801 1030q55 -18 105 -54l-62 -81q-42 30 -88.5 44.5t-90.5 14.5q-82 0 -162 -48t-141 -135t-85 -200v1l-121 -572h-100l219 1027h96l-44 -207q60 104 154 166t210 62q55 0 110 -18zM333 1386l57 61l158 -146l221 146l45 -61l-257 -181h-44z" />
    <glyph glyph-name="Sacute" unicode="&#x15a;" horiz-adv-x="1128" 
d="M212 33q-144 60 -233 167l70 67q73 -82 199 -138t279 -56q125 0 213 43t132.5 110.5t44.5 140.5q0 76 -53 135.5t-127 99.5t-171 78q-162 64 -257.5 154t-95.5 227q0 88 43 172t145.5 141t269.5 57q257 0 472 -177l-70 -70q-192 148 -410 148q-124 0 -201 -39.5
t-109.5 -100t-32.5 -127.5q0 -95 76.5 -168t226.5 -131q102 -40 186.5 -86.5t149 -122.5t64.5 -177q0 -92 -54 -186t-170 -157.5t-290 -63.5q-153 0 -297 60zM987 1696l-237 -194h-96l193 194h140z" />
    <glyph glyph-name="sacute" unicode="&#x15b;" horiz-adv-x="864" 
d="M158 14q-100 40 -172 103l58 73q65 -53 148.5 -88.5t184.5 -35.5q87 0 148.5 28.5t93 75.5t31.5 103q0 76 -60.5 126t-181.5 97q-115 46 -181.5 112.5t-66.5 164.5q0 67 36.5 130.5t114 104.5t193.5 41q95 0 180 -32.5t153 -90.5l-61 -71q-59 48 -131.5 74t-151.5 26
q-78 0 -130.5 -25t-78 -65t-25.5 -84q0 -60 47.5 -108.5t156.5 -90.5q129 -49 208 -121.5t79 -181.5q0 -81 -44 -150.5t-130 -112t-206 -42.5q-112 0 -212 40zM861 1467l-229 -252h-92l192 252h129z" />
    <glyph glyph-name="Scircumflex" unicode="&#x15c;" horiz-adv-x="1128" 
d="M212 33q-144 60 -233 167l70 67q73 -82 199 -138t279 -56q125 0 213 43t132.5 110.5t44.5 140.5q0 76 -53 135.5t-127 99.5t-171 78q-162 64 -257.5 154t-95.5 227q0 88 43 172t145.5 141t269.5 57q257 0 472 -177l-70 -70q-192 148 -410 148q-124 0 -201 -39.5
t-109.5 -100t-32.5 -127.5q0 -95 76.5 -168t226.5 -131q102 -40 186.5 -86.5t149 -122.5t64.5 -177q0 -92 -54 -186t-170 -157.5t-290 -63.5q-153 0 -297 60zM779 1609l-205 -119l-36 65l239 149h32l175 -149l-50 -65z" />
    <glyph glyph-name="scircumflex" unicode="&#x15d;" horiz-adv-x="864" 
d="M158 14q-100 40 -172 103l58 73q65 -53 148.5 -88.5t184.5 -35.5q87 0 148.5 28.5t93 75.5t31.5 103q0 76 -60.5 126t-181.5 97q-115 46 -181.5 112.5t-66.5 164.5q0 67 36.5 130.5t114 104.5t193.5 41q95 0 180 -32.5t153 -90.5l-61 -71q-59 48 -131.5 74t-151.5 26
q-78 0 -130.5 -25t-78 -65t-25.5 -84q0 -60 47.5 -108.5t156.5 -90.5q129 -49 208 -121.5t79 -181.5q0 -81 -44 -150.5t-130 -112t-206 -42.5q-112 0 -212 40zM616 1353l-220 -146l-46 60l257 181h44l180 -181l-56 -60z" />
    <glyph glyph-name="Scedilla" unicode="&#x15e;" horiz-adv-x="1128" 
d="M462 1292.5q-77 -39.5 -109.5 -100t-32.5 -127.5q0 -95 76.5 -168t226.5 -131q102 -40 186.5 -86.5t149 -122.5t64.5 -177q0 -92 -54 -186t-170 -157.5t-290 -63.5h-13q23 -69 23 -128q0 -25 -4 -44q-28 -126 -234 -152l-1 74q79 10 109 32.5t36 55.5q5 23 5 44
q0 50 -24 125q-127 18 -240.5 75t-186.5 145l70 67q73 -82 199 -138t279 -56q125 0 213 43t132.5 110.5t44.5 140.5q0 76 -53 135.5t-127 99.5t-171 78q-162 64 -257.5 154t-95.5 227q0 88 43 172t145.5 141t269.5 57q257 0 472 -177l-70 -70q-192 148 -410 148
q-124 0 -201 -39.5z" />
    <glyph glyph-name="scedilla" unicode="&#x15f;" horiz-adv-x="864" 
d="M362.5 930q-52.5 -25 -78 -65t-25.5 -84q0 -60 47.5 -108.5t156.5 -90.5q129 -49 208 -121.5t79 -181.5q0 -80 -43 -149t-127.5 -112t-202.5 -44q23 -62 23 -116q0 -18 -3 -34q-12 -58 -65 -95t-161 -49l-2 66q55 7 85 20t41.5 28.5t16.5 38.5q3 15 3 32q0 43 -23 114
q-90 13 -169 50t-137 88l58 73q65 -53 148.5 -88.5t184.5 -35.5q87 0 148.5 28.5t93 75.5t31.5 103q0 76 -60.5 126t-181.5 97q-115 46 -181.5 112.5t-66.5 164.5q0 67 36.5 130.5t114 104.5t193.5 41q95 0 180 -32.5t153 -90.5l-61 -71q-59 48 -131.5 74t-151.5 26
q-78 0 -130.5 -25z" />
    <glyph glyph-name="Scaron" unicode="&#x160;" horiz-adv-x="1128" 
d="M212 33q-144 60 -233 167l70 67q73 -82 199 -138t279 -56q125 0 213 43t132.5 110.5t44.5 140.5q0 76 -53 135.5t-127 99.5t-171 78q-162 64 -257.5 154t-95.5 227q0 88 43 172t145.5 141t269.5 57q257 0 472 -177l-70 -70q-192 148 -410 148q-124 0 -201 -39.5
t-109.5 -100t-32.5 -127.5q0 -95 76.5 -168t226.5 -131q102 -40 186.5 -86.5t149 -122.5t64.5 -177q0 -92 -54 -186t-170 -157.5t-290 -63.5q-153 0 -297 60zM561 1652l50 65l154 -119l206 119l36 -65l-238 -149h-32z" />
    <glyph glyph-name="scaron" unicode="&#x161;" horiz-adv-x="864" 
d="M158 14q-100 40 -172 103l58 73q65 -53 148.5 -88.5t184.5 -35.5q87 0 148.5 28.5t93 75.5t31.5 103q0 76 -60.5 126t-181.5 97q-115 46 -181.5 112.5t-66.5 164.5q0 67 36.5 130.5t114 104.5t193.5 41q95 0 180 -32.5t153 -90.5l-61 -71q-59 48 -131.5 74t-151.5 26
q-78 0 -130.5 -25t-78 -65t-25.5 -84q0 -60 47.5 -108.5t156.5 -90.5q129 -49 208 -121.5t79 -181.5q0 -81 -44 -150.5t-130 -112t-206 -42.5q-112 0 -212 40zM373 1386l57 61l158 -146l221 146l45 -61l-257 -181h-44z" />
    <glyph glyph-name="uni0162" unicode="&#x162;" horiz-adv-x="1145" 
d="M231 1405h1061l-21 -99h-479l-277 -1306h-2q33 -85 33 -155q0 -25 -4 -44q-28 -126 -234 -152l-1 74q79 10 109 32.5t36 55.5q5 23 5 44q0 54 -31 145h-16l278 1306h-478z" />
    <glyph glyph-name="uni0163" unicode="&#x163;" horiz-adv-x="588" 
d="M417 1027h277l-20 -93h-277l-198 -927h1q15 -31 26 -72t11 -77q0 -18 -3 -34q-12 -58 -65 -95t-161 -49l-2 66q55 7 85 20t41.5 28.5t16.5 38.5q3 15 3 32q0 50 -30 135h-24l199 934h-189l20 93h188l56 260l104 18z" />
    <glyph glyph-name="Tcaron" unicode="&#x164;" horiz-adv-x="1145" 
d="M515 0h-105l278 1306h-478l21 99h1061l-21 -99h-479zM594 1652l50 65l154 -119l206 119l36 -65l-238 -149h-32z" />
    <glyph glyph-name="tcaron" unicode="&#x165;" horiz-adv-x="588" 
d="M198 0h-100l199 934h-189l20 93h188l56 260l104 18l-59 -278h277l-20 -93h-277zM682 1194h-79l63 320h90z" />
    <glyph glyph-name="Tbar" unicode="&#x166;" horiz-adv-x="1145" 
d="M1292 1405l-21 -99h-479l-117 -553h245l-19 -94h-246l-140 -659h-105l140 659h-241l19 94h242l118 553h-478l21 99h1061z" />
    <glyph glyph-name="tbar" unicode="&#x167;" horiz-adv-x="588" 
d="M694 1027l-20 -93h-277l-80 -374h209l-16 -91h-212l-100 -469h-100l100 469h-195l17 91h197l80 374h-189l20 93h188l56 260l104 18l-59 -278h277z" />
    <glyph glyph-name="Utilde" unicode="&#x168;" horiz-adv-x="1462" 
d="M369 30q-103 55 -155 155.5t-52 236.5q0 82 20 179l172 805h104l-171 -801q-20 -94 -20 -173q0 -168 89.5 -263t266.5 -95q148 0 270.5 66.5t204.5 186.5t116 278l170 801h104l-172 -806q-39 -185 -134.5 -326t-239 -220t-321.5 -79q-149 0 -252 55zM682 1523
q39 71 87 105t93 34q27 0 49 -10t55 -30q26 -17 43.5 -25.5t37.5 -8.5q27 0 48 17t49 61l63 -23q-38 -71 -86 -105t-92 -34q-28 0 -50.5 10.5t-54.5 30.5q-27 17 -44 25t-36 8q-28 0 -49.5 -17t-48.5 -61z" />
    <glyph glyph-name="utilde" unicode="&#x169;" horiz-adv-x="1200" 
d="M1044 1027h99l-218 -1027h-96l42 196q-45 -61 -112 -110.5t-147 -78.5t-161 -29q-157 0 -247.5 81.5t-90.5 231.5q0 54 14 121l131 615h101l-129 -603q-13 -59 -13 -112q0 -117 66.5 -178.5t191.5 -61.5q90 0 181 44t161 123t97 177zM496 1230q39 71 87 105t93 34
q27 0 49 -10t55 -30q26 -17 43.5 -25.5t37.5 -8.5q27 0 48 17t49 61l63 -23q-38 -71 -86 -105t-92 -34q-28 0 -50.5 10.5t-54.5 30.5q-27 17 -44 25t-36 8q-28 0 -49.5 -17t-48.5 -61z" />
    <glyph glyph-name="Umacron" unicode="&#x16a;" horiz-adv-x="1462" 
d="M369 30q-103 55 -155 155.5t-52 236.5q0 82 20 179l172 805h104l-171 -801q-20 -94 -20 -173q0 -168 89.5 -263t266.5 -95q148 0 270.5 66.5t204.5 186.5t116 278l170 801h104l-172 -806q-39 -185 -134.5 -326t-239 -220t-321.5 -79q-149 0 -252 55zM1129 1506h-413
l18 81h413z" />
    <glyph glyph-name="umacron" unicode="&#x16b;" horiz-adv-x="1200" 
d="M1044 1027h99l-218 -1027h-96l42 196q-45 -61 -112 -110.5t-147 -78.5t-161 -29q-157 0 -247.5 81.5t-90.5 231.5q0 54 14 121l131 615h101l-129 -603q-13 -59 -13 -112q0 -117 66.5 -178.5t191.5 -61.5q90 0 181 44t161 123t97 177zM949 1219h-413l18 81h413z" />
    <glyph glyph-name="Ubreve" unicode="&#x16c;" horiz-adv-x="1462" 
d="M369 30q-103 55 -155 155.5t-52 236.5q0 82 20 179l172 805h104l-171 -801q-20 -94 -20 -173q0 -168 89.5 -263t266.5 -95q148 0 270.5 66.5t204.5 186.5t116 278l170 801h104l-172 -806q-39 -185 -134.5 -326t-239 -220t-321.5 -79q-149 0 -252 55zM791 1538
q-44 44 -44 115q0 25 4 45h85q-5 -23 -5 -40q0 -41 24.5 -64t77.5 -23q67 0 104 34.5t48 92.5h93q-21 -88 -89 -146t-168 -58q-86 0 -130 44z" />
    <glyph glyph-name="ubreve" unicode="&#x16d;" horiz-adv-x="1200" 
d="M1044 1027h99l-218 -1027h-96l42 196q-45 -61 -112 -110.5t-147 -78.5t-161 -29q-157 0 -247.5 81.5t-90.5 231.5q0 54 14 121l131 615h101l-129 -603q-13 -59 -13 -112q0 -117 66.5 -178.5t191.5 -61.5q90 0 181 44t161 123t97 177zM606.5 1255.5
q-47.5 46.5 -47.5 123.5q0 20 5 50h85q-5 -27 -5 -44q0 -48 27 -73.5t80 -25.5q62 0 106 38t57 105h92q-23 -98 -95 -159t-172 -61q-85 0 -132.5 46.5z" />
    <glyph glyph-name="Uring" unicode="&#x16e;" horiz-adv-x="1462" 
d="M369 30q-103 55 -155 155.5t-52 236.5q0 82 20 179l172 805h104l-171 -801q-20 -94 -20 -173q0 -168 89.5 -263t266.5 -95q148 0 270.5 66.5t204.5 186.5t116 278l170 801h104l-172 -806q-39 -185 -134.5 -326t-239 -220t-321.5 -79q-149 0 -252 55zM847.5 1522.5
q-29.5 26.5 -29.5 71.5q0 10 4 32q12 58 56.5 94t104.5 36q52 0 81.5 -27t29.5 -72q0 -14 -3 -31q-12 -58 -57.5 -94t-105.5 -36q-51 0 -80.5 26.5zM1006 1579q27 26 27 65q0 25 -17 40t-45 15q-39 0 -65.5 -26t-26.5 -65q0 -25 16 -40t45 -15q39 0 66 26z" />
    <glyph glyph-name="uring" unicode="&#x16f;" horiz-adv-x="1200" 
d="M1044 1027h99l-218 -1027h-96l42 196q-45 -61 -112 -110.5t-147 -78.5t-161 -29q-157 0 -247.5 81.5t-90.5 231.5q0 54 14 121l131 615h101l-129 -603q-13 -59 -13 -112q0 -117 66.5 -178.5t191.5 -61.5q90 0 181 44t161 123t97 177zM657 1236.5q-30 27.5 -30 73.5
q0 10 4 32q13 58 58.5 95t105.5 37q52 0 82.5 -27.5t30.5 -72.5q0 -10 -4 -32q-12 -59 -58 -96t-107 -37q-52 0 -82 27.5zM811 1288q25 21 33 54q2 12 2 18q0 26 -16.5 41t-46.5 15q-34 0 -59 -20.5t-33 -53.5q-2 -12 -2 -18q0 -26 16.5 -41.5t46.5 -15.5q34 0 59 21z" />
    <glyph glyph-name="Uhungarumlaut" unicode="&#x170;" horiz-adv-x="1462" 
d="M369 30q-103 55 -155 155.5t-52 236.5q0 82 20 179l172 805h104l-171 -801q-20 -94 -20 -173q0 -168 89.5 -263t266.5 -95q148 0 270.5 66.5t204.5 186.5t116 278l170 801h104l-172 -806q-39 -185 -134.5 -326t-239 -220t-321.5 -79q-149 0 -252 55zM1052 1697l-230 -194
h-92l186 194h136zM1240 1696l-231 -194h-92l186 194h137z" />
    <glyph glyph-name="uhungarumlaut" unicode="&#x171;" horiz-adv-x="1200" 
d="M1044 1027h99l-218 -1027h-96l42 196q-45 -61 -112 -110.5t-147 -78.5t-161 -29q-157 0 -247.5 81.5t-90.5 231.5q0 54 14 121l131 615h101l-129 -603q-13 -59 -13 -112q0 -117 66.5 -178.5t191.5 -61.5q90 0 181 44t161 123t97 177zM921 1467l-226 -252h-91l189 252h128
zM1135 1467l-226 -252h-92l190 252h128z" />
    <glyph glyph-name="Uogonek" unicode="&#x172;" horiz-adv-x="1462" 
d="M1384 1406h104l-172 -806q-37 -175 -124.5 -311t-216.5 -216q-61 -49 -91 -94t-30 -80q0 -25 18.5 -41.5t57.5 -16.5q26 0 60 7l-10 -68q-25 -8 -43.5 -10.5t-42.5 -2.5q-68 0 -101 28.5t-33 74.5q0 29 14.5 63t41.5 69q-90 -27 -195 -27q-149 0 -252 55t-155 155.5
t-52 236.5q0 82 20 179l172 805h104l-171 -801q-20 -94 -20 -173q0 -168 89.5 -263t266.5 -95q148 0 270.5 66.5t204.5 186.5t116 278z" />
    <glyph glyph-name="uogonek" unicode="&#x173;" horiz-adv-x="1200" 
d="M1044 1027h99l-218 -1027h-2q-74 -49 -118 -103t-44 -95q0 -25 18 -41.5t56 -16.5q23 0 59 6l-8 -61q-25 -8 -43.5 -10.5t-42.5 -2.5q-62 0 -94 27.5t-32 71.5q0 13 3 27q11 51 62.5 107t107.5 91h-18l42 196q-45 -61 -112 -110.5t-147 -78.5t-161 -29
q-157 0 -247.5 81.5t-90.5 231.5q0 54 14 121l131 615h101l-129 -603q-13 -59 -13 -112q0 -117 66.5 -178.5t191.5 -61.5q90 0 181 44t161 123t97 177z" />
    <glyph glyph-name="Wcircumflex" unicode="&#x174;" horiz-adv-x="1944" 
d="M593 0h-99l-285 1405h106l252 -1265l759 1265h118l-345 -567l129 -698l766 1265h119l-861 -1405h-98l-136 704zM1217 1610l-205 -119l-36 65l239 149h32l175 -149l-50 -65z" />
    <glyph glyph-name="wcircumflex" unicode="&#x175;" horiz-adv-x="1572" 
d="M981 116l558 911h116l-642 -1027h-104l-113 572l-355 -572h-101l-204 1027h100l175 -911l552 911h115l-209 -337zM971 1353l-220 -146l-46 60l257 181h44l180 -181l-56 -60z" />
    <glyph glyph-name="Ycircumflex" unicode="&#x176;" horiz-adv-x="1105" 
d="M496 0h-104l131 614l-314 791h112l268 -690l555 690h131l-648 -790zM794 1609l-205 -119l-36 65l239 149h32l175 -149l-50 -65z" />
    <glyph glyph-name="ycircumflex" unicode="&#x177;" horiz-adv-x="1010" 
d="M226 -355h-110l225 355l-205 1027h105l176 -908l563 908h112zM688 1353l-220 -146l-46 60l257 181h44l180 -181l-56 -60z" />
    <glyph glyph-name="Ydieresis" unicode="&#x178;" horiz-adv-x="1105" 
d="M496 0h-104l131 614l-314 791h112l268 -690l555 690h131l-648 -790zM552.5 1518q-16.5 16 -16.5 42q0 37 27 63.5t65 26.5q28 0 45 -15.5t17 -41.5q0 -37 -28.5 -64t-64.5 -27q-28 0 -44.5 16zM887.5 1518q-16.5 16 -16.5 42q0 37 27.5 63.5t64.5 26.5q28 0 45 -15.5
t17 -40.5q0 -38 -28 -65t-65 -27q-28 0 -44.5 16z" />
    <glyph glyph-name="Zacute" unicode="&#x179;" horiz-adv-x="1272" 
d="M1052 0h-1059l18 83l1178 1226h-901l20 96h1050l-17 -80l-1180 -1229h911zM1048 1696l-237 -194h-96l193 194h140z" />
    <glyph glyph-name="zacute" unicode="&#x17a;" horiz-adv-x="941" 
d="M774 0h-803l15 71l826 865h-623l19 91h771l-15 -70l-833 -866h662zM911 1467l-229 -252h-92l192 252h129z" />
    <glyph glyph-name="Zdotaccent" unicode="&#x17b;" horiz-adv-x="1272" 
d="M1052 0h-1059l18 83l1178 1226h-901l20 96h1050l-17 -80l-1180 -1229h911zM764.5 1517q-17.5 17 -17.5 44q0 39 28.5 66t67.5 27q28 0 46 -16.5t18 -42.5q0 -39 -29.5 -67t-66.5 -28q-29 0 -46.5 17z" />
    <glyph glyph-name="zdotaccent" unicode="&#x17c;" horiz-adv-x="941" 
d="M774 0h-803l15 71l826 865h-623l19 91h771l-15 -70l-833 -866h662zM580.5 1227q-17.5 17 -17.5 44q0 39 28.5 66t67.5 27q28 0 46 -16.5t18 -42.5q0 -39 -29.5 -67t-66.5 -28q-29 0 -46.5 17z" />
    <glyph glyph-name="Zcaron" unicode="&#x17d;" horiz-adv-x="1272" 
d="M1052 0h-1059l18 83l1178 1226h-901l20 96h1050l-17 -80l-1180 -1229h911zM621 1652l50 65l154 -119l206 119l36 -65l-238 -149h-32z" />
    <glyph glyph-name="zcaron" unicode="&#x17e;" horiz-adv-x="941" 
d="M774 0h-803l15 71l826 865h-623l19 91h771l-15 -70l-833 -866h662zM423 1386l57 61l158 -146l221 146l45 -61l-257 -181h-44z" />
    <glyph glyph-name="uni0189" unicode="&#x189;" horiz-adv-x="1495" 
d="M835 1405q180 0 319 -72t216.5 -198.5t77.5 -286.5q0 -210 -116 -406.5t-318.5 -319t-447.5 -122.5h-470l140 658h-169l20 94h168l139 653h441zM568 98q217 0 394 108.5t278 278.5t101 344q0 138 -61 246.5t-174.5 169.5t-265.5 61h-362l-118 -554h319l-19 -94h-320
l-119 -560h347z" />
    <glyph glyph-name="uni0189" unicode="&#x256;" horiz-adv-x="1495" 
d="M835 1405q180 0 319 -72t216.5 -198.5t77.5 -286.5q0 -210 -116 -406.5t-318.5 -319t-447.5 -122.5h-470l140 658h-169l20 94h168l139 653h441zM568 98q217 0 394 108.5t278 278.5t101 344q0 138 -61 246.5t-174.5 169.5t-265.5 61h-362l-118 -554h319l-19 -94h-320
l-119 -560h347z" />
    <glyph glyph-name="uni018F" unicode="&#x18f;" horiz-adv-x="1557" 
d="M1233 1356.5q132 -73.5 205.5 -203t73.5 -292.5q0 -73 -17 -156q-42 -201 -167 -367t-301.5 -262.5t-367.5 -96.5q-170 0 -291 67t-183.5 187.5t-62.5 279.5q0 91 21 191q2 10 10 39h1246q8 54 8 99q0 142 -64 253t-177.5 173.5t-258.5 62.5q-139 0 -264.5 -48
t-233.5 -138l-47 72q124 102 268 157.5t301 55.5q170 0 302 -73.5zM978.5 150.5q145.5 76.5 252.5 210.5t151 299h-1145q-11 -71 -11 -129q0 -137 52.5 -240t154 -160t244.5 -57q156 0 301.5 76.5z" />
    <glyph glyph-name="florin" unicode="&#x192;" horiz-adv-x="732" 
d="M-343 -389q-27 8 -37 16l54 75q1 0 12.5 -6t47.5 -6q97 0 169.5 59t123.5 191l373 967h-187l30 82h188l22 59q68 181 174.5 284t244.5 103q41 0 71 -8.5t37 -15.5l-55 -73q-17 12 -61 12q-101 0 -176 -65.5t-130 -207.5l-34 -88h266l-31 -82h-266l-372 -968
q-127 -336 -406 -336q-31 0 -58 8z" />
    <glyph glyph-name="uni019D" unicode="&#x19d;" horiz-adv-x="1569" 
d="M1449 1405h104l-298 -1405h-86l-707 1234l-225 -1060l-43 -204q-34 -161 -124 -251t-232 -90h-27l20 92h17q101 0 158 62t83 185l30 143l275 1294h88l706 -1232z" />
    <glyph glyph-name="Ohorn" unicode="&#x1a0;" horiz-adv-x="1610" 
d="M1475.5 1112.5q72.5 -141.5 72.5 -322.5q0 -209 -102.5 -397t-282 -303t-399.5 -115q-181 0 -322.5 81t-220.5 226t-79 332q0 209 102.5 397.5t283 303.5t400.5 115q132 0 247 -45q97 3 126 55t24 134l102 20q5 -98 -33 -164.5t-121 -94.5q130 -81 202.5 -222.5z
M1115.5 175q153.5 99 240.5 261t87 342q0 163 -66.5 288t-185.5 194t-270 69q-190 0 -344.5 -99t-242 -260.5t-87.5 -342.5q0 -162 67 -287t186.5 -194.5t271.5 -69.5q190 0 343.5 99z" />
    <glyph glyph-name="ohorn" unicode="&#x1a1;" horiz-adv-x="1254" 
d="M1127 784q41 -89 41 -194q0 -153 -77 -295.5t-215.5 -231.5t-313.5 -89q-133 0 -242 59t-172 164t-63 237q0 153 76.5 295.5t215 231t313.5 88.5q145 0 259 -68q135 19 135 117q0 22 -6 47l99 25q3 -19 3 -39q0 -73 -42 -123.5t-126 -71.5q74 -63 115 -152zM829 145
q114 74 176 192t62 246q0 108 -51.5 192.5t-139 131t-191.5 46.5q-148 0 -262 -74t-175.5 -192.5t-61.5 -246.5q0 -108 51 -192t138 -130.5t192 -46.5q148 0 262 74z" />
    <glyph glyph-name="Uhorn" unicode="&#x1af;" horiz-adv-x="1511" 
d="M1712 1615q5 -121 -53 -193t-185 -82l-158 -740q-39 -185 -134.5 -326t-239 -220t-321.5 -79q-149 0 -252 55t-155 155.5t-52 236.5q0 82 20 179l172 805h104l-171 -801q-20 -94 -20 -173q0 -168 89.5 -263t266.5 -95q148 0 270.5 66.5t204.5 186.5t116 278l170 801h72
q99 1 129 53.5t25 135.5z" />
    <glyph glyph-name="uhorn" unicode="&#x1b0;" horiz-adv-x="1209" 
d="M1339 1214q3 -21 3 -39q0 -81 -53 -133.5t-157 -68.5l-207 -973h-96l42 196q-45 -61 -112 -110.5t-147 -78.5t-161 -29q-157 0 -247.5 81.5t-90.5 231.5q0 54 14 121l131 615h101l-129 -603q-13 -59 -13 -112q0 -117 66.5 -178.5t191.5 -61.5q90 0 181 44t161 123t97 177
l130 611h68q71 10 102.5 39.5t31.5 75.5q0 22 -6 47z" />
    <glyph glyph-name="uni01B5" unicode="&#x1b5;" horiz-adv-x="1272" 
d="M308 1405h1050l-17 -80l-551 -574h205l-20 -94h-275l-539 -561h911l-20 -96h-1059l18 83l552 574h-212l20 94h282l536 558h-901z" />
    <glyph glyph-name="uni01B6" unicode="&#x1b6;" horiz-adv-x="941" 
d="M208 1027h771l-15 -70l-383 -398h206l-19 -88h-271l-366 -380h662l-19 -91h-803l15 71l382 400h-193l20 88h257l360 377h-623z" />
    <glyph glyph-name="uni01C4" unicode="&#x1c4;" horiz-adv-x="2730" 
d="M96 0l298 1405h441q180 0 319 -72t216.5 -198.5t77.5 -286.5q0 -210 -116 -406.5t-318.5 -319t-447.5 -122.5h-470zM568 98q217 0 394 108.5t278 278.5t101 344q0 138 -61 246.5t-174.5 169.5t-265.5 61h-362l-257 -1208h347zM2509 0h-1059l18 83l1178 1226h-901l20 96
h1050l-17 -80l-1180 -1229h911zM2078 1652l50 65l154 -119l206 119l36 -65l-238 -149h-32z" />
    <glyph glyph-name="uni01C5" unicode="&#x1c5;" horiz-adv-x="2436" 
d="M96 0l298 1405h441q180 0 319 -72t216.5 -198.5t77.5 -286.5q0 -210 -116 -406.5t-318.5 -319t-447.5 -122.5h-470zM568 98q217 0 394 108.5t278 278.5t101 344q0 138 -61 246.5t-174.5 169.5t-265.5 61h-362l-257 -1208h347zM2269 0h-803l15 71l826 865h-623l19 91h771
l-15 -70l-833 -866h662zM1918 1386l57 61l158 -146l221 146l45 -61l-257 -181h-44z" />
    <glyph glyph-name="uni01C6" unicode="&#x1c6;" horiz-adv-x="2215" 
d="M1316 1495l-188 -888l-129 -607h-98l42 196q-77 -101 -182 -161t-229 -60q-122 0 -223.5 60.5t-161 169t-59.5 243.5q0 149 73 288t202.5 225.5t290.5 86.5q97 0 179 -35.5t141 -100.5t88 -153l8 46l146 690h100zM793.5 149.5q107.5 77.5 166.5 195t59 229.5
q0 114 -48.5 199.5t-131.5 131.5t-185 46q-134 0 -241 -71t-167 -186t-60 -241q0 -111 49.5 -197.5t133 -135t181.5 -48.5q136 0 243.5 77.5zM2048 0h-803l15 71l826 865h-623l19 91h771l-15 -70l-833 -866h662zM1697 1386l57 61l158 -146l221 146l45 -61l-257 -181h-44z
" />
    <glyph glyph-name="uni01C7" unicode="&#x1c7;" horiz-adv-x="1957" 
d="M976 0h-880l298 1405h104l-277 -1305h776zM1202 10q-75 34 -123 92l69 69q39 -46 93 -69.5t121 -23.5q110 0 186.5 68t103.5 193l226 1066h104l-227 -1071q-24 -111 -79 -191.5t-135.5 -123.5t-179.5 -43q-84 0 -159 34z" />
    <glyph glyph-name="uni01C8" unicode="&#x1c8;" horiz-adv-x="1553" 
d="M976 0h-880l298 1405h104l-277 -1305h776zM1461.5 1321.5q-16.5 15.5 -16.5 40.5q0 35 27 62.5t65 27.5q29 0 45.5 -16.5t16.5 -41.5q0 -34 -27.5 -61t-65.5 -27q-28 0 -44.5 15.5zM884 -368l19 91h18q198 0 250 243l226 1061h99l-225 -1058q-34 -158 -126 -247.5
t-234 -89.5h-27z" />
    <glyph glyph-name="uni01C9" unicode="&#x1c9;" horiz-adv-x="851" 
d="M156 0h-100l318 1495h99zM759.5 1321.5q-16.5 15.5 -16.5 40.5q0 35 27 62.5t65 27.5q29 0 45.5 -16.5t16.5 -41.5q0 -34 -27.5 -61t-65.5 -27q-28 0 -44.5 15.5zM182 -368l19 91h18q198 0 250 243l226 1061h99l-225 -1058q-34 -158 -126 -247.5t-234 -89.5h-27z" />
    <glyph glyph-name="uni01CA" unicode="&#x1ca;" horiz-adv-x="2380" 
d="M200 0h-104l298 1405h88l706 -1232l261 1232h104l-298 -1405h-86l-707 1234zM1625 10q-75 34 -123 92l69 69q39 -46 93 -69.5t121 -23.5q110 0 186.5 68t103.5 193l226 1066h104l-227 -1071q-24 -111 -79 -191.5t-135.5 -123.5t-179.5 -43q-84 0 -159 34z" />
    <glyph glyph-name="uni01CB" unicode="&#x1cb;" horiz-adv-x="1964" 
d="M200 0h-104l298 1405h88l706 -1232l261 1232h104l-298 -1405h-86l-707 1234zM1872.5 1321.5q-16.5 15.5 -16.5 40.5q0 35 27 62.5t65 27.5q29 0 45.5 -16.5t16.5 -41.5q0 -34 -27.5 -61t-65.5 -27q-28 0 -44.5 15.5zM1295 -368l19 91h18q198 0 250 243l226 1061h99
l-225 -1058q-34 -158 -126 -247.5t-234 -89.5h-27z" />
    <glyph glyph-name="uni01CC" unicode="&#x1cc;" horiz-adv-x="1621" 
d="M996 968.5q90 -81.5 90 -230.5q0 -54 -14 -122l-131 -616h-100l128 603q13 59 13 113q0 117 -66 178.5t-191 61.5q-93 0 -187.5 -47.5t-164.5 -131.5t-92 -188v2l-125 -591h-100l219 1027h96l-42 -196q45 61 112 111t147 79t161 29q157 0 247 -81.5zM1529.5 1321.5
q-16.5 15.5 -16.5 40.5q0 35 27 62.5t65 27.5q29 0 45.5 -16.5t16.5 -41.5q0 -34 -27.5 -61t-65.5 -27q-28 0 -44.5 15.5zM952 -368l19 91h18q198 0 250 243l226 1061h99l-225 -1058q-34 -158 -126 -247.5t-234 -89.5h-27z" />
    <glyph glyph-name="uni01CD" unicode="&#x1cd;" horiz-adv-x="1289" 
d="M1160 0h-108l-70 371h-726l-226 -371h-119l871 1406h104zM802 1268l-489 -803h652l-151 803l-3 17zM665 1652l50 65l154 -119l206 119l36 -65l-238 -149h-32z" />
    <glyph glyph-name="uni01CE" unicode="&#x1ce;" horiz-adv-x="1274" 
d="M1217 1027l-89 -420l-129 -607h-98l42 196q-77 -101 -182 -161t-229 -60q-122 0 -223.5 60.5t-161 169t-59.5 243.5q0 149 73 288t202.5 225.5t290.5 86.5q145 0 254 -77t153 -209l3 17l53 248h100zM793.5 149.5q107.5 77.5 166.5 195t59 229.5q0 114 -48.5 199.5
t-131.5 131.5t-185 46q-134 0 -241 -71t-167 -186t-60 -241q0 -111 49.5 -197.5t133 -135t181.5 -48.5q136 0 243.5 77.5zM562 1384l57 61l158 -146l221 146l45 -61l-257 -181h-44z" />
    <glyph glyph-name="uni01CF" unicode="&#x1cf;" horiz-adv-x="513" 
d="M199 0h-103l298 1405h104zM275 1652l50 65l154 -119l206 119l36 -65l-238 -149h-32z" />
    <glyph glyph-name="uni01D0" unicode="&#x1d0;" horiz-adv-x="430" 
d="M155 0h-99l219 1027h99zM157 1386l57 61l158 -146l221 146l45 -61l-257 -181h-44z" />
    <glyph glyph-name="uni01D1" unicode="&#x1d1;" horiz-adv-x="1610" 
d="M441.5 56q-141.5 81 -220.5 226t-79 332q0 209 102.5 397.5t283 303.5t400.5 115q181 0 322 -80.5t219.5 -225.5t78.5 -334q0 -209 -102.5 -397t-282 -303t-399.5 -115q-181 0 -322.5 81zM1115.5 175q153.5 99 240.5 261t87 342q0 163 -66.5 288t-185.5 194t-270 69
q-190 0 -344.5 -99t-242 -260.5t-87.5 -342.5q0 -162 67 -287t186.5 -194.5t271.5 -69.5q190 0 343.5 99zM823 1669l50 65l154 -119l206 119l36 -65l-238 -149h-32z" />
    <glyph glyph-name="uni01D2" unicode="&#x1d2;" horiz-adv-x="1254" 
d="M320 33q-109 59 -172 164t-63 237q0 153 76.5 295.5t215 231t313.5 88.5q134 0 243 -59t172 -163.5t63 -236.5q0 -153 -77 -295.5t-215.5 -231.5t-313.5 -89q-133 0 -242 59zM829 145q114 74 176 192t62 246q0 108 -51.5 192.5t-139 131t-191.5 46.5q-148 0 -262 -74
t-175.5 -192.5t-61.5 -246.5q0 -108 51 -192t138 -130.5t192 -46.5q148 0 262 74zM563 1387l57 61l158 -146l221 146l45 -61l-257 -181h-44z" />
    <glyph glyph-name="uni01D3" unicode="&#x1d3;" horiz-adv-x="1462" 
d="M369 30q-103 55 -155 155.5t-52 236.5q0 82 20 179l172 805h104l-171 -801q-20 -94 -20 -173q0 -168 89.5 -263t266.5 -95q148 0 270.5 66.5t204.5 186.5t116 278l170 801h104l-172 -806q-39 -185 -134.5 -326t-239 -220t-321.5 -79q-149 0 -252 55zM733 1652l50 65
l154 -119l206 119l36 -65l-238 -149h-32z" />
    <glyph glyph-name="uni01D4" unicode="&#x1d4;" horiz-adv-x="1200" 
d="M1044 1027h99l-218 -1027h-96l42 196q-45 -61 -112 -110.5t-147 -78.5t-161 -29q-157 0 -247.5 81.5t-90.5 231.5q0 54 14 121l131 615h101l-129 -603q-13 -59 -13 -112q0 -117 66.5 -178.5t191.5 -61.5q90 0 181 44t161 123t97 177zM537 1386l57 61l158 -146l221 146
l45 -61l-257 -181h-44z" />
    <glyph glyph-name="uni01D5" unicode="&#x1d5;" horiz-adv-x="1462" 
d="M369 30q-103 55 -155 155.5t-52 236.5q0 82 20 179l172 805h104l-171 -801q-20 -94 -20 -173q0 -168 89.5 -263t266.5 -95q148 0 270.5 66.5t204.5 186.5t116 278l170 801h104l-172 -806q-39 -185 -134.5 -326t-239 -220t-321.5 -79q-149 0 -252 55zM710.5 1518
q-16.5 16 -16.5 42q0 37 27 63.5t65 26.5q28 0 45 -15.5t17 -41.5q0 -37 -28.5 -64t-64.5 -27q-28 0 -44.5 16zM1045.5 1518q-16.5 16 -16.5 42q0 37 27.5 63.5t64.5 26.5q28 0 45 -15.5t17 -40.5q0 -38 -28 -65t-65 -27q-28 0 -44.5 16zM1171 1701h-413l18 81h413z" />
    <glyph glyph-name="uni01D6" unicode="&#x1d6;" horiz-adv-x="1200" 
d="M1044 1027h99l-218 -1027h-96l42 196q-45 -61 -112 -110.5t-147 -78.5t-161 -29q-157 0 -247.5 81.5t-90.5 231.5q0 54 14 121l131 615h101l-129 -603q-13 -59 -13 -112q0 -117 66.5 -178.5t191.5 -61.5q90 0 181 44t161 123t97 177zM529.5 1229q-16.5 16 -16.5 42
q0 37 27 63.5t65 26.5q28 0 45 -15.5t17 -41.5q0 -37 -28.5 -64t-64.5 -27q-28 0 -44.5 16zM864.5 1229q-16.5 16 -16.5 42q0 37 27.5 63.5t64.5 26.5q28 0 45 -15.5t17 -40.5q0 -38 -28 -65t-65 -27q-28 0 -44.5 16zM993 1429h-413l18 81h413z" />
    <glyph glyph-name="uni01D7" unicode="&#x1d7;" horiz-adv-x="1462" 
d="M369 30q-103 55 -155 155.5t-52 236.5q0 82 20 179l172 805h104l-171 -801q-20 -94 -20 -173q0 -168 89.5 -263t266.5 -95q148 0 270.5 66.5t204.5 186.5t116 278l170 801h104l-172 -806q-39 -185 -134.5 -326t-239 -220t-321.5 -79q-149 0 -252 55zM710.5 1518
q-16.5 16 -16.5 42q0 37 27 63.5t65 26.5q28 0 45 -15.5t17 -41.5q0 -37 -28.5 -64t-64.5 -27q-28 0 -44.5 16zM1045.5 1518q-16.5 16 -16.5 42q0 37 27.5 63.5t64.5 26.5q28 0 45 -15.5t17 -40.5q0 -38 -28 -65t-65 -27q-28 0 -44.5 16zM1202 1891l-237 -194h-96l193 194
h140z" />
    <glyph glyph-name="uni01D8" unicode="&#x1d8;" horiz-adv-x="1200" 
d="M1044 1027h99l-218 -1027h-96l42 196q-45 -61 -112 -110.5t-147 -78.5t-161 -29q-157 0 -247.5 81.5t-90.5 231.5q0 54 14 121l131 615h101l-129 -603q-13 -59 -13 -112q0 -117 66.5 -178.5t191.5 -61.5q90 0 181 44t161 123t97 177zM529.5 1229q-16.5 16 -16.5 42
q0 37 27 63.5t65 26.5q28 0 45 -15.5t17 -41.5q0 -37 -28.5 -64t-64.5 -27q-28 0 -44.5 16zM864.5 1229q-16.5 16 -16.5 42q0 37 27.5 63.5t64.5 26.5q28 0 45 -15.5t17 -40.5q0 -38 -28 -65t-65 -27q-28 0 -44.5 16zM1070 1677l-229 -252h-92l192 252h129z" />
    <glyph glyph-name="uni01D9" unicode="&#x1d9;" horiz-adv-x="1462" 
d="M369 30q-103 55 -155 155.5t-52 236.5q0 82 20 179l172 805h104l-171 -801q-20 -94 -20 -173q0 -168 89.5 -263t266.5 -95q148 0 270.5 66.5t204.5 186.5t116 278l170 801h104l-172 -806q-39 -185 -134.5 -326t-239 -220t-321.5 -79q-149 0 -252 55zM710.5 1518
q-16.5 16 -16.5 42q0 37 27 63.5t65 26.5q28 0 45 -15.5t17 -41.5q0 -37 -28.5 -64t-64.5 -27q-28 0 -44.5 16zM1045.5 1518q-16.5 16 -16.5 42q0 37 27.5 63.5t64.5 26.5q28 0 45 -15.5t17 -40.5q0 -38 -28 -65t-65 -27q-28 0 -44.5 16zM775 1847l50 65l154 -119l206 119
l36 -65l-238 -149h-32z" />
    <glyph glyph-name="uni01DA" unicode="&#x1da;" horiz-adv-x="1200" 
d="M1044 1027h99l-218 -1027h-96l42 196q-45 -61 -112 -110.5t-147 -78.5t-161 -29q-157 0 -247.5 81.5t-90.5 231.5q0 54 14 121l131 615h101l-129 -603q-13 -59 -13 -112q0 -117 66.5 -178.5t191.5 -61.5q90 0 181 44t161 123t97 177zM529.5 1229q-16.5 16 -16.5 42
q0 37 27 63.5t65 26.5q28 0 45 -15.5t17 -41.5q0 -37 -28.5 -64t-64.5 -27q-28 0 -44.5 16zM864.5 1229q-16.5 16 -16.5 42q0 37 27.5 63.5t64.5 26.5q28 0 45 -15.5t17 -40.5q0 -38 -28 -65t-65 -27q-28 0 -44.5 16zM582 1596l57 61l158 -146l221 146l45 -61l-257 -181h-44
z" />
    <glyph glyph-name="uni01DB" unicode="&#x1db;" horiz-adv-x="1462" 
d="M369 30q-103 55 -155 155.5t-52 236.5q0 82 20 179l172 805h104l-171 -801q-20 -94 -20 -173q0 -168 89.5 -263t266.5 -95q148 0 270.5 66.5t204.5 186.5t116 278l170 801h104l-172 -806q-39 -185 -134.5 -326t-239 -220t-321.5 -79q-149 0 -252 55zM710.5 1518
q-16.5 16 -16.5 42q0 37 27 63.5t65 26.5q28 0 45 -15.5t17 -41.5q0 -37 -28.5 -64t-64.5 -27q-28 0 -44.5 16zM1045.5 1518q-16.5 16 -16.5 42q0 37 27.5 63.5t64.5 26.5q28 0 45 -15.5t17 -40.5q0 -38 -28 -65t-65 -27q-28 0 -44.5 16zM1028 1697h-95l-155 194h133z" />
    <glyph glyph-name="uni01DC" unicode="&#x1dc;" horiz-adv-x="1200" 
d="M1044 1027h99l-218 -1027h-96l42 196q-45 -61 -112 -110.5t-147 -78.5t-161 -29q-157 0 -247.5 81.5t-90.5 231.5q0 54 14 121l131 615h101l-129 -603q-13 -59 -13 -112q0 -117 66.5 -178.5t191.5 -61.5q90 0 181 44t161 123t97 177zM529.5 1229q-16.5 16 -16.5 42
q0 37 27 63.5t65 26.5q28 0 45 -15.5t17 -41.5q0 -37 -28.5 -64t-64.5 -27q-28 0 -44.5 16zM864.5 1229q-16.5 16 -16.5 42q0 37 27.5 63.5t64.5 26.5q28 0 45 -15.5t17 -40.5q0 -38 -28 -65t-65 -27q-28 0 -44.5 16zM888 1425h-82l-122 252h117z" />
    <glyph glyph-name="uni01DE" unicode="&#x1de;" horiz-adv-x="1289" 
d="M1160 0h-108l-70 371h-726l-226 -371h-119l871 1406h104zM802 1268l-489 -803h652l-151 803l-3 17zM642.5 1518q-16.5 16 -16.5 42q0 37 27 63.5t65 26.5q28 0 45 -15.5t17 -41.5q0 -37 -28.5 -64t-64.5 -27q-28 0 -44.5 16zM977.5 1518q-16.5 16 -16.5 42
q0 37 27.5 63.5t64.5 26.5q28 0 45 -15.5t17 -40.5q0 -38 -28 -65t-65 -27q-28 0 -44.5 16zM1103 1701h-413l18 81h413z" />
    <glyph glyph-name="uni01DF" unicode="&#x1df;" horiz-adv-x="1274" 
d="M1217 1027l-89 -420l-129 -607h-98l42 196q-77 -101 -182 -161t-229 -60q-122 0 -223.5 60.5t-161 169t-59.5 243.5q0 149 73 288t202.5 225.5t290.5 86.5q145 0 254 -77t153 -209l3 17l53 248h100zM793.5 149.5q107.5 77.5 166.5 195t59 229.5q0 114 -48.5 199.5
t-131.5 131.5t-185 46q-134 0 -241 -71t-167 -186t-60 -241q0 -111 49.5 -197.5t133 -135t181.5 -48.5q136 0 243.5 77.5zM554.5 1227q-16.5 16 -16.5 42q0 37 27 63.5t65 26.5q28 0 45 -15.5t17 -41.5q0 -37 -28.5 -64t-64.5 -27q-28 0 -44.5 16zM889.5 1227
q-16.5 16 -16.5 42q0 37 27.5 63.5t64.5 26.5q28 0 45 -15.5t17 -40.5q0 -38 -28 -65t-65 -27q-28 0 -44.5 16zM1019 1426h-413l18 81h413z" />
    <glyph glyph-name="uni01E0" unicode="&#x1e0;" horiz-adv-x="1289" 
d="M1160 0h-108l-70 371h-726l-226 -371h-119l871 1406h104zM802 1268l-489 -803h652l-151 803l-3 17zM808.5 1517q-17.5 17 -17.5 44q0 39 28.5 66t67.5 27q28 0 46 -16.5t18 -42.5q0 -39 -29.5 -67t-66.5 -28q-29 0 -46.5 17zM1103 1698h-413l18 81h413z" />
    <glyph glyph-name="uni01E1" unicode="&#x1e1;" horiz-adv-x="1274" 
d="M1217 1027l-89 -420l-129 -607h-98l42 196q-77 -101 -182 -161t-229 -60q-122 0 -223.5 60.5t-161 169t-59.5 243.5q0 149 73 288t202.5 225.5t290.5 86.5q145 0 254 -77t153 -209l3 17l53 248h100zM793.5 149.5q107.5 77.5 166.5 195t59 229.5q0 114 -48.5 199.5
t-131.5 131.5t-185 46q-134 0 -241 -71t-167 -186t-60 -241q0 -111 49.5 -197.5t133 -135t181.5 -48.5q136 0 243.5 77.5zM719.5 1225q-17.5 17 -17.5 44q0 39 28.5 66t67.5 27q28 0 46 -16.5t18 -42.5q0 -39 -29.5 -67t-66.5 -28q-29 0 -46.5 17zM1016 1417h-413l18 81h413
z" />
    <glyph glyph-name="uni01E2" unicode="&#x1e2;" horiz-adv-x="2216" 
d="M2289 1405l-21 -98h-865l-113 -533h712l-20 -97h-713l-123 -578h879l-20 -99h-983l78 369h-702l-361 -369h-126l1387 1405h991zM493 467h628l174 820zM2049 1506h-413l18 81h413z" />
    <glyph glyph-name="uni01E3" unicode="&#x1e3;" horiz-adv-x="2093" 
d="M1822.5 998.5q93.5 -51.5 145 -142t51.5 -202.5q0 -85 -24 -181h-859q-1 -11 -1 -32q0 -111 51 -195.5t137 -130.5t188 -46q76 0 163 26.5t158 83.5l44 -74q-80 -66 -182 -98t-188 -32q-148 0 -264 73.5t-169 198.5l-65 -247h-64l41 250q-91 -125 -223 -199.5t-275 -74.5
q-119 0 -213 53.5t-146.5 148.5t-52.5 215q0 59 13 118q31 147 127 270.5t229 195.5t270 72q143 0 243.5 -76t138.5 -202l69 256h61l-27 -169q78 90 183 141t228 51q119 0 212.5 -51.5zM742 127q110 58 189.5 159.5t105.5 224.5q11 53 11 97q0 100 -44 179t-122 123.5
t-177 44.5q-114 0 -224 -59t-189 -161t-105 -224q-11 -53 -11 -99q0 -99 43.5 -177t121.5 -122t176 -44q115 0 225 58zM1918 565q4 29 4 69q0 96 -39.5 168.5t-111.5 112.5t-165 40q-114 0 -209 -52.5t-158.5 -141.5t-88.5 -196h768zM1399 1219h-413l18 81h413z" />
    <glyph glyph-name="Gcaron" unicode="&#x1e6;" horiz-adv-x="1432" 
d="M565 1221.5q-153 -106.5 -236 -271t-83 -330.5q0 -158 66 -281.5t182 -193t262 -69.5q91 0 193.5 29t187.5 80l94 443h100l-104 -491q-115 -77 -242 -119t-250 -42q-171 0 -307 80t-212.5 224.5t-76.5 329.5q0 194 99 384.5t280.5 312.5t414.5 122q147 0 269.5 -56.5
t211.5 -162.5l-77 -69q-163 187 -420 187q-199 0 -352 -106.5zM789 1652l50 65l154 -119l206 119l36 -65l-238 -149h-32z" />
    <glyph glyph-name="gcaron" unicode="&#x1e7;" horiz-adv-x="1272" 
d="M1216 1027l-129 -607v-1l-57 -266q-52 -248 -195.5 -390t-379.5 -142q-105 0 -207.5 22.5t-167.5 56.5l43 84q65 -31 159.5 -50t185.5 -19q194 0 309.5 123.5t154.5 319.5l10 45l6 24q-77 -94 -183 -149.5t-234 -55.5q-122 0 -223 56t-159.5 156t-58.5 228
q0 142 72.5 278t201.5 222t289 86q98 0 181.5 -36.5t143 -104t86.5 -158.5l8 62l46 216h98zM792 185q108 67 167 172.5t59 216.5q0 114 -48 199.5t-131 131.5t-184 46q-135 0 -241.5 -70.5t-166 -182t-59.5 -230.5q0 -103 48.5 -183t130 -123.5t178.5 -43.5q139 0 247 67z
M549 1392l57 61l158 -146l221 146l45 -61l-257 -181h-44z" />
    <glyph glyph-name="uni01E8" unicode="&#x1e8;" horiz-adv-x="1355" 
d="M1252 1405h150l-665 -589l481 -816h-115l-443 748l-371 -329l-89 -419h-104l298 1405h104l-174 -822zM676 1652l50 65l154 -119l206 119l36 -65l-238 -149h-32z" />
    <glyph glyph-name="uni01E9" unicode="&#x1e9;" horiz-adv-x="1085" 
d="M947 1027h145l-519 -419l363 -608h-111l-328 547l-271 -219l-70 -328h-100l318 1495h99l-218 -1028zM239 1654l50 65l154 -119l206 119l36 -65l-238 -149h-32z" />
    <glyph glyph-name="uni01EA" unicode="&#x1ea;" horiz-adv-x="1610" 
d="M1063 -9.5q-31 -45.5 -31 -81.5q0 -25 18.5 -41.5t57.5 -16.5q26 0 60 7l-10 -68q-25 -8 -43.5 -10.5t-42.5 -2.5q-68 0 -101 28.5t-33 74.5q0 28 14.5 62t40.5 69q-113 -36 -229 -36q-181 0 -322.5 81t-220.5 226t-79 332q0 209 102.5 397.5t283 303.5t400.5 115
q181 0 322 -80.5t219.5 -225.5t78.5 -334q0 -140 -48 -274.5t-136.5 -245.5t-206.5 -184q-63 -50 -94 -95.5zM314 340q67 -125 186.5 -194.5t271.5 -69.5q190 0 343.5 99t240.5 261t87 342q0 163 -66.5 288t-185.5 194t-270 69q-190 0 -344.5 -99t-242 -260.5t-87.5 -342.5
q0 -162 67 -287z" />
    <glyph glyph-name="uni01EB" unicode="&#x1eb;" horiz-adv-x="1254" 
d="M764 -39q-35 -48 -35 -84q0 -25 18 -41.5t56 -16.5q23 0 59 6l-8 -61q-25 -8 -43.5 -10.5t-42.5 -2.5q-62 0 -94 27.5t-32 71.5q0 13 3 27q11 54 72 117q-75 -20 -155 -20q-133 0 -242 59t-172 164t-63 237q0 153 76.5 295.5t215 231t313.5 88.5q134 0 243 -59
t172 -163.5t63 -236.5q0 -105 -37 -207.5t-106.5 -188t-164.5 -140.5q-61 -45 -96 -93zM237 248q51 -84 138 -130.5t192 -46.5q148 0 262 74t176 192t62 246q0 108 -51.5 192.5t-139 131t-191.5 46.5q-148 0 -262 -74t-175.5 -192.5t-61.5 -246.5q0 -108 51 -192z" />
    <glyph glyph-name="uni01EC" unicode="&#x1ec;" horiz-adv-x="1610" 
d="M824 1605h413l-17 -82h-413zM1063 -9.5q-31 -45.5 -31 -81.5q0 -25 18.5 -41.5t57.5 -16.5q26 0 60 7l-10 -68q-25 -8 -43.5 -10.5t-42.5 -2.5q-68 0 -101 28.5t-33 74.5q0 28 14.5 62t40.5 69q-113 -36 -229 -36q-181 0 -322.5 81t-220.5 226t-79 332q0 209 102.5 397.5
t283 303.5t400.5 115q181 0 322 -80.5t219.5 -225.5t78.5 -334q0 -140 -48 -274.5t-136.5 -245.5t-206.5 -184q-63 -50 -94 -95.5zM314 340q67 -125 186.5 -194.5t271.5 -69.5q190 0 343.5 99t240.5 261t87 342q0 163 -66.5 288t-185.5 194t-270 69q-190 0 -344.5 -99
t-242 -260.5t-87.5 -342.5q0 -162 67 -287z" />
    <glyph glyph-name="uni01ED" unicode="&#x1ed;" horiz-adv-x="1254" 
d="M580 1301h413l-18 -81h-413zM764 -39q-35 -48 -35 -84q0 -25 18 -41.5t56 -16.5q23 0 59 6l-8 -61q-25 -8 -43.5 -10.5t-42.5 -2.5q-62 0 -94 27.5t-32 71.5q0 13 3 27q11 54 72 117q-75 -20 -155 -20q-133 0 -242 59t-172 164t-63 237q0 153 76.5 295.5t215 231
t313.5 88.5q134 0 243 -59t172 -163.5t63 -236.5q0 -105 -37 -207.5t-106.5 -188t-164.5 -140.5q-61 -45 -96 -93zM237 248q51 -84 138 -130.5t192 -46.5q148 0 262 74t176 192t62 246q0 108 -51.5 192.5t-139 131t-191.5 46.5q-148 0 -262 -74t-175.5 -192.5t-61.5 -246.5
q0 -108 51 -192z" />
    <glyph glyph-name="uni01F0" unicode="&#x1f0;" horiz-adv-x="438" 
d="M-231 -368l19 91h18q198 0 250 243l226 1061h99l-225 -1058q-34 -158 -126 -247.5t-234 -89.5h-27zM164 1386l57 61l158 -146l221 146l45 -61l-257 -181h-44z" />
    <glyph glyph-name="uni01F1" unicode="&#x1f1;" horiz-adv-x="2730" 
d="M96 0l298 1405h441q180 0 319 -72t216.5 -198.5t77.5 -286.5q0 -210 -116 -406.5t-318.5 -319t-447.5 -122.5h-470zM568 98q217 0 394 108.5t278 278.5t101 344q0 138 -61 246.5t-174.5 169.5t-265.5 61h-362l-257 -1208h347zM2509 0h-1059l18 83l1178 1226h-901l20 96
h1050l-17 -80l-1180 -1229h911z" />
    <glyph glyph-name="uni01F2" unicode="&#x1f2;" horiz-adv-x="2436" 
d="M96 0l298 1405h441q180 0 319 -72t216.5 -198.5t77.5 -286.5q0 -210 -116 -406.5t-318.5 -319t-447.5 -122.5h-470zM568 98q217 0 394 108.5t278 278.5t101 344q0 138 -61 246.5t-174.5 169.5t-265.5 61h-362l-257 -1208h347zM2269 0h-803l15 71l826 865h-623l19 91h771
l-15 -70l-833 -866h662z" />
    <glyph glyph-name="uni01F3" unicode="&#x1f3;" horiz-adv-x="2215" 
d="M1316 1495l-188 -888l-129 -607h-98l42 196q-77 -101 -182 -161t-229 -60q-122 0 -223.5 60.5t-161 169t-59.5 243.5q0 149 73 288t202.5 225.5t290.5 86.5q97 0 179 -35.5t141 -100.5t88 -153l8 46l146 690h100zM793.5 149.5q107.5 77.5 166.5 195t59 229.5
q0 114 -48.5 199.5t-131.5 131.5t-185 46q-134 0 -241 -71t-167 -186t-60 -241q0 -111 49.5 -197.5t133 -135t181.5 -48.5q136 0 243.5 77.5zM2048 0h-803l15 71l826 865h-623l19 91h771l-15 -70l-833 -866h662z" />
    <glyph glyph-name="uni01F4" unicode="&#x1f4;" horiz-adv-x="1432" 
d="M565 1221.5q-153 -106.5 -236 -271t-83 -330.5q0 -158 66 -281.5t182 -193t262 -69.5q91 0 193.5 29t187.5 80l94 443h100l-104 -491q-115 -77 -242 -119t-250 -42q-171 0 -307 80t-212.5 224.5t-76.5 329.5q0 194 99 384.5t280.5 312.5t414.5 122q147 0 269.5 -56.5
t211.5 -162.5l-77 -69q-163 187 -420 187q-199 0 -352 -106.5zM1216 1696l-237 -194h-96l193 194h140z" />
    <glyph glyph-name="uni01F5" unicode="&#x1f5;" horiz-adv-x="1272" 
d="M1216 1027l-129 -607v-1l-57 -266q-52 -248 -195.5 -390t-379.5 -142q-105 0 -207.5 22.5t-167.5 56.5l43 84q65 -31 159.5 -50t185.5 -19q194 0 309.5 123.5t154.5 319.5l10 45l6 24q-77 -94 -183 -149.5t-234 -55.5q-122 0 -223 56t-159.5 156t-58.5 228
q0 142 72.5 278t201.5 222t289 86q98 0 181.5 -36.5t143 -104t86.5 -158.5l8 62l46 216h98zM792 185q108 67 167 172.5t59 216.5q0 114 -48 199.5t-131 131.5t-184 46q-135 0 -241.5 -70.5t-166 -182t-59.5 -230.5q0 -103 48.5 -183t130 -123.5t178.5 -43.5q139 0 247 67z
M1037 1473l-229 -252h-92l192 252h129z" />
    <glyph glyph-name="uni01F8" unicode="&#x1f8;" horiz-adv-x="1569" 
d="M200 0h-104l298 1405h88l706 -1232l261 1232h104l-298 -1405h-86l-707 1234zM1040 1502h-95l-155 194h133z" />
    <glyph glyph-name="uni01F9" unicode="&#x1f9;" horiz-adv-x="1200" 
d="M996 968.5q90 -81.5 90 -230.5q0 -54 -14 -122l-131 -616h-100l128 603q13 59 13 113q0 117 -66 178.5t-191 61.5q-93 0 -187.5 -47.5t-164.5 -131.5t-92 -188v2l-125 -591h-100l219 1027h96l-42 -196q45 61 112 111t147 79t161 29q157 0 247 -81.5zM878 1220h-82
l-122 252h117z" />
    <glyph glyph-name="Aringacute" unicode="&#x1fa;" horiz-adv-x="1289" 
d="M1160 0h-108l-70 371h-726l-226 -371h-119l871 1406h104zM802 1268l-489 -803h652l-151 803l-3 17zM779.5 1522.5q-29.5 26.5 -29.5 71.5q0 10 4 32q12 58 56.5 94t104.5 36q52 0 81.5 -27t29.5 -72q0 -14 -3 -31q-12 -58 -57.5 -94t-105.5 -36q-51 0 -80.5 26.5z
M938 1579q27 26 27 65q0 25 -17 40t-45 15q-39 0 -65.5 -26t-26.5 -65q0 -25 16 -40t45 -15q39 0 66 26zM1149 1981l-237 -194h-96l193 194h140z" />
    <glyph glyph-name="aringacute" unicode="&#x1fb;" horiz-adv-x="1274" 
d="M1217 1027l-89 -420l-129 -607h-98l42 196q-77 -101 -182 -161t-229 -60q-122 0 -223.5 60.5t-161 169t-59.5 243.5q0 149 73 288t202.5 225.5t290.5 86.5q145 0 254 -77t153 -209l3 17l53 248h100zM793.5 149.5q107.5 77.5 166.5 195t59 229.5q0 114 -48.5 199.5
t-131.5 131.5t-185 46q-134 0 -241 -71t-167 -186t-60 -241q0 -111 49.5 -197.5t133 -135t181.5 -48.5q136 0 243.5 77.5zM682 1234.5q-30 27.5 -30 73.5q0 10 4 32q13 58 58.5 95t105.5 37q52 0 82.5 -27.5t30.5 -72.5q0 -10 -4 -32q-12 -59 -58 -96t-107 -37
q-52 0 -82 27.5zM836 1286q25 21 33 54q2 12 2 18q0 26 -16.5 41t-46.5 15q-34 0 -59 -20.5t-33 -53.5q-2 -12 -2 -18q0 -26 16.5 -41.5t46.5 -15.5q34 0 59 21zM1114 1769l-229 -252h-92l192 252h129z" />
    <glyph glyph-name="AEacute" unicode="&#x1fc;" horiz-adv-x="2216" 
d="M2289 1405l-21 -98h-865l-113 -533h712l-20 -97h-713l-123 -578h879l-20 -99h-983l78 369h-702l-361 -369h-126l1387 1405h991zM493 467h628l174 820zM2080 1696l-237 -194h-96l193 194h140z" />
    <glyph glyph-name="aeacute" unicode="&#x1fd;" horiz-adv-x="2093" 
d="M1822.5 998.5q93.5 -51.5 145 -142t51.5 -202.5q0 -85 -24 -181h-859q-1 -11 -1 -32q0 -111 51 -195.5t137 -130.5t188 -46q76 0 163 26.5t158 83.5l44 -74q-80 -66 -182 -98t-188 -32q-148 0 -264 73.5t-169 198.5l-65 -247h-64l41 250q-91 -125 -223 -199.5t-275 -74.5
q-119 0 -213 53.5t-146.5 148.5t-52.5 215q0 59 13 118q31 147 127 270.5t229 195.5t270 72q143 0 243.5 -76t138.5 -202l69 256h61l-27 -169q78 90 183 141t228 51q119 0 212.5 -51.5zM742 127q110 58 189.5 159.5t105.5 224.5q11 53 11 97q0 100 -44 179t-122 123.5
t-177 44.5q-114 0 -224 -59t-189 -161t-105 -224q-11 -53 -11 -99q0 -99 43.5 -177t121.5 -122t176 -44q115 0 225 58zM1918 565q4 29 4 69q0 96 -39.5 168.5t-111.5 112.5t-165 40q-114 0 -209 -52.5t-158.5 -141.5t-88.5 -196h768zM1476 1467l-229 -252h-92l192 252h129z
" />
    <glyph glyph-name="Oslashacute" unicode="&#x1fe;" horiz-adv-x="1610" 
d="M1369 1260q86 -86 132.5 -206t46.5 -264q0 -209 -102.5 -397t-282 -303t-399.5 -115q-108 0 -203.5 30t-173.5 86l-146 -174h-127l200 238q-83 85 -127.5 202.5t-44.5 256.5q0 209 102.5 397.5t283 303.5t400.5 115q105 0 198 -28t169 -81l143 170h125zM283 411
q36 -99 102 -172l840 999q-63 45 -140 68t-164 23q-190 0 -344.5 -99t-242 -260.5t-87.5 -342.5q0 -117 36 -216zM1115.5 175q153.5 99 240.5 261t87 342q0 121 -37.5 222.5t-107.5 175.5l-841 -1002q64 -48 144 -73t171 -25q190 0 343.5 99zM1253 1696l-237 -194h-96
l193 194h140z" />
    <glyph glyph-name="oslashacute" unicode="&#x1ff;" horiz-adv-x="1254" 
d="M1247 1062l-183 -178q50 -60 77 -134.5t27 -159.5q0 -153 -77 -295.5t-215.5 -231.5t-313.5 -89q-92 0 -174 29t-146 83l-127 -124h-108l182 177q-50 60 -77 135t-27 160q0 153 76.5 295.5t215 231t313.5 88.5q92 0 174 -29t146 -82l128 124h109zM263 211l674 655
q-51 42 -115.5 64.5t-136.5 22.5q-148 0 -262 -74t-175.5 -192.5t-61.5 -246.5q0 -131 77 -229zM1047 707.5q-20 58.5 -57 104.5l-674 -655q51 -42 115 -64t136 -22q148 0 262 74t176 192t62 246q0 66 -20 124.5zM1037 1467l-229 -252h-92l192 252h129z" />
    <glyph glyph-name="uni0200" unicode="&#x200;" horiz-adv-x="1289" 
d="M1160 0h-108l-70 371h-726l-226 -371h-119l871 1406h104zM802 1268l-489 -803h652l-151 803l-3 17zM805 1493h-92l-152 190h130zM1019 1493h-92l-152 190h130z" />
    <glyph glyph-name="uni0201" unicode="&#x201;" horiz-adv-x="1274" 
d="M1217 1027l-89 -420l-129 -607h-98l42 196q-77 -101 -182 -161t-229 -60q-122 0 -223.5 60.5t-161 169t-59.5 243.5q0 149 73 288t202.5 225.5t290.5 86.5q145 0 254 -77t153 -209l3 17l53 248h100zM793.5 149.5q107.5 77.5 166.5 195t59 229.5q0 114 -48.5 199.5
t-131.5 131.5t-185 46q-134 0 -241 -71t-167 -186t-60 -241q0 -111 49.5 -197.5t133 -135t181.5 -48.5q136 0 243.5 77.5zM741 1208h-80l-119 247h114zM956 1209h-81l-118 246h113z" />
    <glyph glyph-name="uni0202" unicode="&#x202;" horiz-adv-x="1289" 
d="M1160 0h-108l-70 371h-726l-226 -371h-119l871 1406h104zM802 1268l-489 -803h652l-151 803l-3 17zM1027 1654q44 -44 44 -115q0 -25 -4 -46h-87q5 23 5 41q0 40 -24.5 63t-78.5 23q-65 0 -102.5 -34.5t-48.5 -92.5h-90q13 56 48 103t88 74.5t120 27.5q86 0 130 -44z" />
    <glyph glyph-name="uni0203" unicode="&#x203;" horiz-adv-x="1274" 
d="M1217 1027l-89 -420l-129 -607h-98l42 196q-77 -101 -182 -161t-229 -60q-122 0 -223.5 60.5t-161 169t-59.5 243.5q0 149 73 288t202.5 225.5t290.5 86.5q145 0 254 -77t153 -209l3 17l53 248h100zM793.5 149.5q107.5 77.5 166.5 195t59 229.5q0 114 -48.5 199.5
t-131.5 131.5t-185 46q-134 0 -241 -71t-167 -186t-60 -241q0 -111 49.5 -197.5t133 -135t181.5 -48.5q136 0 243.5 77.5zM948 1383q47 -46 47 -123q0 -21 -5 -51h-89q6 24 6 46q0 46 -27.5 71.5t-80.5 25.5q-64 0 -106 -37.5t-56 -105.5h-89q23 98 95.5 159t172.5 61
q85 0 132 -46z" />
    <glyph glyph-name="uni0204" unicode="&#x204;" horiz-adv-x="1290" 
d="M1079 0h-983l298 1405h969l-21 -98h-865l-113 -533h712l-20 -97h-713l-123 -578h879zM839 1493h-92l-152 190h130zM1053 1493h-92l-152 190h130z" />
    <glyph glyph-name="uni0205" unicode="&#x205;" horiz-adv-x="1142" 
d="M871.5 998.5q93.5 -51.5 145 -142t51.5 -202.5q0 -85 -24 -181h-859q-1 -11 -1 -32q0 -111 51 -195.5t137 -130.5t188 -46q76 0 163 26.5t158 83.5l44 -74q-80 -66 -182 -98t-188 -32q-132 0 -239.5 59t-169 164t-61.5 238q0 150 73.5 292.5t205 232t295.5 89.5
q119 0 212.5 -51.5zM967 565q4 29 4 69q0 96 -39.5 168.5t-111.5 112.5t-165 40q-114 0 -209 -52.5t-158.5 -141.5t-88.5 -196h768zM696 1211h-80l-119 247h114zM911 1212h-81l-118 246h113z" />
    <glyph glyph-name="uni0206" unicode="&#x206;" horiz-adv-x="1290" 
d="M1079 0h-983l298 1405h969l-21 -98h-865l-113 -533h712l-20 -97h-713l-123 -578h879zM1061 1654q44 -44 44 -115q0 -25 -4 -46h-87q5 23 5 41q0 40 -24.5 63t-78.5 23q-65 0 -102.5 -34.5t-48.5 -92.5h-90q13 56 48 103t88 74.5t120 27.5q86 0 130 -44z" />
    <glyph glyph-name="uni0207" unicode="&#x207;" horiz-adv-x="1142" 
d="M871.5 998.5q93.5 -51.5 145 -142t51.5 -202.5q0 -85 -24 -181h-859q-1 -11 -1 -32q0 -111 51 -195.5t137 -130.5t188 -46q76 0 163 26.5t158 83.5l44 -74q-80 -66 -182 -98t-188 -32q-132 0 -239.5 59t-169 164t-61.5 238q0 150 73.5 292.5t205 232t295.5 89.5
q119 0 212.5 -51.5zM967 565q4 29 4 69q0 96 -39.5 168.5t-111.5 112.5t-165 40q-114 0 -209 -52.5t-158.5 -141.5t-88.5 -196h768zM903 1385q47 -46 47 -123q0 -21 -5 -51h-89q6 24 6 46q0 46 -27.5 71.5t-80.5 25.5q-64 0 -106 -37.5t-56 -105.5h-89q23 98 95.5 159
t172.5 61q85 0 132 -46z" />
    <glyph glyph-name="uni0208" unicode="&#x208;" horiz-adv-x="513" 
d="M199 0h-103l298 1405h104zM415 1493h-92l-152 190h130zM629 1493h-92l-152 190h130z" />
    <glyph glyph-name="uni0209" unicode="&#x209;" horiz-adv-x="430" 
d="M155 0h-99l219 1027h99zM336 1211h-80l-119 247h114zM551 1212h-81l-118 246h113z" />
    <glyph glyph-name="uni020A" unicode="&#x20a;" horiz-adv-x="513" 
d="M199 0h-103l298 1405h104zM637 1654q44 -44 44 -115q0 -25 -4 -46h-87q5 23 5 41q0 40 -24.5 63t-78.5 23q-65 0 -102.5 -34.5t-48.5 -92.5h-90q13 56 48 103t88 74.5t120 27.5q86 0 130 -44z" />
    <glyph glyph-name="uni020B" unicode="&#x20b;" horiz-adv-x="430" 
d="M155 0h-99l219 1027h99zM543 1385q47 -46 47 -123q0 -21 -5 -51h-89q6 24 6 46q0 46 -27.5 71.5t-80.5 25.5q-64 0 -106 -37.5t-56 -105.5h-89q23 98 95.5 159t172.5 61q85 0 132 -46z" />
    <glyph glyph-name="uni020C" unicode="&#x20c;" horiz-adv-x="1610" 
d="M441.5 56q-141.5 81 -220.5 226t-79 332q0 209 102.5 397.5t283 303.5t400.5 115q181 0 322 -80.5t219.5 -225.5t78.5 -334q0 -209 -102.5 -397t-282 -303t-399.5 -115q-181 0 -322.5 81zM1115.5 175q153.5 99 240.5 261t87 342q0 163 -66.5 288t-185.5 194t-270 69
q-190 0 -344.5 -99t-242 -260.5t-87.5 -342.5q0 -162 67 -287t186.5 -194.5t271.5 -69.5q190 0 343.5 99zM963 1510h-92l-152 190h130zM1177 1510h-92l-152 190h130z" />
    <glyph glyph-name="uni020D" unicode="&#x20d;" horiz-adv-x="1254" 
d="M320 33q-109 59 -172 164t-63 237q0 153 76.5 295.5t215 231t313.5 88.5q134 0 243 -59t172 -163.5t63 -236.5q0 -153 -77 -295.5t-215.5 -231.5t-313.5 -89q-133 0 -242 59zM829 145q114 74 176 192t62 246q0 108 -51.5 192.5t-139 131t-191.5 46.5q-148 0 -262 -74
t-175.5 -192.5t-61.5 -246.5q0 -108 51 -192t138 -130.5t192 -46.5q148 0 262 74zM742 1212h-80l-119 247h114zM957 1213h-81l-118 246h113z" />
    <glyph glyph-name="uni020E" unicode="&#x20e;" horiz-adv-x="1610" 
d="M441.5 56q-141.5 81 -220.5 226t-79 332q0 209 102.5 397.5t283 303.5t400.5 115q181 0 322 -80.5t219.5 -225.5t78.5 -334q0 -209 -102.5 -397t-282 -303t-399.5 -115q-181 0 -322.5 81zM1115.5 175q153.5 99 240.5 261t87 342q0 163 -66.5 288t-185.5 194t-270 69
q-190 0 -344.5 -99t-242 -260.5t-87.5 -342.5q0 -162 67 -287t186.5 -194.5t271.5 -69.5q190 0 343.5 99zM1184 1671q44 -44 44 -115q0 -25 -4 -46h-87q5 23 5 41q0 40 -24.5 63t-78.5 23q-65 0 -102.5 -34.5t-48.5 -92.5h-90q13 56 48 103t88 74.5t120 27.5q86 0 130 -44z
" />
    <glyph glyph-name="uni020F" unicode="&#x20f;" horiz-adv-x="1254" 
d="M320 33q-109 59 -172 164t-63 237q0 153 76.5 295.5t215 231t313.5 88.5q134 0 243 -59t172 -163.5t63 -236.5q0 -153 -77 -295.5t-215.5 -231.5t-313.5 -89q-133 0 -242 59zM829 145q114 74 176 192t62 246q0 108 -51.5 192.5t-139 131t-191.5 46.5q-148 0 -262 -74
t-175.5 -192.5t-61.5 -246.5q0 -108 51 -192t138 -130.5t192 -46.5q148 0 262 74zM949 1386q47 -46 47 -123q0 -21 -5 -51h-89q6 24 6 46q0 46 -27.5 71.5t-80.5 25.5q-64 0 -106 -37.5t-56 -105.5h-89q23 98 95.5 159t172.5 61q85 0 132 -46z" />
    <glyph glyph-name="uni0210" unicode="&#x210;" horiz-adv-x="1281" 
d="M1258 849q-45 -102 -130.5 -181t-202.5 -118l136 -550h-107l-127 526q-54 -9 -114 -9h-404l-110 -517h-103l298 1405h501q124 0 216 -41t142 -118.5t50 -184.5q0 -110 -45 -212zM729 612q140 0 246 63.5t162.5 164.5t56.5 209q0 122 -79 190.5t-221 68.5h-417l-147 -696
h399zM743 1493h-92l-152 190h130zM957 1493h-92l-152 190h130z" />
    <glyph glyph-name="uni0211" unicode="&#x211;" horiz-adv-x="834" 
d="M801 1030q55 -18 105 -54l-62 -81q-42 30 -88.5 44.5t-90.5 14.5q-82 0 -162 -48t-141 -135t-85 -200v1l-121 -572h-100l219 1027h96l-44 -207q60 104 154 166t210 62q55 0 110 -18zM512 1211h-80l-119 247h114zM727 1212h-81l-118 246h113z" />
    <glyph glyph-name="uni0212" unicode="&#x212;" horiz-adv-x="1281" 
d="M1258 849q-45 -102 -130.5 -181t-202.5 -118l136 -550h-107l-127 526q-54 -9 -114 -9h-404l-110 -517h-103l298 1405h501q124 0 216 -41t142 -118.5t50 -184.5q0 -110 -45 -212zM729 612q140 0 246 63.5t162.5 164.5t56.5 209q0 122 -79 190.5t-221 68.5h-417l-147 -696
h399zM964 1654q44 -44 44 -115q0 -25 -4 -46h-87q5 23 5 41q0 40 -24.5 63t-78.5 23q-65 0 -102.5 -34.5t-48.5 -92.5h-90q13 56 48 103t88 74.5t120 27.5q86 0 130 -44z" />
    <glyph glyph-name="uni0213" unicode="&#x213;" horiz-adv-x="834" 
d="M801 1030q55 -18 105 -54l-62 -81q-42 30 -88.5 44.5t-90.5 14.5q-82 0 -162 -48t-141 -135t-85 -200v1l-121 -572h-100l219 1027h96l-44 -207q60 104 154 166t210 62q55 0 110 -18zM719 1385q47 -46 47 -123q0 -21 -5 -51h-89q6 24 6 46q0 46 -27.5 71.5t-80.5 25.5
q-64 0 -106 -37.5t-56 -105.5h-89q23 98 95.5 159t172.5 61q85 0 132 -46z" />
    <glyph glyph-name="uni0214" unicode="&#x214;" horiz-adv-x="1462" 
d="M369 30q-103 55 -155 155.5t-52 236.5q0 82 20 179l172 805h104l-171 -801q-20 -94 -20 -173q0 -168 89.5 -263t266.5 -95q148 0 270.5 66.5t204.5 186.5t116 278l170 801h104l-172 -806q-39 -185 -134.5 -326t-239 -220t-321.5 -79q-149 0 -252 55zM873 1493h-92
l-152 190h130zM1087 1493h-92l-152 190h130z" />
    <glyph glyph-name="uni0215" unicode="&#x215;" horiz-adv-x="1200" 
d="M1044 1027h99l-218 -1027h-96l42 196q-45 -61 -112 -110.5t-147 -78.5t-161 -29q-157 0 -247.5 81.5t-90.5 231.5q0 54 14 121l131 615h101l-129 -603q-13 -59 -13 -112q0 -117 66.5 -178.5t191.5 -61.5q90 0 181 44t161 123t97 177zM715 1211h-80l-119 247h114z
M930 1212h-81l-118 246h113z" />
    <glyph glyph-name="uni0216" unicode="&#x216;" horiz-adv-x="1462" 
d="M369 30q-103 55 -155 155.5t-52 236.5q0 82 20 179l172 805h104l-171 -801q-20 -94 -20 -173q0 -168 89.5 -263t266.5 -95q148 0 270.5 66.5t204.5 186.5t116 278l170 801h104l-172 -806q-39 -185 -134.5 -326t-239 -220t-321.5 -79q-149 0 -252 55zM1095 1654
q44 -44 44 -115q0 -25 -4 -46h-87q5 23 5 41q0 40 -24.5 63t-78.5 23q-65 0 -102.5 -34.5t-48.5 -92.5h-90q13 56 48 103t88 74.5t120 27.5q86 0 130 -44z" />
    <glyph glyph-name="uni0217" unicode="&#x217;" horiz-adv-x="1200" 
d="M1044 1027h99l-218 -1027h-96l42 196q-45 -61 -112 -110.5t-147 -78.5t-161 -29q-157 0 -247.5 81.5t-90.5 231.5q0 54 14 121l131 615h101l-129 -603q-13 -59 -13 -112q0 -117 66.5 -178.5t191.5 -61.5q90 0 181 44t161 123t97 177zM922 1385q47 -46 47 -123
q0 -21 -5 -51h-89q6 24 6 46q0 46 -27.5 71.5t-80.5 25.5q-64 0 -106 -37.5t-56 -105.5h-89q23 98 95.5 159t172.5 61q85 0 132 -46z" />
    <glyph glyph-name="uni0218" unicode="&#x218;" horiz-adv-x="1128" 
d="M212 33q-144 60 -233 167l70 67q73 -82 199 -138t279 -56q125 0 213 43t132.5 110.5t44.5 140.5q0 76 -53 135.5t-127 99.5t-171 78q-162 64 -257.5 154t-95.5 227q0 88 43 172t145.5 141t269.5 57q257 0 472 -177l-70 -70q-192 148 -410 148q-124 0 -201 -39.5
t-109.5 -100t-32.5 -127.5q0 -95 76.5 -168t226.5 -131q102 -40 186.5 -86.5t149 -122.5t64.5 -177q0 -92 -54 -186t-170 -157.5t-290 -63.5q-153 0 -297 60zM346 -347q84 65 97 120v3q-22 0 -37 13.5t-15 33.5q0 5 2 13q6 28 27.5 44.5t47.5 16.5q52 0 52 -49q0 -15 -2 -23
q-13 -58 -46.5 -106.5t-96.5 -98.5z" />
    <glyph glyph-name="uni0219" unicode="&#x219;" horiz-adv-x="864" 
d="M158 14q-100 40 -172 103l58 73q65 -53 148.5 -88.5t184.5 -35.5q87 0 148.5 28.5t93 75.5t31.5 103q0 76 -60.5 126t-181.5 97q-115 46 -181.5 112.5t-66.5 164.5q0 67 36.5 130.5t114 104.5t193.5 41q95 0 180 -32.5t153 -90.5l-61 -71q-59 48 -131.5 74t-151.5 26
q-78 0 -130.5 -25t-78 -65t-25.5 -84q0 -60 47.5 -108.5t156.5 -90.5q129 -49 208 -121.5t79 -181.5q0 -81 -44 -150.5t-130 -112t-206 -42.5q-112 0 -212 40zM177 -354q84 65 97 120v3q-22 0 -37 13.5t-15 33.5q0 5 2 13q6 28 27.5 44.5t47.5 16.5q52 0 52 -49
q0 -15 -2 -23q-13 -58 -46.5 -106.5t-96.5 -98.5z" />
    <glyph glyph-name="uni021A" unicode="&#x21a;" horiz-adv-x="1145" 
d="M515 0h-105l278 1306h-478l21 99h1061l-21 -99h-479zM373 -347q84 65 97 120v3q-22 0 -37 13.5t-15 33.5q0 5 2 13q6 28 27.5 44.5t47.5 16.5q52 0 52 -49q0 -15 -2 -23q-13 -58 -46.5 -106.5t-96.5 -98.5z" />
    <glyph glyph-name="uni021B" unicode="&#x21b;" horiz-adv-x="588" 
d="M198 0h-100l199 934h-189l20 93h188l56 260l104 18l-59 -278h277l-20 -93h-277zM14 -354q84 65 97 120v3q-22 0 -37 13.5t-15 33.5q0 5 2 13q6 28 27.5 44.5t47.5 16.5q52 0 52 -49q0 -15 -2 -23q-13 -58 -46.5 -106.5t-96.5 -98.5z" />
    <glyph glyph-name="uni021E" unicode="&#x21e;" horiz-adv-x="1548" 
d="M199 0h-103l298 1405h104l-136 -641h931l136 641h104l-299 -1405h-104l141 664h-930zM792 1652l50 65l154 -119l206 119l36 -65l-238 -149h-32z" />
    <glyph glyph-name="uni021F" unicode="&#x21f;" horiz-adv-x="1200" 
d="M996 968.5q90 -81.5 90 -230.5q0 -54 -14 -122l-131 -616h-100l128 603q13 59 13 113q0 117 -66 178.5t-191 61.5q-93 0 -187.5 -47.5t-164.5 -131.5t-92 -188l-125 -589h-100l318 1494h99l-139 -657q70 92 182.5 152.5t232.5 60.5q157 0 247 -81.5zM649 1706l50 65
l154 -119l206 119l36 -65l-238 -149h-32z" />
    <glyph glyph-name="uni0226" unicode="&#x226;" horiz-adv-x="1289" 
d="M1160 0h-108l-70 371h-726l-226 -371h-119l871 1406h104zM802 1268l-489 -803h652l-151 803l-3 17zM808.5 1517q-17.5 17 -17.5 44q0 39 28.5 66t67.5 27q28 0 46 -16.5t18 -42.5q0 -39 -29.5 -67t-66.5 -28q-29 0 -46.5 17z" />
    <glyph glyph-name="uni0227" unicode="&#x227;" horiz-adv-x="1274" 
d="M1217 1027l-89 -420l-129 -607h-98l42 196q-77 -101 -182 -161t-229 -60q-122 0 -223.5 60.5t-161 169t-59.5 243.5q0 149 73 288t202.5 225.5t290.5 86.5q145 0 254 -77t153 -209l3 17l53 248h100zM793.5 149.5q107.5 77.5 166.5 195t59 229.5q0 114 -48.5 199.5
t-131.5 131.5t-185 46q-134 0 -241 -71t-167 -186t-60 -241q0 -111 49.5 -197.5t133 -135t181.5 -48.5q136 0 243.5 77.5zM719.5 1225q-17.5 17 -17.5 44q0 39 28.5 66t67.5 27q28 0 46 -16.5t18 -42.5q0 -39 -29.5 -67t-66.5 -28q-29 0 -46.5 17z" />
    <glyph glyph-name="uni0228" unicode="&#x228;" horiz-adv-x="1290" 
d="M1342 1307h-865l-113 -533h712l-20 -97h-713l-123 -578h879l-20 -99h-461q33 -85 33 -155q0 -25 -4 -44q-28 -126 -234 -152l-1 74q79 10 109 32.5t36 55.5q5 23 5 44q0 54 -31 145h-435l298 1405h969z" />
    <glyph glyph-name="uni0229" unicode="&#x229;" horiz-adv-x="1142" 
d="M871.5 998.5q93.5 -51.5 145 -142t51.5 -202.5q0 -85 -24 -181h-859q-1 -11 -1 -32q0 -111 51 -195.5t137 -130.5t188 -46q76 0 163 26.5t158 83.5l44 -74q-78 -65 -177 -96.5t-185 -33.5q23 -62 23 -116q0 -19 -3 -35q-12 -58 -65 -95t-161 -49l-2 66q55 7 85 20
t41.5 28.5t16.5 38.5q3 15 3 32q0 46 -24 116q-113 16 -202 78t-139.5 159.5t-50.5 217.5q0 150 73.5 292.5t205 232t295.5 89.5q119 0 212.5 -51.5zM967 565q4 29 4 69q0 96 -39.5 168.5t-111.5 112.5t-165 40q-114 0 -209 -52.5t-158.5 -141.5t-88.5 -196h768z" />
    <glyph glyph-name="uni022A" unicode="&#x22a;" horiz-adv-x="1610" 
d="M441.5 56q-141.5 81 -220.5 226t-79 332q0 209 102.5 397.5t283 303.5t400.5 115q181 0 322 -80.5t219.5 -225.5t78.5 -334q0 -209 -102.5 -397t-282 -303t-399.5 -115q-181 0 -322.5 81zM1115.5 175q153.5 99 240.5 261t87 342q0 163 -66.5 288t-185.5 194t-270 69
q-190 0 -344.5 -99t-242 -260.5t-87.5 -342.5q0 -162 67 -287t186.5 -194.5t271.5 -69.5q190 0 343.5 99zM799.5 1535q-16.5 16 -16.5 42q0 37 27 63.5t65 26.5q28 0 45 -15.5t17 -41.5q0 -37 -28.5 -64t-64.5 -27q-28 0 -44.5 16zM1134.5 1535q-16.5 16 -16.5 42
q0 37 27.5 63.5t64.5 26.5q28 0 45 -15.5t17 -40.5q0 -38 -28 -65t-65 -27q-28 0 -44.5 16zM1260 1718h-413l18 81h413z" />
    <glyph glyph-name="uni022B" unicode="&#x22b;" horiz-adv-x="1254" 
d="M320 33q-109 59 -172 164t-63 237q0 153 76.5 295.5t215 231t313.5 88.5q134 0 243 -59t172 -163.5t63 -236.5q0 -153 -77 -295.5t-215.5 -231.5t-313.5 -89q-133 0 -242 59zM829 145q114 74 176 192t62 246q0 108 -51.5 192.5t-139 131t-191.5 46.5q-148 0 -262 -74
t-175.5 -192.5t-61.5 -246.5q0 -108 51 -192t138 -130.5t192 -46.5q148 0 262 74zM555.5 1230q-16.5 16 -16.5 42q0 37 27 63.5t65 26.5q28 0 45 -15.5t17 -41.5q0 -37 -28.5 -64t-64.5 -27q-28 0 -44.5 16zM890.5 1230q-16.5 16 -16.5 42q0 37 27.5 63.5t64.5 26.5
q28 0 45 -15.5t17 -40.5q0 -38 -28 -65t-65 -27q-28 0 -44.5 16zM1020 1430h-413l18 81h413z" />
    <glyph glyph-name="uni022C" unicode="&#x22c;" horiz-adv-x="1610" 
d="M441.5 56q-141.5 81 -220.5 226t-79 332q0 209 102.5 397.5t283 303.5t400.5 115q181 0 322 -80.5t219.5 -225.5t78.5 -334q0 -209 -102.5 -397t-282 -303t-399.5 -115q-181 0 -322.5 81zM1115.5 175q153.5 99 240.5 261t87 342q0 163 -66.5 288t-185.5 194t-270 69
q-190 0 -344.5 -99t-242 -260.5t-87.5 -342.5q0 -162 67 -287t186.5 -194.5t271.5 -69.5q190 0 343.5 99zM771 1540q39 71 87 105t93 34q27 0 49 -10t55 -30q26 -17 43.5 -25.5t37.5 -8.5q27 0 48 17t49 61l63 -23q-38 -71 -86 -105t-92 -34q-28 0 -50.5 10.5t-54.5 30.5
q-27 17 -44 25t-36 8q-28 0 -49.5 -17t-48.5 -61zM1263 1727h-413l18 81h413z" />
    <glyph glyph-name="uni022D" unicode="&#x22d;" horiz-adv-x="1254" 
d="M320 33q-109 59 -172 164t-63 237q0 153 76.5 295.5t215 231t313.5 88.5q134 0 243 -59t172 -163.5t63 -236.5q0 -153 -77 -295.5t-215.5 -231.5t-313.5 -89q-133 0 -242 59zM829 145q114 74 176 192t62 246q0 108 -51.5 192.5t-139 131t-191.5 46.5q-148 0 -262 -74
t-175.5 -192.5t-61.5 -246.5q0 -108 51 -192t138 -130.5t192 -46.5q148 0 262 74zM522 1231q39 71 87 105t93 34q27 0 49 -10t55 -30q26 -17 43.5 -25.5t37.5 -8.5q27 0 48 17t49 61l63 -23q-38 -71 -86 -105t-92 -34q-28 0 -50.5 10.5t-54.5 30.5q-27 17 -44 25t-36 8
q-28 0 -49.5 -17t-48.5 -61zM1025 1456h-413l18 81h413z" />
    <glyph glyph-name="uni022E" unicode="&#x22e;" horiz-adv-x="1610" 
d="M441.5 56q-141.5 81 -220.5 226t-79 332q0 209 102.5 397.5t283 303.5t400.5 115q181 0 322 -80.5t219.5 -225.5t78.5 -334q0 -209 -102.5 -397t-282 -303t-399.5 -115q-181 0 -322.5 81zM1115.5 175q153.5 99 240.5 261t87 342q0 163 -66.5 288t-185.5 194t-270 69
q-190 0 -344.5 -99t-242 -260.5t-87.5 -342.5q0 -162 67 -287t186.5 -194.5t271.5 -69.5q190 0 343.5 99zM965.5 1534q-17.5 17 -17.5 44q0 39 28.5 66t67.5 27q28 0 46 -16.5t18 -42.5q0 -39 -29.5 -67t-66.5 -28q-29 0 -46.5 17z" />
    <glyph glyph-name="uni022F" unicode="&#x22f;" horiz-adv-x="1254" 
d="M320 33q-109 59 -172 164t-63 237q0 153 76.5 295.5t215 231t313.5 88.5q134 0 243 -59t172 -163.5t63 -236.5q0 -153 -77 -295.5t-215.5 -231.5t-313.5 -89q-133 0 -242 59zM829 145q114 74 176 192t62 246q0 108 -51.5 192.5t-139 131t-191.5 46.5q-148 0 -262 -74
t-175.5 -192.5t-61.5 -246.5q0 -108 51 -192t138 -130.5t192 -46.5q148 0 262 74zM720.5 1228q-17.5 17 -17.5 44q0 39 28.5 66t67.5 27q28 0 46 -16.5t18 -42.5q0 -39 -29.5 -67t-66.5 -28q-29 0 -46.5 17z" />
    <glyph glyph-name="uni0230" unicode="&#x230;" horiz-adv-x="1610" 
d="M441.5 56q-141.5 81 -220.5 226t-79 332q0 209 102.5 397.5t283 303.5t400.5 115q181 0 322 -80.5t219.5 -225.5t78.5 -334q0 -209 -102.5 -397t-282 -303t-399.5 -115q-181 0 -322.5 81zM1115.5 175q153.5 99 240.5 261t87 342q0 163 -66.5 288t-185.5 194t-270 69
q-190 0 -344.5 -99t-242 -260.5t-87.5 -342.5q0 -162 67 -287t186.5 -194.5t271.5 -69.5q190 0 343.5 99zM965.5 1534q-17.5 17 -17.5 44q0 39 28.5 66t67.5 27q28 0 46 -16.5t18 -42.5q0 -39 -29.5 -67t-66.5 -28q-29 0 -46.5 17zM1260 1715h-413l18 81h413z" />
    <glyph glyph-name="uni0231" unicode="&#x231;" horiz-adv-x="1254" 
d="M320 33q-109 59 -172 164t-63 237q0 153 76.5 295.5t215 231t313.5 88.5q134 0 243 -59t172 -163.5t63 -236.5q0 -153 -77 -295.5t-215.5 -231.5t-313.5 -89q-133 0 -242 59zM829 145q114 74 176 192t62 246q0 108 -51.5 192.5t-139 131t-191.5 46.5q-148 0 -262 -74
t-175.5 -192.5t-61.5 -246.5q0 -108 51 -192t138 -130.5t192 -46.5q148 0 262 74zM720.5 1228q-17.5 17 -17.5 44q0 39 28.5 66t67.5 27q28 0 46 -16.5t18 -42.5q0 -39 -29.5 -67t-66.5 -28q-29 0 -46.5 17zM1017 1421h-413l18 81h413z" />
    <glyph glyph-name="uni0232" unicode="&#x232;" horiz-adv-x="1105" 
d="M496 0h-104l131 614l-314 791h112l268 -690l555 690h131l-648 -790zM971 1506h-413l18 81h413z" />
    <glyph glyph-name="uni0233" unicode="&#x233;" horiz-adv-x="1010" 
d="M226 -355h-110l225 355l-205 1027h105l176 -908l563 908h112zM856 1219h-413l18 81h413z" />
    <glyph glyph-name="uni0237" unicode="&#x237;" horiz-adv-x="438" 
d="M-231 -368l19 91h18q198 0 250 243l226 1061h99l-225 -1058q-34 -158 -126 -247.5t-234 -89.5h-27z" />
    <glyph glyph-name="uni0259" unicode="&#x259;" horiz-adv-x="1131" 
d="M862 999q93 -53 143.5 -147t50.5 -213q0 -61 -13 -122q-32 -149 -120.5 -272t-213.5 -194.5t-261 -71.5q-120 0 -204 48.5t-127.5 135.5t-43.5 203q0 73 16 149q4 20 10 38h853q5 38 5 66q0 100 -41.5 176.5t-117.5 119t-175 42.5q-97 0 -187 -34.5t-166 -96.5l-40 71
q92 74 197.5 114.5t220.5 40.5q121 0 214 -53zM661.5 123q94.5 50 165.5 138.5t105 200.5h-756q-5 -43 -5 -75q0 -145 76.5 -229.5t217.5 -84.5q102 0 196.5 50z" />
    <glyph glyph-name="uni0272" unicode="&#x272;" horiz-adv-x="1200" 
d="M996 968.5q90 -81.5 90 -230.5q0 -54 -14 -122l-131 -616h-100l128 603q13 59 13 113q0 117 -66 178.5t-191 61.5q-93 0 -187.5 -47.5t-164.5 -131.5t-92 -188v2l-116 -549l-15 -72q-33 -161 -120.5 -250.5t-225.5 -89.5h-26l19 91h17q98 0 153.5 62t80.5 185l43 205h2
l182 854h96l-42 -196q45 61 112 111t147 79t161 29q157 0 247 -81.5z" />
    <glyph glyph-name="circumflex" unicode="&#x2c6;" horiz-adv-x="686" 
d="M531 1363l-220 -146l-46 60l257 181h44l180 -181l-56 -60z" />
    <glyph glyph-name="caron" unicode="&#x2c7;" horiz-adv-x="686" 
d="M286 1376l57 61l158 -146l221 146l45 -61l-257 -181h-44z" />
    <glyph glyph-name="breve" unicode="&#x2d8;" horiz-adv-x="647" 
d="M340.5 1260.5q-47.5 46.5 -47.5 123.5q0 20 5 50h85q-5 -27 -5 -44q0 -48 27 -73.5t80 -25.5q62 0 106 38t57 105h92q-23 -98 -95 -159t-172 -61q-85 0 -132.5 46.5z" />
    <glyph glyph-name="dotaccent" unicode="&#x2d9;" horiz-adv-x="361" 
d="M284.5 1237q-17.5 17 -17.5 44q0 39 28.5 66t67.5 27q28 0 46 -16.5t18 -42.5q0 -39 -29.5 -67t-66.5 -28q-29 0 -46.5 17z" />
    <glyph glyph-name="ring" unicode="&#x2da;" horiz-adv-x="478" 
d="M306 1243.5q-30 27.5 -30 73.5q0 10 4 32q13 58 58.5 95t105.5 37q52 0 82.5 -27.5t30.5 -72.5q0 -10 -4 -32q-12 -59 -58 -96t-107 -37q-52 0 -82 27.5zM460 1295q25 21 33 54q2 12 2 18q0 26 -16.5 41t-46.5 15q-34 0 -59 -20.5t-33 -53.5q-2 -12 -2 -18
q0 -26 16.5 -41.5t46.5 -15.5q34 0 59 21z" />
    <glyph glyph-name="ogonek" unicode="&#x2db;" horiz-adv-x="438" 
d="M197 0q-74 -49 -118 -103t-44 -95q0 -25 18 -41.5t56 -16.5q23 0 59 6l-8 -61q-25 -8 -43.5 -10.5t-42.5 -2.5q-62 0 -94 27.5t-32 71.5q0 13 3 27q11 51 62.5 107t107.5 91h76z" />
    <glyph glyph-name="tilde" unicode="&#x2dc;" horiz-adv-x="704" 
d="M257 1243q39 71 87 105t93 34q27 0 49 -10t55 -30q26 -17 43.5 -25.5t37.5 -8.5q27 0 48 17t49 61l63 -23q-38 -71 -86 -105t-92 -34q-28 0 -50.5 10.5t-54.5 30.5q-27 17 -44 25t-36 8q-28 0 -49.5 -17t-48.5 -61z" />
    <glyph glyph-name="hungarumlaut" unicode="&#x2dd;" horiz-adv-x="682" 
d="M570 1474l-226 -252h-91l189 252h128zM784 1474l-226 -252h-92l190 252h128z" />
    <glyph glyph-name="gravecomb" unicode="&#x300;" 
d="M47 1215h-82l-122 252h117z" />
    <glyph glyph-name="acutecomb" unicode="&#x301;" 
d="M101 1467l-229 -252h-92l192 252h129z" />
    <glyph glyph-name="uni0302" unicode="&#x302;" 
d="M-158 1353l-220 -146l-46 60l257 181h44l180 -181l-56 -60z" />
    <glyph glyph-name="tildecomb" unicode="&#x303;" 
d="M-450 1230q39 71 87 105t93 34q27 0 49 -10t55 -30q26 -17 43.5 -25.5t37.5 -8.5q27 0 48 17t49 61l63 -23q-38 -71 -86 -105t-92 -34q-28 0 -50.5 10.5t-54.5 30.5q-27 17 -44 25t-36 8q-28 0 -49.5 -17t-48.5 -61z" />
    <glyph glyph-name="uni0304" unicode="&#x304;" 
d="M47 1219h-413l18 81h413z" />
    <glyph glyph-name="uni0306" unicode="&#x306;" 
d="M-307.5 1255.5q-47.5 46.5 -47.5 123.5q0 20 5 50h85q-5 -27 -5 -44q0 -48 27 -73.5t80 -25.5q62 0 106 38t57 105h92q-23 -98 -95 -159t-172 -61q-85 0 -132.5 46.5z" />
    <glyph glyph-name="uni0307" unicode="&#x307;" 
d="M-78.5 1227q-17.5 17 -17.5 44q0 39 28.5 66t67.5 27q28 0 46 -16.5t18 -42.5q0 -39 -29.5 -67t-66.5 -28q-29 0 -46.5 17z" />
    <glyph glyph-name="uni0308" unicode="&#x308;" 
d="M-408.5 1229q-16.5 16 -16.5 42q0 37 27 63.5t65 26.5q28 0 45 -15.5t17 -41.5q0 -37 -28.5 -64t-64.5 -27q-28 0 -44.5 16zM-73.5 1229q-16.5 16 -16.5 42q0 37 27.5 63.5t64.5 26.5q28 0 45 -15.5t17 -40.5q0 -38 -28 -65t-65 -27q-28 0 -44.5 16z" />
    <glyph glyph-name="hookabovecomb" unicode="&#x309;" 
d="M-71 1222q64 68 73 105l1 7q0 19 -23 19q-29 0 -59 -21l-11 41q53 36 97 36q30 0 49 -14.5t19 -37.5q0 -26 -20.5 -53.5t-55.5 -65.5l-8 -8t-7 -8h-55z" />
    <glyph glyph-name="uni030A" unicode="&#x30a;" 
d="M-174 1236.5q-30 27.5 -30 73.5q0 10 4 32q13 58 58.5 95t105.5 37q52 0 82.5 -27.5t30.5 -72.5q0 -10 -4 -32q-12 -59 -58 -96t-107 -37q-52 0 -82 27.5zM-20 1288q25 21 33 54q2 12 2 18q0 26 -16.5 41t-46.5 15q-34 0 -59 -20.5t-33 -53.5q-2 -12 -2 -18
q0 -26 16.5 -41.5t46.5 -15.5q34 0 59 21z" />
    <glyph glyph-name="uni030B" unicode="&#x30b;" 
d="M-113 1467l-226 -252h-91l189 252h128zM101 1467l-226 -252h-92l190 252h128z" />
    <glyph glyph-name="uni030C" unicode="&#x30c;" 
d="M-398 1386l57 61l158 -146l221 146l45 -61l-257 -181h-44z" />
    <glyph glyph-name="uni030F" unicode="&#x30f;" 
d="M-167 1212h-80l-119 247h114zM48 1213h-81l-118 246h113z" />
    <glyph glyph-name="uni0311" unicode="&#x311;" 
d="M4 1385q47 -46 47 -123q0 -21 -5 -51h-89q6 24 6 46q0 46 -27.5 71.5t-80.5 25.5q-64 0 -106 -37.5t-56 -105.5h-89q23 98 95.5 159t172.5 61q85 0 132 -46z" />
    <glyph glyph-name="uni0312" unicode="&#x312;" 
d="M98 1458q-85 -66 -96 -119l-1 -4q23 0 37.5 -13t14.5 -33q0 -8 -1 -12q-6 -27 -27 -43t-47 -16q-51 0 -51 45q0 11 3 24q11 57 44 105.5t96 97.5z" />
    <glyph glyph-name="uni031B" unicode="&#x31b;" 
d="M-205 1027q142 18 142 118q0 22 -6 47l99 25q3 -19 3 -39q0 -89 -61.5 -143t-182.5 -65z" />
    <glyph glyph-name="dotbelowcomb" unicode="&#x323;" 
d="M-392.5 -249q-17.5 17 -17.5 44q0 39 28.5 66t67.5 27q28 0 46 -16.5t18 -42.5q0 -39 -29.5 -67t-66.5 -28q-29 0 -46.5 17z" />
    <glyph glyph-name="uni0324" unicode="&#x324;" 
d="M-725.5 -261q-16.5 16 -16.5 42q0 37 27 63.5t65 26.5q28 0 45 -15.5t17 -41.5q0 -37 -28.5 -64t-64.5 -27q-28 0 -44.5 16zM-390.5 -261q-16.5 16 -16.5 42q0 37 27.5 63.5t64.5 26.5q28 0 45 -15.5t17 -40.5q0 -38 -28 -65t-65 -27q-28 0 -44.5 16z" />
    <glyph glyph-name="uni0325" unicode="&#x325;" 
d="M-509 -341.5q-30 27.5 -30 73.5q0 10 4 32q13 58 58.5 95t105.5 37q52 0 82.5 -27.5t30.5 -72.5q0 -10 -4 -32q-12 -59 -58 -96t-107 -37q-52 0 -82 27.5zM-355 -290q25 21 33 54q2 12 2 18q0 26 -16.5 41t-46.5 15q-34 0 -59 -20.5t-33 -53.5q-2 -12 -2 -18
q0 -26 16.5 -41.5t46.5 -15.5q34 0 59 21z" />
    <glyph glyph-name="uni0326" unicode="&#x326;" 
d="M-419 -354q84 65 97 120v3q-22 0 -37 13.5t-15 33.5q0 5 2 13q6 28 27.5 44.5t47.5 16.5q52 0 52 -49q0 -15 -2 -23q-13 -58 -46.5 -106.5t-96.5 -98.5z" />
    <glyph glyph-name="uni0327" unicode="&#x327;" 
d="M-283 7q15 -31 26 -72t11 -77q0 -18 -3 -34q-12 -58 -65 -95t-161 -49l-2 66q55 7 85 20t41.5 28.5t16.5 38.5q3 15 3 32q0 51 -33 142h81z" />
    <glyph glyph-name="uni0328" unicode="&#x328;" 
d="M-241 0q-74 -49 -118 -103t-44 -95q0 -25 18 -41.5t56 -16.5q23 0 59 6l-8 -61q-25 -8 -43.5 -10.5t-42.5 -2.5q-62 0 -94 27.5t-32 71.5q0 13 3 27q11 51 62.5 107t107.5 91h76z" />
    <glyph glyph-name="uni032D" unicode="&#x32d;" 
d="M-485 -185l-220 -146l-46 60l257 181h44l180 -181l-56 -60z" />
    <glyph glyph-name="uni032E" unicode="&#x32e;" 
d="M-634.5 -279.5q-47.5 46.5 -47.5 123.5q0 20 5 50h85q-5 -27 -5 -44q0 -48 27 -73.5t80 -25.5q62 0 106 38t57 105h92q-23 -98 -95 -159t-172 -61q-85 0 -132.5 46.5z" />
    <glyph glyph-name="uni0330" unicode="&#x330;" 
d="M-767 -263q39 71 87 105t93 34q27 0 49 -10t55 -30q26 -17 43.5 -25.5t37.5 -8.5q27 0 48 17t49 61l63 -23q-38 -71 -86 -105t-92 -34q-28 0 -50.5 10.5t-54.5 30.5q-27 17 -44 25t-36 8q-28 0 -49.5 -17t-48.5 -61z" />
    <glyph glyph-name="uni0331" unicode="&#x331;" 
d="M-264 -245h-413l18 81h413z" />
    <glyph glyph-name="uni0335" unicode="&#x335;" 
d="M-111 470h-593l20 94h592z" />
    <glyph glyph-name="uni0336" unicode="&#x336;" 
d="M8 1097h-1222l40 90h1222z" />
    <glyph glyph-name="uni0337" unicode="&#x337;" 
d="M95 838l-508 -299l-29 60l508 300z" />
    <glyph glyph-name="uni0338" unicode="&#x338;" 
d="M1 1062l-1132 -1100h-108l1131 1100h109z" />
    <glyph glyph-name="tonos" unicode="&#x384;" horiz-adv-x="424" 
d="M397 1217h-68l43 239h84z" />
    <glyph glyph-name="dieresistonos" unicode="&#x385;" horiz-adv-x="618" 
d="M487 1294h-54l132 189h89zM277.5 1229q-14.5 14 -14.5 36q0 32 24.5 55.5t56.5 23.5q24 0 39 -14t15 -36q0 -33 -24.5 -56t-57.5 -23q-24 0 -38.5 14zM561 1229q-15 14 -15 36q0 32 24.5 55.5t56.5 23.5q24 0 39 -14t15 -36q0 -32 -25 -55.5t-56 -23.5q-24 0 -39 14z" />
    <glyph glyph-name="Alphatonos" unicode="&#x386;" horiz-adv-x="1289" 
d="M1160 0h-108l-70 371h-726l-226 -371h-119l871 1406h104zM802 1268l-489 -803h652l-151 803l-3 17zM312 1127l-70 -1l53 280h86z" />
    <glyph glyph-name="Epsilontonos" unicode="&#x388;" horiz-adv-x="1290" 
d="M1079 0h-983l298 1405h969l-21 -98h-865l-113 -533h712l-20 -97h-713l-123 -578h879zM94 1127l-70 -1l53 280h86z" />
    <glyph glyph-name="Etatonos" unicode="&#x389;" horiz-adv-x="1548" 
d="M199 0h-103l298 1405h104l-136 -641h931l136 641h104l-299 -1405h-104l141 664h-930zM94 1127l-70 -1l53 280h86z" />
    <glyph glyph-name="Iotatonos" unicode="&#x38a;" horiz-adv-x="513" 
d="M199 0h-103l298 1405h104zM94 1127l-70 -1l53 280h86z" />
    <glyph glyph-name="Omicrontonos" unicode="&#x38c;" horiz-adv-x="1610" 
d="M441.5 56q-141.5 81 -220.5 226t-79 332q0 209 102.5 397.5t283 303.5t400.5 115q181 0 322 -80.5t219.5 -225.5t78.5 -334q0 -209 -102.5 -397t-282 -303t-399.5 -115q-181 0 -322.5 81zM1115.5 175q153.5 99 240.5 261t87 342q0 163 -66.5 288t-185.5 194t-270 69
q-190 0 -344.5 -99t-242 -260.5t-87.5 -342.5q0 -162 67 -287t186.5 -194.5t271.5 -69.5q190 0 343.5 99zM94 1127l-70 -1l53 280h86z" />
    <glyph glyph-name="Upsilontonos" unicode="&#x38e;" horiz-adv-x="1105" 
d="M496 0h-104l131 614l-314 791h112l268 -690l555 690h131l-648 -790zM94 1127l-70 -1l53 280h86z" />
    <glyph glyph-name="Omegatonos" unicode="&#x38f;" horiz-adv-x="1459" 
d="M35 0l21 99h372l34 163q-147 56 -228 163t-81 252q0 187 95.5 361t268 283t392.5 109q151 0 271.5 -59t188 -165t67.5 -241q0 -154 -61 -291t-184.5 -247.5t-305.5 -179.5l-32 -148h366l-21 -99h-464l65 307q287 100 409 269.5t122 365.5q0 114 -54.5 203t-151.5 139
t-220 50q-184 0 -331.5 -93.5t-231 -242t-83.5 -306.5q0 -137 75.5 -228.5t236.5 -156.5l-65 -307h-470zM132 1127l-70 -1l53 280h86z" />
    <glyph glyph-name="iotadieresistonos" unicode="&#x390;" horiz-adv-x="493" 
d="M211 -25q-74 18 -107 58t-33 108q0 44 12 99l167 787h100l-167 -783q-10 -46 -10 -82q0 -47 20 -73.5t63 -40.5zM372 1294h-54l132 189h89zM162.5 1229q-14.5 14 -14.5 36q0 32 24.5 55.5t56.5 23.5q24 0 39 -14t15 -36q0 -33 -24.5 -56t-57.5 -23q-24 0 -38.5 14z
M446 1229q-15 14 -15 36q0 32 24.5 55.5t56.5 23.5q24 0 39 -14t15 -36q0 -32 -25 -55.5t-56 -23.5q-24 0 -39 14z" />
    <glyph glyph-name="Alpha" unicode="&#x391;" horiz-adv-x="1289" 
d="M1160 0h-108l-70 371h-726l-226 -371h-119l871 1406h104zM802 1268l-489 -803h652l-151 803l-3 17z" />
    <glyph glyph-name="Beta" unicode="&#x392;" horiz-adv-x="1312" 
d="M96 0l298 1405h551q104 0 179 -34t114 -95.5t39 -142.5q0 -132 -75 -237.5t-204 -153.5q63 -13 111 -52t75 -97t27 -129q0 -116 -64 -223t-178 -174t-258 -67h-615zM817 776q98 0 179.5 49.5t128.5 127t47 155.5q0 60 -26 106.5t-76.5 73t-121.5 26.5h-471l-114 -538h454
zM710 91q112 0 203 54.5t142.5 139.5t51.5 170q0 104 -61.5 169t-176.5 65h-525l-127 -598h493z" />
    <glyph glyph-name="Gamma" unicode="&#x393;" horiz-adv-x="992" 
d="M200 0h-104l298 1405h757l-21 -100h-652z" />
    <glyph glyph-name="uni0394" unicode="&#x394;" horiz-adv-x="1289" 
d="M782 1406h104l274 -1406h-1249zM802 1268l-715 -1174h947l-220 1174l-3 17z" />
    <glyph glyph-name="Epsilon" unicode="&#x395;" horiz-adv-x="1290" 
d="M1079 0h-983l298 1405h969l-21 -98h-865l-113 -533h712l-20 -97h-713l-123 -578h879z" />
    <glyph glyph-name="Zeta" unicode="&#x396;" horiz-adv-x="1272" 
d="M1052 0h-1059l18 83l1178 1226h-901l20 96h1050l-17 -80l-1180 -1229h911z" />
    <glyph glyph-name="Eta" unicode="&#x397;" horiz-adv-x="1548" 
d="M199 0h-103l298 1405h104l-136 -641h931l136 641h104l-299 -1405h-104l141 664h-930z" />
    <glyph glyph-name="Theta" unicode="&#x398;" horiz-adv-x="1610" 
d="M441.5 56q-141.5 81 -220.5 226t-79 332q0 209 102.5 397.5t283 303.5t400.5 115q181 0 322 -80.5t219.5 -225.5t78.5 -334q0 -209 -102.5 -397t-282 -303t-399.5 -115q-181 0 -322.5 81zM1115.5 175q153.5 99 240.5 261t87 342q0 163 -66.5 288t-185.5 194t-270 69
q-190 0 -344.5 -99t-242 -260.5t-87.5 -342.5q0 -162 67 -287t186.5 -194.5t271.5 -69.5q190 0 343.5 99zM1258 659h-856l28 90h856z" />
    <glyph glyph-name="Iota" unicode="&#x399;" horiz-adv-x="513" 
d="M199 0h-103l298 1405h104z" />
    <glyph glyph-name="Kappa" unicode="&#x39a;" horiz-adv-x="1355" 
d="M1252 1405h150l-665 -589l481 -816h-115l-443 748l-371 -329l-89 -419h-104l298 1405h104l-174 -822z" />
    <glyph glyph-name="Lambda" unicode="&#x39b;" horiz-adv-x="1289" 
d="M782 1406h104l274 -1406h-108l-238 1268l-3 17l-9 -17l-772 -1268h-119z" />
    <glyph glyph-name="Mu" unicode="&#x39c;" horiz-adv-x="1770" 
d="M110 0h-110l451 1405h128l233 -1252l751 1252h134l-145 -1405h-105l135 1242l-748 -1242h-91l-238 1242z" />
    <glyph glyph-name="Nu" unicode="&#x39d;" horiz-adv-x="1569" 
d="M200 0h-104l298 1405h88l706 -1232l261 1232h104l-298 -1405h-86l-707 1234z" />
    <glyph glyph-name="Xi" unicode="&#x39e;" horiz-adv-x="1196" 
d="M1250 1305h-969l21 100h970zM994 671h-726l18 89h727zM985 0h-992l21 100h992z" />
    <glyph glyph-name="Omicron" unicode="&#x39f;" horiz-adv-x="1610" 
d="M441.5 56q-141.5 81 -220.5 226t-79 332q0 209 102.5 397.5t283 303.5t400.5 115q181 0 322 -80.5t219.5 -225.5t78.5 -334q0 -209 -102.5 -397t-282 -303t-399.5 -115q-181 0 -322.5 81zM1115.5 175q153.5 99 240.5 261t87 342q0 163 -66.5 288t-185.5 194t-270 69
q-190 0 -344.5 -99t-242 -260.5t-87.5 -342.5q0 -162 67 -287t186.5 -194.5t271.5 -69.5q190 0 343.5 99z" />
    <glyph glyph-name="Pi" unicode="&#x3a0;" horiz-adv-x="1540" 
d="M200 0h-104l298 1405h1131l-299 -1405h-104l278 1308h-922z" />
    <glyph glyph-name="Rho" unicode="&#x3a1;" horiz-adv-x="1208" 
d="M96 0l298 1405h450q124 0 216 -41t142 -119.5t50 -186.5q0 -133 -68.5 -258t-200 -205t-312.5 -80h-362l-109 -515h-104zM675 613q144 0 251 63t163 163.5t56 208.5q0 121 -80 190.5t-223 69.5h-364l-148 -695h345z" />
    <glyph glyph-name="Sigma" unicode="&#x3a3;" horiz-adv-x="1162" 
d="M951 0h-958l20 93l690 627l-430 595l19 90h942l-21 -101h-806l399 -567l-13 -61l-624 -575h803z" />
    <glyph glyph-name="Tau" unicode="&#x3a4;" horiz-adv-x="1145" 
d="M515 0h-105l278 1306h-478l21 99h1061l-21 -99h-479z" />
    <glyph glyph-name="Upsilon" unicode="&#x3a5;" horiz-adv-x="1105" 
d="M496 0h-104l131 614l-314 791h112l268 -690l555 690h131l-648 -790z" />
    <glyph glyph-name="Phi" unicode="&#x3a6;" horiz-adv-x="1568" 
d="M658 150q-142 5 -262.5 59t-192 153t-71.5 231q0 174 97 328t271.5 248.5t395.5 97.5l29 138h104l-29 -137q145 -2 263 -60.5t186 -160t68 -229.5q0 -179 -98.5 -330.5t-271 -242t-384.5 -95.5l-32 -150h-105zM874 1165q-178 0 -324 -79t-229 -207t-83 -269
q0 -113 60.5 -193.5t161 -122t220.5 -42.5zM784 252q166 2 310 74.5t230 198t86 277.5q0 106 -51.5 187.5t-149 127.5t-231.5 48z" />
    </font>
</defs>
</svg>
