<?xml version="1.0" standalone="no"?>
<!DOCTYPE svg PUBLIC "-//W3C//DTD SVG 1.1//EN" "http://www.w3.org/Graphics/SVG/1.1/DTD/svg11.dtd" >
<svg xmlns="http://www.w3.org/2000/svg" xmlns:xlink="http://www.w3.org/1999/xlink" version="1.1">
<metadata>
Created by FontForge 20170731 at Tue Mar  9 14:03:53 2021
 By Aleksey,,,
Copyright (c) 2021 by Cosimo Lorenzo Pancini. All rights reserved.
</metadata>
<defs>
<font id="CocoSharpTrial-ExtraLight" horiz-adv-x="0" >
  <font-face 
    font-family="CocoSharp Trial ExtraLight"
    font-weight="200"
    font-stretch="normal"
    units-per-em="2000"
    panose-1="0 0 3 0 0 0 0 0 0 0"
    ascent="1600"
    descent="-400"
    x-height="1019"
    cap-height="1405"
    bbox="-1469 -958 3037 2050"
    underline-thickness="95"
    underline-position="-284"
    unicode-range="U+0010-FEFC"
  />
<missing-glyph horiz-adv-x="924" 
d="M172 1493h586v-1848h-586v1848zM615 1308v61h-305v-61h121v-68h-122v-61h306v61h-122v68h122zM493 1001v130h-184v-192h306v62h-122zM370 1068h61v-67h-61v67zM615 828v61h-306v-61h122v-69h-122v-61h184v130h122zM615 593v185h-61v-122h-245v-63h306zM615 344v208h-184
v-103h62v42h61v-86h-184v147h-61v-208h306zM615 24v209h-306v-209h306zM370 172h184v-87h-184v87zM615 -80v61h-306v-61h129l-129 -87v-60h306v60h-188l129 87h59z" />
    <glyph glyph-name="uniFEF5" unicode="&#xfedf;&#xfe82;" horiz-adv-x="1269" arabic-form="isolated" 
d="M1015 52v1353h55v-1405h-848v52h323l-338 1019h57l339 -1019h412zM59 1170q27 58 63 87.5t75 29.5q27 0 52 -11.5t60 -33.5q33 -20 53 -29t39 -9q28 0 47 18t46 66l43 -18q-28 -58 -63.5 -87.5t-73.5 -29.5q-27 0 -52 11t-62 34q-29 19 -49.5 28.5t-40.5 9.5
q-28 0 -48 -18.5t-46 -65.5z" />
    <glyph glyph-name="uniFEF6" unicode="&#xfee0;&#xfe82;" horiz-adv-x="1349" arabic-form="final" 
d="M1363 0h-1060v52h239l-343 1012h57l344 -1012h394v1353h55v-1353h314v-52zM3 1217q27 58 63 87.5t75 29.5q27 0 52 -11.5t60 -33.5q33 -20 53 -29t39 -9q28 0 47 18t46 66l43 -18q-28 -58 -63.5 -87.5t-73.5 -29.5q-27 0 -52 11t-62 34q-29 19 -49.5 28.5t-40.5 9.5
q-28 0 -48 -18.5t-46 -65.5z" />
    <glyph glyph-name="uniFEF7" unicode="&#xfedf;&#xfe84;" horiz-adv-x="1269" arabic-form="isolated" 
d="M1015 52v1353h55v-1405h-848v52h323l-338 1019h57l339 -1019h412zM47 1214l135 19q-32 16 -51.5 52.5t-19.5 77.5q0 73 46 112t138 39h37l-2 -48h-32q-73 0 -106 -24t-33 -86q0 -49 31.5 -86t83.5 -37h137v-50h-51q-113 0 -162.5 -3t-150.5 -15v49z" />
    <glyph glyph-name="uniFEF8" unicode="&#xfee0;&#xfe84;" horiz-adv-x="1536" arabic-form="final" 
d="M1550 0h-1060v52h239l-343 1012h57l344 -1012h394v1353h55v-1353h314v-52zM199 1224l135 19q-32 16 -51.5 52.5t-19.5 77.5q0 73 46 112t138 39h37l-2 -48h-32q-73 0 -106 -24t-33 -86q0 -49 31.5 -86t83.5 -37h137v-50h-51q-113 0 -162.5 -3t-150.5 -15v49z" />
    <glyph glyph-name="uniFEF9" unicode="&#xfedf;&#xfe88;" horiz-adv-x="1269" arabic-form="isolated" 
d="M1015 52v1353h55v-1405h-848v52h323l-338 1019h57l339 -1019h412zM389 -449l134 18q-31 16 -51 53t-20 78q0 73 46 112t139 39h36l-2 -49h-31q-73 0 -106.5 -24.5t-33.5 -85.5q0 -49 31.5 -86t83.5 -37h137v-50h-51q-113 0 -161.5 -2.5t-150.5 -15.5v50z" />
    <glyph glyph-name="uniFEFA" unicode="&#xfee0;&#xfe88;" horiz-adv-x="1349" arabic-form="final" 
d="M1363 0h-1060v52h239l-343 1012h57l344 -1012h394v1353h55v-1353h314v-52zM384 -449l134 18q-31 16 -51 53t-20 78q0 73 46 112t139 39h36l-2 -49h-31q-73 0 -106.5 -24.5t-33.5 -85.5q0 -49 31.5 -86t83.5 -37h137v-50h-51q-113 0 -161.5 -2.5t-150.5 -15.5v50z" />
    <glyph glyph-name="uniFEFB" unicode="&#xfedf;&#xfe8e;" horiz-adv-x="1269" arabic-form="isolated" 
d="M1015 52v1353h55v-1405h-848v52h323l-338 1019h57l339 -1019h412z" />
    <glyph glyph-name="uniFEFC" unicode="&#xfee0;&#xfe8e;" horiz-adv-x="1349" arabic-form="final" 
d="M1363 0h-1060v52h239l-343 1012h57l344 -1012h394v1353h55v-1353h314v-52z" />
    <glyph glyph-name="uni06440671" unicode="&#xfedf;&#xfb51;" horiz-adv-x="1269" 
d="M1015 52v1353h55v-1405h-848v52h323l-338 1019h57l339 -1019h412zM8 1176l87 8q1 50 25.5 104t75.5 91.5t127 37.5q85 0 119.5 -42.5t34.5 -128.5v-96h-259q-72 0 -210 -15v41zM180 1191h256v53q0 70 -23.5 101t-89.5 31q-54 0 -96.5 -26.5t-66.5 -70t-26 -92.5z" />
    <glyph glyph-name="uni06440671.fina" unicode="&#xfee0;&#xfb51;" horiz-adv-x="1349" 
d="M1363 0h-1060v52h239l-343 1012h57l344 -1012h394v1353h55v-1353h314v-52zM74 1176l87 8q1 50 25.5 104t75.5 91.5t127 37.5q85 0 119.5 -42.5t34.5 -128.5v-96h-259q-72 0 -210 -15v41zM246 1191h256v53q0 70 -23.5 101t-89.5 31q-54 0 -96.5 -26.5t-66.5 -70t-26 -92.5
z" />
    <glyph glyph-name="uni066E.init" unicode="&#x66e;" horiz-adv-x="572" 
d="M373 0h-387v52h332v828h55v-880z" />
    <glyph glyph-name="uni066E.medi" unicode="&#x66e;" horiz-adv-x="752" 
d="M766 0h-780v52h362v828h56v-828h362v-52z" />
    <glyph glyph-name="uni066E.fina" unicode="&#x66e;" horiz-adv-x="2026" 
d="M1725 52h315v-52h-1416q-160 0 -277.5 65.5t-180 177.5t-62.5 248q0 82 33 171.5t101 165.5l38 -37q-56 -62 -86.5 -137.5t-30.5 -161.5q0 -117 54 -217.5t160 -161.5t255 -61h1041v828h56v-828z" />
    <glyph glyph-name="uni066F.fina" unicode="&#x66f;" horiz-adv-x="1898" 
d="M1912 52v-52h-257v-99q0 -140 -59.5 -220.5t-166.5 -113t-263 -32.5h-523q-185 0 -310.5 71.5t-186.5 193.5t-61 274q0 97 35.5 198.5t110.5 187.5l37 -38q-61 -70 -95 -159t-34 -188q0 -134 53 -244t166.5 -177t287.5 -67h521q139 0 233 27t147 96.5t53 191.5v98h-277
q-115 0 -211 60.5t-152 164.5t-56 228q0 117 56 215t152 155t211 57h332v-828h257zM1600 52v647h1v129h-279q-100 0 -183.5 -50.5t-132 -136.5t-48.5 -188q0 -111 48 -203t131 -145t183 -53h280z" />
    <glyph glyph-name="uni06A1.init" unicode="&#x6a1;" horiz-adv-x="1059" 
d="M860 880v-880h-874v52h345q-101 57 -161 164t-60 237q0 117 56 215t152 155t211 57h331zM806 828h-278q-101 0 -184.5 -50.5t-132 -136.5t-48.5 -188q0 -111 48 -203t131 -145t183 -53h281v776z" />
    <glyph glyph-name="uni06A1.medi" unicode="&#x6a1;" horiz-adv-x="1137" 
d="M860 52h291v-52h-1165v52h345q-101 57 -161 164t-60 237q0 117 56 215t152 155t211 57h331v-828zM806 828h-278q-101 0 -184.5 -50.5t-132 -136.5t-48.5 -188q0 -111 48 -203t131 -145t183 -53h281v776z" />
    <glyph glyph-name="uni06A1.fina" unicode="&#x6a1;" horiz-adv-x="1829" 
d="M1601 52h242v-52h-1239q-160 0 -277.5 65.5t-179.5 177.5t-62 248q0 82 33 171.5t100 165.5l38 -37q-55 -63 -86 -138t-31 -161q0 -117 54 -217.5t160 -161.5t255 -61h464q-101 57 -161.5 164t-60.5 237q0 117 56 215t152 155t211 57h332v-828zM1546 828h-278
q-101 0 -184.5 -50.5t-131.5 -136.5t-48 -188q0 -111 48 -203t131 -145t182 -53h281v776z" />
    <glyph glyph-name="uni06C2.fina" unicode="&#x6c2;" horiz-adv-x="644" 
d="M536 41.5q-45 41.5 -72 141.5q-18 70 -45.5 105.5t-76.5 35.5q-32 0 -56.5 -17.5t-49 -57t-55.5 -110.5l-37 -83l-46 19l37 86q52 118 99 166.5t110 48.5q62 0 99.5 -44.5t65.5 -135.5q22 -66 54.5 -105t75.5 -39q12 0 16 -1.5t4 -6.5v-37q0 -4 -4 -5.5t-16 -1.5
q-58 0 -103 41.5zM146 573l135 19q-32 16 -51.5 52.5t-19.5 77.5q0 73 46 112t138 39h37l-2 -48h-32q-73 0 -106 -24t-33 -86q0 -49 31.5 -86t83.5 -37h137v-50h-51q-113 0 -162.5 -3t-150.5 -15v49z" />
    <glyph glyph-name="uni06C3.fina" unicode="&#x6c3;" horiz-adv-x="644" 
d="M536 41.5q-45 41.5 -72 141.5q-18 70 -45.5 105.5t-76.5 35.5q-32 0 -56.5 -17.5t-49 -57t-55.5 -110.5l-37 -83l-46 19l37 86q52 118 99 166.5t110 48.5q62 0 99.5 -44.5t65.5 -135.5q22 -66 54.5 -105t75.5 -39q12 0 16 -1.5t4 -6.5v-37q0 -4 -4 -5.5t-16 -1.5
q-58 0 -103 41.5zM397.5 524.5q-17.5 18.5 -17.5 43.5q0 26 17.5 44.5t43.5 18.5q27 0 46 -18.5t19 -44.5q0 -25 -19 -43.5t-46 -18.5q-26 0 -43.5 18.5zM199.5 524.5q-17.5 18.5 -17.5 43.5q0 26 17.5 44.5t43.5 18.5q27 0 46 -18.5t19 -44.5q0 -25 -19 -43.5t-46 -18.5
q-26 0 -43.5 18.5z" />
    <glyph glyph-name="uniFB51" unicode="&#x671;" horiz-adv-x="555" arabic-form="final" 
d="M253 1493v-1441h316v-52h-370v1493h54zM-30 1637l87 8q1 50 25.5 104t75.5 91.5t127 37.5q85 0 119.5 -42.5t34.5 -128.5v-96h-259q-72 0 -210 -15v41zM142 1652h256v53q0 70 -23.5 101t-89.5 31q-54 0 -96.5 -26.5t-66.5 -70t-26 -92.5z" />
    <glyph glyph-name="uniFB67" unicode="&#x679;" horiz-adv-x="2026" arabic-form="final" 
d="M1725 52h315v-52h-1416q-160 0 -277.5 65.5t-180 177.5t-62.5 248q0 82 33 171.5t101 165.5l38 -37q-56 -62 -86.5 -137.5t-30.5 -161.5q0 -117 54 -217.5t160 -161.5t255 -61h1041v828h56v-828zM1164.5 1229q26.5 -26 26.5 -73q0 -75 -49.5 -110.5t-151.5 -35.5h-193
q-4 0 -4 4v37q0 5 5 5h26l32 36v270h40v-209l-3 -21q60 63 108.5 93t88.5 30q48 0 74.5 -26zM983 1056q165 0 165 95q0 28 -17.5 44t-46.5 16q-40 0 -92 -37.5t-121 -117.5h112z" />
    <glyph glyph-name="uniFB68" unicode="&#x679;" horiz-adv-x="572" arabic-form="initial" 
d="M373 0h-387v52h332v828h55v-880zM524.5 1231q26.5 -26 26.5 -73q0 -75 -49.5 -110.5t-151.5 -35.5h-193q-4 0 -4 4v37q0 5 5 5h26l32 36v270h40v-209l-3 -21q60 63 108.5 93t88.5 30q48 0 74.5 -26zM343 1058q165 0 165 95q0 28 -17.5 44t-46.5 16q-40 0 -92 -37.5
t-121 -117.5h112z" />
    <glyph glyph-name="uniFB69" unicode="&#x679;" horiz-adv-x="752" arabic-form="medial" 
d="M766 0h-780v52h362v828h56v-828h362v-52zM559.5 1231q26.5 -26 26.5 -73q0 -75 -49.5 -110.5t-151.5 -35.5h-193q-4 0 -4 4v37q0 5 5 5h26l32 36v270h40v-209l-3 -21q60 63 108.5 93t88.5 30q48 0 74.5 -26zM378 1058q165 0 165 95q0 28 -17.5 44t-46.5 16
q-40 0 -92 -37.5t-121 -117.5h112z" />
    <glyph glyph-name="uniFB6B" unicode="&#x6a4;" horiz-adv-x="1829" arabic-form="final" 
d="M1601 52h242v-52h-1239q-160 0 -277.5 65.5t-179.5 177.5t-62 248q0 82 33 171.5t100 165.5l38 -37q-55 -63 -86 -138t-31 -161q0 -117 54 -217.5t160 -161.5t255 -61h464q-101 57 -161.5 164t-60.5 237q0 117 56 215t152 155t211 57h332v-828zM1546 828h-278
q-101 0 -184.5 -50.5t-131.5 -136.5t-48 -188q0 -111 48 -203t131 -145t182 -53h281v776zM1331.5 1235.5q-17.5 18.5 -17.5 43.5q0 26 17.5 44.5t43.5 18.5q27 0 46 -18.5t19 -44.5q0 -25 -19 -43.5t-46 -18.5q-26 0 -43.5 18.5zM1238.5 1073.5q-17.5 18.5 -17.5 43.5
q0 26 17.5 44.5t43.5 18.5q27 0 46 -18.5t19 -44.5q0 -25 -19 -43.5t-46 -18.5q-26 0 -43.5 18.5zM1427.5 1074.5q-17.5 18.5 -17.5 43.5q0 26 17.5 44.5t43.5 18.5q27 0 46 -18.5t19 -44.5q0 -25 -19 -43.5t-46 -18.5q-26 0 -43.5 18.5z" />
    <glyph glyph-name="uniFB6C" unicode="&#x6a4;" horiz-adv-x="1059" arabic-form="initial" 
d="M860 880v-880h-874v52h345q-101 57 -161 164t-60 237q0 117 56 215t152 155t211 57h331zM806 828h-278q-101 0 -184.5 -50.5t-132 -136.5t-48.5 -188q0 -111 48 -203t131 -145t183 -53h281v776zM589.5 1168.5q-17.5 18.5 -17.5 43.5q0 26 17.5 44.5t43.5 18.5
q27 0 46 -18.5t19 -44.5q0 -25 -19 -43.5t-46 -18.5q-26 0 -43.5 18.5zM496.5 1006.5q-17.5 18.5 -17.5 43.5q0 26 17.5 44.5t43.5 18.5q27 0 46 -18.5t19 -44.5q0 -25 -19 -43.5t-46 -18.5q-26 0 -43.5 18.5zM685.5 1007.5q-17.5 18.5 -17.5 43.5q0 26 17.5 44.5t43.5 18.5
q27 0 46 -18.5t19 -44.5q0 -25 -19 -43.5t-46 -18.5q-26 0 -43.5 18.5z" />
    <glyph glyph-name="uniFB6D" unicode="&#x6a4;" horiz-adv-x="1137" arabic-form="medial" 
d="M860 52h291v-52h-1165v52h345q-101 57 -161 164t-60 237q0 117 56 215t152 155t211 57h331v-828zM806 828h-278q-101 0 -184.5 -50.5t-132 -136.5t-48.5 -188q0 -111 48 -203t131 -145t183 -53h281v776zM611.5 1162.5q-17.5 18.5 -17.5 43.5q0 26 17.5 44.5t43.5 18.5
q27 0 46 -18.5t19 -44.5q0 -25 -19 -43.5t-46 -18.5q-26 0 -43.5 18.5zM518.5 1000.5q-17.5 18.5 -17.5 43.5q0 26 17.5 44.5t43.5 18.5q27 0 46 -18.5t19 -44.5q0 -25 -19 -43.5t-46 -18.5q-26 0 -43.5 18.5zM707.5 1001.5q-17.5 18.5 -17.5 43.5q0 26 17.5 44.5t43.5 18.5
q27 0 46 -18.5t19 -44.5q0 -25 -19 -43.5t-46 -18.5q-26 0 -43.5 18.5z" />
    <glyph glyph-name="uniFB7B" unicode="&#x686;" horiz-adv-x="1350" arabic-form="final" 
d="M181 -155q-74 114 -74 248q0 126 62.5 230.5t168.5 165t232 60.5q109 0 205 -41t169 -121q-58 187 -109 288t-136.5 154.5t-230.5 53.5q-91 0 -173 -30.5t-144 -85.5l-32 39q79 67 171.5 99.5t179.5 32.5q161 0 257.5 -61t148 -160t102.5 -262q46 -149 82 -227.5
t103 -127t180 -48.5h21v-52h-21q-122 0 -198.5 53t-130.5 154q-79 146 -189 218t-253 72q-114 0 -208 -53t-148.5 -146t-54.5 -208q0 -120 63 -216zM461 117q-16 16 -16 39t16 40t39 17t40 -17t17 -40t-16.5 -39t-40.5 -16q-23 0 -39 16zM651.5 117q-16.5 16 -16.5 39
q0 24 16 40.5t40 16.5q23 0 39.5 -17t16.5 -40t-16.5 -39t-39.5 -16t-39.5 16zM555.5 -27.5q-16.5 16.5 -16.5 39.5t16.5 39.5t39.5 16.5t39.5 -16.5t16.5 -39.5t-16.5 -39.5t-39.5 -16.5t-39.5 16.5z" />
    <glyph glyph-name="uniFB7C" unicode="&#x686;" horiz-adv-x="1470" arabic-form="initial" 
d="M1384 52v-52h-1398v52h1171q-56 34 -94 89t-62.5 121t-58.5 178q-45 150 -93.5 237.5t-135 135.5t-230.5 48q-90 0 -170 -31t-147 -88l-33 39q79 67 172 99.5t180 32.5q163 0 260 -57t149 -153t100 -255q43 -149 82.5 -228.5t110.5 -123.5t196 -44h1zM479.5 -346.5
q-17.5 18.5 -17.5 43.5q0 26 17.5 44.5t43.5 18.5q27 0 46 -18.5t19 -44.5q0 -25 -19 -43.5t-46 -18.5q-26 0 -43.5 18.5zM386.5 -199.5q-17.5 18.5 -17.5 43.5q0 26 17.5 44.5t43.5 18.5q27 0 46 -18.5t19 -44.5q0 -25 -19 -43.5t-46 -18.5q-26 0 -43.5 18.5zM574.5 -199.5
q-17.5 18.5 -17.5 43.5q0 26 17.5 44.5t43.5 18.5q27 0 46 -18.5t19 -44.5q0 -25 -19 -43.5t-46 -18.5q-26 0 -43.5 18.5z" />
    <glyph glyph-name="uniFB7D" unicode="&#x686;" horiz-adv-x="1446" arabic-form="medial" 
d="M1153.5 219.5q39.5 -79.5 110.5 -123.5t196 -44l-1 -52h-1473v52h1249q-56 33 -93.5 88.5t-63 121.5t-59.5 178q-44 149 -92.5 236.5t-135 135.5t-230.5 48q-90 0 -170.5 -31t-146.5 -87l-33 38q79 67 172 99.5t180 32.5q163 0 260 -57t149 -153t99 -254
q43 -149 82.5 -228.5zM506.5 -346.5q-17.5 18.5 -17.5 43.5q0 26 17.5 44.5t43.5 18.5q27 0 46 -18.5t19 -44.5q0 -25 -19 -43.5t-46 -18.5q-26 0 -43.5 18.5zM413.5 -199.5q-17.5 18.5 -17.5 43.5q0 26 17.5 44.5t43.5 18.5q27 0 46 -18.5t19 -44.5q0 -25 -19 -43.5
t-46 -18.5q-26 0 -43.5 18.5zM601.5 -199.5q-17.5 18.5 -17.5 43.5q0 26 17.5 44.5t43.5 18.5q27 0 46 -18.5t19 -44.5q0 -25 -19 -43.5t-46 -18.5q-26 0 -43.5 18.5z" />
    <glyph glyph-name="uniFB89" unicode="&#x688;" horiz-adv-x="1384" arabic-form="final" 
d="M1398 52v-52h-1294v52h944q-11 199 -101.5 376t-236 301.5t-315.5 170.5l24 48q178 -49 330.5 -180.5t247.5 -319t106 -396.5h295zM617.5 1286q26.5 -26 26.5 -73q0 -75 -49.5 -110.5t-151.5 -35.5h-193q-4 0 -4 4v37q0 5 5 5h26l32 36v270h40v-209l-3 -21
q60 63 108.5 93t88.5 30q48 0 74.5 -26zM436 1113q165 0 165 95q0 28 -17.5 44t-46.5 16q-40 0 -92 -37.5t-121 -117.5h112z" />
    <glyph glyph-name="uniFB8B" unicode="&#x698;" horiz-adv-x="513" arabic-form="final" 
d="M527 52v-52h-265v-42q0 -148 -61 -233t-187 -85q-46 0 -109 25l14 51q46 -24 92 -24q102 0 149 67.5t47 197.5v919h55v-824h265zM197.5 1158.5q-17.5 18.5 -17.5 43.5q0 26 17.5 44.5t43.5 18.5q27 0 46 -18.5t19 -44.5q0 -25 -19 -43.5t-46 -18.5q-26 0 -43.5 18.5z
M104.5 996.5q-17.5 18.5 -17.5 43.5q0 26 17.5 44.5t43.5 18.5q27 0 46 -18.5t19 -44.5q0 -25 -19 -43.5t-46 -18.5q-26 0 -43.5 18.5zM293.5 997.5q-17.5 18.5 -17.5 43.5q0 26 17.5 44.5t43.5 18.5q27 0 46 -18.5t19 -44.5q0 -25 -19 -43.5t-46 -18.5q-26 0 -43.5 18.5z
" />
    <glyph glyph-name="uniFB8D" unicode="&#x691;" horiz-adv-x="513" arabic-form="final" 
d="M527 52v-52h-265v-42q0 -148 -61 -233t-187 -85q-46 0 -109 25l14 51q46 -24 92 -24q102 0 149 67.5t47 197.5v919h55v-824h265zM418.5 1227q26.5 -26 26.5 -73q0 -75 -49.5 -110.5t-151.5 -35.5h-193q-4 0 -4 4v37q0 5 5 5h26l32 36v270h40v-209l-3 -21q60 63 108.5 93
t88.5 30q48 0 74.5 -26zM237 1054q165 0 165 95q0 28 -17.5 44t-46.5 16q-40 0 -92 -37.5t-121 -117.5h112z" />
    <glyph glyph-name="uniFB8F" unicode="&#x6a9;" horiz-adv-x="2014" arabic-form="final" 
d="M1714 52h314v-52h-1424q-160 0 -277.5 65.5t-179.5 177.5t-62 248q0 82 33 171.5t100 165.5l38 -37q-55 -63 -86 -138t-31 -161q0 -117 54 -217.5t160 -161.5t255 -61h1051v219q0 165 -86 254.5t-267 89.5h-504v51q3 194 99.5 345t271 236.5t403.5 85.5l3 -54
q-213 0 -375 -77.5t-253 -216t-97 -319.5h451q206 0 307.5 -103t101.5 -291v-220z" />
    <glyph glyph-name="uniFB90" unicode="&#x6a9;" horiz-adv-x="1165" arabic-form="initial" 
d="M557 666q206 0 307.5 -103t101.5 -291v-272h-980v52h925v219q0 165 -86.5 254.5t-266.5 89.5h-504v51q3 194 99.5 345t271 236.5t403.5 85.5l3 -54q-213 0 -375 -77.5t-253 -216t-97 -319.5h451z" />
    <glyph glyph-name="uniFB91" unicode="&#x6a9;" horiz-adv-x="1266" arabic-form="medial" 
d="M966 52h314v-52h-1294v52h925v219q0 165 -86.5 254.5t-266.5 89.5h-504v51q3 194 99.5 345t271 236.5t403.5 85.5l3 -54q-213 0 -375 -77.5t-253 -216t-97 -319.5h451q206 0 307.5 -103t101.5 -291v-220z" />
    <glyph glyph-name="uniFB93" unicode="&#x6af;" horiz-adv-x="2014" arabic-form="final" 
d="M1714 52h314v-52h-1424q-160 0 -277.5 65.5t-179.5 177.5t-62 248q0 82 33 171.5t100 165.5l38 -37q-55 -63 -86 -138t-31 -161q0 -117 54 -217.5t160 -161.5t255 -61h1051v219q0 165 -86 254.5t-267 89.5h-504v51q3 194 99.5 345t271 236.5t403.5 85.5l3 -54
q-213 0 -375 -77.5t-253 -216t-97 -319.5h451q206 0 307.5 -103t101.5 -291v-220zM1136 1323q-122 -48 -215.5 -134t-147 -201t-56.5 -246l-41 1q2 136 57 257t153.5 214.5t227.5 148.5z" />
    <glyph glyph-name="uniFB94" unicode="&#x6af;" horiz-adv-x="1165" arabic-form="initial" 
d="M557 666q206 0 307.5 -103t101.5 -291v-272h-980v52h925v219q0 165 -86.5 254.5t-266.5 89.5h-504v51q3 194 99.5 345t271 236.5t403.5 85.5l3 -54q-213 0 -375 -77.5t-253 -216t-97 -319.5h451zM388 1323q-122 -48 -215.5 -134t-147 -201t-56.5 -246l-41 1q2 136 57 257
t153.5 214.5t227.5 148.5z" />
    <glyph glyph-name="uniFB95" unicode="&#x6af;" horiz-adv-x="1266" arabic-form="medial" 
d="M966 52h314v-52h-1294v52h925v219q0 165 -86.5 254.5t-266.5 89.5h-504v51q3 194 99.5 345t271 236.5t403.5 85.5l3 -54q-213 0 -375 -77.5t-253 -216t-97 -319.5h451q206 0 307.5 -103t101.5 -291v-220zM388 1323q-122 -48 -215.5 -134t-147 -201t-56.5 -246l-41 1
q2 136 57 257t153.5 214.5t227.5 148.5z" />
    <glyph glyph-name="uniFB9F" unicode="&#x6ba;" horiz-adv-x="1463" arabic-form="final" 
d="M1477 52v-52h-309q-8 -155 -86 -263.5t-198.5 -163t-252.5 -54.5q-155 0 -280 75.5t-195.5 203.5t-70.5 280q0 94 36 195.5t110 187.5l38 -38q-62 -69 -95.5 -157.5t-33.5 -186.5q0 -132 62 -249t174 -187.5t255 -70.5q121 0 232 52.5t181.5 157t70.5 251.5v766h54v-747
h308z" />
    <glyph glyph-name="uniFBA7" unicode="&#x6c1;" horiz-adv-x="645" arabic-form="final" 
d="M536 41.5q-45 41.5 -72 141.5q-18 70 -45.5 105.5t-76.5 35.5q-32 0 -56.5 -17.5t-49 -57t-55.5 -110.5l-37 -83l-46 19l37 86q52 118 99 166.5t110 48.5q62 0 99.5 -44.5t65.5 -135.5q22 -66 54.5 -105t75.5 -39q12 0 16 -1.5t4 -6.5v-37q0 -4 -4 -5.5t-16 -1.5
q-58 0 -103 41.5z" />
    <glyph glyph-name="uniFBA8" unicode="&#x6c1;" horiz-adv-x="640" arabic-form="initial" 
d="M441 0h-455v52h400v861h55v-913zM126 -407l97 262l42 -4l-82 -258h-57z" />
    <glyph glyph-name="uniFBA9" unicode="&#x6c1;" horiz-adv-x="925" arabic-form="medial" 
d="M398 233q-52 -100 -154.5 -166.5t-237.5 -66.5h-20v52h21q117 0 205.5 48.5t135.5 133t47 188.5v10h53l2 -577q49 93 150 145t242 52h97v-52h-98q-120 0 -207.5 -40.5t-134 -116t-46.5 -178.5v-6h-53zM720 -475l95 261l40 -4l-80 -257h-55z" />
    <glyph glyph-name="uniFBAB" unicode="&#x6be;" horiz-adv-x="1981" arabic-form="final" 
d="M1681 52h314v-52h-1910v52h586q-115 56 -184 164.5t-69 242.5q0 127 62.5 228t170 158t237.5 57q138 0 245 -58.5t167 -162.5t60 -237v-392h267v517q0 175 -80 311.5t-225 213t-332 76.5v52q202 0 359.5 -83.5t244.5 -232t87 -335.5v-519zM1306 52v391q0 119 -52 211.5
t-146.5 143.5t-218.5 51q-117 0 -212.5 -49t-150.5 -138.5t-55 -203.5q0 -108 48.5 -197t133.5 -144t191 -65h462z" />
    <glyph glyph-name="uniFBAC" unicode="&#x6be;" horiz-adv-x="1781" arabic-form="initial" 
d="M891 1222q202 0 359.5 -83.5t244.5 -232t87 -335.5v-571h-1596v52h586q-115 57 -184 165.5t-69 241.5q0 127 63 228t170.5 158t237.5 57q137 0 244.5 -58.5t167 -162.5t59.5 -237v-392h268v517q0 175 -80 311.5t-225 213t-333 76.5v52zM1208 52v391q0 119 -52 211.5
t-147 143.5t-219 51q-117 0 -212.5 -49t-150.5 -138.5t-55 -203.5q0 -108 48.5 -197t134 -144t191.5 -65h462z" />
    <glyph glyph-name="uniFBAD" unicode="&#x6be;" horiz-adv-x="1882" arabic-form="medial" 
d="M1582 52h314v-52h-1910v52h586q-115 57 -184 165.5t-69 241.5q0 127 63 228t170.5 158t237.5 57q137 0 244.5 -58.5t167 -162.5t59.5 -237v-392h268v517q0 175 -80 311.5t-225 213t-333 76.5v52q202 0 359.5 -83.5t244.5 -232t87 -335.5v-519zM1208 52v391
q0 119 -52 211.5t-147 143.5t-219 51q-117 0 -212.5 -49t-150.5 -138.5t-55 -203.5q0 -108 48.5 -197t134 -144t191.5 -65h462z" />
    <glyph glyph-name="uniFBAF" unicode="&#x6d2;" horiz-adv-x="1024" arabic-form="final" 
d="M1038 52v-52h-742q-42 0 -79 -20.5t-58.5 -55t-21.5 -74.5q0 -38 22.5 -71.5t60.5 -53t83 -19.5h415l-8 -53h-407q-59 0 -109 27t-79.5 73t-29.5 99q0 54 28.5 100t77.5 73t106 27h741z" />
    <glyph glyph-name="uniFBB1" unicode="&#x6d3;" horiz-adv-x="1024" arabic-form="final" 
d="M1038 52v-52h-742q-42 0 -79 -20.5t-58.5 -55t-21.5 -74.5q0 -38 22.5 -71.5t60.5 -53t83 -19.5h415l-8 -53h-407q-59 0 -109 27t-79.5 73t-29.5 99q0 54 28.5 100t77.5 73t106 27h741zM121 254l135 19q-32 16 -51.5 52.5t-19.5 77.5q0 73 46 112t138 39h37l-2 -48h-32
q-73 0 -106 -24t-33 -86q0 -49 31.5 -86t83.5 -37h137v-50h-51q-113 0 -162.5 -3t-150.5 -15v49z" />
    <glyph glyph-name="uniFBFD" unicode="&#x6cc;" horiz-adv-x="2012" arabic-form="final" 
d="M635 -370q-156 0 -282 73t-197 198.5t-71 275.5q0 95 35.5 196t109.5 187l38 -38q-62 -69 -96 -158t-34 -186q0 -129 63 -243.5t176.5 -183.5t257.5 -69h451q169 0 254.5 61.5t85.5 165.5q0 70 -37 118.5t-91.5 79.5t-148.5 72q-103 45 -165.5 81.5t-105.5 97t-43 149.5
q0 146 81.5 229.5t234.5 83.5q120 0 190 -48.5t103 -120t67 -193.5q37 -133 76 -213.5t125 -136.5t237 -56h77v-52h-76q-173 0 -271 60.5t-140 147t-80 226.5q-31 114 -59.5 179.5t-87.5 109.5t-162 44q-129 -1 -194.5 -70t-65.5 -189q0 -72 38 -122t93 -81.5t151 -73.5
q102 -45 163 -81t103.5 -95t42.5 -145q0 -129 -93.5 -204.5t-275.5 -75.5h-477z" />
    <glyph glyph-name="uniFBFE" unicode="&#x6cc;" horiz-adv-x="572" arabic-form="initial" 
d="M373 0h-387v52h332v828h55v-880zM378.5 -307.5q-17.5 18.5 -17.5 43.5q0 26 17.5 44.5t43.5 18.5q27 0 46 -18.5t19 -44.5q0 -25 -19 -43.5t-46 -18.5q-26 0 -43.5 18.5zM179.5 -307.5q-17.5 18.5 -17.5 43.5q0 26 17.5 44.5t43.5 18.5q27 0 46 -18.5t19 -44.5
q0 -25 -19 -43.5t-46 -18.5q-26 0 -43.5 18.5z" />
    <glyph glyph-name="uniFBFF" unicode="&#x6cc;" horiz-adv-x="752" arabic-form="medial" 
d="M766 0h-780v52h362v828h56v-828h362v-52zM431.5 -307.5q-17.5 18.5 -17.5 43.5q0 26 17.5 44.5t43.5 18.5q27 0 46 -18.5t19 -44.5q0 -25 -19 -43.5t-46 -18.5q-26 0 -43.5 18.5zM232.5 -307.5q-17.5 18.5 -17.5 43.5q0 26 17.5 44.5t43.5 18.5q27 0 46 -18.5t19 -44.5
q0 -25 -19 -43.5t-46 -18.5q-26 0 -43.5 18.5z" />
    <glyph glyph-name="uniFE82" unicode="&#x622;" horiz-adv-x="555" arabic-form="final" 
d="M253 1493v-1441h316v-52h-370v1493h54zM-2 1573q27 58 63 87.5t75 29.5q27 0 52 -11.5t60 -33.5q33 -20 53 -29t39 -9q28 0 47 18t46 66l43 -18q-28 -58 -63.5 -87.5t-73.5 -29.5q-27 0 -52 11t-62 34q-29 19 -49.5 28.5t-40.5 9.5q-28 0 -48 -18.5t-46 -65.5z" />
    <glyph glyph-name="uniFE84" unicode="&#x623;" horiz-adv-x="566" arabic-form="final" 
d="M264 1493v-1441h316v-52h-370v1493h54zM38 1652l135 19q-32 16 -51.5 52.5t-19.5 77.5q0 73 46 112t138 39h37l-2 -48h-32q-73 0 -106 -24t-33 -86q0 -49 31.5 -86t83.5 -37h137v-50h-51q-113 0 -162.5 -3t-150.5 -15v49z" />
    <glyph glyph-name="uniFE86" unicode="&#x624;" horiz-adv-x="1078" arabic-form="final" 
d="M797 52h295v-52h-295v-127q0 -196 -92.5 -294t-267.5 -98q-136 0 -284 74l23 50q136 -69 261 -69q149 0 227.5 85t78.5 254v125h-278q-115 0 -211 60.5t-152 164.5t-56 228q0 117 56 215t152 155t211 57h332v-828zM743 52v776h-279q-100 0 -183.5 -50.5t-132 -136.5
t-48.5 -188q0 -111 48 -203t131 -145t183 -53h281zM370 1065l135 19q-32 16 -51.5 52.5t-19.5 77.5q0 73 46 112t138 39h37l-2 -48h-32q-73 0 -106 -24t-33 -86q0 -49 31.5 -86t83.5 -37h137v-50h-51q-113 0 -162.5 -3t-150.5 -15v49z" />
    <glyph glyph-name="uniFE88" unicode="&#x625;" horiz-adv-x="555" arabic-form="final" 
d="M253 1493v-1441h316v-52h-370v1493h54zM27 -449l134 18q-31 16 -51 53t-20 78q0 73 46 112t139 39h36l-2 -49h-31q-73 0 -106.5 -24.5t-33.5 -85.5q0 -49 31.5 -86t83.5 -37h137v-50h-51q-113 0 -161.5 -2.5t-150.5 -15.5v50z" />
    <glyph glyph-name="uniFE8A" unicode="&#x626;" horiz-adv-x="2012" arabic-form="final" 
d="M635 -370q-156 0 -282 73t-197 198.5t-71 275.5q0 95 35.5 196t109.5 187l38 -38q-62 -69 -96 -158t-34 -186q0 -129 63 -243.5t176.5 -183.5t257.5 -69h451q169 0 254.5 61.5t85.5 165.5q0 70 -37 118.5t-91.5 79.5t-148.5 72q-103 45 -165.5 81.5t-105.5 97t-43 149.5
q0 146 81.5 229.5t234.5 83.5q120 0 190 -48.5t103 -120t67 -193.5q37 -133 76 -213.5t125 -136.5t237 -56h77v-52h-76q-173 0 -271 60.5t-140 147t-80 226.5q-31 114 -59.5 179.5t-87.5 109.5t-162 44q-129 -1 -194.5 -70t-65.5 -189q0 -72 38 -122t93 -81.5t151 -73.5
q102 -45 163 -81t103.5 -95t42.5 -145q0 -129 -93.5 -204.5t-275.5 -75.5h-477zM318 819l135 19q-32 16 -51.5 52.5t-19.5 77.5q0 73 46 112t138 39h37l-2 -48h-32q-73 0 -106 -24t-33 -86q0 -49 31.5 -86t83.5 -37h137v-50h-51q-113 0 -162.5 -3t-150.5 -15v49z" />
    <glyph glyph-name="uniFE8B" unicode="&#x626;" horiz-adv-x="572" arabic-form="initial" 
d="M373 0h-387v52h332v828h55v-880zM143 1076l135 19q-32 16 -51.5 52.5t-19.5 77.5q0 73 46 112t138 39h37l-2 -48h-32q-73 0 -106 -24t-33 -86q0 -49 31.5 -86t83.5 -37h137v-50h-51q-113 0 -162.5 -3t-150.5 -15v49z" />
    <glyph glyph-name="uniFE8C" unicode="&#x626;" horiz-adv-x="752" arabic-form="medial" 
d="M766 0h-780v52h362v828h56v-828h362v-52zM178 1076l135 19q-32 16 -51.5 52.5t-19.5 77.5q0 73 46 112t138 39h37l-2 -48h-32q-73 0 -106 -24t-33 -86q0 -49 31.5 -86t83.5 -37h137v-50h-51q-113 0 -162.5 -3t-150.5 -15v49z" />
    <glyph glyph-name="uniFE8E" unicode="&#x627;" horiz-adv-x="555" arabic-form="final" 
d="M253 1493v-1441h316v-52h-370v1493h54z" />
    <glyph glyph-name="uniFE90" unicode="&#x628;" horiz-adv-x="2026" arabic-form="final" 
d="M1725 52h315v-52h-1416q-160 0 -277.5 65.5t-180 177.5t-62.5 248q0 82 33 171.5t101 165.5l38 -37q-56 -62 -86.5 -137.5t-30.5 -161.5q0 -117 54 -217.5t160 -161.5t255 -61h1041v828h56v-828zM952.5 -310.5q-17.5 18.5 -17.5 43.5q0 26 17.5 44.5t43.5 18.5
q27 0 46 -18.5t19 -44.5q0 -25 -19 -43.5t-46 -18.5q-26 0 -43.5 18.5z" />
    <glyph glyph-name="uniFE91" unicode="&#x628;" horiz-adv-x="572" arabic-form="initial" 
d="M373 0h-387v52h332v828h55v-880zM277.5 -310.5q-17.5 18.5 -17.5 43.5q0 26 17.5 44.5t43.5 18.5q27 0 46 -18.5t19 -44.5q0 -25 -19 -43.5t-46 -18.5q-26 0 -43.5 18.5z" />
    <glyph glyph-name="uniFE92" unicode="&#x628;" horiz-adv-x="752" arabic-form="medial" 
d="M766 0h-780v52h362v828h56v-828h362v-52zM328.5 -310.5q-17.5 18.5 -17.5 43.5q0 26 17.5 44.5t43.5 18.5q27 0 46 -18.5t19 -44.5q0 -25 -19 -43.5t-46 -18.5q-26 0 -43.5 18.5z" />
    <glyph glyph-name="uniFE94" unicode="&#x629;" horiz-adv-x="1129" arabic-form="final" 
d="M783 52h360v-52h-670q-106 0 -195 55t-141 149.5t-52 207.5q0 107 52 196t141 140.5t196 51.5h254v122h55v-870zM728 52v695h-256q-92 0 -168.5 -44.5t-121 -121.5t-44.5 -169q0 -99 44 -181.5t120 -130.5t167 -48h259zM653.5 1069.5q-17.5 18.5 -17.5 43.5
q0 26 17.5 44.5t43.5 18.5q27 0 46 -18.5t19 -44.5q0 -25 -19 -43.5t-46 -18.5q-26 0 -43.5 18.5zM455.5 1069.5q-17.5 18.5 -17.5 43.5q0 26 17.5 44.5t43.5 18.5q27 0 46 -18.5t19 -44.5q0 -25 -19 -43.5t-46 -18.5q-26 0 -43.5 18.5z" />
    <glyph glyph-name="uniFE96" unicode="&#x62a;" horiz-adv-x="2026" arabic-form="final" 
d="M1725 52h315v-52h-1416q-160 0 -277.5 65.5t-180 177.5t-62.5 248q0 82 33 171.5t101 165.5l38 -37q-56 -62 -86.5 -137.5t-30.5 -161.5q0 -117 54 -217.5t160 -161.5t255 -61h1041v828h56v-828zM1034.5 1025.5q-17.5 18.5 -17.5 43.5q0 26 17.5 44.5t43.5 18.5
q27 0 46 -18.5t19 -44.5q0 -25 -19 -43.5t-46 -18.5q-26 0 -43.5 18.5zM836.5 1025.5q-17.5 18.5 -17.5 43.5q0 26 17.5 44.5t43.5 18.5q27 0 46 -18.5t19 -44.5q0 -25 -19 -43.5t-46 -18.5q-26 0 -43.5 18.5z" />
    <glyph glyph-name="uniFE97" unicode="&#x62a;" horiz-adv-x="572" arabic-form="initial" 
d="M373 0h-387v52h332v828h55v-880zM394.5 1027.5q-17.5 18.5 -17.5 43.5q0 26 17.5 44.5t43.5 18.5q27 0 46 -18.5t19 -44.5q0 -25 -19 -43.5t-46 -18.5q-26 0 -43.5 18.5zM196.5 1027.5q-17.5 18.5 -17.5 43.5q0 26 17.5 44.5t43.5 18.5q27 0 46 -18.5t19 -44.5
q0 -25 -19 -43.5t-46 -18.5q-26 0 -43.5 18.5z" />
    <glyph glyph-name="uniFE98" unicode="&#x62a;" horiz-adv-x="752" arabic-form="medial" 
d="M766 0h-780v52h362v828h56v-828h362v-52zM430.5 1027.5q-17.5 18.5 -17.5 43.5q0 26 17.5 44.5t43.5 18.5q27 0 46 -18.5t19 -44.5q0 -25 -19 -43.5t-46 -18.5q-26 0 -43.5 18.5zM232.5 1027.5q-17.5 18.5 -17.5 43.5q0 26 17.5 44.5t43.5 18.5q27 0 46 -18.5t19 -44.5
q0 -25 -19 -43.5t-46 -18.5q-26 0 -43.5 18.5z" />
    <glyph glyph-name="uniFE9A" unicode="&#x62b;" horiz-adv-x="2026" arabic-form="final" 
d="M1725 52h315v-52h-1416q-160 0 -277.5 65.5t-180 177.5t-62.5 248q0 82 33 171.5t101 165.5l38 -37q-56 -62 -86.5 -137.5t-30.5 -161.5q0 -117 54 -217.5t160 -161.5t255 -61h1041v828h56v-828zM942.5 1160.5q-17.5 18.5 -17.5 43.5q0 26 17.5 44.5t43.5 18.5
q27 0 46 -18.5t19 -44.5q0 -25 -19 -43.5t-46 -18.5q-26 0 -43.5 18.5zM849.5 998.5q-17.5 18.5 -17.5 43.5q0 26 17.5 44.5t43.5 18.5q27 0 46 -18.5t19 -44.5q0 -25 -19 -43.5t-46 -18.5q-26 0 -43.5 18.5zM1038.5 999.5q-17.5 18.5 -17.5 43.5q0 26 17.5 44.5t43.5 18.5
q27 0 46 -18.5t19 -44.5q0 -25 -19 -43.5t-46 -18.5q-26 0 -43.5 18.5z" />
    <glyph glyph-name="uniFE9B" unicode="&#x62b;" horiz-adv-x="572" arabic-form="initial" 
d="M373 0h-387v52h332v828h55v-880zM303.5 1162.5q-17.5 18.5 -17.5 43.5q0 26 17.5 44.5t43.5 18.5q27 0 46 -18.5t19 -44.5q0 -25 -19 -43.5t-46 -18.5q-26 0 -43.5 18.5zM210.5 1000.5q-17.5 18.5 -17.5 43.5q0 26 17.5 44.5t43.5 18.5q27 0 46 -18.5t19 -44.5
q0 -25 -19 -43.5t-46 -18.5q-26 0 -43.5 18.5zM399.5 1001.5q-17.5 18.5 -17.5 43.5q0 26 17.5 44.5t43.5 18.5q27 0 46 -18.5t19 -44.5q0 -25 -19 -43.5t-46 -18.5q-26 0 -43.5 18.5z" />
    <glyph glyph-name="uniFE9C" unicode="&#x62b;" horiz-adv-x="752" arabic-form="medial" 
d="M766 0h-780v52h362v828h56v-828h362v-52zM338.5 1162.5q-17.5 18.5 -17.5 43.5q0 26 17.5 44.5t43.5 18.5q27 0 46 -18.5t19 -44.5q0 -25 -19 -43.5t-46 -18.5q-26 0 -43.5 18.5zM245.5 1000.5q-17.5 18.5 -17.5 43.5q0 26 17.5 44.5t43.5 18.5q27 0 46 -18.5t19 -44.5
q0 -25 -19 -43.5t-46 -18.5q-26 0 -43.5 18.5zM434.5 1001.5q-17.5 18.5 -17.5 43.5q0 26 17.5 44.5t43.5 18.5q27 0 46 -18.5t19 -44.5q0 -25 -19 -43.5t-46 -18.5q-26 0 -43.5 18.5z" />
    <glyph glyph-name="uniFE9E" unicode="&#x62c;" horiz-adv-x="1433" arabic-form="final" 
d="M1447 0h-2v-1h-697q-155 0 -255.5 -52t-147 -138t-46.5 -192q0 -141 105 -258l-37 -38q-60 68 -90.5 147t-30.5 150q0 122 53 219.5t165 155.5t280 58h481q-56 34 -94.5 89t-64 122t-59.5 178q-44 149 -92.5 236.5t-135 135.5t-230.5 48q-90 0 -170.5 -31t-146.5 -87
l-33 38q79 67 172 99.5t179 32.5q163 0 260.5 -57t149.5 -153t99 -254q43 -149 82.5 -228.5t110.5 -123.5t195 -44v-52zM616.5 -400.5q-17.5 18.5 -17.5 43.5q0 26 17.5 44.5t43.5 18.5q27 0 46 -18.5t19 -44.5q0 -25 -19 -43.5t-46 -18.5q-26 0 -43.5 18.5z" />
    <glyph glyph-name="uniFE9F" unicode="&#x62c;" horiz-adv-x="1506" arabic-form="initial" 
d="M1384 52v-52h-1398v52h1171q-56 34 -94 89t-62.5 121t-58.5 178q-45 150 -93.5 237.5t-135 135.5t-230.5 48q-90 0 -170 -31t-147 -88l-33 39q79 67 172 99.5t180 32.5q163 0 260 -57t149 -153t100 -255q43 -149 82.5 -228.5t110.5 -123.5t196 -44h1zM486.5 -310.5
q-17.5 18.5 -17.5 43.5q0 26 17.5 44.5t43.5 18.5q27 0 46 -18.5t19 -44.5q0 -25 -19 -43.5t-46 -18.5q-26 0 -43.5 18.5z" />
    <glyph glyph-name="uniFEA0" unicode="&#x62c;" horiz-adv-x="1371" arabic-form="medial" 
d="M1384 52v-52h-1398v52h1171q-56 34 -94 89t-62.5 121t-58.5 178q-45 150 -93.5 237.5t-135 135.5t-230.5 48q-90 0 -170 -31t-147 -88l-33 39q79 67 172 99.5t180 32.5q163 0 260 -57t149 -153t100 -255q43 -149 82.5 -228.5t110.5 -123.5t196 -44h1zM492.5 -310.5
q-17.5 18.5 -17.5 43.5q0 26 17.5 44.5t43.5 18.5q27 0 46 -18.5t19 -44.5q0 -25 -19 -43.5t-46 -18.5q-26 0 -43.5 18.5z" />
    <glyph glyph-name="uniFEA2" unicode="&#x62d;" horiz-adv-x="1433" arabic-form="final" 
d="M1447 0h-2v-1h-697q-155 0 -255.5 -52t-147 -138t-46.5 -192q0 -141 105 -258l-37 -38q-60 68 -90.5 147t-30.5 150q0 122 53 219.5t165 155.5t280 58h481q-56 34 -94.5 89t-64 122t-59.5 178q-44 149 -92.5 236.5t-135 135.5t-230.5 48q-90 0 -170.5 -31t-146.5 -87
l-33 38q79 67 172 99.5t179 32.5q163 0 260.5 -57t149.5 -153t99 -254q43 -149 82.5 -228.5t110.5 -123.5t195 -44v-52z" />
    <glyph glyph-name="uniFEA3" unicode="&#x62d;" horiz-adv-x="1470" arabic-form="initial" 
d="M1384 52v-52h-1398v52h1171q-56 34 -94 89t-62.5 121t-58.5 178q-45 150 -93.5 237.5t-135 135.5t-230.5 48q-90 0 -170 -31t-147 -88l-33 39q79 67 172 99.5t180 32.5q163 0 260 -57t149 -153t100 -255q43 -149 82.5 -228.5t110.5 -123.5t196 -44h1z" />
    <glyph glyph-name="uniFEA4" unicode="&#x62d;" horiz-adv-x="1446" arabic-form="medial" 
d="M1153.5 219.5q39.5 -79.5 110.5 -123.5t196 -44l-1 -52h-1473v52h1249q-56 33 -93.5 88.5t-63 121.5t-59.5 178q-44 149 -92.5 236.5t-135 135.5t-230.5 48q-90 0 -170.5 -31t-146.5 -87l-33 38q79 67 172 99.5t180 32.5q163 0 260 -57t149 -153t99 -254
q43 -149 82.5 -228.5z" />
    <glyph glyph-name="uniFEA6" unicode="&#x62e;" horiz-adv-x="1433" arabic-form="final" 
d="M1447 0h-2v-1h-697q-155 0 -255.5 -52t-147 -138t-46.5 -192q0 -141 105 -258l-37 -38q-60 68 -90.5 147t-30.5 150q0 122 53 219.5t165 155.5t280 58h481q-56 34 -94.5 89t-64 122t-59.5 178q-44 149 -92.5 236.5t-135 135.5t-230.5 48q-90 0 -170.5 -31t-146.5 -87
l-33 38q79 67 172 99.5t179 32.5q163 0 260.5 -57t149.5 -153t99 -254q43 -149 82.5 -228.5t110.5 -123.5t195 -44v-52zM548.5 1064.5q-17.5 18.5 -17.5 43.5q0 26 17.5 44.5t43.5 18.5q27 0 46 -18.5t19 -44.5q0 -25 -19 -43.5t-46 -18.5q-26 0 -43.5 18.5z" />
    <glyph glyph-name="uniFEA7" unicode="&#x62e;" horiz-adv-x="1470" arabic-form="initial" 
d="M1384 52v-52h-1398v52h1171q-56 34 -94 89t-62.5 121t-58.5 178q-45 150 -93.5 237.5t-135 135.5t-230.5 48q-90 0 -170 -31t-147 -88l-33 39q79 67 172 99.5t180 32.5q163 0 260 -57t149 -153t100 -255q43 -149 82.5 -228.5t110.5 -123.5t196 -44h1zM453.5 1041.5
q-17.5 18.5 -17.5 43.5q0 26 17.5 44.5t43.5 18.5q27 0 46 -18.5t19 -44.5q0 -25 -19 -43.5t-46 -18.5q-26 0 -43.5 18.5z" />
    <glyph glyph-name="uniFEA8" unicode="&#x62e;" horiz-adv-x="1446" arabic-form="medial" 
d="M1153.5 219.5q39.5 -79.5 110.5 -123.5t196 -44l-1 -52h-1473v52h1249q-56 33 -93.5 88.5t-63 121.5t-59.5 178q-44 149 -92.5 236.5t-135 135.5t-230.5 48q-90 0 -170.5 -31t-146.5 -87l-33 38q79 67 172 99.5t180 32.5q163 0 260 -57t149 -153t99 -254
q43 -149 82.5 -228.5zM527.5 1061.5q-17.5 18.5 -17.5 43.5q0 26 17.5 44.5t43.5 18.5q27 0 46 -18.5t19 -44.5q0 -25 -19 -43.5t-46 -18.5q-26 0 -43.5 18.5z" />
    <glyph glyph-name="uniFEAA" unicode="&#x62f;" horiz-adv-x="1384" arabic-form="final" 
d="M1398 52v-52h-1294v52h944q-11 199 -101.5 376t-236 301.5t-315.5 170.5l24 48q178 -49 330.5 -180.5t247.5 -319t106 -396.5h295z" />
    <glyph glyph-name="uniFEAC" unicode="&#x630;" horiz-adv-x="1384" arabic-form="final" 
d="M1398 52v-52h-1294v52h944q-11 199 -101.5 376t-236 301.5t-315.5 170.5l24 48q178 -49 330.5 -180.5t247.5 -319t106 -396.5h295zM399.5 1084.5q-17.5 18.5 -17.5 43.5q0 26 17.5 44.5t43.5 18.5q27 0 46 -18.5t19 -44.5q0 -25 -19 -43.5t-46 -18.5q-26 0 -43.5 18.5z
" />
    <glyph glyph-name="uniFEAE" unicode="&#x631;" horiz-adv-x="513" arabic-form="final" 
d="M527 52v-52h-265v-42q0 -148 -61 -233t-187 -85q-46 0 -109 25l14 51q46 -24 92 -24q102 0 149 67.5t47 197.5v919h55v-824h265z" />
    <glyph glyph-name="uniFEB0" unicode="&#x632;" horiz-adv-x="513" arabic-form="final" 
d="M527 52v-52h-265v-42q0 -148 -61 -233t-187 -85q-46 0 -109 25l14 51q46 -24 92 -24q102 0 149 67.5t47 197.5v919h55v-824h265zM200.5 1025.5q-17.5 18.5 -17.5 43.5q0 26 17.5 44.5t43.5 18.5q27 0 46 -18.5t19 -44.5q0 -25 -19 -43.5t-46 -18.5q-26 0 -43.5 18.5z" />
    <glyph glyph-name="uniFEB2" unicode="&#x633;" horiz-adv-x="2615" arabic-form="final" 
d="M2346 52h283v-52h-1461q-8 -155 -86 -263.5t-198.5 -163t-252.5 -54.5q-155 0 -280 75.5t-195.5 203.5t-70.5 280q0 94 36 195.5t110 187.5l38 -38q-62 -69 -95.5 -157.5t-33.5 -186.5q0 -132 62 -249t174 -187.5t255 -70.5q121 0 232 52.5t181.5 157t70.5 251.5v766h54
v-747h524v705h55v-705h544v828h54v-828z" />
    <glyph glyph-name="uniFEB3" unicode="&#x633;" horiz-adv-x="1920" arabic-form="initial" 
d="M1667 52v828h54v-880h-1735v52h484v748h54v-748h544v705h54v-705h545z" />
    <glyph glyph-name="uniFEB4" unicode="&#x633;" horiz-adv-x="2021" arabic-form="medial" 
d="M1721 880v-828h314v-52h-2049v52h484v748h54v-748h544v705h54v-705h545v828h54z" />
    <glyph glyph-name="uniFEB6" unicode="&#x634;" horiz-adv-x="2615" arabic-form="final" 
d="M2346 52h283v-52h-1461q-8 -155 -86 -263.5t-198.5 -163t-252.5 -54.5q-155 0 -280 75.5t-195.5 203.5t-70.5 280q0 94 36 195.5t110 187.5l38 -38q-62 -69 -95.5 -157.5t-33.5 -186.5q0 -132 62 -249t174 -187.5t255 -70.5q121 0 232 52.5t181.5 157t70.5 251.5v766h54
v-747h524v705h55v-705h544v828h54v-828zM1679.5 1104.5q-17.5 18.5 -17.5 43.5q0 26 17.5 44.5t43.5 18.5q27 0 46 -18.5t19 -44.5q0 -25 -19 -43.5t-46 -18.5q-26 0 -43.5 18.5zM1586.5 942.5q-17.5 18.5 -17.5 43.5q0 26 17.5 44.5t43.5 18.5q27 0 46 -18.5t19 -44.5
q0 -25 -19 -43.5t-46 -18.5q-26 0 -43.5 18.5zM1775.5 943.5q-17.5 18.5 -17.5 43.5q0 26 17.5 44.5t43.5 18.5q27 0 46 -18.5t19 -44.5q0 -25 -19 -43.5t-46 -18.5q-26 0 -43.5 18.5z" />
    <glyph glyph-name="uniFEB7" unicode="&#x634;" horiz-adv-x="1920" arabic-form="initial" 
d="M1667 52v828h54v-880h-1735v52h484v748h54v-748h544v705h54v-705h545zM1051.5 1080.5q-17.5 18.5 -17.5 43.5q0 26 17.5 44.5t43.5 18.5q27 0 46 -18.5t19 -44.5q0 -25 -19 -43.5t-46 -18.5q-26 0 -43.5 18.5zM958.5 918.5q-17.5 18.5 -17.5 43.5q0 26 17.5 44.5
t43.5 18.5q27 0 46 -18.5t19 -44.5q0 -25 -19 -43.5t-46 -18.5q-26 0 -43.5 18.5zM1147.5 919.5q-17.5 18.5 -17.5 43.5q0 26 17.5 44.5t43.5 18.5q27 0 46 -18.5t19 -44.5q0 -25 -19 -43.5t-46 -18.5q-26 0 -43.5 18.5z" />
    <glyph glyph-name="uniFEB8" unicode="&#x634;" horiz-adv-x="2021" arabic-form="medial" 
d="M1721 880v-828h314v-52h-2049v52h484v748h54v-748h544v705h54v-705h545v828h54zM1053.5 1080.5q-17.5 18.5 -17.5 43.5q0 26 17.5 44.5t43.5 18.5q27 0 46 -18.5t19 -44.5q0 -25 -19 -43.5t-46 -18.5q-26 0 -43.5 18.5zM960.5 918.5q-17.5 18.5 -17.5 43.5
q0 26 17.5 44.5t43.5 18.5q27 0 46 -18.5t19 -44.5q0 -25 -19 -43.5t-46 -18.5q-26 0 -43.5 18.5zM1149.5 919.5q-17.5 18.5 -17.5 43.5q0 26 17.5 44.5t43.5 18.5q27 0 46 -18.5t19 -44.5q0 -25 -19 -43.5t-46 -18.5q-26 0 -43.5 18.5z" />
    <glyph glyph-name="uniFEBA" unicode="&#x635;" horiz-adv-x="2742" arabic-form="final" 
d="M2438 52h318v-52h-1568q-8 -155 -86 -263.5t-198.5 -163t-252.5 -54.5q-155 0 -280 75.5t-196 203.5t-71 280q0 94 36 195t111 188l38 -38q-62 -69 -95.5 -157.5t-33.5 -186.5q0 -132 62 -249t174 -187.5t255 -70.5q117 0 225.5 50t179.5 148.5t77 237.5h-4l5 23v2v766
h55v-592q77 190 210 336t287 225t292 79q224 0 342 -127t118 -367v-301zM2382 52v302q0 216 -103.5 328.5t-302.5 112.5q-142 0 -303 -92.5t-292.5 -262t-188.5 -388.5h1190z" />
    <glyph glyph-name="uniFEBB" unicode="&#x635;" horiz-adv-x="1811" arabic-form="initial" 
d="M1494 720q118 -127 118 -367v-353h-1626v52h324v756h55v-596q78 190 210.5 334.5t285.5 222.5t291 78q224 0 342 -127zM1556 354q0 216 -103.5 328.5t-302.5 112.5q-142 0 -303 -92.5t-292.5 -262t-188.5 -388.5h1190v302z" />
    <glyph glyph-name="uniFEBC" unicode="&#x635;" horiz-adv-x="1859" arabic-form="medial" 
d="M1612 52h261v-52h-1887v52h324v756h55v-596q78 190 210.5 334.5t285.5 222.5t291 78q224 0 342 -127t118 -367v-301zM1556 354q0 216 -103.5 328.5t-302.5 112.5q-142 0 -303 -92.5t-292.5 -262t-188.5 -388.5h1190v302z" />
    <glyph glyph-name="uniFEBE" unicode="&#x636;" horiz-adv-x="2742" arabic-form="final" 
d="M2438 52h318v-52h-1568q-8 -155 -86 -263.5t-198.5 -163t-252.5 -54.5q-155 0 -280 75.5t-196 203.5t-71 280q0 94 36 195t111 188l38 -38q-62 -69 -95.5 -157.5t-33.5 -186.5q0 -132 62 -249t174 -187.5t255 -70.5q117 0 225.5 50t179.5 148.5t77 237.5h-4l5 23v2v766
h55v-592q77 190 210 336t287 225t292 79q224 0 342 -127t118 -367v-301zM2382 52v302q0 216 -103.5 328.5t-302.5 112.5q-142 0 -303 -92.5t-292.5 -262t-188.5 -388.5h1190zM1842.5 1012.5q-17.5 18.5 -17.5 43.5q0 26 17.5 44.5t43.5 18.5q27 0 46 -18.5t19 -44.5
q0 -25 -19 -43.5t-46 -18.5q-26 0 -43.5 18.5z" />
    <glyph glyph-name="uniFEBF" unicode="&#x636;" horiz-adv-x="1811" arabic-form="initial" 
d="M1494 720q118 -127 118 -367v-353h-1626v52h324v756h55v-596q78 190 210.5 334.5t285.5 222.5t291 78q224 0 342 -127zM1556 354q0 216 -103.5 328.5t-302.5 112.5q-142 0 -303 -92.5t-292.5 -262t-188.5 -388.5h1190v302zM1206.5 994.5q-17.5 18.5 -17.5 43.5
q0 26 17.5 44.5t43.5 18.5q27 0 46 -18.5t19 -44.5q0 -25 -19 -43.5t-46 -18.5q-26 0 -43.5 18.5z" />
    <glyph glyph-name="uniFEC0" unicode="&#x636;" horiz-adv-x="1859" arabic-form="medial" 
d="M1612 52h261v-52h-1887v52h324v756h55v-596q78 190 210.5 334.5t285.5 222.5t291 78q224 0 342 -127t118 -367v-301zM1556 354q0 216 -103.5 328.5t-302.5 112.5q-142 0 -303 -92.5t-292.5 -262t-188.5 -388.5h1190v302zM1105.5 1102.5q-17.5 18.5 -17.5 43.5
q0 26 17.5 44.5t43.5 18.5q27 0 46 -18.5t19 -44.5q0 -25 -19 -43.5t-46 -18.5q-26 0 -43.5 18.5z" />
    <glyph glyph-name="uniFEC2" unicode="&#x637;" horiz-adv-x="1960" arabic-form="final" 
d="M1703 52h271v-52h-1889v52h314v1441h55v-1289q77 192 210 338.5t287 225.5t292 79q224 0 342 -127t118 -367v-301zM1647 354q0 216 -103 328.5t-302 112.5q-142 0 -303.5 -92.5t-293 -262t-188.5 -388.5h1190v302z" />
    <glyph glyph-name="uniFEC3" unicode="&#x637;" horiz-adv-x="1804" arabic-form="initial" 
d="M1486 720q118 -127 118 -367v-353h-1618v52h314v1441h55v-1289q77 192 210 338.5t287 225.5t292 79q224 0 342 -127zM1548 354q0 216 -103 328.5t-302 112.5q-142 0 -303.5 -92.5t-293 -262t-188.5 -388.5h1190v302z" />
    <glyph glyph-name="uniFEC4" unicode="&#x637;" horiz-adv-x="1861" arabic-form="medial" 
d="M1605 52h270v-52h-1889v52h315v1441h55v-1286q77 190 210 336t286.5 225t291.5 79q225 0 343 -127t118 -367v-301zM1549 354q0 216 -103.5 328.5t-302.5 112.5q-142 0 -303 -92.5t-292.5 -262t-188.5 -388.5h1190v302z" />
    <glyph glyph-name="uniFEC6" unicode="&#x638;" horiz-adv-x="1960" arabic-form="final" 
d="M1703 52h271v-52h-1889v52h314v1441h55v-1289q77 192 210 338.5t287 225.5t292 79q224 0 342 -127t118 -367v-301zM1647 354q0 216 -103 328.5t-302 112.5q-142 0 -303.5 -92.5t-293 -262t-188.5 -388.5h1190v302zM1213.5 989.5q-17.5 18.5 -17.5 43.5q0 26 17.5 44.5
t43.5 18.5q27 0 46 -18.5t19 -44.5q0 -25 -19 -43.5t-46 -18.5q-26 0 -43.5 18.5z" />
    <glyph glyph-name="uniFEC7" unicode="&#x638;" horiz-adv-x="1804" arabic-form="initial" 
d="M1486 720q118 -127 118 -367v-353h-1618v52h314v1441h55v-1289q77 192 210 338.5t287 225.5t292 79q224 0 342 -127zM1548 354q0 216 -103 328.5t-302 112.5q-142 0 -303.5 -92.5t-293 -262t-188.5 -388.5h1190v302zM1098.5 989.5q-17.5 18.5 -17.5 43.5q0 26 17.5 44.5
t43.5 18.5q27 0 46 -18.5t19 -44.5q0 -25 -19 -43.5t-46 -18.5q-26 0 -43.5 18.5z" />
    <glyph glyph-name="uniFEC8" unicode="&#x638;" horiz-adv-x="1861" arabic-form="medial" 
d="M1604 52h271v-52h-1889v52h314v1441h55v-1289q77 192 210 338.5t287 225.5t292 79q224 0 342 -127t118 -367v-301zM1548 354q0 216 -103 328.5t-302 112.5q-142 0 -303.5 -92.5t-293 -262t-188.5 -388.5h1190v302zM1114.5 989.5q-17.5 18.5 -17.5 43.5q0 26 17.5 44.5
t43.5 18.5q27 0 46 -18.5t19 -44.5q0 -25 -19 -43.5t-46 -18.5q-26 0 -43.5 18.5z" />
    <glyph glyph-name="uniFECA" unicode="&#x639;" horiz-adv-x="1200" arabic-form="final" 
d="M1214 53v-53h-46q-166 0 -325 86t-291 227q-8 -3 -24 -11q-128 -61 -206 -109t-130 -117.5t-52 -163.5q0 -66 32 -121.5t97.5 -89t161.5 -33.5t185.5 27.5t149.5 68.5l34 -43q-76 -47 -176.5 -76.5t-199.5 -29.5q-105 0 -182 43t-117 112.5t-40 144.5q0 102 54 180
t143 135t221 116l14 6q-86 99 -147 206t-85 199q58 76 149 118t190 42t188.5 -42t145.5 -118q-26 -79 -59 -142t-105.5 -136.5t-194.5 -140.5q123 -129 268.5 -207t299.5 -78h47zM427.5 565q58.5 -99 137.5 -189q166 87 239 187.5t98 186.5q-44 50 -123 83.5t-155 33.5
t-157 -34.5t-127 -82.5q29 -86 87.5 -185z" />
    <glyph glyph-name="uniFECB" unicode="&#x639;" horiz-adv-x="1330" arabic-form="initial" 
d="M-14 0v52h551q-73 26 -135.5 88.5t-99.5 146.5t-37 170q0 127 53 228.5t154.5 159.5t240.5 58q82 0 167 -29.5t157 -90.5l-39 -41q-57 52 -129 79.5t-156 27.5q-121 0 -210 -49.5t-136.5 -139t-47.5 -206.5q0 -96 54.5 -189.5t147 -153t198.5 -59.5h527v-52h-1260z" />
    <glyph glyph-name="uniFECC" unicode="&#x639;" horiz-adv-x="992" arabic-form="medial" 
d="M1006 52v-52h-80q-108 0 -218 39.5t-212 110.5q-101 -71 -211 -110.5t-218 -39.5h-81v52h81q97 0 195.5 34t190.5 96q-138 109 -231.5 254.5t-115.5 293.5q66 76 174.5 124.5t215.5 48.5q106 0 215 -48.5t176 -124.5q-23 -148 -117 -293.5t-231 -253.5q92 -62 191 -96.5
t196 -34.5h80zM275.5 448q90.5 -135 220.5 -235q130 100 220.5 235t114.5 272q-58 53 -152 91.5t-182 38.5q-87 0 -182.5 -38.5t-153.5 -91.5q24 -137 114.5 -272z" />
    <glyph glyph-name="uniFECE" unicode="&#x63a;" horiz-adv-x="1200" arabic-form="final" 
d="M1214 53v-53h-46q-166 0 -325 86t-291 227q-8 -3 -24 -11q-128 -61 -206 -109t-130 -117.5t-52 -163.5q0 -66 32 -121.5t97.5 -89t161.5 -33.5t185.5 27.5t149.5 68.5l34 -43q-76 -47 -176.5 -76.5t-199.5 -29.5q-105 0 -182 43t-117 112.5t-40 144.5q0 102 54 180
t143 135t221 116l14 6q-86 99 -147 206t-85 199q58 76 149 118t190 42t188.5 -42t145.5 -118q-26 -79 -59 -142t-105.5 -136.5t-194.5 -140.5q123 -129 268.5 -207t299.5 -78h47zM427.5 565q58.5 -99 137.5 -189q166 87 239 187.5t98 186.5q-44 50 -123 83.5t-155 33.5
t-157 -34.5t-127 -82.5q29 -86 87.5 -185zM587.5 1088.5q-17.5 18.5 -17.5 43.5q0 26 17.5 44.5t43.5 18.5q27 0 46 -18.5t19 -44.5q0 -25 -19 -43.5t-46 -18.5q-26 0 -43.5 18.5z" />
    <glyph glyph-name="uniFECF" unicode="&#x63a;" horiz-adv-x="1330" arabic-form="initial" 
d="M-14 0v52h551q-73 26 -135.5 88.5t-99.5 146.5t-37 170q0 127 53 228.5t154.5 159.5t240.5 58q82 0 167 -29.5t157 -90.5l-39 -41q-57 52 -129 79.5t-156 27.5q-121 0 -210 -49.5t-136.5 -139t-47.5 -206.5q0 -96 54.5 -189.5t147 -153t198.5 -59.5h527v-52h-1260z
M677.5 1023.5q-17.5 18.5 -17.5 43.5q0 26 17.5 44.5t43.5 18.5q27 0 46 -18.5t19 -44.5q0 -25 -19 -43.5t-46 -18.5q-26 0 -43.5 18.5z" />
    <glyph glyph-name="uniFED0" unicode="&#x63a;" horiz-adv-x="992" arabic-form="medial" 
d="M1006 52v-52h-80q-108 0 -218 39.5t-212 110.5q-101 -71 -211 -110.5t-218 -39.5h-81v52h81q97 0 195.5 34t190.5 96q-138 109 -231.5 254.5t-115.5 293.5q66 76 174.5 124.5t215.5 48.5q106 0 215 -48.5t176 -124.5q-23 -148 -117 -293.5t-231 -253.5q92 -62 191 -96.5
t196 -34.5h80zM275.5 448q90.5 -135 220.5 -235q130 100 220.5 235t114.5 272q-58 53 -152 91.5t-182 38.5q-87 0 -182.5 -38.5t-153.5 -91.5q24 -137 114.5 -272zM462.5 1077.5q-17.5 18.5 -17.5 43.5q0 26 17.5 44.5t43.5 18.5q27 0 46 -18.5t19 -44.5q0 -25 -19 -43.5
t-46 -18.5q-26 0 -43.5 18.5z" />
    <glyph glyph-name="uniFED2" unicode="&#x641;" horiz-adv-x="1829" arabic-form="final" 
d="M1601 52h242v-52h-1239q-160 0 -277.5 65.5t-179.5 177.5t-62 248q0 82 33 171.5t100 165.5l38 -37q-55 -63 -86 -138t-31 -161q0 -117 54 -217.5t160 -161.5t255 -61h464q-101 57 -161.5 164t-60.5 237q0 117 56 215t152 155t211 57h332v-828zM1546 828h-278
q-101 0 -184.5 -50.5t-131.5 -136.5t-48 -188q0 -111 48 -203t131 -145t182 -53h281v776zM1335.5 1102.5q-17.5 18.5 -17.5 43.5q0 26 17.5 44.5t43.5 18.5q27 0 46 -18.5t19 -44.5q0 -25 -19 -43.5t-46 -18.5q-26 0 -43.5 18.5z" />
    <glyph glyph-name="uniFED3" unicode="&#x641;" horiz-adv-x="1059" arabic-form="initial" 
d="M860 880v-880h-874v52h345q-101 57 -161 164t-60 237q0 117 56 215t152 155t211 57h331zM806 828h-278q-101 0 -184.5 -50.5t-132 -136.5t-48.5 -188q0 -111 48 -203t131 -145t183 -53h281v776zM592.5 1035.5q-17.5 18.5 -17.5 43.5q0 26 17.5 44.5t43.5 18.5
q27 0 46 -18.5t19 -44.5q0 -25 -19 -43.5t-46 -18.5q-26 0 -43.5 18.5z" />
    <glyph glyph-name="uniFED4" unicode="&#x641;" horiz-adv-x="1137" arabic-form="medial" 
d="M860 52h291v-52h-1165v52h345q-101 57 -161 164t-60 237q0 117 56 215t152 155t211 57h331v-828zM806 828h-278q-101 0 -184.5 -50.5t-132 -136.5t-48.5 -188q0 -111 48 -203t131 -145t183 -53h281v776zM614.5 1029.5q-17.5 18.5 -17.5 43.5q0 26 17.5 44.5t43.5 18.5
q27 0 46 -18.5t19 -44.5q0 -25 -19 -43.5t-46 -18.5q-26 0 -43.5 18.5z" />
    <glyph glyph-name="uniFED6" unicode="&#x642;" horiz-adv-x="1898" arabic-form="final" 
d="M1912 52v-52h-257v-99q0 -140 -59.5 -220.5t-166.5 -113t-263 -32.5h-523q-185 0 -310.5 71.5t-186.5 193.5t-61 274q0 97 35.5 198.5t110.5 187.5l37 -38q-61 -70 -95 -159t-34 -188q0 -134 53 -244t166.5 -177t287.5 -67h521q139 0 233 27t147 96.5t53 191.5v98h-277
q-115 0 -211 60.5t-152 164.5t-56 228q0 117 56 215t152 155t211 57h332v-828h257zM1600 52v647h1v129h-279q-100 0 -183.5 -50.5t-132 -136.5t-48.5 -188q0 -111 48 -203t131 -145t183 -53h280zM1504.5 1096.5q-17.5 18.5 -17.5 43.5q0 26 17.5 44.5t43.5 18.5
q27 0 46 -18.5t19 -44.5q0 -25 -19 -43.5t-46 -18.5q-26 0 -43.5 18.5zM1306.5 1096.5q-17.5 18.5 -17.5 43.5q0 26 17.5 44.5t43.5 18.5q27 0 46 -18.5t19 -44.5q0 -25 -19 -43.5t-46 -18.5q-26 0 -43.5 18.5z" />
    <glyph glyph-name="uniFED7" unicode="&#x642;" horiz-adv-x="1059" arabic-form="initial" 
d="M860 880v-880h-874v52h345q-101 57 -161 164t-60 237q0 117 56 215t152 155t211 57h331zM806 828h-278q-101 0 -184.5 -50.5t-132 -136.5t-48.5 -188q0 -111 48 -203t131 -145t183 -53h281v776zM681.5 1034.5q-17.5 18.5 -17.5 43.5q0 26 17.5 44.5t43.5 18.5
q27 0 46 -18.5t19 -44.5q0 -25 -19 -43.5t-46 -18.5q-26 0 -43.5 18.5zM483.5 1034.5q-17.5 18.5 -17.5 43.5q0 26 17.5 44.5t43.5 18.5q27 0 46 -18.5t19 -44.5q0 -25 -19 -43.5t-46 -18.5q-26 0 -43.5 18.5z" />
    <glyph glyph-name="uniFED8" unicode="&#x642;" horiz-adv-x="1137" arabic-form="medial" 
d="M860 52h291v-52h-1165v52h345q-101 57 -161 164t-60 237q0 117 56 215t152 155t211 57h331v-828zM806 828h-278q-101 0 -184.5 -50.5t-132 -136.5t-48.5 -188q0 -111 48 -203t131 -145t183 -53h281v776zM703.5 1028.5q-17.5 18.5 -17.5 43.5q0 26 17.5 44.5t43.5 18.5
q27 0 46 -18.5t19 -44.5q0 -25 -19 -43.5t-46 -18.5q-26 0 -43.5 18.5zM505.5 1028.5q-17.5 18.5 -17.5 43.5q0 26 17.5 44.5t43.5 18.5q27 0 46 -18.5t19 -44.5q0 -25 -19 -43.5t-46 -18.5q-26 0 -43.5 18.5z" />
    <glyph glyph-name="uniFEDA" unicode="&#x643;" horiz-adv-x="1978" arabic-form="final" 
d="M1689 53h303v-52h-1273q-160 0 -277.5 65.5t-180 177.5t-62.5 248q0 82 33 171.5t100 165.5l39 -37q-56 -62 -87 -138t-31 -161q0 -118 54 -218.5t160.5 -161t255.5 -60.5h911v1441h55v-1441zM1169 840h-86q-92 0 -139 -2.5t-138 -14.5v49l134 19q-31 16 -51 52.5
t-20 77.5q0 73 46 112t139 39h36l-2 -48h-31q-74 0 -107 -24t-33 -86q0 -49 31.5 -86t83.5 -37h137v-51z" />
    <glyph glyph-name="uniFEDB" unicode="&#x643;" horiz-adv-x="1165" arabic-form="initial" 
d="M557 666q206 0 307.5 -103t101.5 -291v-272h-980v52h925v219q0 165 -86.5 254.5t-266.5 89.5h-504v51q3 194 99.5 345t271 236.5t403.5 85.5l3 -54q-213 0 -375 -77.5t-253 -216t-97 -319.5h451z" />
    <glyph glyph-name="uniFEDC" unicode="&#x643;" horiz-adv-x="1266" arabic-form="medial" 
d="M966 52h314v-52h-1294v52h925v219q0 165 -86.5 254.5t-266.5 89.5h-504v51q3 194 99.5 345t271 236.5t403.5 85.5l3 -54q-213 0 -375 -77.5t-253 -216t-97 -319.5h451q206 0 307.5 -103t101.5 -291v-220z" />
    <glyph glyph-name="uniFEDE" unicode="&#x644;" horiz-adv-x="1463" arabic-form="final" 
d="M1477 52v-52h-309q-8 -155 -86 -263.5t-198.5 -163t-252.5 -54.5q-155 0 -280 75.5t-195.5 203.5t-70.5 280q0 94 36 195.5t110 187.5l38 -38q-62 -69 -95.5 -157.5t-33.5 -186.5q0 -132 62 -249t174 -187.5t255 -70.5q121 0 232 52.5t181.5 157t70.5 251.5v1372h54
v-1353h308z" />
    <glyph glyph-name="uniFEDF" unicode="&#x644;" horiz-adv-x="555" arabic-form="initial" 
d="M356 0h-370v52h315v1441h55v-1493z" />
    <glyph glyph-name="uniFEE0" unicode="&#x644;" horiz-adv-x="657" arabic-form="medial" 
d="M671 0h-685v52h315v1441h55v-1441h315v-52z" />
    <glyph glyph-name="uniFEE2" unicode="&#x645;" horiz-adv-x="1440" arabic-form="final" 
d="M1454 52v-52h-17q-95 0 -165.5 34t-111.5 91t-52 128q-59 -116 -172 -184.5t-251 -68.5h-338q-209 0 -209 -242v-298h-53v297q0 138 61.5 216.5t197.5 78.5h130q-116 55 -186 163t-70 243q0 127 62.5 228t170 157.5t235.5 56.5q129 0 236.5 -56.5t170.5 -157.5t63 -228
q0 -78 -24 -147h24v-9q0 -69 33.5 -126t98 -90.5t152.5 -33.5h14zM687 52q115 0 210 53t150 146t55 208q0 113 -55 201.5t-150 138t-211 49.5t-210.5 -49t-149 -138t-54.5 -203q0 -109 48 -198.5t131.5 -144.5t187.5 -63h48z" />
    <glyph glyph-name="uniFEE3" unicode="&#x645;" horiz-adv-x="1158" arabic-form="initial" 
d="M839.5 846q107.5 -57 170.5 -158t63 -228t-62.5 -232.5t-170 -166.5t-236.5 -61h-618v52h401q-116 54 -186 162t-70 246q0 127 63 228t171 158t238 57q129 0 236.5 -57zM604 52q115 0 210 53t150 146.5t55 208.5q0 114 -55 203t-150 138.5t-211 49.5q-117 0 -212.5 -49
t-150.5 -138.5t-55 -203.5q0 -112 52 -204.5t142 -147t200 -56.5h25z" />
    <glyph glyph-name="uniFEE4" unicode="&#x645;" horiz-adv-x="1356" arabic-form="medial" 
d="M1370 52v-52h-16q-96 0 -166.5 33.5t-111.5 91t-52 127.5q-59 -115 -171 -183.5t-249 -68.5h-618v52h401q-116 54 -186 162t-70 246q0 127 63 228t171 158t238 57q129 0 236.5 -57t170.5 -158t63 -228q0 -78 -24 -149h24v-9q0 -69 33.5 -126t97.5 -90.5t152 -33.5h14z
M604 52q115 0 210 53t150 146.5t55 208.5q0 114 -55 203t-150 138.5t-211 49.5q-117 0 -212.5 -49t-150.5 -138.5t-55 -203.5q0 -112 52 -204.5t142 -147t200 -56.5h25z" />
    <glyph glyph-name="uniFEE6" unicode="&#x646;" horiz-adv-x="1463" arabic-form="final" 
d="M1477 52v-52h-309q-8 -155 -86 -263.5t-198.5 -163t-252.5 -54.5q-155 0 -280 75.5t-195.5 203.5t-70.5 280q0 94 36 195.5t110 187.5l38 -38q-62 -69 -95.5 -157.5t-33.5 -186.5q0 -132 62 -249t174 -187.5t255 -70.5q121 0 232 52.5t181.5 157t70.5 251.5v766h54v-747
h308zM631.5 895.5q-17.5 18.5 -17.5 43.5q0 26 17.5 44.5t43.5 18.5q27 0 46 -18.5t19 -44.5q0 -25 -19 -43.5t-46 -18.5q-26 0 -43.5 18.5z" />
    <glyph glyph-name="uniFEE7" unicode="&#x646;" horiz-adv-x="572" arabic-form="initial" 
d="M373 0h-387v52h332v828h55v-880zM306.5 1029.5q-17.5 18.5 -17.5 43.5q0 26 17.5 44.5t43.5 18.5q27 0 46 -18.5t19 -44.5q0 -25 -19 -43.5t-46 -18.5q-26 0 -43.5 18.5z" />
    <glyph glyph-name="uniFEE8" unicode="&#x646;" horiz-adv-x="752" arabic-form="medial" 
d="M766 0h-780v52h362v828h56v-828h362v-52zM341.5 1029.5q-17.5 18.5 -17.5 43.5q0 26 17.5 44.5t43.5 18.5q27 0 46 -18.5t19 -44.5q0 -25 -19 -43.5t-46 -18.5q-26 0 -43.5 18.5z" />
    <glyph glyph-name="uniFEEA" unicode="&#x647;" horiz-adv-x="1129" arabic-form="final" 
d="M783 52h360v-52h-670q-106 0 -195 55t-141 149.5t-52 207.5q0 107 52 196t141 140.5t196 51.5h254v122h55v-870zM728 52v695h-256q-92 0 -168.5 -44.5t-121 -121.5t-44.5 -169q0 -99 44 -181.5t120 -130.5t167 -48h259z" />
    <glyph glyph-name="uniFEEB" unicode="&#x647;" horiz-adv-x="1781" arabic-form="initial" 
d="M891 1222q202 0 359.5 -83.5t244.5 -232t87 -335.5v-571h-1596v52h586q-115 57 -184 165.5t-69 241.5q0 127 63 228t170.5 158t237.5 57q137 0 244.5 -58.5t167 -162.5t59.5 -237v-392h268v517q0 175 -80 311.5t-225 213t-333 76.5v52zM1208 52v391q0 119 -52 211.5
t-147 143.5t-219 51q-117 0 -212.5 -49t-150.5 -138.5t-55 -203.5q0 -108 48.5 -197t134 -144t191.5 -65h462z" />
    <glyph glyph-name="uniFEEC" unicode="&#x647;" horiz-adv-x="1882" arabic-form="medial" 
d="M1582 52h314v-52h-1910v52h586q-115 57 -184 165.5t-69 241.5q0 127 63 228t170.5 158t237.5 57q137 0 244.5 -58.5t167 -162.5t59.5 -237v-392h268v517q0 175 -80 311.5t-225 213t-333 76.5v52q202 0 359.5 -83.5t244.5 -232t87 -335.5v-519zM1208 52v391
q0 119 -52 211.5t-147 143.5t-219 51q-117 0 -212.5 -49t-150.5 -138.5t-55 -203.5q0 -108 48.5 -197t134 -144t191.5 -65h462z" />
    <glyph glyph-name="uniFEEE" unicode="&#x648;" horiz-adv-x="1078" arabic-form="final" 
d="M797 52h295v-52h-295v-127q0 -196 -92.5 -294t-267.5 -98q-136 0 -284 74l23 50q136 -69 261 -69q149 0 227.5 85t78.5 254v125h-278q-115 0 -211 60.5t-152 164.5t-56 228q0 117 56 215t152 155t211 57h332v-828zM743 52v776h-279q-100 0 -183.5 -50.5t-132 -136.5
t-48.5 -188q0 -111 48 -203t131 -145t183 -53h281z" />
    <glyph glyph-name="uniFEF0" unicode="&#x649;" horiz-adv-x="2012" arabic-form="final" 
d="M635 -370q-156 0 -282 73t-197 198.5t-71 275.5q0 95 35.5 196t109.5 187l38 -38q-62 -69 -96 -158t-34 -186q0 -129 63 -243.5t176.5 -183.5t257.5 -69h451q169 0 254.5 61.5t85.5 165.5q0 70 -37 118.5t-91.5 79.5t-148.5 72q-103 45 -165.5 81.5t-105.5 97t-43 149.5
q0 146 81.5 229.5t234.5 83.5q120 0 190 -48.5t103 -120t67 -193.5q37 -133 76 -213.5t125 -136.5t237 -56h77v-52h-76q-173 0 -271 60.5t-140 147t-80 226.5q-31 114 -59.5 179.5t-87.5 109.5t-162 44q-129 -1 -194.5 -70t-65.5 -189q0 -72 38 -122t93 -81.5t151 -73.5
q102 -45 163 -81t103.5 -95t42.5 -145q0 -129 -93.5 -204.5t-275.5 -75.5h-477z" />
    <glyph glyph-name="uniFEF2" unicode="&#x64a;" horiz-adv-x="2012" arabic-form="final" 
d="M635 -370q-156 0 -282 73t-197 198.5t-71 275.5q0 95 35.5 196t109.5 187l38 -38q-62 -69 -96 -158t-34 -186q0 -129 63 -243.5t176.5 -183.5t257.5 -69h451q169 0 254.5 61.5t85.5 165.5q0 70 -37 118.5t-91.5 79.5t-148.5 72q-103 45 -165.5 81.5t-105.5 97t-43 149.5
q0 146 81.5 229.5t234.5 83.5q120 0 190 -48.5t103 -120t67 -193.5q37 -133 76 -213.5t125 -136.5t237 -56h77v-52h-76q-173 0 -271 60.5t-140 147t-80 226.5q-31 114 -59.5 179.5t-87.5 109.5t-162 44q-129 -1 -194.5 -70t-65.5 -189q0 -72 38 -122t93 -81.5t151 -73.5
q102 -45 163 -81t103.5 -95t42.5 -145q0 -129 -93.5 -204.5t-275.5 -75.5h-477zM968.5 -574.5q-17.5 18.5 -17.5 43.5q0 26 17.5 44.5t43.5 18.5q27 0 46 -18.5t19 -44.5q0 -25 -19 -43.5t-46 -18.5q-26 0 -43.5 18.5zM769.5 -574.5q-17.5 18.5 -17.5 43.5q0 26 17.5 44.5
t43.5 18.5q27 0 46 -18.5t19 -44.5q0 -25 -19 -43.5t-46 -18.5q-26 0 -43.5 18.5z" />
    <glyph glyph-name="uniFEF3" unicode="&#x64a;" horiz-adv-x="572" arabic-form="initial" 
d="M373 0h-387v52h332v828h55v-880zM378.5 -307.5q-17.5 18.5 -17.5 43.5q0 26 17.5 44.5t43.5 18.5q27 0 46 -18.5t19 -44.5q0 -25 -19 -43.5t-46 -18.5q-26 0 -43.5 18.5zM179.5 -307.5q-17.5 18.5 -17.5 43.5q0 26 17.5 44.5t43.5 18.5q27 0 46 -18.5t19 -44.5
q0 -25 -19 -43.5t-46 -18.5q-26 0 -43.5 18.5z" />
    <glyph glyph-name="uniFEF4" unicode="&#x64a;" horiz-adv-x="752" arabic-form="medial" 
d="M766 0h-780v52h362v828h56v-828h362v-52zM431.5 -307.5q-17.5 18.5 -17.5 43.5q0 26 17.5 44.5t43.5 18.5q27 0 46 -18.5t19 -44.5q0 -25 -19 -43.5t-46 -18.5q-26 0 -43.5 18.5zM232.5 -307.5q-17.5 18.5 -17.5 43.5q0 26 17.5 44.5t43.5 18.5q27 0 46 -18.5t19 -44.5
q0 -25 -19 -43.5t-46 -18.5q-26 0 -43.5 18.5z" />
    <glyph glyph-name=".notdef" horiz-adv-x="924" 
d="M172 1493h586v-1848h-586v1848zM615 1308v61h-305v-61h121v-68h-122v-61h306v61h-122v68h122zM493 1001v130h-184v-192h306v62h-122zM370 1068h61v-67h-61v67zM615 828v61h-306v-61h122v-69h-122v-61h184v130h122zM615 593v185h-61v-122h-245v-63h306zM615 344v208h-184
v-103h62v42h61v-86h-184v147h-61v-208h306zM615 24v209h-306v-209h306zM370 172h184v-87h-184v87zM615 -80v61h-306v-61h129l-129 -87v-60h306v60h-188l129 87h59z" />
    <glyph glyph-name="uni0000" 
 />
    <glyph glyph-name="uni0000" 
 />
    <glyph glyph-name="nonmarkingreturn" horiz-adv-x="666" 
 />
    <glyph glyph-name="uni0010" horiz-adv-x="1723" 
 />
    <glyph glyph-name="space" unicode=" " horiz-adv-x="504" 
 />
    <glyph glyph-name="exclam" unicode="!" horiz-adv-x="546" 
d="M301 371h-54l-1 1034h56zM227.5 4.5q-18.5 18.5 -18.5 44.5q0 27 18.5 45.5t45.5 18.5t46 -18.5t19 -45.5q0 -26 -19.5 -44.5t-45.5 -18.5q-27 0 -45.5 18.5z" />
    <glyph glyph-name="quotedbl" unicode="&#x22;" horiz-adv-x="460" 
d="M138 1024h-53v381h53v-381zM375 1024h-53v381h53v-381z" />
    <glyph glyph-name="numbersign" unicode="#" horiz-adv-x="1162" 
d="M261 1h-56l73 406h-258v51h269l74 404h-275v49h283l90 493h53l-89 -493h419l91 493h53l-91 -493h245v-49h-252l-75 -404h257v-51h-265l-75 -406h-55l74 406h-417zM417 862l-74 -404h417l75 404h-418z" />
    <glyph glyph-name="dollar" unicode="$" horiz-adv-x="1142" 
d="M1006.5 161q-65.5 -87 -174.5 -131t-239 -46v-212h-56v213q-145 9 -275 68.5t-213 162.5l37 38q86 -103 223 -159t281 -56q116 0 213 37.5t155 112t58 181.5q0 104 -63.5 167t-152 94.5t-246.5 70.5q-150 36 -242 71.5t-155 105t-63 184.5q0 104 59.5 182.5t160.5 122.5
t223 51v224h56v-223q120 -3 232.5 -43.5t196.5 -116.5l-34 -42q-79 72 -187.5 109.5t-221.5 37.5q-114 0 -212.5 -36t-157.5 -105t-59 -162q0 -96 56.5 -155t140 -89.5t226.5 -65.5q166 -41 263 -77t166.5 -109t69.5 -195q0 -123 -65.5 -210z" />
    <glyph glyph-name="percent" unicode="%" horiz-adv-x="1730" 
 />
    <glyph glyph-name="ampersand" unicode="&#x26;" horiz-adv-x="1241" 
d="M1185 0h-63l-117 185q-79 -101 -187 -155t-239 -54q-141 0 -248.5 60.5t-167 170t-59.5 252.5q0 137 56 242.5t148 171.5t201 92l-249 393v47h741v-54h-671l676 -1068q108 184 108 461v34h55l1 -36q0 -151 -34 -280.5t-98 -229.5zM801 85q101 52 172 149l-431 680
q-105 -17 -192 -74t-139 -154t-52 -226q0 -132 55 -228.5t149.5 -147.5t211.5 -51q125 0 226 52z" />
    <glyph glyph-name="quotesingle" unicode="'" horiz-adv-x="223" 
d="M138 1024h-53v381h53v-381z" />
    <glyph glyph-name="parenleft" unicode="(" horiz-adv-x="505" 
d="M451 -409q-347 306 -347 960q0 317 82.5 561t264.5 405l34 -40q-156 -131 -241 -368.5t-85 -556.5q0 -316 85 -553t241 -368z" />
    <glyph glyph-name="parenright" unicode=")" horiz-adv-x="505" 
d="M20 -369q156 131 241 368t85 553q0 319 -85 556.5t-241 368.5l34 40q182 -161 264.5 -405t82.5 -561q0 -654 -347 -960z" />
    <glyph glyph-name="asterisk" unicode="*" horiz-adv-x="830" 
d="M726 1165v-47l-272 1l137 -235l-40 -24l-134 235l-135 -234l-42 25l138 233l-274 -1v47l272 -1l-135 237l41 23l135 -236l136 235l40 -23l-137 -236z" />
    <glyph glyph-name="plus" unicode="+" horiz-adv-x="1065" 
d="M557 232h-51v407h-402v49h402v399h51v-399h404v-49h-404v-407z" />
    <glyph glyph-name="comma" unicode="," horiz-adv-x="347" 
d="M104 -170q84 84 84 155v4q-32 0 -52.5 15.5t-20.5 43.5q0 26 18 42.5t44 16.5q65 0 65 -70q0 -67 -23 -121t-84 -115z" />
    <glyph glyph-name="hyphen" unicode="-" horiz-adv-x="772" 
d="M668 481h-564v53h564v-53z" />
    <glyph glyph-name="period" unicode="." horiz-adv-x="337" 
d="M122.5 4.5q-18.5 18.5 -18.5 44.5q0 27 18.5 45.5t45.5 18.5t46 -18.5t19 -45.5q0 -26 -19.5 -44.5t-45.5 -18.5q-27 0 -45.5 18.5z" />
    <glyph glyph-name="slash" unicode="/" horiz-adv-x="778" 
d="M43 -256h-60l717 1762h60z" />
    <glyph glyph-name="zero" unicode="0" horiz-adv-x="2727" 
d="M3037 924v-386h-2508v386h972q5 73 44 133.5t101.5 95.5t136.5 35t136.5 -35t101.5 -95.5t44 -133.5h972zM1953 1094q-76 66 -170 66q-48 0 -92 -17.5t-78 -48.5h340zM1979 742q58 71 58 162q0 96 -64 170l-332 -332h338zM1585 1066q-58 -71 -58 -162q0 -48 17.5 -92
t48.5 -78l334 332h-342zM2311 642.5q38 36.5 38 91.5q0 54 -38 90t-94 36t-93 -36t-37 -90q0 -55 37 -91.5t93 -36.5t94 36.5zM711 784h56v70h-192v-70h58v-172h78v172zM905 612h82l-42 92q28 25 28 64q0 37 -27 61.5t-65 24.5h-100v-242h78v70h16zM999 612h76v242h-76v-242
zM1249 650l10 -38h84l-82 242h-90l-82 -242h82l10 38h68zM1357 612h164v66h-86v176h-78v-242zM2517 612h80v242h-78v-128l-74 128h-80v-242h78l-2 118zM2621 612h164v66h-86v176h-78v-242zM2907 612v96l82 146h-90l-32 -72l-30 72h-92l84 -146v-96h78zM2256 774
q15 -16 15 -40q0 -26 -15 -42t-39 -16q-23 0 -38.5 16.5t-15.5 41.5q0 24 15.5 40t38.5 16q24 0 39 -16zM879 788q6 0 11 -6t5 -14q0 -9 -5 -15.5t-11 -6.5h-20v42h20zM1197 714l16 58h2l16 -58h-34zM1613 714q74 -64 170 -64q47 0 91 17t79 47h-340zM1495 352
q25 -14 52 -14q22 0 37 12t15 34q0 15 -12 25t-34 19q-18 6 -25 10.5t-7 15.5q0 10 8 16t20 6q10 0 21 -4t19 -10v26q-20 10 -40 10q-23 0 -37.5 -11.5t-14.5 -32.5q0 -19 10.5 -27.5t33.5 -18.5q18 -5 26 -10t8 -14q0 -12 -8 -18t-20 -6q-27 0 -52 18v-26zM1696 361
q23 -23 57 -23q33 0 56.5 23t23.5 57q0 33 -23.5 56.5t-56.5 23.5q-34 0 -57 -23.5t-23 -56.5q0 -34 23 -57zM1991 336v158h-24v-108l-98 110h-12v-156h24v104l98 -108h12zM627 494h-100v-154h24v58h66v22h-66v52h76v22zM647 400q0 -27 17.5 -44.5t44.5 -17.5q28 0 46 17.5
t18 44.5v94h-24v-94q0 -16 -11.5 -28t-28.5 -12t-27.5 11t-10.5 29v94h-24v-94zM827 494h-24v-154h94v22h-70v132zM943 494h-24v-154h96v22h-72v132zM1159 340l64 154h-28l-44 -114l-44 114h-28l64 -154h16zM1343 494h-100v-154h100v22h-76v46h66v20h-66v44h76v22zM1455 340
h28l-30 62q11 6 17.5 17.5t6.5 24.5q0 21 -14.5 35.5t-35.5 14.5h-58v-154h24v56h36zM1647 494h-24v-154h24v154zM1791.5 376.5q-15.5 -16.5 -38.5 -16.5q-24 0 -40 16.5t-16 41.5q0 24 16 40t40 16q23 0 38.5 -16t15.5 -40q0 -25 -15.5 -41.5zM1445.5 424q-7.5 -8 -18.5 -8
h-34v56h34q11 0 18.5 -8t7.5 -20t-7.5 -20zM2965 366l50 48l-50 48l-16 -14l26 -22h-916v-24h916l-26 -22zM1487 107.5q34 -33.5 84 -33.5q51 0 84.5 33t33.5 83q0 48 -33.5 81t-84.5 33q-50 0 -84 -33t-34 -81q0 -49 34 -82.5zM2107 94q31 -20 76 -20q39 0 63.5 19.5
t24.5 54.5q0 53 -72 70q-5 2 -13.5 4t-11.5 4.5t-3 7.5q0 8 22 8q14 0 32.5 -6t31.5 -16v68q-35 16 -64 16q-41 0 -65.5 -18t-24.5 -50q0 -28 15 -43.5t49 -26.5q7 -2 16 -4.5t13.5 -5.5t4.5 -8q0 -12 -18 -12q-26 0 -76 32v-74zM2397 107.5q34 -33.5 82 -33.5q24 0 52 14
l2 70q-20 -20 -50 -20q-21 0 -35.5 15t-14.5 37q0 21 14.5 35.5t35.5 14.5t44 -14v66q-21 12 -46 12q-50 0 -84 -33t-34 -81q0 -49 34 -82.5zM2573.5 107.5q34.5 -33.5 85.5 -33.5q50 0 84 33.5t34 82.5q0 48 -34 81t-84 33q-51 0 -85.5 -33t-34.5 -81q0 -49 34.5 -82.5z
M529 236h72l-82 -156h190v62h-76l82 156h-186v-62zM887 298h-158v-218h160v60h-90v20h76v60h-76v18h88v60zM897 236h52v-156h70v156h52v62h-174v-62zM1129 114h62l8 -34h76l-74 218h-80l-74 -218h72zM1445 298h-158v-218h70v68h74v58h-74v32h88v60zM1913 80v218h-70v-116
l-66 116h-72v-218h70l-2 106l68 -106h72zM1925 236h52v-156h70v156h50v62h-172v-62zM2861 298h-70v-218h70v86l28 -54h50l28 54v-86h68v218h-70l-52 -100zM1605.5 152.5q-13.5 -14.5 -34.5 -14.5t-34.5 14.5t-13.5 37.5q0 21 13.5 35.5t34.5 14.5t34.5 -14.5t13.5 -35.5
q0 -23 -13.5 -37.5zM2693 153q-14 -15 -34 -15q-21 0 -35.5 15t-14.5 37q0 21 14.5 35.5t35.5 14.5q20 0 34 -14.5t14 -35.5q0 -22 -14 -37zM1161 224l14 -52h-30l14 52h2zM2291 84q10 -10 26 -10q15 0 24.5 10t9.5 24t-9.5 23t-24.5 9q-16 0 -26 -9t-10 -23t10 -24z" />
    <glyph glyph-name="one" unicode="1" horiz-adv-x="2766" 
d="M3037 924v-386h-2508v386h972q5 73 44 133.5t101.5 95.5t136.5 35t136.5 -35t101.5 -95.5t44 -133.5h972zM1953 1094q-76 66 -170 66q-48 0 -92 -17.5t-78 -48.5h340zM1979 742q58 71 58 162q0 96 -64 170l-332 -332h338zM1585 1066q-58 -71 -58 -162q0 -48 17.5 -92
t48.5 -78l334 332h-342zM2311 642.5q38 36.5 38 91.5q0 54 -38 90t-94 36t-93 -36t-37 -90q0 -55 37 -91.5t93 -36.5t94 36.5zM711 784h56v70h-192v-70h58v-172h78v172zM905 612h82l-42 92q28 25 28 64q0 37 -27 61.5t-65 24.5h-100v-242h78v70h16zM999 612h76v242h-76v-242
zM1249 650l10 -38h84l-82 242h-90l-82 -242h82l10 38h68zM1357 612h164v66h-86v176h-78v-242zM2517 612h80v242h-78v-128l-74 128h-80v-242h78l-2 118zM2621 612h164v66h-86v176h-78v-242zM2907 612v96l82 146h-90l-32 -72l-30 72h-92l84 -146v-96h78zM2256 774
q15 -16 15 -40q0 -26 -15 -42t-39 -16q-23 0 -38.5 16.5t-15.5 41.5q0 24 15.5 40t38.5 16q24 0 39 -16zM879 788q6 0 11 -6t5 -14q0 -9 -5 -15.5t-11 -6.5h-20v42h20zM1197 714l16 58h2l16 -58h-34zM1613 714q74 -64 170 -64q47 0 91 17t79 47h-340zM1495 352
q25 -14 52 -14q22 0 37 12t15 34q0 15 -12 25t-34 19q-18 6 -25 10.5t-7 15.5q0 10 8 16t20 6q10 0 21 -4t19 -10v26q-20 10 -40 10q-23 0 -37.5 -11.5t-14.5 -32.5q0 -19 10.5 -27.5t33.5 -18.5q18 -5 26 -10t8 -14q0 -12 -8 -18t-20 -6q-27 0 -52 18v-26zM1696 361
q23 -23 57 -23q33 0 56.5 23t23.5 57q0 33 -23.5 56.5t-56.5 23.5q-34 0 -57 -23.5t-23 -56.5q0 -34 23 -57zM1991 336v158h-24v-108l-98 110h-12v-156h24v104l98 -108h12zM627 494h-100v-154h24v58h66v22h-66v52h76v22zM647 400q0 -27 17.5 -44.5t44.5 -17.5q28 0 46 17.5
t18 44.5v94h-24v-94q0 -16 -11.5 -28t-28.5 -12t-27.5 11t-10.5 29v94h-24v-94zM827 494h-24v-154h94v22h-70v132zM943 494h-24v-154h96v22h-72v132zM1159 340l64 154h-28l-44 -114l-44 114h-28l64 -154h16zM1343 494h-100v-154h100v22h-76v46h66v20h-66v44h76v22zM1455 340
h28l-30 62q11 6 17.5 17.5t6.5 24.5q0 21 -14.5 35.5t-35.5 14.5h-58v-154h24v56h36zM1647 494h-24v-154h24v154zM1791.5 376.5q-15.5 -16.5 -38.5 -16.5q-24 0 -40 16.5t-16 41.5q0 24 16 40t40 16q23 0 38.5 -16t15.5 -40q0 -25 -15.5 -41.5zM1445.5 424q-7.5 -8 -18.5 -8
h-34v56h34q11 0 18.5 -8t7.5 -20t-7.5 -20zM2965 366l50 48l-50 48l-16 -14l26 -22h-916v-24h916l-26 -22zM1487 107.5q34 -33.5 84 -33.5q51 0 84.5 33t33.5 83q0 48 -33.5 81t-84.5 33q-50 0 -84 -33t-34 -81q0 -49 34 -82.5zM2107 94q31 -20 76 -20q39 0 63.5 19.5
t24.5 54.5q0 53 -72 70q-5 2 -13.5 4t-11.5 4.5t-3 7.5q0 8 22 8q14 0 32.5 -6t31.5 -16v68q-35 16 -64 16q-41 0 -65.5 -18t-24.5 -50q0 -28 15 -43.5t49 -26.5q7 -2 16 -4.5t13.5 -5.5t4.5 -8q0 -12 -18 -12q-26 0 -76 32v-74zM2397 107.5q34 -33.5 82 -33.5q24 0 52 14
l2 70q-20 -20 -50 -20q-21 0 -35.5 15t-14.5 37q0 21 14.5 35.5t35.5 14.5t44 -14v66q-21 12 -46 12q-50 0 -84 -33t-34 -81q0 -49 34 -82.5zM2573.5 107.5q34.5 -33.5 85.5 -33.5q50 0 84 33.5t34 82.5q0 48 -34 81t-84 33q-51 0 -85.5 -33t-34.5 -81q0 -49 34.5 -82.5z
M529 236h72l-82 -156h190v62h-76l82 156h-186v-62zM887 298h-158v-218h160v60h-90v20h76v60h-76v18h88v60zM897 236h52v-156h70v156h52v62h-174v-62zM1129 114h62l8 -34h76l-74 218h-80l-74 -218h72zM1445 298h-158v-218h70v68h74v58h-74v32h88v60zM1913 80v218h-70v-116
l-66 116h-72v-218h70l-2 106l68 -106h72zM1925 236h52v-156h70v156h50v62h-172v-62zM2861 298h-70v-218h70v86l28 -54h50l28 54v-86h68v218h-70l-52 -100zM1605.5 152.5q-13.5 -14.5 -34.5 -14.5t-34.5 14.5t-13.5 37.5q0 21 13.5 35.5t34.5 14.5t34.5 -14.5t13.5 -35.5
q0 -23 -13.5 -37.5zM2693 153q-14 -15 -34 -15q-21 0 -35.5 15t-14.5 37q0 21 14.5 35.5t35.5 14.5q20 0 34 -14.5t14 -35.5q0 -22 -14 -37zM1161 224l14 -52h-30l14 52h2zM2291 84q10 -10 26 -10q15 0 24.5 10t9.5 24t-9.5 23t-24.5 9q-16 0 -26 -9t-10 -23t10 -24z" />
    <glyph glyph-name="two" unicode="2" horiz-adv-x="2563" 
d="M3037 924v-386h-2508v386h972q5 73 44 133.5t101.5 95.5t136.5 35t136.5 -35t101.5 -95.5t44 -133.5h972zM1953 1094q-76 66 -170 66q-48 0 -92 -17.5t-78 -48.5h340zM1979 742q58 71 58 162q0 96 -64 170l-332 -332h338zM1585 1066q-58 -71 -58 -162q0 -48 17.5 -92
t48.5 -78l334 332h-342zM2311 642.5q38 36.5 38 91.5q0 54 -38 90t-94 36t-93 -36t-37 -90q0 -55 37 -91.5t93 -36.5t94 36.5zM711 784h56v70h-192v-70h58v-172h78v172zM905 612h82l-42 92q28 25 28 64q0 37 -27 61.5t-65 24.5h-100v-242h78v70h16zM999 612h76v242h-76v-242
zM1249 650l10 -38h84l-82 242h-90l-82 -242h82l10 38h68zM1357 612h164v66h-86v176h-78v-242zM2517 612h80v242h-78v-128l-74 128h-80v-242h78l-2 118zM2621 612h164v66h-86v176h-78v-242zM2907 612v96l82 146h-90l-32 -72l-30 72h-92l84 -146v-96h78zM2256 774
q15 -16 15 -40q0 -26 -15 -42t-39 -16q-23 0 -38.5 16.5t-15.5 41.5q0 24 15.5 40t38.5 16q24 0 39 -16zM879 788q6 0 11 -6t5 -14q0 -9 -5 -15.5t-11 -6.5h-20v42h20zM1197 714l16 58h2l16 -58h-34zM1613 714q74 -64 170 -64q47 0 91 17t79 47h-340zM1495 352
q25 -14 52 -14q22 0 37 12t15 34q0 15 -12 25t-34 19q-18 6 -25 10.5t-7 15.5q0 10 8 16t20 6q10 0 21 -4t19 -10v26q-20 10 -40 10q-23 0 -37.5 -11.5t-14.5 -32.5q0 -19 10.5 -27.5t33.5 -18.5q18 -5 26 -10t8 -14q0 -12 -8 -18t-20 -6q-27 0 -52 18v-26zM1696 361
q23 -23 57 -23q33 0 56.5 23t23.5 57q0 33 -23.5 56.5t-56.5 23.5q-34 0 -57 -23.5t-23 -56.5q0 -34 23 -57zM1991 336v158h-24v-108l-98 110h-12v-156h24v104l98 -108h12zM627 494h-100v-154h24v58h66v22h-66v52h76v22zM647 400q0 -27 17.5 -44.5t44.5 -17.5q28 0 46 17.5
t18 44.5v94h-24v-94q0 -16 -11.5 -28t-28.5 -12t-27.5 11t-10.5 29v94h-24v-94zM827 494h-24v-154h94v22h-70v132zM943 494h-24v-154h96v22h-72v132zM1159 340l64 154h-28l-44 -114l-44 114h-28l64 -154h16zM1343 494h-100v-154h100v22h-76v46h66v20h-66v44h76v22zM1455 340
h28l-30 62q11 6 17.5 17.5t6.5 24.5q0 21 -14.5 35.5t-35.5 14.5h-58v-154h24v56h36zM1647 494h-24v-154h24v154zM1791.5 376.5q-15.5 -16.5 -38.5 -16.5q-24 0 -40 16.5t-16 41.5q0 24 16 40t40 16q23 0 38.5 -16t15.5 -40q0 -25 -15.5 -41.5zM1445.5 424q-7.5 -8 -18.5 -8
h-34v56h34q11 0 18.5 -8t7.5 -20t-7.5 -20zM2965 366l50 48l-50 48l-16 -14l26 -22h-916v-24h916l-26 -22zM1487 107.5q34 -33.5 84 -33.5q51 0 84.5 33t33.5 83q0 48 -33.5 81t-84.5 33q-50 0 -84 -33t-34 -81q0 -49 34 -82.5zM2107 94q31 -20 76 -20q39 0 63.5 19.5
t24.5 54.5q0 53 -72 70q-5 2 -13.5 4t-11.5 4.5t-3 7.5q0 8 22 8q14 0 32.5 -6t31.5 -16v68q-35 16 -64 16q-41 0 -65.5 -18t-24.5 -50q0 -28 15 -43.5t49 -26.5q7 -2 16 -4.5t13.5 -5.5t4.5 -8q0 -12 -18 -12q-26 0 -76 32v-74zM2397 107.5q34 -33.5 82 -33.5q24 0 52 14
l2 70q-20 -20 -50 -20q-21 0 -35.5 15t-14.5 37q0 21 14.5 35.5t35.5 14.5t44 -14v66q-21 12 -46 12q-50 0 -84 -33t-34 -81q0 -49 34 -82.5zM2573.5 107.5q34.5 -33.5 85.5 -33.5q50 0 84 33.5t34 82.5q0 48 -34 81t-84 33q-51 0 -85.5 -33t-34.5 -81q0 -49 34.5 -82.5z
M529 236h72l-82 -156h190v62h-76l82 156h-186v-62zM887 298h-158v-218h160v60h-90v20h76v60h-76v18h88v60zM897 236h52v-156h70v156h52v62h-174v-62zM1129 114h62l8 -34h76l-74 218h-80l-74 -218h72zM1445 298h-158v-218h70v68h74v58h-74v32h88v60zM1913 80v218h-70v-116
l-66 116h-72v-218h70l-2 106l68 -106h72zM1925 236h52v-156h70v156h50v62h-172v-62zM2861 298h-70v-218h70v86l28 -54h50l28 54v-86h68v218h-70l-52 -100zM1605.5 152.5q-13.5 -14.5 -34.5 -14.5t-34.5 14.5t-13.5 37.5q0 21 13.5 35.5t34.5 14.5t34.5 -14.5t13.5 -35.5
q0 -23 -13.5 -37.5zM2693 153q-14 -15 -34 -15q-21 0 -35.5 15t-14.5 37q0 21 14.5 35.5t35.5 14.5q20 0 34 -14.5t14 -35.5q0 -22 -14 -37zM1161 224l14 -52h-30l14 52h2zM2291 84q10 -10 26 -10q15 0 24.5 10t9.5 24t-9.5 23t-24.5 9q-16 0 -26 -9t-10 -23t10 -24z" />
    <glyph glyph-name="three" unicode="3" horiz-adv-x="2533" 
d="M3037 924v-386h-2508v386h972q5 73 44 133.5t101.5 95.5t136.5 35t136.5 -35t101.5 -95.5t44 -133.5h972zM1953 1094q-76 66 -170 66q-48 0 -92 -17.5t-78 -48.5h340zM1979 742q58 71 58 162q0 96 -64 170l-332 -332h338zM1585 1066q-58 -71 -58 -162q0 -48 17.5 -92
t48.5 -78l334 332h-342zM2311 642.5q38 36.5 38 91.5q0 54 -38 90t-94 36t-93 -36t-37 -90q0 -55 37 -91.5t93 -36.5t94 36.5zM711 784h56v70h-192v-70h58v-172h78v172zM905 612h82l-42 92q28 25 28 64q0 37 -27 61.5t-65 24.5h-100v-242h78v70h16zM999 612h76v242h-76v-242
zM1249 650l10 -38h84l-82 242h-90l-82 -242h82l10 38h68zM1357 612h164v66h-86v176h-78v-242zM2517 612h80v242h-78v-128l-74 128h-80v-242h78l-2 118zM2621 612h164v66h-86v176h-78v-242zM2907 612v96l82 146h-90l-32 -72l-30 72h-92l84 -146v-96h78zM2256 774
q15 -16 15 -40q0 -26 -15 -42t-39 -16q-23 0 -38.5 16.5t-15.5 41.5q0 24 15.5 40t38.5 16q24 0 39 -16zM879 788q6 0 11 -6t5 -14q0 -9 -5 -15.5t-11 -6.5h-20v42h20zM1197 714l16 58h2l16 -58h-34zM1613 714q74 -64 170 -64q47 0 91 17t79 47h-340zM1495 352
q25 -14 52 -14q22 0 37 12t15 34q0 15 -12 25t-34 19q-18 6 -25 10.5t-7 15.5q0 10 8 16t20 6q10 0 21 -4t19 -10v26q-20 10 -40 10q-23 0 -37.5 -11.5t-14.5 -32.5q0 -19 10.5 -27.5t33.5 -18.5q18 -5 26 -10t8 -14q0 -12 -8 -18t-20 -6q-27 0 -52 18v-26zM1696 361
q23 -23 57 -23q33 0 56.5 23t23.5 57q0 33 -23.5 56.5t-56.5 23.5q-34 0 -57 -23.5t-23 -56.5q0 -34 23 -57zM1991 336v158h-24v-108l-98 110h-12v-156h24v104l98 -108h12zM627 494h-100v-154h24v58h66v22h-66v52h76v22zM647 400q0 -27 17.5 -44.5t44.5 -17.5q28 0 46 17.5
t18 44.5v94h-24v-94q0 -16 -11.5 -28t-28.5 -12t-27.5 11t-10.5 29v94h-24v-94zM827 494h-24v-154h94v22h-70v132zM943 494h-24v-154h96v22h-72v132zM1159 340l64 154h-28l-44 -114l-44 114h-28l64 -154h16zM1343 494h-100v-154h100v22h-76v46h66v20h-66v44h76v22zM1455 340
h28l-30 62q11 6 17.5 17.5t6.5 24.5q0 21 -14.5 35.5t-35.5 14.5h-58v-154h24v56h36zM1647 494h-24v-154h24v154zM1791.5 376.5q-15.5 -16.5 -38.5 -16.5q-24 0 -40 16.5t-16 41.5q0 24 16 40t40 16q23 0 38.5 -16t15.5 -40q0 -25 -15.5 -41.5zM1445.5 424q-7.5 -8 -18.5 -8
h-34v56h34q11 0 18.5 -8t7.5 -20t-7.5 -20zM2965 366l50 48l-50 48l-16 -14l26 -22h-916v-24h916l-26 -22zM1487 107.5q34 -33.5 84 -33.5q51 0 84.5 33t33.5 83q0 48 -33.5 81t-84.5 33q-50 0 -84 -33t-34 -81q0 -49 34 -82.5zM2107 94q31 -20 76 -20q39 0 63.5 19.5
t24.5 54.5q0 53 -72 70q-5 2 -13.5 4t-11.5 4.5t-3 7.5q0 8 22 8q14 0 32.5 -6t31.5 -16v68q-35 16 -64 16q-41 0 -65.5 -18t-24.5 -50q0 -28 15 -43.5t49 -26.5q7 -2 16 -4.5t13.5 -5.5t4.5 -8q0 -12 -18 -12q-26 0 -76 32v-74zM2397 107.5q34 -33.5 82 -33.5q24 0 52 14
l2 70q-20 -20 -50 -20q-21 0 -35.5 15t-14.5 37q0 21 14.5 35.5t35.5 14.5t44 -14v66q-21 12 -46 12q-50 0 -84 -33t-34 -81q0 -49 34 -82.5zM2573.5 107.5q34.5 -33.5 85.5 -33.5q50 0 84 33.5t34 82.5q0 48 -34 81t-84 33q-51 0 -85.5 -33t-34.5 -81q0 -49 34.5 -82.5z
M529 236h72l-82 -156h190v62h-76l82 156h-186v-62zM887 298h-158v-218h160v60h-90v20h76v60h-76v18h88v60zM897 236h52v-156h70v156h52v62h-174v-62zM1129 114h62l8 -34h76l-74 218h-80l-74 -218h72zM1445 298h-158v-218h70v68h74v58h-74v32h88v60zM1913 80v218h-70v-116
l-66 116h-72v-218h70l-2 106l68 -106h72zM1925 236h52v-156h70v156h50v62h-172v-62zM2861 298h-70v-218h70v86l28 -54h50l28 54v-86h68v218h-70l-52 -100zM1605.5 152.5q-13.5 -14.5 -34.5 -14.5t-34.5 14.5t-13.5 37.5q0 21 13.5 35.5t34.5 14.5t34.5 -14.5t13.5 -35.5
q0 -23 -13.5 -37.5zM2693 153q-14 -15 -34 -15q-21 0 -35.5 15t-14.5 37q0 21 14.5 35.5t35.5 14.5q20 0 34 -14.5t14 -35.5q0 -22 -14 -37zM1161 224l14 -52h-30l14 52h2zM2291 84q10 -10 26 -10q15 0 24.5 10t9.5 24t-9.5 23t-24.5 9q-16 0 -26 -9t-10 -23t10 -24z" />
    <glyph glyph-name="four" unicode="4" horiz-adv-x="2421" 
d="M3037 924v-386h-2508v386h972q5 73 44 133.5t101.5 95.5t136.5 35t136.5 -35t101.5 -95.5t44 -133.5h972zM1953 1094q-76 66 -170 66q-48 0 -92 -17.5t-78 -48.5h340zM1979 742q58 71 58 162q0 96 -64 170l-332 -332h338zM1585 1066q-58 -71 -58 -162q0 -48 17.5 -92
t48.5 -78l334 332h-342zM2311 642.5q38 36.5 38 91.5q0 54 -38 90t-94 36t-93 -36t-37 -90q0 -55 37 -91.5t93 -36.5t94 36.5zM711 784h56v70h-192v-70h58v-172h78v172zM905 612h82l-42 92q28 25 28 64q0 37 -27 61.5t-65 24.5h-100v-242h78v70h16zM999 612h76v242h-76v-242
zM1249 650l10 -38h84l-82 242h-90l-82 -242h82l10 38h68zM1357 612h164v66h-86v176h-78v-242zM2517 612h80v242h-78v-128l-74 128h-80v-242h78l-2 118zM2621 612h164v66h-86v176h-78v-242zM2907 612v96l82 146h-90l-32 -72l-30 72h-92l84 -146v-96h78zM2256 774
q15 -16 15 -40q0 -26 -15 -42t-39 -16q-23 0 -38.5 16.5t-15.5 41.5q0 24 15.5 40t38.5 16q24 0 39 -16zM879 788q6 0 11 -6t5 -14q0 -9 -5 -15.5t-11 -6.5h-20v42h20zM1197 714l16 58h2l16 -58h-34zM1613 714q74 -64 170 -64q47 0 91 17t79 47h-340zM1495 352
q25 -14 52 -14q22 0 37 12t15 34q0 15 -12 25t-34 19q-18 6 -25 10.5t-7 15.5q0 10 8 16t20 6q10 0 21 -4t19 -10v26q-20 10 -40 10q-23 0 -37.5 -11.5t-14.5 -32.5q0 -19 10.5 -27.5t33.5 -18.5q18 -5 26 -10t8 -14q0 -12 -8 -18t-20 -6q-27 0 -52 18v-26zM1696 361
q23 -23 57 -23q33 0 56.5 23t23.5 57q0 33 -23.5 56.5t-56.5 23.5q-34 0 -57 -23.5t-23 -56.5q0 -34 23 -57zM1991 336v158h-24v-108l-98 110h-12v-156h24v104l98 -108h12zM627 494h-100v-154h24v58h66v22h-66v52h76v22zM647 400q0 -27 17.5 -44.5t44.5 -17.5q28 0 46 17.5
t18 44.5v94h-24v-94q0 -16 -11.5 -28t-28.5 -12t-27.5 11t-10.5 29v94h-24v-94zM827 494h-24v-154h94v22h-70v132zM943 494h-24v-154h96v22h-72v132zM1159 340l64 154h-28l-44 -114l-44 114h-28l64 -154h16zM1343 494h-100v-154h100v22h-76v46h66v20h-66v44h76v22zM1455 340
h28l-30 62q11 6 17.5 17.5t6.5 24.5q0 21 -14.5 35.5t-35.5 14.5h-58v-154h24v56h36zM1647 494h-24v-154h24v154zM1791.5 376.5q-15.5 -16.5 -38.5 -16.5q-24 0 -40 16.5t-16 41.5q0 24 16 40t40 16q23 0 38.5 -16t15.5 -40q0 -25 -15.5 -41.5zM1445.5 424q-7.5 -8 -18.5 -8
h-34v56h34q11 0 18.5 -8t7.5 -20t-7.5 -20zM2965 366l50 48l-50 48l-16 -14l26 -22h-916v-24h916l-26 -22zM1487 107.5q34 -33.5 84 -33.5q51 0 84.5 33t33.5 83q0 48 -33.5 81t-84.5 33q-50 0 -84 -33t-34 -81q0 -49 34 -82.5zM2107 94q31 -20 76 -20q39 0 63.5 19.5
t24.5 54.5q0 53 -72 70q-5 2 -13.5 4t-11.5 4.5t-3 7.5q0 8 22 8q14 0 32.5 -6t31.5 -16v68q-35 16 -64 16q-41 0 -65.5 -18t-24.5 -50q0 -28 15 -43.5t49 -26.5q7 -2 16 -4.5t13.5 -5.5t4.5 -8q0 -12 -18 -12q-26 0 -76 32v-74zM2397 107.5q34 -33.5 82 -33.5q24 0 52 14
l2 70q-20 -20 -50 -20q-21 0 -35.5 15t-14.5 37q0 21 14.5 35.5t35.5 14.5t44 -14v66q-21 12 -46 12q-50 0 -84 -33t-34 -81q0 -49 34 -82.5zM2573.5 107.5q34.5 -33.5 85.5 -33.5q50 0 84 33.5t34 82.5q0 48 -34 81t-84 33q-51 0 -85.5 -33t-34.5 -81q0 -49 34.5 -82.5z
M529 236h72l-82 -156h190v62h-76l82 156h-186v-62zM887 298h-158v-218h160v60h-90v20h76v60h-76v18h88v60zM897 236h52v-156h70v156h52v62h-174v-62zM1129 114h62l8 -34h76l-74 218h-80l-74 -218h72zM1445 298h-158v-218h70v68h74v58h-74v32h88v60zM1913 80v218h-70v-116
l-66 116h-72v-218h70l-2 106l68 -106h72zM1925 236h52v-156h70v156h50v62h-172v-62zM2861 298h-70v-218h70v86l28 -54h50l28 54v-86h68v218h-70l-52 -100zM1605.5 152.5q-13.5 -14.5 -34.5 -14.5t-34.5 14.5t-13.5 37.5q0 21 13.5 35.5t34.5 14.5t34.5 -14.5t13.5 -35.5
q0 -23 -13.5 -37.5zM2693 153q-14 -15 -34 -15q-21 0 -35.5 15t-14.5 37q0 21 14.5 35.5t35.5 14.5q20 0 34 -14.5t14 -35.5q0 -22 -14 -37zM1161 224l14 -52h-30l14 52h2zM2291 84q10 -10 26 -10q15 0 24.5 10t9.5 24t-9.5 23t-24.5 9q-16 0 -26 -9t-10 -23t10 -24z" />
    <glyph glyph-name="five" unicode="5" horiz-adv-x="2528" 
d="M3037 924v-386h-2508v386h972q5 73 44 133.5t101.5 95.5t136.5 35t136.5 -35t101.5 -95.5t44 -133.5h972zM1953 1094q-76 66 -170 66q-48 0 -92 -17.5t-78 -48.5h340zM1979 742q58 71 58 162q0 96 -64 170l-332 -332h338zM1585 1066q-58 -71 -58 -162q0 -48 17.5 -92
t48.5 -78l334 332h-342zM2311 642.5q38 36.5 38 91.5q0 54 -38 90t-94 36t-93 -36t-37 -90q0 -55 37 -91.5t93 -36.5t94 36.5zM711 784h56v70h-192v-70h58v-172h78v172zM905 612h82l-42 92q28 25 28 64q0 37 -27 61.5t-65 24.5h-100v-242h78v70h16zM999 612h76v242h-76v-242
zM1249 650l10 -38h84l-82 242h-90l-82 -242h82l10 38h68zM1357 612h164v66h-86v176h-78v-242zM2517 612h80v242h-78v-128l-74 128h-80v-242h78l-2 118zM2621 612h164v66h-86v176h-78v-242zM2907 612v96l82 146h-90l-32 -72l-30 72h-92l84 -146v-96h78zM2256 774
q15 -16 15 -40q0 -26 -15 -42t-39 -16q-23 0 -38.5 16.5t-15.5 41.5q0 24 15.5 40t38.5 16q24 0 39 -16zM879 788q6 0 11 -6t5 -14q0 -9 -5 -15.5t-11 -6.5h-20v42h20zM1197 714l16 58h2l16 -58h-34zM1613 714q74 -64 170 -64q47 0 91 17t79 47h-340zM1495 352
q25 -14 52 -14q22 0 37 12t15 34q0 15 -12 25t-34 19q-18 6 -25 10.5t-7 15.5q0 10 8 16t20 6q10 0 21 -4t19 -10v26q-20 10 -40 10q-23 0 -37.5 -11.5t-14.5 -32.5q0 -19 10.5 -27.5t33.5 -18.5q18 -5 26 -10t8 -14q0 -12 -8 -18t-20 -6q-27 0 -52 18v-26zM1696 361
q23 -23 57 -23q33 0 56.5 23t23.5 57q0 33 -23.5 56.5t-56.5 23.5q-34 0 -57 -23.5t-23 -56.5q0 -34 23 -57zM1991 336v158h-24v-108l-98 110h-12v-156h24v104l98 -108h12zM627 494h-100v-154h24v58h66v22h-66v52h76v22zM647 400q0 -27 17.5 -44.5t44.5 -17.5q28 0 46 17.5
t18 44.5v94h-24v-94q0 -16 -11.5 -28t-28.5 -12t-27.5 11t-10.5 29v94h-24v-94zM827 494h-24v-154h94v22h-70v132zM943 494h-24v-154h96v22h-72v132zM1159 340l64 154h-28l-44 -114l-44 114h-28l64 -154h16zM1343 494h-100v-154h100v22h-76v46h66v20h-66v44h76v22zM1455 340
h28l-30 62q11 6 17.5 17.5t6.5 24.5q0 21 -14.5 35.5t-35.5 14.5h-58v-154h24v56h36zM1647 494h-24v-154h24v154zM1791.5 376.5q-15.5 -16.5 -38.5 -16.5q-24 0 -40 16.5t-16 41.5q0 24 16 40t40 16q23 0 38.5 -16t15.5 -40q0 -25 -15.5 -41.5zM1445.5 424q-7.5 -8 -18.5 -8
h-34v56h34q11 0 18.5 -8t7.5 -20t-7.5 -20zM2965 366l50 48l-50 48l-16 -14l26 -22h-916v-24h916l-26 -22zM1487 107.5q34 -33.5 84 -33.5q51 0 84.5 33t33.5 83q0 48 -33.5 81t-84.5 33q-50 0 -84 -33t-34 -81q0 -49 34 -82.5zM2107 94q31 -20 76 -20q39 0 63.5 19.5
t24.5 54.5q0 53 -72 70q-5 2 -13.5 4t-11.5 4.5t-3 7.5q0 8 22 8q14 0 32.5 -6t31.5 -16v68q-35 16 -64 16q-41 0 -65.5 -18t-24.5 -50q0 -28 15 -43.5t49 -26.5q7 -2 16 -4.5t13.5 -5.5t4.5 -8q0 -12 -18 -12q-26 0 -76 32v-74zM2397 107.5q34 -33.5 82 -33.5q24 0 52 14
l2 70q-20 -20 -50 -20q-21 0 -35.5 15t-14.5 37q0 21 14.5 35.5t35.5 14.5t44 -14v66q-21 12 -46 12q-50 0 -84 -33t-34 -81q0 -49 34 -82.5zM2573.5 107.5q34.5 -33.5 85.5 -33.5q50 0 84 33.5t34 82.5q0 48 -34 81t-84 33q-51 0 -85.5 -33t-34.5 -81q0 -49 34.5 -82.5z
M529 236h72l-82 -156h190v62h-76l82 156h-186v-62zM887 298h-158v-218h160v60h-90v20h76v60h-76v18h88v60zM897 236h52v-156h70v156h52v62h-174v-62zM1129 114h62l8 -34h76l-74 218h-80l-74 -218h72zM1445 298h-158v-218h70v68h74v58h-74v32h88v60zM1913 80v218h-70v-116
l-66 116h-72v-218h70l-2 106l68 -106h72zM1925 236h52v-156h70v156h50v62h-172v-62zM2861 298h-70v-218h70v86l28 -54h50l28 54v-86h68v218h-70l-52 -100zM1605.5 152.5q-13.5 -14.5 -34.5 -14.5t-34.5 14.5t-13.5 37.5q0 21 13.5 35.5t34.5 14.5t34.5 -14.5t13.5 -35.5
q0 -23 -13.5 -37.5zM2693 153q-14 -15 -34 -15q-21 0 -35.5 15t-14.5 37q0 21 14.5 35.5t35.5 14.5q20 0 34 -14.5t14 -35.5q0 -22 -14 -37zM1161 224l14 -52h-30l14 52h2zM2291 84q10 -10 26 -10q15 0 24.5 10t9.5 24t-9.5 23t-24.5 9q-16 0 -26 -9t-10 -23t10 -24z" />
    <glyph glyph-name="six" unicode="6" horiz-adv-x="2568" 
d="M3037 924v-386h-2508v386h972q5 73 44 133.5t101.5 95.5t136.5 35t136.5 -35t101.5 -95.5t44 -133.5h972zM1953 1094q-76 66 -170 66q-48 0 -92 -17.5t-78 -48.5h340zM1979 742q58 71 58 162q0 96 -64 170l-332 -332h338zM1585 1066q-58 -71 -58 -162q0 -48 17.5 -92
t48.5 -78l334 332h-342zM2311 642.5q38 36.5 38 91.5q0 54 -38 90t-94 36t-93 -36t-37 -90q0 -55 37 -91.5t93 -36.5t94 36.5zM711 784h56v70h-192v-70h58v-172h78v172zM905 612h82l-42 92q28 25 28 64q0 37 -27 61.5t-65 24.5h-100v-242h78v70h16zM999 612h76v242h-76v-242
zM1249 650l10 -38h84l-82 242h-90l-82 -242h82l10 38h68zM1357 612h164v66h-86v176h-78v-242zM2517 612h80v242h-78v-128l-74 128h-80v-242h78l-2 118zM2621 612h164v66h-86v176h-78v-242zM2907 612v96l82 146h-90l-32 -72l-30 72h-92l84 -146v-96h78zM2256 774
q15 -16 15 -40q0 -26 -15 -42t-39 -16q-23 0 -38.5 16.5t-15.5 41.5q0 24 15.5 40t38.5 16q24 0 39 -16zM879 788q6 0 11 -6t5 -14q0 -9 -5 -15.5t-11 -6.5h-20v42h20zM1197 714l16 58h2l16 -58h-34zM1613 714q74 -64 170 -64q47 0 91 17t79 47h-340zM1495 352
q25 -14 52 -14q22 0 37 12t15 34q0 15 -12 25t-34 19q-18 6 -25 10.5t-7 15.5q0 10 8 16t20 6q10 0 21 -4t19 -10v26q-20 10 -40 10q-23 0 -37.5 -11.5t-14.5 -32.5q0 -19 10.5 -27.5t33.5 -18.5q18 -5 26 -10t8 -14q0 -12 -8 -18t-20 -6q-27 0 -52 18v-26zM1696 361
q23 -23 57 -23q33 0 56.5 23t23.5 57q0 33 -23.5 56.5t-56.5 23.5q-34 0 -57 -23.5t-23 -56.5q0 -34 23 -57zM1991 336v158h-24v-108l-98 110h-12v-156h24v104l98 -108h12zM627 494h-100v-154h24v58h66v22h-66v52h76v22zM647 400q0 -27 17.5 -44.5t44.5 -17.5q28 0 46 17.5
t18 44.5v94h-24v-94q0 -16 -11.5 -28t-28.5 -12t-27.5 11t-10.5 29v94h-24v-94zM827 494h-24v-154h94v22h-70v132zM943 494h-24v-154h96v22h-72v132zM1159 340l64 154h-28l-44 -114l-44 114h-28l64 -154h16zM1343 494h-100v-154h100v22h-76v46h66v20h-66v44h76v22zM1455 340
h28l-30 62q11 6 17.5 17.5t6.5 24.5q0 21 -14.5 35.5t-35.5 14.5h-58v-154h24v56h36zM1647 494h-24v-154h24v154zM1791.5 376.5q-15.5 -16.5 -38.5 -16.5q-24 0 -40 16.5t-16 41.5q0 24 16 40t40 16q23 0 38.5 -16t15.5 -40q0 -25 -15.5 -41.5zM1445.5 424q-7.5 -8 -18.5 -8
h-34v56h34q11 0 18.5 -8t7.5 -20t-7.5 -20zM2965 366l50 48l-50 48l-16 -14l26 -22h-916v-24h916l-26 -22zM1487 107.5q34 -33.5 84 -33.5q51 0 84.5 33t33.5 83q0 48 -33.5 81t-84.5 33q-50 0 -84 -33t-34 -81q0 -49 34 -82.5zM2107 94q31 -20 76 -20q39 0 63.5 19.5
t24.5 54.5q0 53 -72 70q-5 2 -13.5 4t-11.5 4.5t-3 7.5q0 8 22 8q14 0 32.5 -6t31.5 -16v68q-35 16 -64 16q-41 0 -65.5 -18t-24.5 -50q0 -28 15 -43.5t49 -26.5q7 -2 16 -4.5t13.5 -5.5t4.5 -8q0 -12 -18 -12q-26 0 -76 32v-74zM2397 107.5q34 -33.5 82 -33.5q24 0 52 14
l2 70q-20 -20 -50 -20q-21 0 -35.5 15t-14.5 37q0 21 14.5 35.5t35.5 14.5t44 -14v66q-21 12 -46 12q-50 0 -84 -33t-34 -81q0 -49 34 -82.5zM2573.5 107.5q34.5 -33.5 85.5 -33.5q50 0 84 33.5t34 82.5q0 48 -34 81t-84 33q-51 0 -85.5 -33t-34.5 -81q0 -49 34.5 -82.5z
M529 236h72l-82 -156h190v62h-76l82 156h-186v-62zM887 298h-158v-218h160v60h-90v20h76v60h-76v18h88v60zM897 236h52v-156h70v156h52v62h-174v-62zM1129 114h62l8 -34h76l-74 218h-80l-74 -218h72zM1445 298h-158v-218h70v68h74v58h-74v32h88v60zM1913 80v218h-70v-116
l-66 116h-72v-218h70l-2 106l68 -106h72zM1925 236h52v-156h70v156h50v62h-172v-62zM2861 298h-70v-218h70v86l28 -54h50l28 54v-86h68v218h-70l-52 -100zM1605.5 152.5q-13.5 -14.5 -34.5 -14.5t-34.5 14.5t-13.5 37.5q0 21 13.5 35.5t34.5 14.5t34.5 -14.5t13.5 -35.5
q0 -23 -13.5 -37.5zM2693 153q-14 -15 -34 -15q-21 0 -35.5 15t-14.5 37q0 21 14.5 35.5t35.5 14.5q20 0 34 -14.5t14 -35.5q0 -22 -14 -37zM1161 224l14 -52h-30l14 52h2zM2291 84q10 -10 26 -10q15 0 24.5 10t9.5 24t-9.5 23t-24.5 9q-16 0 -26 -9t-10 -23t10 -24z" />
    <glyph glyph-name="seven" unicode="7" horiz-adv-x="2436" 
d="M3037 924v-386h-2508v386h972q5 73 44 133.5t101.5 95.5t136.5 35t136.5 -35t101.5 -95.5t44 -133.5h972zM1953 1094q-76 66 -170 66q-48 0 -92 -17.5t-78 -48.5h340zM1979 742q58 71 58 162q0 96 -64 170l-332 -332h338zM1585 1066q-58 -71 -58 -162q0 -48 17.5 -92
t48.5 -78l334 332h-342zM2311 642.5q38 36.5 38 91.5q0 54 -38 90t-94 36t-93 -36t-37 -90q0 -55 37 -91.5t93 -36.5t94 36.5zM711 784h56v70h-192v-70h58v-172h78v172zM905 612h82l-42 92q28 25 28 64q0 37 -27 61.5t-65 24.5h-100v-242h78v70h16zM999 612h76v242h-76v-242
zM1249 650l10 -38h84l-82 242h-90l-82 -242h82l10 38h68zM1357 612h164v66h-86v176h-78v-242zM2517 612h80v242h-78v-128l-74 128h-80v-242h78l-2 118zM2621 612h164v66h-86v176h-78v-242zM2907 612v96l82 146h-90l-32 -72l-30 72h-92l84 -146v-96h78zM2256 774
q15 -16 15 -40q0 -26 -15 -42t-39 -16q-23 0 -38.5 16.5t-15.5 41.5q0 24 15.5 40t38.5 16q24 0 39 -16zM879 788q6 0 11 -6t5 -14q0 -9 -5 -15.5t-11 -6.5h-20v42h20zM1197 714l16 58h2l16 -58h-34zM1613 714q74 -64 170 -64q47 0 91 17t79 47h-340zM1495 352
q25 -14 52 -14q22 0 37 12t15 34q0 15 -12 25t-34 19q-18 6 -25 10.5t-7 15.5q0 10 8 16t20 6q10 0 21 -4t19 -10v26q-20 10 -40 10q-23 0 -37.5 -11.5t-14.5 -32.5q0 -19 10.5 -27.5t33.5 -18.5q18 -5 26 -10t8 -14q0 -12 -8 -18t-20 -6q-27 0 -52 18v-26zM1696 361
q23 -23 57 -23q33 0 56.5 23t23.5 57q0 33 -23.5 56.5t-56.5 23.5q-34 0 -57 -23.5t-23 -56.5q0 -34 23 -57zM1991 336v158h-24v-108l-98 110h-12v-156h24v104l98 -108h12zM627 494h-100v-154h24v58h66v22h-66v52h76v22zM647 400q0 -27 17.5 -44.5t44.5 -17.5q28 0 46 17.5
t18 44.5v94h-24v-94q0 -16 -11.5 -28t-28.5 -12t-27.5 11t-10.5 29v94h-24v-94zM827 494h-24v-154h94v22h-70v132zM943 494h-24v-154h96v22h-72v132zM1159 340l64 154h-28l-44 -114l-44 114h-28l64 -154h16zM1343 494h-100v-154h100v22h-76v46h66v20h-66v44h76v22zM1455 340
h28l-30 62q11 6 17.5 17.5t6.5 24.5q0 21 -14.5 35.5t-35.5 14.5h-58v-154h24v56h36zM1647 494h-24v-154h24v154zM1791.5 376.5q-15.5 -16.5 -38.5 -16.5q-24 0 -40 16.5t-16 41.5q0 24 16 40t40 16q23 0 38.5 -16t15.5 -40q0 -25 -15.5 -41.5zM1445.5 424q-7.5 -8 -18.5 -8
h-34v56h34q11 0 18.5 -8t7.5 -20t-7.5 -20zM2965 366l50 48l-50 48l-16 -14l26 -22h-916v-24h916l-26 -22zM1487 107.5q34 -33.5 84 -33.5q51 0 84.5 33t33.5 83q0 48 -33.5 81t-84.5 33q-50 0 -84 -33t-34 -81q0 -49 34 -82.5zM2107 94q31 -20 76 -20q39 0 63.5 19.5
t24.5 54.5q0 53 -72 70q-5 2 -13.5 4t-11.5 4.5t-3 7.5q0 8 22 8q14 0 32.5 -6t31.5 -16v68q-35 16 -64 16q-41 0 -65.5 -18t-24.5 -50q0 -28 15 -43.5t49 -26.5q7 -2 16 -4.5t13.5 -5.5t4.5 -8q0 -12 -18 -12q-26 0 -76 32v-74zM2397 107.5q34 -33.5 82 -33.5q24 0 52 14
l2 70q-20 -20 -50 -20q-21 0 -35.5 15t-14.5 37q0 21 14.5 35.5t35.5 14.5t44 -14v66q-21 12 -46 12q-50 0 -84 -33t-34 -81q0 -49 34 -82.5zM2573.5 107.5q34.5 -33.5 85.5 -33.5q50 0 84 33.5t34 82.5q0 48 -34 81t-84 33q-51 0 -85.5 -33t-34.5 -81q0 -49 34.5 -82.5z
M529 236h72l-82 -156h190v62h-76l82 156h-186v-62zM887 298h-158v-218h160v60h-90v20h76v60h-76v18h88v60zM897 236h52v-156h70v156h52v62h-174v-62zM1129 114h62l8 -34h76l-74 218h-80l-74 -218h72zM1445 298h-158v-218h70v68h74v58h-74v32h88v60zM1913 80v218h-70v-116
l-66 116h-72v-218h70l-2 106l68 -106h72zM1925 236h52v-156h70v156h50v62h-172v-62zM2861 298h-70v-218h70v86l28 -54h50l28 54v-86h68v218h-70l-52 -100zM1605.5 152.5q-13.5 -14.5 -34.5 -14.5t-34.5 14.5t-13.5 37.5q0 21 13.5 35.5t34.5 14.5t34.5 -14.5t13.5 -35.5
q0 -23 -13.5 -37.5zM2693 153q-14 -15 -34 -15q-21 0 -35.5 15t-14.5 37q0 21 14.5 35.5t35.5 14.5q20 0 34 -14.5t14 -35.5q0 -22 -14 -37zM1161 224l14 -52h-30l14 52h2zM2291 84q10 -10 26 -10q15 0 24.5 10t9.5 24t-9.5 23t-24.5 9q-16 0 -26 -9t-10 -23t10 -24z" />
    <glyph glyph-name="eight" unicode="8" horiz-adv-x="2546" 
d="M3037 924v-386h-2508v386h972q5 73 44 133.5t101.5 95.5t136.5 35t136.5 -35t101.5 -95.5t44 -133.5h972zM1953 1094q-76 66 -170 66q-48 0 -92 -17.5t-78 -48.5h340zM1979 742q58 71 58 162q0 96 -64 170l-332 -332h338zM1585 1066q-58 -71 -58 -162q0 -48 17.5 -92
t48.5 -78l334 332h-342zM2311 642.5q38 36.5 38 91.5q0 54 -38 90t-94 36t-93 -36t-37 -90q0 -55 37 -91.5t93 -36.5t94 36.5zM711 784h56v70h-192v-70h58v-172h78v172zM905 612h82l-42 92q28 25 28 64q0 37 -27 61.5t-65 24.5h-100v-242h78v70h16zM999 612h76v242h-76v-242
zM1249 650l10 -38h84l-82 242h-90l-82 -242h82l10 38h68zM1357 612h164v66h-86v176h-78v-242zM2517 612h80v242h-78v-128l-74 128h-80v-242h78l-2 118zM2621 612h164v66h-86v176h-78v-242zM2907 612v96l82 146h-90l-32 -72l-30 72h-92l84 -146v-96h78zM2256 774
q15 -16 15 -40q0 -26 -15 -42t-39 -16q-23 0 -38.5 16.5t-15.5 41.5q0 24 15.5 40t38.5 16q24 0 39 -16zM879 788q6 0 11 -6t5 -14q0 -9 -5 -15.5t-11 -6.5h-20v42h20zM1197 714l16 58h2l16 -58h-34zM1613 714q74 -64 170 -64q47 0 91 17t79 47h-340zM1495 352
q25 -14 52 -14q22 0 37 12t15 34q0 15 -12 25t-34 19q-18 6 -25 10.5t-7 15.5q0 10 8 16t20 6q10 0 21 -4t19 -10v26q-20 10 -40 10q-23 0 -37.5 -11.5t-14.5 -32.5q0 -19 10.5 -27.5t33.5 -18.5q18 -5 26 -10t8 -14q0 -12 -8 -18t-20 -6q-27 0 -52 18v-26zM1696 361
q23 -23 57 -23q33 0 56.5 23t23.5 57q0 33 -23.5 56.5t-56.5 23.5q-34 0 -57 -23.5t-23 -56.5q0 -34 23 -57zM1991 336v158h-24v-108l-98 110h-12v-156h24v104l98 -108h12zM627 494h-100v-154h24v58h66v22h-66v52h76v22zM647 400q0 -27 17.5 -44.5t44.5 -17.5q28 0 46 17.5
t18 44.5v94h-24v-94q0 -16 -11.5 -28t-28.5 -12t-27.5 11t-10.5 29v94h-24v-94zM827 494h-24v-154h94v22h-70v132zM943 494h-24v-154h96v22h-72v132zM1159 340l64 154h-28l-44 -114l-44 114h-28l64 -154h16zM1343 494h-100v-154h100v22h-76v46h66v20h-66v44h76v22zM1455 340
h28l-30 62q11 6 17.5 17.5t6.5 24.5q0 21 -14.5 35.5t-35.5 14.5h-58v-154h24v56h36zM1647 494h-24v-154h24v154zM1791.5 376.5q-15.5 -16.5 -38.5 -16.5q-24 0 -40 16.5t-16 41.5q0 24 16 40t40 16q23 0 38.5 -16t15.5 -40q0 -25 -15.5 -41.5zM1445.5 424q-7.5 -8 -18.5 -8
h-34v56h34q11 0 18.5 -8t7.5 -20t-7.5 -20zM2965 366l50 48l-50 48l-16 -14l26 -22h-916v-24h916l-26 -22zM1487 107.5q34 -33.5 84 -33.5q51 0 84.5 33t33.5 83q0 48 -33.5 81t-84.5 33q-50 0 -84 -33t-34 -81q0 -49 34 -82.5zM2107 94q31 -20 76 -20q39 0 63.5 19.5
t24.5 54.5q0 53 -72 70q-5 2 -13.5 4t-11.5 4.5t-3 7.5q0 8 22 8q14 0 32.5 -6t31.5 -16v68q-35 16 -64 16q-41 0 -65.5 -18t-24.5 -50q0 -28 15 -43.5t49 -26.5q7 -2 16 -4.5t13.5 -5.5t4.5 -8q0 -12 -18 -12q-26 0 -76 32v-74zM2397 107.5q34 -33.5 82 -33.5q24 0 52 14
l2 70q-20 -20 -50 -20q-21 0 -35.5 15t-14.5 37q0 21 14.5 35.5t35.5 14.5t44 -14v66q-21 12 -46 12q-50 0 -84 -33t-34 -81q0 -49 34 -82.5zM2573.5 107.5q34.5 -33.5 85.5 -33.5q50 0 84 33.5t34 82.5q0 48 -34 81t-84 33q-51 0 -85.5 -33t-34.5 -81q0 -49 34.5 -82.5z
M529 236h72l-82 -156h190v62h-76l82 156h-186v-62zM887 298h-158v-218h160v60h-90v20h76v60h-76v18h88v60zM897 236h52v-156h70v156h52v62h-174v-62zM1129 114h62l8 -34h76l-74 218h-80l-74 -218h72zM1445 298h-158v-218h70v68h74v58h-74v32h88v60zM1913 80v218h-70v-116
l-66 116h-72v-218h70l-2 106l68 -106h72zM1925 236h52v-156h70v156h50v62h-172v-62zM2861 298h-70v-218h70v86l28 -54h50l28 54v-86h68v218h-70l-52 -100zM1605.5 152.5q-13.5 -14.5 -34.5 -14.5t-34.5 14.5t-13.5 37.5q0 21 13.5 35.5t34.5 14.5t34.5 -14.5t13.5 -35.5
q0 -23 -13.5 -37.5zM2693 153q-14 -15 -34 -15q-21 0 -35.5 15t-14.5 37q0 21 14.5 35.5t35.5 14.5q20 0 34 -14.5t14 -35.5q0 -22 -14 -37zM1161 224l14 -52h-30l14 52h2zM2291 84q10 -10 26 -10q15 0 24.5 10t9.5 24t-9.5 23t-24.5 9q-16 0 -26 -9t-10 -23t10 -24z" />
    <glyph glyph-name="nine" unicode="9" horiz-adv-x="2687" 
d="M3037 924v-386h-2508v386h972q5 73 44 133.5t101.5 95.5t136.5 35t136.5 -35t101.5 -95.5t44 -133.5h972zM1953 1094q-76 66 -170 66q-48 0 -92 -17.5t-78 -48.5h340zM1979 742q58 71 58 162q0 96 -64 170l-332 -332h338zM1585 1066q-58 -71 -58 -162q0 -48 17.5 -92
t48.5 -78l334 332h-342zM2311 642.5q38 36.5 38 91.5q0 54 -38 90t-94 36t-93 -36t-37 -90q0 -55 37 -91.5t93 -36.5t94 36.5zM711 784h56v70h-192v-70h58v-172h78v172zM905 612h82l-42 92q28 25 28 64q0 37 -27 61.5t-65 24.5h-100v-242h78v70h16zM999 612h76v242h-76v-242
zM1249 650l10 -38h84l-82 242h-90l-82 -242h82l10 38h68zM1357 612h164v66h-86v176h-78v-242zM2517 612h80v242h-78v-128l-74 128h-80v-242h78l-2 118zM2621 612h164v66h-86v176h-78v-242zM2907 612v96l82 146h-90l-32 -72l-30 72h-92l84 -146v-96h78zM2256 774
q15 -16 15 -40q0 -26 -15 -42t-39 -16q-23 0 -38.5 16.5t-15.5 41.5q0 24 15.5 40t38.5 16q24 0 39 -16zM879 788q6 0 11 -6t5 -14q0 -9 -5 -15.5t-11 -6.5h-20v42h20zM1197 714l16 58h2l16 -58h-34zM1613 714q74 -64 170 -64q47 0 91 17t79 47h-340zM1495 352
q25 -14 52 -14q22 0 37 12t15 34q0 15 -12 25t-34 19q-18 6 -25 10.5t-7 15.5q0 10 8 16t20 6q10 0 21 -4t19 -10v26q-20 10 -40 10q-23 0 -37.5 -11.5t-14.5 -32.5q0 -19 10.5 -27.5t33.5 -18.5q18 -5 26 -10t8 -14q0 -12 -8 -18t-20 -6q-27 0 -52 18v-26zM1696 361
q23 -23 57 -23q33 0 56.5 23t23.5 57q0 33 -23.5 56.5t-56.5 23.5q-34 0 -57 -23.5t-23 -56.5q0 -34 23 -57zM1991 336v158h-24v-108l-98 110h-12v-156h24v104l98 -108h12zM627 494h-100v-154h24v58h66v22h-66v52h76v22zM647 400q0 -27 17.5 -44.5t44.5 -17.5q28 0 46 17.5
t18 44.5v94h-24v-94q0 -16 -11.5 -28t-28.5 -12t-27.5 11t-10.5 29v94h-24v-94zM827 494h-24v-154h94v22h-70v132zM943 494h-24v-154h96v22h-72v132zM1159 340l64 154h-28l-44 -114l-44 114h-28l64 -154h16zM1343 494h-100v-154h100v22h-76v46h66v20h-66v44h76v22zM1455 340
h28l-30 62q11 6 17.5 17.5t6.5 24.5q0 21 -14.5 35.5t-35.5 14.5h-58v-154h24v56h36zM1647 494h-24v-154h24v154zM1791.5 376.5q-15.5 -16.5 -38.5 -16.5q-24 0 -40 16.5t-16 41.5q0 24 16 40t40 16q23 0 38.5 -16t15.5 -40q0 -25 -15.5 -41.5zM1445.5 424q-7.5 -8 -18.5 -8
h-34v56h34q11 0 18.5 -8t7.5 -20t-7.5 -20zM2965 366l50 48l-50 48l-16 -14l26 -22h-916v-24h916l-26 -22zM1487 107.5q34 -33.5 84 -33.5q51 0 84.5 33t33.5 83q0 48 -33.5 81t-84.5 33q-50 0 -84 -33t-34 -81q0 -49 34 -82.5zM2107 94q31 -20 76 -20q39 0 63.5 19.5
t24.5 54.5q0 53 -72 70q-5 2 -13.5 4t-11.5 4.5t-3 7.5q0 8 22 8q14 0 32.5 -6t31.5 -16v68q-35 16 -64 16q-41 0 -65.5 -18t-24.5 -50q0 -28 15 -43.5t49 -26.5q7 -2 16 -4.5t13.5 -5.5t4.5 -8q0 -12 -18 -12q-26 0 -76 32v-74zM2397 107.5q34 -33.5 82 -33.5q24 0 52 14
l2 70q-20 -20 -50 -20q-21 0 -35.5 15t-14.5 37q0 21 14.5 35.5t35.5 14.5t44 -14v66q-21 12 -46 12q-50 0 -84 -33t-34 -81q0 -49 34 -82.5zM2573.5 107.5q34.5 -33.5 85.5 -33.5q50 0 84 33.5t34 82.5q0 48 -34 81t-84 33q-51 0 -85.5 -33t-34.5 -81q0 -49 34.5 -82.5z
M529 236h72l-82 -156h190v62h-76l82 156h-186v-62zM887 298h-158v-218h160v60h-90v20h76v60h-76v18h88v60zM897 236h52v-156h70v156h52v62h-174v-62zM1129 114h62l8 -34h76l-74 218h-80l-74 -218h72zM1445 298h-158v-218h70v68h74v58h-74v32h88v60zM1913 80v218h-70v-116
l-66 116h-72v-218h70l-2 106l68 -106h72zM1925 236h52v-156h70v156h50v62h-172v-62zM2861 298h-70v-218h70v86l28 -54h50l28 54v-86h68v218h-70l-52 -100zM1605.5 152.5q-13.5 -14.5 -34.5 -14.5t-34.5 14.5t-13.5 37.5q0 21 13.5 35.5t34.5 14.5t34.5 -14.5t13.5 -35.5
q0 -23 -13.5 -37.5zM2693 153q-14 -15 -34 -15q-21 0 -35.5 15t-14.5 37q0 21 14.5 35.5t35.5 14.5q20 0 34 -14.5t14 -35.5q0 -22 -14 -37zM1161 224l14 -52h-30l14 52h2zM2291 84q10 -10 26 -10q15 0 24.5 10t9.5 24t-9.5 23t-24.5 9q-16 0 -26 -9t-10 -23t10 -24z" />
    <glyph glyph-name="colon" unicode=":" horiz-adv-x="337" 
d="M122.5 932.5q-18.5 18.5 -18.5 44.5q0 27 18.5 45.5t45.5 18.5t46 -18.5t19 -45.5q0 -26 -19.5 -44.5t-45.5 -18.5q-27 0 -45.5 18.5zM122.5 -5.5q-18.5 18.5 -18.5 44.5q0 27 18.5 45.5t45.5 18.5t46 -18.5t19 -45.5q0 -26 -19.5 -44.5t-45.5 -18.5q-27 0 -45.5 18.5z
" />
    <glyph glyph-name="semicolon" unicode=";" horiz-adv-x="349" 
d="M107 -170q84 84 84 155v4q-32 0 -52.5 15.5t-20.5 43.5q0 26 18 42.5t44 16.5q65 0 65 -70q0 -67 -23 -121t-84 -115zM125.5 933.5q-18.5 18.5 -18.5 44.5q0 27 18.5 45.5t45.5 18.5t46 -18.5t19 -45.5q0 -26 -19.5 -44.5t-45.5 -18.5q-27 0 -45.5 18.5z" />
    <glyph glyph-name="less" unicode="&#x3c;" horiz-adv-x="998" 
d="M894 323v-62l-790 377v50l790 375v-61l-718 -339z" />
    <glyph glyph-name="equal" unicode="=" horiz-adv-x="1156" 
d="M1051 827h-947v54h947v-54zM1051 460h-947v54h947v-54z" />
    <glyph glyph-name="greater" unicode="&#x3e;" horiz-adv-x="998" 
d="M894 638l-790 -377v62l719 340l-719 339v61l790 -375v-50z" />
    <glyph glyph-name="question" unicode="?" horiz-adv-x="929" 
d="M425 447q0 91 59.5 173t159.5 168q85 74 133 141.5t48 145.5q0 94 -42.5 162t-121.5 104t-187 36q-161 0 -254.5 -79.5t-93.5 -224.5h-56q0 106 49 187.5t140.5 126.5t215.5 45t215.5 -45t140.5 -126t49 -187q0 -74 -34 -136.5t-80.5 -109t-125.5 -114.5
q-161 -139 -161 -274v-65h-54v72zM411.5 4.5q-18.5 18.5 -18.5 44.5q0 27 18.5 45.5t46.5 18.5q27 0 46 -18.5t19 -45.5q0 -26 -19.5 -44.5t-45.5 -18.5q-28 0 -46.5 18.5z" />
    <glyph glyph-name="at" unicode="@" horiz-adv-x="1773" 
d="M1286 1189.5q179 -105.5 280.5 -286.5t101.5 -398q0 -178 -63.5 -280t-195.5 -102q-85 0 -138.5 55.5t-65.5 156.5q-46 -101 -138 -162t-203 -61q-101 0 -188.5 52.5t-139.5 143t-52 199.5q0 110 51.5 200.5t139 143t188.5 52.5q109 0 200 -60t139 -159l5 200h47v-521
q0 -61 22 -103.5t58 -64t77 -21.5q104 0 154 86.5t50 242.5q0 205 -93 374.5t-259.5 268t-377.5 98.5q-204 0 -370.5 -99.5t-261.5 -266.5t-95 -360q0 -206 101.5 -371.5t267 -258.5t350.5 -93q130 0 224 25.5t204 81.5l25 -45q-110 -59 -214 -86.5t-239 -27.5
q-187 0 -366 94.5t-293 271t-114 408.5q0 195 96.5 374.5t274.5 291.5t410 112q222 0 401 -105.5zM1034 210q76 45 121 123.5t45 172.5q0 95 -45.5 174t-121.5 124.5t-164 45.5q-89 0 -165 -45.5t-120.5 -124.5t-44.5 -174q0 -94 45 -172.5t121 -123.5t165 -45q88 0 164 45z
" />
    <glyph glyph-name="A" unicode="A" horiz-adv-x="1256" 
d="M1236 0h-61l-163 399h-770l-163 -399h-59l578 1405h59zM623 1334l-359 -881h726l-359 881l-4 10z" />
    <glyph glyph-name="B" unicode="B" horiz-adv-x="1292" 
d="M209 0v1405h575q107 0 187.5 -46.5t123.5 -126.5t43 -178q0 -69 -28 -132.5t-77 -111t-109 -70.5q81 -14 147.5 -64.5t105.5 -128t39 -169.5q0 -106 -48.5 -192.5t-133.5 -136t-191 -49.5h-634zM784 759q79 0 148 40t110.5 108t41.5 148q0 83 -36.5 151t-105 107.5
t-159.5 39.5h-519v-594h520zM841 52q90 0 163 42.5t114.5 117t41.5 168.5q0 90 -43 165t-121.5 119t-178.5 44h-553v-656h577z" />
    <glyph glyph-name="C" unicode="C" horiz-adv-x="1383" 
d="M461 74.5q-165 95.5 -261 261t-96 365.5q0 201 96 367t261 262t362 96q138 0 258.5 -47.5t218.5 -131.5l-34 -40q-93 78 -206 121t-237 43q-181 0 -333 -88.5t-240.5 -242t-88.5 -339.5q0 -185 88.5 -338t240.5 -241t333 -88q123 0 234.5 45t208.5 125l34 -41
q-100 -85 -220 -134.5t-257 -49.5q-197 0 -362 95.5z" />
    <glyph glyph-name="D" unicode="D" horiz-adv-x="1484" 
d="M209 0v1405h454q196 0 360.5 -94t260.5 -255.5t96 -355.5q0 -192 -95.5 -352.5t-259 -254t-358.5 -93.5h-458zM666 54q180 0 331 86.5t239 234.5t88 325q0 179 -88.5 328t-241 235.5t-334.5 86.5h-395v-1296h401z" />
    <glyph glyph-name="E" unicode="E" horiz-adv-x="1286" 
d="M1182 0h-973v1405h959v-54h-903v-594h748v-53h-748v-650h917v-54z" />
    <glyph glyph-name="F" unicode="F" horiz-adv-x="1196" 
d="M265 0h-56v1405h919v-53h-863v-647h701v-52h-701v-653z" />
    <glyph glyph-name="G" unicode="G" horiz-adv-x="1421" 
d="M1233 623h55v-485q-98 -76 -221 -118.5t-244 -42.5q-197 0 -362 96.5t-261 263.5t-96 367t96 366.5t261 263t362 96.5q131 0 253.5 -47.5t215.5 -131.5l-36 -41q-89 77 -200.5 121t-232.5 44q-181 0 -333 -89.5t-241 -243t-89 -338.5t89 -339t241 -243.5t333 -89.5
q102 0 216.5 36t193.5 95v460z" />
    <glyph glyph-name="H" unicode="H" horiz-adv-x="1538" 
d="M265 0h-56v1405h56v-668h1009v668h56v-1405h-56v683h-1009v-683z" />
    <glyph glyph-name="I" unicode="I" horiz-adv-x="473" 
d="M265 0h-56v1405h56v-1405z" />
    <glyph glyph-name="J" unicode="J" horiz-adv-x="776" 
d="M146.5 9q-70.5 32 -125.5 87l36 40q49 -49 110 -76t117 -27q82 0 142.5 34t93.5 98.5t33 152.5v1087h56v-1089q0 -103 -40 -179.5t-113.5 -118t-172.5 -41.5q-66 0 -136.5 32z" />
    <glyph glyph-name="K" unicode="K" horiz-adv-x="1342" 
d="M1313 0h-71l-649 784l-328 -352v-432h-56v1405h56v-894l833 894h74l-541 -581z" />
    <glyph glyph-name="L" unicode="L" horiz-adv-x="1100" 
d="M1078 0h-869v1405h56v-1351h813v-54z" />
    <glyph glyph-name="M" unicode="M" horiz-adv-x="1757" 
d="M173 0h-56l148 1405h70l544 -1316l545 1316h69l147 -1405h-56l-137 1319l-547 -1319h-43l-546 1319z" />
    <glyph glyph-name="N" unicode="N" horiz-adv-x="1560" 
d="M265 0h-56v1405h46l1040 -1306v1306h56v-1405h-49l-1037 1304v-1304z" />
    <glyph glyph-name="O" unicode="O" horiz-adv-x="1646" 
d="M461 74.5q-165 95.5 -261 261t-96 365.5q0 201 96 367t261 262t362 96q198 0 362.5 -96t260.5 -262t96 -367q0 -200 -96 -365.5t-260.5 -261t-362.5 -95.5q-197 0 -362 95.5zM1156 122q152 88 240.5 241t88.5 338q0 186 -88.5 339.5t-240.5 242t-333 88.5t-333 -88.5
t-240.5 -242t-88.5 -339.5q0 -185 88.5 -338t240.5 -241t333 -88t333 88z" />
    <glyph glyph-name="P" unicode="P" horiz-adv-x="1188" 
d="M209 0v1405h455q139 0 242 -53.5t158.5 -152.5t55.5 -231q0 -133 -55.5 -232.5t-158.5 -153t-242 -53.5h-399v-529h-56zM661 584q123 0 214 46.5t140 133t49 203.5t-49.5 203.5t-140.5 133.5t-214 47h-395v-767h396z" />
    <glyph glyph-name="Q" unicode="Q" horiz-adv-x="1646" 
d="M1450.5 342.5q-91.5 -162.5 -250 -259.5t-350.5 -104v-286h-56v287q-191 7 -349 104t-249.5 259.5t-91.5 357.5q0 201 96 367t261 262t362 96q198 0 362.5 -96t260.5 -262t96 -367q0 -196 -91.5 -358.5zM1156 122q152 88 240.5 241t88.5 338q0 186 -88.5 339.5
t-240.5 242t-333 88.5t-333 -88.5t-240.5 -242t-88.5 -339.5q0 -185 88.5 -338t240.5 -241t333 -88t333 88z" />
    <glyph glyph-name="R" unicode="R" horiz-adv-x="1264" 
d="M1103.5 706q-74.5 -107 -207.5 -150l253 -556h-63l-244 542q-58 -12 -125 -12h-452v-530h-56v1405h514q138 0 241 -53.5t158.5 -152t55.5 -231.5q0 -155 -74.5 -262zM265 584h454q122 0 213 46.5t140 133t49 203.5t-49 204t-140 133.5t-214 46.5h-453v-767z" />
    <glyph glyph-name="S" unicode="S" horiz-adv-x="1142" 
d="M284 44q-145 60 -235 172l37 38q86 -103 223 -159t281 -56q116 0 213 37.5t155 112t58 181.5q0 104 -63.5 167t-152 94.5t-246.5 70.5q-150 36 -242 71.5t-155 105t-63 184.5q0 110 66 191t176 123.5t240 42.5q124 0 241.5 -40.5t204.5 -119.5l-34 -42
q-79 72 -187.5 109.5t-221.5 37.5q-114 0 -212.5 -36t-157.5 -105t-59 -162q0 -96 56.5 -155t140 -89.5t226.5 -65.5q166 -41 263 -77t166.5 -109t69.5 -195q0 -124 -66.5 -211.5t-177.5 -131.5t-243 -44q-156 0 -301 60z" />
    <glyph glyph-name="T" unicode="T" horiz-adv-x="1128" 
d="M591 0h-56v1350h-496v55h1050v-55h-498v-1350z" />
    <glyph glyph-name="U" unicode="U" horiz-adv-x="1453" 
d="M423.5 53q-126.5 77 -191.5 217.5t-65 328.5v808h55v-807q0 -172 58 -300t172 -198.5t276 -70.5q161 0 274 70t170.5 198t57.5 301v807h56v-808q0 -188 -65 -328.5t-190.5 -217.5t-302.5 -77q-178 0 -304.5 77z" />
    <glyph glyph-name="V" unicode="V" horiz-adv-x="1253" 
d="M656 0h-59l-577 1405h60l547 -1336l1 2l545 1334h60z" />
    <glyph glyph-name="W" unicode="W" horiz-adv-x="1924" 
d="M663 0h-60l-583 1405h60l553 -1334l534 1334h60l-234 -581l307 -753l543 1334h61l-576 -1405h-58l-305 752z" />
    <glyph glyph-name="X" unicode="X" horiz-adv-x="1228" 
d="M98 0h-69l549 731l-506 674h70l471 -627l474 627h70l-509 -674l550 -731h-70l-515 688z" />
    <glyph glyph-name="Y" unicode="Y" horiz-adv-x="1054" 
d="M555 0h-55v629l-480 776h66l442 -720l440 720h66l-479 -776v-629z" />
    <glyph glyph-name="Z" unicode="Z" horiz-adv-x="1269" 
d="M1149 0h-1045v49l989 1303h-972v53h1043v-48l-988 -1304h973v-53z" />
    <glyph glyph-name="bracketleft" unicode="[" horiz-adv-x="565" 
d="M545 -361h-336v1851h336v-50h-281v-1751h281v-50z" />
    <glyph glyph-name="backslash" unicode="\" horiz-adv-x="779" 
d="M79 1506l717 -1762h-60l-717 1762h60z" />
    <glyph glyph-name="bracketright" unicode="]" horiz-adv-x="565" 
d="M356 1490v-1851h-336v50h281v1751h-281v50h336z" />
    <glyph glyph-name="asciicircum" unicode="^" horiz-adv-x="836" 
d="M419 1374l-265 -511l-50 18l311 593h7l310 -593l-49 -18z" />
    <glyph glyph-name="underscore" unicode="_" horiz-adv-x="941" 
d="M946 -229h-951v46h951v-46z" />
    <glyph glyph-name="grave" unicode="`" horiz-adv-x="422" 
d="M317 1224h-51l-162 244h70z" />
    <glyph glyph-name="a" unicode="a" horiz-adv-x="1266" 
d="M1045 1019h55v-1019h-55v217l4 75q-39 -94 -108 -165t-159.5 -110.5t-191.5 -39.5q-136 0 -252 70.5t-184.5 192t-68.5 268.5t68.5 269t184 193t251.5 71q101 0 191 -39.5t159 -110.5t108 -164l-2 64v228zM818.5 94q104.5 63 166 172t61.5 242q0 132 -61.5 241.5
t-166.5 173t-228 63.5q-122 0 -225.5 -63.5t-164.5 -173t-61 -241.5q0 -133 61 -242t165 -172t226 -63q123 0 227.5 63z" />
    <glyph glyph-name="b" unicode="b" horiz-adv-x="1266" 
d="M928.5 970q115.5 -71 184 -193t68.5 -269t-68.5 -268.5t-184.5 -192t-252 -70.5q-101 0 -191.5 39.5t-159.5 110.5t-108 165l4 -75v-217h-55v1493h55v-696l-2 -70q39 93 108 164t159 110.5t191 39.5q136 0 251.5 -71zM901 94q104 63 165 172t61 242q0 132 -61 241.5
t-164.5 173t-225.5 63.5q-123 0 -228 -63.5t-166.5 -173t-61.5 -241.5q0 -133 61.5 -242t166 -172t227.5 -63q122 0 226 63z" />
    <glyph glyph-name="c" unicode="c" horiz-adv-x="1051" 
d="M348 46.5q-121 70.5 -192 192.5t-71 268q0 147 71 269t192 193t264 71q112 0 208.5 -41t169.5 -116l-35 -38q-67 68 -154 105t-188 37q-128 0 -237 -63.5t-173 -174t-64 -242.5t64 -241.5t173 -172.5t237 -63q101 0 188.5 37t154.5 105l34 -38q-74 -75 -171 -116.5
t-207 -41.5q-143 0 -264 70.5z" />
    <glyph glyph-name="d" unicode="d" horiz-adv-x="1266" 
d="M1045 1493h55v-1493h-55v217l4 75q-39 -94 -108 -165t-159.5 -110.5t-191.5 -39.5q-136 0 -252 70.5t-184.5 192t-68.5 268.5t68.5 269t184 193t251.5 71q101 0 191 -39.5t159 -110.5t108 -164l-2 70v696zM818.5 94q104.5 63 166 172t61.5 242q0 132 -61.5 241.5
t-166.5 173t-228 63.5q-122 0 -225.5 -63.5t-164.5 -173t-61 -241.5q0 -133 61 -242t165 -172t226 -63q123 0 227.5 63z" />
    <glyph glyph-name="e" unicode="e" horiz-adv-x="1120" 
d="M815 971.5q107 -68.5 164 -189.5t57 -274q0 -15 -1 -23h-896q5 -129 66.5 -233t164 -163t226.5 -59q105 0 193 37.5t155 104.5l34 -38q-74 -75 -171 -116t-212 -41q-141 0 -258 70t-184.5 191.5t-67.5 268.5q0 148 61.5 270t170.5 192.5t246 70.5q145 0 252 -68.5z
M351.5 928.5q-94.5 -58.5 -150 -161t-61.5 -229.5h841q-6 131 -57 232.5t-143.5 159t-216.5 57.5q-118 0 -212.5 -58.5z" />
    <glyph glyph-name="f" unicode="f" horiz-adv-x="565" 
d="M212 0v966h-164v53h164v159q0 165 75 246t217 81h58v-53h-61q-116 0 -175.5 -68t-59.5 -211v-154h285v-53h-285v-966h-54z" />
    <glyph glyph-name="g" unicode="g" horiz-adv-x="1266" 
d="M1045 1019h55v-862q0 -152 -51 -273.5t-157 -192.5t-265 -71q-95 0 -185.5 19.5t-152.5 49.5l21 49q57 -28 142 -46t172 -18q145 0 239 65.5t138 174.5t44 244v41l5 122q-39 -90 -108 -160t-160 -109t-193 -39q-136 0 -252 68t-184 186t-68 261q0 139 68.5 257
t184.5 187.5t252 69.5q101 0 191.5 -39t159.5 -109t108 -161l-4 70v216zM818 128q105 61 166.5 166t61.5 230q0 127 -61.5 233.5t-166 168.5t-227.5 62q-122 0 -225.5 -62t-165 -167.5t-61.5 -229.5q0 -129 61 -235t164.5 -166.5t225.5 -60.5q123 0 228 61z" />
    <glyph glyph-name="h" unicode="h" horiz-adv-x="1156" 
d="M838.5 992.5q90.5 -49.5 141.5 -146t51 -232.5v-614h-55v610q0 122 -43.5 207t-122.5 128t-185 43q-104 0 -197 -51t-150 -142t-57 -205v-590h-55v1493h55v-705q27 69 87.5 127t144 92.5t177.5 34.5q118 0 208.5 -49.5z" />
    <glyph glyph-name="i" unicode="i" horiz-adv-x="387" 
d="M157 1350.5q-13 12.5 -13 33.5q0 22 13 35.5t35 13.5t35.5 -13.5t13.5 -35.5q0 -21 -13.5 -33.5t-35.5 -12.5t-35 12.5zM221 0h-55v1019h55v-1019z" />
    <glyph glyph-name="j" unicode="j" horiz-adv-x="401" 
d="M171 1350.5q-13 12.5 -13 33.5q0 22 13 35.5t35 13.5t35.5 -13.5t13.5 -35.5q0 -21 -13.5 -33.5t-35.5 -12.5t-35 12.5zM-52 -367v53h18q106 0 160 67t54 196v1070h55v-1069q0 -149 -67.5 -233t-198.5 -84h-21z" />
    <glyph glyph-name="k" unicode="k" horiz-adv-x="1019" 
d="M1009 0h-70l-477 571l-241 -228v-343h-55v1493h55v-1078l640 604h76l-436 -412z" />
    <glyph glyph-name="l" unicode="l" horiz-adv-x="387" 
d="M221 0h-55v1493h55v-1493z" />
    <glyph glyph-name="m" unicode="m" horiz-adv-x="1731" 
d="M1432.5 996.5q81.5 -47.5 127.5 -138t46 -215.5v-643h-55v636q0 103 -36.5 183t-105.5 125.5t-165 45.5q-90 0 -165.5 -46t-120.5 -130t-45 -193v-621h-54v636q0 103 -36.5 183t-106 125.5t-165.5 45.5q-90 0 -165 -46t-120 -130t-45 -193v-621h-55v1019h54v-185
q46 99 133.5 154.5t200.5 55.5q125 0 215 -67t125 -189q39 119 132.5 187.5t219.5 68.5q105 0 186.5 -47.5z" />
    <glyph glyph-name="n" unicode="n" horiz-adv-x="1156" 
d="M838.5 992.5q90.5 -49.5 141.5 -146t51 -232.5v-614h-55v610q0 122 -43.5 207t-122.5 128t-185 43q-104 0 -197 -51t-150 -142t-57 -205v-590h-55v1019h54v-234q27 70 87 128.5t144.5 93.5t178.5 35q118 0 208.5 -49.5z" />
    <glyph glyph-name="o" unicode="o" horiz-adv-x="1229" 
d="M349 46.5q-122 70.5 -193 192.5t-71 268q0 147 71 269t193 193t266 71t265.5 -71t192.5 -193t71 -269q0 -146 -71 -267.5t-192.5 -192.5t-265.5 -71t-266 70.5zM853.5 93q108.5 63 172.5 172.5t64 241.5t-64 242t-172.5 173.5t-237.5 63.5q-130 0 -239.5 -63.5
t-173.5 -173t-64 -242.5q0 -132 64 -241.5t173.5 -172.5t239.5 -63q129 0 237.5 63z" />
    <glyph glyph-name="p" unicode="p" horiz-adv-x="1266" 
d="M928.5 970q115.5 -71 184 -193t68.5 -269t-68.5 -268.5t-184.5 -192t-252 -70.5q-100 0 -189.5 38.5t-157.5 107.5t-108 160v-638h-55v1374h55v-287q40 92 108.5 161.5t158 108.5t189.5 39q136 0 251.5 -71zM901 94q104 63 165 172t61 242q0 132 -61 241.5t-164.5 173
t-225.5 63.5q-123 0 -228 -63.5t-166.5 -173t-61.5 -241.5q0 -133 61.5 -242t166 -172t227.5 -63q122 0 226 63z" />
    <glyph glyph-name="q" unicode="q" horiz-adv-x="1266" 
d="M1045 1019h55v-1374h-55v638q-40 -91 -108 -160t-157.5 -107.5t-189.5 -38.5q-136 0 -252 70.5t-184.5 192t-68.5 268.5t68.5 269t184 193t251.5 71q100 0 189.5 -39t158 -108.5t108.5 -161.5v287zM818.5 94q104.5 63 166 172t61.5 242q0 132 -61.5 241.5t-166.5 173
t-228 63.5q-122 0 -225.5 -63.5t-164.5 -173t-61 -241.5q0 -133 61 -242t165 -172t226 -63q123 0 227.5 63z" />
    <glyph glyph-name="r" unicode="r" horiz-adv-x="786" 
d="M788 970l-25 -44q-104 61 -205 61q-89 -1 -166 -52.5t-124 -144.5t-47 -213v-577h-55v1019h54v-226q25 70 75 126t118 88.5t145 32.5q115 0 230 -70z" />
    <glyph glyph-name="s" unicode="s" horiz-adv-x="876" 
d="M236 20q-112 44 -177 106l36 40q61 -56 162.5 -96t201.5 -40q85 0 152.5 30t105 83.5t37.5 121.5q0 72 -36.5 116t-102.5 71.5t-182 55.5q-149 36 -235 101.5t-86 177.5q0 70 40 128t114.5 92t173.5 34t186.5 -29.5t152.5 -82.5l-34 -40q-131 99 -305 99
q-83 0 -144.5 -26t-94.5 -72t-33 -103q0 -81 64.5 -135.5t216.5 -92.5q116 -29 189.5 -59t122 -86.5t48.5 -147.5q0 -82 -44.5 -148t-124 -104t-181.5 -38q-111 0 -223 44z" />
    <glyph glyph-name="t" unicode="t" horiz-adv-x="563" 
d="M274 0h-55v966h-198v53h198v264l55 4v-268h285v-53h-285v-966z" />
    <glyph glyph-name="u" unicode="u" horiz-adv-x="1156" 
d="M935 1019h55v-1019h-54v234q-27 -70 -87 -128.5t-144.5 -93.5t-178.5 -35q-118 0 -208.5 49.5t-141.5 146t-51 232.5v614h55v-610q0 -122 43.5 -207t122.5 -128t185 -43q104 0 197 51t150 142t57 205v590z" />
    <glyph glyph-name="v" unicode="v" horiz-adv-x="973" 
d="M514 0h-56l-428 1019h60l397 -953l397 953h59z" />
    <glyph glyph-name="w" unicode="w" horiz-adv-x="1539" 
d="M1051 66l399 953h59l-427 -1019h-57l-255 613l-256 -613h-57l-427 1019h59l396 -953l395 953h59l-142 -341z" />
    <glyph glyph-name="x" unicode="x" horiz-adv-x="959" 
d="M113 0h-67l397 526l-381 493h68l350 -457l348 457h68l-381 -496l399 -523h-67l-369 485z" />
    <glyph glyph-name="y" unicode="y" horiz-adv-x="974" 
d="M366 -356h-59l150 355l-427 1020h59l398 -952l397 952h60z" />
    <glyph glyph-name="z" unicode="z" horiz-adv-x="921" 
d="M863 0h-781v42l696 925h-676v52h749v-41l-695 -926h707v-52z" />
    <glyph glyph-name="braceleft" unicode="{" horiz-adv-x="519" 
d="M499 -357q-128 0 -190.5 37.5t-79.5 96t-17 151.5v321q0 113 -52.5 193t-139.5 112v47q93 36 142.5 118t49.5 189v322q0 91 17 149.5t79.5 96t190.5 37.5v-50q-99 -5 -147.5 -27t-66 -69t-17.5 -139v-325q0 -112 -49 -196.5t-132 -129.5q86 -50 133.5 -132t47.5 -193
v-320q0 -94 17.5 -142.5t66 -70t147.5 -25.5v-51z" />
    <glyph glyph-name="bar" unicode="|" horiz-adv-x="472" 
d="M263 -352h-54v1922h54v-1922z" />
    <glyph glyph-name="braceright" unicode="}" horiz-adv-x="520" 
d="M20 -306q99 4 148 25.5t66.5 70t17.5 142.5v320q0 111 47.5 193.5t133.5 131.5q-83 45 -132 129t-49 197v325q0 92 -17.5 139t-66.5 69t-148 27v50q128 0 190.5 -37.5t79.5 -96t17 -149.5v-322q0 -107 49.5 -189t142.5 -118v-47q-87 -32 -139.5 -112t-52.5 -193v-321
q0 -93 -17 -151.5t-79.5 -96t-190.5 -37.5v51z" />
    <glyph glyph-name="asciitilde" unicode="~" horiz-adv-x="1182" 
d="M708.5 567.5q-50.5 14.5 -126.5 44.5q-73 29 -122 43.5t-104 14.5q-62 0 -118.5 -25t-104.5 -75q-4 6 -13 17t-16 25q54 55 117.5 84.5t134.5 29.5q63 0 118 -16t127 -46q71 -29 117.5 -42.5t97.5 -13.5q134 0 232 100q5 -7 14 -19t15 -22q-109 -114 -260 -114
q-58 0 -108.5 14.5z" />
    <glyph glyph-name="uni00A0" unicode="&#xa0;" horiz-adv-x="443" 
 />
    <glyph glyph-name="exclamdown" unicode="&#xa1;" horiz-adv-x="546" 
d="M318.5 1024q19.5 -17 19.5 -42t-19.5 -42t-45.5 -17q-27 0 -45.5 17t-18.5 42t18.5 42t45.5 17q26 0 45.5 -17zM246 -277l1 961h54l1 -961h-56z" />
    <glyph glyph-name="cent" unicode="&#xa2;" horiz-adv-x="1051" 
d="M801.5 67q87.5 37 154.5 105l34 -38q-71 -73 -165 -114.5t-201 -43.5v-225h-55v227q-134 10 -244.5 82.5t-175 190t-64.5 256.5t64.5 256.5t175 190.5t244.5 84v226h55v-224q108 -2 201.5 -43t164.5 -114l-35 -38q-67 68 -154 105t-188 37q-128 0 -237 -63.5t-173 -174
t-64 -242.5t64 -241.5t173 -172.5t237 -63q101 0 188.5 37z" />
    <glyph glyph-name="sterling" unicode="&#xa3;" horiz-adv-x="1141" 
d="M302 54h817v-54h-872v577h-208v53h208v321q0 141 59.5 251t165.5 171.5t242 61.5q105 0 189.5 -34.5t144.5 -98.5l-33 -35q-119 114 -301 114q-120 0 -213.5 -54.5t-146 -152.5t-52.5 -224v-320h470v-53h-470v-523z" />
    <glyph glyph-name="currency" unicode="&#xa4;" horiz-adv-x="793" 
d="M295 445q-50 18 -89 53l-69 -69l-28 27l69 69q-36 41 -54 90.5t-18 102.5q0 51 18 99.5t54 88.5l-69 68l28 27l70 -68q38 35 87 54t101 19q109 0 189 -73l69 68l29 -27l-68 -67q35 -41 54 -89t19 -95q0 -55 -18 -106t-55 -92l68 -69l-29 -27l-69 68q-39 -35 -87.5 -52.5
t-99.5 -17.5q-52 0 -102 18zM521 502.5q57 33.5 90 90t33 123.5q0 66 -33 123t-90 91t-125 34q-67 0 -123.5 -33.5t-89.5 -90.5t-33 -124t33 -123.5t89.5 -90t123.5 -33.5q68 0 125 33.5z" />
    <glyph glyph-name="yen" unicode="&#xa5;" horiz-adv-x="1054" 
d="M968 1405h66l-469 -759h303v-46h-313v-157h313v-47h-313v-396h-55v396h-315v47h315v157h-315v46h304l-469 759h66l442 -720z" />
    <glyph glyph-name="brokenbar" unicode="&#xa6;" horiz-adv-x="457" 
d="M255 761h-54v806h54v-806zM255 -350h-54v806h54v-806z" />
    <glyph glyph-name="section" unicode="&#xa7;" horiz-adv-x="880" 
d="M238 -140.5q-88 30.5 -153 88.5l33 40q57 -51 135.5 -79.5t163.5 -28.5q81 0 150.5 25.5t112 74.5t42.5 115q0 69 -41.5 112t-103.5 65.5t-161 44.5q-93 20 -169.5 48t-137 86.5t-60.5 149.5q0 79 38 137.5t102.5 93.5t144.5 46q-119 35 -185 88t-66 154q0 81 48 141.5
t129.5 92.5t178.5 32q92 0 181 -30.5t154 -89.5l-33 -39q-58 52 -137 80t-162 28q-81 0 -151 -26t-112.5 -75t-42.5 -115q0 -69 41.5 -111t101.5 -63.5t163 -46.5q119 -29 193.5 -58t124.5 -83.5t50 -143.5q0 -117 -80.5 -188t-205.5 -88q78 -22 132 -50.5t87 -75.5t33 -117
q0 -81 -48.5 -141t-130 -92t-178.5 -32q-93 0 -181 30.5zM603 404q69 27 110.5 80t41.5 129q0 80 -58 130t-138.5 71.5t-151.5 21.5q-83 0 -152 -26.5t-110 -79t-41 -128.5q0 -75 53.5 -125.5t133.5 -75t160 -24.5q83 0 152 27z" />
    <glyph glyph-name="dieresis" unicode="&#xa8;" horiz-adv-x="622" 
d="M119 1238.5q-15 15.5 -15 39.5q0 22 15 37t39 15q23 0 38.5 -15t15.5 -37q0 -23 -15.5 -39t-38.5 -16q-24 0 -39 15.5zM425.5 1239q-15.5 16 -15.5 39q0 22 15.5 37t37.5 15q23 0 39 -15t16 -37q0 -23 -16 -39t-39 -16q-22 0 -37.5 16z" />
    <glyph glyph-name="copyright" unicode="&#xa9;" horiz-adv-x="1643" 
d="M1192 1331q166 -96 262 -262t96 -366q0 -199 -96 -364t-262 -261t-365 -96t-364.5 96t-262 261t-96.5 364q0 200 96.5 366t262 262t364.5 96t365 -96zM484.5 1291q-155.5 -91 -246 -246.5t-90.5 -340.5t90.5 -340.5t246 -246.5t342.5 -91t343 91t246 246.5t90 340.5
t-90 340.5t-246 246.5t-343 91t-342.5 -91zM617.5 331q-96.5 57 -153.5 155t-57 216t57 216t153 155t209 57q93 0 170.5 -33t134.5 -94l-34 -38q-49 54 -118 83t-151 29q-98 0 -182.5 -50t-134.5 -136t-50 -189t50 -189t134.5 -136t181.5 -50q82 0 151 29t119 83l34 -38
q-57 -61 -135 -94t-169 -33q-113 0 -209.5 57z" />
    <glyph glyph-name="ordfeminine" unicode="&#xaa;" horiz-adv-x="1265" 
d="M1045 1019h55v-1019h-55v217l4 75q-39 -94 -108 -165t-159.5 -110.5t-191.5 -39.5q-136 0 -252 70.5t-184.5 192t-68.5 268.5t68.5 269t184 193t251.5 71q101 0 191 -39.5t159 -110.5t108 -164l-2 64v228zM818.5 94q104.5 63 166 172t61.5 242q0 132 -61.5 241.5
t-166.5 173t-228 63.5q-122 0 -225.5 -63.5t-164.5 -173t-61 -241.5q0 -133 61 -242t165 -172t226 -63q123 0 227.5 63z" />
    <glyph glyph-name="guillemotleft" unicode="&#xab;" horiz-adv-x="843" 
d="M424 90l-42 -37l-352 386l352 386l43 -37l-321 -349zM812 90l-42 -37l-352 386l352 386l43 -37l-321 -349z" />
    <glyph glyph-name="logicalnot" unicode="&#xac;" horiz-adv-x="1058" 
d="M954 280h-53v334h-797v49h850v-383z" />
    <glyph glyph-name="uni00AD" unicode="&#xad;" horiz-adv-x="772" 
d="M668 481h-564v53h564v-53z" />
    <glyph glyph-name="registered" unicode="&#xae;" horiz-adv-x="762" 
d="M519.5 1477.5q63.5 -37.5 101 -101.5t37.5 -140q0 -74 -37.5 -137t-101 -100.5t-138.5 -37.5t-138.5 37.5t-101 100.5t-37.5 137q0 76 37.5 140t101 101.5t138.5 37.5t138.5 -37.5zM502 1027.5q56 32.5 89 88t33 120.5q0 67 -33 123.5t-88.5 89t-121.5 32.5t-122 -32.5
t-88.5 -89t-32.5 -123.5q0 -65 32.5 -120.5t88.5 -88t122 -32.5q65 0 121 32.5zM476.5 1231q-17.5 -22 -45.5 -32l69 -109h-40l-63 103h-6h-69v-103h-36v288h115q41 0 67 -26t26 -66q0 -33 -17.5 -55zM322 1223h73q28 0 45.5 18t17.5 43q0 26 -17 43.5t-43 17.5h-76v-122z
" />
    <glyph glyph-name="macron" unicode="&#xaf;" horiz-adv-x="595" 
d="M491 1227h-387v49h387v-49z" />
    <glyph glyph-name="degree" unicode="&#xb0;" horiz-adv-x="762" 
d="M242.5 940.5q-63.5 37.5 -101 101.5t-37.5 138q0 75 37.5 138.5t101 101t138.5 37.5t138.5 -37.5t101 -101t37.5 -138.5q0 -74 -37.5 -138t-101 -101.5t-138.5 -37.5t-138.5 37.5zM495 983q53 31 84 83.5t31 113.5q0 62 -31 114.5t-83.5 83t-114.5 30.5t-114.5 -30.5
t-83 -83t-30.5 -114.5t30.5 -114t83 -83t114.5 -31q61 0 114 31z" />
    <glyph glyph-name="plusminus" unicode="&#xb1;" horiz-adv-x="1066" 
d="M557 232h-51v407h-402v49h402v399h51v-399h404v-49h-404v-407zM962 68h-858v52h858v-52z" />
    <glyph glyph-name="acute" unicode="&#xb4;" horiz-adv-x="422" 
d="M317 1468l-161 -244h-52l144 244h69z" />
    <glyph glyph-name="uni00B5" unicode="&#xb5;" horiz-adv-x="1166" 
d="M935 1019h55v-1019h-54v234q-27 -70 -87 -128.5t-144.5 -93.5t-178.5 -35q-103 0 -186.5 38.5t-136.5 112.5v-486h-55v599q-23 74 -23 164v614h55v-524h23v-243q36 -108 121 -164.5t207 -56.5q104 0 197 51t150 142t57 205v590z" />
    <glyph glyph-name="paragraph" unicode="&#xb6;" horiz-adv-x="1107" 
d="M1069 1315h-178v-1547h-55v1547h-231v-1547h-55v967h-177q-87 0 -156.5 38t-109 109t-39.5 168q0 96 40.5 167t111 109t158.5 38h691v-49z" />
    <glyph glyph-name="periodcentered" unicode="&#xb7;" horiz-adv-x="337" 
d="M122.5 423.5q-18.5 18.5 -18.5 44.5q0 27 18.5 45.5t45.5 18.5t46 -18.5t19 -45.5q0 -26 -19.5 -44.5t-45.5 -18.5q-27 0 -45.5 18.5z" />
    <glyph glyph-name="cedilla" unicode="&#xb8;" horiz-adv-x="382" 
d="M208 6q28 -40 49 -91t21 -88q0 -104 -165 -124l-9 44q74 10 98 31.5t24 55.5q0 32 -17.5 74t-50.5 98h50z" />
    <glyph glyph-name="ordmasculine" unicode="&#xba;" horiz-adv-x="1229" 
d="M349 46.5q-122 70.5 -193 192.5t-71 268q0 147 71 269t193 193t266 71t265.5 -71t192.5 -193t71 -269q0 -146 -71 -267.5t-192.5 -192.5t-265.5 -71t-266 70.5zM853.5 93q108.5 63 172.5 172.5t64 241.5t-64 242t-172.5 173.5t-237.5 63.5q-130 0 -239.5 -63.5
t-173.5 -173t-64 -242.5q0 -132 64 -241.5t173.5 -172.5t239.5 -63q129 0 237.5 63z" />
    <glyph glyph-name="guillemotright" unicode="&#xbb;" horiz-adv-x="853" 
d="M435 439l-352 -386l-41 37l320 349l-322 349l43 37zM823 439l-352 -386l-41 37l319 349l-321 349l43 37z" />
    <glyph glyph-name="questiondown" unicode="&#xbf;" horiz-adv-x="935" 
d="M573.5 1027q18.5 -17 18.5 -42t-18.5 -42t-46.5 -17q-26 0 -45.5 17t-19.5 42t19.5 42t45.5 17q28 0 46.5 -17zM560 615q0 -86 -59 -161.5t-160 -156.5q-86 -70 -133.5 -132.5t-47.5 -135.5q0 -88 42.5 -151.5t121.5 -96.5t187 -33q161 0 254.5 74t93.5 209h56
q0 -99 -49 -175t-141 -118t-215 -42q-124 0 -216 42t-141 118t-49 174q0 69 34 127.5t80.5 101.5t126.5 107q161 129 161 255v61h54v-67z" />
    <glyph glyph-name="Agrave" unicode="&#xc0;" horiz-adv-x="1256" 
d="M1236 0h-61l-163 399h-770l-163 -399h-59l578 1405h59zM623 1334l-359 -881h726l-359 881l-4 10zM685 1500h-56l-189 185h79z" />
    <glyph glyph-name="Aacute" unicode="&#xc1;" horiz-adv-x="1256" 
d="M1236 0h-61l-163 399h-770l-163 -399h-59l578 1405h59zM623 1334l-359 -881h726l-359 881l-4 10zM791 1685l-188 -185h-57l167 185h78z" />
    <glyph glyph-name="Acircumflex" unicode="&#xc2;" horiz-adv-x="1256" 
d="M1236 0h-61l-163 399h-770l-163 -399h-59l578 1405h59zM623 1334l-359 -881h726l-359 881l-4 10zM626 1627l-174 -136l-31 38l195 152h22l194 -152l-31 -38z" />
    <glyph glyph-name="Atilde" unicode="&#xc3;" horiz-adv-x="1256" 
d="M1236 0h-61l-163 399h-770l-163 -399h-59l578 1405h59zM623 1334l-359 -881h726l-359 881l-4 10zM398 1523q27 58 63 87.5t75 29.5q27 0 52 -11.5t60 -33.5q33 -20 53 -29t39 -9q28 0 47 18t46 66l43 -18q-28 -58 -63.5 -87.5t-73.5 -29.5q-27 0 -52 11t-62 34
q-29 19 -49.5 28.5t-40.5 9.5q-28 0 -48 -18.5t-46 -65.5z" />
    <glyph glyph-name="Adieresis" unicode="&#xc4;" horiz-adv-x="1256" 
d="M1236 0h-61l-163 399h-770l-163 -399h-59l578 1405h59zM623 1334l-359 -881h726l-359 881l-4 10zM435 1516.5q-15 15.5 -15 39.5q0 22 15 37t39 15q23 0 38.5 -15t15.5 -37q0 -23 -15.5 -39t-38.5 -16q-24 0 -39 15.5zM741.5 1517q-15.5 16 -15.5 39q0 22 15.5 37
t37.5 15q23 0 39 -15t16 -37q0 -23 -16 -39t-39 -16q-22 0 -37.5 16z" />
    <glyph glyph-name="Aring" unicode="&#xc5;" horiz-adv-x="1256" 
d="M1236 0h-61l-163 399h-770l-163 -399h-59l578 1405h59zM623 1334l-359 -881h726l-359 881l-4 10zM546 1527.5q-34 33.5 -34 86.5t34 86.5t87 33.5q54 0 88 -33.5t34 -86.5t-34 -86.5t-88 -33.5q-53 0 -87 33.5zM691 1557.5q22 22.5 22 57.5q0 34 -22 56t-58 22
q-35 0 -57 -22t-22 -56q0 -35 22 -57.5t57 -22.5q36 0 58 22.5z" />
    <glyph glyph-name="AE" unicode="&#xc6;" horiz-adv-x="2216" 
d="M1195 704v-650h917v-54h-973v400h-736l-314 -400h-69l1106 1405h972v-54h-903v-594h748v-53h-748zM1139 1337l-694 -883h694v883z" />
    <glyph glyph-name="Ccedilla" unicode="&#xc7;" horiz-adv-x="1383" 
d="M1300 163q-95 -81 -209 -130t-244 -54q31 -51 52 -107.5t21 -100.5q0 -51 -43 -85.5t-127 -44.5l-10 45q74 10 100.5 34t26.5 58q0 39 -18 88t-53 113q-191 7 -349.5 104t-250.5 259.5t-92 358.5q0 201 96 367t261 262t362 96q138 0 258.5 -47.5t218.5 -131.5l-34 -40
q-93 78 -206 121t-237 43q-181 0 -333 -88.5t-240.5 -242t-88.5 -339.5q0 -185 88.5 -338t240.5 -241t333 -88q123 0 234.5 45t208.5 125z" />
    <glyph glyph-name="Egrave" unicode="&#xc8;" horiz-adv-x="1286" 
d="M1182 0h-973v1405h959v-54h-903v-594h748v-53h-748v-650h917v-54zM730 1500h-56l-189 185h79z" />
    <glyph glyph-name="Eacute" unicode="&#xc9;" horiz-adv-x="1286" 
d="M1182 0h-973v1405h959v-54h-903v-594h748v-53h-748v-650h917v-54zM835 1685l-188 -185h-57l167 185h78z" />
    <glyph glyph-name="Ecircumflex" unicode="&#xca;" horiz-adv-x="1286" 
d="M1182 0h-973v1405h959v-54h-903v-594h748v-53h-748v-650h917v-54zM670 1627l-174 -136l-31 38l195 152h22l194 -152l-31 -38z" />
    <glyph glyph-name="Edieresis" unicode="&#xcb;" horiz-adv-x="1286" 
d="M1182 0h-973v1405h959v-54h-903v-594h748v-53h-748v-650h917v-54zM479 1516.5q-15 15.5 -15 39.5q0 22 15 37t39 15q23 0 38.5 -15t15.5 -37q0 -23 -15.5 -39t-38.5 -16q-24 0 -39 15.5zM785.5 1517q-15.5 16 -15.5 39q0 22 15.5 37t37.5 15q23 0 39 -15t16 -37
q0 -23 -16 -39t-39 -16q-22 0 -37.5 16z" />
    <glyph glyph-name="Igrave" unicode="&#xcc;" horiz-adv-x="473" 
d="M265 0h-56v1405h56v-1405zM294 1500h-56l-189 185h79z" />
    <glyph glyph-name="Iacute" unicode="&#xcd;" horiz-adv-x="473" 
d="M265 0h-56v1405h56v-1405zM400 1685l-188 -185h-57l167 185h78z" />
    <glyph glyph-name="Icircumflex" unicode="&#xce;" horiz-adv-x="473" 
d="M265 0h-56v1405h56v-1405zM235 1627l-174 -136l-31 38l195 152h22l194 -152l-31 -38z" />
    <glyph glyph-name="Idieresis" unicode="&#xcf;" horiz-adv-x="473" 
d="M265 0h-56v1405h56v-1405zM44 1516.5q-15 15.5 -15 39.5q0 22 15 37t39 15q23 0 38.5 -15t15.5 -37q0 -23 -15.5 -39t-38.5 -16q-24 0 -39 15.5zM350.5 1517q-15.5 16 -15.5 39q0 22 15.5 37t37.5 15q23 0 39 -15t16 -37q0 -23 -16 -39t-39 -16q-22 0 -37.5 16z" />
    <glyph glyph-name="Eth" unicode="&#xd0;" horiz-adv-x="1484" 
d="M663 1405q196 0 360.5 -94t260.5 -255.5t96 -355.5q0 -192 -95.5 -352.5t-259 -254t-358.5 -93.5h-458v678h-169v53h169v674h454zM666 54q180 0 331 86.5t239 234.5t88 325q0 179 -88.5 328t-241 235.5t-334.5 86.5h-395v-619h338v-53h-338v-624h401z" />
    <glyph glyph-name="Ntilde" unicode="&#xd1;" horiz-adv-x="1560" 
d="M265 0h-56v1405h46l1040 -1306v1306h56v-1405h-49l-1037 1304v-1304zM529 1523q27 58 63 87.5t75 29.5q27 0 52 -11.5t60 -33.5q33 -20 53 -29t39 -9q28 0 47 18t46 66l43 -18q-28 -58 -63.5 -87.5t-73.5 -29.5q-27 0 -52 11t-62 34q-29 19 -49.5 28.5t-40.5 9.5
q-28 0 -48 -18.5t-46 -65.5z" />
    <glyph glyph-name="Ograve" unicode="&#xd2;" horiz-adv-x="1646" 
d="M461 74.5q-165 95.5 -261 261t-96 365.5q0 201 96 367t261 262t362 96q198 0 362.5 -96t260.5 -262t96 -367q0 -200 -96 -365.5t-260.5 -261t-362.5 -95.5q-197 0 -362 95.5zM1156 122q152 88 240.5 241t88.5 338q0 186 -88.5 339.5t-240.5 242t-333 88.5t-333 -88.5
t-240.5 -242t-88.5 -339.5q0 -185 88.5 -338t240.5 -241t333 -88t333 88zM881 1520h-56l-189 185h79z" />
    <glyph glyph-name="Oacute" unicode="&#xd3;" horiz-adv-x="1646" 
d="M461 74.5q-165 95.5 -261 261t-96 365.5q0 201 96 367t261 262t362 96q198 0 362.5 -96t260.5 -262t96 -367q0 -200 -96 -365.5t-260.5 -261t-362.5 -95.5q-197 0 -362 95.5zM1156 122q152 88 240.5 241t88.5 338q0 186 -88.5 339.5t-240.5 242t-333 88.5t-333 -88.5
t-240.5 -242t-88.5 -339.5q0 -185 88.5 -338t240.5 -241t333 -88t333 88zM987 1705l-188 -185h-57l167 185h78z" />
    <glyph glyph-name="Ocircumflex" unicode="&#xd4;" horiz-adv-x="1646" 
d="M461 74.5q-165 95.5 -261 261t-96 365.5q0 201 96 367t261 262t362 96q198 0 362.5 -96t260.5 -262t96 -367q0 -200 -96 -365.5t-260.5 -261t-362.5 -95.5q-197 0 -362 95.5zM1156 122q152 88 240.5 241t88.5 338q0 186 -88.5 339.5t-240.5 242t-333 88.5t-333 -88.5
t-240.5 -242t-88.5 -339.5q0 -185 88.5 -338t240.5 -241t333 -88t333 88zM822 1647l-174 -136l-31 38l195 152h22l194 -152l-31 -38z" />
    <glyph glyph-name="Otilde" unicode="&#xd5;" horiz-adv-x="1646" 
d="M461 74.5q-165 95.5 -261 261t-96 365.5q0 201 96 367t261 262t362 96q198 0 362.5 -96t260.5 -262t96 -367q0 -200 -96 -365.5t-260.5 -261t-362.5 -95.5q-197 0 -362 95.5zM1156 122q152 88 240.5 241t88.5 338q0 186 -88.5 339.5t-240.5 242t-333 88.5t-333 -88.5
t-240.5 -242t-88.5 -339.5q0 -185 88.5 -338t240.5 -241t333 -88t333 88zM593 1543q27 58 63 87.5t75 29.5q27 0 52 -11.5t60 -33.5q33 -20 53 -29t39 -9q28 0 47 18t46 66l43 -18q-28 -58 -63.5 -87.5t-73.5 -29.5q-27 0 -52 11t-62 34q-29 19 -49.5 28.5t-40.5 9.5
q-28 0 -48 -18.5t-46 -65.5z" />
    <glyph glyph-name="Odieresis" unicode="&#xd6;" horiz-adv-x="1646" 
d="M461 74.5q-165 95.5 -261 261t-96 365.5q0 201 96 367t261 262t362 96q198 0 362.5 -96t260.5 -262t96 -367q0 -200 -96 -365.5t-260.5 -261t-362.5 -95.5q-197 0 -362 95.5zM1156 122q152 88 240.5 241t88.5 338q0 186 -88.5 339.5t-240.5 242t-333 88.5t-333 -88.5
t-240.5 -242t-88.5 -339.5q0 -185 88.5 -338t240.5 -241t333 -88t333 88zM631 1536.5q-15 15.5 -15 39.5q0 22 15 37t39 15q23 0 38.5 -15t15.5 -37q0 -23 -15.5 -39t-38.5 -16q-24 0 -39 15.5zM937.5 1537q-15.5 16 -15.5 39q0 22 15.5 37t37.5 15q23 0 39 -15t16 -37
q0 -23 -16 -39t-39 -16q-22 0 -37.5 16z" />
    <glyph glyph-name="multiply" unicode="&#xd7;" horiz-adv-x="919" 
d="M462 611l-319 -317l-39 34l319 320l-316 318l38 36l317 -318l313 314l37 -35l-313 -316l315 -315l-38 -36z" />
    <glyph glyph-name="Oslash" unicode="&#xd8;" horiz-adv-x="1646" 
d="M1240 1296q140 -100 221 -255.5t81 -339.5q0 -200 -96 -365.5t-260.5 -261t-362.5 -95.5q-101 0 -195.5 26t-176.5 75l-105 -162h-67l125 193q-139 99 -219.5 253.5t-80.5 336.5q0 201 96 367t261 262t362 96q101 0 195 -26t176 -75l106 164h65zM234.5 391
q73.5 -142 200.5 -233l728 1120q-156 93 -340 93q-181 0 -333 -88.5t-240.5 -242t-88.5 -339.5q0 -168 73.5 -310zM1156 122q152 88 240.5 241t88.5 338q0 169 -74 312.5t-202 234.5l-727 -1121q75 -45 162 -69t179 -24q181 0 333 88z" />
    <glyph glyph-name="Ugrave" unicode="&#xd9;" horiz-adv-x="1453" 
d="M423.5 53q-126.5 77 -191.5 217.5t-65 328.5v808h55v-807q0 -172 58 -300t172 -198.5t276 -70.5q161 0 274 70t170.5 198t57.5 301v807h56v-808q0 -188 -65 -328.5t-190.5 -217.5t-302.5 -77q-178 0 -304.5 77zM766 1500h-56l-189 185h79z" />
    <glyph glyph-name="Uacute" unicode="&#xda;" horiz-adv-x="1453" 
d="M423.5 53q-126.5 77 -191.5 217.5t-65 328.5v808h55v-807q0 -172 58 -300t172 -198.5t276 -70.5q161 0 274 70t170.5 198t57.5 301v807h56v-808q0 -188 -65 -328.5t-190.5 -217.5t-302.5 -77q-178 0 -304.5 77zM872 1685l-188 -185h-57l167 185h78z" />
    <glyph glyph-name="Ucircumflex" unicode="&#xdb;" horiz-adv-x="1453" 
d="M423.5 53q-126.5 77 -191.5 217.5t-65 328.5v808h55v-807q0 -172 58 -300t172 -198.5t276 -70.5q161 0 274 70t170.5 198t57.5 301v807h56v-808q0 -188 -65 -328.5t-190.5 -217.5t-302.5 -77q-178 0 -304.5 77zM707 1627l-174 -136l-31 38l195 152h22l194 -152l-31 -38z
" />
    <glyph glyph-name="Udieresis" unicode="&#xdc;" horiz-adv-x="1453" 
d="M423.5 53q-126.5 77 -191.5 217.5t-65 328.5v808h55v-807q0 -172 58 -300t172 -198.5t276 -70.5q161 0 274 70t170.5 198t57.5 301v807h56v-808q0 -188 -65 -328.5t-190.5 -217.5t-302.5 -77q-178 0 -304.5 77zM516 1516.5q-15 15.5 -15 39.5q0 22 15 37t39 15
q23 0 38.5 -15t15.5 -37q0 -23 -15.5 -39t-38.5 -16q-24 0 -39 15.5zM822.5 1517q-15.5 16 -15.5 39q0 22 15.5 37t37.5 15q23 0 39 -15t16 -37q0 -23 -16 -39t-39 -16q-22 0 -37.5 16z" />
    <glyph glyph-name="Yacute" unicode="&#xdd;" horiz-adv-x="1054" 
d="M555 0h-55v629l-480 776h66l442 -720l440 720h66l-479 -776v-629zM692 1685l-188 -185h-57l167 185h78z" />
    <glyph glyph-name="Thorn" unicode="&#xde;" horiz-adv-x="1162" 
d="M609 1140q123 0 226 -56t162.5 -154.5t59.5 -220.5q0 -124 -59 -222t-161 -153t-226 -55h-346v-279h-56v1405h56v-265h344zM609 334q109 0 199 48t142 133.5t52 192.5t-52.5 193t-143 135t-199.5 49h-342v-751h344z" />
    <glyph glyph-name="germandbls" unicode="&#xdf;" horiz-adv-x="1188" 
d="M166 1121q0 106 51 195.5t146.5 142.5t223.5 53q124 0 220 -50t149.5 -138t53.5 -198q0 -86 -33.5 -152.5t-89 -109t-122.5 -60.5q94 -20 171 -72.5t122.5 -135t45.5 -187.5q0 -120 -60.5 -213t-168 -144.5t-242.5 -51.5h-165v54h166q115 0 210 43t150 124t55 189
q0 104 -53 186t-146.5 128.5t-209.5 46.5h-30v53h27q73 0 147 32.5t123 100t49 166.5q0 94 -46 171t-130 121t-192 44q-107 0 -190.5 -44.5t-130 -122.5t-46.5 -175v-1117h-55v1121z" />
    <glyph glyph-name="agrave" unicode="&#xe0;" horiz-adv-x="1266" 
d="M1045 1019h55v-1019h-55v217l4 75q-39 -94 -108 -165t-159.5 -110.5t-191.5 -39.5q-136 0 -252 70.5t-184.5 192t-68.5 268.5t68.5 269t184 193t251.5 71q101 0 191 -39.5t159 -110.5t108 -164l-2 64v228zM818.5 94q104.5 63 166 172t61.5 242q0 132 -61.5 241.5
t-166.5 173t-228 63.5q-122 0 -225.5 -63.5t-164.5 -173t-61 -241.5q0 -133 61 -242t165 -172t226 -63q123 0 227.5 63zM704 1223h-51l-162 244h70z" />
    <glyph glyph-name="aacute" unicode="&#xe1;" horiz-adv-x="1266" 
d="M1045 1019h55v-1019h-55v217l4 75q-39 -94 -108 -165t-159.5 -110.5t-191.5 -39.5q-136 0 -252 70.5t-184.5 192t-68.5 268.5t68.5 269t184 193t251.5 71q101 0 191 -39.5t159 -110.5t108 -164l-2 64v228zM818.5 94q104.5 63 166 172t61.5 242q0 132 -61.5 241.5
t-166.5 173t-228 63.5q-122 0 -225.5 -63.5t-164.5 -173t-61 -241.5q0 -133 61 -242t165 -172t226 -63q123 0 227.5 63zM810 1467l-161 -244h-52l144 244h69z" />
    <glyph glyph-name="acircumflex" unicode="&#xe2;" horiz-adv-x="1266" 
d="M1045 1019h55v-1019h-55v217l4 75q-39 -94 -108 -165t-159.5 -110.5t-191.5 -39.5q-136 0 -252 70.5t-184.5 192t-68.5 268.5t68.5 269t184 193t251.5 71q101 0 191 -39.5t159 -110.5t108 -164l-2 64v228zM818.5 94q104.5 63 166 172t61.5 242q0 132 -61.5 241.5
t-166.5 173t-228 63.5q-122 0 -225.5 -63.5t-164.5 -173t-61 -241.5q0 -133 61 -242t165 -172t226 -63q123 0 227.5 63zM616 1377l-193 -163l-33 34l214 184h25l215 -184l-34 -34z" />
    <glyph glyph-name="atilde" unicode="&#xe3;" horiz-adv-x="1266" 
d="M1045 1019h55v-1019h-55v217l4 75q-39 -94 -108 -165t-159.5 -110.5t-191.5 -39.5q-136 0 -252 70.5t-184.5 192t-68.5 268.5t68.5 269t184 193t251.5 71q101 0 191 -39.5t159 -110.5t108 -164l-2 64v228zM818.5 94q104.5 63 166 172t61.5 242q0 132 -61.5 241.5
t-166.5 173t-228 63.5q-122 0 -225.5 -63.5t-164.5 -173t-61 -241.5q0 -133 61 -242t165 -172t226 -63q123 0 227.5 63zM378 1240q27 58 63 87.5t75 29.5q27 0 52 -11.5t60 -33.5q33 -20 53 -29t39 -9q28 0 47 18t46 66l43 -18q-28 -58 -63.5 -87.5t-73.5 -29.5
q-27 0 -52 11t-62 34q-29 19 -49.5 28.5t-40.5 9.5q-28 0 -48 -18.5t-46 -65.5z" />
    <glyph glyph-name="adieresis" unicode="&#xe4;" horiz-adv-x="1266" 
d="M1045 1019h55v-1019h-55v217l4 75q-39 -94 -108 -165t-159.5 -110.5t-191.5 -39.5q-136 0 -252 70.5t-184.5 192t-68.5 268.5t68.5 269t184 193t251.5 71q101 0 191 -39.5t159 -110.5t108 -164l-2 64v228zM818.5 94q104.5 63 166 172t61.5 242q0 132 -61.5 241.5
t-166.5 173t-228 63.5q-122 0 -225.5 -63.5t-164.5 -173t-61 -241.5q0 -133 61 -242t165 -172t226 -63q123 0 227.5 63zM425 1237.5q-15 15.5 -15 39.5q0 22 15 37t39 15q23 0 38.5 -15t15.5 -37q0 -23 -15.5 -39t-38.5 -16q-24 0 -39 15.5zM731.5 1238q-15.5 16 -15.5 39
q0 22 15.5 37t37.5 15q23 0 39 -15t16 -37q0 -23 -16 -39t-39 -16q-22 0 -37.5 16z" />
    <glyph glyph-name="aring" unicode="&#xe5;" horiz-adv-x="1266" 
d="M1045 1019h55v-1019h-55v217l4 75q-39 -94 -108 -165t-159.5 -110.5t-191.5 -39.5q-136 0 -252 70.5t-184.5 192t-68.5 268.5t68.5 269t184 193t251.5 71q101 0 191 -39.5t159 -110.5t108 -164l-2 64v228zM818.5 94q104.5 63 166 172t61.5 242q0 132 -61.5 241.5
t-166.5 173t-228 63.5q-122 0 -225.5 -63.5t-164.5 -173t-61 -241.5q0 -133 61 -242t165 -172t226 -63q123 0 227.5 63zM528 1251q-34 34 -34 87t34 87t88 34t88 -34t34 -87t-34 -87t-88 -34t-88 34zM674 1281q22 22 22 57t-22 57t-58 22t-57.5 -22t-21.5 -57t21.5 -57
t57.5 -22t58 22z" />
    <glyph glyph-name="ae" unicode="&#xe6;" horiz-adv-x="2098" 
d="M1793 971.5q107 -68.5 164 -189.5t57 -274q0 -15 -1 -23h-896q5 -129 66.5 -233t164 -163t226.5 -59q105 0 193 37.5t155 104.5l34 -38q-74 -75 -171 -116t-212 -41q-105 0 -198 39.5t-162.5 111.5t-108.5 166v-294h-54l-1 286q-39 -92 -108.5 -162t-159.5 -108.5
t-190 -38.5q-136 0 -252.5 70.5t-185 192t-68.5 267.5q0 147 69 269t185.5 193t252.5 71q99 0 189 -39t159.5 -110t108.5 -163l1 291h54v-288q36 93 100 162.5t150.5 108t186.5 38.5q145 0 252 -68.5zM820.5 93q104.5 63 166.5 172.5t62 241.5t-62 242t-167 174t-227 64
t-226.5 -64t-166 -174t-61.5 -242q0 -133 61.5 -242t166 -172t227.5 -63q122 0 226.5 63zM1329.5 928.5q-94.5 -58.5 -150 -161t-61.5 -229.5h841q-6 131 -57 232.5t-143.5 159t-216.5 57.5q-118 0 -212.5 -58.5z" />
    <glyph glyph-name="ccedilla" unicode="&#xe7;" horiz-adv-x="1051" 
d="M801.5 67q87.5 37 154.5 105l34 -38q-66 -68 -153 -109t-185 -48q23 -39 39 -81t16 -74q0 -104 -165 -124l-9 44q74 10 98 31.5t24 55.5q0 54 -54 147q-141 3 -259 74t-187.5 192t-69.5 265q0 147 71 269t192 193t264 71q112 0 208.5 -41t169.5 -116l-35 -38
q-67 68 -154 105t-188 37q-128 0 -237 -63.5t-173 -174t-64 -242.5t64 -241.5t173 -172.5t237 -63q101 0 188.5 37z" />
    <glyph glyph-name="egrave" unicode="&#xe8;" horiz-adv-x="1120" 
d="M815 971.5q107 -68.5 164 -189.5t57 -274q0 -15 -1 -23h-896q5 -129 66.5 -233t164 -163t226.5 -59q105 0 193 37.5t155 104.5l34 -38q-74 -75 -171 -116t-212 -41q-141 0 -258 70t-184.5 191.5t-67.5 268.5q0 148 61.5 270t170.5 192.5t246 70.5q145 0 252 -68.5z
M351.5 928.5q-94.5 -58.5 -150 -161t-61.5 -229.5h841q-6 131 -57 232.5t-143.5 159t-216.5 57.5q-118 0 -212.5 -58.5zM649 1224h-51l-162 244h70z" />
    <glyph glyph-name="eacute" unicode="&#xe9;" horiz-adv-x="1120" 
d="M815 971.5q107 -68.5 164 -189.5t57 -274q0 -15 -1 -23h-896q5 -129 66.5 -233t164 -163t226.5 -59q105 0 193 37.5t155 104.5l34 -38q-74 -75 -171 -116t-212 -41q-141 0 -258 70t-184.5 191.5t-67.5 268.5q0 148 61.5 270t170.5 192.5t246 70.5q145 0 252 -68.5z
M351.5 928.5q-94.5 -58.5 -150 -161t-61.5 -229.5h841q-6 131 -57 232.5t-143.5 159t-216.5 57.5q-118 0 -212.5 -58.5zM754 1468l-161 -244h-52l144 244h69z" />
    <glyph glyph-name="ecircumflex" unicode="&#xea;" horiz-adv-x="1120" 
d="M815 971.5q107 -68.5 164 -189.5t57 -274q0 -15 -1 -23h-896q5 -129 66.5 -233t164 -163t226.5 -59q105 0 193 37.5t155 104.5l34 -38q-74 -75 -171 -116t-212 -41q-141 0 -258 70t-184.5 191.5t-67.5 268.5q0 148 61.5 270t170.5 192.5t246 70.5q145 0 252 -68.5z
M351.5 928.5q-94.5 -58.5 -150 -161t-61.5 -229.5h841q-6 131 -57 232.5t-143.5 159t-216.5 57.5q-118 0 -212.5 -58.5zM561 1378l-193 -163l-33 34l214 184h25l215 -184l-34 -34z" />
    <glyph glyph-name="edieresis" unicode="&#xeb;" horiz-adv-x="1120" 
d="M815 971.5q107 -68.5 164 -189.5t57 -274q0 -15 -1 -23h-896q5 -129 66.5 -233t164 -163t226.5 -59q105 0 193 37.5t155 104.5l34 -38q-74 -75 -171 -116t-212 -41q-141 0 -258 70t-184.5 191.5t-67.5 268.5q0 148 61.5 270t170.5 192.5t246 70.5q145 0 252 -68.5z
M351.5 928.5q-94.5 -58.5 -150 -161t-61.5 -229.5h841q-6 131 -57 232.5t-143.5 159t-216.5 57.5q-118 0 -212.5 -58.5zM369 1238.5q-15 15.5 -15 39.5q0 22 15 37t39 15q23 0 38.5 -15t15.5 -37q0 -23 -15.5 -39t-38.5 -16q-24 0 -39 15.5zM675.5 1239q-15.5 16 -15.5 39
q0 22 15.5 37t37.5 15q23 0 39 -15t16 -37q0 -23 -16 -39t-39 -16q-22 0 -37.5 16z" />
    <glyph glyph-name="igrave" unicode="&#xec;" horiz-adv-x="387" 
d="M221 0h-55v1019h55v-1019zM280 1224h-51l-162 244h70z" />
    <glyph glyph-name="iacute" unicode="&#xed;" horiz-adv-x="387" 
d="M221 0h-55v1019h55v-1019zM386 1468l-161 -244h-52l144 244h69z" />
    <glyph glyph-name="icircumflex" unicode="&#xee;" horiz-adv-x="387" 
d="M221 0h-55v1019h55v-1019zM192 1378l-193 -163l-33 34l214 184h25l215 -184l-34 -34z" />
    <glyph glyph-name="idieresis" unicode="&#xef;" horiz-adv-x="387" 
d="M221 0h-55v1019h55v-1019zM1 1238.5q-15 15.5 -15 39.5q0 22 15 37t39 15q23 0 38.5 -15t15.5 -37q0 -23 -15.5 -39t-38.5 -16q-24 0 -39 15.5zM307.5 1239q-15.5 16 -15.5 39q0 22 15.5 37t37.5 15q23 0 39 -15t16 -37q0 -23 -16 -39t-39 -16q-22 0 -37.5 16z" />
    <glyph glyph-name="eth" unicode="&#xf0;" horiz-adv-x="1129" 
d="M765 1313q279 -331 279 -770q0 -169 -60 -297.5t-166.5 -199t-241.5 -70.5q-134 0 -246.5 64.5t-178.5 176t-66 244.5t65.5 244t176.5 175.5t242 64.5q118 0 213.5 -41.5t181.5 -113.5q-58 274 -246 495l-170 -102l-26 39l165 97q-71 79 -161 151l42 34q95 -78 166 -157
l178 105l22 -38zM790.5 93.5q93.5 62.5 146 178t52.5 270.5q0 96 -13 180q-89 76 -184 123.5t-221 47.5q-117 0 -216 -57.5t-157 -156.5t-58 -218q0 -120 58.5 -218.5t158.5 -155t219 -56.5q121 0 214.5 62.5z" />
    <glyph glyph-name="ntilde" unicode="&#xf1;" horiz-adv-x="1156" 
d="M838.5 992.5q90.5 -49.5 141.5 -146t51 -232.5v-614h-55v610q0 122 -43.5 207t-122.5 128t-185 43q-104 0 -197 -51t-150 -142t-57 -205v-590h-55v1019h54v-234q27 70 87 128.5t144.5 93.5t178.5 35q118 0 208.5 -49.5zM368 1247q27 58 63 87.5t75 29.5q27 0 52 -11.5
t60 -33.5q33 -20 53 -29t39 -9q28 0 47 18t46 66l43 -18q-28 -58 -63.5 -87.5t-73.5 -29.5q-27 0 -52 11t-62 34q-29 19 -49.5 28.5t-40.5 9.5q-28 0 -48 -18.5t-46 -65.5z" />
    <glyph glyph-name="ograve" unicode="&#xf2;" horiz-adv-x="1229" 
d="M349 46.5q-122 70.5 -193 192.5t-71 268q0 147 71 269t193 193t266 71t265.5 -71t192.5 -193t71 -269q0 -146 -71 -267.5t-192.5 -192.5t-265.5 -71t-266 70.5zM853.5 93q108.5 63 172.5 172.5t64 241.5t-64 242t-172.5 173.5t-237.5 63.5q-130 0 -239.5 -63.5
t-173.5 -173t-64 -242.5q0 -132 64 -241.5t173.5 -172.5t239.5 -63q129 0 237.5 63zM696 1225h-51l-162 244h70z" />
    <glyph glyph-name="oacute" unicode="&#xf3;" horiz-adv-x="1229" 
d="M349 46.5q-122 70.5 -193 192.5t-71 268q0 147 71 269t193 193t266 71t265.5 -71t192.5 -193t71 -269q0 -146 -71 -267.5t-192.5 -192.5t-265.5 -71t-266 70.5zM853.5 93q108.5 63 172.5 172.5t64 241.5t-64 242t-172.5 173.5t-237.5 63.5q-130 0 -239.5 -63.5
t-173.5 -173t-64 -242.5q0 -132 64 -241.5t173.5 -172.5t239.5 -63q129 0 237.5 63zM802 1469l-161 -244h-52l144 244h69z" />
    <glyph glyph-name="ocircumflex" unicode="&#xf4;" horiz-adv-x="1229" 
d="M349 46.5q-122 70.5 -193 192.5t-71 268q0 147 71 269t193 193t266 71t265.5 -71t192.5 -193t71 -269q0 -146 -71 -267.5t-192.5 -192.5t-265.5 -71t-266 70.5zM853.5 93q108.5 63 172.5 172.5t64 241.5t-64 242t-172.5 173.5t-237.5 63.5q-130 0 -239.5 -63.5
t-173.5 -173t-64 -242.5q0 -132 64 -241.5t173.5 -172.5t239.5 -63q129 0 237.5 63zM608 1379l-193 -163l-33 34l214 184h25l215 -184l-34 -34z" />
    <glyph glyph-name="otilde" unicode="&#xf5;" horiz-adv-x="1229" 
d="M349 46.5q-122 70.5 -193 192.5t-71 268q0 147 71 269t193 193t266 71t265.5 -71t192.5 -193t71 -269q0 -146 -71 -267.5t-192.5 -192.5t-265.5 -71t-266 70.5zM853.5 93q108.5 63 172.5 172.5t64 241.5t-64 242t-172.5 173.5t-237.5 63.5q-130 0 -239.5 -63.5
t-173.5 -173t-64 -242.5q0 -132 64 -241.5t173.5 -172.5t239.5 -63q129 0 237.5 63zM370 1242q27 58 63 87.5t75 29.5q27 0 52 -11.5t60 -33.5q33 -20 53 -29t39 -9q28 0 47 18t46 66l43 -18q-28 -58 -63.5 -87.5t-73.5 -29.5q-27 0 -52 11t-62 34q-29 19 -49.5 28.5
t-40.5 9.5q-28 0 -48 -18.5t-46 -65.5z" />
    <glyph glyph-name="odieresis" unicode="&#xf6;" horiz-adv-x="1229" 
d="M349 46.5q-122 70.5 -193 192.5t-71 268q0 147 71 269t193 193t266 71t265.5 -71t192.5 -193t71 -269q0 -146 -71 -267.5t-192.5 -192.5t-265.5 -71t-266 70.5zM853.5 93q108.5 63 172.5 172.5t64 241.5t-64 242t-172.5 173.5t-237.5 63.5q-130 0 -239.5 -63.5
t-173.5 -173t-64 -242.5q0 -132 64 -241.5t173.5 -172.5t239.5 -63q129 0 237.5 63zM417 1239.5q-15 15.5 -15 39.5q0 22 15 37t39 15q23 0 38.5 -15t15.5 -37q0 -23 -15.5 -39t-38.5 -16q-24 0 -39 15.5zM723.5 1240q-15.5 16 -15.5 39q0 22 15.5 37t37.5 15q23 0 39 -15
t16 -37q0 -23 -16 -39t-39 -16q-22 0 -37.5 16z" />
    <glyph glyph-name="divide" unicode="&#xf7;" horiz-adv-x="1156" 
d="M538 1023q-17 16 -17 39q0 25 16.5 42.5t41.5 17.5t41.5 -17.5t16.5 -42.5q0 -23 -16.5 -39t-41.5 -16q-24 0 -41 16zM1051 653h-947v55h947v-55zM537.5 252q-16.5 16 -16.5 39q0 24 17 41.5t41 17.5t41 -17.5t17 -41.5q0 -23 -16.5 -39t-41.5 -16t-41.5 16z" />
    <glyph glyph-name="oslash" unicode="&#xf8;" horiz-adv-x="1229" 
d="M986 889q74 -74 116 -172.5t42 -209.5q0 -146 -71 -267.5t-192.5 -192.5t-265.5 -71q-95 0 -181 31t-156 88l-110 -123h-65l139 156q-74 74 -115.5 171.5t-41.5 207.5q0 147 71 269t193 193t266 71q93 0 179 -31t155 -87l110 124h67zM175.5 321q36.5 -87 102.5 -152
l635 713q-62 50 -138 77t-159 27q-130 0 -239.5 -63.5t-173.5 -173t-64 -242.5q0 -99 36.5 -186zM853.5 93q108.5 63 172.5 172.5t64 241.5q0 99 -37 187.5t-103 154.5l-636 -713q63 -51 140.5 -78.5t161.5 -27.5q129 0 237.5 63z" />
    <glyph glyph-name="ugrave" unicode="&#xf9;" horiz-adv-x="1156" 
d="M935 1019h55v-1019h-54v234q-27 -70 -87 -128.5t-144.5 -93.5t-178.5 -35q-118 0 -208.5 49.5t-141.5 146t-51 232.5v614h55v-610q0 -122 43.5 -207t122.5 -128t185 -43q104 0 197 51t150 142t57 205v590zM668 1224h-51l-162 244h70z" />
    <glyph glyph-name="uacute" unicode="&#xfa;" horiz-adv-x="1156" 
d="M935 1019h55v-1019h-54v234q-27 -70 -87 -128.5t-144.5 -93.5t-178.5 -35q-118 0 -208.5 49.5t-141.5 146t-51 232.5v614h55v-610q0 -122 43.5 -207t122.5 -128t185 -43q104 0 197 51t150 142t57 205v590zM774 1468l-161 -244h-52l144 244h69z" />
    <glyph glyph-name="ucircumflex" unicode="&#xfb;" horiz-adv-x="1156" 
d="M935 1019h55v-1019h-54v234q-27 -70 -87 -128.5t-144.5 -93.5t-178.5 -35q-118 0 -208.5 49.5t-141.5 146t-51 232.5v614h55v-610q0 -122 43.5 -207t122.5 -128t185 -43q104 0 197 51t150 142t57 205v590zM580 1378l-193 -163l-33 34l214 184h25l215 -184l-34 -34z" />
    <glyph glyph-name="udieresis" unicode="&#xfc;" horiz-adv-x="1156" 
d="M935 1019h55v-1019h-54v234q-27 -70 -87 -128.5t-144.5 -93.5t-178.5 -35q-118 0 -208.5 49.5t-141.5 146t-51 232.5v614h55v-610q0 -122 43.5 -207t122.5 -128t185 -43q104 0 197 51t150 142t57 205v590zM389 1238.5q-15 15.5 -15 39.5q0 22 15 37t39 15q23 0 38.5 -15
t15.5 -37q0 -23 -15.5 -39t-38.5 -16q-24 0 -39 15.5zM695.5 1239q-15.5 16 -15.5 39q0 22 15.5 37t37.5 15q23 0 39 -15t16 -37q0 -23 -16 -39t-39 -16q-22 0 -37.5 16z" />
    <glyph glyph-name="yacute" unicode="&#xfd;" horiz-adv-x="974" 
d="M366 -356h-59l150 355l-427 1020h59l398 -952l397 952h60zM677 1468l-161 -244h-52l144 244h69z" />
    <glyph glyph-name="thorn" unicode="&#xfe;" horiz-adv-x="1266" 
d="M928.5 970q115.5 -71 184 -193t68.5 -269t-68.5 -268.5t-184.5 -192t-252 -70.5q-100 0 -189.5 38.5t-157.5 107.5t-108 160v-638h-55v1848h55v-761q40 92 108.5 161.5t158 108.5t189.5 39q136 0 251.5 -71zM901 94q104 63 165 172t61 242q0 132 -61 241.5t-164.5 173
t-225.5 63.5q-123 0 -227.5 -63t-166 -171t-62.5 -239v-17q3 -130 65 -236.5t165.5 -167.5t224.5 -61q122 0 226 63z" />
    <glyph glyph-name="ydieresis" unicode="&#xff;" horiz-adv-x="974" 
d="M366 -356h-59l150 355l-427 1020h59l398 -952l397 952h60zM292 1238.5q-15 15.5 -15 39.5q0 22 15 37t39 15q23 0 38.5 -15t15.5 -37q0 -23 -15.5 -39t-38.5 -16q-24 0 -39 15.5zM598.5 1239q-15.5 16 -15.5 39q0 22 15.5 37t37.5 15q23 0 39 -15t16 -37q0 -23 -16 -39
t-39 -16q-22 0 -37.5 16z" />
    <glyph glyph-name="Amacron" unicode="&#x100;" horiz-adv-x="1256" 
d="M1236 0h-61l-163 399h-770l-163 -399h-59l578 1405h59zM623 1334l-359 -881h726l-359 881l-4 10zM820 1503h-387v49h387v-49z" />
    <glyph glyph-name="amacron" unicode="&#x101;" horiz-adv-x="1266" 
d="M1045 1019h55v-1019h-55v217l4 75q-39 -94 -108 -165t-159.5 -110.5t-191.5 -39.5q-136 0 -252 70.5t-184.5 192t-68.5 268.5t68.5 269t184 193t251.5 71q101 0 191 -39.5t159 -110.5t108 -164l-2 64v228zM818.5 94q104.5 63 166 172t61.5 242q0 132 -61.5 241.5
t-166.5 173t-228 63.5q-122 0 -225.5 -63.5t-164.5 -173t-61 -241.5q0 -133 61 -242t165 -172t226 -63q123 0 227.5 63zM810 1233h-387v49h387v-49z" />
    <glyph glyph-name="Abreve" unicode="&#x102;" horiz-adv-x="1256" 
d="M1236 0h-61l-163 399h-770l-163 -399h-59l578 1405h59zM623 1334l-359 -881h726l-359 881l-4 10zM523.5 1516.5q-43.5 25.5 -66.5 68t-25 93.5h50q-1 -58 35.5 -99t109.5 -41q74 0 110 40.5t35 99.5h50q-2 -51 -25 -93.5t-66.5 -68t-103.5 -25.5t-103.5 25.5z" />
    <glyph glyph-name="abreve" unicode="&#x103;" horiz-adv-x="1266" 
d="M1045 1019h55v-1019h-55v217l4 75q-39 -94 -108 -165t-159.5 -110.5t-191.5 -39.5q-136 0 -252 70.5t-184.5 192t-68.5 268.5t68.5 269t184 193t251.5 71q101 0 191 -39.5t159 -110.5t108 -164l-2 64v228zM818.5 94q104.5 63 166 172t61.5 242q0 132 -61.5 241.5
t-166.5 173t-228 63.5q-122 0 -225.5 -63.5t-164.5 -173t-61 -241.5q0 -133 61 -242t165 -172t226 -63q123 0 227.5 63zM508.5 1242.5q-47.5 26.5 -75 74t-28.5 108.5h50q-1 -73 42.5 -117.5t119.5 -44.5t120 44.5t43 117.5h49q-2 -62 -29 -109t-74.5 -73.5t-108.5 -26.5
t-108.5 26.5z" />
    <glyph glyph-name="Aogonek" unicode="&#x104;" horiz-adv-x="1256" 
d="M1236 0h-61l-163 399h-770l-163 -399h-59l578 1405h59zM623 1334l-359 -881h726l-359 881l-4 10zM1236 0q-132 -120 -132 -205q0 -35 21.5 -59.5t74.5 -24.5q22 0 55 6l2 -42q-33 -9 -67 -9q-68 0 -103 34.5t-35 85.5q0 50 36 103.5t94 110.5h54z" />
    <glyph glyph-name="aogonek" unicode="&#x105;" horiz-adv-x="1266" 
d="M1120 -308q-33 -9 -67 -9q-62 0 -97 33t-35 81q0 51 39 106t91 97h-6v217l4 75q-39 -94 -108 -165t-159.5 -110.5t-191.5 -39.5q-136 0 -252 70.5t-184.5 192t-68.5 268.5t68.5 269t184 193t251.5 71q101 0 191 -39.5t159 -110.5t108 -164l-2 64v228h55v-1019h-2
q-60 -50 -93.5 -101t-33.5 -93q0 -32 22 -55.5t69 -23.5q24 0 55 6zM818.5 94q104.5 63 166 172t61.5 242q0 132 -61.5 241.5t-166.5 173t-228 63.5q-122 0 -225.5 -63.5t-164.5 -173t-61 -241.5q0 -133 61 -242t165 -172t226 -63q123 0 227.5 63z" />
    <glyph glyph-name="Cacute" unicode="&#x106;" horiz-adv-x="1383" 
d="M461 74.5q-165 95.5 -261 261t-96 365.5q0 201 96 367t261 262t362 96q138 0 258.5 -47.5t218.5 -131.5l-34 -40q-93 78 -206 121t-237 43q-181 0 -333 -88.5t-240.5 -242t-88.5 -339.5q0 -185 88.5 -338t240.5 -241t333 -88q123 0 234.5 45t208.5 125l34 -41
q-100 -85 -220 -134.5t-257 -49.5q-197 0 -362 95.5zM983 1686l-188 -185h-57l167 185h78z" />
    <glyph glyph-name="cacute" unicode="&#x107;" horiz-adv-x="1051" 
d="M348 46.5q-121 70.5 -192 192.5t-71 268q0 147 71 269t192 193t264 71q112 0 208.5 -41t169.5 -116l-35 -38q-67 68 -154 105t-188 37q-128 0 -237 -63.5t-173 -174t-64 -242.5t64 -241.5t173 -172.5t237 -63q101 0 188.5 37t154.5 105l34 -38q-74 -75 -171 -116.5
t-207 -41.5q-143 0 -264 70.5zM787 1463l-161 -244h-52l144 244h69z" />
    <glyph glyph-name="Ccircumflex" unicode="&#x108;" horiz-adv-x="1383" 
d="M461 74.5q-165 95.5 -261 261t-96 365.5q0 201 96 367t261 262t362 96q138 0 258.5 -47.5t218.5 -131.5l-34 -40q-93 78 -206 121t-237 43q-181 0 -333 -88.5t-240.5 -242t-88.5 -339.5q0 -185 88.5 -338t240.5 -241t333 -88q123 0 234.5 45t208.5 125l34 -41
q-100 -85 -220 -134.5t-257 -49.5q-197 0 -362 95.5zM817 1628l-174 -136l-31 38l195 152h22l194 -152l-31 -38z" />
    <glyph glyph-name="ccircumflex" unicode="&#x109;" horiz-adv-x="1051" 
d="M348 46.5q-121 70.5 -192 192.5t-71 268q0 147 71 269t192 193t264 71q112 0 208.5 -41t169.5 -116l-35 -38q-67 68 -154 105t-188 37q-128 0 -237 -63.5t-173 -174t-64 -242.5t64 -241.5t173 -172.5t237 -63q101 0 188.5 37t154.5 105l34 -38q-74 -75 -171 -116.5
t-207 -41.5q-143 0 -264 70.5zM594 1373l-193 -163l-33 34l214 184h25l215 -184l-34 -34z" />
    <glyph glyph-name="Cdotaccent" unicode="&#x10a;" horiz-adv-x="1383" 
d="M461 74.5q-165 95.5 -261 261t-96 365.5q0 201 96 367t261 262t362 96q138 0 258.5 -47.5t218.5 -131.5l-34 -40q-93 78 -206 121t-237 43q-181 0 -333 -88.5t-240.5 -242t-88.5 -339.5q0 -185 88.5 -338t240.5 -241t333 -88q123 0 234.5 45t208.5 125l34 -41
q-100 -85 -220 -134.5t-257 -49.5q-197 0 -362 95.5zM777 1517q-17 17 -17 42t17 41.5t42 16.5q24 0 41 -16.5t17 -41.5t-17 -42t-41 -17q-25 0 -42 17z" />
    <glyph glyph-name="cdotaccent" unicode="&#x10b;" horiz-adv-x="1051" 
d="M348 46.5q-121 70.5 -192 192.5t-71 268q0 147 71 269t192 193t264 71q112 0 208.5 -41t169.5 -116l-35 -38q-67 68 -154 105t-188 37q-128 0 -237 -63.5t-173 -174t-64 -242.5t64 -241.5t173 -172.5t237 -63q101 0 188.5 37t154.5 105l34 -38q-74 -75 -171 -116.5
t-207 -41.5q-143 0 -264 70.5zM552 1230q-17 17 -17 42t17 41.5t42 16.5q24 0 41 -16.5t17 -41.5t-17 -42t-41 -17q-25 0 -42 17z" />
    <glyph glyph-name="Ccaron" unicode="&#x10c;" horiz-adv-x="1383" 
d="M461 74.5q-165 95.5 -261 261t-96 365.5q0 201 96 367t261 262t362 96q138 0 258.5 -47.5t218.5 -131.5l-34 -40q-93 78 -206 121t-237 43q-181 0 -333 -88.5t-240.5 -242t-88.5 -339.5q0 -185 88.5 -338t240.5 -241t333 -88q123 0 234.5 45t208.5 125l34 -41
q-100 -85 -220 -134.5t-257 -49.5q-197 0 -362 95.5zM613 1647l31 38l174 -136l175 136l31 -38l-194 -152h-22z" />
    <glyph glyph-name="ccaron" unicode="&#x10d;" horiz-adv-x="1051" 
d="M348 46.5q-121 70.5 -192 192.5t-71 268q0 147 71 269t192 193t264 71q112 0 208.5 -41t169.5 -116l-35 -38q-67 68 -154 105t-188 37q-128 0 -237 -63.5t-173 -174t-64 -242.5t64 -241.5t173 -172.5t237 -63q101 0 188.5 37t154.5 105l34 -38q-74 -75 -171 -116.5
t-207 -41.5q-143 0 -264 70.5zM368 1393l33 34l193 -163l194 163l34 -34l-215 -184h-25z" />
    <glyph glyph-name="Dcaron" unicode="&#x10e;" horiz-adv-x="1484" 
d="M209 0v1405h454q196 0 360.5 -94t260.5 -255.5t96 -355.5q0 -192 -95.5 -352.5t-259 -254t-358.5 -93.5h-458zM666 54q180 0 331 86.5t239 234.5t88 325q0 179 -88.5 328t-241 235.5t-334.5 86.5h-395v-1296h401zM384 1646l31 38l174 -136l175 136l31 -38l-194 -152h-22z
" />
    <glyph glyph-name="dcaron" unicode="&#x10f;" horiz-adv-x="1294" 
d="M1045 1493h55v-1493h-55v217l4 75q-39 -94 -108 -165t-159.5 -110.5t-191.5 -39.5q-136 0 -252 70.5t-184.5 192t-68.5 268.5t68.5 269t184 193t251.5 71q101 0 191 -39.5t159 -110.5t108 -164l-2 70v696zM818.5 94q104.5 63 166 172t61.5 242q0 132 -61.5 241.5
t-166.5 173t-228 63.5q-122 0 -225.5 -63.5t-164.5 -173t-61 -241.5q0 -133 61 -242t165 -172t226 -63q123 0 227.5 63zM1290 1188h-49l-2 304h52z" />
    <glyph glyph-name="Dcroat" unicode="&#x110;" horiz-adv-x="1484" 
d="M663 1405q196 0 360.5 -94t260.5 -255.5t96 -355.5q0 -192 -95.5 -352.5t-259 -254t-358.5 -93.5h-458v678h-169v53h169v674h454zM666 54q180 0 331 86.5t239 234.5t88 325q0 179 -88.5 328t-241 235.5t-334.5 86.5h-395v-619h338v-53h-338v-624h401z" />
    <glyph glyph-name="dcroat" unicode="&#x111;" horiz-adv-x="1266" 
d="M1289 1318v-53h-189v-1265h-55v217l4 75q-39 -94 -108 -165t-159.5 -110.5t-191.5 -39.5q-136 0 -252 70.5t-184.5 192t-68.5 268.5t68.5 269t184 193t251.5 71q101 0 191 -39.5t159 -110.5t108 -164l-2 70v468h-320v53h320v175h55v-175h189zM818.5 94q104.5 63 166 172
t61.5 242q0 132 -61.5 241.5t-166.5 173t-228 63.5q-122 0 -225.5 -63.5t-164.5 -173t-61 -241.5q0 -133 61 -242t165 -172t226 -63q123 0 227.5 63z" />
    <glyph glyph-name="Emacron" unicode="&#x112;" horiz-adv-x="1286" 
d="M1182 0h-973v1405h959v-54h-903v-594h748v-53h-748v-650h917v-54zM865 1503h-387v49h387v-49z" />
    <glyph glyph-name="emacron" unicode="&#x113;" horiz-adv-x="1120" 
d="M815 971.5q107 -68.5 164 -189.5t57 -274q0 -15 -1 -23h-896q5 -129 66.5 -233t164 -163t226.5 -59q105 0 193 37.5t155 104.5l34 -38q-74 -75 -171 -116t-212 -41q-141 0 -258 70t-184.5 191.5t-67.5 268.5q0 148 61.5 270t170.5 192.5t246 70.5q145 0 252 -68.5z
M351.5 928.5q-94.5 -58.5 -150 -161t-61.5 -229.5h841q-6 131 -57 232.5t-143.5 159t-216.5 57.5q-118 0 -212.5 -58.5zM755 1234h-387v49h387v-49z" />
    <glyph glyph-name="Ebreve" unicode="&#x114;" horiz-adv-x="1286" 
d="M1182 0h-973v1405h959v-54h-903v-594h748v-53h-748v-650h917v-54zM567.5 1516.5q-43.5 25.5 -66.5 68t-25 93.5h50q-1 -58 35.5 -99t109.5 -41q74 0 110 40.5t35 99.5h50q-2 -51 -25 -93.5t-66.5 -68t-103.5 -25.5t-103.5 25.5z" />
    <glyph glyph-name="ebreve" unicode="&#x115;" horiz-adv-x="1120" 
d="M815 971.5q107 -68.5 164 -189.5t57 -274q0 -15 -1 -23h-896q5 -129 66.5 -233t164 -163t226.5 -59q105 0 193 37.5t155 104.5l34 -38q-74 -75 -171 -116t-212 -41q-141 0 -258 70t-184.5 191.5t-67.5 268.5q0 148 61.5 270t170.5 192.5t246 70.5q145 0 252 -68.5z
M351.5 928.5q-94.5 -58.5 -150 -161t-61.5 -229.5h841q-6 131 -57 232.5t-143.5 159t-216.5 57.5q-118 0 -212.5 -58.5zM452.5 1243.5q-47.5 26.5 -75 74t-28.5 108.5h50q-1 -73 42.5 -117.5t119.5 -44.5t120 44.5t43 117.5h49q-2 -62 -29 -109t-74.5 -73.5t-108.5 -26.5
t-108.5 26.5z" />
    <glyph glyph-name="Edotaccent" unicode="&#x116;" horiz-adv-x="1286" 
d="M1182 0h-973v1405h959v-54h-903v-594h748v-53h-748v-650h917v-54zM630 1516q-17 17 -17 42t17 41.5t42 16.5q24 0 41 -16.5t17 -41.5t-17 -42t-41 -17q-25 0 -42 17z" />
    <glyph glyph-name="edotaccent" unicode="&#x117;" horiz-adv-x="1120" 
d="M815 971.5q107 -68.5 164 -189.5t57 -274q0 -15 -1 -23h-896q5 -129 66.5 -233t164 -163t226.5 -59q105 0 193 37.5t155 104.5l34 -38q-74 -75 -171 -116t-212 -41q-141 0 -258 70t-184.5 191.5t-67.5 268.5q0 148 61.5 270t170.5 192.5t246 70.5q145 0 252 -68.5z
M351.5 928.5q-94.5 -58.5 -150 -161t-61.5 -229.5h841q-6 131 -57 232.5t-143.5 159t-216.5 57.5q-118 0 -212.5 -58.5zM520 1235q-17 17 -17 42t17 41.5t42 16.5q24 0 41 -16.5t17 -41.5t-17 -42t-41 -17q-25 0 -42 17z" />
    <glyph glyph-name="Eogonek" unicode="&#x118;" horiz-adv-x="1286" 
d="M1182 0h-973v1405h959v-54h-903v-594h748v-53h-748v-650h917v-54zM1182 0q-132 -120 -132 -205q0 -35 21.5 -59.5t74.5 -24.5q22 0 55 6l2 -42q-33 -9 -67 -9q-68 0 -103 34.5t-35 85.5q0 50 36 103.5t94 110.5h54z" />
    <glyph glyph-name="eogonek" unicode="&#x119;" horiz-adv-x="1120" 
d="M815 971.5q107 -68.5 164 -189.5t57 -274q0 -15 -1 -23h-896q5 -129 66.5 -233t164 -163t226.5 -59q105 0 193 37.5t155 104.5l34 -38q-22 -22 -41 -37q-41 -42 -63.5 -82.5t-22.5 -74.5q0 -32 22 -55.5t69 -23.5q24 0 55 6l3 -41q-33 -9 -67 -9q-62 0 -97 33t-35 81
q0 47 35 100q-111 -54 -241 -54q-141 0 -258 70t-184.5 191.5t-67.5 268.5q0 148 61.5 270t170.5 192.5t246 70.5q145 0 252 -68.5zM351.5 928.5q-94.5 -58.5 -150 -161t-61.5 -229.5h841q-6 131 -57 232.5t-143.5 159t-216.5 57.5q-118 0 -212.5 -58.5z" />
    <glyph glyph-name="Ecaron" unicode="&#x11a;" horiz-adv-x="1286" 
d="M1182 0h-973v1405h959v-54h-903v-594h748v-53h-748v-650h917v-54zM466 1646l31 38l174 -136l175 136l31 -38l-194 -152h-22z" />
    <glyph glyph-name="ecaron" unicode="&#x11b;" horiz-adv-x="1120" 
d="M815 971.5q107 -68.5 164 -189.5t57 -274q0 -15 -1 -23h-896q5 -129 66.5 -233t164 -163t226.5 -59q105 0 193 37.5t155 104.5l34 -38q-74 -75 -171 -116t-212 -41q-141 0 -258 70t-184.5 191.5t-67.5 268.5q0 148 61.5 270t170.5 192.5t246 70.5q145 0 252 -68.5z
M351.5 928.5q-94.5 -58.5 -150 -161t-61.5 -229.5h841q-6 131 -57 232.5t-143.5 159t-216.5 57.5q-118 0 -212.5 -58.5zM335 1398l33 34l193 -163l194 163l34 -34l-215 -184h-25z" />
    <glyph glyph-name="Gcircumflex" unicode="&#x11c;" horiz-adv-x="1421" 
d="M1233 623h55v-485q-98 -76 -221 -118.5t-244 -42.5q-197 0 -362 96.5t-261 263.5t-96 367t96 366.5t261 263t362 96.5q131 0 253.5 -47.5t215.5 -131.5l-36 -41q-89 77 -200.5 121t-232.5 44q-181 0 -333 -89.5t-241 -243t-89 -338.5t89 -339t241 -243.5t333 -89.5
q102 0 216.5 36t193.5 95v460zM816 1627l-174 -136l-31 38l195 152h22l194 -152l-31 -38z" />
    <glyph glyph-name="gcircumflex" unicode="&#x11d;" horiz-adv-x="1266" 
d="M1045 1019h55v-862q0 -152 -51 -273.5t-157 -192.5t-265 -71q-95 0 -185.5 19.5t-152.5 49.5l21 49q57 -28 142 -46t172 -18q145 0 239 65.5t138 174.5t44 244v41l5 122q-39 -90 -108 -160t-160 -109t-193 -39q-136 0 -252 68t-184 186t-68 261q0 139 68.5 257
t184.5 187.5t252 69.5q101 0 191.5 -39t159.5 -109t108 -161l-4 70v216zM818 128q105 61 166.5 166t61.5 230q0 127 -61.5 233.5t-166 168.5t-227.5 62q-122 0 -225.5 -62t-165 -167.5t-61.5 -229.5q0 -129 61 -235t164.5 -166.5t225.5 -60.5q123 0 228 61zM606 1384
l-193 -163l-33 34l214 184h25l215 -184l-34 -34z" />
    <glyph glyph-name="Gbreve" unicode="&#x11e;" horiz-adv-x="1421" 
d="M1233 623h55v-485q-98 -76 -221 -118.5t-244 -42.5q-197 0 -362 96.5t-261 263.5t-96 367t96 366.5t261 263t362 96.5q131 0 253.5 -47.5t215.5 -131.5l-36 -41q-89 77 -200.5 121t-232.5 44q-181 0 -333 -89.5t-241 -243t-89 -338.5t89 -339t241 -243.5t333 -89.5
q102 0 216.5 36t193.5 95v460zM714.5 1516.5q-43.5 25.5 -66.5 68t-25 93.5h50q-1 -58 35.5 -99t109.5 -41q74 0 110 40.5t35 99.5h50q-2 -51 -25 -93.5t-66.5 -68t-103.5 -25.5t-103.5 25.5z" />
    <glyph glyph-name="gbreve" unicode="&#x11f;" horiz-adv-x="1266" 
d="M1045 1019h55v-862q0 -152 -51 -273.5t-157 -192.5t-265 -71q-95 0 -185.5 19.5t-152.5 49.5l21 49q57 -28 142 -46t172 -18q145 0 239 65.5t138 174.5t44 244v41l5 122q-39 -90 -108 -160t-160 -109t-193 -39q-136 0 -252 68t-184 186t-68 261q0 139 68.5 257
t184.5 187.5t252 69.5q101 0 191.5 -39t159.5 -109t108 -161l-4 70v216zM818 128q105 61 166.5 166t61.5 230q0 127 -61.5 233.5t-166 168.5t-227.5 62q-122 0 -225.5 -62t-165 -167.5t-61.5 -229.5q0 -129 61 -235t164.5 -166.5t225.5 -60.5q123 0 228 61zM497.5 1249.5
q-47.5 26.5 -75 74t-28.5 108.5h50q-1 -73 42.5 -117.5t119.5 -44.5t120 44.5t43 117.5h49q-2 -62 -29 -109t-74.5 -73.5t-108.5 -26.5t-108.5 26.5z" />
    <glyph glyph-name="Gdotaccent" unicode="&#x120;" horiz-adv-x="1421" 
d="M1233 623h55v-485q-98 -76 -221 -118.5t-244 -42.5q-197 0 -362 96.5t-261 263.5t-96 367t96 366.5t261 263t362 96.5q131 0 253.5 -47.5t215.5 -131.5l-36 -41q-89 77 -200.5 121t-232.5 44q-181 0 -333 -89.5t-241 -243t-89 -338.5t89 -339t241 -243.5t333 -89.5
q102 0 216.5 36t193.5 95v460zM776 1516q-17 17 -17 42t17 41.5t42 16.5q24 0 41 -16.5t17 -41.5t-17 -42t-41 -17q-25 0 -42 17z" />
    <glyph glyph-name="gdotaccent" unicode="&#x121;" horiz-adv-x="1266" 
d="M1045 1019h55v-862q0 -152 -51 -273.5t-157 -192.5t-265 -71q-95 0 -185.5 19.5t-152.5 49.5l21 49q57 -28 142 -46t172 -18q145 0 239 65.5t138 174.5t44 244v41l5 122q-39 -90 -108 -160t-160 -109t-193 -39q-136 0 -252 68t-184 186t-68 261q0 139 68.5 257
t184.5 187.5t252 69.5q101 0 191.5 -39t159.5 -109t108 -161l-4 70v216zM818 128q105 61 166.5 166t61.5 230q0 127 -61.5 233.5t-166 168.5t-227.5 62q-122 0 -225.5 -62t-165 -167.5t-61.5 -229.5q0 -129 61 -235t164.5 -166.5t225.5 -60.5q123 0 228 61zM564 1241
q-17 17 -17 42t17 41.5t42 16.5q24 0 41 -16.5t17 -41.5t-17 -42t-41 -17q-25 0 -42 17z" />
    <glyph glyph-name="uni0122" unicode="&#x122;" horiz-adv-x="1421" 
d="M1233 623h55v-485q-98 -76 -221 -118.5t-244 -42.5q-197 0 -362 96.5t-261 263.5t-96 367t96 366.5t261 263t362 96.5q131 0 253.5 -47.5t215.5 -131.5l-36 -41q-89 77 -200.5 121t-232.5 44q-181 0 -333 -89.5t-241 -243t-89 -338.5t89 -339t241 -243.5t333 -89.5
q102 0 216.5 36t193.5 95v460zM787 -366q66 67 66 122v3q-24 0 -40.5 12.5t-16.5 34.5q0 20 14 33t34 13q52 0 52 -55q0 -52 -18.5 -95t-66.5 -90z" />
    <glyph glyph-name="uni0123" unicode="&#x123;" horiz-adv-x="1266" 
d="M1045 1019h55v-862q0 -152 -51 -273.5t-157 -192.5t-265 -71q-95 0 -185.5 19.5t-152.5 49.5l21 49q57 -28 142 -46t172 -18q145 0 239 65.5t138 174.5t44 244v41l5 122q-39 -90 -108 -160t-160 -109t-193 -39q-136 0 -252 68t-184 186t-68 261q0 139 68.5 257
t184.5 187.5t252 69.5q101 0 191.5 -39t159.5 -109t108 -161l-4 70v216zM818 128q105 61 166.5 166t61.5 230q0 127 -61.5 233.5t-166 168.5t-227.5 62q-122 0 -225.5 -62t-165 -167.5t-61.5 -229.5q0 -129 61 -235t164.5 -166.5t225.5 -60.5q123 0 228 61zM657 1447
q-66 -67 -66 -122v-4q25 0 41 -12t16 -34q0 -21 -14 -34t-34 -13q-51 0 -51 56q0 53 18 95t66 90z" />
    <glyph glyph-name="Hcircumflex" unicode="&#x124;" horiz-adv-x="1538" 
d="M265 0h-56v1405h56v-668h1009v668h56v-1405h-56v683h-1009v-683zM764 1627l-174 -136l-31 38l195 152h22l194 -152l-31 -38z" />
    <glyph glyph-name="hcircumflex" unicode="&#x125;" horiz-adv-x="1156" 
d="M838.5 992.5q90.5 -49.5 141.5 -146t51 -232.5v-614h-55v610q0 122 -43.5 207t-122.5 128t-185 43q-104 0 -197 -51t-150 -142t-57 -205v-590h-55v1493h55v-705q27 69 87.5 127t144 92.5t177.5 34.5q118 0 208.5 -49.5zM601 1689l-174 -136l-31 38l195 152h22l194 -152
l-31 -38z" />
    <glyph glyph-name="Hbar" unicode="&#x126;" horiz-adv-x="1538" 
d="M1330 1167h122v-51h-122v-1116h-56v683h-1009v-683h-56v1116h-122v51h122v238h56v-238h1009v238h56v-238zM265 737h1009v379h-1009v-379z" />
    <glyph glyph-name="hbar" unicode="&#x127;" horiz-adv-x="1156" 
d="M838.5 992.5q90.5 -49.5 141.5 -146t51 -232.5v-614h-55v610q0 122 -43.5 207t-122.5 128t-185 43q-104 0 -197 -51t-150 -142t-57 -205v-590h-55v1254h-134v53h134v186h55v-186h375v-53h-375v-466q27 69 87.5 127t144 92.5t177.5 34.5q118 0 208.5 -49.5z" />
    <glyph glyph-name="Itilde" unicode="&#x128;" horiz-adv-x="473" 
d="M265 0h-56v1405h56v-1405zM7 1523q27 58 63 87.5t75 29.5q27 0 52 -11.5t60 -33.5q33 -20 53 -29t39 -9q28 0 47 18t46 66l43 -18q-28 -58 -63.5 -87.5t-73.5 -29.5q-27 0 -52 11t-62 34q-29 19 -49.5 28.5t-40.5 9.5q-28 0 -48 -18.5t-46 -65.5z" />
    <glyph glyph-name="itilde" unicode="&#x129;" horiz-adv-x="387" 
d="M221 0h-55v1019h55v-1019zM-46 1241q27 58 63 87.5t75 29.5q27 0 52 -11.5t60 -33.5q33 -20 53 -29t39 -9q28 0 47 18t46 66l43 -18q-28 -58 -63.5 -87.5t-73.5 -29.5q-27 0 -52 11t-62 34q-29 19 -49.5 28.5t-40.5 9.5q-28 0 -48 -18.5t-46 -65.5z" />
    <glyph glyph-name="Imacron" unicode="&#x12a;" horiz-adv-x="473" 
d="M265 0h-56v1405h56v-1405zM429 1503h-387v49h387v-49z" />
    <glyph glyph-name="imacron" unicode="&#x12b;" horiz-adv-x="387" 
d="M221 0h-55v1019h55v-1019zM386 1234h-387v49h387v-49z" />
    <glyph glyph-name="Ibreve" unicode="&#x12c;" horiz-adv-x="473" 
d="M265 0h-56v1405h56v-1405zM132.5 1516.5q-43.5 25.5 -66.5 68t-25 93.5h50q-1 -58 35.5 -99t109.5 -41q74 0 110 40.5t35 99.5h50q-2 -51 -25 -93.5t-66.5 -68t-103.5 -25.5t-103.5 25.5z" />
    <glyph glyph-name="ibreve" unicode="&#x12d;" horiz-adv-x="387" 
d="M221 0h-55v1019h55v-1019zM84.5 1243.5q-47.5 26.5 -75 74t-28.5 108.5h50q-1 -73 42.5 -117.5t119.5 -44.5t120 44.5t43 117.5h49q-2 -62 -29 -109t-74.5 -73.5t-108.5 -26.5t-108.5 26.5z" />
    <glyph glyph-name="Iogonek" unicode="&#x12e;" horiz-adv-x="473" 
d="M265 0h-56v1405h56v-1405zM265 0q-132 -120 -132 -205q0 -35 21.5 -59.5t74.5 -24.5q22 0 55 6l2 -42q-33 -9 -67 -9q-68 0 -103 34.5t-35 85.5q0 50 36 103.5t94 110.5h54z" />
    <glyph glyph-name="iogonek" unicode="&#x12f;" horiz-adv-x="387" 
d="M157 1350.5q-13 12.5 -13 33.5q0 22 13 35.5t35 13.5t35.5 -13.5t13.5 -35.5q0 -21 -13.5 -33.5t-35.5 -12.5t-35 12.5zM221 0h-55v1019h55v-1019zM220 0q-60 -50 -93.5 -101t-33.5 -93q0 -32 22 -55.5t69 -23.5q23 0 55 6l3 -41q-33 -9 -67 -9q-62 0 -97 33t-35 81
q0 51 39 106t91 97h47z" />
    <glyph glyph-name="Idotaccent" unicode="&#x130;" horiz-adv-x="473" 
d="M265 0h-56v1405h56v-1405zM194 1516q-17 17 -17 42t17 41.5t42 16.5q24 0 41 -16.5t17 -41.5t-17 -42t-41 -17q-25 0 -42 17z" />
    <glyph glyph-name="dotlessi" unicode="&#x131;" horiz-adv-x="387" 
d="M221 0h-55v1019h55v-1019z" />
    <glyph glyph-name="IJ" unicode="&#x132;" horiz-adv-x="1249" 
d="M265 0h-56v1405h56v-1405zM619.5 9q-70.5 32 -125.5 87l36 40q49 -49 110 -76t117 -27q82 0 142.5 34t93.5 98.5t33 152.5v1087h56v-1089q0 -103 -40 -179.5t-113.5 -118t-172.5 -41.5q-66 0 -136.5 32z" />
    <glyph glyph-name="ij" unicode="&#x133;" horiz-adv-x="770" 
d="M157 1350.5q-13 12.5 -13 33.5q0 22 13 35.5t35 13.5t35.5 -13.5t13.5 -35.5q0 -21 -13.5 -33.5t-35.5 -12.5t-35 12.5zM221 0h-55v1019h55v-1019zM540 1350.5q-13 12.5 -13 33.5q0 22 13 35.5t35 13.5t35.5 -13.5t13.5 -35.5q0 -21 -13.5 -33.5t-35.5 -12.5t-35 12.5z
M317 -367v53h18q106 0 160 67t54 196v1070h55v-1069q0 -149 -67.5 -233t-198.5 -84h-21z" />
    <glyph glyph-name="Jcircumflex" unicode="&#x134;" horiz-adv-x="776" 
d="M146.5 9q-70.5 32 -125.5 87l36 40q49 -49 110 -76t117 -27q82 0 142.5 34t93.5 98.5t33 152.5v1087h56v-1089q0 -103 -40 -179.5t-113.5 -118t-172.5 -41.5q-66 0 -136.5 32zM572 1627l-174 -136l-31 38l195 152h22l194 -152l-31 -38z" />
    <glyph glyph-name="jcircumflex" unicode="&#x135;" horiz-adv-x="401" 
d="M-52 -367v53h18q106 0 160 67t54 196v1070h55v-1069q0 -149 -67.5 -233t-198.5 -84h-21zM206 1378l-193 -163l-33 34l214 184h25l215 -184l-34 -34z" />
    <glyph glyph-name="uni0136" unicode="&#x136;" horiz-adv-x="1342" 
d="M1313 0h-71l-649 784l-328 -352v-432h-56v1405h56v-894l833 894h74l-541 -581zM543 -334q66 67 66 122v3q-24 0 -40.5 12.5t-16.5 34.5q0 20 14 33t34 13q52 0 52 -55q0 -52 -18.5 -95t-66.5 -90z" />
    <glyph glyph-name="uni0137" unicode="&#x137;" horiz-adv-x="1019" 
d="M1009 0h-70l-477 571l-241 -228v-343h-55v1493h55v-1078l640 604h76l-436 -412zM468 -340q66 67 66 122v3q-24 0 -40.5 12.5t-16.5 34.5q0 20 14 33t34 13q52 0 52 -55q0 -52 -18.5 -95t-66.5 -90z" />
    <glyph glyph-name="kgreenlandic" unicode="&#x138;" horiz-adv-x="1019" 
d="M1009 0h-70l-477 571l-241 -228v-343h-55v1019h55v-604l640 604h76l-436 -412z" />
    <glyph glyph-name="Lacute" unicode="&#x139;" horiz-adv-x="1100" 
d="M1078 0h-869v1405h56v-1351h813v-54zM410 1685l-188 -185h-57l167 185h78z" />
    <glyph glyph-name="lacute" unicode="&#x13a;" horiz-adv-x="387" 
d="M221 0h-55v1493h55v-1493zM359 1740l-188 -185h-57l167 185h78z" />
    <glyph glyph-name="uni013B" unicode="&#x13b;" horiz-adv-x="1100" 
d="M1078 0h-869v1405h56v-1351h813v-54zM456 -334q66 67 66 122v3q-24 0 -40.5 12.5t-16.5 34.5q0 20 14 33t34 13q52 0 52 -55q0 -52 -18.5 -95t-66.5 -90z" />
    <glyph glyph-name="uni013C" unicode="&#x13c;" horiz-adv-x="387" 
d="M221 0h-55v1493h55v-1493zM144 -340q66 67 66 122v3q-24 0 -40.5 12.5t-16.5 34.5q0 20 14 33t34 13q52 0 52 -55q0 -52 -18.5 -95t-66.5 -90z" />
    <glyph glyph-name="Lcaron" unicode="&#x13d;" horiz-adv-x="1100" 
d="M1078 0h-869v1405h56v-1351h813v-54zM978 1101h-49l-2 304h52z" />
    <glyph glyph-name="lcaron" unicode="&#x13e;" horiz-adv-x="389" 
d="M221 0h-55v1493h55v-1493zM401 1189h-49l-2 304h52z" />
    <glyph glyph-name="Ldot" unicode="&#x13f;" horiz-adv-x="1100" 
d="M1078 0h-869v1405h56v-1351h813v-54zM673.5 654.5q-18.5 18.5 -18.5 44.5q0 27 18.5 45.5t45.5 18.5t46 -18.5t19 -45.5q0 -26 -19.5 -44.5t-45.5 -18.5q-27 0 -45.5 18.5z" />
    <glyph glyph-name="ldot" unicode="&#x140;" horiz-adv-x="466" 
d="M221 0h-55v1493h55v-1493zM372.5 691.5q-15.5 15.5 -15.5 37.5q0 21 15.5 36.5t36.5 15.5q22 0 38 -15.5t16 -36.5q0 -22 -16 -37.5t-38 -15.5q-21 0 -36.5 15.5z" />
    <glyph glyph-name="Lslash" unicode="&#x141;" horiz-adv-x="1100" 
d="M265 666v-612h813v-54h-869v635l-164 -93l-26 45l190 107v711h56v-679l237 133l25 -45z" />
    <glyph glyph-name="lslash" unicode="&#x142;" horiz-adv-x="387" 
d="M387 890l26 -37l-192 -134v-719h-55v681l-171 -119l-26 37l197 137v757h55v-719z" />
    <glyph glyph-name="Nacute" unicode="&#x143;" horiz-adv-x="1560" 
d="M265 0h-56v1405h46l1040 -1306v1306h56v-1405h-49l-1037 1304v-1304zM922 1685l-188 -185h-57l167 185h78z" />
    <glyph glyph-name="nacute" unicode="&#x144;" horiz-adv-x="1156" 
d="M838.5 992.5q90.5 -49.5 141.5 -146t51 -232.5v-614h-55v610q0 122 -43.5 207t-122.5 128t-185 43q-104 0 -197 -51t-150 -142t-57 -205v-590h-55v1019h54v-234q27 70 87 128.5t144.5 93.5t178.5 35q118 0 208.5 -49.5zM799 1474l-161 -244h-52l144 244h69z" />
    <glyph glyph-name="uni0145" unicode="&#x145;" horiz-adv-x="1560" 
d="M265 0h-56v1405h46l1040 -1306v1306h56v-1405h-49l-1037 1304v-1304zM719 -334q66 67 66 122v3q-24 0 -40.5 12.5t-16.5 34.5q0 20 14 33t34 13q52 0 52 -55q0 -52 -18.5 -95t-66.5 -90z" />
    <glyph glyph-name="uni0146" unicode="&#x146;" horiz-adv-x="1156" 
d="M838.5 992.5q90.5 -49.5 141.5 -146t51 -232.5v-614h-55v610q0 122 -43.5 207t-122.5 128t-185 43q-104 0 -197 -51t-150 -142t-57 -205v-590h-55v1019h54v-234q27 70 87 128.5t144.5 93.5t178.5 35q118 0 208.5 -49.5zM514 -340q66 67 66 122v3q-24 0 -40.5 12.5
t-16.5 34.5q0 20 14 33t34 13q52 0 52 -55q0 -52 -18.5 -95t-66.5 -90z" />
    <glyph glyph-name="Ncaron" unicode="&#x147;" horiz-adv-x="1560" 
d="M265 0h-56v1405h46l1040 -1306v1306h56v-1405h-49l-1037 1304v-1304zM553 1646l31 38l174 -136l175 136l31 -38l-194 -152h-22z" />
    <glyph glyph-name="ncaron" unicode="&#x148;" horiz-adv-x="1156" 
d="M838.5 992.5q90.5 -49.5 141.5 -146t51 -232.5v-614h-55v610q0 122 -43.5 207t-122.5 128t-185 43q-104 0 -197 -51t-150 -142t-57 -205v-590h-55v1019h54v-234q27 70 87 128.5t144.5 93.5t178.5 35q118 0 208.5 -49.5zM380 1404l33 34l193 -163l194 163l34 -34
l-215 -184h-25z" />
    <glyph glyph-name="Eng" unicode="&#x14a;" horiz-adv-x="1560" 
d="M1351 1405v-1447q0 -148 -62.5 -233t-193.5 -85h-21v52h18q107 0 155 67.5t48 197.5v52l-1030 1295v-1304h-56v1405h46l1040 -1306v1306h56z" />
    <glyph glyph-name="eng" unicode="&#x14b;" horiz-adv-x="1156" 
d="M838.5 992.5q90.5 -49.5 141.5 -146t51 -232.5v-656q0 -148 -62.5 -233t-192.5 -85h-21v53h18q106 0 154 67t48 197v233h1v420q0 122 -43.5 207t-122.5 128t-185 43q-104 0 -197 -51t-150 -142t-57 -205v-590h-55v1019h54v-234q27 70 87 128.5t144.5 93.5t178.5 35
q118 0 208.5 -49.5z" />
    <glyph glyph-name="Omacron" unicode="&#x14c;" horiz-adv-x="1646" 
d="M461 74.5q-165 95.5 -261 261t-96 365.5q0 201 96 367t261 262t362 96q198 0 362.5 -96t260.5 -262t96 -367q0 -200 -96 -365.5t-260.5 -261t-362.5 -95.5q-197 0 -362 95.5zM1156 122q152 88 240.5 241t88.5 338q0 186 -88.5 339.5t-240.5 242t-333 88.5t-333 -88.5
t-240.5 -242t-88.5 -339.5q0 -185 88.5 -338t240.5 -241t333 -88t333 88zM1016 1523h-387v49h387v-49z" />
    <glyph glyph-name="omacron" unicode="&#x14d;" horiz-adv-x="1229" 
d="M349 46.5q-122 70.5 -193 192.5t-71 268q0 147 71 269t193 193t266 71t265.5 -71t192.5 -193t71 -269q0 -146 -71 -267.5t-192.5 -192.5t-265.5 -71t-266 70.5zM853.5 93q108.5 63 172.5 172.5t64 241.5t-64 242t-172.5 173.5t-237.5 63.5q-130 0 -239.5 -63.5
t-173.5 -173t-64 -242.5q0 -132 64 -241.5t173.5 -172.5t239.5 -63q129 0 237.5 63zM802 1235h-387v49h387v-49z" />
    <glyph glyph-name="Obreve" unicode="&#x14e;" horiz-adv-x="1646" 
d="M461 74.5q-165 95.5 -261 261t-96 365.5q0 201 96 367t261 262t362 96q198 0 362.5 -96t260.5 -262t96 -367q0 -200 -96 -365.5t-260.5 -261t-362.5 -95.5q-197 0 -362 95.5zM1156 122q152 88 240.5 241t88.5 338q0 186 -88.5 339.5t-240.5 242t-333 88.5t-333 -88.5
t-240.5 -242t-88.5 -339.5q0 -185 88.5 -338t240.5 -241t333 -88t333 88zM719.5 1536.5q-43.5 25.5 -66.5 68t-25 93.5h50q-1 -58 35.5 -99t109.5 -41q74 0 110 40.5t35 99.5h50q-2 -51 -25 -93.5t-66.5 -68t-103.5 -25.5t-103.5 25.5z" />
    <glyph glyph-name="obreve" unicode="&#x14f;" horiz-adv-x="1229" 
d="M349 46.5q-122 70.5 -193 192.5t-71 268q0 147 71 269t193 193t266 71t265.5 -71t192.5 -193t71 -269q0 -146 -71 -267.5t-192.5 -192.5t-265.5 -71t-266 70.5zM853.5 93q108.5 63 172.5 172.5t64 241.5t-64 242t-172.5 173.5t-237.5 63.5q-130 0 -239.5 -63.5
t-173.5 -173t-64 -242.5q0 -132 64 -241.5t173.5 -172.5t239.5 -63q129 0 237.5 63zM500.5 1244.5q-47.5 26.5 -75 74t-28.5 108.5h50q-1 -73 42.5 -117.5t119.5 -44.5t120 44.5t43 117.5h49q-2 -62 -29 -109t-74.5 -73.5t-108.5 -26.5t-108.5 26.5z" />
    <glyph glyph-name="Ohungarumlaut" unicode="&#x150;" horiz-adv-x="1646" 
d="M461 74.5q-165 95.5 -261 261t-96 365.5q0 201 96 367t261 262t362 96q198 0 362.5 -96t260.5 -262t96 -367q0 -200 -96 -365.5t-260.5 -261t-362.5 -95.5q-197 0 -362 95.5zM1156 122q152 88 240.5 241t88.5 338q0 186 -88.5 339.5t-240.5 242t-333 88.5t-333 -88.5
t-240.5 -242t-88.5 -339.5q0 -185 88.5 -338t240.5 -241t333 -88t333 88zM909 1705l-186 -184h-57l165 184h78zM1068 1704l-187 -184h-56l165 184h78z" />
    <glyph glyph-name="ohungarumlaut" unicode="&#x151;" horiz-adv-x="1229" 
d="M349 46.5q-122 70.5 -193 192.5t-71 268q0 147 71 269t193 193t266 71t265.5 -71t192.5 -193t71 -269q0 -146 -71 -267.5t-192.5 -192.5t-265.5 -71t-266 70.5zM853.5 93q108.5 63 172.5 172.5t64 241.5t-64 242t-172.5 173.5t-237.5 63.5q-130 0 -239.5 -63.5
t-173.5 -173t-64 -242.5q0 -132 64 -241.5t173.5 -172.5t239.5 -63q129 0 237.5 63zM684 1469l-161 -244h-52l144 244h69zM880 1469l-161 -244h-52l144 244h69z" />
    <glyph glyph-name="OE" unicode="&#x152;" horiz-adv-x="2574" 
d="M1552 54h917v-54h-973v442q-51 -137 -151 -241.5t-234.5 -163t-287.5 -58.5q-197 0 -362 95.5t-261 261t-96 365.5q0 201 96 367t261 262t362 96q153 0 288 -58.5t234.5 -163.5t150.5 -243v444h959v-54h-903v-594h749v-53h-749v-650zM1156 122q152 88 240.5 241t88.5 338
q0 186 -88.5 339.5t-240.5 242t-333 88.5t-333 -88.5t-240.5 -242t-88.5 -339.5q0 -185 88.5 -338t240.5 -241t333 -88t333 88z" />
    <glyph glyph-name="oe" unicode="&#x153;" horiz-adv-x="2141" 
d="M1836 971.5q107 -68.5 164 -189.5t57 -274q0 -15 -1 -23h-896q5 -129 66.5 -233t164 -163t226.5 -59q105 0 193 37.5t155 104.5l34 -38q-74 -75 -171 -116t-212 -41q-117 0 -218.5 49t-173 136.5t-100.5 199.5q-31 -112 -105.5 -199.5t-179.5 -137t-224 -49.5
q-144 0 -266 70.5t-193 192.5t-71 268q0 147 71 269t193 193t266 71q119 0 223.5 -49t179 -136.5t105.5 -198.5q28 112 93 199t160 136t208 49q145 0 252 -68.5zM1372.5 928.5q-94.5 -58.5 -150 -161t-61.5 -229.5h841q-6 131 -57 232.5t-143.5 159t-216.5 57.5
q-118 0 -212.5 -58.5zM853.5 93q108.5 63 172.5 172.5t64 241.5t-64 242t-172.5 173.5t-237.5 63.5q-130 0 -239.5 -63.5t-173.5 -173t-64 -242.5q0 -132 64 -241.5t173.5 -172.5t239.5 -63q129 0 237.5 63z" />
    <glyph glyph-name="Racute" unicode="&#x154;" horiz-adv-x="1264" 
d="M1103.5 706q-74.5 -107 -207.5 -150l253 -556h-63l-244 542q-58 -12 -125 -12h-452v-530h-56v1405h514q138 0 241 -53.5t158.5 -152t55.5 -231.5q0 -155 -74.5 -262zM265 584h454q122 0 213 46.5t140 133t49 203.5t-49 204t-140 133.5t-214 46.5h-453v-767zM741 1685
l-188 -185h-57l167 185h78z" />
    <glyph glyph-name="racute" unicode="&#x155;" horiz-adv-x="786" 
d="M788 970l-25 -44q-104 61 -205 61q-89 -1 -166 -52.5t-124 -144.5t-47 -213v-577h-55v1019h54v-226q25 70 75 126t118 88.5t145 32.5q115 0 230 -70zM582 1468l-161 -244h-52l144 244h69z" />
    <glyph glyph-name="uni0156" unicode="&#x156;" horiz-adv-x="1264" 
d="M1103.5 706q-74.5 -107 -207.5 -150l253 -556h-63l-244 542q-58 -12 -125 -12h-452v-530h-56v1405h514q138 0 241 -53.5t158.5 -152t55.5 -231.5q0 -155 -74.5 -262zM265 584h454q122 0 213 46.5t140 133t49 203.5t-49 204t-140 133.5t-214 46.5h-453v-767zM604 -334
q66 67 66 122v3q-24 0 -40.5 12.5t-16.5 34.5q0 20 14 33t34 13q52 0 52 -55q0 -52 -18.5 -95t-66.5 -90z" />
    <glyph glyph-name="uni0157" unicode="&#x157;" horiz-adv-x="786" 
d="M788 970l-25 -44q-104 61 -205 61q-89 -1 -166 -52.5t-124 -144.5t-47 -213v-577h-55v1019h54v-226q25 70 75 126t118 88.5t145 32.5q115 0 230 -70zM137 -340q66 67 66 122v3q-24 0 -40.5 12.5t-16.5 34.5q0 20 14 33t34 13q52 0 52 -55q0 -52 -18.5 -95t-66.5 -90z" />
    <glyph glyph-name="Rcaron" unicode="&#x158;" horiz-adv-x="1264" 
d="M1103.5 706q-74.5 -107 -207.5 -150l253 -556h-63l-244 542q-58 -12 -125 -12h-452v-530h-56v1405h514q138 0 241 -53.5t158.5 -152t55.5 -231.5q0 -155 -74.5 -262zM265 584h454q122 0 213 46.5t140 133t49 203.5t-49 204t-140 133.5t-214 46.5h-453v-767zM372 1646
l31 38l174 -136l175 136l31 -38l-194 -152h-22z" />
    <glyph glyph-name="rcaron" unicode="&#x159;" horiz-adv-x="786" 
d="M788 970l-25 -44q-104 61 -205 61q-89 -1 -166 -52.5t-124 -144.5t-47 -213v-577h-55v1019h54v-226q25 70 75 126t118 88.5t145 32.5q115 0 230 -70zM162 1398l33 34l193 -163l194 163l34 -34l-215 -184h-25z" />
    <glyph glyph-name="Sacute" unicode="&#x15a;" horiz-adv-x="1142" 
d="M284 44q-145 60 -235 172l37 38q86 -103 223 -159t281 -56q116 0 213 37.5t155 112t58 181.5q0 104 -63.5 167t-152 94.5t-246.5 70.5q-150 36 -242 71.5t-155 105t-63 184.5q0 110 66 191t176 123.5t240 42.5q124 0 241.5 -40.5t204.5 -119.5l-34 -42
q-79 72 -187.5 109.5t-221.5 37.5q-114 0 -212.5 -36t-157.5 -105t-59 -162q0 -96 56.5 -155t140 -89.5t226.5 -65.5q166 -41 263 -77t166.5 -109t69.5 -195q0 -124 -66.5 -211.5t-177.5 -131.5t-243 -44q-156 0 -301 60zM719 1685l-188 -185h-57l167 185h78z" />
    <glyph glyph-name="sacute" unicode="&#x15b;" horiz-adv-x="876" 
d="M236 20q-112 44 -177 106l36 40q61 -56 162.5 -96t201.5 -40q85 0 152.5 30t105 83.5t37.5 121.5q0 72 -36.5 116t-102.5 71.5t-182 55.5q-149 36 -235 101.5t-86 177.5q0 70 40 128t114.5 92t173.5 34t186.5 -29.5t152.5 -82.5l-34 -40q-131 99 -305 99
q-83 0 -144.5 -26t-94.5 -72t-33 -103q0 -81 64.5 -135.5t216.5 -92.5q116 -29 189.5 -59t122 -86.5t48.5 -147.5q0 -82 -44.5 -148t-124 -104t-181.5 -38q-111 0 -223 44zM628 1468l-161 -244h-52l144 244h69z" />
    <glyph glyph-name="Scircumflex" unicode="&#x15c;" horiz-adv-x="1142" 
d="M284 44q-145 60 -235 172l37 38q86 -103 223 -159t281 -56q116 0 213 37.5t155 112t58 181.5q0 104 -63.5 167t-152 94.5t-246.5 70.5q-150 36 -242 71.5t-155 105t-63 184.5q0 110 66 191t176 123.5t240 42.5q124 0 241.5 -40.5t204.5 -119.5l-34 -42
q-79 72 -187.5 109.5t-221.5 37.5q-114 0 -212.5 -36t-157.5 -105t-59 -162q0 -96 56.5 -155t140 -89.5t226.5 -65.5q166 -41 263 -77t166.5 -109t69.5 -195q0 -124 -66.5 -211.5t-177.5 -131.5t-243 -44q-156 0 -301 60zM554 1627l-174 -136l-31 38l195 152h22l194 -152
l-31 -38z" />
    <glyph glyph-name="scircumflex" unicode="&#x15d;" horiz-adv-x="876" 
d="M236 20q-112 44 -177 106l36 40q61 -56 162.5 -96t201.5 -40q85 0 152.5 30t105 83.5t37.5 121.5q0 72 -36.5 116t-102.5 71.5t-182 55.5q-149 36 -235 101.5t-86 177.5q0 70 40 128t114.5 92t173.5 34t186.5 -29.5t152.5 -82.5l-34 -40q-131 99 -305 99
q-83 0 -144.5 -26t-94.5 -72t-33 -103q0 -81 64.5 -135.5t216.5 -92.5q116 -29 189.5 -59t122 -86.5t48.5 -147.5q0 -82 -44.5 -148t-124 -104t-181.5 -38q-111 0 -223 44zM435 1378l-193 -163l-33 34l214 184h25l215 -184l-34 -34z" />
    <glyph glyph-name="Scedilla" unicode="&#x15e;" horiz-adv-x="1142" 
d="M1007.5 162.5q-64.5 -86.5 -172 -131t-236.5 -47.5q27 -48 44.5 -99t17.5 -91q0 -51 -43 -85.5t-127 -44.5l-10 45q74 10 100.5 34t26.5 58q0 37 -15.5 81.5t-46.5 102.5q-146 7 -279.5 66.5t-217.5 164.5l37 38q86 -103 223 -159t281 -56q116 0 213 37.5t155 112
t58 181.5q0 104 -63.5 167t-152 94.5t-246.5 70.5q-150 36 -242 71.5t-155 105t-63 184.5q0 110 66 191t176 123.5t240 42.5q124 0 241.5 -40.5t204.5 -119.5l-34 -42q-79 72 -187.5 109.5t-221.5 37.5q-114 0 -212.5 -36t-157.5 -105t-59 -162q0 -96 56.5 -155t140 -89.5
t226.5 -65.5q166 -41 263 -77t166.5 -109t69.5 -195t-64.5 -208.5z" />
    <glyph glyph-name="scedilla" unicode="&#x15f;" horiz-adv-x="876" 
d="M767.5 122q-41.5 -65 -117 -103.5t-171.5 -42.5q22 -37 36.5 -77.5t14.5 -71.5q0 -104 -165 -124l-9 44q74 10 98 31.5t24 55.5q0 51 -51 143q-104 7 -206 49.5t-162 99.5l36 40q61 -56 162.5 -96t201.5 -40q85 0 152.5 30t105 83.5t37.5 121.5q0 72 -36.5 116
t-102.5 71.5t-182 55.5q-149 36 -235 101.5t-86 177.5q0 70 40 128t114.5 92t173.5 34t186.5 -29.5t152.5 -82.5l-34 -40q-131 99 -305 99q-83 0 -144.5 -26t-94.5 -72t-33 -103q0 -81 64.5 -135.5t216.5 -92.5q116 -29 189.5 -59t122 -86.5t48.5 -147.5q0 -79 -41.5 -144z
" />
    <glyph glyph-name="Scaron" unicode="&#x160;" horiz-adv-x="1142" 
d="M284 44q-145 60 -235 172l37 38q86 -103 223 -159t281 -56q116 0 213 37.5t155 112t58 181.5q0 104 -63.5 167t-152 94.5t-246.5 70.5q-150 36 -242 71.5t-155 105t-63 184.5q0 110 66 191t176 123.5t240 42.5q124 0 241.5 -40.5t204.5 -119.5l-34 -42
q-79 72 -187.5 109.5t-221.5 37.5q-114 0 -212.5 -36t-157.5 -105t-59 -162q0 -96 56.5 -155t140 -89.5t226.5 -65.5q166 -41 263 -77t166.5 -109t69.5 -195q0 -124 -66.5 -211.5t-177.5 -131.5t-243 -44q-156 0 -301 60zM349 1646l31 38l174 -136l175 136l31 -38l-194 -152
h-22z" />
    <glyph glyph-name="scaron" unicode="&#x161;" horiz-adv-x="876" 
d="M236 20q-112 44 -177 106l36 40q61 -56 162.5 -96t201.5 -40q85 0 152.5 30t105 83.5t37.5 121.5q0 72 -36.5 116t-102.5 71.5t-182 55.5q-149 36 -235 101.5t-86 177.5q0 70 40 128t114.5 92t173.5 34t186.5 -29.5t152.5 -82.5l-34 -40q-131 99 -305 99
q-83 0 -144.5 -26t-94.5 -72t-33 -103q0 -81 64.5 -135.5t216.5 -92.5q116 -29 189.5 -59t122 -86.5t48.5 -147.5q0 -82 -44.5 -148t-124 -104t-181.5 -38q-111 0 -223 44zM209 1398l33 34l193 -163l194 163l34 -34l-215 -184h-25z" />
    <glyph glyph-name="uni0162" unicode="&#x162;" horiz-adv-x="1128" 
d="M1089 1350h-498v-1349q31 -51 51.5 -107t20.5 -100q0 -51 -43 -85.5t-127 -44.5l-10 45q74 10 100.5 34t26.5 58q0 39 -17.5 87t-52.5 112h-5v1350h-496v55h1050v-55z" />
    <glyph glyph-name="uni0163" unicode="&#x163;" horiz-adv-x="563" 
d="M559 966h-285v-960h6q28 -40 49 -91t21 -88q0 -104 -165 -124l-9 44q74 10 98 31.5t24 55.5q0 57 -64 166h-15v966h-198v53h198v264l55 4v-268h285v-53z" />
    <glyph glyph-name="Tcaron" unicode="&#x164;" horiz-adv-x="1128" 
d="M591 0h-56v1350h-496v55h1050v-55h-498v-1350zM359 1646l31 38l174 -136l175 136l31 -38l-194 -152h-22z" />
    <glyph glyph-name="tcaron" unicode="&#x165;" horiz-adv-x="568" 
d="M274 0h-55v966h-198v53h198v264l55 4v-268h285v-53h-285v-966zM500 1203h-49l-2 304h52z" />
    <glyph glyph-name="Tbar" unicode="&#x166;" horiz-adv-x="1128" 
d="M1089 1405v-55h-498v-618h255v-53h-255v-679h-56v679h-252v53h252v618h-496v55h1050z" />
    <glyph glyph-name="tbar" unicode="&#x167;" horiz-adv-x="563" 
d="M559 1019v-53h-285v-430h216v-53h-216v-483h-55v483h-197v53h197v430h-198v53h198v264l55 4v-268h285z" />
    <glyph glyph-name="Utilde" unicode="&#x168;" horiz-adv-x="1453" 
d="M423.5 53q-126.5 77 -191.5 217.5t-65 328.5v808h55v-807q0 -172 58 -300t172 -198.5t276 -70.5q161 0 274 70t170.5 198t57.5 301v807h56v-808q0 -188 -65 -328.5t-190.5 -217.5t-302.5 -77q-178 0 -304.5 77zM479 1523q27 58 63 87.5t75 29.5q27 0 52 -11.5t60 -33.5
q33 -20 53 -29t39 -9q28 0 47 18t46 66l43 -18q-28 -58 -63.5 -87.5t-73.5 -29.5q-27 0 -52 11t-62 34q-29 19 -49.5 28.5t-40.5 9.5q-28 0 -48 -18.5t-46 -65.5z" />
    <glyph glyph-name="utilde" unicode="&#x169;" horiz-adv-x="1156" 
d="M935 1019h55v-1019h-54v234q-27 -70 -87 -128.5t-144.5 -93.5t-178.5 -35q-118 0 -208.5 49.5t-141.5 146t-51 232.5v614h55v-610q0 -122 43.5 -207t122.5 -128t185 -43q104 0 197 51t150 142t57 205v590zM342 1241q27 58 63 87.5t75 29.5q27 0 52 -11.5t60 -33.5
q33 -20 53 -29t39 -9q28 0 47 18t46 66l43 -18q-28 -58 -63.5 -87.5t-73.5 -29.5q-27 0 -52 11t-62 34q-29 19 -49.5 28.5t-40.5 9.5q-28 0 -48 -18.5t-46 -65.5z" />
    <glyph glyph-name="Umacron" unicode="&#x16a;" horiz-adv-x="1453" 
d="M423.5 53q-126.5 77 -191.5 217.5t-65 328.5v808h55v-807q0 -172 58 -300t172 -198.5t276 -70.5q161 0 274 70t170.5 198t57.5 301v807h56v-808q0 -188 -65 -328.5t-190.5 -217.5t-302.5 -77q-178 0 -304.5 77zM902 1503h-387v49h387v-49z" />
    <glyph glyph-name="umacron" unicode="&#x16b;" horiz-adv-x="1156" 
d="M935 1019h55v-1019h-54v234q-27 -70 -87 -128.5t-144.5 -93.5t-178.5 -35q-118 0 -208.5 49.5t-141.5 146t-51 232.5v614h55v-610q0 -122 43.5 -207t122.5 -128t185 -43q104 0 197 51t150 142t57 205v590zM774 1234h-387v49h387v-49z" />
    <glyph glyph-name="Ubreve" unicode="&#x16c;" horiz-adv-x="1453" 
d="M423.5 53q-126.5 77 -191.5 217.5t-65 328.5v808h55v-807q0 -172 58 -300t172 -198.5t276 -70.5q161 0 274 70t170.5 198t57.5 301v807h56v-808q0 -188 -65 -328.5t-190.5 -217.5t-302.5 -77q-178 0 -304.5 77zM604.5 1516.5q-43.5 25.5 -66.5 68t-25 93.5h50
q-1 -58 35.5 -99t109.5 -41q74 0 110 40.5t35 99.5h50q-2 -51 -25 -93.5t-66.5 -68t-103.5 -25.5t-103.5 25.5z" />
    <glyph glyph-name="ubreve" unicode="&#x16d;" horiz-adv-x="1156" 
d="M935 1019h55v-1019h-54v234q-27 -70 -87 -128.5t-144.5 -93.5t-178.5 -35q-118 0 -208.5 49.5t-141.5 146t-51 232.5v614h55v-610q0 -122 43.5 -207t122.5 -128t185 -43q104 0 197 51t150 142t57 205v590zM472.5 1243.5q-47.5 26.5 -75 74t-28.5 108.5h50
q-1 -73 42.5 -117.5t119.5 -44.5t120 44.5t43 117.5h49q-2 -62 -29 -109t-74.5 -73.5t-108.5 -26.5t-108.5 26.5z" />
    <glyph glyph-name="Uring" unicode="&#x16e;" horiz-adv-x="1453" 
d="M423.5 53q-126.5 77 -191.5 217.5t-65 328.5v808h55v-807q0 -172 58 -300t172 -198.5t276 -70.5q161 0 274 70t170.5 198t57.5 301v807h56v-808q0 -188 -65 -328.5t-190.5 -217.5t-302.5 -77q-178 0 -304.5 77zM628 1527.5q-34 33.5 -34 86.5t34 86.5t87 33.5
q54 0 88 -33.5t34 -86.5t-34 -86.5t-88 -33.5q-53 0 -87 33.5zM773 1557.5q22 22.5 22 57.5q0 34 -22 56t-58 22q-35 0 -57 -22t-22 -56q0 -35 22 -57.5t57 -22.5q36 0 58 22.5z" />
    <glyph glyph-name="uring" unicode="&#x16f;" horiz-adv-x="1156" 
d="M935 1019h55v-1019h-54v234q-27 -70 -87 -128.5t-144.5 -93.5t-178.5 -35q-118 0 -208.5 49.5t-141.5 146t-51 232.5v614h55v-610q0 -122 43.5 -207t122.5 -128t185 -43q104 0 197 51t150 142t57 205v590zM492 1252q-34 34 -34 87t34 87t88 34t88 -34t34 -87t-34 -87
t-88 -34t-88 34zM638 1282q22 22 22 57t-22 57t-58 22t-57.5 -22t-21.5 -57t21.5 -57t57.5 -22t58 22z" />
    <glyph glyph-name="Uhungarumlaut" unicode="&#x170;" horiz-adv-x="1453" 
d="M423.5 53q-126.5 77 -191.5 217.5t-65 328.5v808h55v-807q0 -172 58 -300t172 -198.5t276 -70.5q161 0 274 70t170.5 198t57.5 301v807h56v-808q0 -188 -65 -328.5t-190.5 -217.5t-302.5 -77q-178 0 -304.5 77zM795 1685l-186 -184h-57l165 184h78zM954 1684l-187 -184
h-56l165 184h78z" />
    <glyph glyph-name="uhungarumlaut" unicode="&#x171;" horiz-adv-x="1156" 
d="M935 1019h55v-1019h-54v234q-27 -70 -87 -128.5t-144.5 -93.5t-178.5 -35q-118 0 -208.5 49.5t-141.5 146t-51 232.5v614h55v-610q0 -122 43.5 -207t122.5 -128t185 -43q104 0 197 51t150 142t57 205v590zM656 1468l-161 -244h-52l144 244h69zM852 1468l-161 -244h-52
l144 244h69z" />
    <glyph glyph-name="Uogonek" unicode="&#x172;" horiz-adv-x="1453" 
d="M1286 599q0 -187 -64.5 -327t-186.5 -216q-63 -77 -63 -135q0 -35 21.5 -59.5t74.5 -24.5q22 0 55 6l2 -42q-33 -9 -67 -9q-68 0 -103 34.5t-35 85.5q0 47 37 104q-103 -40 -229 -40q-178 0 -304.5 77t-191.5 217.5t-65 328.5v808h55v-807q0 -172 58 -300t172 -198.5
t276 -70.5q161 0 274 70t170.5 198t57.5 301v807h56v-808z" />
    <glyph glyph-name="uogonek" unicode="&#x173;" horiz-adv-x="1156" 
d="M1035 -308q-33 -9 -67 -9q-62 0 -97 33t-35 81q0 51 39 106t91 97h-30v234q-27 -70 -87 -128.5t-144.5 -93.5t-178.5 -35q-118 0 -208.5 49.5t-141.5 146t-51 232.5v614h55v-610q0 -122 43.5 -207t122.5 -128t185 -43q104 0 197 51t150 142t57 205v590h55v-1019h23
q-60 -50 -93.5 -101t-33.5 -93q0 -32 22 -55.5t69 -23.5q24 0 55 6z" />
    <glyph glyph-name="Wcircumflex" unicode="&#x174;" horiz-adv-x="1924" 
d="M663 0h-60l-583 1405h60l553 -1334l534 1334h60l-234 -581l307 -753l543 1334h61l-576 -1405h-58l-305 752zM966 1627l-174 -136l-31 38l195 152h22l194 -152l-31 -38z" />
    <glyph glyph-name="wcircumflex" unicode="&#x175;" horiz-adv-x="1539" 
d="M1051 66l399 953h59l-427 -1019h-57l-255 613l-256 -613h-57l-427 1019h59l396 -953l395 953h59l-142 -341zM769 1378l-193 -163l-33 34l214 184h25l215 -184l-34 -34z" />
    <glyph glyph-name="Ycircumflex" unicode="&#x176;" horiz-adv-x="1054" 
d="M555 0h-55v629l-480 776h66l442 -720l440 720h66l-479 -776v-629zM527 1627l-174 -136l-31 38l195 152h22l194 -152l-31 -38z" />
    <glyph glyph-name="ycircumflex" unicode="&#x177;" horiz-adv-x="974" 
d="M366 -356h-59l150 355l-427 1020h59l398 -952l397 952h60zM483 1378l-193 -163l-33 34l214 184h25l215 -184l-34 -34z" />
    <glyph glyph-name="Ydieresis" unicode="&#x178;" horiz-adv-x="1054" 
d="M555 0h-55v629l-480 776h66l442 -720l440 720h66l-479 -776v-629zM336 1516.5q-15 15.5 -15 39.5q0 22 15 37t39 15q23 0 38.5 -15t15.5 -37q0 -23 -15.5 -39t-38.5 -16q-24 0 -39 15.5zM642.5 1517q-15.5 16 -15.5 39q0 22 15.5 37t37.5 15q23 0 39 -15t16 -37
q0 -23 -16 -39t-39 -16q-22 0 -37.5 16z" />
    <glyph glyph-name="Zacute" unicode="&#x179;" horiz-adv-x="1269" 
d="M1149 0h-1045v49l989 1303h-972v53h1043v-48l-988 -1304h973v-53zM758 1685l-188 -185h-57l167 185h78z" />
    <glyph glyph-name="zacute" unicode="&#x17a;" horiz-adv-x="921" 
d="M863 0h-781v42l696 925h-676v52h749v-41l-695 -926h707v-52zM664 1468l-161 -244h-52l144 244h69z" />
    <glyph glyph-name="Zdotaccent" unicode="&#x17b;" horiz-adv-x="1269" 
d="M1149 0h-1045v49l989 1303h-972v53h1043v-48l-988 -1304h973v-53zM552 1516q-17 17 -17 42t17 41.5t42 16.5q24 0 41 -16.5t17 -41.5t-17 -42t-41 -17q-25 0 -42 17z" />
    <glyph glyph-name="zdotaccent" unicode="&#x17c;" horiz-adv-x="921" 
d="M863 0h-781v42l696 925h-676v52h749v-41l-695 -926h707v-52zM429 1235q-17 17 -17 42t17 41.5t42 16.5q24 0 41 -16.5t17 -41.5t-17 -42t-41 -17q-25 0 -42 17z" />
    <glyph glyph-name="Zcaron" unicode="&#x17d;" horiz-adv-x="1269" 
d="M1149 0h-1045v49l989 1303h-972v53h1043v-48l-988 -1304h973v-53zM388 1646l31 38l174 -136l175 136l31 -38l-194 -152h-22z" />
    <glyph glyph-name="zcaron" unicode="&#x17e;" horiz-adv-x="921" 
d="M863 0h-781v42l696 925h-676v52h749v-41l-695 -926h707v-52zM245 1398l33 34l193 -163l194 163l34 -34l-215 -184h-25z" />
    <glyph glyph-name="uni0189" unicode="&#x189;" horiz-adv-x="1484" 
d="M663 1405q196 0 360.5 -94t260.5 -255.5t96 -355.5q0 -192 -95.5 -352.5t-259 -254t-358.5 -93.5h-458v678h-169v53h169v674h454zM666 54q180 0 331 86.5t239 234.5t88 325q0 179 -88.5 328t-241 235.5t-334.5 86.5h-395v-619h338v-53h-338v-624h401z" />
    <glyph glyph-name="uni0189" unicode="&#x256;" horiz-adv-x="1484" 
d="M663 1405q196 0 360.5 -94t260.5 -255.5t96 -355.5q0 -192 -95.5 -352.5t-259 -254t-358.5 -93.5h-458v678h-169v53h169v674h454zM666 54q180 0 331 86.5t239 234.5t88 325q0 179 -88.5 328t-241 235.5t-334.5 86.5h-395v-619h338v-53h-338v-624h401z" />
    <glyph glyph-name="uni018F" unicode="&#x18f;" horiz-adv-x="1544" 
d="M1085 1330.5q163 -95.5 258.5 -261t95.5 -364.5q0 -200 -89 -366t-243 -262t-342 -96q-198 0 -348 94t-231.5 259t-81.5 372l1 22h1281q-6 179 -95.5 326.5t-238 232.5t-322.5 85q-147 0 -269 -51.5t-215 -147.5l-40 37q101 104 233.5 160t289.5 56q193 0 356 -95.5z
M1072.5 120q139.5 85 223 232t89.5 326h-1226q6 -185 81 -331t210.5 -229t313.5 -83q169 0 308.5 85z" />
    <glyph glyph-name="florin" unicode="&#x192;" horiz-adv-x="704" 
d="M-158.5 -381.5q-23.5 6.5 -28.5 10.5l23 47q10 -5 21.5 -8.5t38.5 -3.5q103 0 167 63.5t89 205.5l179 1005h-190l9 50h191l10 61q31 183 110.5 284t206.5 101q36 0 62 -6.5t32 -10.5l-25 -46q-16 11 -58 11q-108 0 -174 -71t-94 -229l-17 -94h265l-10 -50h-265
l-177 -1004q-27 -156 -101 -239t-216 -83q-25 0 -48.5 6.5z" />
    <glyph glyph-name="uni019D" unicode="&#x19d;" horiz-adv-x="1560" 
d="M1295 1405h56v-1405h-49l-1037 1304v-1346q0 -148 -62.5 -233t-193.5 -85h-21v52h18q107 0 155 67.5t48 197.5v1448h46l1040 -1306v1306z" />
    <glyph glyph-name="Ohorn" unicode="&#x1a0;" horiz-adv-x="1646" 
d="M1349.5 1199q91.5 -98 142 -226t50.5 -272q0 -200 -96 -365.5t-260.5 -261t-362.5 -95.5q-197 0 -362 95.5t-261 261t-96 365.5q0 201 96 367t261 262t362 96q118 0 225 -35q86 -2 119.5 26t33.5 79q0 28 -12 84l55 12q10 -53 10 -86q0 -61 -27.5 -98.5t-88.5 -52.5
q120 -58 211.5 -156zM1156 122q152 88 240.5 241t88.5 338q0 186 -88.5 339.5t-240.5 242t-333 88.5t-333 -88.5t-240.5 -242t-88.5 -339.5q0 -185 88.5 -338t240.5 -241t333 -88t333 88z" />
    <glyph glyph-name="ohorn" unicode="&#x1a1;" horiz-adv-x="1229" 
d="M1086 753q58 -113 58 -246q0 -146 -71 -267.5t-192.5 -192.5t-265.5 -71t-266 70.5t-193 192.5t-71 268q0 147 71 269t193 193t266 71q141 0 263 -69q73 9 105 33.5t32 63.5q0 30 -20 75l54 13q15 -43 15 -81q0 -108 -137 -136q101 -73 159 -186zM853.5 93
q108.5 63 172.5 172.5t64 241.5t-64 242t-172.5 173.5t-237.5 63.5q-130 0 -239.5 -63.5t-173.5 -173t-64 -242.5q0 -132 64 -241.5t173.5 -172.5t239.5 -63q129 0 237.5 63z" />
    <glyph glyph-name="Uhorn" unicode="&#x1af;" horiz-adv-x="1488" 
d="M1458 1607q10 -46 10 -86q0 -75 -43 -115t-139 -44v-763q0 -188 -65 -328.5t-190.5 -217.5t-302.5 -77q-178 0 -304.5 77t-191.5 217.5t-65 328.5v808h55v-807q0 -172 58 -300t172 -198.5t276 -70.5q161 0 274 70t170.5 198t57.5 301v807h56q72 2 100.5 29.5t28.5 74.5
q0 28 -12 84z" />
    <glyph glyph-name="uhorn" unicode="&#x1b0;" horiz-adv-x="1192" 
d="M1173 1205q15 -43 15 -81q0 -127 -190 -144l-2 39q76 9 109.5 33.5t33.5 64.5q0 31 -19 74zM935 1019h55v-1019h-54v234q-27 -70 -87 -128.5t-144.5 -93.5t-178.5 -35q-118 0 -208.5 49.5t-141.5 146t-51 232.5v614h55v-610q0 -122 43.5 -207t122.5 -128t185 -43
q104 0 197 51t150 142t57 205v590z" />
    <glyph glyph-name="uni01B5" unicode="&#x1b5;" horiz-adv-x="1269" 
d="M121 1405h1043v-48l-476 -628h222v-53h-262l-472 -623h973v-53h-1045v49l476 627h-241v53h281l473 623h-972v53z" />
    <glyph glyph-name="uni01B6" unicode="&#x1b6;" horiz-adv-x="921" 
d="M480 484l-324 -432h707v-52h-781v42l333 442h-225v52h264l324 431h-676v52h749v-41l-332 -442h235v-52h-274z" />
    <glyph glyph-name="uni01C4" unicode="&#x1c4;" horiz-adv-x="2716" 
d="M209 0v1405h454q196 0 360.5 -94t260.5 -255.5t96 -355.5q0 -192 -95.5 -352.5t-259 -254t-358.5 -93.5h-458zM666 54q180 0 331 86.5t239 234.5t88 325q0 179 -88.5 328t-241 235.5t-334.5 86.5h-395v-1296h401zM2596 0h-1045v49l989 1303h-972v53h1043v-48l-988 -1304
h973v-53zM1835 1646l31 38l174 -136l175 136l31 -38l-194 -152h-22z" />
    <glyph glyph-name="uni01C5" unicode="&#x1c5;" horiz-adv-x="2405" 
d="M209 0v1405h454q196 0 360.5 -94t260.5 -255.5t96 -355.5q0 -192 -95.5 -352.5t-259 -254t-358.5 -93.5h-458zM666 54q180 0 331 86.5t239 234.5t88 325q0 179 -88.5 328t-241 235.5t-334.5 86.5h-395v-1296h401zM2347 0h-781v42l696 925h-676v52h749v-41l-695 -926h707
v-52zM1729 1398l33 34l193 -163l194 163l34 -34l-215 -184h-25z" />
    <glyph glyph-name="uni01C6" unicode="&#x1c6;" horiz-adv-x="2187" 
d="M1045 1493h55v-1493h-55v217l4 75q-39 -94 -108 -165t-159.5 -110.5t-191.5 -39.5q-136 0 -252 70.5t-184.5 192t-68.5 268.5t68.5 269t184 193t251.5 71q101 0 191 -39.5t159 -110.5t108 -164l-2 70v696zM818.5 94q104.5 63 166 172t61.5 242q0 132 -61.5 241.5
t-166.5 173t-228 63.5q-122 0 -225.5 -63.5t-164.5 -173t-61 -241.5q0 -133 61 -242t165 -172t226 -63q123 0 227.5 63zM2129 0h-781v42l696 925h-676v52h749v-41l-695 -926h707v-52zM1511 1398l33 34l193 -163l194 163l34 -34l-215 -184h-25z" />
    <glyph glyph-name="uni01C7" unicode="&#x1c7;" horiz-adv-x="1912" 
d="M1078 0h-869v1405h56v-1351h813v-54zM1282.5 9q-70.5 32 -125.5 87l36 40q49 -49 110 -76t117 -27q82 0 142.5 34t93.5 98.5t33 152.5v1087h56v-1089q0 -103 -40 -179.5t-113.5 -118t-172.5 -41.5q-66 0 -136.5 32z" />
    <glyph glyph-name="uni01C8" unicode="&#x1c8;" horiz-adv-x="1501" 
d="M1078 0h-869v1405h56v-1351h813v-54zM1271 1350.5q-13 12.5 -13 33.5q0 22 13 35.5t35 13.5t35.5 -13.5t13.5 -35.5q0 -21 -13.5 -33.5t-35.5 -12.5t-35 12.5zM1048 -367v53h18q106 0 160 67t54 196v1070h55v-1069q0 -149 -67.5 -233t-198.5 -84h-21z" />
    <glyph glyph-name="uni01C9" unicode="&#x1c9;" horiz-adv-x="770" 
d="M221 0h-55v1493h55v-1493zM540 1350.5q-13 12.5 -13 33.5q0 22 13 35.5t35 13.5t35.5 -13.5t13.5 -35.5q0 -21 -13.5 -33.5t-35.5 -12.5t-35 12.5zM317 -367v53h18q106 0 160 67t54 196v1070h55v-1069q0 -149 -67.5 -233t-198.5 -84h-21z" />
    <glyph glyph-name="uni01CA" unicode="&#x1ca;" horiz-adv-x="2336" 
d="M265 0h-56v1405h46l1040 -1306v1306h56v-1405h-49l-1037 1304v-1304zM1706.5 9q-70.5 32 -125.5 87l36 40q49 -49 110 -76t117 -27q82 0 142.5 34t93.5 98.5t33 152.5v1087h56v-1089q0 -103 -40 -179.5t-113.5 -118t-172.5 -41.5q-66 0 -136.5 32z" />
    <glyph glyph-name="uni01CB" unicode="&#x1cb;" horiz-adv-x="1910" 
d="M265 0h-56v1405h46l1040 -1306v1306h56v-1405h-49l-1037 1304v-1304zM1680 1350.5q-13 12.5 -13 33.5q0 22 13 35.5t35 13.5t35.5 -13.5t13.5 -35.5q0 -21 -13.5 -33.5t-35.5 -12.5t-35 12.5zM1457 -367v53h18q106 0 160 67t54 196v1070h55v-1069q0 -149 -67.5 -233
t-198.5 -84h-21z" />
    <glyph glyph-name="uni01CC" unicode="&#x1cc;" horiz-adv-x="1562" 
d="M838.5 992.5q90.5 -49.5 141.5 -146t51 -232.5v-614h-55v610q0 122 -43.5 207t-122.5 128t-185 43q-104 0 -197 -51t-150 -142t-57 -205v-590h-55v1019h54v-234q27 70 87 128.5t144.5 93.5t178.5 35q118 0 208.5 -49.5zM1332 1350.5q-13 12.5 -13 33.5q0 22 13 35.5
t35 13.5t35.5 -13.5t13.5 -35.5q0 -21 -13.5 -33.5t-35.5 -12.5t-35 12.5zM1109 -367v53h18q106 0 160 67t54 196v1070h55v-1069q0 -149 -67.5 -233t-198.5 -84h-21z" />
    <glyph glyph-name="uni01CD" unicode="&#x1cd;" horiz-adv-x="1256" 
d="M1236 0h-61l-163 399h-770l-163 -399h-59l578 1405h59zM623 1334l-359 -881h726l-359 881l-4 10zM421 1646l31 38l174 -136l175 136l31 -38l-194 -152h-22z" />
    <glyph glyph-name="uni01CE" unicode="&#x1ce;" horiz-adv-x="1266" 
d="M1045 1019h55v-1019h-55v217l4 75q-39 -94 -108 -165t-159.5 -110.5t-191.5 -39.5q-136 0 -252 70.5t-184.5 192t-68.5 268.5t68.5 269t184 193t251.5 71q101 0 191 -39.5t159 -110.5t108 -164l-2 64v228zM818.5 94q104.5 63 166 172t61.5 242q0 132 -61.5 241.5
t-166.5 173t-228 63.5q-122 0 -225.5 -63.5t-164.5 -173t-61 -241.5q0 -133 61 -242t165 -172t226 -63q123 0 227.5 63zM390 1397l33 34l193 -163l194 163l34 -34l-215 -184h-25z" />
    <glyph glyph-name="uni01CF" unicode="&#x1cf;" horiz-adv-x="473" 
d="M265 0h-56v1405h56v-1405zM31 1646l31 38l174 -136l175 136l31 -38l-194 -152h-22z" />
    <glyph glyph-name="uni01D0" unicode="&#x1d0;" horiz-adv-x="387" 
d="M221 0h-55v1019h55v-1019zM-34 1398l33 34l193 -163l194 163l34 -34l-215 -184h-25z" />
    <glyph glyph-name="uni01D1" unicode="&#x1d1;" horiz-adv-x="1646" 
d="M461 74.5q-165 95.5 -261 261t-96 365.5q0 201 96 367t261 262t362 96q198 0 362.5 -96t260.5 -262t96 -367q0 -200 -96 -365.5t-260.5 -261t-362.5 -95.5q-197 0 -362 95.5zM1156 122q152 88 240.5 241t88.5 338q0 186 -88.5 339.5t-240.5 242t-333 88.5t-333 -88.5
t-240.5 -242t-88.5 -339.5q0 -185 88.5 -338t240.5 -241t333 -88t333 88zM617 1666l31 38l174 -136l175 136l31 -38l-194 -152h-22z" />
    <glyph glyph-name="uni01D2" unicode="&#x1d2;" horiz-adv-x="1229" 
d="M349 46.5q-122 70.5 -193 192.5t-71 268q0 147 71 269t193 193t266 71t265.5 -71t192.5 -193t71 -269q0 -146 -71 -267.5t-192.5 -192.5t-265.5 -71t-266 70.5zM853.5 93q108.5 63 172.5 172.5t64 241.5t-64 242t-172.5 173.5t-237.5 63.5q-130 0 -239.5 -63.5
t-173.5 -173t-64 -242.5q0 -132 64 -241.5t173.5 -172.5t239.5 -63q129 0 237.5 63zM382 1399l33 34l193 -163l194 163l34 -34l-215 -184h-25z" />
    <glyph glyph-name="uni01D3" unicode="&#x1d3;" horiz-adv-x="1453" 
d="M423.5 53q-126.5 77 -191.5 217.5t-65 328.5v808h55v-807q0 -172 58 -300t172 -198.5t276 -70.5q161 0 274 70t170.5 198t57.5 301v807h56v-808q0 -188 -65 -328.5t-190.5 -217.5t-302.5 -77q-178 0 -304.5 77zM503 1646l31 38l174 -136l175 136l31 -38l-194 -152h-22z
" />
    <glyph glyph-name="uni01D4" unicode="&#x1d4;" horiz-adv-x="1156" 
d="M935 1019h55v-1019h-54v234q-27 -70 -87 -128.5t-144.5 -93.5t-178.5 -35q-118 0 -208.5 49.5t-141.5 146t-51 232.5v614h55v-610q0 -122 43.5 -207t122.5 -128t185 -43q104 0 197 51t150 142t57 205v590zM354 1398l33 34l193 -163l194 163l34 -34l-215 -184h-25z" />
    <glyph glyph-name="uni01D5" unicode="&#x1d5;" horiz-adv-x="1453" 
d="M423.5 53q-126.5 77 -191.5 217.5t-65 328.5v808h55v-807q0 -172 58 -300t172 -198.5t276 -70.5q161 0 274 70t170.5 198t57.5 301v807h56v-808q0 -188 -65 -328.5t-190.5 -217.5t-302.5 -77q-178 0 -304.5 77zM516 1516.5q-15 15.5 -15 39.5q0 22 15 37t39 15
q23 0 38.5 -15t15.5 -37q0 -23 -15.5 -39t-38.5 -16q-24 0 -39 15.5zM822.5 1517q-15.5 16 -15.5 39q0 22 15.5 37t37.5 15q23 0 39 -15t16 -37q0 -23 -16 -39t-39 -16q-22 0 -37.5 16zM902 1662h-387v49h387v-49z" />
    <glyph glyph-name="uni01D6" unicode="&#x1d6;" horiz-adv-x="1156" 
d="M935 1019h55v-1019h-54v234q-27 -70 -87 -128.5t-144.5 -93.5t-178.5 -35q-118 0 -208.5 49.5t-141.5 146t-51 232.5v614h55v-610q0 -122 43.5 -207t122.5 -128t185 -43q104 0 197 51t150 142t57 205v590zM389 1238.5q-15 15.5 -15 39.5q0 22 15 37t39 15q23 0 38.5 -15
t15.5 -37q0 -23 -15.5 -39t-38.5 -16q-24 0 -39 15.5zM695.5 1239q-15.5 16 -15.5 39q0 22 15.5 37t37.5 15q23 0 39 -15t16 -37q0 -23 -16 -39t-39 -16q-22 0 -37.5 16zM774 1413h-387v49h387v-49z" />
    </font>
</defs>
</svg>
