<?xml version="1.0" standalone="no"?>
<!DOCTYPE svg PUBLIC "-//W3C//DTD SVG 1.1//EN" "http://www.w3.org/Graphics/SVG/1.1/DTD/svg11.dtd" >
<svg xmlns="http://www.w3.org/2000/svg" xmlns:xlink="http://www.w3.org/1999/xlink" version="1.1">
<metadata>
Created by FontForge 20170731 at Tue Mar  9 14:05:48 2021
 By Aleksey,,,
Copyright (c) 2021 by Cosimo Lorenzo Pancini. All rights reserved.
</metadata>
<defs>
<font id="CocoSharpTrial-HeavyItalic" horiz-adv-x="0" >
  <font-face 
    font-family="CocoSharp Trial Heavy"
    font-weight="900"
    font-style="italic"
    font-stretch="normal"
    units-per-em="2000"
    panose-1="0 0 10 0 0 0 0 0 0 0"
    ascent="1600"
    descent="-400"
    x-height="1069"
    cap-height="1405"
    bbox="-1617 -773 2799 2235"
    underline-thickness="95"
    underline-position="-284"
    slope="-12"
    unicode-range="U+0010-F8FF"
  />
<missing-glyph horiz-adv-x="929" 
d="M173 1502h588v-1857h-588v1857zM618 1316v62h-306v-62h121v-68h-123v-62h308v62h-122v68h122zM496 1008v130h-186v-193h308v63h-122zM371 1075h62v-67h-62v67zM618 833v62h-308v-62h123v-68h-123v-62h186v130h122zM618 598v185h-61v-122h-247v-63h308zM618 347v210h-185
v-104h63v43h61v-88h-186v149h-61v-210h308zM618 26v210h-308v-210h308zM371 174h186v-87h-186v87zM618 -78v61h-308v-61h130l-130 -88v-61h308v61h-189l130 88h59z" />
    <glyph glyph-name=".notdef" horiz-adv-x="929" 
d="M173 1502h588v-1857h-588v1857zM618 1316v62h-306v-62h121v-68h-123v-62h308v62h-122v68h122zM496 1008v130h-186v-193h308v63h-122zM371 1075h62v-67h-62v67zM618 833v62h-308v-62h123v-68h-123v-62h186v130h122zM618 598v185h-61v-122h-247v-63h308zM618 347v210h-185
v-104h63v43h61v-88h-186v149h-61v-210h308zM618 26v210h-308v-210h308zM371 174h186v-87h-186v87zM618 -78v61h-308v-61h130l-130 -88v-61h308v61h-189l130 88h59z" />
    <glyph glyph-name="uni0000" 
 />
    <glyph glyph-name="uni0000" 
 />
    <glyph glyph-name="nonmarkingreturn" horiz-adv-x="666" 
 />
    <glyph glyph-name="uni0010" horiz-adv-x="1730" 
 />
    <glyph glyph-name="space" unicode=" " horiz-adv-x="461" 
 />
    <glyph glyph-name="exclam" unicode="!" horiz-adv-x="689" 
d="M503 457h-347l186 948h379zM88.5 13.5q-49.5 45.5 -49.5 117.5q0 18 5 43q13 57 51 104.5t94.5 75.5t121.5 28q86 0 135.5 -45.5t49.5 -117.5q0 -20 -5 -45q-12 -57 -50 -104t-95 -74.5t-123 -27.5q-85 0 -134.5 45.5z" />
    <glyph glyph-name="quotedbl" unicode="&#x22;" horiz-adv-x="811" 
d="M420 898h-289l93 507h318zM834 898h-289l93 507h318z" />
    <glyph glyph-name="numbersign" unicode="#" horiz-adv-x="1229" 
d="M325 23h-349l97 260h-120l64 284h160l80 214h-127l65 283h169l119 322h349l-120 -322h152l119 322h350l-122 -322h124l-64 -283h-164l-81 -214h131l-63 -284h-172l-97 -260h-348l97 260h-152zM607 781l-81 -214h154l78 214h-151z" />
    <glyph glyph-name="dollar" unicode="$" horiz-adv-x="1193" 
d="M1029 725.5q78 -97.5 78 -235.5q0 -101 -46.5 -203.5t-143.5 -183.5t-241 -113l-48 -222h-383l49 234q-196 58 -340 236l287 274q76 -72 160 -106.5t161 -34.5q103 0 103 48q0 26 -30.5 59t-140.5 72q-123 43 -220.5 139t-97.5 258q0 93 38 191.5t132.5 178.5t251.5 105
l48 228h383l-55 -257q164 -57 262 -177l-287 -291q-46 42 -111 75.5t-135 33.5q-41 0 -62 -13.5t-21 -33.5q0 -56 161 -107q170 -57 248 -154.5z" />
    <glyph glyph-name="percent" unicode="%" horiz-adv-x="2310" 
 />
    <glyph glyph-name="ampersand" unicode="&#x26;" horiz-adv-x="1590" 
d="M1570 922q-23 -141 -110.5 -297.5t-219.5 -293.5l204 -331h-456l-55 91q-216 -121 -428 -121q-132 0 -239.5 38.5t-171.5 119t-64 200.5q0 50 12 107q29 139 141 263.5t265 201.5l-89 148l76 357h944l-85 -401h-469l235 -381q85 130 142 300zM764 374l-161 267
q-23 -11 -49 -36.5t-45 -51t-21 -33.5q-6 -28 -6 -50q0 -47 24 -70.5t64 -30.5t105 -7q46 0 89 12z" />
    <glyph glyph-name="quotesingle" unicode="'" horiz-adv-x="397" 
d="M420 898h-289l93 507h318z" />
    <glyph glyph-name="parenleft" unicode="(" horiz-adv-x="729" 
d="M213 -431q-87 144 -130 313.5t-43 336.5q0 362 140.5 723t458.5 665l267 -206q-145 -172 -244.5 -375.5t-149 -414t-49.5 -408.5q0 -133 19 -256.5t55 -226.5z" />
    <glyph glyph-name="parenright" unicode=")" horiz-adv-x="728" 
d="M526 1545q86 -143 129 -313t43 -336q0 -362 -140 -723.5t-458 -664.5l-268 205q145 172 244.5 375.5t149.5 414.5t50 409q0 133 -19 256.5t-56 226.5z" />
    <glyph glyph-name="asterisk" unicode="*" horiz-adv-x="827" 
d="M913 1238l-50 -231l-176 15l74 -143l-224 -116l-40 161l-110 -161l-174 116l133 143l-182 -15l49 233l175 -16l-72 143l223 117l41 -160l110 160l175 -116l-133 -144z" />
    <glyph glyph-name="plus" unicode="+" horiz-adv-x="1102" 
d="M629 202h-305l73 349h-330l62 295h332l74 351h306l-75 -351h338l-62 -295h-339z" />
    <glyph glyph-name="comma" unicode="," horiz-adv-x="573" 
d="M-68 -260q104 83 152.5 138.5t55.5 87.5l3 11q-76 0 -118.5 42.5t-42.5 109.5q0 27 5 47q12 59 51.5 106t97 73.5t121.5 26.5q77 0 126.5 -45.5t49.5 -131.5q0 -37 -8 -70q-60 -284 -391 -516z" />
    <glyph glyph-name="hyphen" unicode="-" horiz-adv-x="912" 
d="M812 369h-784l70 326h784z" />
    <glyph glyph-name="period" unicode="." horiz-adv-x="573" 
d="M31.5 14q-49.5 46 -49.5 117q0 18 5 43q12 57 50 104.5t94.5 75.5t121.5 28q86 0 135.5 -45.5t49.5 -117.5q0 -20 -5 -45q-13 -57 -50.5 -104t-94.5 -74.5t-123 -27.5q-84 0 -133.5 46z" />
    <glyph glyph-name="slash" unicode="/" horiz-adv-x="1216" 
d="M239 -446h-446l1165 1851h441z" />
    <glyph glyph-name="zero" unicode="0" horiz-adv-x="2812" 
d="M2654 924v-386h-2508v386h972q5 73 44 133.5t101.5 95.5t136.5 35t136.5 -35t101.5 -95.5t44 -133.5h972zM1570 1094q-76 66 -170 66q-48 0 -92 -17.5t-78 -48.5h340zM1596 742q58 71 58 162q0 96 -64 170l-332 -332h338zM1202 1066q-58 -71 -58 -162q0 -48 17.5 -92
t48.5 -78l334 332h-342zM1928 642.5q38 36.5 38 91.5q0 54 -38 90t-94 36t-93 -36t-37 -90q0 -55 37 -91.5t93 -36.5t94 36.5zM328 784h56v70h-192v-70h58v-172h78v172zM522 612h82l-42 92q28 25 28 64q0 37 -27 61.5t-65 24.5h-100v-242h78v70h16zM616 612h76v242h-76v-242
zM866 650l10 -38h84l-82 242h-90l-82 -242h82l10 38h68zM974 612h164v66h-86v176h-78v-242zM2134 612h80v242h-78v-128l-74 128h-80v-242h78l-2 118zM2238 612h164v66h-86v176h-78v-242zM2524 612v96l82 146h-90l-32 -72l-30 72h-92l84 -146v-96h78zM1873 774q15 -16 15 -40
q0 -26 -15 -42t-39 -16q-23 0 -38.5 16.5t-15.5 41.5q0 24 15.5 40t38.5 16q24 0 39 -16zM496 788q6 0 11 -6t5 -14q0 -9 -5 -15.5t-11 -6.5h-20v42h20zM814 714l16 58h2l16 -58h-34zM1230 714q74 -64 170 -64q47 0 91 17t79 47h-340zM1112 352q25 -14 52 -14q22 0 37 12
t15 34q0 15 -12 25t-34 19q-18 6 -25 10.5t-7 15.5q0 10 8 16t20 6q10 0 21 -4t19 -10v26q-20 10 -40 10q-23 0 -37.5 -11.5t-14.5 -32.5q0 -19 10.5 -27.5t33.5 -18.5q18 -5 26 -10t8 -14q0 -12 -8 -18t-20 -6q-27 0 -52 18v-26zM1313 361q23 -23 57 -23q33 0 56.5 23
t23.5 57q0 33 -23.5 56.5t-56.5 23.5q-34 0 -57 -23.5t-23 -56.5q0 -34 23 -57zM1608 336v158h-24v-108l-98 110h-12v-156h24v104l98 -108h12zM244 494h-100v-154h24v58h66v22h-66v52h76v22zM264 400q0 -27 17.5 -44.5t44.5 -17.5q28 0 46 17.5t18 44.5v94h-24v-94
q0 -16 -11.5 -28t-28.5 -12t-27.5 11t-10.5 29v94h-24v-94zM444 494h-24v-154h94v22h-70v132zM560 494h-24v-154h96v22h-72v132zM776 340l64 154h-28l-44 -114l-44 114h-28l64 -154h16zM960 494h-100v-154h100v22h-76v46h66v20h-66v44h76v22zM1072 340h28l-30 62
q11 6 17.5 17.5t6.5 24.5q0 21 -14.5 35.5t-35.5 14.5h-58v-154h24v56h36zM1264 494h-24v-154h24v154zM1408.5 376.5q-15.5 -16.5 -38.5 -16.5q-24 0 -40 16.5t-16 41.5q0 24 16 40t40 16q23 0 38.5 -16t15.5 -40q0 -25 -15.5 -41.5zM1062.5 424q-7.5 -8 -18.5 -8h-34v56h34
q11 0 18.5 -8t7.5 -20t-7.5 -20zM2582 366l50 48l-50 48l-16 -14l26 -22h-916v-24h916l-26 -22zM1104 107.5q34 -33.5 84 -33.5q51 0 84.5 33t33.5 83q0 48 -33.5 81t-84.5 33q-50 0 -84 -33t-34 -81q0 -49 34 -82.5zM1724 94q31 -20 76 -20q39 0 63.5 19.5t24.5 54.5
q0 53 -72 70q-5 2 -13.5 4t-11.5 4.5t-3 7.5q0 8 22 8q14 0 32.5 -6t31.5 -16v68q-35 16 -64 16q-41 0 -65.5 -18t-24.5 -50q0 -28 15 -43.5t49 -26.5q7 -2 16 -4.5t13.5 -5.5t4.5 -8q0 -12 -18 -12q-26 0 -76 32v-74zM2014 107.5q34 -33.5 82 -33.5q24 0 52 14l2 70
q-20 -20 -50 -20q-21 0 -35.5 15t-14.5 37q0 21 14.5 35.5t35.5 14.5t44 -14v66q-21 12 -46 12q-50 0 -84 -33t-34 -81q0 -49 34 -82.5zM2190.5 107.5q34.5 -33.5 85.5 -33.5q50 0 84 33.5t34 82.5q0 48 -34 81t-84 33q-51 0 -85.5 -33t-34.5 -81q0 -49 34.5 -82.5zM146 236
h72l-82 -156h190v62h-76l82 156h-186v-62zM504 298h-158v-218h160v60h-90v20h76v60h-76v18h88v60zM514 236h52v-156h70v156h52v62h-174v-62zM746 114h62l8 -34h76l-74 218h-80l-74 -218h72zM1062 298h-158v-218h70v68h74v58h-74v32h88v60zM1530 80v218h-70v-116l-66 116h-72
v-218h70l-2 106l68 -106h72zM1542 236h52v-156h70v156h50v62h-172v-62zM2478 298h-70v-218h70v86l28 -54h50l28 54v-86h68v218h-70l-52 -100zM1222.5 152.5q-13.5 -14.5 -34.5 -14.5t-34.5 14.5t-13.5 37.5q0 21 13.5 35.5t34.5 14.5t34.5 -14.5t13.5 -35.5
q0 -23 -13.5 -37.5zM2310 153q-14 -15 -34 -15q-21 0 -35.5 15t-14.5 37q0 21 14.5 35.5t35.5 14.5q20 0 34 -14.5t14 -35.5q0 -22 -14 -37zM778 224l14 -52h-30l14 52h2zM1908 84q10 -10 26 -10q15 0 24.5 10t9.5 24t-9.5 23t-24.5 9q-16 0 -26 -9t-10 -23t10 -24z" />
    <glyph glyph-name="one" unicode="1" horiz-adv-x="2837" 
d="M2654 924v-386h-2508v386h972q5 73 44 133.5t101.5 95.5t136.5 35t136.5 -35t101.5 -95.5t44 -133.5h972zM1570 1094q-76 66 -170 66q-48 0 -92 -17.5t-78 -48.5h340zM1596 742q58 71 58 162q0 96 -64 170l-332 -332h338zM1202 1066q-58 -71 -58 -162q0 -48 17.5 -92
t48.5 -78l334 332h-342zM1928 642.5q38 36.5 38 91.5q0 54 -38 90t-94 36t-93 -36t-37 -90q0 -55 37 -91.5t93 -36.5t94 36.5zM328 784h56v70h-192v-70h58v-172h78v172zM522 612h82l-42 92q28 25 28 64q0 37 -27 61.5t-65 24.5h-100v-242h78v70h16zM616 612h76v242h-76v-242
zM866 650l10 -38h84l-82 242h-90l-82 -242h82l10 38h68zM974 612h164v66h-86v176h-78v-242zM2134 612h80v242h-78v-128l-74 128h-80v-242h78l-2 118zM2238 612h164v66h-86v176h-78v-242zM2524 612v96l82 146h-90l-32 -72l-30 72h-92l84 -146v-96h78zM1873 774q15 -16 15 -40
q0 -26 -15 -42t-39 -16q-23 0 -38.5 16.5t-15.5 41.5q0 24 15.5 40t38.5 16q24 0 39 -16zM496 788q6 0 11 -6t5 -14q0 -9 -5 -15.5t-11 -6.5h-20v42h20zM814 714l16 58h2l16 -58h-34zM1230 714q74 -64 170 -64q47 0 91 17t79 47h-340zM1112 352q25 -14 52 -14q22 0 37 12
t15 34q0 15 -12 25t-34 19q-18 6 -25 10.5t-7 15.5q0 10 8 16t20 6q10 0 21 -4t19 -10v26q-20 10 -40 10q-23 0 -37.5 -11.5t-14.5 -32.5q0 -19 10.5 -27.5t33.5 -18.5q18 -5 26 -10t8 -14q0 -12 -8 -18t-20 -6q-27 0 -52 18v-26zM1313 361q23 -23 57 -23q33 0 56.5 23
t23.5 57q0 33 -23.5 56.5t-56.5 23.5q-34 0 -57 -23.5t-23 -56.5q0 -34 23 -57zM1608 336v158h-24v-108l-98 110h-12v-156h24v104l98 -108h12zM244 494h-100v-154h24v58h66v22h-66v52h76v22zM264 400q0 -27 17.5 -44.5t44.5 -17.5q28 0 46 17.5t18 44.5v94h-24v-94
q0 -16 -11.5 -28t-28.5 -12t-27.5 11t-10.5 29v94h-24v-94zM444 494h-24v-154h94v22h-70v132zM560 494h-24v-154h96v22h-72v132zM776 340l64 154h-28l-44 -114l-44 114h-28l64 -154h16zM960 494h-100v-154h100v22h-76v46h66v20h-66v44h76v22zM1072 340h28l-30 62
q11 6 17.5 17.5t6.5 24.5q0 21 -14.5 35.5t-35.5 14.5h-58v-154h24v56h36zM1264 494h-24v-154h24v154zM1408.5 376.5q-15.5 -16.5 -38.5 -16.5q-24 0 -40 16.5t-16 41.5q0 24 16 40t40 16q23 0 38.5 -16t15.5 -40q0 -25 -15.5 -41.5zM1062.5 424q-7.5 -8 -18.5 -8h-34v56h34
q11 0 18.5 -8t7.5 -20t-7.5 -20zM2582 366l50 48l-50 48l-16 -14l26 -22h-916v-24h916l-26 -22zM1104 107.5q34 -33.5 84 -33.5q51 0 84.5 33t33.5 83q0 48 -33.5 81t-84.5 33q-50 0 -84 -33t-34 -81q0 -49 34 -82.5zM1724 94q31 -20 76 -20q39 0 63.5 19.5t24.5 54.5
q0 53 -72 70q-5 2 -13.5 4t-11.5 4.5t-3 7.5q0 8 22 8q14 0 32.5 -6t31.5 -16v68q-35 16 -64 16q-41 0 -65.5 -18t-24.5 -50q0 -28 15 -43.5t49 -26.5q7 -2 16 -4.5t13.5 -5.5t4.5 -8q0 -12 -18 -12q-26 0 -76 32v-74zM2014 107.5q34 -33.5 82 -33.5q24 0 52 14l2 70
q-20 -20 -50 -20q-21 0 -35.5 15t-14.5 37q0 21 14.5 35.5t35.5 14.5t44 -14v66q-21 12 -46 12q-50 0 -84 -33t-34 -81q0 -49 34 -82.5zM2190.5 107.5q34.5 -33.5 85.5 -33.5q50 0 84 33.5t34 82.5q0 48 -34 81t-84 33q-51 0 -85.5 -33t-34.5 -81q0 -49 34.5 -82.5zM146 236
h72l-82 -156h190v62h-76l82 156h-186v-62zM504 298h-158v-218h160v60h-90v20h76v60h-76v18h88v60zM514 236h52v-156h70v156h52v62h-174v-62zM746 114h62l8 -34h76l-74 218h-80l-74 -218h72zM1062 298h-158v-218h70v68h74v58h-74v32h88v60zM1530 80v218h-70v-116l-66 116h-72
v-218h70l-2 106l68 -106h72zM1542 236h52v-156h70v156h50v62h-172v-62zM2478 298h-70v-218h70v86l28 -54h50l28 54v-86h68v218h-70l-52 -100zM1222.5 152.5q-13.5 -14.5 -34.5 -14.5t-34.5 14.5t-13.5 37.5q0 21 13.5 35.5t34.5 14.5t34.5 -14.5t13.5 -35.5
q0 -23 -13.5 -37.5zM2310 153q-14 -15 -34 -15q-21 0 -35.5 15t-14.5 37q0 21 14.5 35.5t35.5 14.5q20 0 34 -14.5t14 -35.5q0 -22 -14 -37zM778 224l14 -52h-30l14 52h2zM1908 84q10 -10 26 -10q15 0 24.5 10t9.5 24t-9.5 23t-24.5 9q-16 0 -26 -9t-10 -23t10 -24z" />
    <glyph glyph-name="two" unicode="2" horiz-adv-x="2750" 
d="M2654 924v-386h-2508v386h972q5 73 44 133.5t101.5 95.5t136.5 35t136.5 -35t101.5 -95.5t44 -133.5h972zM1570 1094q-76 66 -170 66q-48 0 -92 -17.5t-78 -48.5h340zM1596 742q58 71 58 162q0 96 -64 170l-332 -332h338zM1202 1066q-58 -71 -58 -162q0 -48 17.5 -92
t48.5 -78l334 332h-342zM1928 642.5q38 36.5 38 91.5q0 54 -38 90t-94 36t-93 -36t-37 -90q0 -55 37 -91.5t93 -36.5t94 36.5zM328 784h56v70h-192v-70h58v-172h78v172zM522 612h82l-42 92q28 25 28 64q0 37 -27 61.5t-65 24.5h-100v-242h78v70h16zM616 612h76v242h-76v-242
zM866 650l10 -38h84l-82 242h-90l-82 -242h82l10 38h68zM974 612h164v66h-86v176h-78v-242zM2134 612h80v242h-78v-128l-74 128h-80v-242h78l-2 118zM2238 612h164v66h-86v176h-78v-242zM2524 612v96l82 146h-90l-32 -72l-30 72h-92l84 -146v-96h78zM1873 774q15 -16 15 -40
q0 -26 -15 -42t-39 -16q-23 0 -38.5 16.5t-15.5 41.5q0 24 15.5 40t38.5 16q24 0 39 -16zM496 788q6 0 11 -6t5 -14q0 -9 -5 -15.5t-11 -6.5h-20v42h20zM814 714l16 58h2l16 -58h-34zM1230 714q74 -64 170 -64q47 0 91 17t79 47h-340zM1112 352q25 -14 52 -14q22 0 37 12
t15 34q0 15 -12 25t-34 19q-18 6 -25 10.5t-7 15.5q0 10 8 16t20 6q10 0 21 -4t19 -10v26q-20 10 -40 10q-23 0 -37.5 -11.5t-14.5 -32.5q0 -19 10.5 -27.5t33.5 -18.5q18 -5 26 -10t8 -14q0 -12 -8 -18t-20 -6q-27 0 -52 18v-26zM1313 361q23 -23 57 -23q33 0 56.5 23
t23.5 57q0 33 -23.5 56.5t-56.5 23.5q-34 0 -57 -23.5t-23 -56.5q0 -34 23 -57zM1608 336v158h-24v-108l-98 110h-12v-156h24v104l98 -108h12zM244 494h-100v-154h24v58h66v22h-66v52h76v22zM264 400q0 -27 17.5 -44.5t44.5 -17.5q28 0 46 17.5t18 44.5v94h-24v-94
q0 -16 -11.5 -28t-28.5 -12t-27.5 11t-10.5 29v94h-24v-94zM444 494h-24v-154h94v22h-70v132zM560 494h-24v-154h96v22h-72v132zM776 340l64 154h-28l-44 -114l-44 114h-28l64 -154h16zM960 494h-100v-154h100v22h-76v46h66v20h-66v44h76v22zM1072 340h28l-30 62
q11 6 17.5 17.5t6.5 24.5q0 21 -14.5 35.5t-35.5 14.5h-58v-154h24v56h36zM1264 494h-24v-154h24v154zM1408.5 376.5q-15.5 -16.5 -38.5 -16.5q-24 0 -40 16.5t-16 41.5q0 24 16 40t40 16q23 0 38.5 -16t15.5 -40q0 -25 -15.5 -41.5zM1062.5 424q-7.5 -8 -18.5 -8h-34v56h34
q11 0 18.5 -8t7.5 -20t-7.5 -20zM2582 366l50 48l-50 48l-16 -14l26 -22h-916v-24h916l-26 -22zM1104 107.5q34 -33.5 84 -33.5q51 0 84.5 33t33.5 83q0 48 -33.5 81t-84.5 33q-50 0 -84 -33t-34 -81q0 -49 34 -82.5zM1724 94q31 -20 76 -20q39 0 63.5 19.5t24.5 54.5
q0 53 -72 70q-5 2 -13.5 4t-11.5 4.5t-3 7.5q0 8 22 8q14 0 32.5 -6t31.5 -16v68q-35 16 -64 16q-41 0 -65.5 -18t-24.5 -50q0 -28 15 -43.5t49 -26.5q7 -2 16 -4.5t13.5 -5.5t4.5 -8q0 -12 -18 -12q-26 0 -76 32v-74zM2014 107.5q34 -33.5 82 -33.5q24 0 52 14l2 70
q-20 -20 -50 -20q-21 0 -35.5 15t-14.5 37q0 21 14.5 35.5t35.5 14.5t44 -14v66q-21 12 -46 12q-50 0 -84 -33t-34 -81q0 -49 34 -82.5zM2190.5 107.5q34.5 -33.5 85.5 -33.5q50 0 84 33.5t34 82.5q0 48 -34 81t-84 33q-51 0 -85.5 -33t-34.5 -81q0 -49 34.5 -82.5zM146 236
h72l-82 -156h190v62h-76l82 156h-186v-62zM504 298h-158v-218h160v60h-90v20h76v60h-76v18h88v60zM514 236h52v-156h70v156h52v62h-174v-62zM746 114h62l8 -34h76l-74 218h-80l-74 -218h72zM1062 298h-158v-218h70v68h74v58h-74v32h88v60zM1530 80v218h-70v-116l-66 116h-72
v-218h70l-2 106l68 -106h72zM1542 236h52v-156h70v156h50v62h-172v-62zM2478 298h-70v-218h70v86l28 -54h50l28 54v-86h68v218h-70l-52 -100zM1222.5 152.5q-13.5 -14.5 -34.5 -14.5t-34.5 14.5t-13.5 37.5q0 21 13.5 35.5t34.5 14.5t34.5 -14.5t13.5 -35.5
q0 -23 -13.5 -37.5zM2310 153q-14 -15 -34 -15q-21 0 -35.5 15t-14.5 37q0 21 14.5 35.5t35.5 14.5q20 0 34 -14.5t14 -35.5q0 -22 -14 -37zM778 224l14 -52h-30l14 52h2zM1908 84q10 -10 26 -10q15 0 24.5 10t9.5 24t-9.5 23t-24.5 9q-16 0 -26 -9t-10 -23t10 -24z" />
    <glyph glyph-name="three" unicode="3" horiz-adv-x="2714" 
d="M2654 924v-386h-2508v386h972q5 73 44 133.5t101.5 95.5t136.5 35t136.5 -35t101.5 -95.5t44 -133.5h972zM1570 1094q-76 66 -170 66q-48 0 -92 -17.5t-78 -48.5h340zM1596 742q58 71 58 162q0 96 -64 170l-332 -332h338zM1202 1066q-58 -71 -58 -162q0 -48 17.5 -92
t48.5 -78l334 332h-342zM1928 642.5q38 36.5 38 91.5q0 54 -38 90t-94 36t-93 -36t-37 -90q0 -55 37 -91.5t93 -36.5t94 36.5zM328 784h56v70h-192v-70h58v-172h78v172zM522 612h82l-42 92q28 25 28 64q0 37 -27 61.5t-65 24.5h-100v-242h78v70h16zM616 612h76v242h-76v-242
zM866 650l10 -38h84l-82 242h-90l-82 -242h82l10 38h68zM974 612h164v66h-86v176h-78v-242zM2134 612h80v242h-78v-128l-74 128h-80v-242h78l-2 118zM2238 612h164v66h-86v176h-78v-242zM2524 612v96l82 146h-90l-32 -72l-30 72h-92l84 -146v-96h78zM1873 774q15 -16 15 -40
q0 -26 -15 -42t-39 -16q-23 0 -38.5 16.5t-15.5 41.5q0 24 15.5 40t38.5 16q24 0 39 -16zM496 788q6 0 11 -6t5 -14q0 -9 -5 -15.5t-11 -6.5h-20v42h20zM814 714l16 58h2l16 -58h-34zM1230 714q74 -64 170 -64q47 0 91 17t79 47h-340zM1112 352q25 -14 52 -14q22 0 37 12
t15 34q0 15 -12 25t-34 19q-18 6 -25 10.5t-7 15.5q0 10 8 16t20 6q10 0 21 -4t19 -10v26q-20 10 -40 10q-23 0 -37.5 -11.5t-14.5 -32.5q0 -19 10.5 -27.5t33.5 -18.5q18 -5 26 -10t8 -14q0 -12 -8 -18t-20 -6q-27 0 -52 18v-26zM1313 361q23 -23 57 -23q33 0 56.5 23
t23.5 57q0 33 -23.5 56.5t-56.5 23.5q-34 0 -57 -23.5t-23 -56.5q0 -34 23 -57zM1608 336v158h-24v-108l-98 110h-12v-156h24v104l98 -108h12zM244 494h-100v-154h24v58h66v22h-66v52h76v22zM264 400q0 -27 17.5 -44.5t44.5 -17.5q28 0 46 17.5t18 44.5v94h-24v-94
q0 -16 -11.5 -28t-28.5 -12t-27.5 11t-10.5 29v94h-24v-94zM444 494h-24v-154h94v22h-70v132zM560 494h-24v-154h96v22h-72v132zM776 340l64 154h-28l-44 -114l-44 114h-28l64 -154h16zM960 494h-100v-154h100v22h-76v46h66v20h-66v44h76v22zM1072 340h28l-30 62
q11 6 17.5 17.5t6.5 24.5q0 21 -14.5 35.5t-35.5 14.5h-58v-154h24v56h36zM1264 494h-24v-154h24v154zM1408.5 376.5q-15.5 -16.5 -38.5 -16.5q-24 0 -40 16.5t-16 41.5q0 24 16 40t40 16q23 0 38.5 -16t15.5 -40q0 -25 -15.5 -41.5zM1062.5 424q-7.5 -8 -18.5 -8h-34v56h34
q11 0 18.5 -8t7.5 -20t-7.5 -20zM2582 366l50 48l-50 48l-16 -14l26 -22h-916v-24h916l-26 -22zM1104 107.5q34 -33.5 84 -33.5q51 0 84.5 33t33.5 83q0 48 -33.5 81t-84.5 33q-50 0 -84 -33t-34 -81q0 -49 34 -82.5zM1724 94q31 -20 76 -20q39 0 63.5 19.5t24.5 54.5
q0 53 -72 70q-5 2 -13.5 4t-11.5 4.5t-3 7.5q0 8 22 8q14 0 32.5 -6t31.5 -16v68q-35 16 -64 16q-41 0 -65.5 -18t-24.5 -50q0 -28 15 -43.5t49 -26.5q7 -2 16 -4.5t13.5 -5.5t4.5 -8q0 -12 -18 -12q-26 0 -76 32v-74zM2014 107.5q34 -33.5 82 -33.5q24 0 52 14l2 70
q-20 -20 -50 -20q-21 0 -35.5 15t-14.5 37q0 21 14.5 35.5t35.5 14.5t44 -14v66q-21 12 -46 12q-50 0 -84 -33t-34 -81q0 -49 34 -82.5zM2190.5 107.5q34.5 -33.5 85.5 -33.5q50 0 84 33.5t34 82.5q0 48 -34 81t-84 33q-51 0 -85.5 -33t-34.5 -81q0 -49 34.5 -82.5zM146 236
h72l-82 -156h190v62h-76l82 156h-186v-62zM504 298h-158v-218h160v60h-90v20h76v60h-76v18h88v60zM514 236h52v-156h70v156h52v62h-174v-62zM746 114h62l8 -34h76l-74 218h-80l-74 -218h72zM1062 298h-158v-218h70v68h74v58h-74v32h88v60zM1530 80v218h-70v-116l-66 116h-72
v-218h70l-2 106l68 -106h72zM1542 236h52v-156h70v156h50v62h-172v-62zM2478 298h-70v-218h70v86l28 -54h50l28 54v-86h68v218h-70l-52 -100zM1222.5 152.5q-13.5 -14.5 -34.5 -14.5t-34.5 14.5t-13.5 37.5q0 21 13.5 35.5t34.5 14.5t34.5 -14.5t13.5 -35.5
q0 -23 -13.5 -37.5zM2310 153q-14 -15 -34 -15q-21 0 -35.5 15t-14.5 37q0 21 14.5 35.5t35.5 14.5q20 0 34 -14.5t14 -35.5q0 -22 -14 -37zM778 224l14 -52h-30l14 52h2zM1908 84q10 -10 26 -10q15 0 24.5 10t9.5 24t-9.5 23t-24.5 9q-16 0 -26 -9t-10 -23t10 -24z" />
    <glyph glyph-name="four" unicode="4" horiz-adv-x="2743" 
d="M2654 924v-386h-2508v386h972q5 73 44 133.5t101.5 95.5t136.5 35t136.5 -35t101.5 -95.5t44 -133.5h972zM1570 1094q-76 66 -170 66q-48 0 -92 -17.5t-78 -48.5h340zM1596 742q58 71 58 162q0 96 -64 170l-332 -332h338zM1202 1066q-58 -71 -58 -162q0 -48 17.5 -92
t48.5 -78l334 332h-342zM1928 642.5q38 36.5 38 91.5q0 54 -38 90t-94 36t-93 -36t-37 -90q0 -55 37 -91.5t93 -36.5t94 36.5zM328 784h56v70h-192v-70h58v-172h78v172zM522 612h82l-42 92q28 25 28 64q0 37 -27 61.5t-65 24.5h-100v-242h78v70h16zM616 612h76v242h-76v-242
zM866 650l10 -38h84l-82 242h-90l-82 -242h82l10 38h68zM974 612h164v66h-86v176h-78v-242zM2134 612h80v242h-78v-128l-74 128h-80v-242h78l-2 118zM2238 612h164v66h-86v176h-78v-242zM2524 612v96l82 146h-90l-32 -72l-30 72h-92l84 -146v-96h78zM1873 774q15 -16 15 -40
q0 -26 -15 -42t-39 -16q-23 0 -38.5 16.5t-15.5 41.5q0 24 15.5 40t38.5 16q24 0 39 -16zM496 788q6 0 11 -6t5 -14q0 -9 -5 -15.5t-11 -6.5h-20v42h20zM814 714l16 58h2l16 -58h-34zM1230 714q74 -64 170 -64q47 0 91 17t79 47h-340zM1112 352q25 -14 52 -14q22 0 37 12
t15 34q0 15 -12 25t-34 19q-18 6 -25 10.5t-7 15.5q0 10 8 16t20 6q10 0 21 -4t19 -10v26q-20 10 -40 10q-23 0 -37.5 -11.5t-14.5 -32.5q0 -19 10.5 -27.5t33.5 -18.5q18 -5 26 -10t8 -14q0 -12 -8 -18t-20 -6q-27 0 -52 18v-26zM1313 361q23 -23 57 -23q33 0 56.5 23
t23.5 57q0 33 -23.5 56.5t-56.5 23.5q-34 0 -57 -23.5t-23 -56.5q0 -34 23 -57zM1608 336v158h-24v-108l-98 110h-12v-156h24v104l98 -108h12zM244 494h-100v-154h24v58h66v22h-66v52h76v22zM264 400q0 -27 17.5 -44.5t44.5 -17.5q28 0 46 17.5t18 44.5v94h-24v-94
q0 -16 -11.5 -28t-28.5 -12t-27.5 11t-10.5 29v94h-24v-94zM444 494h-24v-154h94v22h-70v132zM560 494h-24v-154h96v22h-72v132zM776 340l64 154h-28l-44 -114l-44 114h-28l64 -154h16zM960 494h-100v-154h100v22h-76v46h66v20h-66v44h76v22zM1072 340h28l-30 62
q11 6 17.5 17.5t6.5 24.5q0 21 -14.5 35.5t-35.5 14.5h-58v-154h24v56h36zM1264 494h-24v-154h24v154zM1408.5 376.5q-15.5 -16.5 -38.5 -16.5q-24 0 -40 16.5t-16 41.5q0 24 16 40t40 16q23 0 38.5 -16t15.5 -40q0 -25 -15.5 -41.5zM1062.5 424q-7.5 -8 -18.5 -8h-34v56h34
q11 0 18.5 -8t7.5 -20t-7.5 -20zM2582 366l50 48l-50 48l-16 -14l26 -22h-916v-24h916l-26 -22zM1104 107.5q34 -33.5 84 -33.5q51 0 84.5 33t33.5 83q0 48 -33.5 81t-84.5 33q-50 0 -84 -33t-34 -81q0 -49 34 -82.5zM1724 94q31 -20 76 -20q39 0 63.5 19.5t24.5 54.5
q0 53 -72 70q-5 2 -13.5 4t-11.5 4.5t-3 7.5q0 8 22 8q14 0 32.5 -6t31.5 -16v68q-35 16 -64 16q-41 0 -65.5 -18t-24.5 -50q0 -28 15 -43.5t49 -26.5q7 -2 16 -4.5t13.5 -5.5t4.5 -8q0 -12 -18 -12q-26 0 -76 32v-74zM2014 107.5q34 -33.5 82 -33.5q24 0 52 14l2 70
q-20 -20 -50 -20q-21 0 -35.5 15t-14.5 37q0 21 14.5 35.5t35.5 14.5t44 -14v66q-21 12 -46 12q-50 0 -84 -33t-34 -81q0 -49 34 -82.5zM2190.5 107.5q34.5 -33.5 85.5 -33.5q50 0 84 33.5t34 82.5q0 48 -34 81t-84 33q-51 0 -85.5 -33t-34.5 -81q0 -49 34.5 -82.5zM146 236
h72l-82 -156h190v62h-76l82 156h-186v-62zM504 298h-158v-218h160v60h-90v20h76v60h-76v18h88v60zM514 236h52v-156h70v156h52v62h-174v-62zM746 114h62l8 -34h76l-74 218h-80l-74 -218h72zM1062 298h-158v-218h70v68h74v58h-74v32h88v60zM1530 80v218h-70v-116l-66 116h-72
v-218h70l-2 106l68 -106h72zM1542 236h52v-156h70v156h50v62h-172v-62zM2478 298h-70v-218h70v86l28 -54h50l28 54v-86h68v218h-70l-52 -100zM1222.5 152.5q-13.5 -14.5 -34.5 -14.5t-34.5 14.5t-13.5 37.5q0 21 13.5 35.5t34.5 14.5t34.5 -14.5t13.5 -35.5
q0 -23 -13.5 -37.5zM2310 153q-14 -15 -34 -15q-21 0 -35.5 15t-14.5 37q0 21 14.5 35.5t35.5 14.5q20 0 34 -14.5t14 -35.5q0 -22 -14 -37zM778 224l14 -52h-30l14 52h2zM1908 84q10 -10 26 -10q15 0 24.5 10t9.5 24t-9.5 23t-24.5 9q-16 0 -26 -9t-10 -23t10 -24z" />
    <glyph glyph-name="five" unicode="5" horiz-adv-x="2775" 
d="M2654 924v-386h-2508v386h972q5 73 44 133.5t101.5 95.5t136.5 35t136.5 -35t101.5 -95.5t44 -133.5h972zM1570 1094q-76 66 -170 66q-48 0 -92 -17.5t-78 -48.5h340zM1596 742q58 71 58 162q0 96 -64 170l-332 -332h338zM1202 1066q-58 -71 -58 -162q0 -48 17.5 -92
t48.5 -78l334 332h-342zM1928 642.5q38 36.5 38 91.5q0 54 -38 90t-94 36t-93 -36t-37 -90q0 -55 37 -91.5t93 -36.5t94 36.5zM328 784h56v70h-192v-70h58v-172h78v172zM522 612h82l-42 92q28 25 28 64q0 37 -27 61.5t-65 24.5h-100v-242h78v70h16zM616 612h76v242h-76v-242
zM866 650l10 -38h84l-82 242h-90l-82 -242h82l10 38h68zM974 612h164v66h-86v176h-78v-242zM2134 612h80v242h-78v-128l-74 128h-80v-242h78l-2 118zM2238 612h164v66h-86v176h-78v-242zM2524 612v96l82 146h-90l-32 -72l-30 72h-92l84 -146v-96h78zM1873 774q15 -16 15 -40
q0 -26 -15 -42t-39 -16q-23 0 -38.5 16.5t-15.5 41.5q0 24 15.5 40t38.5 16q24 0 39 -16zM496 788q6 0 11 -6t5 -14q0 -9 -5 -15.5t-11 -6.5h-20v42h20zM814 714l16 58h2l16 -58h-34zM1230 714q74 -64 170 -64q47 0 91 17t79 47h-340zM1112 352q25 -14 52 -14q22 0 37 12
t15 34q0 15 -12 25t-34 19q-18 6 -25 10.5t-7 15.5q0 10 8 16t20 6q10 0 21 -4t19 -10v26q-20 10 -40 10q-23 0 -37.5 -11.5t-14.5 -32.5q0 -19 10.5 -27.5t33.5 -18.5q18 -5 26 -10t8 -14q0 -12 -8 -18t-20 -6q-27 0 -52 18v-26zM1313 361q23 -23 57 -23q33 0 56.5 23
t23.5 57q0 33 -23.5 56.5t-56.5 23.5q-34 0 -57 -23.5t-23 -56.5q0 -34 23 -57zM1608 336v158h-24v-108l-98 110h-12v-156h24v104l98 -108h12zM244 494h-100v-154h24v58h66v22h-66v52h76v22zM264 400q0 -27 17.5 -44.5t44.5 -17.5q28 0 46 17.5t18 44.5v94h-24v-94
q0 -16 -11.5 -28t-28.5 -12t-27.5 11t-10.5 29v94h-24v-94zM444 494h-24v-154h94v22h-70v132zM560 494h-24v-154h96v22h-72v132zM776 340l64 154h-28l-44 -114l-44 114h-28l64 -154h16zM960 494h-100v-154h100v22h-76v46h66v20h-66v44h76v22zM1072 340h28l-30 62
q11 6 17.5 17.5t6.5 24.5q0 21 -14.5 35.5t-35.5 14.5h-58v-154h24v56h36zM1264 494h-24v-154h24v154zM1408.5 376.5q-15.5 -16.5 -38.5 -16.5q-24 0 -40 16.5t-16 41.5q0 24 16 40t40 16q23 0 38.5 -16t15.5 -40q0 -25 -15.5 -41.5zM1062.5 424q-7.5 -8 -18.5 -8h-34v56h34
q11 0 18.5 -8t7.5 -20t-7.5 -20zM2582 366l50 48l-50 48l-16 -14l26 -22h-916v-24h916l-26 -22zM1104 107.5q34 -33.5 84 -33.5q51 0 84.5 33t33.5 83q0 48 -33.5 81t-84.5 33q-50 0 -84 -33t-34 -81q0 -49 34 -82.5zM1724 94q31 -20 76 -20q39 0 63.5 19.5t24.5 54.5
q0 53 -72 70q-5 2 -13.5 4t-11.5 4.5t-3 7.5q0 8 22 8q14 0 32.5 -6t31.5 -16v68q-35 16 -64 16q-41 0 -65.5 -18t-24.5 -50q0 -28 15 -43.5t49 -26.5q7 -2 16 -4.5t13.5 -5.5t4.5 -8q0 -12 -18 -12q-26 0 -76 32v-74zM2014 107.5q34 -33.5 82 -33.5q24 0 52 14l2 70
q-20 -20 -50 -20q-21 0 -35.5 15t-14.5 37q0 21 14.5 35.5t35.5 14.5t44 -14v66q-21 12 -46 12q-50 0 -84 -33t-34 -81q0 -49 34 -82.5zM2190.5 107.5q34.5 -33.5 85.5 -33.5q50 0 84 33.5t34 82.5q0 48 -34 81t-84 33q-51 0 -85.5 -33t-34.5 -81q0 -49 34.5 -82.5zM146 236
h72l-82 -156h190v62h-76l82 156h-186v-62zM504 298h-158v-218h160v60h-90v20h76v60h-76v18h88v60zM514 236h52v-156h70v156h52v62h-174v-62zM746 114h62l8 -34h76l-74 218h-80l-74 -218h72zM1062 298h-158v-218h70v68h74v58h-74v32h88v60zM1530 80v218h-70v-116l-66 116h-72
v-218h70l-2 106l68 -106h72zM1542 236h52v-156h70v156h50v62h-172v-62zM2478 298h-70v-218h70v86l28 -54h50l28 54v-86h68v218h-70l-52 -100zM1222.5 152.5q-13.5 -14.5 -34.5 -14.5t-34.5 14.5t-13.5 37.5q0 21 13.5 35.5t34.5 14.5t34.5 -14.5t13.5 -35.5
q0 -23 -13.5 -37.5zM2310 153q-14 -15 -34 -15q-21 0 -35.5 15t-14.5 37q0 21 14.5 35.5t35.5 14.5q20 0 34 -14.5t14 -35.5q0 -22 -14 -37zM778 224l14 -52h-30l14 52h2zM1908 84q10 -10 26 -10q15 0 24.5 10t9.5 24t-9.5 23t-24.5 9q-16 0 -26 -9t-10 -23t10 -24z" />
    <glyph glyph-name="six" unicode="6" horiz-adv-x="2799" 
d="M2654 924v-386h-2508v386h972q5 73 44 133.5t101.5 95.5t136.5 35t136.5 -35t101.5 -95.5t44 -133.5h972zM1570 1094q-76 66 -170 66q-48 0 -92 -17.5t-78 -48.5h340zM1596 742q58 71 58 162q0 96 -64 170l-332 -332h338zM1202 1066q-58 -71 -58 -162q0 -48 17.5 -92
t48.5 -78l334 332h-342zM1928 642.5q38 36.5 38 91.5q0 54 -38 90t-94 36t-93 -36t-37 -90q0 -55 37 -91.5t93 -36.5t94 36.5zM328 784h56v70h-192v-70h58v-172h78v172zM522 612h82l-42 92q28 25 28 64q0 37 -27 61.5t-65 24.5h-100v-242h78v70h16zM616 612h76v242h-76v-242
zM866 650l10 -38h84l-82 242h-90l-82 -242h82l10 38h68zM974 612h164v66h-86v176h-78v-242zM2134 612h80v242h-78v-128l-74 128h-80v-242h78l-2 118zM2238 612h164v66h-86v176h-78v-242zM2524 612v96l82 146h-90l-32 -72l-30 72h-92l84 -146v-96h78zM1873 774q15 -16 15 -40
q0 -26 -15 -42t-39 -16q-23 0 -38.5 16.5t-15.5 41.5q0 24 15.5 40t38.5 16q24 0 39 -16zM496 788q6 0 11 -6t5 -14q0 -9 -5 -15.5t-11 -6.5h-20v42h20zM814 714l16 58h2l16 -58h-34zM1230 714q74 -64 170 -64q47 0 91 17t79 47h-340zM1112 352q25 -14 52 -14q22 0 37 12
t15 34q0 15 -12 25t-34 19q-18 6 -25 10.5t-7 15.5q0 10 8 16t20 6q10 0 21 -4t19 -10v26q-20 10 -40 10q-23 0 -37.5 -11.5t-14.5 -32.5q0 -19 10.5 -27.5t33.5 -18.5q18 -5 26 -10t8 -14q0 -12 -8 -18t-20 -6q-27 0 -52 18v-26zM1313 361q23 -23 57 -23q33 0 56.5 23
t23.5 57q0 33 -23.5 56.5t-56.5 23.5q-34 0 -57 -23.5t-23 -56.5q0 -34 23 -57zM1608 336v158h-24v-108l-98 110h-12v-156h24v104l98 -108h12zM244 494h-100v-154h24v58h66v22h-66v52h76v22zM264 400q0 -27 17.5 -44.5t44.5 -17.5q28 0 46 17.5t18 44.5v94h-24v-94
q0 -16 -11.5 -28t-28.5 -12t-27.5 11t-10.5 29v94h-24v-94zM444 494h-24v-154h94v22h-70v132zM560 494h-24v-154h96v22h-72v132zM776 340l64 154h-28l-44 -114l-44 114h-28l64 -154h16zM960 494h-100v-154h100v22h-76v46h66v20h-66v44h76v22zM1072 340h28l-30 62
q11 6 17.5 17.5t6.5 24.5q0 21 -14.5 35.5t-35.5 14.5h-58v-154h24v56h36zM1264 494h-24v-154h24v154zM1408.5 376.5q-15.5 -16.5 -38.5 -16.5q-24 0 -40 16.5t-16 41.5q0 24 16 40t40 16q23 0 38.5 -16t15.5 -40q0 -25 -15.5 -41.5zM1062.5 424q-7.5 -8 -18.5 -8h-34v56h34
q11 0 18.5 -8t7.5 -20t-7.5 -20zM2582 366l50 48l-50 48l-16 -14l26 -22h-916v-24h916l-26 -22zM1104 107.5q34 -33.5 84 -33.5q51 0 84.5 33t33.5 83q0 48 -33.5 81t-84.5 33q-50 0 -84 -33t-34 -81q0 -49 34 -82.5zM1724 94q31 -20 76 -20q39 0 63.5 19.5t24.5 54.5
q0 53 -72 70q-5 2 -13.5 4t-11.5 4.5t-3 7.5q0 8 22 8q14 0 32.5 -6t31.5 -16v68q-35 16 -64 16q-41 0 -65.5 -18t-24.5 -50q0 -28 15 -43.5t49 -26.5q7 -2 16 -4.5t13.5 -5.5t4.5 -8q0 -12 -18 -12q-26 0 -76 32v-74zM2014 107.5q34 -33.5 82 -33.5q24 0 52 14l2 70
q-20 -20 -50 -20q-21 0 -35.5 15t-14.5 37q0 21 14.5 35.5t35.5 14.5t44 -14v66q-21 12 -46 12q-50 0 -84 -33t-34 -81q0 -49 34 -82.5zM2190.5 107.5q34.5 -33.5 85.5 -33.5q50 0 84 33.5t34 82.5q0 48 -34 81t-84 33q-51 0 -85.5 -33t-34.5 -81q0 -49 34.5 -82.5zM146 236
h72l-82 -156h190v62h-76l82 156h-186v-62zM504 298h-158v-218h160v60h-90v20h76v60h-76v18h88v60zM514 236h52v-156h70v156h52v62h-174v-62zM746 114h62l8 -34h76l-74 218h-80l-74 -218h72zM1062 298h-158v-218h70v68h74v58h-74v32h88v60zM1530 80v218h-70v-116l-66 116h-72
v-218h70l-2 106l68 -106h72zM1542 236h52v-156h70v156h50v62h-172v-62zM2478 298h-70v-218h70v86l28 -54h50l28 54v-86h68v218h-70l-52 -100zM1222.5 152.5q-13.5 -14.5 -34.5 -14.5t-34.5 14.5t-13.5 37.5q0 21 13.5 35.5t34.5 14.5t34.5 -14.5t13.5 -35.5
q0 -23 -13.5 -37.5zM2310 153q-14 -15 -34 -15q-21 0 -35.5 15t-14.5 37q0 21 14.5 35.5t35.5 14.5q20 0 34 -14.5t14 -35.5q0 -22 -14 -37zM778 224l14 -52h-30l14 52h2zM1908 84q10 -10 26 -10q15 0 24.5 10t9.5 24t-9.5 23t-24.5 9q-16 0 -26 -9t-10 -23t10 -24z" />
    <glyph glyph-name="seven" unicode="7" horiz-adv-x="2828" 
d="M2654 924v-386h-2508v386h972q5 73 44 133.5t101.5 95.5t136.5 35t136.5 -35t101.5 -95.5t44 -133.5h972zM1570 1094q-76 66 -170 66q-48 0 -92 -17.5t-78 -48.5h340zM1596 742q58 71 58 162q0 96 -64 170l-332 -332h338zM1202 1066q-58 -71 -58 -162q0 -48 17.5 -92
t48.5 -78l334 332h-342zM1928 642.5q38 36.5 38 91.5q0 54 -38 90t-94 36t-93 -36t-37 -90q0 -55 37 -91.5t93 -36.5t94 36.5zM328 784h56v70h-192v-70h58v-172h78v172zM522 612h82l-42 92q28 25 28 64q0 37 -27 61.5t-65 24.5h-100v-242h78v70h16zM616 612h76v242h-76v-242
zM866 650l10 -38h84l-82 242h-90l-82 -242h82l10 38h68zM974 612h164v66h-86v176h-78v-242zM2134 612h80v242h-78v-128l-74 128h-80v-242h78l-2 118zM2238 612h164v66h-86v176h-78v-242zM2524 612v96l82 146h-90l-32 -72l-30 72h-92l84 -146v-96h78zM1873 774q15 -16 15 -40
q0 -26 -15 -42t-39 -16q-23 0 -38.5 16.5t-15.5 41.5q0 24 15.5 40t38.5 16q24 0 39 -16zM496 788q6 0 11 -6t5 -14q0 -9 -5 -15.5t-11 -6.5h-20v42h20zM814 714l16 58h2l16 -58h-34zM1230 714q74 -64 170 -64q47 0 91 17t79 47h-340zM1112 352q25 -14 52 -14q22 0 37 12
t15 34q0 15 -12 25t-34 19q-18 6 -25 10.5t-7 15.5q0 10 8 16t20 6q10 0 21 -4t19 -10v26q-20 10 -40 10q-23 0 -37.5 -11.5t-14.5 -32.5q0 -19 10.5 -27.5t33.5 -18.5q18 -5 26 -10t8 -14q0 -12 -8 -18t-20 -6q-27 0 -52 18v-26zM1313 361q23 -23 57 -23q33 0 56.5 23
t23.5 57q0 33 -23.5 56.5t-56.5 23.5q-34 0 -57 -23.5t-23 -56.5q0 -34 23 -57zM1608 336v158h-24v-108l-98 110h-12v-156h24v104l98 -108h12zM244 494h-100v-154h24v58h66v22h-66v52h76v22zM264 400q0 -27 17.5 -44.5t44.5 -17.5q28 0 46 17.5t18 44.5v94h-24v-94
q0 -16 -11.5 -28t-28.5 -12t-27.5 11t-10.5 29v94h-24v-94zM444 494h-24v-154h94v22h-70v132zM560 494h-24v-154h96v22h-72v132zM776 340l64 154h-28l-44 -114l-44 114h-28l64 -154h16zM960 494h-100v-154h100v22h-76v46h66v20h-66v44h76v22zM1072 340h28l-30 62
q11 6 17.5 17.5t6.5 24.5q0 21 -14.5 35.5t-35.5 14.5h-58v-154h24v56h36zM1264 494h-24v-154h24v154zM1408.5 376.5q-15.5 -16.5 -38.5 -16.5q-24 0 -40 16.5t-16 41.5q0 24 16 40t40 16q23 0 38.5 -16t15.5 -40q0 -25 -15.5 -41.5zM1062.5 424q-7.5 -8 -18.5 -8h-34v56h34
q11 0 18.5 -8t7.5 -20t-7.5 -20zM2582 366l50 48l-50 48l-16 -14l26 -22h-916v-24h916l-26 -22zM1104 107.5q34 -33.5 84 -33.5q51 0 84.5 33t33.5 83q0 48 -33.5 81t-84.5 33q-50 0 -84 -33t-34 -81q0 -49 34 -82.5zM1724 94q31 -20 76 -20q39 0 63.5 19.5t24.5 54.5
q0 53 -72 70q-5 2 -13.5 4t-11.5 4.5t-3 7.5q0 8 22 8q14 0 32.5 -6t31.5 -16v68q-35 16 -64 16q-41 0 -65.5 -18t-24.5 -50q0 -28 15 -43.5t49 -26.5q7 -2 16 -4.5t13.5 -5.5t4.5 -8q0 -12 -18 -12q-26 0 -76 32v-74zM2014 107.5q34 -33.5 82 -33.5q24 0 52 14l2 70
q-20 -20 -50 -20q-21 0 -35.5 15t-14.5 37q0 21 14.5 35.5t35.5 14.5t44 -14v66q-21 12 -46 12q-50 0 -84 -33t-34 -81q0 -49 34 -82.5zM2190.5 107.5q34.5 -33.5 85.5 -33.5q50 0 84 33.5t34 82.5q0 48 -34 81t-84 33q-51 0 -85.5 -33t-34.5 -81q0 -49 34.5 -82.5zM146 236
h72l-82 -156h190v62h-76l82 156h-186v-62zM504 298h-158v-218h160v60h-90v20h76v60h-76v18h88v60zM514 236h52v-156h70v156h52v62h-174v-62zM746 114h62l8 -34h76l-74 218h-80l-74 -218h72zM1062 298h-158v-218h70v68h74v58h-74v32h88v60zM1530 80v218h-70v-116l-66 116h-72
v-218h70l-2 106l68 -106h72zM1542 236h52v-156h70v156h50v62h-172v-62zM2478 298h-70v-218h70v86l28 -54h50l28 54v-86h68v218h-70l-52 -100zM1222.5 152.5q-13.5 -14.5 -34.5 -14.5t-34.5 14.5t-13.5 37.5q0 21 13.5 35.5t34.5 14.5t34.5 -14.5t13.5 -35.5
q0 -23 -13.5 -37.5zM2310 153q-14 -15 -34 -15q-21 0 -35.5 15t-14.5 37q0 21 14.5 35.5t35.5 14.5q20 0 34 -14.5t14 -35.5q0 -22 -14 -37zM778 224l14 -52h-30l14 52h2zM1908 84q10 -10 26 -10q15 0 24.5 10t9.5 24t-9.5 23t-24.5 9q-16 0 -26 -9t-10 -23t10 -24z" />
    <glyph glyph-name="eight" unicode="8" horiz-adv-x="2850" 
d="M2654 924v-386h-2508v386h972q5 73 44 133.5t101.5 95.5t136.5 35t136.5 -35t101.5 -95.5t44 -133.5h972zM1570 1094q-76 66 -170 66q-48 0 -92 -17.5t-78 -48.5h340zM1596 742q58 71 58 162q0 96 -64 170l-332 -332h338zM1202 1066q-58 -71 -58 -162q0 -48 17.5 -92
t48.5 -78l334 332h-342zM1928 642.5q38 36.5 38 91.5q0 54 -38 90t-94 36t-93 -36t-37 -90q0 -55 37 -91.5t93 -36.5t94 36.5zM328 784h56v70h-192v-70h58v-172h78v172zM522 612h82l-42 92q28 25 28 64q0 37 -27 61.5t-65 24.5h-100v-242h78v70h16zM616 612h76v242h-76v-242
zM866 650l10 -38h84l-82 242h-90l-82 -242h82l10 38h68zM974 612h164v66h-86v176h-78v-242zM2134 612h80v242h-78v-128l-74 128h-80v-242h78l-2 118zM2238 612h164v66h-86v176h-78v-242zM2524 612v96l82 146h-90l-32 -72l-30 72h-92l84 -146v-96h78zM1873 774q15 -16 15 -40
q0 -26 -15 -42t-39 -16q-23 0 -38.5 16.5t-15.5 41.5q0 24 15.5 40t38.5 16q24 0 39 -16zM496 788q6 0 11 -6t5 -14q0 -9 -5 -15.5t-11 -6.5h-20v42h20zM814 714l16 58h2l16 -58h-34zM1230 714q74 -64 170 -64q47 0 91 17t79 47h-340zM1112 352q25 -14 52 -14q22 0 37 12
t15 34q0 15 -12 25t-34 19q-18 6 -25 10.5t-7 15.5q0 10 8 16t20 6q10 0 21 -4t19 -10v26q-20 10 -40 10q-23 0 -37.5 -11.5t-14.5 -32.5q0 -19 10.5 -27.5t33.5 -18.5q18 -5 26 -10t8 -14q0 -12 -8 -18t-20 -6q-27 0 -52 18v-26zM1313 361q23 -23 57 -23q33 0 56.5 23
t23.5 57q0 33 -23.5 56.5t-56.5 23.5q-34 0 -57 -23.5t-23 -56.5q0 -34 23 -57zM1608 336v158h-24v-108l-98 110h-12v-156h24v104l98 -108h12zM244 494h-100v-154h24v58h66v22h-66v52h76v22zM264 400q0 -27 17.5 -44.5t44.5 -17.5q28 0 46 17.5t18 44.5v94h-24v-94
q0 -16 -11.5 -28t-28.5 -12t-27.5 11t-10.5 29v94h-24v-94zM444 494h-24v-154h94v22h-70v132zM560 494h-24v-154h96v22h-72v132zM776 340l64 154h-28l-44 -114l-44 114h-28l64 -154h16zM960 494h-100v-154h100v22h-76v46h66v20h-66v44h76v22zM1072 340h28l-30 62
q11 6 17.5 17.5t6.5 24.5q0 21 -14.5 35.5t-35.5 14.5h-58v-154h24v56h36zM1264 494h-24v-154h24v154zM1408.5 376.5q-15.5 -16.5 -38.5 -16.5q-24 0 -40 16.5t-16 41.5q0 24 16 40t40 16q23 0 38.5 -16t15.5 -40q0 -25 -15.5 -41.5zM1062.5 424q-7.5 -8 -18.5 -8h-34v56h34
q11 0 18.5 -8t7.5 -20t-7.5 -20zM2582 366l50 48l-50 48l-16 -14l26 -22h-916v-24h916l-26 -22zM1104 107.5q34 -33.5 84 -33.5q51 0 84.5 33t33.5 83q0 48 -33.5 81t-84.5 33q-50 0 -84 -33t-34 -81q0 -49 34 -82.5zM1724 94q31 -20 76 -20q39 0 63.5 19.5t24.5 54.5
q0 53 -72 70q-5 2 -13.5 4t-11.5 4.5t-3 7.5q0 8 22 8q14 0 32.5 -6t31.5 -16v68q-35 16 -64 16q-41 0 -65.5 -18t-24.5 -50q0 -28 15 -43.5t49 -26.5q7 -2 16 -4.5t13.5 -5.5t4.5 -8q0 -12 -18 -12q-26 0 -76 32v-74zM2014 107.5q34 -33.5 82 -33.5q24 0 52 14l2 70
q-20 -20 -50 -20q-21 0 -35.5 15t-14.5 37q0 21 14.5 35.5t35.5 14.5t44 -14v66q-21 12 -46 12q-50 0 -84 -33t-34 -81q0 -49 34 -82.5zM2190.5 107.5q34.5 -33.5 85.5 -33.5q50 0 84 33.5t34 82.5q0 48 -34 81t-84 33q-51 0 -85.5 -33t-34.5 -81q0 -49 34.5 -82.5zM146 236
h72l-82 -156h190v62h-76l82 156h-186v-62zM504 298h-158v-218h160v60h-90v20h76v60h-76v18h88v60zM514 236h52v-156h70v156h52v62h-174v-62zM746 114h62l8 -34h76l-74 218h-80l-74 -218h72zM1062 298h-158v-218h70v68h74v58h-74v32h88v60zM1530 80v218h-70v-116l-66 116h-72
v-218h70l-2 106l68 -106h72zM1542 236h52v-156h70v156h50v62h-172v-62zM2478 298h-70v-218h70v86l28 -54h50l28 54v-86h68v218h-70l-52 -100zM1222.5 152.5q-13.5 -14.5 -34.5 -14.5t-34.5 14.5t-13.5 37.5q0 21 13.5 35.5t34.5 14.5t34.5 -14.5t13.5 -35.5
q0 -23 -13.5 -37.5zM2310 153q-14 -15 -34 -15q-21 0 -35.5 15t-14.5 37q0 21 14.5 35.5t35.5 14.5q20 0 34 -14.5t14 -35.5q0 -22 -14 -37zM778 224l14 -52h-30l14 52h2zM1908 84q10 -10 26 -10q15 0 24.5 10t9.5 24t-9.5 23t-24.5 9q-16 0 -26 -9t-10 -23t10 -24z" />
    <glyph glyph-name="nine" unicode="9" horiz-adv-x="2799" 
d="M2654 924v-386h-2508v386h972q5 73 44 133.5t101.5 95.5t136.5 35t136.5 -35t101.5 -95.5t44 -133.5h972zM1570 1094q-76 66 -170 66q-48 0 -92 -17.5t-78 -48.5h340zM1596 742q58 71 58 162q0 96 -64 170l-332 -332h338zM1202 1066q-58 -71 -58 -162q0 -48 17.5 -92
t48.5 -78l334 332h-342zM1928 642.5q38 36.5 38 91.5q0 54 -38 90t-94 36t-93 -36t-37 -90q0 -55 37 -91.5t93 -36.5t94 36.5zM328 784h56v70h-192v-70h58v-172h78v172zM522 612h82l-42 92q28 25 28 64q0 37 -27 61.5t-65 24.5h-100v-242h78v70h16zM616 612h76v242h-76v-242
zM866 650l10 -38h84l-82 242h-90l-82 -242h82l10 38h68zM974 612h164v66h-86v176h-78v-242zM2134 612h80v242h-78v-128l-74 128h-80v-242h78l-2 118zM2238 612h164v66h-86v176h-78v-242zM2524 612v96l82 146h-90l-32 -72l-30 72h-92l84 -146v-96h78zM1873 774q15 -16 15 -40
q0 -26 -15 -42t-39 -16q-23 0 -38.5 16.5t-15.5 41.5q0 24 15.5 40t38.5 16q24 0 39 -16zM496 788q6 0 11 -6t5 -14q0 -9 -5 -15.5t-11 -6.5h-20v42h20zM814 714l16 58h2l16 -58h-34zM1230 714q74 -64 170 -64q47 0 91 17t79 47h-340zM1112 352q25 -14 52 -14q22 0 37 12
t15 34q0 15 -12 25t-34 19q-18 6 -25 10.5t-7 15.5q0 10 8 16t20 6q10 0 21 -4t19 -10v26q-20 10 -40 10q-23 0 -37.5 -11.5t-14.5 -32.5q0 -19 10.5 -27.5t33.5 -18.5q18 -5 26 -10t8 -14q0 -12 -8 -18t-20 -6q-27 0 -52 18v-26zM1313 361q23 -23 57 -23q33 0 56.5 23
t23.5 57q0 33 -23.5 56.5t-56.5 23.5q-34 0 -57 -23.5t-23 -56.5q0 -34 23 -57zM1608 336v158h-24v-108l-98 110h-12v-156h24v104l98 -108h12zM244 494h-100v-154h24v58h66v22h-66v52h76v22zM264 400q0 -27 17.5 -44.5t44.5 -17.5q28 0 46 17.5t18 44.5v94h-24v-94
q0 -16 -11.5 -28t-28.5 -12t-27.5 11t-10.5 29v94h-24v-94zM444 494h-24v-154h94v22h-70v132zM560 494h-24v-154h96v22h-72v132zM776 340l64 154h-28l-44 -114l-44 114h-28l64 -154h16zM960 494h-100v-154h100v22h-76v46h66v20h-66v44h76v22zM1072 340h28l-30 62
q11 6 17.5 17.5t6.5 24.5q0 21 -14.5 35.5t-35.5 14.5h-58v-154h24v56h36zM1264 494h-24v-154h24v154zM1408.5 376.5q-15.5 -16.5 -38.5 -16.5q-24 0 -40 16.5t-16 41.5q0 24 16 40t40 16q23 0 38.5 -16t15.5 -40q0 -25 -15.5 -41.5zM1062.5 424q-7.5 -8 -18.5 -8h-34v56h34
q11 0 18.5 -8t7.5 -20t-7.5 -20zM2582 366l50 48l-50 48l-16 -14l26 -22h-916v-24h916l-26 -22zM1104 107.5q34 -33.5 84 -33.5q51 0 84.5 33t33.5 83q0 48 -33.5 81t-84.5 33q-50 0 -84 -33t-34 -81q0 -49 34 -82.5zM1724 94q31 -20 76 -20q39 0 63.5 19.5t24.5 54.5
q0 53 -72 70q-5 2 -13.5 4t-11.5 4.5t-3 7.5q0 8 22 8q14 0 32.5 -6t31.5 -16v68q-35 16 -64 16q-41 0 -65.5 -18t-24.5 -50q0 -28 15 -43.5t49 -26.5q7 -2 16 -4.5t13.5 -5.5t4.5 -8q0 -12 -18 -12q-26 0 -76 32v-74zM2014 107.5q34 -33.5 82 -33.5q24 0 52 14l2 70
q-20 -20 -50 -20q-21 0 -35.5 15t-14.5 37q0 21 14.5 35.5t35.5 14.5t44 -14v66q-21 12 -46 12q-50 0 -84 -33t-34 -81q0 -49 34 -82.5zM2190.5 107.5q34.5 -33.5 85.5 -33.5q50 0 84 33.5t34 82.5q0 48 -34 81t-84 33q-51 0 -85.5 -33t-34.5 -81q0 -49 34.5 -82.5zM146 236
h72l-82 -156h190v62h-76l82 156h-186v-62zM504 298h-158v-218h160v60h-90v20h76v60h-76v18h88v60zM514 236h52v-156h70v156h52v62h-174v-62zM746 114h62l8 -34h76l-74 218h-80l-74 -218h72zM1062 298h-158v-218h70v68h74v58h-74v32h88v60zM1530 80v218h-70v-116l-66 116h-72
v-218h70l-2 106l68 -106h72zM1542 236h52v-156h70v156h50v62h-172v-62zM2478 298h-70v-218h70v86l28 -54h50l28 54v-86h68v218h-70l-52 -100zM1222.5 152.5q-13.5 -14.5 -34.5 -14.5t-34.5 14.5t-13.5 37.5q0 21 13.5 35.5t34.5 14.5t34.5 -14.5t13.5 -35.5
q0 -23 -13.5 -37.5zM2310 153q-14 -15 -34 -15q-21 0 -35.5 15t-14.5 37q0 21 14.5 35.5t35.5 14.5q20 0 34 -14.5t14 -35.5q0 -22 -14 -37zM778 224l14 -52h-30l14 52h2zM1908 84q10 -10 26 -10q15 0 24.5 10t9.5 24t-9.5 23t-24.5 9q-16 0 -26 -9t-10 -23t10 -24z" />
    <glyph glyph-name="colon" unicode=":" horiz-adv-x="574" 
d="M187.5 745q-49.5 46 -49.5 117q0 18 5 43q12 57 50 104.5t94.5 75.5t121.5 28q86 0 135.5 -45.5t49.5 -117.5q0 -20 -5 -45q-13 -57 -50.5 -104t-94.5 -74.5t-123 -27.5q-84 0 -133.5 46zM30.5 13q-49.5 46 -49.5 117q0 18 5 43q12 57 50 104.5t94.5 75.5t121.5 28
q86 0 135.5 -45.5t49.5 -117.5q0 -20 -5 -45q-13 -57 -50.5 -104t-94.5 -74.5t-123 -27.5q-84 0 -133.5 46z" />
    <glyph glyph-name="semicolon" unicode=";" horiz-adv-x="575" 
d="M-67 -260q104 83 152.5 138.5t55.5 87.5l3 11q-76 0 -118.5 42.5t-42.5 109.5q0 27 5 47q12 59 51.5 106t97 73.5t121.5 26.5q77 0 126.5 -45.5t49.5 -131.5q0 -37 -8 -70q-60 -284 -391 -516zM188.5 746q-49.5 46 -49.5 117q0 18 5 43q12 57 50 104.5t94.5 75.5
t121.5 28q86 0 135.5 -45.5t49.5 -117.5q0 -20 -5 -45q-13 -57 -50.5 -104t-94.5 -74.5t-123 -27.5q-84 0 -133.5 46z" />
    <glyph glyph-name="less" unicode="&#x3c;" horiz-adv-x="1093" 
d="M119 797l1061 450l-81 -384l-550 -201l464 -203l-74 -344l-870 447z" />
    <glyph glyph-name="equal" unicode="=" horiz-adv-x="1090" 
d="M1076 768h-963l67 313h963zM974 290h-962l66 313h963z" />
    <glyph glyph-name="greater" unicode="&#x3e;" horiz-adv-x="1093" 
d="M1036 566l-1061 -449l81 383l551 201l-465 203l74 345l870 -447z" />
    <glyph glyph-name="question" unicode="?" horiz-adv-x="1093" 
d="M345 495q23 108 59.5 177t85 112t123.5 87q180 104 180 186q0 66 -98 66q-62 0 -96 -33t-48 -101h-388q46 217 200 335t417 118q118 0 211 -40t145.5 -115.5t52.5 -177.5q0 -139 -83.5 -245.5t-200.5 -166.5q-95 -48 -146.5 -92t-65.5 -110l-9 -37h-347zM283.5 12.5
q-47.5 44.5 -47.5 114.5q0 58 33.5 115.5t94 94.5t138.5 37q85 0 133 -45t48 -115q0 -59 -33.5 -116t-95 -93.5t-140.5 -36.5q-83 0 -130.5 44.5z" />
    <glyph glyph-name="at" unicode="@" horiz-adv-x="1860" 
d="M1422 1258q172 -82 279.5 -237t107.5 -363q0 -137 -60.5 -275.5t-176 -230t-273.5 -91.5q-119 0 -188.5 50.5t-102.5 126.5q-100 -97 -240 -97q-73 0 -132.5 34t-93.5 97t-34 146q0 105 54.5 211.5t148.5 175t205 68.5q130 0 195 -85l62 71h218l-88 -412q-4 -22 -4 -31
q0 -30 18 -46.5t53 -16.5q41 0 67.5 54.5t38 123.5t11.5 113q0 119 -57 211.5t-158 143.5t-230 51q-191 0 -345.5 -99t-241.5 -255t-87 -316q0 -120 53.5 -216.5t155.5 -152.5t242 -56q70 0 143 16t171 60l68 -263q-135 -54 -226.5 -76.5t-204.5 -22.5q-219 0 -383 89.5
t-252.5 247.5t-88.5 358q0 239 133.5 465.5t366.5 368.5t516 142q188 0 360 -82zM973 457q26 28 26 63q0 25 -17 40t-47 15q-41 0 -66 -27.5t-25 -62.5q0 -26 16 -41t44 -15q43 0 69 28z" />
    <glyph glyph-name="A" unicode="A" horiz-adv-x="1450" 
d="M1330 0h-432l-17 178h-440l-94 -178h-454l833 1407h373zM779 816l-149 -281h216l-28 281l-3 76h-4z" />
    <glyph glyph-name="B" unicode="B" horiz-adv-x="1311" 
d="M8 0l299 1405h529q224 0 348 -81.5t124 -254.5q0 -105 -55.5 -190t-154.5 -123q67 -29 104.5 -97.5t37.5 -154.5q0 -154 -83 -268.5t-219.5 -175t-292.5 -60.5h-637zM734 887q46 0 76 19.5t43.5 44t13.5 38.5q0 25 -22.5 37.5t-58.5 12.5h-124l-32 -152h104zM672 358
q40 0 72.5 19.5t51 48t18.5 55.5q0 36 -21 62t-65 26h-168l-44 -211h156z" />
    <glyph glyph-name="C" unicode="C" horiz-adv-x="1312" 
d="M385 42.5q-143 73.5 -218.5 211.5t-75.5 327q0 217 111 415t306 319.5t433 121.5q170 0 296.5 -56.5t199.5 -151.5l-304 -317q-29 31 -57.5 54t-76 41t-110.5 18q-99 0 -182 -50.5t-131.5 -138.5t-48.5 -197q0 -85 31.5 -143t86 -87t124.5 -29q144 0 242 81l190 -301
q-109 -93 -235.5 -142t-240.5 -49q-197 0 -340 73.5z" />
    <glyph glyph-name="D" unicode="D" horiz-adv-x="1487" 
d="M8 0l299 1405h503q203 0 351 -72.5t226.5 -209t78.5 -324.5q0 -206 -119 -390t-327.5 -296.5t-462.5 -112.5h-549zM626 409q127 0 215.5 44.5t133.5 127.5t45 196q0 101 -63 160.5t-171 59.5h-133l-128 -588h101z" />
    <glyph glyph-name="E" unicode="E" horiz-adv-x="1235" 
d="M1059 0h-1051l299 1405h1035l-82 -388h-604l-29 -132h463l-76 -358h-463l-30 -139h620z" />
    <glyph glyph-name="F" unicode="F" horiz-adv-x="1128" 
d="M439 0h-431l299 1405h973l-82 -389h-542l-47 -218h402l-76 -363h-403z" />
    <glyph glyph-name="G" unicode="G" horiz-adv-x="1373" 
d="M914 656h406l-113 -529q-109 -72 -246 -112t-278 -40q-179 0 -313 75t-206.5 212.5t-72.5 319.5q0 217 115 414.5t309.5 318.5t419.5 121q182 0 306 -57t197 -155l-303 -313q-6 5 -43.5 37.5t-93 54.5t-115.5 22q-82 0 -162 -49.5t-131.5 -137t-51.5 -194.5
q0 -80 30 -141t82 -94.5t118 -33.5q48 0 87 7z" />
    <glyph glyph-name="H" unicode="H" horiz-adv-x="1502" 
d="M439 0h-431l299 1405h431l-98 -458h397l98 458h431l-299 -1405h-431l114 535h-397z" />
    <glyph glyph-name="I" unicode="I" horiz-adv-x="674" 
d="M439 0h-431l299 1405h431z" />
    <glyph glyph-name="J" unicode="J" horiz-adv-x="980" 
d="M117.5 17.5q-101.5 49.5 -185.5 140.5l276 295q83 -72 135 -72q75 0 97 101l196 923h431l-202 -953q-35 -167 -114 -275.5t-181 -158.5t-214 -50q-137 0 -238.5 49.5z" />
    <glyph glyph-name="K" unicode="K" horiz-adv-x="1455" 
d="M1071 1405h544l-627 -600l336 -805h-491l-179 484l-141 -134l-74 -350h-431l299 1405h431l-93 -439z" />
    <glyph glyph-name="L" unicode="L" horiz-adv-x="1162" 
d="M967 0h-959l299 1405h431l-211 -993h528z" />
    <glyph glyph-name="M" unicode="M" horiz-adv-x="1816" 
d="M376 0h-434l488 1405h467l10 -811l357 811h493l-109 -1406h-437l75 713l-305 -712h-376l4 712z" />
    <glyph glyph-name="N" unicode="N" horiz-adv-x="1487" 
d="M426 0h-418l299 1405h410l273 -672l143 672h418l-299 -1405h-367l-305 728z" />
    <glyph glyph-name="O" unicode="O" horiz-adv-x="1590" 
d="M382.5 45q-141.5 73 -216.5 211t-75 329q0 212 111 408.5t305 318t431 121.5q195 0 337 -74.5t217.5 -214t75.5 -332.5q0 -210 -111 -404t-306 -315t-432 -121q-195 0 -336.5 73zM954 432.5q83 49.5 132 136.5t49 194q0 127 -69.5 193t-181.5 66q-96 0 -179 -50.5
t-132 -139.5t-49 -199q0 -124 69 -187t181 -63q97 0 180 49.5z" />
    <glyph glyph-name="P" unicode="P" horiz-adv-x="1282" 
d="M8 0l299 1405h592q139 0 240 -51.5t153.5 -143.5t52.5 -212q0 -137 -75.5 -270.5t-218.5 -219.5t-335 -86h-188l-89 -422h-431zM740 810q47 0 84 19t57.5 49t20.5 60q0 34 -27.5 56.5t-68.5 22.5h-150l-45 -207h129z" />
    <glyph glyph-name="Q" unicode="Q" horiz-adv-x="1590" 
d="M1483 457q-85 -173 -238 -298t-346 -168l-59 -277h-431l63 294q-183 59 -282 207.5t-99 369.5q0 212 111 408.5t305 318t431 121.5q195 0 337 -74.5t217.5 -214t75.5 -332.5q0 -182 -85 -355zM954 432.5q83 49.5 132 136.5t49 194q0 127 -69.5 193t-181.5 66
q-96 0 -179 -50.5t-132 -139.5t-49 -199q0 -124 69 -187t181 -63q97 0 180 49.5z" />
    <glyph glyph-name="R" unicode="R" horiz-adv-x="1343" 
d="M1268 735.5q-74 -121.5 -206 -196.5l160 -539h-462l-112 430q-14 -1 -44 -1h-73l-92 -429h-431l299 1405h601q127 0 225.5 -49t153.5 -138t55 -205q0 -156 -74 -277.5zM656 1017l-45 -212h132q41 0 77 21.5t58 53t22 60.5q0 37 -24.5 57t-58.5 20h-161z" />
    <glyph glyph-name="S" unicode="S" horiz-adv-x="1193" 
d="M197.5 39.5q-137.5 67.5 -243.5 198.5l287 274q76 -72 160 -106.5t161 -34.5q103 0 103 48q0 26 -30.5 59t-140.5 72q-123 43 -220.5 139t-97.5 258q0 106 49 216.5t172.5 189.5t331.5 79q163 0 293 -57.5t214 -158.5l-287 -291q-46 42 -111 75.5t-135 33.5
q-41 0 -62 -13.5t-21 -33.5q0 -56 161 -107q170 -57 248 -154.5t78 -235.5q0 -121 -65 -240t-202 -198.5t-339 -79.5q-166 0 -303.5 67.5z" />
    <glyph glyph-name="T" unicode="T" horiz-adv-x="1262" 
d="M731 0h-431l214 1004h-349l85 401h1130l-85 -401h-350z" />
    <glyph glyph-name="U" unicode="U" horiz-adv-x="1427" 
d="M322.5 22.5q-117.5 55.5 -178.5 155.5t-61 230q0 60 14 128l185 869h431l-171 -805q-11 -52 -11 -92q0 -67 30.5 -103.5t93.5 -36.5q57 0 111 29t92.5 82t53.5 121l172 805h431l-186 -869q-34 -164 -131.5 -293t-249.5 -202.5t-343 -73.5q-165 0 -282.5 55.5z" />
    <glyph glyph-name="V" unicode="V" horiz-adv-x="1426" 
d="M776 0h-355l-230 1405h449l74 -797h5l413 797h472z" />
    <glyph glyph-name="W" unicode="W" horiz-adv-x="2054" 
d="M792 0h-364l-237 1405h440l105 -796l369 796h480l-255 -487l22 -308l393 795h487l-822 -1405h-360l-60 359z" />
    <glyph glyph-name="X" unicode="X" horiz-adv-x="1434" 
d="M404 0h-515l594 710l-270 695h502l92 -368l245 368h523l-545 -691l273 -714h-499l-113 400z" />
    <glyph glyph-name="Y" unicode="Y" horiz-adv-x="1427" 
d="M814 0h-431l109 514l-301 891h488l108 -489l308 489h510l-680 -888z" />
    <glyph glyph-name="Z" unicode="Z" horiz-adv-x="1278" 
d="M1101 0h-1151l66 313l650 703h-489l83 389h1096l-62 -292l-674 -724h564z" />
    <glyph glyph-name="bracketleft" unicode="[" horiz-adv-x="799" 
d="M585 -436h-670l428 2016h671l-67 -314h-251l-295 -1389h251z" />
    <glyph glyph-name="backslash" unicode="\" horiz-adv-x="1190" 
d="M594 1405l378 -1851h-413l-373 1851h408z" />
    <glyph glyph-name="bracketright" unicode="]" horiz-adv-x="799" 
d="M228 1576h670l-428 -2017h-670l67 315h250l296 1389h-252z" />
    <glyph glyph-name="asciicircum" unicode="^" horiz-adv-x="1098" 
d="M660 1056l-162 -281l-383 2l547 708h179l246 -708l-384 -2z" />
    <glyph glyph-name="underscore" unicode="_" horiz-adv-x="1201" 
d="M1018 -353h-1212l39 181h1211z" />
    <glyph glyph-name="grave" unicode="`" horiz-adv-x="623" 
d="M701 1201h-260l-172 300h362z" />
    <glyph glyph-name="a" unicode="a" horiz-adv-x="1326" 
d="M1327 1069l-96 -452v-1l-132 -616h-295l-24 70q-123 -95 -279 -95q-138 0 -243 58t-163 168.5t-58 262.5t80.5 298t224.5 239t323 93q197 0 298 -117l86 92h278zM496.5 395q46.5 -43 122.5 -43q59 0 105.5 28t72.5 74t26 99q0 80 -45 122.5t-117 42.5q-62 0 -110.5 -30.5
t-74.5 -78t-26 -94.5q0 -77 46.5 -120z" />
    <glyph glyph-name="b" unicode="b" horiz-adv-x="1327" 
d="M1068 1036q106 -58 164.5 -168.5t58.5 -261.5q0 -152 -81 -298.5t-225.5 -239.5t-324.5 -93q-196 0 -296 115l-68 -90h-298l132 615l188 888h404l-96 -454q93 45 198 45q138 0 244 -58zM778.5 383.5q47.5 34.5 71.5 86t24 101.5q0 66 -46 106t-119 40q-59 0 -111 -30
t-83 -78.5t-31 -100.5q0 -78 53 -118.5t128 -40.5q66 0 113.5 34.5z" />
    <glyph glyph-name="c" unicode="c" horiz-adv-x="1057" 
d="M294 30q-124 68 -191 183t-67 252q0 152 82.5 297.5t232.5 238.5t341 93q127 0 224.5 -39.5t157.5 -103.5l-275 -305q-35 31 -68 48.5t-70 17.5q-63 0 -110.5 -29t-73.5 -76.5t-26 -100.5q0 -46 23.5 -82.5t62 -57t82.5 -20.5q40 0 71 9t72 32l159 -307
q-80 -57 -166 -87.5t-173 -30.5q-164 0 -288 68z" />
    <glyph glyph-name="d" unicode="d" horiz-adv-x="1325" 
d="M1421 1512l-191 -895l1 -1l-132 -616h-295l-24 70q-123 -95 -279 -95q-138 0 -243 58t-163 168.5t-58 262.5t80.5 298t224.5 239t323 93q154 0 249 -70l103 488h404zM496.5 395q46.5 -43 122.5 -43q59 0 105.5 28t72.5 74t26 99q0 80 -45 122.5t-117 42.5
q-62 0 -110.5 -30.5t-74.5 -78t-26 -94.5q0 -77 46.5 -120z" />
    <glyph glyph-name="e" unicode="e" horiz-adv-x="1196" 
d="M437 410q24 -49 71.5 -74t103.5 -25q47 0 78.5 10.5t77.5 38.5l148 -271q-76 -60 -162 -90t-174 -30q-160 0 -284 66.5t-192 180t-68 250.5q0 146 81.5 292.5t233.5 242.5t351 96q148 0 254 -53.5t161.5 -149t55.5 -217.5q0 -139 -59 -267h-677zM813 655
q-21 120 -154 120q-64 0 -116 -33t-84 -87h354z" />
    <glyph glyph-name="f" unicode="f" horiz-adv-x="694" 
d="M8 0l150 700h-127l78 369h128l23 110q44 211 182.5 309.5t377.5 98.5q50 0 73 -1l22 -1l-78 -368q-44 3 -74 3q-51 0 -77 -22.5t-34 -65.5l-12 -63h162l-78 -369h-161l-150 -700h-405z" />
    <glyph glyph-name="g" unicode="g" horiz-adv-x="1298" 
d="M1300 1069l-93 -435l-107 -504q-57 -264 -213.5 -389t-415.5 -125q-138 0 -281.5 39.5t-228.5 102.5l190 295q70 -47 143.5 -68.5t167.5 -21.5q95 0 155 34.5t84 130.5q-100 -51 -217 -51q-206 0 -323.5 106t-117.5 318q0 144 79 281.5t218.5 224.5t312.5 87
q187 0 284 -104l57 79h306zM498 447.5q40 -35.5 112 -35.5q55 0 100.5 25t72 67t26.5 90q0 71 -45.5 109t-114.5 38q-58 0 -101.5 -27.5t-66.5 -70.5t-23 -88q0 -72 40 -107.5z" />
    <glyph glyph-name="h" unicode="h" horiz-adv-x="1337" 
d="M1099.5 1050.5q80.5 -41.5 125 -119.5t44.5 -185q0 -56 -14 -124l-132 -622h-404l117 548q7 32 7 63q0 55 -26.5 84t-76.5 29q-47 0 -94.5 -22.5t-81.5 -58t-42 -71.5v1l-122 -573h-402l320 1502h402l-108 -508q71 46 150.5 72t150.5 26q106 0 186.5 -41.5z" />
    <glyph glyph-name="i" unicode="i" horiz-adv-x="629" 
d="M351 1182q-43 24 -65.5 64.5t-22.5 87.5q0 20 5 43q12 55 52 106t99.5 82.5t127.5 31.5q58 0 100.5 -24.5t64.5 -65t22 -88.5q0 -23 -4 -42q-12 -56 -51.5 -106.5t-99 -81.5t-127.5 -31q-58 0 -101 24zM403 0h-405l228 1069h405z" />
    <glyph glyph-name="j" unicode="j" horiz-adv-x="619" 
d="M342 1182q-43 24 -65.5 64.5t-22.5 87.5q0 20 5 43q12 55 52 106t99.5 82.5t127.5 31.5q58 0 100.5 -24.5t64.5 -65t22 -88.5q0 -23 -4 -42q-12 -56 -51.5 -106.5t-99 -81.5t-127.5 -31q-58 0 -101 24zM-228 -389l76 355h18q63 0 96 27t43 77l214 999h402l-211 -990
q-50 -232 -198.5 -350t-368.5 -118h-71z" />
    <glyph glyph-name="k" unicode="k" horiz-adv-x="1309" 
d="M885 1069h512l-492 -438l292 -631h-451l-151 356l-145 -129l-48 -227h-404l320 1502h405l-160 -747z" />
    <glyph glyph-name="l" unicode="l" horiz-adv-x="627" 
d="M400 0h-402l320 1502h402z" />
    <glyph glyph-name="m" unicode="m" horiz-adv-x="1971" 
d="M1739.5 1061q75.5 -39 120 -117t44.5 -191q0 -65 -16 -138l-131 -615h-405l121 560q7 31 7 60q0 51 -24 77.5t-68 26.5q-47 0 -86.5 -22.5t-66 -58.5t-35.5 -75v3l-122 -571h-405l120 560q7 31 7 60q0 52 -23.5 78t-67.5 26q-61 0 -109 -36.5t-69 -89.5l-128 -598h-405
l229 1069h297l37 -87q158 118 331 118q96 0 173 -42t119 -122q89 79 185 121.5t203 42.5q92 0 167.5 -39z" />
    <glyph glyph-name="n" unicode="n" horiz-adv-x="1337" 
d="M1099.5 1050.5q80.5 -41.5 125 -119.5t44.5 -185q0 -56 -14 -124l-132 -622h-404l117 548q7 32 7 63q0 55 -26.5 84t-76.5 29q-42 0 -85 -18t-76.5 -48t-48.5 -63l-127 -595h-405l229 1069h297l45 -105q76 59 169 93.5t175 34.5q106 0 186.5 -41.5z" />
    <glyph glyph-name="o" unicode="o" horiz-adv-x="1276" 
d="M296.5 36.5q-125.5 67.5 -192.5 182t-67 250.5q0 147 82 293t230.5 241t336.5 95q168 0 293.5 -68t192 -183.5t66.5 -253.5q0 -144 -83.5 -289.5t-232 -240t-332.5 -94.5q-168 0 -293.5 67.5zM728.5 383q47.5 31 73 78t25.5 93q0 45 -24 81.5t-64 57.5t-85 21
q-61 0 -108 -30.5t-72.5 -78.5t-25.5 -97q0 -43 23 -78.5t62.5 -56.5t85.5 -21q62 0 109.5 31z" />
    <glyph glyph-name="p" unicode="p" horiz-adv-x="1310" 
d="M1070.5 1035.5q100.5 -57.5 157 -158.5t56.5 -225q0 -52 -13 -117q-32 -152 -133.5 -281t-243 -204.5t-289.5 -75.5q-118 0 -196 54l-81 -383h-405l76 355h-1l131 615l97 454h291l31 -79q131 103 294 103q128 0 228.5 -57.5zM873 574q0 64 -41.5 103t-110.5 39
q-53 0 -100 -23.5t-80.5 -65.5t-44.5 -96q-5 -23 -5 -41q0 -64 42.5 -102t111.5 -38q81 0 143.5 50.5t79.5 130.5q5 25 5 43z" />
    <glyph glyph-name="q" unicode="q" horiz-adv-x="1326" 
d="M1176 357l-152 -712h-404l79 375q-93 -45 -198 -45q-138 0 -243 58t-163 168.5t-58 262.5t80.5 298t224.5 239t323 93q199 0 299 -118l83 93h280zM496.5 395q46.5 -43 122.5 -43q59 0 105.5 28t72.5 74t26 99q0 80 -45 122.5t-117 42.5q-62 0 -110.5 -30.5t-74.5 -78
t-26 -94.5q0 -77 46.5 -120z" />
    <glyph glyph-name="r" unicode="r" horiz-adv-x="1001" 
d="M988 1067.5q61 -23.5 109 -68.5l-247 -328q-59 50 -123 50q-42 0 -84 -21t-75 -62t-50 -100l-115 -538h-405l229 1069h297l46 -108q58 69 124 99.5t165 30.5q68 0 129 -23.5z" />
    <glyph glyph-name="s" unicode="s" horiz-adv-x="944" 
d="M-11 124l178 283q144 -102 255 -102q29 0 38 3.5t9 6.5q0 13 -28.5 32.5t-96.5 51.5q-102 47 -162.5 118.5t-60.5 189.5q0 87 39.5 175.5t133.5 150t247 61.5q122 0 221 -39.5t168 -110.5l-229 -262q-38 34 -86.5 53t-89.5 19q-21 0 -21 -21q0 -11 6.5 -17t30 -16
t60.5 -24q131 -50 194 -124t63 -188q0 -95 -49 -186t-150 -150t-248 -59q-252 0 -422 155z" />
    <glyph glyph-name="t" unicode="t" horiz-adv-x="717" 
d="M414 0h-405l150 700h-122l79 369h119l52 244l430 102l-73 -346h188l-78 -369h-190z" />
    <glyph glyph-name="u" unicode="u" horiz-adv-x="1337" 
d="M934 1069h404l-228 -1069h-297l-45 106q-76 -60 -169 -94.5t-175 -34.5q-106 0 -186.5 41.5t-125 120t-44.5 186.5q0 60 13 122l133 622h404l-117 -547q-7 -32 -7 -63q0 -55 26 -84.5t76 -29.5q43 0 86 18.5t77 48.5t48 63z" />
    <glyph glyph-name="v" unicode="v" horiz-adv-x="1244" 
d="M703 0h-394l-193 1069h434l43 -612l305 612h457z" />
    <glyph glyph-name="w" unicode="w" horiz-adv-x="1778" 
d="M1154 457l281 612h454l-618 -1069h-369l-49 324l-181 -324h-393l-163 1069h418l42 -612l247 612h445l-159 -285z" />
    <glyph glyph-name="x" unicode="x" horiz-adv-x="1253" 
d="M363 0h-478l483 549l-232 520h469l72 -274l185 274h484l-445 -520l240 -549h-469l-89 304z" />
    <glyph glyph-name="y" unicode="y" horiz-adv-x="1243" 
d="M513 -355h-437l222 359l-182 1065h434l48 -595l301 595h455z" />
    <glyph glyph-name="z" unicode="z" horiz-adv-x="1065" 
d="M894 0h-944l59 273l463 440h-357l76 356h906l-57 -264l-467 -449h398z" />
    <glyph glyph-name="braceleft" unicode="{" horiz-adv-x="789" 
d="M576 -434q-167 0 -279 30.5t-172.5 103.5t-60.5 197q0 69 17 146l25 112q20 93 20 136q0 60 -33 87t-113 31l56 263q79 4 120.5 26.5t67 78.5t51.5 175l57 268q31 144 99.5 225t204 118t372.5 37l-69 -323q-70 1 -109 -8.5t-59.5 -34.5t-31.5 -75l-70 -325
q-19 -91 -46 -146t-69 -88.5t-110 -56.5q63 -24 90 -63.5t27 -104.5q0 -47 -16 -127l-45 -208q-9 -42 -9 -69q0 -34 15 -51t47 -23.5t92 -7.5z" />
    <glyph glyph-name="bar" unicode="|" horiz-adv-x="629" 
d="M309 -404h-387l417 1966h388z" />
    <glyph glyph-name="braceright" unicode="}" horiz-adv-x="788" 
d="M236 1610q167 0 278.5 -30.5t172 -103.5t60.5 -197q0 -69 -17 -146l-25 -112q-19 -87 -19 -136q0 -59 32 -86.5t113 -31.5l-55 -263q-80 -4 -121.5 -26.5t-67 -78.5t-50.5 -175l-58 -268q-31 -144 -99 -225t-204 -118t-373 -37l69 323q70 -1 109 8.5t59.5 34.5t31.5 75
l70 325q19 91 46 146t69 88.5t110 56.5q-62 24 -89.5 63.5t-27.5 102.5q0 52 17 129l44 208q9 42 9 70q0 34 -15 50.5t-47 23t-92 7.5z" />
    <glyph glyph-name="asciitilde" unicode="~" horiz-adv-x="1149" 
d="M658.5 441.5q-55.5 17.5 -129.5 50.5q-62 26 -98.5 38.5t-71.5 12.5q-138 0 -265 -81q8 188 15 287q68 43 149 74.5t161 31.5q59 0 112.5 -17t124.5 -49q64 -28 101.5 -40.5t76.5 -12.5q75 0 134.5 20t132.5 59q-6 -89 -16 -285q-59 -40 -144.5 -73t-166.5 -33
q-60 0 -115.5 17.5z" />
    <glyph glyph-name="uni00A0" unicode="&#xa0;" horiz-adv-x="201" 
 />
    <glyph glyph-name="exclamdown" unicode="&#xa1;" horiz-adv-x="689" 
d="M598.5 1048q49.5 -45 49.5 -115q0 -22 -4 -41q-12 -55 -49.5 -101t-94.5 -73t-123 -27q-86 0 -135 45t-49 115q0 22 4 41q12 55 49.5 101t94 73t122.5 27q86 0 135.5 -45zM-22 -310l211 926h348l-181 -926h-378z" />
    <glyph glyph-name="cent" unicode="&#xa2;" horiz-adv-x="1057" 
d="M921 80q-115 -83 -242 -108l-48 -227h-384l59 279q-128 64 -199 181.5t-71 259.5q0 129 60.5 256t173 222.5t259.5 131.5l55 257h384l-59 -275q98 -36 165 -106l-275 -305q-35 31 -68 48.5t-70 17.5q-63 0 -110.5 -29t-73.5 -76.5t-26 -100.5q0 -46 23.5 -82.5t62 -57
t82.5 -20.5q40 0 71 9t72 32z" />
    <glyph glyph-name="sterling" unicode="&#xa3;" horiz-adv-x="1285" 
d="M629 514l-27 -129h468l-83 -385h-872l110 514h-163l81 255h136l46 214q29 140 109.5 242t197.5 156t255 54q173 0 277.5 -64t174.5 -200l-288 -236q-38 41 -62 63t-55.5 36.5t-72.5 14.5q-54 0 -90.5 -22t-48.5 -77l-38 -181h359l-81 -255h-333z" />
    <glyph glyph-name="currency" unicode="&#xa4;" horiz-adv-x="1211" 
d="M338 240l-143 -117l-172 216l133 111q-18 53 -18 117q0 50 11 94q23 110 98 216l-87 113l265 216l95 -123q101 42 211 42q108 0 194 -42l146 123l173 -218l-132 -110q19 -62 19 -124q0 -39 -10 -91q-13 -64 -37.5 -114t-63.5 -102l86 -108l-265 -216l-93 117
q-99 -41 -215 -41q-115 0 -195 41zM698.5 493.5q50.5 26.5 85.5 71t46 97.5q4 19 4 41q0 66 -44 109.5t-114 43.5q-54 0 -103.5 -26t-84.5 -70.5t-46 -97.5q-4 -19 -4 -41q0 -67 43.5 -110.5t112.5 -43.5q54 0 104.5 26.5z" />
    <glyph glyph-name="yen" unicode="&#xa5;" horiz-adv-x="1427" 
d="M1095 1405h510l-517 -675h151l-48 -221h-268l-16 -75h269l-47 -221h-269l-46 -213h-431l45 213h-273l48 221h272l16 75h-273l47 221h154l-228 675h488l108 -489z" />
    <glyph glyph-name="brokenbar" unicode="&#xa6;" horiz-adv-x="636" 
d="M540 603h-388l187 883h389zM342 -327h-388l187 883h388z" />
    <glyph glyph-name="section" unicode="&#xa7;" horiz-adv-x="1076" 
d="M66 -316q-115 54 -190 141l266 243q42 -44 104 -77t131 -33q53 0 79 11t30 36q6 24 -32.5 47t-135.5 62q-160 61 -237 133.5t-77 183.5q0 42 10 86q16 80 55 151.5t101 128.5q-13 42 -13 99t13 118q20 98 83 182.5t173.5 138t265.5 53.5q141 0 256 -53.5t191 -141.5
l-266 -243q-42 44 -103.5 77t-131.5 33q-53 0 -78 -11t-30 -36q-5 -26 34 -49t135 -61q155 -60 234 -135t79 -187q0 -37 -9 -79q-38 -171 -157 -281q13 -47 13 -103q0 -52 -12 -114q-21 -98 -84 -182.5t-174 -138t-266 -53.5q-142 0 -257 54zM598.5 448.5
q29.5 18.5 35.5 45.5q2 10 2 14q0 34 -36 57t-107 23q-52 0 -82.5 -23t-30.5 -54q0 -35 38.5 -58t104.5 -23q46 0 75.5 18.5z" />
    <glyph glyph-name="dieresis" unicode="&#xa8;" horiz-adv-x="896" 
d="M268.5 1225q-36.5 33 -36.5 87q0 19 4 35q15 70 70 114t127 44q61 0 97 -32.5t36 -88.5q0 -20 -4 -37q-15 -68 -70 -111.5t-126 -43.5q-61 0 -97.5 33zM713 1224.5q-36 32.5 -36 86.5q0 19 4 36q14 70 68.5 114t126.5 44q61 0 97 -32.5t36 -87.5q0 -21 -4 -38
q-14 -68 -69 -111.5t-126 -43.5q-61 0 -97 32.5z" />
    <glyph glyph-name="copyright" unicode="&#xa9;" horiz-adv-x="1781" 
d="M1303.5 1367.5q135.5 -75.5 210.5 -208t75 -297.5q0 -73 -17 -155q-42 -200 -176.5 -369t-324.5 -267.5t-390 -98.5q-174 0 -310 75.5t-211.5 208.5t-75.5 298q0 76 16 153q43 200 178 369t325.5 268t390.5 99q174 0 309.5 -75.5zM651.5 1213q-150.5 -78 -257.5 -212
t-141 -293q-14 -67 -14 -125q0 -131 60 -235.5t168 -164t247 -59.5q159 0 309 78t257 212t141 294q13 61 13 123q0 131 -59.5 235.5t-167 164.5t-245.5 60q-160 0 -310.5 -78zM548 314.5q-85 46.5 -129.5 127t-44.5 180.5q0 49 10 96q27 122 109 225.5t199 164.5t244 61
q92 0 162.5 -30t113.5 -79l-246 -284q-35 30 -79 30q-39 0 -68.5 -23.5t-38.5 -64.5q-2 -7 -2 -21q0 -30 18.5 -47.5t49.5 -17.5q47 0 96 28l126 -283q-63 -48 -147.5 -78.5t-170.5 -30.5q-117 0 -202 46.5z" />
    <glyph glyph-name="ordfeminine" unicode="&#xaa;" horiz-adv-x="1318" 
d="M1319 1069l-127 -596l-102 -473h-304l-22 74q-130 -100 -290 -100q-128 0 -228 57.5t-156 158t-56 225.5q0 61 13 120q32 151 133 279t242.5 203.5t289.5 75.5q165 0 252 -105l64 81h291zM443 487q0 -62 41 -99.5t109 -37.5q53 0 101 23t81.5 64t44.5 94q5 25 5 42
q0 64 -42 103.5t-110 39.5q-53 0 -100.5 -23.5t-80.5 -65.5t-44 -96q-5 -25 -5 -44z" />
    <glyph glyph-name="guillemotleft" unicode="&#xab;" horiz-adv-x="1294" 
d="M653 209l-300 -210l-355 517l565 515l216 -248l-349 -291zM1222 209l-300 -210l-355 517l565 515l216 -248l-349 -291z" />
    <glyph glyph-name="logicalnot" unicode="&#xac;" horiz-adv-x="1199" 
d="M1070 227h-387l60 281h-685l68 319h1072z" />
    <glyph glyph-name="uni00AD" unicode="&#xad;" horiz-adv-x="912" 
d="M812 369h-784l70 326h784z" />
    <glyph glyph-name="registered" unicode="&#xae;" horiz-adv-x="903" 
d="M833.5 1498.5q71.5 -35.5 109.5 -100.5t38 -152q0 -43 -11 -96q-25 -114 -92 -201.5t-164.5 -136t-211.5 -48.5q-98 0 -170 35.5t-110.5 100.5t-38.5 153q0 44 11 97q24 113 91.5 200.5t166 135.5t213.5 48q97 0 168.5 -35.5zM941 1235q0 78 -34 136.5t-97.5 90
t-150.5 31.5q-103 0 -192 -43t-149.5 -121.5t-82.5 -179.5q-9 -45 -9 -85q0 -79 34.5 -138t99.5 -91t154 -32q101 0 188.5 43.5t147 122t81.5 180.5q10 50 10 86zM651 1379q61 0 97 -32.5t36 -86.5q0 -20 -4 -37q-11 -48 -40.5 -81t-71.5 -51l75 -165h-139l-62 143h-31
l-29 -143h-120l95 453h194zM554 1266l-20 -95h63q22 0 40.5 18.5t18.5 42.5q0 16 -11 25t-27 9h-64z" />
    <glyph glyph-name="macron" unicode="&#xaf;" horiz-adv-x="744" 
d="M821 1199h-616l49 232h617z" />
    <glyph glyph-name="degree" unicode="&#xb0;" horiz-adv-x="903" 
d="M332.5 778q-72.5 40 -112.5 110t-40 156q0 42 8 78q22 104 93.5 192.5t173 140t207.5 51.5q91 0 161.5 -39.5t110 -108.5t39.5 -154q0 -40 -9 -82q-22 -103 -92 -191.5t-169.5 -140.5t-204.5 -52q-93 0 -165.5 40zM616 1038q28 17 46 45.5t18 60.5q0 35 -22.5 58.5
t-56.5 23.5q-31 0 -59.5 -17.5t-46 -46.5t-17.5 -62q0 -35 22 -57t58 -22q30 0 58 17z" />
    <glyph glyph-name="plusminus" unicode="&#xb1;" horiz-adv-x="1102" 
d="M1104 846l-62 -295h-339l-59 -277h338l-62 -293h-974l62 293h331l58 277h-330l62 295h332l74 351h306l-75 -351h338z" />
    <glyph glyph-name="acute" unicode="&#xb4;" horiz-adv-x="640" 
d="M782 1501l-299 -300h-279l194 300h384z" />
    <glyph glyph-name="uni00B5" unicode="&#xb5;" horiz-adv-x="1340" 
d="M934 1069h404l-228 -1069h-297l-45 106q-76 -60 -169 -94.5t-175 -34.5q-16 0 -44 2l-81 -380h-402l197 928h4l116 542h404l-117 -547q-7 -32 -7 -63q0 -55 26 -84.5t76 -29.5q43 0 86 18.5t77 48.5t48 63z" />
    <glyph glyph-name="paragraph" unicode="&#xb6;" horiz-adv-x="1734" 
d="M1782 1070h-208l-276 -1298h-383l276 1298h-140l-276 -1298h-370l165 776h-164q-84 0 -153 38t-109 108.5t-40 163.5q0 44 11 97q26 125 110.5 220.5t202.5 147t243 51.5h1176z" />
    <glyph glyph-name="periodcentered" unicode="&#xb7;" horiz-adv-x="573" 
d="M104.5 356q-49.5 46 -49.5 117q0 18 5 43q12 57 50 104.5t94.5 75.5t121.5 28q86 0 135.5 -45.5t49.5 -117.5q0 -20 -5 -45q-13 -57 -50.5 -104t-94.5 -74.5t-123 -27.5q-84 0 -133.5 46z" />
    <glyph glyph-name="cedilla" unicode="&#xb8;" horiz-adv-x="475" 
d="M184 11q30 -32 52.5 -80.5t22.5 -96.5q0 -17 -3 -33q-13 -58 -47.5 -101t-112 -71t-210.5 -32l15 175q52 5 79.5 15.5t38 25t15.5 36.5q2 14 2 20q0 22 -9 44.5t-36 74.5l-12 23h205z" />
    <glyph glyph-name="ordmasculine" unicode="&#xba;" horiz-adv-x="1269" 
d="M259.5 23.5q-108.5 57.5 -168 159t-59.5 229.5q0 55 12 115q33 155 138 284.5t255.5 205.5t314.5 76q143 0 252.5 -58t169.5 -159.5t60 -229.5q0 -60 -13 -119q-33 -154 -138 -282.5t-256 -203.5t-316 -75q-143 0 -251.5 57.5zM694.5 368.5q47.5 23.5 81 65.5t44.5 95
q5 25 5 43q0 64 -42 103t-110 39q-53 0 -100.5 -23.5t-81 -65.5t-44.5 -96q-5 -25 -5 -43q0 -64 41.5 -102.5t110.5 -38.5q53 0 100.5 23.5z" />
    <glyph glyph-name="guillemotright" unicode="&#xbb;" horiz-adv-x="1421" 
d="M787 516l-550 -496l-223 283l310 241l-196 269l304 223zM1353 516l-548 -496l-224 283l310 241l-196 269l304 223z" />
    <glyph glyph-name="questiondown" unicode="&#xbf;" horiz-adv-x="1079" 
d="M869 1060q48 -42 48 -108q0 -55 -33.5 -109t-94.5 -88.5t-138 -34.5q-85 0 -133.5 42.5t-48.5 108.5q0 55 33.5 108.5t95 88t140.5 34.5q83 0 131 -42zM808 606q-23 -102 -60 -166.5t-85.5 -105t-123.5 -81.5q-84 -46 -131.5 -90.5t-47.5 -84.5q0 -63 98 -63
q61 0 95 31.5t48 95.5h388q-46 -205 -200 -315.5t-416 -110.5q-118 0 -211 37.5t-145.5 108.5t-52.5 167q0 131 83.5 230.5t200.5 156.5q95 46 146.5 87.5t65.5 102.5l8 36h348z" />
    <glyph glyph-name="Agrave" unicode="&#xc0;" horiz-adv-x="1450" 
d="M1330 0h-432l-17 178h-440l-94 -178h-454l833 1407h373zM779 816l-149 -281h216l-28 281l-3 76h-4zM1075 1500h-298l-201 270h378z" />
    <glyph glyph-name="Aacute" unicode="&#xc1;" horiz-adv-x="1450" 
d="M1330 0h-432l-17 178h-440l-94 -178h-454l833 1407h373zM779 816l-149 -281h216l-28 281l-3 76h-4zM1327 1770l-317 -270h-298l213 270h402z" />
    <glyph glyph-name="Acircumflex" unicode="&#xc2;" horiz-adv-x="1450" 
d="M1330 0h-432l-17 178h-440l-94 -178h-454l833 1407h373zM779 816l-149 -281h216l-28 281l-3 76h-4zM947 1611l-235 -135l-101 175l347 215h65l254 -215l-153 -175z" />
    <glyph glyph-name="Atilde" unicode="&#xc3;" horiz-adv-x="1450" 
d="M1330 0h-432l-17 178h-440l-94 -178h-454l833 1407h373zM779 816l-149 -281h216l-28 281l-3 76h-4zM582 1583q75 118 139.5 163t128.5 45q46 0 82 -10t79 -28q28 -12 44.5 -17t31.5 -5q14 0 35 14t44 39l129 -88q-74 -117 -139 -162t-128 -45q-46 0 -82.5 10t-79.5 27
q-31 12 -46 16.5t-30 4.5q-13 0 -34.5 -14t-42.5 -38z" />
    <glyph glyph-name="Adieresis" unicode="&#xc4;" horiz-adv-x="1450" 
d="M1330 0h-432l-17 178h-440l-94 -178h-454l833 1407h373zM779 816l-149 -281h216l-28 281l-3 76h-4zM593.5 1534q-36.5 33 -36.5 87q0 19 4 35q15 70 70 114t127 44q61 0 97 -32.5t36 -88.5q0 -20 -4 -37q-15 -68 -70 -111.5t-126 -43.5q-61 0 -97.5 33zM1038 1533.5
q-36 32.5 -36 86.5q0 19 4 36q14 70 68.5 114t126.5 44q61 0 97 -32.5t36 -87.5q0 -21 -4 -38q-14 -68 -69 -111.5t-126 -43.5q-61 0 -97 32.5z" />
    <glyph glyph-name="Aring" unicode="&#xc5;" horiz-adv-x="1450" 
d="M1330 0h-432l-17 178h-440l-94 -178h-454l833 1407h373zM779 816l-149 -281h216l-28 281l-3 76h-4zM803 1542.5q-44 35.5 -44 98.5q0 17 5 42q18 83 82 130.5t152 47.5q75 0 119 -36t44 -101q0 -21 -4 -41q-18 -81 -83 -128.5t-152 -47.5q-75 0 -119 35.5zM995.5 1642
q20.5 16 26.5 42q2 10 2 14q0 20 -14.5 32.5t-37.5 12.5q-26 0 -46.5 -16.5t-26.5 -42.5q-2 -10 -2 -14q0 -20 14 -32t37 -12q27 0 47.5 16z" />
    <glyph glyph-name="AE" unicode="&#xc6;" horiz-adv-x="2180" 
d="M2287 1405l-82 -388h-604l-29 -132h463l-76 -358h-463l-30 -139h620l-82 -388h-1051l33 157h-448l-133 -158h-512l1267 1406h1127zM1138 871l-262 -312h196z" />
    <glyph glyph-name="Ccedilla" unicode="&#xc7;" horiz-adv-x="1312" 
d="M1201 160q-89 -75 -189 -122t-198 -62q47 -102 47 -178q0 -24 -4 -41q-14 -64 -50 -108t-120 -72t-232 -32l19 183q52 5 79 15.5t37 24.5t15 37q2 7 2 22q0 26 -13.5 63t-44.5 96q-145 30 -247.5 109.5t-156.5 203t-54 282.5q0 217 111 415t306 319.5t433 121.5
q170 0 296.5 -56.5t199.5 -151.5l-304 -317q-29 31 -57.5 54t-76 41t-110.5 18q-99 0 -182 -50.5t-131.5 -138.5t-48.5 -197q0 -85 31.5 -143t86 -87t124.5 -29q144 0 242 81z" />
    <glyph glyph-name="Egrave" unicode="&#xc8;" horiz-adv-x="1235" 
d="M1059 0h-1051l299 1405h1035l-82 -388h-604l-29 -132h463l-76 -358h-463l-30 -139h620zM1041 1500h-298l-201 270h378z" />
    <glyph glyph-name="Eacute" unicode="&#xc9;" horiz-adv-x="1235" 
d="M1059 0h-1051l299 1405h1035l-82 -388h-604l-29 -132h463l-76 -358h-463l-30 -139h620zM1292 1770l-317 -270h-298l213 270h402z" />
    <glyph glyph-name="Ecircumflex" unicode="&#xca;" horiz-adv-x="1235" 
d="M1059 0h-1051l299 1405h1035l-82 -388h-604l-29 -132h463l-76 -358h-463l-30 -139h620zM912 1611l-235 -135l-101 175l347 215h65l254 -215l-153 -175z" />
    <glyph glyph-name="Edieresis" unicode="&#xcb;" horiz-adv-x="1235" 
d="M1059 0h-1051l299 1405h1035l-82 -388h-604l-29 -132h463l-76 -358h-463l-30 -139h620zM559.5 1534q-36.5 33 -36.5 87q0 19 4 35q15 70 70 114t127 44q61 0 97 -32.5t36 -88.5q0 -20 -4 -37q-15 -68 -70 -111.5t-126 -43.5q-61 0 -97.5 33zM1004 1533.5
q-36 32.5 -36 86.5q0 19 4 36q14 70 68.5 114t126.5 44q61 0 97 -32.5t36 -87.5q0 -21 -4 -38q-14 -68 -69 -111.5t-126 -43.5q-61 0 -97 32.5z" />
    <glyph glyph-name="Igrave" unicode="&#xcc;" horiz-adv-x="674" 
d="M439 0h-431l299 1405h431zM692 1500h-298l-201 270h378z" />
    <glyph glyph-name="Iacute" unicode="&#xcd;" horiz-adv-x="674" 
d="M439 0h-431l299 1405h431zM943 1770l-317 -270h-298l213 270h402z" />
    <glyph glyph-name="Icircumflex" unicode="&#xce;" horiz-adv-x="674" 
d="M439 0h-431l299 1405h431zM563 1611l-235 -135l-101 175l347 215h65l254 -215l-153 -175z" />
    <glyph glyph-name="Idieresis" unicode="&#xcf;" horiz-adv-x="674" 
d="M439 0h-431l299 1405h431zM209.5 1534q-36.5 33 -36.5 87q0 19 4 35q15 70 70 114t127 44q61 0 97 -32.5t36 -88.5q0 -20 -4 -37q-15 -68 -70 -111.5t-126 -43.5q-61 0 -97.5 33zM654 1533.5q-36 32.5 -36 86.5q0 19 4 36q14 70 68.5 114t126.5 44q61 0 97 -32.5
t36 -87.5q0 -21 -4 -38q-14 -68 -69 -111.5t-126 -43.5q-61 0 -97 32.5z" />
    <glyph glyph-name="Eth" unicode="&#xd0;" horiz-adv-x="1487" 
d="M810 1405q203 0 351 -72.5t226.5 -209t78.5 -324.5q0 -206 -119 -390t-327.5 -296.5t-462.5 -112.5h-549l116 545h-167l70 326h166l114 534h503zM626 409q127 0 215.5 44.5t133.5 127.5t45 196q0 101 -63 160.5t-171 59.5h-133l-27 -126h185l-70 -326h-186l-30 -136h101z
" />
    <glyph glyph-name="Ntilde" unicode="&#xd1;" horiz-adv-x="1487" 
d="M426 0h-418l299 1405h410l273 -672l143 672h418l-299 -1405h-367l-305 728zM623 1583q75 118 139.5 163t128.5 45q46 0 82 -10t79 -28q28 -12 44.5 -17t31.5 -5q14 0 35 14t44 39l129 -88q-74 -117 -139 -162t-128 -45q-46 0 -82.5 10t-79.5 27q-31 12 -46 16.5t-30 4.5
q-13 0 -34.5 -14t-42.5 -38z" />
    <glyph glyph-name="Ograve" unicode="&#xd2;" horiz-adv-x="1590" 
d="M382.5 45q-141.5 73 -216.5 211t-75 329q0 212 111 408.5t305 318t431 121.5q195 0 337 -74.5t217.5 -214t75.5 -332.5q0 -210 -111 -404t-306 -315t-432 -121q-195 0 -336.5 73zM954 432.5q83 49.5 132 136.5t49 194q0 127 -69.5 193t-181.5 66q-96 0 -179 -50.5
t-132 -139.5t-49 -199q0 -124 69 -187t181 -63q97 0 180 49.5zM1160 1495h-298l-201 270h378z" />
    <glyph glyph-name="Oacute" unicode="&#xd3;" horiz-adv-x="1590" 
d="M382.5 45q-141.5 73 -216.5 211t-75 329q0 212 111 408.5t305 318t431 121.5q195 0 337 -74.5t217.5 -214t75.5 -332.5q0 -210 -111 -404t-306 -315t-432 -121q-195 0 -336.5 73zM954 432.5q83 49.5 132 136.5t49 194q0 127 -69.5 193t-181.5 66q-96 0 -179 -50.5
t-132 -139.5t-49 -199q0 -124 69 -187t181 -63q97 0 180 49.5zM1412 1765l-317 -270h-298l213 270h402z" />
    <glyph glyph-name="Ocircumflex" unicode="&#xd4;" horiz-adv-x="1590" 
d="M382.5 45q-141.5 73 -216.5 211t-75 329q0 212 111 408.5t305 318t431 121.5q195 0 337 -74.5t217.5 -214t75.5 -332.5q0 -210 -111 -404t-306 -315t-432 -121q-195 0 -336.5 73zM954 432.5q83 49.5 132 136.5t49 194q0 127 -69.5 193t-181.5 66q-96 0 -179 -50.5
t-132 -139.5t-49 -199q0 -124 69 -187t181 -63q97 0 180 49.5zM1032 1606l-235 -135l-101 175l347 215h65l254 -215l-153 -175z" />
    <glyph glyph-name="Otilde" unicode="&#xd5;" horiz-adv-x="1590" 
d="M382.5 45q-141.5 73 -216.5 211t-75 329q0 212 111 408.5t305 318t431 121.5q195 0 337 -74.5t217.5 -214t75.5 -332.5q0 -210 -111 -404t-306 -315t-432 -121q-195 0 -336.5 73zM954 432.5q83 49.5 132 136.5t49 194q0 127 -69.5 193t-181.5 66q-96 0 -179 -50.5
t-132 -139.5t-49 -199q0 -124 69 -187t181 -63q97 0 180 49.5zM667 1578q75 118 139.5 163t128.5 45q46 0 82 -10t79 -28q28 -12 44.5 -17t31.5 -5q14 0 35 14t44 39l129 -88q-74 -117 -139 -162t-128 -45q-46 0 -82.5 10t-79.5 27q-31 12 -46 16.5t-30 4.5q-13 0 -34.5 -14
t-42.5 -38z" />
    <glyph glyph-name="Odieresis" unicode="&#xd6;" horiz-adv-x="1590" 
d="M382.5 45q-141.5 73 -216.5 211t-75 329q0 212 111 408.5t305 318t431 121.5q195 0 337 -74.5t217.5 -214t75.5 -332.5q0 -210 -111 -404t-306 -315t-432 -121q-195 0 -336.5 73zM954 432.5q83 49.5 132 136.5t49 194q0 127 -69.5 193t-181.5 66q-96 0 -179 -50.5
t-132 -139.5t-49 -199q0 -124 69 -187t181 -63q97 0 180 49.5zM678.5 1529q-36.5 33 -36.5 87q0 19 4 35q15 70 70 114t127 44q61 0 97 -32.5t36 -88.5q0 -20 -4 -37q-15 -68 -70 -111.5t-126 -43.5q-61 0 -97.5 33zM1123 1528.5q-36 32.5 -36 86.5q0 19 4 36
q14 70 68.5 114t126.5 44q61 0 97 -32.5t36 -87.5q0 -21 -4 -38q-14 -68 -69 -111.5t-126 -43.5q-61 0 -97 32.5z" />
    <glyph glyph-name="multiply" unicode="&#xd7;" horiz-adv-x="1066" 
d="M530 460l-290 -243l-193 240l288 241l-164 213l265 210l167 -210l291 244l190 -239l-291 -247l179 -229l-263 -209z" />
    <glyph glyph-name="Oslash" unicode="&#xd8;" horiz-adv-x="1590" 
d="M1609 1500l-182 -260q69 -80 105 -188t36 -240q0 -210 -111 -404t-306 -315t-432 -121q-93 0 -169 16l-61 -87h-442l183 262q-68 79 -103.5 185t-35.5 237q0 212 111 408.5t305 318t431 121.5q92 0 169 -16l58 83h444zM527 587l301 430q-85 -14 -154 -67t-109.5 -135.5
t-40.5 -181.5q0 -23 3 -46zM1131 818l-301 -431q85 14 154.5 66t110 132.5t40.5 177.5q0 32 -4 55z" />
    <glyph glyph-name="Ugrave" unicode="&#xd9;" horiz-adv-x="1427" 
d="M322.5 22.5q-117.5 55.5 -178.5 155.5t-61 230q0 60 14 128l185 869h431l-171 -805q-11 -52 -11 -92q0 -67 30.5 -103.5t93.5 -36.5q57 0 111 29t92.5 82t53.5 121l172 805h431l-186 -869q-34 -164 -131.5 -293t-249.5 -202.5t-343 -73.5q-165 0 -282.5 55.5zM1061 1500
h-298l-201 270h378z" />
    <glyph glyph-name="Uacute" unicode="&#xda;" horiz-adv-x="1427" 
d="M322.5 22.5q-117.5 55.5 -178.5 155.5t-61 230q0 60 14 128l185 869h431l-171 -805q-11 -52 -11 -92q0 -67 30.5 -103.5t93.5 -36.5q57 0 111 29t92.5 82t53.5 121l172 805h431l-186 -869q-34 -164 -131.5 -293t-249.5 -202.5t-343 -73.5q-165 0 -282.5 55.5zM1312 1770
l-317 -270h-298l213 270h402z" />
    <glyph glyph-name="Ucircumflex" unicode="&#xdb;" horiz-adv-x="1427" 
d="M322.5 22.5q-117.5 55.5 -178.5 155.5t-61 230q0 60 14 128l185 869h431l-171 -805q-11 -52 -11 -92q0 -67 30.5 -103.5t93.5 -36.5q57 0 111 29t92.5 82t53.5 121l172 805h431l-186 -869q-34 -164 -131.5 -293t-249.5 -202.5t-343 -73.5q-165 0 -282.5 55.5zM932 1611
l-235 -135l-101 175l347 215h65l254 -215l-153 -175z" />
    <glyph glyph-name="Udieresis" unicode="&#xdc;" horiz-adv-x="1427" 
d="M322.5 22.5q-117.5 55.5 -178.5 155.5t-61 230q0 60 14 128l185 869h431l-171 -805q-11 -52 -11 -92q0 -67 30.5 -103.5t93.5 -36.5q57 0 111 29t92.5 82t53.5 121l172 805h431l-186 -869q-34 -164 -131.5 -293t-249.5 -202.5t-343 -73.5q-165 0 -282.5 55.5zM578.5 1534
q-36.5 33 -36.5 87q0 19 4 35q15 70 70 114t127 44q61 0 97 -32.5t36 -88.5q0 -20 -4 -37q-15 -68 -70 -111.5t-126 -43.5q-61 0 -97.5 33zM1023 1533.5q-36 32.5 -36 86.5q0 19 4 36q14 70 68.5 114t126.5 44q61 0 97 -32.5t36 -87.5q0 -21 -4 -38q-14 -68 -69 -111.5
t-126 -43.5q-61 0 -97 32.5z" />
    <glyph glyph-name="Yacute" unicode="&#xdd;" horiz-adv-x="1427" 
d="M814 0h-431l109 514l-301 891h488l108 -489l308 489h510l-680 -888zM1335 1770l-317 -270h-298l213 270h402z" />
    <glyph glyph-name="Thorn" unicode="&#xde;" horiz-adv-x="1257" 
d="M836 1217q198 0 304 -96t106 -272q0 -70 -16 -146q-34 -161 -121.5 -278t-212.5 -178.5t-272 -61.5h-143l-39 -185h-434l299 1405h434l-40 -188h135zM810 733q0 43 -32 61.5t-85 18.5h-78l-48 -224h78q62 0 105 26.5t56 87.5q4 22 4 30z" />
    <glyph glyph-name="germandbls" unicode="&#xdf;" horiz-adv-x="1315" 
d="M215 1018q39 184 132.5 296.5t216 160.5t258.5 48q140 0 247.5 -43.5t167.5 -125t60 -191.5q0 -67 -24 -133t-73.5 -119.5t-120.5 -82.5q185 -63 185 -301q0 -117 -66.5 -238.5t-209 -205t-356.5 -83.5h-107l80 373h68q104 0 142.5 40.5t38.5 85.5q0 86 -117 86h-68
l76 364h19q40 0 66 20.5t38 48.5t12 48q0 37 -29 58.5t-80 21.5q-56 0 -99 -40t-55 -94l-215 -1012h-404z" />
    <glyph glyph-name="agrave" unicode="&#xe0;" horiz-adv-x="1326" 
d="M1327 1069l-96 -452v-1l-132 -616h-295l-24 70q-123 -95 -279 -95q-138 0 -243 58t-163 168.5t-58 262.5t80.5 298t224.5 239t323 93q197 0 298 -117l86 92h278zM496.5 395q46.5 -43 122.5 -43q59 0 105.5 28t72.5 74t26 99q0 80 -45 122.5t-117 42.5q-62 0 -110.5 -30.5
t-74.5 -78t-26 -94.5q0 -77 46.5 -120zM1038 1163h-260l-172 300h362z" />
    <glyph glyph-name="aacute" unicode="&#xe1;" horiz-adv-x="1326" 
d="M1327 1069l-96 -452v-1l-132 -616h-295l-24 70q-123 -95 -279 -95q-138 0 -243 58t-163 168.5t-58 262.5t80.5 298t224.5 239t323 93q197 0 298 -117l86 92h278zM496.5 395q46.5 -43 122.5 -43q59 0 105.5 28t72.5 74t26 99q0 80 -45 122.5t-117 42.5q-62 0 -110.5 -30.5
t-74.5 -78t-26 -94.5q0 -77 46.5 -120zM1280 1463l-299 -300h-279l194 300h384z" />
    <glyph glyph-name="acircumflex" unicode="&#xe2;" horiz-adv-x="1326" 
d="M1327 1069l-96 -452v-1l-132 -616h-295l-24 70q-123 -95 -279 -95q-138 0 -243 58t-163 168.5t-58 262.5t80.5 298t224.5 239t323 93q197 0 298 -117l86 92h278zM496.5 395q46.5 -43 122.5 -43q59 0 105.5 28t72.5 74t26 99q0 80 -45 122.5t-117 42.5q-62 0 -110.5 -30.5
t-74.5 -78t-26 -94.5q0 -77 46.5 -120zM842 1245l-228 -112l-89 178l326 174h63l249 -174l-140 -178z" />
    <glyph glyph-name="atilde" unicode="&#xe3;" horiz-adv-x="1326" 
d="M1327 1069l-96 -452v-1l-132 -616h-295l-24 70q-123 -95 -279 -95q-138 0 -243 58t-163 168.5t-58 262.5t80.5 298t224.5 239t323 93q197 0 298 -117l86 92h278zM496.5 395q46.5 -43 122.5 -43q59 0 105.5 28t72.5 74t26 99q0 80 -45 122.5t-117 42.5q-62 0 -110.5 -30.5
t-74.5 -78t-26 -94.5q0 -77 46.5 -120zM490 1242q75 118 139.5 163t128.5 45q46 0 82 -10t79 -28q28 -12 44.5 -17t31.5 -5q14 0 35 14t44 39l129 -88q-74 -117 -139 -162t-128 -45q-46 0 -82.5 10t-79.5 27q-31 12 -46 16.5t-30 4.5q-13 0 -34.5 -14t-42.5 -38z" />
    <glyph glyph-name="adieresis" unicode="&#xe4;" horiz-adv-x="1326" 
d="M1327 1069l-96 -452v-1l-132 -616h-295l-24 70q-123 -95 -279 -95q-138 0 -243 58t-163 168.5t-58 262.5t80.5 298t224.5 239t323 93q197 0 298 -117l86 92h278zM496.5 395q46.5 -43 122.5 -43q59 0 105.5 28t72.5 74t26 99q0 80 -45 122.5t-117 42.5q-62 0 -110.5 -30.5
t-74.5 -78t-26 -94.5q0 -77 46.5 -120zM494.5 1187q-36.5 33 -36.5 87q0 19 4 35q15 70 70 114t127 44q61 0 97 -32.5t36 -88.5q0 -20 -4 -37q-15 -68 -70 -111.5t-126 -43.5q-61 0 -97.5 33zM939 1186.5q-36 32.5 -36 86.5q0 19 4 36q14 70 68.5 114t126.5 44
q61 0 97 -32.5t36 -87.5q0 -21 -4 -38q-14 -68 -69 -111.5t-126 -43.5q-61 0 -97 32.5z" />
    <glyph glyph-name="aring" unicode="&#xe5;" horiz-adv-x="1326" 
d="M1327 1069l-96 -452v-1l-132 -616h-295l-24 70q-123 -95 -279 -95q-138 0 -243 58t-163 168.5t-58 262.5t80.5 298t224.5 239t323 93q197 0 298 -117l86 92h278zM496.5 395q46.5 -43 122.5 -43q59 0 105.5 28t72.5 74t26 99q0 80 -45 122.5t-117 42.5q-62 0 -110.5 -30.5
t-74.5 -78t-26 -94.5q0 -77 46.5 -120zM688 1204.5q-48 39.5 -48 108.5q0 26 5 46q19 91 90 144t168 53q83 0 131.5 -39.5t48.5 -110.5q0 -19 -5 -47q-19 -89 -91 -141.5t-168 -52.5q-83 0 -131 39.5zM906.5 1318.5q24.5 22.5 24.5 57.5q0 22 -15.5 36t-40.5 14
q-29 0 -51.5 -18.5t-29.5 -47.5q-2 -12 -2 -16q0 -22 15.5 -35t40.5 -13q34 0 58.5 22.5z" />
    <glyph glyph-name="ae" unicode="&#xe6;" horiz-adv-x="1982" 
d="M1223 410q24 -49 71.5 -74t103.5 -25q47 0 78.5 10.5t77.5 38.5l148 -271q-76 -60 -162 -90t-174 -30q-95 0 -178 24t-151 69l-47 -62h-188l-25 84q-142 -114 -324 -114q-127 0 -224.5 56t-151 155.5t-53.5 223.5q0 58 14 125q32 152 130.5 281.5t236.5 205.5t285 76
q184 0 279 -118l74 94h174l8 -23q124 51 263 51q148 0 254 -53.5t161.5 -149t55.5 -217.5q0 -139 -59 -267h-677zM1599 655q-21 120 -154 120q-64 0 -116 -33t-84 -87h354zM433 482q0 -68 44 -108t114 -40q55 0 104 24.5t83 68.5t46 101q5 21 5 50q0 67 -41.5 106t-113.5 39
q-54 0 -103.5 -24.5t-85 -68.5t-47.5 -102q-5 -27 -5 -46z" />
    <glyph glyph-name="ccedilla" unicode="&#xe7;" horiz-adv-x="1057" 
d="M921 80q-80 -57 -166 -87.5t-173 -30.5h-1q40 -65 40 -126q0 -20 -4 -35q-12 -58 -46.5 -101t-112.5 -71t-211 -32l16 175q52 5 79.5 15.5t37.5 25t15 36.5q2 7 2 21q0 24 -11 50t-44 87q-96 39 -165 108.5t-105 159.5t-36 190q0 152 82.5 297.5t232.5 238.5t341 93
q127 0 224.5 -39.5t157.5 -103.5l-275 -305q-35 31 -68 48.5t-70 17.5q-63 0 -110.5 -29t-73.5 -76.5t-26 -100.5q0 -46 23.5 -82.5t62 -57t82.5 -20.5q40 0 71 9t72 32z" />
    <glyph glyph-name="egrave" unicode="&#xe8;" horiz-adv-x="1196" 
d="M437 410q24 -49 71.5 -74t103.5 -25q47 0 78.5 10.5t77.5 38.5l148 -271q-76 -60 -162 -90t-174 -30q-160 0 -284 66.5t-192 180t-68 250.5q0 146 81.5 292.5t233.5 242.5t351 96q148 0 254 -53.5t161.5 -149t55.5 -217.5q0 -139 -59 -267h-677zM813 655
q-21 120 -154 120q-64 0 -116 -33t-84 -87h354zM963 1159h-260l-172 300h362z" />
    <glyph glyph-name="eacute" unicode="&#xe9;" horiz-adv-x="1196" 
d="M437 410q24 -49 71.5 -74t103.5 -25q47 0 78.5 10.5t77.5 38.5l148 -271q-76 -60 -162 -90t-174 -30q-160 0 -284 66.5t-192 180t-68 250.5q0 146 81.5 292.5t233.5 242.5t351 96q148 0 254 -53.5t161.5 -149t55.5 -217.5q0 -139 -59 -267h-677zM813 655
q-21 120 -154 120q-64 0 -116 -33t-84 -87h354zM1206 1459l-299 -300h-279l194 300h384z" />
    <glyph glyph-name="ecircumflex" unicode="&#xea;" horiz-adv-x="1196" 
d="M437 410q24 -49 71.5 -74t103.5 -25q47 0 78.5 10.5t77.5 38.5l148 -271q-76 -60 -162 -90t-174 -30q-160 0 -284 66.5t-192 180t-68 250.5q0 146 81.5 292.5t233.5 242.5t351 96q148 0 254 -53.5t161.5 -149t55.5 -217.5q0 -139 -59 -267h-677zM813 655
q-21 120 -154 120q-64 0 -116 -33t-84 -87h354zM767 1241l-228 -112l-89 178l326 174h63l249 -174l-140 -178z" />
    <glyph glyph-name="edieresis" unicode="&#xeb;" horiz-adv-x="1196" 
d="M437 410q24 -49 71.5 -74t103.5 -25q47 0 78.5 10.5t77.5 38.5l148 -271q-76 -60 -162 -90t-174 -30q-160 0 -284 66.5t-192 180t-68 250.5q0 146 81.5 292.5t233.5 242.5t351 96q148 0 254 -53.5t161.5 -149t55.5 -217.5q0 -139 -59 -267h-677zM813 655
q-21 120 -154 120q-64 0 -116 -33t-84 -87h354zM420.5 1183q-36.5 33 -36.5 87q0 19 4 35q15 70 70 114t127 44q61 0 97 -32.5t36 -88.5q0 -20 -4 -37q-15 -68 -70 -111.5t-126 -43.5q-61 0 -97.5 33zM865 1182.5q-36 32.5 -36 86.5q0 19 4 36q14 70 68.5 114t126.5 44
q61 0 97 -32.5t36 -87.5q0 -21 -4 -38q-14 -68 -69 -111.5t-126 -43.5q-61 0 -97 32.5z" />
    <glyph glyph-name="igrave" unicode="&#xec;" horiz-adv-x="629" 
d="M403 0h-405l228 1069h405zM671 1159h-260l-172 300h362z" />
    <glyph glyph-name="iacute" unicode="&#xed;" horiz-adv-x="629" 
d="M403 0h-405l228 1069h405zM914 1459l-299 -300h-279l194 300h384z" />
    <glyph glyph-name="icircumflex" unicode="&#xee;" horiz-adv-x="629" 
d="M403 0h-405l228 1069h405zM475 1241l-228 -112l-89 178l326 174h63l249 -174l-140 -178z" />
    <glyph glyph-name="idieresis" unicode="&#xef;" horiz-adv-x="629" 
d="M403 0h-405l228 1069h405zM128.5 1183q-36.5 33 -36.5 87q0 19 4 35q15 70 70 114t127 44q61 0 97 -32.5t36 -88.5q0 -20 -4 -37q-15 -68 -70 -111.5t-126 -43.5q-61 0 -97.5 33zM573 1182.5q-36 32.5 -36 86.5q0 19 4 36q14 70 68.5 114t126.5 44q61 0 97 -32.5
t36 -87.5q0 -21 -4 -38q-14 -68 -69 -111.5t-126 -43.5q-61 0 -97 32.5z" />
    <glyph glyph-name="eth" unicode="&#xf0;" horiz-adv-x="1234" 
d="M1258 1372l-136 -69q103 -272 103 -512q0 -217 -81.5 -405t-246.5 -304t-402 -116q-139 0 -245.5 55t-165.5 156.5t-59 237.5q0 146 79.5 281.5t226 221t336.5 85.5q36 0 86 -10q-15 56 -33 108l-127 -64l-76 170l132 66q-23 52 -42 89l396 206q21 -41 46 -94l134 67z
M731 419.5q46 83.5 55 220.5q-28 10 -58 13t-76 3q-63 0 -109.5 -30.5t-71.5 -79.5t-25 -101q0 -57 35 -83t95 -26q109 0 155 83.5z" />
    <glyph glyph-name="ntilde" unicode="&#xf1;" horiz-adv-x="1337" 
d="M1099.5 1050.5q80.5 -41.5 125 -119.5t44.5 -185q0 -56 -14 -124l-132 -622h-404l117 548q7 32 7 63q0 55 -26.5 84t-76.5 29q-42 0 -85 -18t-76.5 -48t-48.5 -63l-127 -595h-405l229 1069h297l45 -105q76 59 169 93.5t175 34.5q106 0 186.5 -41.5zM531 1239
q75 118 139.5 163t128.5 45q46 0 82 -10t79 -28q28 -12 44.5 -17t31.5 -5q14 0 35 14t44 39l129 -88q-74 -117 -139 -162t-128 -45q-46 0 -82.5 10t-79.5 27q-31 12 -46 16.5t-30 4.5q-13 0 -34.5 -14t-42.5 -38z" />
    <glyph glyph-name="ograve" unicode="&#xf2;" horiz-adv-x="1276" 
d="M296.5 36.5q-125.5 67.5 -192.5 182t-67 250.5q0 147 82 293t230.5 241t336.5 95q168 0 293.5 -68t192 -183.5t66.5 -253.5q0 -144 -83.5 -289.5t-232 -240t-332.5 -94.5q-168 0 -293.5 67.5zM728.5 383q47.5 31 73 78t25.5 93q0 45 -24 81.5t-64 57.5t-85 21
q-61 0 -108 -30.5t-72.5 -78.5t-25.5 -97q0 -43 23 -78.5t62.5 -56.5t85.5 -21q62 0 109.5 31zM986 1164h-260l-172 300h362z" />
    <glyph glyph-name="oacute" unicode="&#xf3;" horiz-adv-x="1276" 
d="M296.5 36.5q-125.5 67.5 -192.5 182t-67 250.5q0 147 82 293t230.5 241t336.5 95q168 0 293.5 -68t192 -183.5t66.5 -253.5q0 -144 -83.5 -289.5t-232 -240t-332.5 -94.5q-168 0 -293.5 67.5zM728.5 383q47.5 31 73 78t25.5 93q0 45 -24 81.5t-64 57.5t-85 21
q-61 0 -108 -30.5t-72.5 -78.5t-25.5 -97q0 -43 23 -78.5t62.5 -56.5t85.5 -21q62 0 109.5 31zM1228 1464l-299 -300h-279l194 300h384z" />
    <glyph glyph-name="ocircumflex" unicode="&#xf4;" horiz-adv-x="1276" 
d="M296.5 36.5q-125.5 67.5 -192.5 182t-67 250.5q0 147 82 293t230.5 241t336.5 95q168 0 293.5 -68t192 -183.5t66.5 -253.5q0 -144 -83.5 -289.5t-232 -240t-332.5 -94.5q-168 0 -293.5 67.5zM728.5 383q47.5 31 73 78t25.5 93q0 45 -24 81.5t-64 57.5t-85 21
q-61 0 -108 -30.5t-72.5 -78.5t-25.5 -97q0 -43 23 -78.5t62.5 -56.5t85.5 -21q62 0 109.5 31zM790 1246l-228 -112l-89 178l326 174h63l249 -174l-140 -178z" />
    <glyph glyph-name="otilde" unicode="&#xf5;" horiz-adv-x="1276" 
d="M296.5 36.5q-125.5 67.5 -192.5 182t-67 250.5q0 147 82 293t230.5 241t336.5 95q168 0 293.5 -68t192 -183.5t66.5 -253.5q0 -144 -83.5 -289.5t-232 -240t-332.5 -94.5q-168 0 -293.5 67.5zM728.5 383q47.5 31 73 78t25.5 93q0 45 -24 81.5t-64 57.5t-85 21
q-61 0 -108 -30.5t-72.5 -78.5t-25.5 -97q0 -43 23 -78.5t62.5 -56.5t85.5 -21q62 0 109.5 31zM438 1243q75 118 139.5 163t128.5 45q46 0 82 -10t79 -28q28 -12 44.5 -17t31.5 -5q14 0 35 14t44 39l129 -88q-74 -117 -139 -162t-128 -45q-46 0 -82.5 10t-79.5 27
q-31 12 -46 16.5t-30 4.5q-13 0 -34.5 -14t-42.5 -38z" />
    <glyph glyph-name="odieresis" unicode="&#xf6;" horiz-adv-x="1276" 
d="M296.5 36.5q-125.5 67.5 -192.5 182t-67 250.5q0 147 82 293t230.5 241t336.5 95q168 0 293.5 -68t192 -183.5t66.5 -253.5q0 -144 -83.5 -289.5t-232 -240t-332.5 -94.5q-168 0 -293.5 67.5zM728.5 383q47.5 31 73 78t25.5 93q0 45 -24 81.5t-64 57.5t-85 21
q-61 0 -108 -30.5t-72.5 -78.5t-25.5 -97q0 -43 23 -78.5t62.5 -56.5t85.5 -21q62 0 109.5 31zM442.5 1188q-36.5 33 -36.5 87q0 19 4 35q15 70 70 114t127 44q61 0 97 -32.5t36 -88.5q0 -20 -4 -37q-15 -68 -70 -111.5t-126 -43.5q-61 0 -97.5 33zM887 1187.5
q-36 32.5 -36 86.5q0 19 4 36q14 70 68.5 114t126.5 44q61 0 97 -32.5t36 -87.5q0 -21 -4 -38q-14 -68 -69 -111.5t-126 -43.5q-61 0 -97 32.5z" />
    <glyph glyph-name="divide" unicode="&#xf7;" horiz-adv-x="1090" 
d="M520 970.5q-41 37.5 -41 95.5q0 11 4 33q10 45 40.5 83.5t76 61.5t97.5 23q70 0 108.5 -37t38.5 -95q0 -20 -4 -36q-10 -47 -40 -84.5t-76 -59.5t-101 -22q-62 0 -103 37.5zM1028 544h-962l66 312h962zM347.5 166.5q-38.5 36.5 -38.5 92.5q0 20 4 36q10 46 39.5 84.5
t74.5 61t98 22.5q70 0 109.5 -37t39.5 -95q0 -20 -4 -36q-10 -45 -40.5 -83t-76.5 -60t-101 -22q-66 0 -104.5 36.5z" />
    <glyph glyph-name="oslash" unicode="&#xf8;" horiz-adv-x="1276" 
d="M1321 1161l-198 -246q56 -66 85.5 -148.5t29.5 -173.5q0 -144 -83.5 -289.5t-232 -240t-332.5 -94.5q-111 0 -206 31l-75 -93h-345l193 238q-58 66 -89 149t-31 175q0 147 82 293t230.5 241t336.5 95q120 0 217 -35l79 98h339zM448 503l168 208q-50 -9 -88.5 -41
t-59 -75.5t-20.5 -86.5v-5zM674 359q45 12 79.5 42.5t53 70t20.5 77.5z" />
    <glyph glyph-name="ugrave" unicode="&#xf9;" horiz-adv-x="1337" 
d="M934 1069h404l-228 -1069h-297l-45 106q-76 -60 -169 -94.5t-175 -34.5q-106 0 -186.5 41.5t-125 120t-44.5 186.5q0 60 13 122l133 622h404l-117 -547q-7 -32 -7 -63q0 -55 26 -84.5t76 -29.5q43 0 86 18.5t77 48.5t48 63zM1017 1159h-260l-172 300h362z" />
    <glyph glyph-name="uacute" unicode="&#xfa;" horiz-adv-x="1337" 
d="M934 1069h404l-228 -1069h-297l-45 106q-76 -60 -169 -94.5t-175 -34.5q-106 0 -186.5 41.5t-125 120t-44.5 186.5q0 60 13 122l133 622h404l-117 -547q-7 -32 -7 -63q0 -55 26 -84.5t76 -29.5q43 0 86 18.5t77 48.5t48 63zM1259 1459l-299 -300h-279l194 300h384z" />
    <glyph glyph-name="ucircumflex" unicode="&#xfb;" horiz-adv-x="1337" 
d="M934 1069h404l-228 -1069h-297l-45 106q-76 -60 -169 -94.5t-175 -34.5q-106 0 -186.5 41.5t-125 120t-44.5 186.5q0 60 13 122l133 622h404l-117 -547q-7 -32 -7 -63q0 -55 26 -84.5t76 -29.5q43 0 86 18.5t77 48.5t48 63zM820 1241l-228 -112l-89 178l326 174h63
l249 -174l-140 -178z" />
    <glyph glyph-name="udieresis" unicode="&#xfc;" horiz-adv-x="1337" 
d="M934 1069h404l-228 -1069h-297l-45 106q-76 -60 -169 -94.5t-175 -34.5q-106 0 -186.5 41.5t-125 120t-44.5 186.5q0 60 13 122l133 622h404l-117 -547q-7 -32 -7 -63q0 -55 26 -84.5t76 -29.5q43 0 86 18.5t77 48.5t48 63zM473.5 1183q-36.5 33 -36.5 87q0 19 4 35
q15 70 70 114t127 44q61 0 97 -32.5t36 -88.5q0 -20 -4 -37q-15 -68 -70 -111.5t-126 -43.5q-61 0 -97.5 33zM918 1182.5q-36 32.5 -36 86.5q0 19 4 36q14 70 68.5 114t126.5 44q61 0 97 -32.5t36 -87.5q0 -21 -4 -38q-14 -68 -69 -111.5t-126 -43.5q-61 0 -97 32.5z" />
    <glyph glyph-name="yacute" unicode="&#xfd;" horiz-adv-x="1243" 
d="M513 -355h-437l222 359l-182 1065h434l48 -595l301 595h455zM1221 1459l-299 -300h-279l194 300h384z" />
    <glyph glyph-name="thorn" unicode="&#xfe;" horiz-adv-x="1309" 
d="M1069.5 1035.5q100.5 -57.5 157 -158.5t56.5 -225q0 -52 -13 -117q-32 -152 -133.5 -281t-243 -204.5t-289.5 -75.5q-118 0 -196 54l-81 -383h-405l76 355h-1l131 615l97 454h1l84 396h402l-90 -426q100 54 219 54q128 0 228.5 -57.5zM872 574q0 64 -41.5 103t-110.5 39
q-53 0 -100 -23.5t-80.5 -65.5t-44.5 -96q-5 -23 -5 -41q0 -64 42.5 -102t111.5 -38q81 0 143.5 50.5t79.5 130.5q5 25 5 43z" />
    <glyph glyph-name="ydieresis" unicode="&#xff;" horiz-adv-x="1243" 
d="M513 -355h-437l222 359l-182 1065h434l48 -595l301 595h455zM435.5 1183q-36.5 33 -36.5 87q0 19 4 35q15 70 70 114t127 44q61 0 97 -32.5t36 -88.5q0 -20 -4 -37q-15 -68 -70 -111.5t-126 -43.5q-61 0 -97.5 33zM880 1182.5q-36 32.5 -36 86.5q0 19 4 36
q14 70 68.5 114t126.5 44q61 0 97 -32.5t36 -87.5q0 -21 -4 -38q-14 -68 -69 -111.5t-126 -43.5q-61 0 -97 32.5z" />
    <glyph glyph-name="Amacron" unicode="&#x100;" horiz-adv-x="1450" 
d="M1330 0h-432l-17 178h-440l-94 -178h-454l833 1407h373zM779 816l-149 -281h216l-28 281l-3 76h-4zM1235 1502h-616l49 232h617z" />
    <glyph glyph-name="amacron" unicode="&#x101;" horiz-adv-x="1326" 
d="M1327 1069l-96 -452v-1l-132 -616h-295l-24 70q-123 -95 -279 -95q-138 0 -243 58t-163 168.5t-58 262.5t80.5 298t224.5 239t323 93q197 0 298 -117l86 92h278zM496.5 395q46.5 -43 122.5 -43q59 0 105.5 28t72.5 74t26 99q0 80 -45 122.5t-117 42.5q-62 0 -110.5 -30.5
t-74.5 -78t-26 -94.5q0 -77 46.5 -120zM1127 1161h-616l49 232h617z" />
    <glyph glyph-name="Abreve" unicode="&#x102;" horiz-adv-x="1450" 
d="M1330 0h-432l-17 178h-440l-94 -178h-454l833 1407h373zM779 816l-149 -281h216l-28 281l-3 76h-4zM702.5 1560.5q-68.5 60.5 -68.5 162.5q0 41 8 76h262q-7 -23 -7 -37q0 -23 13 -36.5t40 -13.5q37 0 59.5 24.5t26.5 62.5h275q-28 -134 -128.5 -216.5t-269.5 -82.5
q-142 0 -210.5 60.5z" />
    <glyph glyph-name="abreve" unicode="&#x103;" horiz-adv-x="1326" 
d="M1327 1069l-96 -452v-1l-132 -616h-295l-24 70q-123 -95 -279 -95q-138 0 -243 58t-163 168.5t-58 262.5t80.5 298t224.5 239t323 93q197 0 298 -117l86 92h278zM496.5 395q46.5 -43 122.5 -43q59 0 105.5 28t72.5 74t26 99q0 80 -45 122.5t-117 42.5q-62 0 -110.5 -30.5
t-74.5 -78t-26 -94.5q0 -77 46.5 -120zM613 1216.5q-65 58.5 -65 163.5q0 45 10 91h256q-6 -30 -6 -48q0 -26 12 -36t40 -10q37 0 55.5 20t30.5 74h260q-30 -147 -126.5 -230t-263.5 -83q-138 0 -203 58.5z" />
    <glyph glyph-name="Aogonek" unicode="&#x104;" horiz-adv-x="1450" 
d="M1330 0h-432l-17 178h-440l-94 -178h-454l833 1407h373zM779 816l-149 -281h216l-28 281l-3 76h-4zM974 -358.5q-45 38.5 -45 94.5q0 68 44 135t117 129h240q-51 -42 -76.5 -67t-36 -45.5t-10.5 -45.5q0 -21 11 -33.5t31 -12.5q24 0 70 10l-17 -163q-46 -22 -87.5 -31
t-90.5 -9q-105 0 -150 38.5z" />
    <glyph glyph-name="aogonek" unicode="&#x105;" horiz-adv-x="1326" 
d="M1327 1069l-96 -452v-1l-132 -616h-38q-119 -83 -119 -156q0 -22 11.5 -35t32.5 -13q23 0 69 10l-13 -158q-46 -22 -88 -31t-97 -9q-88 0 -127 37t-39 95q0 19 5 42q10 46 42 91.5t69 79t61 47.5h-64l-24 70q-123 -95 -279 -95q-138 0 -243 58t-163 168.5t-58 262.5
t80.5 298t224.5 239t323 93q197 0 298 -117l86 92h278zM496.5 395q46.5 -43 122.5 -43q59 0 105.5 28t72.5 74t26 99q0 80 -45 122.5t-117 42.5q-62 0 -110.5 -30.5t-74.5 -78t-26 -94.5q0 -77 46.5 -120z" />
    <glyph glyph-name="Cacute" unicode="&#x106;" horiz-adv-x="1312" 
d="M385 42.5q-143 73.5 -218.5 211.5t-75.5 327q0 217 111 415t306 319.5t433 121.5q170 0 296.5 -56.5t199.5 -151.5l-304 -317q-29 31 -57.5 54t-76 41t-110.5 18q-99 0 -182 -50.5t-131.5 -138.5t-48.5 -197q0 -85 31.5 -143t86 -87t124.5 -29q144 0 242 81l190 -301
q-109 -93 -235.5 -142t-240.5 -49q-197 0 -340 73.5zM1364 1791l-317 -270h-298l213 270h402z" />
    <glyph glyph-name="cacute" unicode="&#x107;" horiz-adv-x="1057" 
d="M294 30q-124 68 -191 183t-67 252q0 152 82.5 297.5t232.5 238.5t341 93q127 0 224.5 -39.5t157.5 -103.5l-275 -305q-35 31 -68 48.5t-70 17.5q-63 0 -110.5 -29t-73.5 -76.5t-26 -100.5q0 -46 23.5 -82.5t62 -57t82.5 -20.5q40 0 71 9t72 32l159 -307
q-80 -57 -166 -87.5t-173 -30.5q-164 0 -288 68zM1186 1459l-299 -300h-279l194 300h384z" />
    <glyph glyph-name="Ccircumflex" unicode="&#x108;" horiz-adv-x="1312" 
d="M385 42.5q-143 73.5 -218.5 211.5t-75.5 327q0 217 111 415t306 319.5t433 121.5q170 0 296.5 -56.5t199.5 -151.5l-304 -317q-29 31 -57.5 54t-76 41t-110.5 18q-99 0 -182 -50.5t-131.5 -138.5t-48.5 -197q0 -85 31.5 -143t86 -87t124.5 -29q144 0 242 81l190 -301
q-109 -93 -235.5 -142t-240.5 -49q-197 0 -340 73.5zM984 1632l-235 -135l-101 175l347 215h65l254 -215l-153 -175z" />
    <glyph glyph-name="ccircumflex" unicode="&#x109;" horiz-adv-x="1057" 
d="M294 30q-124 68 -191 183t-67 252q0 152 82.5 297.5t232.5 238.5t341 93q127 0 224.5 -39.5t157.5 -103.5l-275 -305q-35 31 -68 48.5t-70 17.5q-63 0 -110.5 -29t-73.5 -76.5t-26 -100.5q0 -46 23.5 -82.5t62 -57t82.5 -20.5q40 0 71 9t72 32l159 -307
q-80 -57 -166 -87.5t-173 -30.5q-164 0 -288 68zM748 1241l-228 -112l-89 178l326 174h63l249 -174l-140 -178z" />
    <glyph glyph-name="Cdotaccent" unicode="&#x10a;" horiz-adv-x="1312" 
d="M385 42.5q-143 73.5 -218.5 211.5t-75.5 327q0 217 111 415t306 319.5t433 121.5q170 0 296.5 -56.5t199.5 -151.5l-304 -317q-29 31 -57.5 54t-76 41t-110.5 18q-99 0 -182 -50.5t-131.5 -138.5t-48.5 -197q0 -85 31.5 -143t86 -87t124.5 -29q144 0 242 81l190 -301
q-109 -93 -235.5 -142t-240.5 -49q-197 0 -340 73.5zM850 1548.5q-36 32.5 -36 85.5q0 19 4 36q14 70 69 113.5t126 43.5q61 0 97 -32.5t36 -88.5q0 -19 -4 -36q-14 -68 -69 -111t-126 -43q-61 0 -97 32.5z" />
    <glyph glyph-name="cdotaccent" unicode="&#x10b;" horiz-adv-x="1057" 
d="M294 30q-124 68 -191 183t-67 252q0 152 82.5 297.5t232.5 238.5t341 93q127 0 224.5 -39.5t157.5 -103.5l-275 -305q-35 31 -68 48.5t-70 17.5q-63 0 -110.5 -29t-73.5 -76.5t-26 -100.5q0 -46 23.5 -82.5t62 -57t82.5 -20.5q40 0 71 9t72 32l159 -307
q-80 -57 -166 -87.5t-173 -30.5q-164 0 -288 68zM621 1182.5q-36 32.5 -36 85.5q0 19 4 36q14 70 69 113.5t126 43.5q61 0 97 -32.5t36 -88.5q0 -19 -4 -36q-14 -68 -69 -111t-126 -43q-61 0 -97 32.5z" />
    <glyph glyph-name="Ccaron" unicode="&#x10c;" horiz-adv-x="1312" 
d="M385 42.5q-143 73.5 -218.5 211.5t-75.5 327q0 217 111 415t306 319.5t433 121.5q170 0 296.5 -56.5t199.5 -151.5l-304 -317q-29 31 -57.5 54t-76 41t-110.5 18q-99 0 -182 -50.5t-131.5 -138.5t-48.5 -197q0 -85 31.5 -143t86 -87t124.5 -29q144 0 242 81l190 -301
q-109 -93 -235.5 -142t-240.5 -49q-197 0 -340 73.5zM664 1730l153 176l180 -136l234 136l100 -176l-346 -213h-64z" />
    <glyph glyph-name="ccaron" unicode="&#x10d;" horiz-adv-x="1057" 
d="M294 30q-124 68 -191 183t-67 252q0 152 82.5 297.5t232.5 238.5t341 93q127 0 224.5 -39.5t157.5 -103.5l-275 -305q-35 31 -68 48.5t-70 17.5q-63 0 -110.5 -29t-73.5 -76.5t-26 -100.5q0 -46 23.5 -82.5t62 -57t82.5 -20.5q40 0 71 9t72 32l159 -307
q-80 -57 -166 -87.5t-173 -30.5q-164 0 -288 68zM433 1313l143 178l180 -113l229 113l86 -178l-323 -174h-63z" />
    <glyph glyph-name="Dcaron" unicode="&#x10e;" horiz-adv-x="1487" 
d="M8 0l299 1405h503q203 0 351 -72.5t226.5 -209t78.5 -324.5q0 -206 -119 -390t-327.5 -296.5t-462.5 -112.5h-549zM626 409q127 0 215.5 44.5t133.5 127.5t45 196q0 101 -63 160.5t-171 59.5h-133l-128 -588h101zM491 1709l153 176l180 -136l234 136l100 -176l-346 -213
h-64z" />
    <glyph glyph-name="dcaron" unicode="&#x10f;" horiz-adv-x="1568" 
d="M1421 1512l-191 -895l1 -1l-132 -616h-295l-24 70q-123 -95 -279 -95q-138 0 -243 58t-163 168.5t-58 262.5t80.5 298t224.5 239t323 93q154 0 249 -70l103 488h404zM496.5 395q46.5 -43 122.5 -43q59 0 105.5 28t72.5 74t26 99q0 80 -45 122.5t-117 42.5
q-62 0 -110.5 -30.5t-74.5 -78t-26 -94.5q0 -77 46.5 -120zM1653 1080h-225l60 422h287z" />
    <glyph glyph-name="Dcroat" unicode="&#x110;" horiz-adv-x="1487" 
d="M810 1405q203 0 351 -72.5t226.5 -209t78.5 -324.5q0 -206 -119 -390t-327.5 -296.5t-462.5 -112.5h-549l116 545h-167l70 326h166l114 534h503zM626 409q127 0 215.5 44.5t133.5 127.5t45 196q0 101 -63 160.5t-171 59.5h-133l-27 -126h185l-70 -326h-186l-30 -136h101z
" />
    <glyph glyph-name="dcroat" unicode="&#x111;" horiz-adv-x="1325" 
d="M1514 1165h-167l-117 -548l1 -1l-132 -616h-295l-24 70q-123 -95 -279 -95q-138 0 -243 58t-163 168.5t-58 262.5t80.5 298t224.5 239t323 93q154 0 249 -70l30 141h-214l70 269h201l16 78h404l-17 -78h180zM496.5 395q46.5 -43 122.5 -43q59 0 105.5 28t72.5 74t26 99
q0 80 -45 122.5t-117 42.5q-62 0 -110.5 -30.5t-74.5 -78t-26 -94.5q0 -77 46.5 -120z" />
    <glyph glyph-name="Emacron" unicode="&#x112;" horiz-adv-x="1235" 
d="M1059 0h-1051l299 1405h1035l-82 -388h-604l-29 -132h463l-76 -358h-463l-30 -139h620zM1200 1502h-616l49 232h617z" />
    <glyph glyph-name="emacron" unicode="&#x113;" horiz-adv-x="1196" 
d="M437 410q24 -49 71.5 -74t103.5 -25q47 0 78.5 10.5t77.5 38.5l148 -271q-76 -60 -162 -90t-174 -30q-160 0 -284 66.5t-192 180t-68 250.5q0 146 81.5 292.5t233.5 242.5t351 96q148 0 254 -53.5t161.5 -149t55.5 -217.5q0 -139 -59 -267h-677zM813 655
q-21 120 -154 120q-64 0 -116 -33t-84 -87h354zM1053 1157h-616l49 232h617z" />
    <glyph glyph-name="Ebreve" unicode="&#x114;" horiz-adv-x="1235" 
d="M1059 0h-1051l299 1405h1035l-82 -388h-604l-29 -132h463l-76 -358h-463l-30 -139h620zM667.5 1560.5q-68.5 60.5 -68.5 162.5q0 41 8 76h262q-7 -23 -7 -37q0 -23 13 -36.5t40 -13.5q37 0 59.5 24.5t26.5 62.5h275q-28 -134 -128.5 -216.5t-269.5 -82.5
q-142 0 -210.5 60.5z" />
    <glyph glyph-name="ebreve" unicode="&#x115;" horiz-adv-x="1196" 
d="M437 410q24 -49 71.5 -74t103.5 -25q47 0 78.5 10.5t77.5 38.5l148 -271q-76 -60 -162 -90t-174 -30q-160 0 -284 66.5t-192 180t-68 250.5q0 146 81.5 292.5t233.5 242.5t351 96q148 0 254 -53.5t161.5 -149t55.5 -217.5q0 -139 -59 -267h-677zM813 655
q-21 120 -154 120q-64 0 -116 -33t-84 -87h354zM539 1212.5q-65 58.5 -65 163.5q0 45 10 91h256q-6 -30 -6 -48q0 -26 12 -36t40 -10q37 0 55.5 20t30.5 74h260q-30 -147 -126.5 -230t-263.5 -83q-138 0 -203 58.5z" />
    <glyph glyph-name="Edotaccent" unicode="&#x116;" horiz-adv-x="1235" 
d="M1059 0h-1051l299 1405h1035l-82 -388h-604l-29 -132h463l-76 -358h-463l-30 -139h620zM779 1527.5q-36 32.5 -36 85.5q0 19 4 36q14 70 69 113.5t126 43.5q61 0 97 -32.5t36 -88.5q0 -19 -4 -36q-14 -68 -69 -111t-126 -43q-61 0 -97 32.5z" />
    <glyph glyph-name="edotaccent" unicode="&#x117;" horiz-adv-x="1196" 
d="M437 410q24 -49 71.5 -74t103.5 -25q47 0 78.5 10.5t77.5 38.5l148 -271q-76 -60 -162 -90t-174 -30q-160 0 -284 66.5t-192 180t-68 250.5q0 146 81.5 292.5t233.5 242.5t351 96q148 0 254 -53.5t161.5 -149t55.5 -217.5q0 -139 -59 -267h-677zM813 655
q-21 120 -154 120q-64 0 -116 -33t-84 -87h354zM641 1182.5q-36 32.5 -36 85.5q0 19 4 36q14 70 69 113.5t126 43.5q61 0 97 -32.5t36 -88.5q0 -19 -4 -36q-14 -68 -69 -111t-126 -43q-61 0 -97 32.5z" />
    <glyph glyph-name="Eogonek" unicode="&#x118;" horiz-adv-x="1235" 
d="M1059 0h-1051l299 1405h1035l-82 -388h-604l-29 -132h463l-76 -358h-463l-30 -139h620zM703 -358.5q-45 38.5 -45 94.5q0 68 44 135t117 129h240q-51 -42 -76.5 -67t-36 -45.5t-10.5 -45.5q0 -21 11 -33.5t31 -12.5q24 0 70 10l-17 -163q-46 -22 -87.5 -31t-90.5 -9
q-105 0 -150 38.5z" />
    <glyph glyph-name="eogonek" unicode="&#x119;" horiz-adv-x="1196" 
d="M437 410q24 -49 71.5 -74t103.5 -25q47 0 78.5 10.5t77.5 38.5l148 -271l-26 -19q-78 -61 -91 -119q-2 -12 -2 -18q0 -22 11.5 -35t32.5 -13q23 0 69 10l-13 -158q-46 -22 -88 -31t-97 -9q-88 0 -127 37t-39 95q0 19 5 42q10 47 47 98h-18q-160 0 -284 66.5t-192 180
t-68 250.5q0 146 81.5 292.5t233.5 242.5t351 96q148 0 254 -53.5t161.5 -149t55.5 -217.5q0 -139 -59 -267h-677zM813 655q-21 120 -154 120q-64 0 -116 -33t-84 -87h354z" />
    <glyph glyph-name="Ecaron" unicode="&#x11a;" horiz-adv-x="1235" 
d="M1059 0h-1051l299 1405h1035l-82 -388h-604l-29 -132h463l-76 -358h-463l-30 -139h620zM593 1709l153 176l180 -136l234 136l100 -176l-346 -213h-64z" />
    <glyph glyph-name="ecaron" unicode="&#x11b;" horiz-adv-x="1196" 
d="M437 410q24 -49 71.5 -74t103.5 -25q47 0 78.5 10.5t77.5 38.5l148 -271q-76 -60 -162 -90t-174 -30q-160 0 -284 66.5t-192 180t-68 250.5q0 146 81.5 292.5t233.5 242.5t351 96q148 0 254 -53.5t161.5 -149t55.5 -217.5q0 -139 -59 -267h-677zM813 655
q-21 120 -154 120q-64 0 -116 -33t-84 -87h354zM453 1313l143 178l180 -113l229 113l86 -178l-323 -174h-63z" />
    <glyph glyph-name="Gcircumflex" unicode="&#x11c;" horiz-adv-x="1373" 
d="M914 656h406l-113 -529q-109 -72 -246 -112t-278 -40q-179 0 -313 75t-206.5 212.5t-72.5 319.5q0 217 115 414.5t309.5 318.5t419.5 121q182 0 306 -57t197 -155l-303 -313q-6 5 -43.5 37.5t-93 54.5t-115.5 22q-82 0 -162 -49.5t-131.5 -137t-51.5 -194.5
q0 -80 30 -141t82 -94.5t118 -33.5q48 0 87 7zM1039 1611l-235 -135l-101 175l347 215h65l254 -215l-153 -175z" />
    <glyph glyph-name="gcircumflex" unicode="&#x11d;" horiz-adv-x="1298" 
d="M1300 1069l-93 -435l-107 -504q-57 -264 -213.5 -389t-415.5 -125q-138 0 -281.5 39.5t-228.5 102.5l190 295q70 -47 143.5 -68.5t167.5 -21.5q95 0 155 34.5t84 130.5q-100 -51 -217 -51q-206 0 -323.5 106t-117.5 318q0 144 79 281.5t218.5 224.5t312.5 87
q187 0 284 -104l57 79h306zM498 447.5q40 -35.5 112 -35.5q55 0 100.5 25t72 67t26.5 90q0 71 -45.5 109t-114.5 38q-58 0 -101.5 -27.5t-66.5 -70.5t-23 -88q0 -72 40 -107.5zM797 1240l-228 -112l-89 178l326 174h63l249 -174l-140 -178z" />
    <glyph glyph-name="Gbreve" unicode="&#x11e;" horiz-adv-x="1373" 
d="M914 656h406l-113 -529q-109 -72 -246 -112t-278 -40q-179 0 -313 75t-206.5 212.5t-72.5 319.5q0 217 115 414.5t309.5 318.5t419.5 121q182 0 306 -57t197 -155l-303 -313q-6 5 -43.5 37.5t-93 54.5t-115.5 22q-82 0 -162 -49.5t-131.5 -137t-51.5 -194.5
q0 -80 30 -141t82 -94.5t118 -33.5q48 0 87 7zM794.5 1560.5q-68.5 60.5 -68.5 162.5q0 41 8 76h262q-7 -23 -7 -37q0 -23 13 -36.5t40 -13.5q37 0 59.5 24.5t26.5 62.5h275q-28 -134 -128.5 -216.5t-269.5 -82.5q-142 0 -210.5 60.5z" />
    <glyph glyph-name="gbreve" unicode="&#x11f;" horiz-adv-x="1298" 
d="M1300 1069l-93 -435l-107 -504q-57 -264 -213.5 -389t-415.5 -125q-138 0 -281.5 39.5t-228.5 102.5l190 295q70 -47 143.5 -68.5t167.5 -21.5q95 0 155 34.5t84 130.5q-100 -51 -217 -51q-206 0 -323.5 106t-117.5 318q0 144 79 281.5t218.5 224.5t312.5 87
q187 0 284 -104l57 79h306zM498 447.5q40 -35.5 112 -35.5q55 0 100.5 25t72 67t26.5 90q0 71 -45.5 109t-114.5 38q-58 0 -101.5 -27.5t-66.5 -70.5t-23 -88q0 -72 40 -107.5zM569 1211.5q-65 58.5 -65 163.5q0 45 10 91h256q-6 -30 -6 -48q0 -26 12 -36t40 -10
q37 0 55.5 20t30.5 74h260q-30 -147 -126.5 -230t-263.5 -83q-138 0 -203 58.5z" />
    <glyph glyph-name="Gdotaccent" unicode="&#x120;" horiz-adv-x="1373" 
d="M914 656h406l-113 -529q-109 -72 -246 -112t-278 -40q-179 0 -313 75t-206.5 212.5t-72.5 319.5q0 217 115 414.5t309.5 318.5t419.5 121q182 0 306 -57t197 -155l-303 -313q-6 5 -43.5 37.5t-93 54.5t-115.5 22q-82 0 -162 -49.5t-131.5 -137t-51.5 -194.5
q0 -80 30 -141t82 -94.5t118 -33.5q48 0 87 7zM906 1527.5q-36 32.5 -36 85.5q0 19 4 36q14 70 69 113.5t126 43.5q61 0 97 -32.5t36 -88.5q0 -19 -4 -36q-14 -68 -69 -111t-126 -43q-61 0 -97 32.5z" />
    <glyph glyph-name="gdotaccent" unicode="&#x121;" horiz-adv-x="1298" 
d="M1300 1069l-93 -435l-107 -504q-57 -264 -213.5 -389t-415.5 -125q-138 0 -281.5 39.5t-228.5 102.5l190 295q70 -47 143.5 -68.5t167.5 -21.5q95 0 155 34.5t84 130.5q-100 -51 -217 -51q-206 0 -323.5 106t-117.5 318q0 144 79 281.5t218.5 224.5t312.5 87
q187 0 284 -104l57 79h306zM498 447.5q40 -35.5 112 -35.5q55 0 100.5 25t72 67t26.5 90q0 71 -45.5 109t-114.5 38q-58 0 -101.5 -27.5t-66.5 -70.5t-23 -88q0 -72 40 -107.5zM671 1181.5q-36 32.5 -36 85.5q0 19 4 36q14 70 69 113.5t126 43.5q61 0 97 -32.5t36 -88.5
q0 -19 -4 -36q-14 -68 -69 -111t-126 -43q-61 0 -97 32.5z" />
    <glyph glyph-name="uni0122" unicode="&#x122;" horiz-adv-x="1373" 
d="M914 656h406l-113 -529q-109 -72 -246 -112t-278 -40q-179 0 -313 75t-206.5 212.5t-72.5 319.5q0 217 115 414.5t309.5 318.5t419.5 121q182 0 306 -57t197 -155l-303 -313q-6 5 -43.5 37.5t-93 54.5t-115.5 22q-82 0 -162 -49.5t-131.5 -137t-51.5 -194.5
q0 -80 30 -141t82 -94.5t118 -33.5q48 0 87 7zM590 -418q89 72 95 104l2 5q-35 0 -54.5 19.5t-19.5 50.5q0 32 17.5 58.5t46.5 42t62 15.5q36 0 58.5 -20.5t22.5 -60.5q0 -17 -4 -33q-27 -131 -179 -237z" />
    <glyph glyph-name="uni0123" unicode="&#x123;" horiz-adv-x="1298" 
d="M1300 1069l-93 -435l-107 -504q-57 -264 -213.5 -389t-415.5 -125q-138 0 -281.5 39.5t-228.5 102.5l190 295q70 -47 143.5 -68.5t167.5 -21.5q95 0 155 34.5t84 130.5q-100 -51 -217 -51q-206 0 -323.5 106t-117.5 318q0 144 79 281.5t218.5 224.5t312.5 87
q187 0 284 -104l57 79h306zM498 447.5q40 -35.5 112 -35.5q55 0 100.5 25t72 67t26.5 90q0 71 -45.5 109t-114.5 38q-58 0 -101.5 -27.5t-66.5 -70.5t-23 -88q0 -72 40 -107.5zM936 1506q-96 -77 -101 -109l-1 -4q37 0 58 -22t21 -55q0 -35 -19 -63.5t-51 -45t-68 -16.5
q-38 0 -63 23t-25 66q0 17 4 33q31 140 193 253z" />
    <glyph glyph-name="Hcircumflex" unicode="&#x124;" horiz-adv-x="1502" 
d="M439 0h-431l299 1405h431l-98 -458h397l98 458h431l-299 -1405h-431l114 535h-397zM998 1611l-235 -135l-101 175l347 215h65l254 -215l-153 -175z" />
    <glyph glyph-name="hcircumflex" unicode="&#x125;" horiz-adv-x="1337" 
d="M1099.5 1050.5q80.5 -41.5 125 -119.5t44.5 -185q0 -56 -14 -124l-132 -622h-404l117 548q7 32 7 63q0 55 -26.5 84t-76.5 29q-47 0 -94.5 -22.5t-81.5 -58t-42 -71.5v1l-122 -573h-402l320 1502h402l-108 -508q71 46 150.5 72t150.5 26q106 0 186.5 -41.5zM976 1673
l-235 -135l-101 175l347 215h65l254 -215l-153 -175z" />
    <glyph glyph-name="Hbar" unicode="&#x126;" horiz-adv-x="1502" 
d="M1543 1296h80l-53 -250h-80l-223 -1046h-431l114 535h-397l-114 -535h-431l223 1046h-68l54 250h67l23 109h431l-23 -109h397l23 109h431zM640 947h397l21 99h-397z" />
    <glyph glyph-name="hbar" unicode="&#x127;" horiz-adv-x="1337" 
d="M1099.5 1050.5q80.5 -41.5 125 -119.5t44.5 -185q0 -56 -14 -124l-132 -622h-404l117 548q7 32 7 63q0 55 -26.5 84t-76.5 29q-47 0 -94.5 -22.5t-81.5 -58t-42 -71.5v1l-122 -573h-402l245 1152h-116l70 255h101l20 95h402l-20 -95h281l-70 -255h-266l-33 -158
q71 46 150.5 72t150.5 26q106 0 186.5 -41.5z" />
    <glyph glyph-name="Itilde" unicode="&#x128;" horiz-adv-x="674" 
d="M439 0h-431l299 1405h431zM198 1583q75 118 139.5 163t128.5 45q46 0 82 -10t79 -28q28 -12 44.5 -17t31.5 -5q14 0 35 14t44 39l129 -88q-74 -117 -139 -162t-128 -45q-46 0 -82.5 10t-79.5 27q-31 12 -46 16.5t-30 4.5q-13 0 -34.5 -14t-42.5 -38z" />
    <glyph glyph-name="itilde" unicode="&#x129;" horiz-adv-x="629" 
d="M403 0h-405l228 1069h405zM124 1238q75 118 139.5 163t128.5 45q46 0 82 -10t79 -28q28 -12 44.5 -17t31.5 -5q14 0 35 14t44 39l129 -88q-74 -117 -139 -162t-128 -45q-46 0 -82.5 10t-79.5 27q-31 12 -46 16.5t-30 4.5q-13 0 -34.5 -14t-42.5 -38z" />
    <glyph glyph-name="Imacron" unicode="&#x12a;" horiz-adv-x="674" 
d="M439 0h-431l299 1405h431zM851 1502h-616l49 232h617z" />
    <glyph glyph-name="imacron" unicode="&#x12b;" horiz-adv-x="629" 
d="M403 0h-405l228 1069h405zM761 1157h-616l49 232h617z" />
    <glyph glyph-name="Ibreve" unicode="&#x12c;" horiz-adv-x="674" 
d="M439 0h-431l299 1405h431zM318.5 1560.5q-68.5 60.5 -68.5 162.5q0 41 8 76h262q-7 -23 -7 -37q0 -23 13 -36.5t40 -13.5q37 0 59.5 24.5t26.5 62.5h275q-28 -134 -128.5 -216.5t-269.5 -82.5q-142 0 -210.5 60.5z" />
    <glyph glyph-name="ibreve" unicode="&#x12d;" horiz-adv-x="629" 
d="M403 0h-405l228 1069h405zM247 1212.5q-65 58.5 -65 163.5q0 45 10 91h256q-6 -30 -6 -48q0 -26 12 -36t40 -10q37 0 55.5 20t30.5 74h260q-30 -147 -126.5 -230t-263.5 -83q-138 0 -203 58.5z" />
    <glyph glyph-name="Iogonek" unicode="&#x12e;" horiz-adv-x="674" 
d="M439 0h-431l299 1405h431zM83 -358.5q-45 38.5 -45 94.5q0 68 44 135t117 129h240q-51 -42 -76.5 -67t-36 -45.5t-10.5 -45.5q0 -21 11 -33.5t31 -12.5q24 0 70 10l-17 -163q-46 -22 -87.5 -31t-90.5 -9q-105 0 -150 38.5z" />
    <glyph glyph-name="iogonek" unicode="&#x12f;" horiz-adv-x="629" 
d="M351 1182q-43 24 -65.5 64.5t-22.5 87.5q0 20 5 43q12 55 52 106t99.5 82.5t127.5 31.5q58 0 100.5 -24.5t64.5 -65t22 -88.5q0 -23 -4 -42q-12 -56 -51.5 -106.5t-99 -81.5t-127.5 -31q-58 0 -101 24zM403 0h-405l228 1069h405zM403 0q-119 -83 -119 -156
q0 -22 11.5 -35t32.5 -13q23 0 69 10l-13 -158q-46 -22 -88 -31t-97 -9q-88 0 -127 37t-39 95q0 19 5 42q10 46 42 91.5t69 79t61 47.5h193z" />
    <glyph glyph-name="Idotaccent" unicode="&#x130;" horiz-adv-x="674" 
d="M439 0h-431l299 1405h431zM430 1527.5q-36 32.5 -36 85.5q0 19 4 36q14 70 69 113.5t126 43.5q61 0 97 -32.5t36 -88.5q0 -19 -4 -36q-14 -68 -69 -111t-126 -43q-61 0 -97 32.5z" />
    <glyph glyph-name="dotlessi" unicode="&#x131;" horiz-adv-x="629" 
d="M403 0h-405l228 1069h405z" />
    <glyph glyph-name="IJ" unicode="&#x132;" horiz-adv-x="1654" 
d="M439 0h-431l299 1405h431zM791.5 17.5q-101.5 49.5 -185.5 140.5l276 295q83 -72 135 -72q75 0 97 101l196 923h431l-202 -953q-35 -167 -114 -275.5t-181 -158.5t-214 -50q-137 0 -238.5 49.5z" />
    <glyph glyph-name="ij" unicode="&#x133;" horiz-adv-x="1263" 
d="M351 1182q-43 24 -65.5 64.5t-22.5 87.5q0 20 5 43q12 55 52 106t99.5 82.5t127.5 31.5q58 0 100.5 -24.5t64.5 -65t22 -88.5q0 -23 -4 -42q-12 -56 -51.5 -106.5t-99 -81.5t-127.5 -31q-58 0 -101 24zM403 0h-405l228 1069h405zM985 1182q-43 24 -65.5 64.5t-22.5 87.5
q0 20 5 43q12 55 52 106t99.5 82.5t127.5 31.5q58 0 100.5 -24.5t64.5 -65t22 -88.5q0 -23 -4 -42q-12 -56 -51.5 -106.5t-99 -81.5t-127.5 -31q-58 0 -101 24zM415 -389l76 355h18q63 0 96 27t43 77l214 999h402l-211 -990q-50 -232 -198.5 -350t-368.5 -118h-71z" />
    <glyph glyph-name="Jcircumflex" unicode="&#x134;" horiz-adv-x="980" 
d="M117.5 17.5q-101.5 49.5 -185.5 140.5l276 295q83 -72 135 -72q75 0 97 101l196 923h431l-202 -953q-35 -167 -114 -275.5t-181 -158.5t-214 -50q-137 0 -238.5 49.5zM904 1611l-235 -135l-101 175l347 215h65l254 -215l-153 -175z" />
    <glyph glyph-name="jcircumflex" unicode="&#x135;" horiz-adv-x="619" 
d="M-228 -389l76 355h18q63 0 96 27t43 77l214 999h402l-211 -990q-50 -232 -198.5 -350t-368.5 -118h-71zM467 1241l-228 -112l-89 178l326 174h63l249 -174l-140 -178z" />
    <glyph glyph-name="uni0136" unicode="&#x136;" horiz-adv-x="1455" 
d="M1071 1405h544l-627 -600l336 -805h-491l-179 484l-141 -134l-74 -350h-431l299 1405h431l-93 -439zM525 -418q89 72 95 104l2 5q-35 0 -54.5 19.5t-19.5 50.5q0 32 17.5 58.5t46.5 42t62 15.5q36 0 58.5 -20.5t22.5 -60.5q0 -17 -4 -33q-27 -131 -179 -237z" />
    <glyph glyph-name="uni0137" unicode="&#x137;" horiz-adv-x="1309" 
d="M885 1069h512l-492 -438l292 -631h-451l-151 356l-145 -129l-48 -227h-404l320 1502h405l-160 -747zM349 -440q89 72 95 104l2 5q-35 0 -54.5 19.5t-19.5 50.5q0 32 17.5 58.5t46.5 42t62 15.5q36 0 58.5 -20.5t22.5 -60.5q0 -17 -4 -33q-27 -131 -179 -237z" />
    <glyph glyph-name="kgreenlandic" unicode="&#x138;" horiz-adv-x="1309" 
d="M885 1069h512l-492 -438l292 -631h-451l-151 355l-145 -129l-48 -226h-404l229 1069h404l-67 -313z" />
    <glyph glyph-name="Lacute" unicode="&#x139;" horiz-adv-x="1162" 
d="M967 0h-959l299 1405h431l-211 -993h528zM941 1770l-317 -270h-298l213 270h402z" />
    <glyph glyph-name="lacute" unicode="&#x13a;" horiz-adv-x="627" 
d="M400 0h-402l320 1502h402zM958 1846l-317 -270h-298l213 270h402z" />
    <glyph glyph-name="uni013B" unicode="&#x13b;" horiz-adv-x="1162" 
d="M967 0h-959l299 1405h431l-211 -993h528zM304 -418q89 72 95 104l2 5q-35 0 -54.5 19.5t-19.5 50.5q0 32 17.5 58.5t46.5 42t62 15.5q36 0 58.5 -20.5t22.5 -60.5q0 -17 -4 -33q-27 -131 -179 -237z" />
    <glyph glyph-name="uni013C" unicode="&#x13c;" horiz-adv-x="627" 
d="M400 0h-402l320 1502h402zM17 -440q89 72 95 104l2 5q-35 0 -54.5 19.5t-19.5 50.5q0 32 17.5 58.5t46.5 42t62 15.5q36 0 58.5 -20.5t22.5 -60.5q0 -17 -4 -33q-27 -131 -179 -237z" />
    <glyph glyph-name="Lcaron" unicode="&#x13d;" horiz-adv-x="1162" 
d="M967 0h-959l299 1405h431l-211 -993h528zM1083 983h-225l60 422h287z" />
    <glyph glyph-name="lcaron" unicode="&#x13e;" horiz-adv-x="737" 
d="M400 0h-402l320 1502h402zM902 1080h-225l60 422h287z" />
    <glyph glyph-name="Ldot" unicode="&#x13f;" horiz-adv-x="1162" 
d="M967 0h-959l299 1405h431l-211 -993h528zM696 623q-34 32 -34 81q0 15 3 30q13 61 65 102.5t120 41.5q59 0 93.5 -32t34.5 -81q0 -14 -3 -31q-14 -61 -65.5 -102t-120.5 -41q-59 0 -93 32z" />
    <glyph glyph-name="ldot" unicode="&#x140;" horiz-adv-x="906" 
d="M400 0h-402l320 1502h402zM663 636q-35 34 -35 85q0 16 3 32q9 41 36 75t68 54t88 20q62 0 97.5 -33t35.5 -85q0 -14 -3 -31q-9 -41 -36.5 -75.5t-69 -55t-89.5 -20.5q-60 0 -95 34z" />
    <glyph glyph-name="Lslash" unicode="&#x141;" horiz-adv-x="1162" 
d="M586 688l-59 -276h528l-88 -412h-959l105 494l-129 -53l-43 166l215 88l151 710h431l-110 -515l201 82l43 -166z" />
    <glyph glyph-name="lslash" unicode="&#x142;" horiz-adv-x="627" 
d="M691 998l47 -133l-172 -87l-166 -778h-402l117 551l-82 -42l-47 134l167 84l165 775h402l-117 -548z" />
    <glyph glyph-name="Nacute" unicode="&#x143;" horiz-adv-x="1487" 
d="M426 0h-418l299 1405h410l273 -672l143 672h418l-299 -1405h-367l-305 728zM1367 1770l-317 -270h-298l213 270h402z" />
    <glyph glyph-name="nacute" unicode="&#x144;" horiz-adv-x="1337" 
d="M1099.5 1050.5q80.5 -41.5 125 -119.5t44.5 -185q0 -56 -14 -124l-132 -622h-404l117 548q7 32 7 63q0 55 -26.5 84t-76.5 29q-42 0 -85 -18t-76.5 -48t-48.5 -63l-127 -595h-405l229 1069h297l45 -105q76 59 169 93.5t175 34.5q106 0 186.5 -41.5zM1321 1460l-299 -300
h-279l194 300h384z" />
    <glyph glyph-name="uni0145" unicode="&#x145;" horiz-adv-x="1487" 
d="M426 0h-418l299 1405h410l273 -672l143 672h418l-299 -1405h-367l-305 728zM524 -418q89 72 95 104l2 5q-35 0 -54.5 19.5t-19.5 50.5q0 32 17.5 58.5t46.5 42t62 15.5q36 0 58.5 -20.5t22.5 -60.5q0 -17 -4 -33q-27 -131 -179 -237z" />
    <glyph glyph-name="uni0146" unicode="&#x146;" horiz-adv-x="1337" 
d="M1099.5 1050.5q80.5 -41.5 125 -119.5t44.5 -185q0 -56 -14 -124l-132 -622h-404l117 548q7 32 7 63q0 55 -26.5 84t-76.5 29q-42 0 -85 -18t-76.5 -48t-48.5 -63l-127 -595h-405l229 1069h297l45 -105q76 59 169 93.5t175 34.5q106 0 186.5 -41.5zM356 -440
q89 72 95 104l2 5q-35 0 -54.5 19.5t-19.5 50.5q0 32 17.5 58.5t46.5 42t62 15.5q36 0 58.5 -20.5t22.5 -60.5q0 -17 -4 -33q-27 -131 -179 -237z" />
    <glyph glyph-name="Ncaron" unicode="&#x147;" horiz-adv-x="1487" 
d="M426 0h-418l299 1405h410l273 -672l143 672h418l-299 -1405h-367l-305 728zM668 1709l153 176l180 -136l234 136l100 -176l-346 -213h-64z" />
    <glyph glyph-name="ncaron" unicode="&#x148;" horiz-adv-x="1337" 
d="M1099.5 1050.5q80.5 -41.5 125 -119.5t44.5 -185q0 -56 -14 -124l-132 -622h-404l117 548q7 32 7 63q0 55 -26.5 84t-76.5 29q-42 0 -85 -18t-76.5 -48t-48.5 -63l-127 -595h-405l229 1069h297l45 -105q76 59 169 93.5t175 34.5q106 0 186.5 -41.5zM568 1314l143 178
l180 -113l229 113l86 -178l-323 -174h-63z" />
    <glyph glyph-name="Eng" unicode="&#x14a;" horiz-adv-x="1487" 
d="M1281 136l-3 -15l-26 -121l-5 -21q-43 -206 -191 -311.5t-368 -105.5h-70l76 355h19q48 0 73.5 19t34.5 65l22 99l-263 628l-154 -728h-418l299 1405h410l273 -672l143 672h418z" />
    <glyph glyph-name="eng" unicode="&#x14b;" horiz-adv-x="1316" 
d="M1102.5 1051q80.5 -41 125 -118.5t44.5 -185.5q0 -62 -14 -125l-106 -490l-32 -153q-41 -201 -177.5 -303.5t-341.5 -102.5h-66l70 347h18q43 0 66.5 18.5t32.5 62.5l27 131l89 416q8 38 8 64q0 55 -26.5 83.5t-76.5 28.5q-45 0 -90.5 -20t-79.5 -52.5t-46 -67.5
l-124 -584h-405l228 1069h306l38 -106q77 60 170 94.5t176 34.5q106 0 186.5 -41z" />
    <glyph glyph-name="Omacron" unicode="&#x14c;" horiz-adv-x="1590" 
d="M382.5 45q-141.5 73 -216.5 211t-75 329q0 212 111 408.5t305 318t431 121.5q195 0 337 -74.5t217.5 -214t75.5 -332.5q0 -210 -111 -404t-306 -315t-432 -121q-195 0 -336.5 73zM954 432.5q83 49.5 132 136.5t49 194q0 127 -69.5 193t-181.5 66q-96 0 -179 -50.5
t-132 -139.5t-49 -199q0 -124 69 -187t181 -63q97 0 180 49.5zM1320 1497h-616l49 232h617z" />
    <glyph glyph-name="omacron" unicode="&#x14d;" horiz-adv-x="1276" 
d="M296.5 36.5q-125.5 67.5 -192.5 182t-67 250.5q0 147 82 293t230.5 241t336.5 95q168 0 293.5 -68t192 -183.5t66.5 -253.5q0 -144 -83.5 -289.5t-232 -240t-332.5 -94.5q-168 0 -293.5 67.5zM728.5 383q47.5 31 73 78t25.5 93q0 45 -24 81.5t-64 57.5t-85 21
q-61 0 -108 -30.5t-72.5 -78.5t-25.5 -97q0 -43 23 -78.5t62.5 -56.5t85.5 -21q62 0 109.5 31zM1075 1162h-616l49 232h617z" />
    <glyph glyph-name="Obreve" unicode="&#x14e;" horiz-adv-x="1590" 
d="M382.5 45q-141.5 73 -216.5 211t-75 329q0 212 111 408.5t305 318t431 121.5q195 0 337 -74.5t217.5 -214t75.5 -332.5q0 -210 -111 -404t-306 -315t-432 -121q-195 0 -336.5 73zM954 432.5q83 49.5 132 136.5t49 194q0 127 -69.5 193t-181.5 66q-96 0 -179 -50.5
t-132 -139.5t-49 -199q0 -124 69 -187t181 -63q97 0 180 49.5zM787.5 1555.5q-68.5 60.5 -68.5 162.5q0 41 8 76h262q-7 -23 -7 -37q0 -23 13 -36.5t40 -13.5q37 0 59.5 24.5t26.5 62.5h275q-28 -134 -128.5 -216.5t-269.5 -82.5q-142 0 -210.5 60.5z" />
    <glyph glyph-name="obreve" unicode="&#x14f;" horiz-adv-x="1276" 
d="M296.5 36.5q-125.5 67.5 -192.5 182t-67 250.5q0 147 82 293t230.5 241t336.5 95q168 0 293.5 -68t192 -183.5t66.5 -253.5q0 -144 -83.5 -289.5t-232 -240t-332.5 -94.5q-168 0 -293.5 67.5zM728.5 383q47.5 31 73 78t25.5 93q0 45 -24 81.5t-64 57.5t-85 21
q-61 0 -108 -30.5t-72.5 -78.5t-25.5 -97q0 -43 23 -78.5t62.5 -56.5t85.5 -21q62 0 109.5 31zM561 1217.5q-65 58.5 -65 163.5q0 45 10 91h256q-6 -30 -6 -48q0 -26 12 -36t40 -10q37 0 55.5 20t30.5 74h260q-30 -147 -126.5 -230t-263.5 -83q-138 0 -203 58.5z" />
    <glyph glyph-name="Ohungarumlaut" unicode="&#x150;" horiz-adv-x="1590" 
d="M382.5 45q-141.5 73 -216.5 211t-75 329q0 212 111 408.5t305 318t431 121.5q195 0 337 -74.5t217.5 -214t75.5 -332.5q0 -210 -111 -404t-306 -315t-432 -121q-195 0 -336.5 73zM954 432.5q83 49.5 132 136.5t49 194q0 127 -69.5 193t-181.5 66q-96 0 -179 -50.5
t-132 -139.5t-49 -199q0 -124 69 -187t181 -63q97 0 180 49.5zM1093 1768l-246 -270h-232l166 270h312zM1449 1767l-257 -270h-242l173 270h326z" />
    <glyph glyph-name="ohungarumlaut" unicode="&#x151;" horiz-adv-x="1276" 
d="M296.5 36.5q-125.5 67.5 -192.5 182t-67 250.5q0 147 82 293t230.5 241t336.5 95q168 0 293.5 -68t192 -183.5t66.5 -253.5q0 -144 -83.5 -289.5t-232 -240t-332.5 -94.5q-168 0 -293.5 67.5zM728.5 383q47.5 31 73 78t25.5 93q0 45 -24 81.5t-64 57.5t-85 21
q-61 0 -108 -30.5t-72.5 -78.5t-25.5 -97q0 -43 23 -78.5t62.5 -56.5t85.5 -21q62 0 109.5 31zM1307 1464l-254 -300h-236l154 280l-237 -280h-236l164 300h645z" />
    <glyph glyph-name="OE" unicode="&#x152;" horiz-adv-x="2230" 
d="M2254 1017h-604l-29 -132h463l-75 -358h-463l-30 -139h619l-82 -388h-1051l5 23q-138 -51 -288 -51q-195 0 -336.5 73t-216.5 211t-75 329q0 212 111 408.5t305 318t431 121.5q207 0 351 -82l12 54h1036zM593 446q69 -63 181 -63q97 0 180 49.5t132 136.5t49 194
q0 127 -69.5 193t-181.5 66q-96 0 -179 -50.5t-132 -139.5t-49 -199q0 -124 69 -187z" />
    <glyph glyph-name="oe" unicode="&#x153;" horiz-adv-x="2000" 
d="M1241 410q24 -49 71.5 -74t103.5 -25q47 0 78.5 10.5t77.5 38.5l148 -271q-76 -60 -162 -90t-174 -30q-120 0 -220 38t-173 106q-83 -68 -184.5 -106t-216.5 -38q-168 0 -293.5 67.5t-192.5 182t-67 250.5q0 147 82 293t230.5 241t336.5 95q124 0 225.5 -38t175.5 -107
q85 68 190.5 106t228.5 38q148 0 254 -53.5t161.5 -149t55.5 -217.5q0 -139 -59 -267h-677zM1617 655q-21 120 -154 120q-64 0 -116 -33t-84 -87h354zM728.5 383q47.5 31 73 78t25.5 93q0 45 -24 81.5t-64 57.5t-85 21q-61 0 -108 -30.5t-72.5 -78.5t-25.5 -97
q0 -43 23 -78.5t62.5 -56.5t85.5 -21q62 0 109.5 31z" />
    <glyph glyph-name="Racute" unicode="&#x154;" horiz-adv-x="1343" 
d="M1268 735.5q-74 -121.5 -206 -196.5l160 -539h-462l-112 430q-14 -1 -44 -1h-73l-92 -429h-431l299 1405h601q127 0 225.5 -49t153.5 -138t55 -205q0 -156 -74 -277.5zM656 1017l-45 -212h132q41 0 77 21.5t58 53t22 60.5q0 37 -24.5 57t-58.5 20h-161zM1176 1770
l-317 -270h-298l213 270h402z" />
    <glyph glyph-name="racute" unicode="&#x155;" horiz-adv-x="1001" 
d="M988 1067.5q61 -23.5 109 -68.5l-247 -328q-59 50 -123 50q-42 0 -84 -21t-75 -62t-50 -100l-115 -538h-405l229 1069h297l46 -108q58 69 124 99.5t165 30.5q68 0 129 -23.5zM1087 1459l-299 -300h-279l194 300h384z" />
    <glyph glyph-name="uni0156" unicode="&#x156;" horiz-adv-x="1343" 
d="M1268 735.5q-74 -121.5 -206 -196.5l160 -539h-462l-112 430q-14 -1 -44 -1h-73l-92 -429h-431l299 1405h601q127 0 225.5 -49t153.5 -138t55 -205q0 -156 -74 -277.5zM656 1017l-45 -212h132q41 0 77 21.5t58 53t22 60.5q0 37 -24.5 57t-58.5 20h-161zM430 -418
q89 72 95 104l2 5q-35 0 -54.5 19.5t-19.5 50.5q0 32 17.5 58.5t46.5 42t62 15.5q36 0 58.5 -20.5t22.5 -60.5q0 -17 -4 -33q-27 -131 -179 -237z" />
    <glyph glyph-name="uni0157" unicode="&#x157;" horiz-adv-x="1001" 
d="M988 1067.5q61 -23.5 109 -68.5l-247 -328q-59 50 -123 50q-42 0 -84 -21t-75 -62t-50 -100l-115 -538h-405l229 1069h297l46 -108q58 69 124 99.5t165 30.5q68 0 129 -23.5zM25 -440q89 72 95 104l2 5q-35 0 -54.5 19.5t-19.5 50.5q0 32 17.5 58.5t46.5 42t62 15.5
q36 0 58.5 -20.5t22.5 -60.5q0 -17 -4 -33q-27 -131 -179 -237z" />
    <glyph glyph-name="Rcaron" unicode="&#x158;" horiz-adv-x="1343" 
d="M1268 735.5q-74 -121.5 -206 -196.5l160 -539h-462l-112 430q-14 -1 -44 -1h-73l-92 -429h-431l299 1405h601q127 0 225.5 -49t153.5 -138t55 -205q0 -156 -74 -277.5zM656 1017l-45 -212h132q41 0 77 21.5t58 53t22 60.5q0 37 -24.5 57t-58.5 20h-161zM476 1709l153 176
l180 -136l234 136l100 -176l-346 -213h-64z" />
    <glyph glyph-name="rcaron" unicode="&#x159;" horiz-adv-x="1001" 
d="M988 1067.5q61 -23.5 109 -68.5l-247 -328q-59 50 -123 50q-42 0 -84 -21t-75 -62t-50 -100l-115 -538h-405l229 1069h297l46 -108q58 69 124 99.5t165 30.5q68 0 129 -23.5zM334 1313l143 178l180 -113l229 113l86 -178l-323 -174h-63z" />
    <glyph glyph-name="Sacute" unicode="&#x15a;" horiz-adv-x="1193" 
d="M197.5 39.5q-137.5 67.5 -243.5 198.5l287 274q76 -72 160 -106.5t161 -34.5q103 0 103 48q0 26 -30.5 59t-140.5 72q-123 43 -220.5 139t-97.5 258q0 106 49 216.5t172.5 189.5t331.5 79q163 0 293 -57.5t214 -158.5l-287 -291q-46 42 -111 75.5t-135 33.5
q-41 0 -62 -13.5t-21 -33.5q0 -56 161 -107q170 -57 248 -154.5t78 -235.5q0 -121 -65 -240t-202 -198.5t-339 -79.5q-166 0 -303.5 67.5zM1270 1770l-317 -270h-298l213 270h402z" />
    <glyph glyph-name="sacute" unicode="&#x15b;" horiz-adv-x="944" 
d="M-11 124l178 283q144 -102 255 -102q29 0 38 3.5t9 6.5q0 13 -28.5 32.5t-96.5 51.5q-102 47 -162.5 118.5t-60.5 189.5q0 87 39.5 175.5t133.5 150t247 61.5q122 0 221 -39.5t168 -110.5l-229 -262q-38 34 -86.5 53t-89.5 19q-21 0 -21 -21q0 -11 6.5 -17t30 -16
t60.5 -24q131 -50 194 -124t63 -188q0 -95 -49 -186t-150 -150t-248 -59q-252 0 -422 155zM1078 1459l-299 -300h-279l194 300h384z" />
    <glyph glyph-name="Scircumflex" unicode="&#x15c;" horiz-adv-x="1193" 
d="M197.5 39.5q-137.5 67.5 -243.5 198.5l287 274q76 -72 160 -106.5t161 -34.5q103 0 103 48q0 26 -30.5 59t-140.5 72q-123 43 -220.5 139t-97.5 258q0 106 49 216.5t172.5 189.5t331.5 79q163 0 293 -57.5t214 -158.5l-287 -291q-46 42 -111 75.5t-135 33.5
q-41 0 -62 -13.5t-21 -33.5q0 -56 161 -107q170 -57 248 -154.5t78 -235.5q0 -121 -65 -240t-202 -198.5t-339 -79.5q-166 0 -303.5 67.5zM890 1611l-235 -135l-101 175l347 215h65l254 -215l-153 -175z" />
    <glyph glyph-name="scircumflex" unicode="&#x15d;" horiz-adv-x="944" 
d="M-11 124l178 283q144 -102 255 -102q29 0 38 3.5t9 6.5q0 13 -28.5 32.5t-96.5 51.5q-102 47 -162.5 118.5t-60.5 189.5q0 87 39.5 175.5t133.5 150t247 61.5q122 0 221 -39.5t168 -110.5l-229 -262q-38 34 -86.5 53t-89.5 19q-21 0 -21 -21q0 -11 6.5 -17t30 -16
t60.5 -24q131 -50 194 -124t63 -188q0 -95 -49 -186t-150 -150t-248 -59q-252 0 -422 155zM639 1241l-228 -112l-89 178l326 174h63l249 -174l-140 -178z" />
    <glyph glyph-name="Scedilla" unicode="&#x15e;" horiz-adv-x="1193" 
d="M1029 725.5q78 -97.5 78 -235.5q0 -102 -47.5 -205.5t-146 -184t-245.5 -111.5q44 -100 44 -173q0 -23 -4 -40q-14 -64 -50 -108t-120 -72t-232 -32l19 183q52 5 79 15.5t37 24.5t15 37q2 7 2 21q0 24 -10.5 54.5t-33.5 77.5q-275 32 -460 261l287 274q76 -72 160 -106.5
t161 -34.5q103 0 103 48q0 26 -30.5 59t-140.5 72q-123 43 -220.5 139t-97.5 258q0 106 49 216.5t172.5 189.5t331.5 79q163 0 293 -57.5t214 -158.5l-287 -291q-46 42 -111 75.5t-135 33.5q-41 0 -62 -13.5t-21 -33.5q0 -56 161 -107q170 -57 248 -154.5z" />
    <glyph glyph-name="scedilla" unicode="&#x15f;" horiz-adv-x="944" 
d="M795 552q63 -74 63 -188q0 -89 -44.5 -176t-135.5 -148t-223 -70q45 -69 45 -135q0 -12 -4 -34q-12 -58 -46.5 -101t-112.5 -71t-211 -32l16 175q52 5 79.5 15.5t37.5 25t15 36.5q2 14 2 21q0 22 -10 46.5t-37 75.5q-136 37 -240 132l178 283q144 -102 255 -102
q29 0 38 3.5t9 6.5q0 13 -28.5 32.5t-96.5 51.5q-102 47 -162.5 118.5t-60.5 189.5q0 87 39.5 175.5t133.5 150t247 61.5q122 0 221 -39.5t168 -110.5l-229 -262q-38 34 -86.5 53t-89.5 19q-21 0 -21 -21q0 -11 6.5 -17t30 -16t60.5 -24q131 -50 194 -124z" />
    <glyph glyph-name="Scaron" unicode="&#x160;" horiz-adv-x="1193" 
d="M197.5 39.5q-137.5 67.5 -243.5 198.5l287 274q76 -72 160 -106.5t161 -34.5q103 0 103 48q0 26 -30.5 59t-140.5 72q-123 43 -220.5 139t-97.5 258q0 106 49 216.5t172.5 189.5t331.5 79q163 0 293 -57.5t214 -158.5l-287 -291q-46 42 -111 75.5t-135 33.5
q-41 0 -62 -13.5t-21 -33.5q0 -56 161 -107q170 -57 248 -154.5t78 -235.5q0 -121 -65 -240t-202 -198.5t-339 -79.5q-166 0 -303.5 67.5zM570 1709l153 176l180 -136l234 136l100 -176l-346 -213h-64z" />
    <glyph glyph-name="scaron" unicode="&#x161;" horiz-adv-x="944" 
d="M-11 124l178 283q144 -102 255 -102q29 0 38 3.5t9 6.5q0 13 -28.5 32.5t-96.5 51.5q-102 47 -162.5 118.5t-60.5 189.5q0 87 39.5 175.5t133.5 150t247 61.5q122 0 221 -39.5t168 -110.5l-229 -262q-38 34 -86.5 53t-89.5 19q-21 0 -21 -21q0 -11 6.5 -17t30 -16
t60.5 -24q131 -50 194 -124t63 -188q0 -95 -49 -186t-150 -150t-248 -59q-252 0 -422 155zM325 1313l143 178l180 -113l229 113l86 -178l-323 -174h-63z" />
    <glyph glyph-name="uni0162" unicode="&#x162;" horiz-adv-x="1262" 
d="M250 1405h1130l-85 -401h-350l-214 -1004h-85q49 -107 49 -184q0 -23 -4 -40q-14 -64 -50 -108t-120 -72t-232 -32l19 183q52 5 79 15.5t37 24.5t15 37q2 7 2 21q0 26 -12.5 60.5t-42.5 94.5h-86l214 1004h-349z" />
    <glyph glyph-name="uni0163" unicode="&#x163;" horiz-adv-x="717" 
d="M644 1069h188l-78 -369h-190l-150 -700h-125q28 -34 47.5 -77.5t19.5 -86.5q0 -19 -4 -35q-12 -58 -46.5 -101t-112.5 -71t-211 -32l16 175q52 5 79.5 15.5t37.5 25t15 36.5q2 7 2 22q0 23 -10.5 48t-40.5 81h-72l150 700h-122l79 369h119l52 244l430 102z" />
    <glyph glyph-name="Tcaron" unicode="&#x164;" horiz-adv-x="1262" 
d="M731 0h-431l214 1004h-349l85 401h1130l-85 -401h-350zM552 1709l153 176l180 -136l234 136l100 -176l-346 -213h-64z" />
    <glyph glyph-name="tcaron" unicode="&#x165;" horiz-adv-x="768" 
d="M414 0h-405l150 700h-122l79 369h119l52 244l430 102l-73 -346h188l-78 -369h-190zM954 1176h-225l60 422h287z" />
    <glyph glyph-name="Tbar" unicode="&#x166;" horiz-adv-x="1262" 
d="M1380 1405l-85 -401h-350l-33 -154h180l-71 -326h-178l-112 -524h-431l112 524h-175l71 326h173l33 154h-349l85 401h1130z" />
    <glyph glyph-name="tbar" unicode="&#x167;" horiz-adv-x="717" 
d="M832 1069l-78 -369h-190l-19 -87h118l-58 -207h-104l-87 -406h-405l87 406h-135l58 207h121l19 87h-122l79 369h119l52 244l430 102l-73 -346h188z" />
    <glyph glyph-name="Utilde" unicode="&#x168;" horiz-adv-x="1427" 
d="M322.5 22.5q-117.5 55.5 -178.5 155.5t-61 230q0 60 14 128l185 869h431l-171 -805q-11 -52 -11 -92q0 -67 30.5 -103.5t93.5 -36.5q57 0 111 29t92.5 82t53.5 121l172 805h431l-186 -869q-34 -164 -131.5 -293t-249.5 -202.5t-343 -73.5q-165 0 -282.5 55.5zM567 1583
q75 118 139.5 163t128.5 45q46 0 82 -10t79 -28q28 -12 44.5 -17t31.5 -5q14 0 35 14t44 39l129 -88q-74 -117 -139 -162t-128 -45q-46 0 -82.5 10t-79.5 27q-31 12 -46 16.5t-30 4.5q-13 0 -34.5 -14t-42.5 -38z" />
    <glyph glyph-name="utilde" unicode="&#x169;" horiz-adv-x="1337" 
d="M934 1069h404l-228 -1069h-297l-45 106q-76 -60 -169 -94.5t-175 -34.5q-106 0 -186.5 41.5t-125 120t-44.5 186.5q0 60 13 122l133 622h404l-117 -547q-7 -32 -7 -63q0 -55 26 -84.5t76 -29.5q43 0 86 18.5t77 48.5t48 63zM469 1238q75 118 139.5 163t128.5 45
q46 0 82 -10t79 -28q28 -12 44.5 -17t31.5 -5q14 0 35 14t44 39l129 -88q-74 -117 -139 -162t-128 -45q-46 0 -82.5 10t-79.5 27q-31 12 -46 16.5t-30 4.5q-13 0 -34.5 -14t-42.5 -38z" />
    <glyph glyph-name="Umacron" unicode="&#x16a;" horiz-adv-x="1427" 
d="M322.5 22.5q-117.5 55.5 -178.5 155.5t-61 230q0 60 14 128l185 869h431l-171 -805q-11 -52 -11 -92q0 -67 30.5 -103.5t93.5 -36.5q57 0 111 29t92.5 82t53.5 121l172 805h431l-186 -869q-34 -164 -131.5 -293t-249.5 -202.5t-343 -73.5q-165 0 -282.5 55.5zM1220 1502
h-616l49 232h617z" />
    <glyph glyph-name="umacron" unicode="&#x16b;" horiz-adv-x="1337" 
d="M934 1069h404l-228 -1069h-297l-45 106q-76 -60 -169 -94.5t-175 -34.5q-106 0 -186.5 41.5t-125 120t-44.5 186.5q0 60 13 122l133 622h404l-117 -547q-7 -32 -7 -63q0 -55 26 -84.5t76 -29.5q43 0 86 18.5t77 48.5t48 63zM1106 1157h-616l49 232h617z" />
    <glyph glyph-name="Ubreve" unicode="&#x16c;" horiz-adv-x="1427" 
d="M322.5 22.5q-117.5 55.5 -178.5 155.5t-61 230q0 60 14 128l185 869h431l-171 -805q-11 -52 -11 -92q0 -67 30.5 -103.5t93.5 -36.5q57 0 111 29t92.5 82t53.5 121l172 805h431l-186 -869q-34 -164 -131.5 -293t-249.5 -202.5t-343 -73.5q-165 0 -282.5 55.5z
M687.5 1560.5q-68.5 60.5 -68.5 162.5q0 41 8 76h262q-7 -23 -7 -37q0 -23 13 -36.5t40 -13.5q37 0 59.5 24.5t26.5 62.5h275q-28 -134 -128.5 -216.5t-269.5 -82.5q-142 0 -210.5 60.5z" />
    <glyph glyph-name="ubreve" unicode="&#x16d;" horiz-adv-x="1337" 
d="M934 1069h404l-228 -1069h-297l-45 106q-76 -60 -169 -94.5t-175 -34.5q-106 0 -186.5 41.5t-125 120t-44.5 186.5q0 60 13 122l133 622h404l-117 -547q-7 -32 -7 -63q0 -55 26 -84.5t76 -29.5q43 0 86 18.5t77 48.5t48 63zM592 1212.5q-65 58.5 -65 163.5q0 45 10 91
h256q-6 -30 -6 -48q0 -26 12 -36t40 -10q37 0 55.5 20t30.5 74h260q-30 -147 -126.5 -230t-263.5 -83q-138 0 -203 58.5z" />
    <glyph glyph-name="Uring" unicode="&#x16e;" horiz-adv-x="1427" 
d="M322.5 22.5q-117.5 55.5 -178.5 155.5t-61 230q0 60 14 128l185 869h431l-171 -805q-11 -52 -11 -92q0 -67 30.5 -103.5t93.5 -36.5q57 0 111 29t92.5 82t53.5 121l172 805h431l-186 -869q-34 -164 -131.5 -293t-249.5 -202.5t-343 -73.5q-165 0 -282.5 55.5zM788 1542.5
q-44 35.5 -44 98.5q0 17 5 42q18 83 82 130.5t152 47.5q75 0 119 -36t44 -101q0 -21 -4 -41q-18 -81 -83 -128.5t-152 -47.5q-75 0 -119 35.5zM980.5 1642q20.5 16 26.5 42q2 10 2 14q0 20 -14.5 32.5t-37.5 12.5q-26 0 -46.5 -16.5t-26.5 -42.5q-2 -10 -2 -14q0 -20 14 -32
t37 -12q27 0 47.5 16z" />
    <glyph glyph-name="uring" unicode="&#x16f;" horiz-adv-x="1337" 
d="M934 1069h404l-228 -1069h-297l-45 106q-76 -60 -169 -94.5t-175 -34.5q-106 0 -186.5 41.5t-125 120t-44.5 186.5q0 60 13 122l133 622h404l-117 -547q-7 -32 -7 -63q0 -55 26 -84.5t76 -29.5q43 0 86 18.5t77 48.5t48 63zM667 1200.5q-48 39.5 -48 108.5q0 26 5 46
q19 91 90 144t168 53q83 0 131.5 -39.5t48.5 -110.5q0 -19 -5 -47q-19 -89 -91 -141.5t-168 -52.5q-83 0 -131 39.5zM885.5 1314.5q24.5 22.5 24.5 57.5q0 22 -15.5 36t-40.5 14q-29 0 -51.5 -18.5t-29.5 -47.5q-2 -12 -2 -16q0 -22 15.5 -35t40.5 -13q34 0 58.5 22.5z" />
    <glyph glyph-name="Uhungarumlaut" unicode="&#x170;" horiz-adv-x="1427" 
d="M322.5 22.5q-117.5 55.5 -178.5 155.5t-61 230q0 60 14 128l185 869h431l-171 -805q-11 -52 -11 -92q0 -67 30.5 -103.5t93.5 -36.5q57 0 111 29t92.5 82t53.5 121l172 805h431l-186 -869q-34 -164 -131.5 -293t-249.5 -202.5t-343 -73.5q-165 0 -282.5 55.5zM993 1773
l-246 -270h-232l166 270h312zM1349 1772l-257 -270h-242l173 270h326z" />
    <glyph glyph-name="uhungarumlaut" unicode="&#x171;" horiz-adv-x="1337" 
d="M934 1069h404l-228 -1069h-297l-45 106q-76 -60 -169 -94.5t-175 -34.5q-106 0 -186.5 41.5t-125 120t-44.5 186.5q0 60 13 122l133 622h404l-117 -547q-7 -32 -7 -63q0 -55 26 -84.5t76 -29.5q43 0 86 18.5t77 48.5t48 63zM1337 1459l-254 -300h-236l154 280l-237 -280
h-236l164 300h645z" />
    <glyph glyph-name="Uogonek" unicode="&#x172;" horiz-adv-x="1427" 
d="M1084 1405h431l-186 -869q-30 -143 -108 -260t-196 -193q-58 -49 -78 -76.5t-20 -60.5q0 -21 11 -33.5t31 -12.5q24 0 70 10l-17 -163q-46 -22 -87.5 -31t-90.5 -9q-105 0 -150 38.5t-45 94.5q0 62 41 131q-36 -4 -85 -4q-165 0 -282.5 55.5t-178.5 155.5t-61 230
q0 60 14 128l185 869h431l-171 -805q-11 -52 -11 -92q0 -67 30.5 -103.5t93.5 -36.5q57 0 111 29t92.5 82t53.5 121z" />
    <glyph glyph-name="uogonek" unicode="&#x173;" horiz-adv-x="1337" 
d="M1113 0q-119 -83 -119 -156q0 -22 11.5 -35t32.5 -13q23 0 69 10l-13 -158q-46 -22 -88 -31t-97 -9q-88 0 -127 37t-39 95q0 19 5 42q10 46 42 91.5t69 79t61 47.5h-107l-45 106q-76 -60 -169 -94.5t-175 -34.5q-106 0 -186.5 41.5t-125 120t-44.5 186.5q0 60 13 122
l133 622h404l-117 -547q-7 -32 -7 -63q0 -55 26 -84.5t76 -29.5q43 0 86 18.5t77 48.5t48 63l127 594h404l-228 -1069h3z" />
    <glyph glyph-name="Wcircumflex" unicode="&#x174;" horiz-adv-x="2054" 
d="M792 0h-364l-237 1405h440l105 -796l369 796h480l-255 -487l22 -308l393 795h487l-822 -1405h-360l-60 359zM1265 1613l-235 -135l-101 175l347 215h65l254 -215l-153 -175z" />
    <glyph glyph-name="wcircumflex" unicode="&#x175;" horiz-adv-x="1778" 
d="M1154 457l281 612h454l-618 -1069h-369l-49 324l-181 -324h-393l-163 1069h418l42 -612l247 612h445l-159 -285zM1049 1241l-228 -112l-89 178l326 174h63l249 -174l-140 -178z" />
    <glyph glyph-name="Ycircumflex" unicode="&#x176;" horiz-adv-x="1427" 
d="M814 0h-431l109 514l-301 891h488l108 -489l308 489h510l-680 -888zM955 1611l-235 -135l-101 175l347 215h65l254 -215l-153 -175z" />
    <glyph glyph-name="ycircumflex" unicode="&#x177;" horiz-adv-x="1243" 
d="M513 -355h-437l222 359l-182 1065h434l48 -595l301 595h455zM782 1241l-228 -112l-89 178l326 174h63l249 -174l-140 -178z" />
    <glyph glyph-name="Ydieresis" unicode="&#x178;" horiz-adv-x="1427" 
d="M814 0h-431l109 514l-301 891h488l108 -489l308 489h510l-680 -888zM601.5 1534q-36.5 33 -36.5 87q0 19 4 35q15 70 70 114t127 44q61 0 97 -32.5t36 -88.5q0 -20 -4 -37q-15 -68 -70 -111.5t-126 -43.5q-61 0 -97.5 33zM1046 1533.5q-36 32.5 -36 86.5q0 19 4 36
q14 70 68.5 114t126.5 44q61 0 97 -32.5t36 -87.5q0 -21 -4 -38q-14 -68 -69 -111.5t-126 -43.5q-61 0 -97 32.5z" />
    <glyph glyph-name="Zacute" unicode="&#x179;" horiz-adv-x="1278" 
d="M1101 0h-1151l66 313l650 703h-489l83 389h1096l-62 -292l-674 -724h564zM1238 1770l-317 -270h-298l213 270h402z" />
    <glyph glyph-name="zacute" unicode="&#x17a;" horiz-adv-x="1065" 
d="M894 0h-944l59 273l463 440h-357l76 356h906l-57 -264l-467 -449h398zM1136 1459l-299 -300h-279l194 300h384z" />
    <glyph glyph-name="Zdotaccent" unicode="&#x17b;" horiz-adv-x="1278" 
d="M1101 0h-1151l66 313l650 703h-489l83 389h1096l-62 -292l-674 -724h564zM724 1527.5q-36 32.5 -36 85.5q0 19 4 36q14 70 69 113.5t126 43.5q61 0 97 -32.5t36 -88.5q0 -19 -4 -36q-14 -68 -69 -111t-126 -43q-61 0 -97 32.5z" />
    <glyph glyph-name="zdotaccent" unicode="&#x17c;" horiz-adv-x="1065" 
d="M894 0h-944l59 273l463 440h-357l76 356h906l-57 -264l-467 -449h398zM571 1182.5q-36 32.5 -36 85.5q0 19 4 36q14 70 69 113.5t126 43.5q61 0 97 -32.5t36 -88.5q0 -19 -4 -36q-14 -68 -69 -111t-126 -43q-61 0 -97 32.5z" />
    <glyph glyph-name="Zcaron" unicode="&#x17d;" horiz-adv-x="1278" 
d="M1101 0h-1151l66 313l650 703h-489l83 389h1096l-62 -292l-674 -724h564zM538 1709l153 176l180 -136l234 136l100 -176l-346 -213h-64z" />
    <glyph glyph-name="zcaron" unicode="&#x17e;" horiz-adv-x="1065" 
d="M894 0h-944l59 273l463 440h-357l76 356h906l-57 -264l-467 -449h398zM383 1313l143 178l180 -113l229 113l86 -178l-323 -174h-63z" />
    <glyph glyph-name="uni0189" unicode="&#x189;" horiz-adv-x="1487" 
d="M810 1405q203 0 351 -72.5t226.5 -209t78.5 -324.5q0 -206 -119 -390t-327.5 -296.5t-462.5 -112.5h-549l116 545h-167l70 326h166l114 534h503zM626 409q127 0 215.5 44.5t133.5 127.5t45 196q0 101 -63 160.5t-171 59.5h-133l-27 -126h185l-70 -326h-186l-30 -136h101z
" />
    <glyph glyph-name="uni0189" unicode="&#x256;" horiz-adv-x="1487" 
d="M810 1405q203 0 351 -72.5t226.5 -209t78.5 -324.5q0 -206 -119 -390t-327.5 -296.5t-462.5 -112.5h-549l116 545h-167l70 326h166l114 534h503zM626 409q127 0 215.5 44.5t133.5 127.5t45 196q0 101 -63 160.5t-171 59.5h-133l-27 -126h185l-70 -326h-186l-30 -136h101z
" />
    <glyph glyph-name="uni018F" unicode="&#x18f;" horiz-adv-x="1595" 
d="M1291 1375q142 -77 218 -210.5t76 -299.5q0 -75 -17 -158q-43 -204 -173.5 -375t-318.5 -270.5t-398 -99.5q-196 0 -331 66.5t-203.5 188t-68.5 284.5q0 86 22 193q15 70 44 150h993q-20 98 -96.5 150.5t-187.5 52.5q-93 0 -168 -25t-150 -74l-147 316q125 88 270 138
t304 50q190 0 332 -77zM934.5 390.5q87.5 50.5 141.5 147.5h-569q13 -96 74.5 -147t161.5 -51q104 0 191.5 50.5z" />
    <glyph glyph-name="florin" unicode="&#x192;" horiz-adv-x="922" 
d="M-312 -437q-66 20 -105 57l194 260q25 -8 38.5 -10.5t44.5 -2.5q51 0 91.5 28t60.5 90l239 713h-167l98 298h169l17 49q33 102 108.5 192t189 146.5t252.5 56.5q75 0 141 -18t91 -49l-192 -260q-42 19 -95 19q-30 0 -59.5 -15t-50.5 -36.5t-26 -38.5l-17 -46h280
l-102 -298h-277l-238 -721q-37 -110 -120 -210t-195 -162t-232 -62q-72 0 -138 20z" />
    <glyph glyph-name="uni019D" unicode="&#x19d;" horiz-adv-x="1487" 
d="M1133 1405h418l-299 -1405h-367l-305 728l-154 -728h-3l-4 -21q-42 -206 -184.5 -311.5t-355.5 -105.5h-68l74 355h18q46 0 71 19t34 65l28 135h1l270 1269h410l273 -672z" />
    <glyph glyph-name="Ohorn" unicode="&#x1a0;" horiz-adv-x="1590" 
d="M1683 1595q11 -46 11 -86q0 -107 -64.5 -188.5t-172.5 -118.5q111 -156 111 -390q0 -210 -111 -404t-306 -315t-432 -121q-195 0 -336.5 73t-216.5 211t-75 329q0 212 111 408.5t305 318t431 121.5q212 0 363 -88q41 5 70 41.5t29 87.5q0 29 -10 58zM954 432.5
q83 49.5 132 136.5t49 194q0 127 -69.5 193t-181.5 66q-96 0 -179 -50.5t-132 -139.5t-49 -199q0 -124 69 -187t181 -63q97 0 180 49.5z" />
    <glyph glyph-name="ohorn" unicode="&#x1a1;" horiz-adv-x="1276" 
d="M1301 1284q15 -49 15 -96q0 -89 -53.5 -157t-150.5 -103q61 -67 93.5 -153.5t32.5 -181.5q0 -144 -83.5 -289.5t-232 -240t-332.5 -94.5q-168 0 -293.5 67.5t-192.5 182t-67 250.5q0 147 82 293t230.5 241t336.5 95q154 0 275 -59v1q49 -1 73.5 27t24.5 76q0 40 -19 94z
M728.5 383q47.5 31 73 78t25.5 93q0 45 -24 81.5t-64 57.5t-85 21q-61 0 -108 -30.5t-72.5 -78.5t-25.5 -97q0 -43 23 -78.5t62.5 -56.5t85.5 -21q62 0 109.5 31z" />
    <glyph glyph-name="Uhorn" unicode="&#x1af;" horiz-adv-x="1582" 
d="M1777 1655q11 -47 11 -86q0 -83 -39 -151.5t-108.5 -113.5t-159.5 -59l-152 -709q-34 -164 -131.5 -293t-249.5 -202.5t-343 -73.5q-165 0 -282.5 55.5t-178.5 155.5t-61 230q0 60 14 128l185 869h431l-171 -805q-11 -52 -11 -92q0 -67 30.5 -103.5t93.5 -36.5
q57 0 111 29t92.5 82t53.5 121l172 805h304q28 0 52.5 17.5t39.5 47.5t15 66q0 28 -10 57z" />
    <glyph glyph-name="uhorn" unicode="&#x1b0;" horiz-adv-x="1417" 
d="M1542 1295q14 -45 14 -92q0 -97 -65 -167t-181 -98l-200 -938h-297l-45 106q-76 -60 -169 -94.5t-175 -34.5q-106 0 -186.5 41.5t-125 120t-44.5 186.5q0 60 13 122l133 622h404l-117 -547q-7 -32 -7 -63q0 -55 26 -84.5t76 -29.5q43 0 86 18.5t77 48.5t48 63l127 594
h326q25 10 37.5 33.5t12.5 56.5q0 41 -18 90z" />
    <glyph glyph-name="uni01B5" unicode="&#x1b5;" horiz-adv-x="1278" 
d="M260 1405h1096l-62 -292l-226 -243h198l-94 -326h-408l-144 -155h564l-83 -389h-1151l66 313l214 231h-100l94 326h307l135 146h-489z" />
    <glyph glyph-name="uni01B6" unicode="&#x1b6;" horiz-adv-x="1065" 
d="M191 1069h906l-57 -264l-171 -164h96l-70 -205h-239l-83 -80h398l-77 -356h-944l59 273l172 163h-70l70 205h215l76 72h-357z" />
    <glyph glyph-name="uni01C4" unicode="&#x1c4;" horiz-adv-x="2722" 
d="M8 0l299 1405h503q203 0 351 -72.5t226.5 -209t78.5 -324.5q0 -206 -119 -390t-327.5 -296.5t-462.5 -112.5h-549zM626 409q127 0 215.5 44.5t133.5 127.5t45 196q0 101 -63 160.5t-171 59.5h-133l-128 -588h101zM2544 0h-1151l66 313l650 703h-489l83 389h1096l-62 -292
l-674 -724h564zM1981 1709l153 176l180 -136l234 136l100 -176l-346 -213h-64z" />
    <glyph glyph-name="uni01C5" unicode="&#x1c5;" horiz-adv-x="2553" 
d="M8 0l299 1405h503q203 0 351 -72.5t226.5 -209t78.5 -324.5q0 -206 -119 -390t-327.5 -296.5t-462.5 -112.5h-549zM626 409q127 0 215.5 44.5t133.5 127.5t45 196q0 101 -63 160.5t-171 59.5h-133l-128 -588h101zM2381 0h-944l59 273l463 440h-357l76 356h906l-57 -264
l-467 -449h398zM1870 1313l143 178l180 -113l229 113l86 -178l-323 -174h-63z" />
    <glyph glyph-name="uni01C6" unicode="&#x1c6;" horiz-adv-x="2390" 
d="M1421 1512l-191 -895l1 -1l-132 -616h-295l-24 70q-123 -95 -279 -95q-138 0 -243 58t-163 168.5t-58 262.5t80.5 298t224.5 239t323 93q154 0 249 -70l103 488h404zM496.5 395q46.5 -43 122.5 -43q59 0 105.5 28t72.5 74t26 99q0 80 -45 122.5t-117 42.5
q-62 0 -110.5 -30.5t-74.5 -78t-26 -94.5q0 -77 46.5 -120zM2219 0h-944l59 273l463 440h-357l76 356h906l-57 -264l-467 -449h398zM1708 1313l143 178l180 -113l229 113l86 -178l-323 -174h-63z" />
    <glyph glyph-name="uni01C7" unicode="&#x1c7;" horiz-adv-x="2138" 
d="M967 0h-959l299 1405h431l-211 -993h528zM1275.5 17.5q-101.5 49.5 -185.5 140.5l276 295q83 -72 135 -72q75 0 97 101l196 923h431l-202 -953q-35 -167 -114 -275.5t-181 -158.5t-214 -50q-137 0 -238.5 49.5z" />
    <glyph glyph-name="uni01C8" unicode="&#x1c8;" horiz-adv-x="1781" 
d="M967 0h-959l299 1405h431l-211 -993h528zM1504 1182q-43 24 -65.5 64.5t-22.5 87.5q0 20 5 43q12 55 52 106t99.5 82.5t127.5 31.5q58 0 100.5 -24.5t64.5 -65t22 -88.5q0 -23 -4 -42q-12 -56 -51.5 -106.5t-99 -81.5t-127.5 -31q-58 0 -101 24zM934 -389l76 355h18
q63 0 96 27t43 77l214 999h402l-211 -990q-50 -232 -198.5 -350t-368.5 -118h-71z" />
    <glyph glyph-name="uni01C9" unicode="&#x1c9;" horiz-adv-x="1247" 
d="M400 0h-402l320 1502h402zM969 1182q-43 24 -65.5 64.5t-22.5 87.5q0 20 5 43q12 55 52 106t99.5 82.5t127.5 31.5q58 0 100.5 -24.5t64.5 -65t22 -88.5q0 -23 -4 -42q-12 -56 -51.5 -106.5t-99 -81.5t-127.5 -31q-58 0 -101 24zM399 -389l76 355h18q63 0 96 27t43 77
l214 999h402l-211 -990q-50 -232 -198.5 -350t-368.5 -118h-71z" />
    <glyph glyph-name="uni01CA" unicode="&#x1ca;" horiz-adv-x="2467" 
d="M426 0h-418l299 1405h410l273 -672l143 672h418l-299 -1405h-367l-305 728zM1604.5 17.5q-101.5 49.5 -185.5 140.5l276 295q83 -72 135 -72q75 0 97 101l196 923h431l-202 -953q-35 -167 -114 -275.5t-181 -158.5t-214 -50q-137 0 -238.5 49.5z" />
    <glyph glyph-name="uni01CB" unicode="&#x1cb;" horiz-adv-x="2158" 
d="M426 0h-418l299 1405h410l273 -672l143 672h418l-299 -1405h-367l-305 728zM1881 1182q-43 24 -65.5 64.5t-22.5 87.5q0 20 5 43q12 55 52 106t99.5 82.5t127.5 31.5q58 0 100.5 -24.5t64.5 -65t22 -88.5q0 -23 -4 -42q-12 -56 -51.5 -106.5t-99 -81.5t-127.5 -31
q-58 0 -101 24zM1311 -389l76 355h18q63 0 96 27t43 77l214 999h402l-211 -990q-50 -232 -198.5 -350t-368.5 -118h-71z" />
    <glyph glyph-name="uni01CC" unicode="&#x1cc;" horiz-adv-x="1983" 
d="M1099.5 1050.5q80.5 -41.5 125 -119.5t44.5 -185q0 -56 -14 -124l-132 -622h-404l117 548q7 32 7 63q0 55 -26.5 84t-76.5 29q-42 0 -85 -18t-76.5 -48t-48.5 -63l-127 -595h-405l229 1069h297l45 -105q76 59 169 93.5t175 34.5q106 0 186.5 -41.5zM1706 1182
q-43 24 -65.5 64.5t-22.5 87.5q0 20 5 43q12 55 52 106t99.5 82.5t127.5 31.5q58 0 100.5 -24.5t64.5 -65t22 -88.5q0 -23 -4 -42q-12 -56 -51.5 -106.5t-99 -81.5t-127.5 -31q-58 0 -101 24zM1136 -389l76 355h18q63 0 96 27t43 77l214 999h402l-211 -990
q-50 -232 -198.5 -350t-368.5 -118h-71z" />
    <glyph glyph-name="uni01CD" unicode="&#x1cd;" horiz-adv-x="1450" 
d="M1330 0h-432l-17 178h-440l-94 -178h-454l833 1407h373zM779 816l-149 -281h216l-28 281l-3 76h-4zM627 1709l153 176l180 -136l234 136l100 -176l-346 -213h-64z" />
    <glyph glyph-name="uni01CE" unicode="&#x1ce;" horiz-adv-x="1326" 
d="M1327 1069l-96 -452v-1l-132 -616h-295l-24 70q-123 -95 -279 -95q-138 0 -243 58t-163 168.5t-58 262.5t80.5 298t224.5 239t323 93q197 0 298 -117l86 92h278zM496.5 395q46.5 -43 122.5 -43q59 0 105.5 28t72.5 74t26 99q0 80 -45 122.5t-117 42.5q-62 0 -110.5 -30.5
t-74.5 -78t-26 -94.5q0 -77 46.5 -120zM527 1317l143 178l180 -113l229 113l86 -178l-323 -174h-63z" />
    <glyph glyph-name="uni01CF" unicode="&#x1cf;" horiz-adv-x="674" 
d="M439 0h-431l299 1405h431zM244 1709l153 176l180 -136l234 136l100 -176l-346 -213h-64z" />
    <glyph glyph-name="uni01D0" unicode="&#x1d0;" horiz-adv-x="629" 
d="M403 0h-405l228 1069h405zM161 1313l143 178l180 -113l229 113l86 -178l-323 -174h-63z" />
    <glyph glyph-name="uni01D1" unicode="&#x1d1;" horiz-adv-x="1590" 
d="M382.5 45q-141.5 73 -216.5 211t-75 329q0 212 111 408.5t305 318t431 121.5q195 0 337 -74.5t217.5 -214t75.5 -332.5q0 -210 -111 -404t-306 -315t-432 -121q-195 0 -336.5 73zM954 432.5q83 49.5 132 136.5t49 194q0 127 -69.5 193t-181.5 66q-96 0 -179 -50.5
t-132 -139.5t-49 -199q0 -124 69 -187t181 -63q97 0 180 49.5zM712 1704l153 176l180 -136l234 136l100 -176l-346 -213h-64z" />
    <glyph glyph-name="uni01D2" unicode="&#x1d2;" horiz-adv-x="1276" 
d="M296.5 36.5q-125.5 67.5 -192.5 182t-67 250.5q0 147 82 293t230.5 241t336.5 95q168 0 293.5 -68t192 -183.5t66.5 -253.5q0 -144 -83.5 -289.5t-232 -240t-332.5 -94.5q-168 0 -293.5 67.5zM728.5 383q47.5 31 73 78t25.5 93q0 45 -24 81.5t-64 57.5t-85 21
q-61 0 -108 -30.5t-72.5 -78.5t-25.5 -97q0 -43 23 -78.5t62.5 -56.5t85.5 -21q62 0 109.5 31zM475 1318l143 178l180 -113l229 113l86 -178l-323 -174h-63z" />
    <glyph glyph-name="uni01D3" unicode="&#x1d3;" horiz-adv-x="1427" 
d="M322.5 22.5q-117.5 55.5 -178.5 155.5t-61 230q0 60 14 128l185 869h431l-171 -805q-11 -52 -11 -92q0 -67 30.5 -103.5t93.5 -36.5q57 0 111 29t92.5 82t53.5 121l172 805h431l-186 -869q-34 -164 -131.5 -293t-249.5 -202.5t-343 -73.5q-165 0 -282.5 55.5zM613 1709
l153 176l180 -136l234 136l100 -176l-346 -213h-64z" />
    <glyph glyph-name="uni01D4" unicode="&#x1d4;" horiz-adv-x="1337" 
d="M934 1069h404l-228 -1069h-297l-45 106q-76 -60 -169 -94.5t-175 -34.5q-106 0 -186.5 41.5t-125 120t-44.5 186.5q0 60 13 122l133 622h404l-117 -547q-7 -32 -7 -63q0 -55 26 -84.5t76 -29.5q43 0 86 18.5t77 48.5t48 63zM506 1313l143 178l180 -113l229 113l86 -178
l-323 -174h-63z" />
    <glyph glyph-name="uni01D5" unicode="&#x1d5;" horiz-adv-x="1427" 
d="M322.5 22.5q-117.5 55.5 -178.5 155.5t-61 230q0 60 14 128l185 869h431l-171 -805q-11 -52 -11 -92q0 -67 30.5 -103.5t93.5 -36.5q57 0 111 29t92.5 82t53.5 121l172 805h431l-186 -869q-34 -164 -131.5 -293t-249.5 -202.5t-343 -73.5q-165 0 -282.5 55.5zM578.5 1534
q-36.5 33 -36.5 87q0 19 4 35q15 70 70 114t127 44q61 0 97 -32.5t36 -88.5q0 -20 -4 -37q-15 -68 -70 -111.5t-126 -43.5q-61 0 -97.5 33zM1023 1533.5q-36 32.5 -36 86.5q0 19 4 36q14 70 68.5 114t126.5 44q61 0 97 -32.5t36 -87.5q0 -21 -4 -38q-14 -68 -69 -111.5
t-126 -43.5q-61 0 -97 32.5zM1295 1852h-616l49 232h617z" />
    <glyph glyph-name="uni01D6" unicode="&#x1d6;" horiz-adv-x="1337" 
d="M934 1069h404l-228 -1069h-297l-45 106q-76 -60 -169 -94.5t-175 -34.5q-106 0 -186.5 41.5t-125 120t-44.5 186.5q0 60 13 122l133 622h404l-117 -547q-7 -32 -7 -63q0 -55 26 -84.5t76 -29.5q43 0 86 18.5t77 48.5t48 63zM473.5 1183q-36.5 33 -36.5 87q0 19 4 35
q15 70 70 114t127 44q61 0 97 -32.5t36 -88.5q0 -20 -4 -37q-15 -68 -70 -111.5t-126 -43.5q-61 0 -97.5 33zM918 1182.5q-36 32.5 -36 86.5q0 19 4 36q14 70 68.5 114t126.5 44q61 0 97 -32.5t36 -87.5q0 -21 -4 -38q-14 -68 -69 -111.5t-126 -43.5q-61 0 -97 32.5z
M1179 1508h-616l49 232h617z" />
    <glyph glyph-name="uni01D7" unicode="&#x1d7;" horiz-adv-x="1427" 
d="M322.5 22.5q-117.5 55.5 -178.5 155.5t-61 230q0 60 14 128l185 869h431l-171 -805q-11 -52 -11 -92q0 -67 30.5 -103.5t93.5 -36.5q57 0 111 29t92.5 82t53.5 121l172 805h431l-186 -869q-34 -164 -131.5 -293t-249.5 -202.5t-343 -73.5q-165 0 -282.5 55.5zM578.5 1534
q-36.5 33 -36.5 87q0 19 4 35q15 70 70 114t127 44q61 0 97 -32.5t36 -88.5q0 -20 -4 -37q-15 -68 -70 -111.5t-126 -43.5q-61 0 -97.5 33zM1023 1533.5q-36 32.5 -36 86.5q0 19 4 36q14 70 68.5 114t126.5 44q61 0 97 -32.5t36 -87.5q0 -21 -4 -38q-14 -68 -69 -111.5
t-126 -43.5q-61 0 -97 32.5zM1387 2120l-317 -270h-298l213 270h402z" />
    <glyph glyph-name="uni01D8" unicode="&#x1d8;" horiz-adv-x="1337" 
d="M934 1069h404l-228 -1069h-297l-45 106q-76 -60 -169 -94.5t-175 -34.5q-106 0 -186.5 41.5t-125 120t-44.5 186.5q0 60 13 122l133 622h404l-117 -547q-7 -32 -7 -63q0 -55 26 -84.5t76 -29.5q43 0 86 18.5t77 48.5t48 63zM473.5 1183q-36.5 33 -36.5 87q0 19 4 35
q15 70 70 114t127 44q61 0 97 -32.5t36 -88.5q0 -20 -4 -37q-15 -68 -70 -111.5t-126 -43.5q-61 0 -97.5 33zM918 1182.5q-36 32.5 -36 86.5q0 19 4 36q14 70 68.5 114t126.5 44q61 0 97 -32.5t36 -87.5q0 -21 -4 -38q-14 -68 -69 -111.5t-126 -43.5q-61 0 -97 32.5z
M1333 1810l-299 -300h-279l194 300h384z" />
    <glyph glyph-name="uni01D9" unicode="&#x1d9;" horiz-adv-x="1427" 
d="M322.5 22.5q-117.5 55.5 -178.5 155.5t-61 230q0 60 14 128l185 869h431l-171 -805q-11 -52 -11 -92q0 -67 30.5 -103.5t93.5 -36.5q57 0 111 29t92.5 82t53.5 121l172 805h431l-186 -869q-34 -164 -131.5 -293t-249.5 -202.5t-343 -73.5q-165 0 -282.5 55.5zM578.5 1534
q-36.5 33 -36.5 87q0 19 4 35q15 70 70 114t127 44q61 0 97 -32.5t36 -88.5q0 -20 -4 -37q-15 -68 -70 -111.5t-126 -43.5q-61 0 -97.5 33zM1023 1533.5q-36 32.5 -36 86.5q0 19 4 36q14 70 68.5 114t126.5 44q61 0 97 -32.5t36 -87.5q0 -21 -4 -38q-14 -68 -69 -111.5
t-126 -43.5q-61 0 -97 32.5zM687 2059l153 176l180 -136l234 136l100 -176l-346 -213h-64z" />
    <glyph glyph-name="uni01DA" unicode="&#x1da;" horiz-adv-x="1337" 
d="M934 1069h404l-228 -1069h-297l-45 106q-76 -60 -169 -94.5t-175 -34.5q-106 0 -186.5 41.5t-125 120t-44.5 186.5q0 60 13 122l133 622h404l-117 -547q-7 -32 -7 -63q0 -55 26 -84.5t76 -29.5q43 0 86 18.5t77 48.5t48 63zM473.5 1183q-36.5 33 -36.5 87q0 19 4 35
q15 70 70 114t127 44q61 0 97 -32.5t36 -88.5q0 -20 -4 -37q-15 -68 -70 -111.5t-126 -43.5q-61 0 -97.5 33zM918 1182.5q-36 32.5 -36 86.5q0 19 4 36q14 70 68.5 114t126.5 44q61 0 97 -32.5t36 -87.5q0 -21 -4 -38q-14 -68 -69 -111.5t-126 -43.5q-61 0 -97 32.5z
M580 1664l143 178l180 -113l229 113l86 -178l-323 -174h-63z" />
    <glyph glyph-name="uni01DB" unicode="&#x1db;" horiz-adv-x="1427" 
d="M322.5 22.5q-117.5 55.5 -178.5 155.5t-61 230q0 60 14 128l185 869h431l-171 -805q-11 -52 -11 -92q0 -67 30.5 -103.5t93.5 -36.5q57 0 111 29t92.5 82t53.5 121l172 805h431l-186 -869q-34 -164 -131.5 -293t-249.5 -202.5t-343 -73.5q-165 0 -282.5 55.5zM578.5 1534
q-36.5 33 -36.5 87q0 19 4 35q15 70 70 114t127 44q61 0 97 -32.5t36 -88.5q0 -20 -4 -37q-15 -68 -70 -111.5t-126 -43.5q-61 0 -97.5 33zM1023 1533.5q-36 32.5 -36 86.5q0 19 4 36q14 70 68.5 114t126.5 44q61 0 97 -32.5t36 -87.5q0 -21 -4 -38q-14 -68 -69 -111.5
t-126 -43.5q-61 0 -97 32.5zM1135 1850h-298l-201 270h378z" />
    <glyph glyph-name="uni01DC" unicode="&#x1dc;" horiz-adv-x="1337" 
d="M934 1069h404l-228 -1069h-297l-45 106q-76 -60 -169 -94.5t-175 -34.5q-106 0 -186.5 41.5t-125 120t-44.5 186.5q0 60 13 122l133 622h404l-117 -547q-7 -32 -7 -63q0 -55 26 -84.5t76 -29.5q43 0 86 18.5t77 48.5t48 63zM473.5 1183q-36.5 33 -36.5 87q0 19 4 35
q15 70 70 114t127 44q61 0 97 -32.5t36 -88.5q0 -20 -4 -37q-15 -68 -70 -111.5t-126 -43.5q-61 0 -97.5 33zM918 1182.5q-36 32.5 -36 86.5q0 19 4 36q14 70 68.5 114t126.5 44q61 0 97 -32.5t36 -87.5q0 -21 -4 -38q-14 -68 -69 -111.5t-126 -43.5q-61 0 -97 32.5z
M1090 1510h-260l-172 300h362z" />
    <glyph glyph-name="uni01DE" unicode="&#x1de;" horiz-adv-x="1450" 
d="M1330 0h-432l-17 178h-440l-94 -178h-454l833 1407h373zM779 816l-149 -281h216l-28 281l-3 76h-4zM593.5 1534q-36.5 33 -36.5 87q0 19 4 35q15 70 70 114t127 44q61 0 97 -32.5t36 -88.5q0 -20 -4 -37q-15 -68 -70 -111.5t-126 -43.5q-61 0 -97.5 33zM1038 1533.5
q-36 32.5 -36 86.5q0 19 4 36q14 70 68.5 114t126.5 44q61 0 97 -32.5t36 -87.5q0 -21 -4 -38q-14 -68 -69 -111.5t-126 -43.5q-61 0 -97 32.5zM1309 1852h-616l49 232h617z" />
    <glyph glyph-name="uni01DF" unicode="&#x1df;" horiz-adv-x="1326" 
d="M1327 1069l-96 -452v-1l-132 -616h-295l-24 70q-123 -95 -279 -95q-138 0 -243 58t-163 168.5t-58 262.5t80.5 298t224.5 239t323 93q197 0 298 -117l86 92h278zM496.5 395q46.5 -43 122.5 -43q59 0 105.5 28t72.5 74t26 99q0 80 -45 122.5t-117 42.5q-62 0 -110.5 -30.5
t-74.5 -78t-26 -94.5q0 -77 46.5 -120zM494.5 1187q-36.5 33 -36.5 87q0 19 4 35q15 70 70 114t127 44q61 0 97 -32.5t36 -88.5q0 -20 -4 -37q-15 -68 -70 -111.5t-126 -43.5q-61 0 -97.5 33zM939 1186.5q-36 32.5 -36 86.5q0 19 4 36q14 70 68.5 114t126.5 44
q61 0 97 -32.5t36 -87.5q0 -21 -4 -38q-14 -68 -69 -111.5t-126 -43.5q-61 0 -97 32.5zM1201 1513h-616l49 232h617z" />
    <glyph glyph-name="uni01E0" unicode="&#x1e0;" horiz-adv-x="1450" 
d="M1330 0h-432l-17 178h-440l-94 -178h-454l833 1407h373zM779 816l-149 -281h216l-28 281l-3 76h-4zM813 1527.5q-36 32.5 -36 85.5q0 19 4 36q14 70 69 113.5t126 43.5q61 0 97 -32.5t36 -88.5q0 -19 -4 -36q-14 -68 -69 -111t-126 -43q-61 0 -97 32.5zM1307 1845h-616
l49 232h617z" />
    <glyph glyph-name="uni01E1" unicode="&#x1e1;" horiz-adv-x="1326" 
d="M1327 1069l-96 -452v-1l-132 -616h-295l-24 70q-123 -95 -279 -95q-138 0 -243 58t-163 168.5t-58 262.5t80.5 298t224.5 239t323 93q197 0 298 -117l86 92h278zM496.5 395q46.5 -43 122.5 -43q59 0 105.5 28t72.5 74t26 99q0 80 -45 122.5t-117 42.5q-62 0 -110.5 -30.5
t-74.5 -78t-26 -94.5q0 -77 46.5 -120zM715 1186.5q-36 32.5 -36 85.5q0 19 4 36q14 70 69 113.5t126 43.5q61 0 97 -32.5t36 -88.5q0 -19 -4 -36q-14 -68 -69 -111t-126 -43q-61 0 -97 32.5zM1199 1507h-616l49 232h617z" />
    <glyph glyph-name="uni01E2" unicode="&#x1e2;" horiz-adv-x="2180" 
d="M2287 1405l-82 -388h-604l-29 -132h463l-76 -358h-463l-30 -139h620l-82 -388h-1051l33 157h-448l-133 -158h-512l1267 1406h1127zM1138 871l-262 -312h196zM2082 1502h-616l49 232h617z" />
    <glyph glyph-name="uni01E3" unicode="&#x1e3;" horiz-adv-x="1982" 
d="M1223 410q24 -49 71.5 -74t103.5 -25q47 0 78.5 10.5t77.5 38.5l148 -271q-76 -60 -162 -90t-174 -30q-95 0 -178 24t-151 69l-47 -62h-188l-25 84q-142 -114 -324 -114q-127 0 -224.5 56t-151 155.5t-53.5 223.5q0 58 14 125q32 152 130.5 281.5t236.5 205.5t285 76
q184 0 279 -118l74 94h174l8 -23q124 51 263 51q148 0 254 -53.5t161.5 -149t55.5 -217.5q0 -139 -59 -267h-677zM1599 655q-21 120 -154 120q-64 0 -116 -33t-84 -87h354zM433 482q0 -68 44 -108t114 -40q55 0 104 24.5t83 68.5t46 101q5 21 5 50q0 67 -41.5 106t-113.5 39
q-54 0 -103.5 -24.5t-85 -68.5t-47.5 -102q-5 -27 -5 -46zM1421 1157h-616l49 232h617z" />
    <glyph glyph-name="Gcaron" unicode="&#x1e6;" horiz-adv-x="1373" 
d="M914 656h406l-113 -529q-109 -72 -246 -112t-278 -40q-179 0 -313 75t-206.5 212.5t-72.5 319.5q0 217 115 414.5t309.5 318.5t419.5 121q182 0 306 -57t197 -155l-303 -313q-6 5 -43.5 37.5t-93 54.5t-115.5 22q-82 0 -162 -49.5t-131.5 -137t-51.5 -194.5
q0 -80 30 -141t82 -94.5t118 -33.5q48 0 87 7zM720 1709l153 176l180 -136l234 136l100 -176l-346 -213h-64z" />
    <glyph glyph-name="gcaron" unicode="&#x1e7;" horiz-adv-x="1298" 
d="M1300 1069l-93 -435l-107 -504q-57 -264 -213.5 -389t-415.5 -125q-138 0 -281.5 39.5t-228.5 102.5l190 295q70 -47 143.5 -68.5t167.5 -21.5q95 0 155 34.5t84 130.5q-100 -51 -217 -51q-206 0 -323.5 106t-117.5 318q0 144 79 281.5t218.5 224.5t312.5 87
q187 0 284 -104l57 79h306zM498 447.5q40 -35.5 112 -35.5q55 0 100.5 25t72 67t26.5 90q0 71 -45.5 109t-114.5 38q-58 0 -101.5 -27.5t-66.5 -70.5t-23 -88q0 -72 40 -107.5zM483 1312l143 178l180 -113l229 113l86 -178l-323 -174h-63z" />
    <glyph glyph-name="uni01E8" unicode="&#x1e8;" horiz-adv-x="1455" 
d="M1071 1405h544l-627 -600l336 -805h-491l-179 484l-141 -134l-74 -350h-431l299 1405h431l-93 -439zM660 1709l153 176l180 -136l234 136l100 -176l-346 -213h-64z" />
    <glyph glyph-name="uni01E9" unicode="&#x1e9;" horiz-adv-x="1309" 
d="M885 1069h512l-492 -438l292 -631h-451l-151 356l-145 -129l-48 -227h-404l320 1502h405l-160 -747zM254 1809l153 176l180 -136l234 136l100 -176l-346 -213h-64z" />
    <glyph glyph-name="uni01EA" unicode="&#x1ea;" horiz-adv-x="1590" 
d="M1030 2q-24 -24 -33.5 -44t-9.5 -44q0 -21 11 -33.5t31 -12.5q24 0 70 10l-17 -163q-46 -22 -87.5 -31t-90.5 -9q-105 0 -150 38.5t-45 94.5q0 79 65 166q-36 -2 -55 -2q-195 0 -336.5 73t-216.5 211t-75 329q0 212 111 408.5t305 318t431 121.5q195 0 337 -74.5
t217.5 -214t75.5 -332.5q0 -149 -57.5 -293.5t-163.5 -263t-246 -190.5q-47 -39 -71 -63zM593 446q69 -63 181 -63q97 0 180 49.5t132 136.5t49 194q0 127 -69.5 193t-181.5 66q-96 0 -179 -50.5t-132 -139.5t-49 -199q0 -124 69 -187z" />
    <glyph glyph-name="uni01EB" unicode="&#x1eb;" horiz-adv-x="1276" 
d="M1198 394q-40 -102 -115 -191t-175 -148h6q-119 -83 -119 -156q0 -22 11.5 -35t32.5 -13q23 0 69 10l-13 -158q-46 -22 -88 -31t-97 -9q-88 0 -127 37t-39 95q0 19 5 42q13 63 74 133q-11 -1 -33 -1q-168 0 -293.5 67.5t-192.5 182t-67 250.5q0 147 82 293t230.5 241
t336.5 95q168 0 293.5 -68t192 -183.5t66.5 -253.5q0 -97 -40 -199zM471 429.5q23 -35.5 62.5 -56.5t85.5 -21q62 0 109.5 31t73 78t25.5 93q0 45 -24 81.5t-64 57.5t-85 21q-61 0 -108 -30.5t-72.5 -78.5t-25.5 -97q0 -43 23 -78.5z" />
    <glyph glyph-name="uni01EC" unicode="&#x1ec;" horiz-adv-x="1590" 
d="M754 1729h616l-49 -232h-616zM1030 2q-24 -24 -33.5 -44t-9.5 -44q0 -21 11 -33.5t31 -12.5q24 0 70 10l-17 -163q-46 -22 -87.5 -31t-90.5 -9q-105 0 -150 38.5t-45 94.5q0 79 65 166q-36 -2 -55 -2q-195 0 -336.5 73t-216.5 211t-75 329q0 212 111 408.5t305 318
t431 121.5q195 0 337 -74.5t217.5 -214t75.5 -332.5q0 -149 -57.5 -293.5t-163.5 -263t-246 -190.5q-47 -39 -71 -63zM593 446q69 -63 181 -63q97 0 180 49.5t132 136.5t49 194q0 127 -69.5 193t-181.5 66q-96 0 -179 -50.5t-132 -139.5t-49 -199q0 -124 69 -187z" />
    <glyph glyph-name="uni01ED" unicode="&#x1ed;" horiz-adv-x="1276" 
d="M508 1394h617l-50 -232h-616zM1198 394q-40 -102 -115 -191t-175 -148h6q-119 -83 -119 -156q0 -22 11.5 -35t32.5 -13q23 0 69 10l-13 -158q-46 -22 -88 -31t-97 -9q-88 0 -127 37t-39 95q0 19 5 42q13 63 74 133q-11 -1 -33 -1q-168 0 -293.5 67.5t-192.5 182
t-67 250.5q0 147 82 293t230.5 241t336.5 95q168 0 293.5 -68t192 -183.5t66.5 -253.5q0 -97 -40 -199zM471 429.5q23 -35.5 62.5 -56.5t85.5 -21q62 0 109.5 31t73 78t25.5 93q0 45 -24 81.5t-64 57.5t-85 21q-61 0 -108 -30.5t-72.5 -78.5t-25.5 -97q0 -43 23 -78.5z" />
    <glyph glyph-name="uni01F0" unicode="&#x1f0;" horiz-adv-x="619" 
d="M-228 -389l76 355h18q63 0 96 27t43 77l214 999h402l-211 -990q-50 -232 -198.5 -350t-368.5 -118h-71zM152 1313l143 178l180 -113l229 113l86 -178l-323 -174h-63z" />
    <glyph glyph-name="uni01F1" unicode="&#x1f1;" horiz-adv-x="2722" 
d="M8 0l299 1405h503q203 0 351 -72.5t226.5 -209t78.5 -324.5q0 -206 -119 -390t-327.5 -296.5t-462.5 -112.5h-549zM626 409q127 0 215.5 44.5t133.5 127.5t45 196q0 101 -63 160.5t-171 59.5h-133l-128 -588h101zM2544 0h-1151l66 313l650 703h-489l83 389h1096l-62 -292
l-674 -724h564z" />
    <glyph glyph-name="uni01F2" unicode="&#x1f2;" horiz-adv-x="2553" 
d="M8 0l299 1405h503q203 0 351 -72.5t226.5 -209t78.5 -324.5q0 -206 -119 -390t-327.5 -296.5t-462.5 -112.5h-549zM626 409q127 0 215.5 44.5t133.5 127.5t45 196q0 101 -63 160.5t-171 59.5h-133l-128 -588h101zM2381 0h-944l59 273l463 440h-357l76 356h906l-57 -264
l-467 -449h398z" />
    <glyph glyph-name="uni01F3" unicode="&#x1f3;" horiz-adv-x="2390" 
d="M1421 1512l-191 -895l1 -1l-132 -616h-295l-24 70q-123 -95 -279 -95q-138 0 -243 58t-163 168.5t-58 262.5t80.5 298t224.5 239t323 93q154 0 249 -70l103 488h404zM496.5 395q46.5 -43 122.5 -43q59 0 105.5 28t72.5 74t26 99q0 80 -45 122.5t-117 42.5
q-62 0 -110.5 -30.5t-74.5 -78t-26 -94.5q0 -77 46.5 -120zM2219 0h-944l59 273l463 440h-357l76 356h906l-57 -264l-467 -449h398z" />
    <glyph glyph-name="uni01F4" unicode="&#x1f4;" horiz-adv-x="1373" 
d="M914 656h406l-113 -529q-109 -72 -246 -112t-278 -40q-179 0 -313 75t-206.5 212.5t-72.5 319.5q0 217 115 414.5t309.5 318.5t419.5 121q182 0 306 -57t197 -155l-303 -313q-6 5 -43.5 37.5t-93 54.5t-115.5 22q-82 0 -162 -49.5t-131.5 -137t-51.5 -194.5
q0 -80 30 -141t82 -94.5t118 -33.5q48 0 87 7zM1419 1770l-317 -270h-298l213 270h402z" />
    <glyph glyph-name="uni01F5" unicode="&#x1f5;" horiz-adv-x="1298" 
d="M1300 1069l-93 -435l-107 -504q-57 -264 -213.5 -389t-415.5 -125q-138 0 -281.5 39.5t-228.5 102.5l190 295q70 -47 143.5 -68.5t167.5 -21.5q95 0 155 34.5t84 130.5q-100 -51 -217 -51q-206 0 -323.5 106t-117.5 318q0 144 79 281.5t218.5 224.5t312.5 87
q187 0 284 -104l57 79h306zM498 447.5q40 -35.5 112 -35.5q55 0 100.5 25t72 67t26.5 90q0 71 -45.5 109t-114.5 38q-58 0 -101.5 -27.5t-66.5 -70.5t-23 -88q0 -72 40 -107.5zM1236 1458l-299 -300h-279l194 300h384z" />
    <glyph glyph-name="uni01F8" unicode="&#x1f8;" horiz-adv-x="1487" 
d="M426 0h-418l299 1405h410l273 -672l143 672h418l-299 -1405h-367l-305 728zM1116 1500h-298l-201 270h378z" />
    <glyph glyph-name="uni01F9" unicode="&#x1f9;" horiz-adv-x="1337" 
d="M1099.5 1050.5q80.5 -41.5 125 -119.5t44.5 -185q0 -56 -14 -124l-132 -622h-404l117 548q7 32 7 63q0 55 -26.5 84t-76.5 29q-42 0 -85 -18t-76.5 -48t-48.5 -63l-127 -595h-405l229 1069h297l45 -105q76 59 169 93.5t175 34.5q106 0 186.5 -41.5zM1078 1160h-260
l-172 300h362z" />
    <glyph glyph-name="Aringacute" unicode="&#x1fa;" horiz-adv-x="1450" 
d="M1330 0h-432l-17 178h-440l-94 -178h-454l833 1407h373zM779 816l-149 -281h216l-28 281l-3 76h-4zM803 1542.5q-44 35.5 -44 98.5q0 17 5 42q18 83 82 130.5t152 47.5q75 0 119 -36t44 -101q0 -21 -4 -41q-18 -81 -83 -128.5t-152 -47.5q-75 0 -119 35.5zM995.5 1642
q20.5 16 26.5 42q2 10 2 14q0 20 -14.5 32.5t-37.5 12.5q-26 0 -46.5 -16.5t-26.5 -42.5q-2 -10 -2 -14q0 -20 14 -32t37 -12q27 0 47.5 16zM1416 2186l-317 -270h-298l213 270h402z" />
    <glyph glyph-name="aringacute" unicode="&#x1fb;" horiz-adv-x="1326" 
d="M1327 1069l-96 -452v-1l-132 -616h-295l-24 70q-123 -95 -279 -95q-138 0 -243 58t-163 168.5t-58 262.5t80.5 298t224.5 239t323 93q197 0 298 -117l86 92h278zM496.5 395q46.5 -43 122.5 -43q59 0 105.5 28t72.5 74t26 99q0 80 -45 122.5t-117 42.5q-62 0 -110.5 -30.5
t-74.5 -78t-26 -94.5q0 -77 46.5 -120zM688 1204.5q-48 39.5 -48 108.5q0 26 5 46q19 91 90 144t168 53q83 0 131.5 -39.5t48.5 -110.5q0 -19 -5 -47q-19 -89 -91 -141.5t-168 -52.5q-83 0 -131 39.5zM906.5 1318.5q24.5 22.5 24.5 57.5q0 22 -15.5 36t-40.5 14
q-29 0 -51.5 -18.5t-29.5 -47.5q-2 -12 -2 -16q0 -22 15.5 -35t40.5 -13q34 0 58.5 22.5zM1371 1891l-299 -300h-279l194 300h384z" />
    <glyph glyph-name="AEacute" unicode="&#x1fc;" horiz-adv-x="2180" 
d="M2287 1405l-82 -388h-604l-29 -132h463l-76 -358h-463l-30 -139h620l-82 -388h-1051l33 157h-448l-133 -158h-512l1267 1406h1127zM1138 871l-262 -312h196zM2174 1770l-317 -270h-298l213 270h402z" />
    <glyph glyph-name="aeacute" unicode="&#x1fd;" horiz-adv-x="1982" 
d="M1223 410q24 -49 71.5 -74t103.5 -25q47 0 78.5 10.5t77.5 38.5l148 -271q-76 -60 -162 -90t-174 -30q-95 0 -178 24t-151 69l-47 -62h-188l-25 84q-142 -114 -324 -114q-127 0 -224.5 56t-151 155.5t-53.5 223.5q0 58 14 125q32 152 130.5 281.5t236.5 205.5t285 76
q184 0 279 -118l74 94h174l8 -23q124 51 263 51q148 0 254 -53.5t161.5 -149t55.5 -217.5q0 -139 -59 -267h-677zM1599 655q-21 120 -154 120q-64 0 -116 -33t-84 -87h354zM433 482q0 -68 44 -108t114 -40q55 0 104 24.5t83 68.5t46 101q5 21 5 50q0 67 -41.5 106t-113.5 39
q-54 0 -103.5 -24.5t-85 -68.5t-47.5 -102q-5 -27 -5 -46zM1574 1459l-299 -300h-279l194 300h384z" />
    <glyph glyph-name="Oslashacute" unicode="&#x1fe;" horiz-adv-x="1590" 
d="M1609 1500l-182 -260q69 -80 105 -188t36 -240q0 -210 -111 -404t-306 -315t-432 -121q-93 0 -169 16l-61 -87h-442l183 262q-68 79 -103.5 185t-35.5 237q0 212 111 408.5t305 318t431 121.5q92 0 169 -16l58 83h444zM527 587l301 430q-85 -14 -154 -67t-109.5 -135.5
t-40.5 -181.5q0 -23 3 -46zM1131 818l-301 -431q85 14 154.5 66t110 132.5t40.5 177.5q0 32 -4 55zM1436 1770l-317 -270h-298l213 270h402z" />
    <glyph glyph-name="oslashacute" unicode="&#x1ff;" horiz-adv-x="1276" 
d="M1321 1161l-198 -246q56 -66 85.5 -148.5t29.5 -173.5q0 -144 -83.5 -289.5t-232 -240t-332.5 -94.5q-111 0 -206 31l-75 -93h-345l193 238q-58 66 -89 149t-31 175q0 147 82 293t230.5 241t336.5 95q120 0 217 -35l79 98h339zM448 503l168 208q-50 -9 -88.5 -41
t-59 -75.5t-20.5 -86.5v-5zM674 359q45 12 79.5 42.5t53 70t20.5 77.5zM1228 1459l-299 -300h-279l194 300h384z" />
    <glyph glyph-name="uni0200" unicode="&#x200;" horiz-adv-x="1450" 
d="M1330 0h-432l-17 178h-440l-94 -178h-454l833 1407h373zM779 816l-149 -281h216l-28 281l-3 76h-4zM872 1490h-258l-173 234h326zM1226 1488h-258l-174 234h327z" />
    <glyph glyph-name="uni0201" unicode="&#x201;" horiz-adv-x="1326" 
d="M1327 1069l-96 -452v-1l-132 -616h-295l-24 70q-123 -95 -279 -95q-138 0 -243 58t-163 168.5t-58 262.5t80.5 298t224.5 239t323 93q197 0 298 -117l86 92h278zM496.5 395q46.5 -43 122.5 -43q59 0 105.5 28t72.5 74t26 99q0 80 -45 122.5t-117 42.5q-62 0 -110.5 -30.5
t-74.5 -78t-26 -94.5q0 -77 46.5 -120zM793 1155h-225l-149 260h313zM1122 1154h-225l-149 259h313z" />
    <glyph glyph-name="uni0202" unicode="&#x202;" horiz-adv-x="1450" 
d="M1330 0h-432l-17 178h-440l-94 -178h-454l833 1407h373zM779 816l-149 -281h216l-28 281l-3 76h-4zM1186.5 1734.5q68.5 -60.5 68.5 -162.5q0 -41 -8 -76h-269q6 20 6 35q0 24 -13.5 38t-41.5 14q-37 0 -58 -24t-26 -63h-268q18 85 67.5 152.5t133.5 107t197 39.5
q143 0 211.5 -60.5z" />
    <glyph glyph-name="uni0203" unicode="&#x203;" horiz-adv-x="1326" 
d="M1327 1069l-96 -452v-1l-132 -616h-295l-24 70q-123 -95 -279 -95q-138 0 -243 58t-163 168.5t-58 262.5t80.5 298t224.5 239t323 93q197 0 298 -117l86 92h278zM496.5 395q46.5 -43 122.5 -43q59 0 105.5 28t72.5 74t26 99q0 80 -45 122.5t-117 42.5q-62 0 -110.5 -30.5
t-74.5 -78t-26 -94.5q0 -77 46.5 -120zM1086.5 1425.5q65.5 -57.5 65.5 -162.5q0 -42 -11 -94h-257q6 27 6 45q0 28 -13 38.5t-41 10.5q-37 0 -55 -19.5t-29 -74.5h-259q30 146 126.5 230t263.5 84q138 0 203.5 -57.5z" />
    <glyph glyph-name="uni0204" unicode="&#x204;" horiz-adv-x="1235" 
d="M1059 0h-1051l299 1405h1035l-82 -388h-604l-29 -132h463l-76 -358h-463l-30 -139h620zM838 1490h-258l-173 234h326zM1192 1488h-258l-174 234h327z" />
    <glyph glyph-name="uni0205" unicode="&#x205;" horiz-adv-x="1196" 
d="M437 410q24 -49 71.5 -74t103.5 -25q47 0 78.5 10.5t77.5 38.5l148 -271q-76 -60 -162 -90t-174 -30q-160 0 -284 66.5t-192 180t-68 250.5q0 146 81.5 292.5t233.5 242.5t351 96q148 0 254 -53.5t161.5 -149t55.5 -217.5q0 -139 -59 -267h-677zM813 655
q-21 120 -154 120q-64 0 -116 -33t-84 -87h354zM719 1150h-225l-149 260h313zM1048 1149h-225l-149 259h313z" />
    <glyph glyph-name="uni0206" unicode="&#x206;" horiz-adv-x="1235" 
d="M1059 0h-1051l299 1405h1035l-82 -388h-604l-29 -132h463l-76 -358h-463l-30 -139h620zM1151.5 1734.5q68.5 -60.5 68.5 -162.5q0 -41 -8 -76h-269q6 20 6 35q0 24 -13.5 38t-41.5 14q-37 0 -58 -24t-26 -63h-268q18 85 67.5 152.5t133.5 107t197 39.5q143 0 211.5 -60.5
z" />
    <glyph glyph-name="uni0207" unicode="&#x207;" horiz-adv-x="1196" 
d="M437 410q24 -49 71.5 -74t103.5 -25q47 0 78.5 10.5t77.5 38.5l148 -271q-76 -60 -162 -90t-174 -30q-160 0 -284 66.5t-192 180t-68 250.5q0 146 81.5 292.5t233.5 242.5t351 96q148 0 254 -53.5t161.5 -149t55.5 -217.5q0 -139 -59 -267h-677zM813 655
q-21 120 -154 120q-64 0 -116 -33t-84 -87h354zM1012.5 1421.5q65.5 -57.5 65.5 -162.5q0 -42 -11 -94h-257q6 27 6 45q0 28 -13 38.5t-41 10.5q-37 0 -55 -19.5t-29 -74.5h-259q30 146 126.5 230t263.5 84q138 0 203.5 -57.5z" />
    <glyph glyph-name="uni0208" unicode="&#x208;" horiz-adv-x="674" 
d="M439 0h-431l299 1405h431zM488 1490h-258l-173 234h326zM842 1488h-258l-174 234h327z" />
    <glyph glyph-name="uni0209" unicode="&#x209;" horiz-adv-x="629" 
d="M403 0h-405l228 1069h405zM427 1150h-225l-149 260h313zM756 1149h-225l-149 259h313z" />
    <glyph glyph-name="uni020A" unicode="&#x20a;" horiz-adv-x="674" 
d="M439 0h-431l299 1405h431zM802.5 1734.5q68.5 -60.5 68.5 -162.5q0 -41 -8 -76h-269q6 20 6 35q0 24 -13.5 38t-41.5 14q-37 0 -58 -24t-26 -63h-268q18 85 67.5 152.5t133.5 107t197 39.5q143 0 211.5 -60.5z" />
    <glyph glyph-name="uni020B" unicode="&#x20b;" horiz-adv-x="629" 
d="M403 0h-405l228 1069h405zM720.5 1421.5q65.5 -57.5 65.5 -162.5q0 -42 -11 -94h-257q6 27 6 45q0 28 -13 38.5t-41 10.5q-37 0 -55 -19.5t-29 -74.5h-259q30 146 126.5 230t263.5 84q138 0 203.5 -57.5z" />
    <glyph glyph-name="uni020C" unicode="&#x20c;" horiz-adv-x="1590" 
d="M382.5 45q-141.5 73 -216.5 211t-75 329q0 212 111 408.5t305 318t431 121.5q195 0 337 -74.5t217.5 -214t75.5 -332.5q0 -210 -111 -404t-306 -315t-432 -121q-195 0 -336.5 73zM954 432.5q83 49.5 132 136.5t49 194q0 127 -69.5 193t-181.5 66q-96 0 -179 -50.5
t-132 -139.5t-49 -199q0 -124 69 -187t181 -63q97 0 180 49.5zM957 1485h-258l-173 234h326zM1311 1483h-258l-174 234h327z" />
    <glyph glyph-name="uni020D" unicode="&#x20d;" horiz-adv-x="1276" 
d="M296.5 36.5q-125.5 67.5 -192.5 182t-67 250.5q0 147 82 293t230.5 241t336.5 95q168 0 293.5 -68t192 -183.5t66.5 -253.5q0 -144 -83.5 -289.5t-232 -240t-332.5 -94.5q-168 0 -293.5 67.5zM728.5 383q47.5 31 73 78t25.5 93q0 45 -24 81.5t-64 57.5t-85 21
q-61 0 -108 -30.5t-72.5 -78.5t-25.5 -97q0 -43 23 -78.5t62.5 -56.5t85.5 -21q62 0 109.5 31zM741 1155h-225l-149 260h313zM1070 1154h-225l-149 259h313z" />
    <glyph glyph-name="uni020E" unicode="&#x20e;" horiz-adv-x="1590" 
d="M382.5 45q-141.5 73 -216.5 211t-75 329q0 212 111 408.5t305 318t431 121.5q195 0 337 -74.5t217.5 -214t75.5 -332.5q0 -210 -111 -404t-306 -315t-432 -121q-195 0 -336.5 73zM954 432.5q83 49.5 132 136.5t49 194q0 127 -69.5 193t-181.5 66q-96 0 -179 -50.5
t-132 -139.5t-49 -199q0 -124 69 -187t181 -63q97 0 180 49.5zM1271.5 1729.5q68.5 -60.5 68.5 -162.5q0 -41 -8 -76h-269q6 20 6 35q0 24 -13.5 38t-41.5 14q-37 0 -58 -24t-26 -63h-268q18 85 67.5 152.5t133.5 107t197 39.5q143 0 211.5 -60.5z" />
    <glyph glyph-name="uni020F" unicode="&#x20f;" horiz-adv-x="1276" 
d="M296.5 36.5q-125.5 67.5 -192.5 182t-67 250.5q0 147 82 293t230.5 241t336.5 95q168 0 293.5 -68t192 -183.5t66.5 -253.5q0 -144 -83.5 -289.5t-232 -240t-332.5 -94.5q-168 0 -293.5 67.5zM728.5 383q47.5 31 73 78t25.5 93q0 45 -24 81.5t-64 57.5t-85 21
q-61 0 -108 -30.5t-72.5 -78.5t-25.5 -97q0 -43 23 -78.5t62.5 -56.5t85.5 -21q62 0 109.5 31zM1034.5 1426.5q65.5 -57.5 65.5 -162.5q0 -42 -11 -94h-257q6 27 6 45q0 28 -13 38.5t-41 10.5q-37 0 -55 -19.5t-29 -74.5h-259q30 146 126.5 230t263.5 84q138 0 203.5 -57.5z
" />
    <glyph glyph-name="uni0210" unicode="&#x210;" horiz-adv-x="1343" 
d="M1268 735.5q-74 -121.5 -206 -196.5l160 -539h-462l-112 430q-14 -1 -44 -1h-73l-92 -429h-431l299 1405h601q127 0 225.5 -49t153.5 -138t55 -205q0 -156 -74 -277.5zM656 1017l-45 -212h132q41 0 77 21.5t58 53t22 60.5q0 37 -24.5 57t-58.5 20h-161zM721 1490h-258
l-173 234h326zM1075 1488h-258l-174 234h327z" />
    <glyph glyph-name="uni0211" unicode="&#x211;" horiz-adv-x="1001" 
d="M988 1067.5q61 -23.5 109 -68.5l-247 -328q-59 50 -123 50q-42 0 -84 -21t-75 -62t-50 -100l-115 -538h-405l229 1069h297l46 -108q58 69 124 99.5t165 30.5q68 0 129 -23.5zM600 1150h-225l-149 260h313zM929 1149h-225l-149 259h313z" />
    <glyph glyph-name="uni0212" unicode="&#x212;" horiz-adv-x="1343" 
d="M1268 735.5q-74 -121.5 -206 -196.5l160 -539h-462l-112 430q-14 -1 -44 -1h-73l-92 -429h-431l299 1405h601q127 0 225.5 -49t153.5 -138t55 -205q0 -156 -74 -277.5zM656 1017l-45 -212h132q41 0 77 21.5t58 53t22 60.5q0 37 -24.5 57t-58.5 20h-161zM1035.5 1734.5
q68.5 -60.5 68.5 -162.5q0 -41 -8 -76h-269q6 20 6 35q0 24 -13.5 38t-41.5 14q-37 0 -58 -24t-26 -63h-268q18 85 67.5 152.5t133.5 107t197 39.5q143 0 211.5 -60.5z" />
    <glyph glyph-name="uni0213" unicode="&#x213;" horiz-adv-x="1001" 
d="M988 1067.5q61 -23.5 109 -68.5l-247 -328q-59 50 -123 50q-42 0 -84 -21t-75 -62t-50 -100l-115 -538h-405l229 1069h297l46 -108q58 69 124 99.5t165 30.5q68 0 129 -23.5zM893.5 1421.5q65.5 -57.5 65.5 -162.5q0 -42 -11 -94h-257q6 27 6 45q0 28 -13 38.5t-41 10.5
q-37 0 -55 -19.5t-29 -74.5h-259q30 146 126.5 230t263.5 84q138 0 203.5 -57.5z" />
    <glyph glyph-name="uni0214" unicode="&#x214;" horiz-adv-x="1427" 
d="M322.5 22.5q-117.5 55.5 -178.5 155.5t-61 230q0 60 14 128l185 869h431l-171 -805q-11 -52 -11 -92q0 -67 30.5 -103.5t93.5 -36.5q57 0 111 29t92.5 82t53.5 121l172 805h431l-186 -869q-34 -164 -131.5 -293t-249.5 -202.5t-343 -73.5q-165 0 -282.5 55.5zM857 1490
h-258l-173 234h326zM1211 1488h-258l-174 234h327z" />
    <glyph glyph-name="uni0215" unicode="&#x215;" horiz-adv-x="1337" 
d="M934 1069h404l-228 -1069h-297l-45 106q-76 -60 -169 -94.5t-175 -34.5q-106 0 -186.5 41.5t-125 120t-44.5 186.5q0 60 13 122l133 622h404l-117 -547q-7 -32 -7 -63q0 -55 26 -84.5t76 -29.5q43 0 86 18.5t77 48.5t48 63zM772 1150h-225l-149 260h313zM1101 1149h-225
l-149 259h313z" />
    <glyph glyph-name="uni0216" unicode="&#x216;" horiz-adv-x="1427" 
d="M322.5 22.5q-117.5 55.5 -178.5 155.5t-61 230q0 60 14 128l185 869h431l-171 -805q-11 -52 -11 -92q0 -67 30.5 -103.5t93.5 -36.5q57 0 111 29t92.5 82t53.5 121l172 805h431l-186 -869q-34 -164 -131.5 -293t-249.5 -202.5t-343 -73.5q-165 0 -282.5 55.5z
M1171.5 1734.5q68.5 -60.5 68.5 -162.5q0 -41 -8 -76h-269q6 20 6 35q0 24 -13.5 38t-41.5 14q-37 0 -58 -24t-26 -63h-268q18 85 67.5 152.5t133.5 107t197 39.5q143 0 211.5 -60.5z" />
    <glyph glyph-name="uni0217" unicode="&#x217;" horiz-adv-x="1337" 
d="M934 1069h404l-228 -1069h-297l-45 106q-76 -60 -169 -94.5t-175 -34.5q-106 0 -186.5 41.5t-125 120t-44.5 186.5q0 60 13 122l133 622h404l-117 -547q-7 -32 -7 -63q0 -55 26 -84.5t76 -29.5q43 0 86 18.5t77 48.5t48 63zM1065.5 1421.5q65.5 -57.5 65.5 -162.5
q0 -42 -11 -94h-257q6 27 6 45q0 28 -13 38.5t-41 10.5q-37 0 -55 -19.5t-29 -74.5h-259q30 146 126.5 230t263.5 84q138 0 203.5 -57.5z" />
    <glyph glyph-name="uni0218" unicode="&#x218;" horiz-adv-x="1193" 
d="M197.5 39.5q-137.5 67.5 -243.5 198.5l287 274q76 -72 160 -106.5t161 -34.5q103 0 103 48q0 26 -30.5 59t-140.5 72q-123 43 -220.5 139t-97.5 258q0 106 49 216.5t172.5 189.5t331.5 79q163 0 293 -57.5t214 -158.5l-287 -291q-46 42 -111 75.5t-135 33.5
q-41 0 -62 -13.5t-21 -33.5q0 -56 161 -107q170 -57 248 -154.5t78 -235.5q0 -121 -65 -240t-202 -198.5t-339 -79.5q-166 0 -303.5 67.5zM426 -418q89 72 95 104l2 5q-35 0 -54.5 19.5t-19.5 50.5q0 32 17.5 58.5t46.5 42t62 15.5q36 0 58.5 -20.5t22.5 -60.5q0 -17 -4 -33
q-27 -131 -179 -237z" />
    <glyph glyph-name="uni0219" unicode="&#x219;" horiz-adv-x="944" 
d="M-11 124l178 283q144 -102 255 -102q29 0 38 3.5t9 6.5q0 13 -28.5 32.5t-96.5 51.5q-102 47 -162.5 118.5t-60.5 189.5q0 87 39.5 175.5t133.5 150t247 61.5q122 0 221 -39.5t168 -110.5l-229 -262q-38 34 -86.5 53t-89.5 19q-21 0 -21 -21q0 -11 6.5 -17t30 -16
t60.5 -24q131 -50 194 -124t63 -188q0 -95 -49 -186t-150 -150t-248 -59q-252 0 -422 155zM166 -440q89 72 95 104l2 5q-35 0 -54.5 19.5t-19.5 50.5q0 32 17.5 58.5t46.5 42t62 15.5q36 0 58.5 -20.5t22.5 -60.5q0 -17 -4 -33q-27 -131 -179 -237z" />
    <glyph glyph-name="uni021A" unicode="&#x21a;" horiz-adv-x="1262" 
d="M731 0h-431l214 1004h-349l85 401h1130l-85 -401h-350zM409 -418q89 72 95 104l2 5q-35 0 -54.5 19.5t-19.5 50.5q0 32 17.5 58.5t46.5 42t62 15.5q36 0 58.5 -20.5t22.5 -60.5q0 -17 -4 -33q-27 -131 -179 -237z" />
    <glyph glyph-name="uni021B" unicode="&#x21b;" horiz-adv-x="717" 
d="M414 0h-405l150 700h-122l79 369h119l52 244l430 102l-73 -346h188l-78 -369h-190zM21 -440q89 72 95 104l2 5q-35 0 -54.5 19.5t-19.5 50.5q0 32 17.5 58.5t46.5 42t62 15.5q36 0 58.5 -20.5t22.5 -60.5q0 -17 -4 -33q-27 -131 -179 -237z" />
    <glyph glyph-name="uni021E" unicode="&#x21e;" horiz-adv-x="1502" 
d="M439 0h-431l299 1405h431l-98 -458h397l98 458h431l-299 -1405h-431l114 535h-397zM679 1709l153 176l180 -136l234 136l100 -176l-346 -213h-64z" />
    <glyph glyph-name="uni021F" unicode="&#x21f;" horiz-adv-x="1337" 
d="M1099.5 1050.5q80.5 -41.5 125 -119.5t44.5 -185q0 -56 -14 -124l-132 -622h-404l117 548q7 32 7 63q0 55 -26.5 84t-76.5 29q-47 0 -94.5 -22.5t-81.5 -58t-42 -71.5v1l-122 -573h-402l320 1502h402l-108 -508q71 46 150.5 72t150.5 26q106 0 186.5 -41.5zM657 1771
l153 176l180 -136l234 136l100 -176l-346 -213h-64z" />
    <glyph glyph-name="uni0226" unicode="&#x226;" horiz-adv-x="1450" 
d="M1330 0h-432l-17 178h-440l-94 -178h-454l833 1407h373zM779 816l-149 -281h216l-28 281l-3 76h-4zM813 1527.5q-36 32.5 -36 85.5q0 19 4 36q14 70 69 113.5t126 43.5q61 0 97 -32.5t36 -88.5q0 -19 -4 -36q-14 -68 -69 -111t-126 -43q-61 0 -97 32.5z" />
    <glyph glyph-name="uni0227" unicode="&#x227;" horiz-adv-x="1326" 
d="M1327 1069l-96 -452v-1l-132 -616h-295l-24 70q-123 -95 -279 -95q-138 0 -243 58t-163 168.5t-58 262.5t80.5 298t224.5 239t323 93q197 0 298 -117l86 92h278zM496.5 395q46.5 -43 122.5 -43q59 0 105.5 28t72.5 74t26 99q0 80 -45 122.5t-117 42.5q-62 0 -110.5 -30.5
t-74.5 -78t-26 -94.5q0 -77 46.5 -120zM715 1186.5q-36 32.5 -36 85.5q0 19 4 36q14 70 69 113.5t126 43.5q61 0 97 -32.5t36 -88.5q0 -19 -4 -36q-14 -68 -69 -111t-126 -43q-61 0 -97 32.5z" />
    <glyph glyph-name="uni0228" unicode="&#x228;" horiz-adv-x="1235" 
d="M1260 1017h-604l-29 -132h463l-76 -358h-463l-30 -139h620l-82 -388h-374q49 -107 49 -184q0 -23 -4 -40q-14 -64 -50 -108t-120 -72t-232 -32l19 183q52 5 79 15.5t37 24.5t15 37q2 7 2 21q0 26 -12.5 60.5t-42.5 94.5h-417l299 1405h1035z" />
    <glyph glyph-name="uni0229" unicode="&#x229;" horiz-adv-x="1196" 
d="M437 410q24 -49 71.5 -74t103.5 -25q47 0 78.5 10.5t77.5 38.5l148 -271q-71 -55 -150.5 -85t-161.5 -34q45 -71 45 -135q0 -12 -4 -34q-12 -58 -46.5 -101t-112.5 -71t-211 -32l16 175q52 5 79.5 15.5t37.5 25t15 36.5q2 7 2 21q0 23 -10 46.5t-42 85.5
q-103 36 -179.5 105t-117 161.5t-40.5 197.5q0 146 81.5 292.5t233.5 242.5t351 96q148 0 254 -53.5t161.5 -149t55.5 -217.5q0 -139 -59 -267h-677zM813 655q-21 120 -154 120q-64 0 -116 -33t-84 -87h354z" />
    <glyph glyph-name="uni022A" unicode="&#x22a;" horiz-adv-x="1590" 
d="M382.5 45q-141.5 73 -216.5 211t-75 329q0 212 111 408.5t305 318t431 121.5q195 0 337 -74.5t217.5 -214t75.5 -332.5q0 -210 -111 -404t-306 -315t-432 -121q-195 0 -336.5 73zM954 432.5q83 49.5 132 136.5t49 194q0 127 -69.5 193t-181.5 66q-96 0 -179 -50.5
t-132 -139.5t-49 -199q0 -124 69 -187t181 -63q97 0 180 49.5zM678.5 1529q-36.5 33 -36.5 87q0 19 4 35q15 70 70 114t127 44q61 0 97 -32.5t36 -88.5q0 -20 -4 -37q-15 -68 -70 -111.5t-126 -43.5q-61 0 -97.5 33zM1123 1528.5q-36 32.5 -36 86.5q0 19 4 36
q14 70 68.5 114t126.5 44q61 0 97 -32.5t36 -87.5q0 -21 -4 -38q-14 -68 -69 -111.5t-126 -43.5q-61 0 -97 32.5zM1394 1847h-616l49 232h617z" />
    <glyph glyph-name="uni022B" unicode="&#x22b;" horiz-adv-x="1276" 
d="M296.5 36.5q-125.5 67.5 -192.5 182t-67 250.5q0 147 82 293t230.5 241t336.5 95q168 0 293.5 -68t192 -183.5t66.5 -253.5q0 -144 -83.5 -289.5t-232 -240t-332.5 -94.5q-168 0 -293.5 67.5zM728.5 383q47.5 31 73 78t25.5 93q0 45 -24 81.5t-64 57.5t-85 21
q-61 0 -108 -30.5t-72.5 -78.5t-25.5 -97q0 -43 23 -78.5t62.5 -56.5t85.5 -21q62 0 109.5 31zM442.5 1188q-36.5 33 -36.5 87q0 19 4 35q15 70 70 114t127 44q61 0 97 -32.5t36 -88.5q0 -20 -4 -37q-15 -68 -70 -111.5t-126 -43.5q-61 0 -97.5 33zM887 1187.5
q-36 32.5 -36 86.5q0 19 4 36q14 70 68.5 114t126.5 44q61 0 97 -32.5t36 -87.5q0 -21 -4 -38q-14 -68 -69 -111.5t-126 -43.5q-61 0 -97 32.5zM1149 1513h-616l49 232h617z" />
    <glyph glyph-name="uni022C" unicode="&#x22c;" horiz-adv-x="1590" 
d="M382.5 45q-141.5 73 -216.5 211t-75 329q0 212 111 408.5t305 318t431 121.5q195 0 337 -74.5t217.5 -214t75.5 -332.5q0 -210 -111 -404t-306 -315t-432 -121q-195 0 -336.5 73zM954 432.5q83 49.5 132 136.5t49 194q0 127 -69.5 193t-181.5 66q-96 0 -179 -50.5
t-132 -139.5t-49 -199q0 -124 69 -187t181 -63q97 0 180 49.5zM667 1578q75 118 139.5 163t128.5 45q46 0 82 -10t79 -28q28 -12 44.5 -17t31.5 -5q14 0 35 14t44 39l129 -88q-74 -117 -139 -162t-128 -45q-46 0 -82.5 10t-79.5 27q-31 12 -46 16.5t-30 4.5q-13 0 -34.5 -14
t-42.5 -38zM1391 1834h-616l49 232h617z" />
    <glyph glyph-name="uni022D" unicode="&#x22d;" horiz-adv-x="1276" 
d="M296.5 36.5q-125.5 67.5 -192.5 182t-67 250.5q0 147 82 293t230.5 241t336.5 95q168 0 293.5 -68t192 -183.5t66.5 -253.5q0 -144 -83.5 -289.5t-232 -240t-332.5 -94.5q-168 0 -293.5 67.5zM728.5 383q47.5 31 73 78t25.5 93q0 45 -24 81.5t-64 57.5t-85 21
q-61 0 -108 -30.5t-72.5 -78.5t-25.5 -97q0 -43 23 -78.5t62.5 -56.5t85.5 -21q62 0 109.5 31zM438 1243q75 118 139.5 163t128.5 45q46 0 82 -10t79 -28q28 -12 44.5 -17t31.5 -5q14 0 35 14t44 39l129 -88q-74 -117 -139 -162t-128 -45q-46 0 -82.5 10t-79.5 27
q-31 12 -46 16.5t-30 4.5q-13 0 -34.5 -14t-42.5 -38zM1149 1512h-616l49 232h617z" />
    <glyph glyph-name="uni022E" unicode="&#x22e;" horiz-adv-x="1590" 
d="M382.5 45q-141.5 73 -216.5 211t-75 329q0 212 111 408.5t305 318t431 121.5q195 0 337 -74.5t217.5 -214t75.5 -332.5q0 -210 -111 -404t-306 -315t-432 -121q-195 0 -336.5 73zM954 432.5q83 49.5 132 136.5t49 194q0 127 -69.5 193t-181.5 66q-96 0 -179 -50.5
t-132 -139.5t-49 -199q0 -124 69 -187t181 -63q97 0 180 49.5zM898 1522.5q-36 32.5 -36 85.5q0 19 4 36q14 70 69 113.5t126 43.5q61 0 97 -32.5t36 -88.5q0 -19 -4 -36q-14 -68 -69 -111t-126 -43q-61 0 -97 32.5z" />
    <glyph glyph-name="uni022F" unicode="&#x22f;" horiz-adv-x="1276" 
d="M296.5 36.5q-125.5 67.5 -192.5 182t-67 250.5q0 147 82 293t230.5 241t336.5 95q168 0 293.5 -68t192 -183.5t66.5 -253.5q0 -144 -83.5 -289.5t-232 -240t-332.5 -94.5q-168 0 -293.5 67.5zM728.5 383q47.5 31 73 78t25.5 93q0 45 -24 81.5t-64 57.5t-85 21
q-61 0 -108 -30.5t-72.5 -78.5t-25.5 -97q0 -43 23 -78.5t62.5 -56.5t85.5 -21q62 0 109.5 31zM663 1187.5q-36 32.5 -36 85.5q0 19 4 36q14 70 69 113.5t126 43.5q61 0 97 -32.5t36 -88.5q0 -19 -4 -36q-14 -68 -69 -111t-126 -43q-61 0 -97 32.5z" />
    <glyph glyph-name="uni0230" unicode="&#x230;" horiz-adv-x="1590" 
d="M382.5 45q-141.5 73 -216.5 211t-75 329q0 212 111 408.5t305 318t431 121.5q195 0 337 -74.5t217.5 -214t75.5 -332.5q0 -210 -111 -404t-306 -315t-432 -121q-195 0 -336.5 73zM954 432.5q83 49.5 132 136.5t49 194q0 127 -69.5 193t-181.5 66q-96 0 -179 -50.5
t-132 -139.5t-49 -199q0 -124 69 -187t181 -63q97 0 180 49.5zM898 1522.5q-36 32.5 -36 85.5q0 19 4 36q14 70 69 113.5t126 43.5q61 0 97 -32.5t36 -88.5q0 -19 -4 -36q-14 -68 -69 -111t-126 -43q-61 0 -97 32.5zM1392 1840h-616l49 232h617z" />
    <glyph glyph-name="uni0231" unicode="&#x231;" horiz-adv-x="1276" 
d="M296.5 36.5q-125.5 67.5 -192.5 182t-67 250.5q0 147 82 293t230.5 241t336.5 95q168 0 293.5 -68t192 -183.5t66.5 -253.5q0 -144 -83.5 -289.5t-232 -240t-332.5 -94.5q-168 0 -293.5 67.5zM728.5 383q47.5 31 73 78t25.5 93q0 45 -24 81.5t-64 57.5t-85 21
q-61 0 -108 -30.5t-72.5 -78.5t-25.5 -97q0 -43 23 -78.5t62.5 -56.5t85.5 -21q62 0 109.5 31zM663 1187.5q-36 32.5 -36 85.5q0 19 4 36q14 70 69 113.5t126 43.5q61 0 97 -32.5t36 -88.5q0 -19 -4 -36q-14 -68 -69 -111t-126 -43q-61 0 -97 32.5zM1147 1508h-616l49 232
h617z" />
    <glyph glyph-name="uni0232" unicode="&#x232;" horiz-adv-x="1427" 
d="M814 0h-431l109 514l-301 891h488l108 -489l308 489h510l-680 -888zM1243 1502h-616l49 232h617z" />
    <glyph glyph-name="uni0233" unicode="&#x233;" horiz-adv-x="1243" 
d="M513 -355h-437l222 359l-182 1065h434l48 -595l301 595h455zM1068 1157h-616l49 232h617z" />
    <glyph glyph-name="uni0237" unicode="&#x237;" horiz-adv-x="619" 
d="M-228 -389l76 355h18q63 0 96 27t43 77l214 999h402l-211 -990q-50 -232 -198.5 -350t-368.5 -118h-71z" />
    <glyph glyph-name="uni0259" unicode="&#x259;" horiz-adv-x="1185" 
d="M936.5 1044.5q104.5 -57.5 160 -157.5t55.5 -224q0 -61 -13 -122q-32 -153 -129 -282t-237 -205t-297 -76q-146 0 -246.5 49.5t-150.5 140t-50 213.5q0 72 16 148q14 64 39 134h675q-17 52 -61 78t-107 26q-56 0 -100.5 -16.5t-91.5 -48.5l-125 264q89 65 194.5 100.5
t221.5 35.5q142 0 246.5 -57.5zM635.5 325q48.5 27 81.5 83h-326q9 -55 43.5 -82.5t92.5 -27.5q60 0 108.5 27z" />
    <glyph glyph-name="uni0272" unicode="&#x272;" horiz-adv-x="1337" 
d="M1099.5 1050.5q80.5 -41.5 125 -119.5t44.5 -185q0 -56 -14 -124l-132 -622h-404l117 548q7 32 7 63q0 55 -26.5 84t-76.5 29q-42 0 -85 -18t-76.5 -48t-48.5 -63l-127 -595h-7l-4 -21q-40 -204 -177.5 -308.5t-342.5 -104.5h-65l70 352h18q45 0 68.5 19t32.5 64l27 133
h4l200 935h297l45 -105q76 59 169 93.5t175 34.5q106 0 186.5 -41.5z" />
    <glyph glyph-name="circumflex" unicode="&#x2c6;" horiz-adv-x="764" 
d="M556 1296l-228 -112l-89 178l326 174h63l249 -174l-140 -178z" />
    <glyph glyph-name="caron" unicode="&#x2c7;" horiz-adv-x="765" 
d="M239 1362l143 178l180 -113l229 113l86 -178l-323 -174h-63z" />
    <glyph glyph-name="breve" unicode="&#x2d8;" horiz-adv-x="774" 
d="M325 1255.5q-65 58.5 -65 163.5q0 45 10 91h256q-6 -30 -6 -48q0 -26 12 -36t40 -10q37 0 55.5 20t30.5 74h260q-30 -147 -126.5 -230t-263.5 -83q-138 0 -203 58.5z" />
    <glyph glyph-name="dotaccent" unicode="&#x2d9;" horiz-adv-x="451" 
d="M268 1224.5q-36 32.5 -36 85.5q0 19 4 36q14 70 69 113.5t126 43.5q61 0 97 -32.5t36 -88.5q0 -19 -4 -36q-14 -68 -69 -111t-126 -43q-61 0 -97 32.5z" />
    <glyph glyph-name="ring" unicode="&#x2da;" horiz-adv-x="560" 
d="M290 1242.5q-48 39.5 -48 108.5q0 26 5 46q19 91 90 144t168 53q83 0 131.5 -39.5t48.5 -110.5q0 -19 -5 -47q-19 -89 -91 -141.5t-168 -52.5q-83 0 -131 39.5zM508.5 1356.5q24.5 22.5 24.5 57.5q0 22 -15.5 36t-40.5 14q-29 0 -51.5 -18.5t-29.5 -47.5q-2 -12 -2 -16
q0 -22 15.5 -35t40.5 -13q34 0 58.5 22.5z" />
    <glyph glyph-name="ogonek" unicode="&#x2db;" horiz-adv-x="501" 
d="M268 0q-119 -83 -119 -156q0 -22 11.5 -35t32.5 -13q23 0 69 10l-13 -158q-46 -22 -88 -31t-97 -9q-88 0 -127 37t-39 95q0 19 5 42q10 46 42 91.5t69 79t61 47.5h193z" />
    <glyph glyph-name="tilde" unicode="&#x2dc;" horiz-adv-x="816" 
d="M222 1280q75 118 139.5 163t128.5 45q46 0 82 -10t79 -28q28 -12 44.5 -17t31.5 -5q14 0 35 14t44 39l129 -88q-74 -117 -139 -162t-128 -45q-46 0 -82.5 10t-79.5 27q-31 12 -46 16.5t-30 4.5q-13 0 -34.5 -14t-42.5 -38z" />
    <glyph glyph-name="hungarumlaut" unicode="&#x2dd;" horiz-adv-x="872" 
d="M1014 1501l-254 -300h-236l154 280l-237 -280h-236l164 300h645z" />
    <glyph glyph-name="gravecomb" unicode="&#x300;" 
d="M69 1159h-260l-172 300h362z" />
    <glyph glyph-name="acutecomb" unicode="&#x301;" 
d="M133 1459l-299 -300h-279l194 300h384z" />
    <glyph glyph-name="uni0302" unicode="&#x302;" 
d="M-220 1241l-228 -112l-89 178l326 174h63l249 -174l-140 -178z" />
    <glyph glyph-name="tildecomb" unicode="&#x303;" 
d="M-602 1238q75 118 139.5 163t128.5 45q46 0 82 -10t79 -28q28 -12 44.5 -17t31.5 -5q14 0 35 14t44 39l129 -88q-74 -117 -139 -162t-128 -45q-46 0 -82.5 10t-79.5 27q-31 12 -46 16.5t-30 4.5q-13 0 -34.5 -14t-42.5 -38z" />
    <glyph glyph-name="uni0304" unicode="&#x304;" 
d="M69 1157h-616l49 232h617z" />
    <glyph glyph-name="uni0306" unicode="&#x306;" 
d="M-458 1212.5q-65 58.5 -65 163.5q0 45 10 91h256q-6 -30 -6 -48q0 -26 12 -36t40 -10q37 0 55.5 20t30.5 74h260q-30 -147 -126.5 -230t-263.5 -83q-138 0 -203 58.5z" />
    <glyph glyph-name="uni0307" unicode="&#x307;" 
d="M-192 1182.5q-36 32.5 -36 85.5q0 19 4 36q14 70 69 113.5t126 43.5q61 0 97 -32.5t36 -88.5q0 -19 -4 -36q-14 -68 -69 -111t-126 -43q-61 0 -97 32.5z" />
    <glyph glyph-name="uni0308" unicode="&#x308;" 
d="M-635.5 1183q-36.5 33 -36.5 87q0 19 4 35q15 70 70 114t127 44q61 0 97 -32.5t36 -88.5q0 -20 -4 -37q-15 -68 -70 -111.5t-126 -43.5q-61 0 -97.5 33zM-191 1182.5q-36 32.5 -36 86.5q0 19 4 36q14 70 68.5 114t126.5 44q61 0 97 -32.5t36 -87.5q0 -21 -4 -38
q-14 -68 -69 -111.5t-126 -43.5q-61 0 -97 32.5z" />
    <glyph glyph-name="hookabovecomb" unicode="&#x309;" 
d="M-182 1165q47 60 56 99q1 4 1 12q0 23 -23 23q-31 0 -77 -25v120q56 29 101 41.5t88 12.5q66 0 106.5 -22t40.5 -62q0 -6 -2 -18q-9 -39 -36.5 -73.5t-100.5 -107.5h-154z" />
    <glyph glyph-name="uni030A" unicode="&#x30a;" 
d="M-279 1200.5q-48 39.5 -48 108.5q0 26 5 46q19 91 90 144t168 53q83 0 131.5 -39.5t48.5 -110.5q0 -19 -5 -47q-19 -89 -91 -141.5t-168 -52.5q-83 0 -131 39.5zM-60.5 1314.5q24.5 22.5 24.5 57.5q0 22 -15.5 36t-40.5 14q-29 0 -51.5 -18.5t-29.5 -47.5q-2 -12 -2 -16
q0 -22 15.5 -35t40.5 -13q34 0 58.5 22.5z" />
    <glyph glyph-name="uni030B" unicode="&#x30b;" 
d="M131 1459l-254 -300h-236l154 280l-237 -280h-236l164 300h645z" />
    <glyph glyph-name="uni030C" unicode="&#x30c;" 
d="M-536 1313l143 178l180 -113l229 113l86 -178l-323 -174h-63z" />
    <glyph glyph-name="uni030F" unicode="&#x30f;" 
d="M-262 1150h-225l-149 260h313zM67 1149h-225l-149 259h313z" />
    <glyph glyph-name="uni0311" unicode="&#x311;" 
d="M16.5 1421.5q65.5 -57.5 65.5 -162.5q0 -42 -11 -94h-257q6 27 6 45q0 28 -13 38.5t-41 10.5q-37 0 -55 -19.5t-29 -74.5h-259q30 146 126.5 230t263.5 84q138 0 203.5 -57.5z" />
    <glyph glyph-name="uni0312" unicode="&#x312;" 
d="M123 1507q-96 -77 -101 -109l-1 -4q37 0 58 -22t21 -55q0 -35 -19 -63.5t-51 -45t-68 -16.5q-38 0 -63 23t-25 66q0 17 4 33q31 140 193 253z" />
    <glyph glyph-name="uni031B" unicode="&#x31b;" 
d="M-280 1069q49 -1 73.5 27t24.5 76q0 40 -19 94l261 47q15 -49 15 -96q0 -84 -47 -149t-135 -103t-206 -40z" />
    <glyph glyph-name="dotbelowcomb" unicode="&#x323;" 
d="M-525 -382.5q-36 32.5 -36 85.5q0 19 4 36q14 70 69 113.5t126 43.5q61 0 97 -32.5t36 -88.5q0 -19 -4 -36q-14 -68 -69 -111t-126 -43q-61 0 -97 32.5z" />
    <glyph glyph-name="uni0324" unicode="&#x324;" 
d="M-966.5 -375q-36.5 33 -36.5 87q0 19 4 35q15 70 70 114t127 44q61 0 97 -32.5t36 -88.5q0 -20 -4 -37q-15 -68 -70 -111.5t-126 -43.5q-61 0 -97.5 33zM-522 -375.5q-36 32.5 -36 86.5q0 19 4 36q14 70 68.5 114t126.5 44q61 0 97 -32.5t36 -87.5q0 -21 -4 -38
q-14 -68 -69 -111.5t-126 -43.5q-61 0 -97 32.5z" />
    <glyph glyph-name="uni0325" unicode="&#x325;" 
d="M-631 -455.5q-48 39.5 -48 108.5q0 26 5 46q19 91 90 144t168 53q83 0 131.5 -39.5t48.5 -110.5q0 -19 -5 -47q-19 -89 -91 -141.5t-168 -52.5q-83 0 -131 39.5zM-412.5 -341.5q24.5 22.5 24.5 57.5q0 22 -15.5 36t-40.5 14q-29 0 -51.5 -18.5t-29.5 -47.5q-2 -12 -2 -16
q0 -22 15.5 -35t40.5 -13q34 0 58.5 22.5z" />
    <glyph glyph-name="uni0326" unicode="&#x326;" 
d="M-460 -440q89 72 95 104l2 5q-35 0 -54.5 19.5t-19.5 50.5q0 32 17.5 58.5t46.5 42t62 15.5q36 0 58.5 -20.5t22.5 -60.5q0 -17 -4 -33q-27 -131 -179 -237z" />
    <glyph glyph-name="uni0327" unicode="&#x327;" 
d="M-291 11q30 -32 52.5 -80.5t22.5 -96.5q0 -17 -3 -33q-13 -58 -47.5 -101t-112 -71t-210.5 -32l15 175q52 5 79.5 15.5t38 25t15.5 36.5q2 14 2 20q0 22 -9 44.5t-36 74.5l-12 23h205z" />
    <glyph glyph-name="uni0328" unicode="&#x328;" 
d="M-233 0q-119 -83 -119 -156q0 -22 11.5 -35t32.5 -13q23 0 69 10l-13 -158q-46 -22 -88 -31t-97 -9q-88 0 -127 37t-39 95q0 19 5 42q10 46 42 91.5t69 79t61 47.5h193z" />
    <glyph glyph-name="uni032D" unicode="&#x32d;" 
d="M-565 -378l-228 -112l-89 178l326 174h63l249 -174l-140 -178z" />
    <glyph glyph-name="uni032E" unicode="&#x32e;" 
d="M-800 -393.5q-65 58.5 -65 163.5q0 45 10 91h256q-6 -30 -6 -48q0 -26 12 -36t40 -10q37 0 55.5 20t30.5 74h260q-30 -147 -126.5 -230t-263.5 -83q-138 0 -203 58.5z" />
    <glyph glyph-name="uni0330" unicode="&#x330;" 
d="M-936 -331q75 118 139.5 163t128.5 45q46 0 82 -10t79 -28q28 -12 44.5 -17t31.5 -5q14 0 35 14t44 39l129 -88q-74 -117 -139 -162t-128 -45q-46 0 -82.5 10t-79.5 27q-31 12 -46 16.5t-30 4.5q-13 0 -34.5 -14t-42.5 -38z" />
    <glyph glyph-name="uni0331" unicode="&#x331;" 
d="M-262 -400h-616l49 232h617z" />
    <glyph glyph-name="uni0335" unicode="&#x335;" 
d="M-100 369h-784l70 326h784z" />
    <glyph glyph-name="uni0336" unicode="&#x336;" 
d="M16 1032h-793l71 238h793z" />
    <glyph glyph-name="uni0337" unicode="&#x337;" 
d="M112 866l-705 -356l-47 134l705 355z" />
    <glyph glyph-name="uni0338" unicode="&#x338;" 
d="M45 1161l-1012 -1254h-345l1018 1254h339z" />
    <glyph glyph-name="tonos" unicode="&#x384;" horiz-adv-x="387" 
d="M450 1146h-248l43 332h309z" />
    <glyph glyph-name="dieresistonos" unicode="&#x385;" horiz-adv-x="860" 
d="M664 1363h-153l130 227h247zM249.5 1179q-30.5 28 -30.5 75q0 14 3 30q13 61 60 98.5t108 37.5q52 0 83 -27.5t31 -74.5q0 -18 -4 -34q-12 -59 -59 -96t-108 -37q-53 0 -83.5 28zM703.5 1179q-30.5 28 -30.5 75q0 14 3 30q13 61 60 98.5t108 37.5q53 0 84 -28t31 -75
q0 -17 -4 -33q-12 -58 -59 -95.5t-109 -37.5q-53 0 -83.5 28z" />
    <glyph glyph-name="Alphatonos" unicode="&#x386;" horiz-adv-x="1450" 
d="M1330 0h-432l-17 178h-440l-94 -178h-454l833 1407h373zM779 816l-149 -281h216l-28 281l-3 76h-4zM379 1067l-269 1l45 342h330z" />
    <glyph glyph-name="Epsilontonos" unicode="&#x388;" horiz-adv-x="1235" 
d="M1059 0h-1051l299 1405h1035l-82 -388h-604l-29 -132h463l-76 -358h-463l-30 -139h620zM58 1067l-269 1l45 342h330z" />
    <glyph glyph-name="Etatonos" unicode="&#x389;" horiz-adv-x="1502" 
d="M439 0h-431l299 1405h431l-98 -458h397l98 458h431l-299 -1405h-431l114 535h-397zM58 1067l-269 1l45 342h330z" />
    <glyph glyph-name="Iotatonos" unicode="&#x38a;" horiz-adv-x="674" 
d="M439 0h-431l299 1405h431zM58 1067l-269 1l45 342h330z" />
    <glyph glyph-name="Omicrontonos" unicode="&#x38c;" horiz-adv-x="1590" 
d="M382.5 45q-141.5 73 -216.5 211t-75 329q0 212 111 408.5t305 318t431 121.5q195 0 337 -74.5t217.5 -214t75.5 -332.5q0 -210 -111 -404t-306 -315t-432 -121q-195 0 -336.5 73zM954 432.5q83 49.5 132 136.5t49 194q0 127 -69.5 193t-181.5 66q-96 0 -179 -50.5
t-132 -139.5t-49 -199q0 -124 69 -187t181 -63q97 0 180 49.5zM58 1067l-269 1l45 342h330z" />
    <glyph glyph-name="Upsilontonos" unicode="&#x38e;" horiz-adv-x="1427" 
d="M814 0h-431l109 514l-301 891h488l108 -489l308 489h510l-680 -888zM58 1067l-269 1l45 342h330z" />
    <glyph glyph-name="Omegatonos" unicode="&#x38f;" horiz-adv-x="1490" 
d="M1459.5 733.5q-47.5 -118.5 -125 -206.5t-163.5 -128h216l-85 -399h-636l125 583q63 10 125 46t103 98.5t41 146.5q0 52 -24.5 93t-70.5 64.5t-109 23.5q-89 0 -158 -42t-106.5 -109t-37.5 -138q0 -87 51 -129.5t117 -53.5l-124 -583h-636l85 399h211
q-56 41 -100.5 118.5t-44.5 194.5q0 140 81.5 310.5t268.5 296t482 125.5q182 0 308 -56.5t190 -161t64 -247.5q0 -127 -47.5 -245.5zM198 1067l-269 1l45 342h330z" />
    <glyph glyph-name="iotadieresistonos" unicode="&#x390;" horiz-adv-x="699" 
d="M405 -32q-134 7 -214.5 36t-117 84t-36.5 141q0 65 18 147l148 693h403l-145 -672q-7 -37 -7 -55q0 -41 23.5 -65.5t80.5 -39.5zM519 1363h-153l130 227h247zM104.5 1179q-30.5 28 -30.5 75q0 14 3 30q13 61 60 98.5t108 37.5q52 0 83 -27.5t31 -74.5q0 -18 -4 -34
q-12 -59 -59 -96t-108 -37q-53 0 -83.5 28zM558.5 1179q-30.5 28 -30.5 75q0 14 3 30q13 61 60 98.5t108 37.5q53 0 84 -28t31 -75q0 -17 -4 -33q-12 -58 -59 -95.5t-109 -37.5q-53 0 -83.5 28z" />
    <glyph glyph-name="Alpha" unicode="&#x391;" horiz-adv-x="1450" 
d="M1330 0h-432l-17 178h-440l-94 -178h-454l833 1407h373zM779 816l-149 -281h216l-28 281l-3 76h-4z" />
    <glyph glyph-name="Beta" unicode="&#x392;" horiz-adv-x="1311" 
d="M8 0l299 1405h529q224 0 348 -81.5t124 -254.5q0 -105 -55.5 -190t-154.5 -123q67 -29 104.5 -97.5t37.5 -154.5q0 -154 -83 -268.5t-219.5 -175t-292.5 -60.5h-637zM734 887q46 0 76 19.5t43.5 44t13.5 38.5q0 25 -22.5 37.5t-58.5 12.5h-124l-32 -152h104zM672 358
q40 0 72.5 19.5t51 48t18.5 55.5q0 36 -21 62t-65 26h-168l-44 -211h156z" />
    <glyph glyph-name="Gamma" unicode="&#x393;" horiz-adv-x="1076" 
d="M442 0h-434l299 1405h873l-86 -403h-439z" />
    <glyph glyph-name="uni0394" unicode="&#x394;" horiz-adv-x="1450" 
d="M726 1407h373l231 -1407h-1437zM536 357h320l21 -147l-59 606l-3 76h-4l-32 -76z" />
    <glyph glyph-name="Epsilon" unicode="&#x395;" horiz-adv-x="1235" 
d="M1059 0h-1051l299 1405h1035l-82 -388h-604l-29 -132h463l-76 -358h-463l-30 -139h620z" />
    <glyph glyph-name="Zeta" unicode="&#x396;" horiz-adv-x="1278" 
d="M1101 0h-1151l66 313l650 703h-489l83 389h1096l-62 -292l-674 -724h564z" />
    <glyph glyph-name="Eta" unicode="&#x397;" horiz-adv-x="1502" 
d="M439 0h-431l299 1405h431l-98 -458h397l98 458h431l-299 -1405h-431l114 535h-397z" />
    <glyph glyph-name="Theta" unicode="&#x398;" horiz-adv-x="1590" 
d="M382.5 45q-141.5 73 -216.5 211t-75 329q0 212 111 408.5t305 318t431 121.5q195 0 337 -74.5t217.5 -214t75.5 -332.5q0 -210 -111 -404t-306 -315t-432 -121q-195 0 -336.5 73zM954 432.5q83 49.5 132 136.5t49 194q0 127 -69.5 193t-181.5 66q-96 0 -179 -50.5
t-132 -139.5t-49 -199q0 -124 69 -187t181 -63q97 0 180 49.5zM966 616h-318l38 199h318z" />
    <glyph glyph-name="Iota" unicode="&#x399;" horiz-adv-x="674" 
d="M439 0h-431l299 1405h431z" />
    <glyph glyph-name="Kappa" unicode="&#x39a;" horiz-adv-x="1455" 
d="M1071 1405h544l-627 -600l336 -805h-491l-179 484l-141 -134l-74 -350h-431l299 1405h431l-93 -439z" />
    <glyph glyph-name="Lambda" unicode="&#x39b;" horiz-adv-x="1450" 
d="M347 0h-454l833 1407h373l231 -1407h-432l-80 816l-3 76h-4l-32 -76z" />
    <glyph glyph-name="Mu" unicode="&#x39c;" horiz-adv-x="1816" 
d="M376 0h-434l488 1405h467l10 -811l357 811h493l-109 -1406h-437l75 713l-305 -712h-376l4 712z" />
    <glyph glyph-name="Nu" unicode="&#x39d;" horiz-adv-x="1487" 
d="M426 0h-418l299 1405h410l273 -672l143 672h418l-299 -1405h-367l-305 728z" />
    <glyph glyph-name="Xi" unicode="&#x39e;" horiz-adv-x="1191" 
d="M1205 1002h-1024l86 403h1024zM991 533h-796l72 336h795zM1013 0h-1063l86 403h1063z" />
    <glyph glyph-name="Omicron" unicode="&#x39f;" horiz-adv-x="1590" 
d="M382.5 45q-141.5 73 -216.5 211t-75 329q0 212 111 408.5t305 318t431 121.5q195 0 337 -74.5t217.5 -214t75.5 -332.5q0 -210 -111 -404t-306 -315t-432 -121q-195 0 -336.5 73zM954 432.5q83 49.5 132 136.5t49 194q0 127 -69.5 193t-181.5 66q-96 0 -179 -50.5
t-132 -139.5t-49 -199q0 -124 69 -187t181 -63q97 0 180 49.5z" />
    <glyph glyph-name="Pi" unicode="&#x3a0;" horiz-adv-x="1495" 
d="M442 0h-434l299 1405h1251l-299 -1405h-434l218 1020h-383z" />
    <glyph glyph-name="Rho" unicode="&#x3a1;" horiz-adv-x="1282" 
d="M8 0l299 1405h592q139 0 240 -51.5t153.5 -143.5t52.5 -212q0 -137 -75.5 -270.5t-218.5 -219.5t-335 -86h-188l-89 -422h-431zM740 810q47 0 84 19t57.5 49t20.5 60q0 34 -27.5 56.5t-68.5 22.5h-150l-45 -207h129z" />
    <glyph glyph-name="Sigma" unicode="&#x3a3;" horiz-adv-x="1208" 
d="M1028 0h-1078l83 386l476 315l-342 316l83 388h1079l-87 -412h-528l237 -191l-45 -215l-268 -175h478z" />
    <glyph glyph-name="Tau" unicode="&#x3a4;" horiz-adv-x="1262" 
d="M731 0h-431l214 1004h-349l85 401h1130l-85 -401h-350z" />
    <glyph glyph-name="Upsilon" unicode="&#x3a5;" horiz-adv-x="1427" 
d="M814 0h-431l109 514l-301 891h488l108 -489l308 489h510l-680 -888z" />
    <glyph glyph-name="Phi" unicode="&#x3a6;" horiz-adv-x="1683" 
d="M542 143q-149 11 -251.5 73.5t-153 160.5t-50.5 217q0 146 84 294t242 252t368 123l30 142h433l-29 -138q143 -13 245.5 -75t156 -159.5t53.5 -214.5q0 -105 -61.5 -249t-217 -268.5t-415.5 -157.5l-31 -143h-433zM692 845q-56 -3 -92.5 -31.5t-53.5 -68t-17 -75.5
q0 -95 102 -112zM1064 558q58 9 94.5 38.5t52.5 67.5t16 74q0 43 -24 73.5t-77 33.5z" />
    <glyph glyph-name="Chi" unicode="&#x3a7;" horiz-adv-x="1434" 
d="M404 0h-515l594 710l-270 695h502l92 -368l245 368h523l-545 -691l273 -714h-499l-113 400z" />
    <glyph glyph-name="Psi" unicode="&#x3a8;" horiz-adv-x="1709" 
d="M1362 1405h435l-107 -500q-30 -144 -119.5 -257.5t-226.5 -183.5t-305 -86l-81 -378h-434l80 378q-141 13 -240 66t-150 140.5t-51 201.5q0 60 13 119l107 500h435l-106 -500q-5 -27 -5 -42q0 -39 21 -57t63 -20l132 619h435l-132 -620q57 3 87 29.5t43 90.5z" />
    <glyph glyph-name="uni03A9" unicode="&#x3a9;" horiz-adv-x="1490" 
d="M1459.5 733.5q-47.5 -118.5 -125 -206.5t-163.5 -128h216l-85 -399h-636l125 583q63 10 125 46t103 98.5t41 146.5q0 52 -24.5 93t-70.5 64.5t-109 23.5q-89 0 -158 -42t-106.5 -109t-37.5 -138q0 -87 51 -129.5t117 -53.5l-124 -583h-636l85 399h211
q-56 41 -100.5 118.5t-44.5 194.5q0 140 81.5 310.5t268.5 296t482 125.5q182 0 308 -56.5t190 -161t64 -247.5q0 -127 -47.5 -245.5z" />
    <glyph glyph-name="Iotadieresis" unicode="&#x3aa;" horiz-adv-x="674" 
d="M439 0h-431l299 1405h431zM209.5 1534q-36.5 33 -36.5 87q0 19 4 35q15 70 70 114t127 44q61 0 97 -32.5t36 -88.5q0 -20 -4 -37q-15 -68 -70 -111.5t-126 -43.5q-61 0 -97.5 33zM654 1533.5q-36 32.5 -36 86.5q0 19 4 36q14 70 68.5 114t126.5 44q61 0 97 -32.5
t36 -87.5q0 -21 -4 -38q-14 -68 -69 -111.5t-126 -43.5q-61 0 -97 32.5z" />
    <glyph glyph-name="Upsilondieresis" unicode="&#x3ab;" horiz-adv-x="1427" 
d="M814 0h-431l109 514l-301 891h488l108 -489l308 489h510l-680 -888zM618.5 1534q-36.5 33 -36.5 87q0 19 4 35q15 70 70 114t127 44q61 0 97 -32.5t36 -88.5q0 -20 -4 -37q-15 -68 -70 -111.5t-126 -43.5q-61 0 -97.5 33zM1063 1533.5q-36 32.5 -36 86.5q0 19 4 36
q14 70 68.5 114t126.5 44q61 0 97 -32.5t36 -87.5q0 -21 -4 -38q-14 -68 -69 -111.5t-126 -43.5q-61 0 -97 32.5z" />
    <glyph glyph-name="alphatonos" unicode="&#x3ac;" horiz-adv-x="1357" 
d="M244.5 29q-99.5 59 -155 164t-55.5 238q0 158 67.5 310.5t206.5 252t342 99.5q101 0 178 -34t128 -95l51 105h385l-184 -528l-44 -541h-385l-5 106q-47 -66 -132 -101t-172 -35q-126 0 -225.5 59zM682 374q45 23 82.5 66t58.5 100q-18 87 -64.5 131.5t-108.5 44.5
q-63 0 -109.5 -30.5t-71 -77t-24.5 -94.5q0 -74 39.5 -118.5t107.5 -44.5q45 0 90 23zM898 1146h-248l43 332h309z" />
    </font>
</defs>
</svg>
